<svg width="65" height="65" viewBox="0 0 65 65" fill="none" xmlns="http://www.w3.org/2000/svg">
<path d="M55.1133 8.68424H51.1279V5.88186C51.1279 4.58244 50.6333 3.37032 49.7218 2.4588C48.82 1.55699 47.5982 1.05273 46.2988 1.05273C43.6418 1.05273 41.4697 3.21519 41.4697 5.88186V8.68424H21.9594V5.88186C21.9594 4.58244 21.4551 3.37032 20.5533 2.4588C19.6418 1.55699 18.4297 1.05273 17.1303 1.05273C14.4637 1.05273 12.3012 3.21519 12.3012 5.88186V8.68424H9.88666C4.70851 8.68424 0.5 12.9025 0.5 18.0806V54.551C0.5 59.7291 4.70851 63.9473 9.88666 63.9473H55.1133C60.2818 63.9473 64.5 59.7291 64.5 54.551V18.0806C64.5 12.9025 60.2818 8.68424 55.1133 8.68424ZM43.4091 5.88186C43.4091 4.29154 44.7085 2.99212 46.2988 2.99212C47.0842 2.99212 47.8115 3.29272 48.3545 3.83575C48.8976 4.37878 49.1885 5.10605 49.1885 5.88186V8.68424H43.4091V5.88186ZM14.2406 5.88186C14.2406 4.29154 15.54 2.99212 17.1303 2.99212C17.9061 2.99212 18.6334 3.29272 19.1764 3.83575C19.7194 4.37878 20.02 5.10605 20.02 5.88186V8.68424H14.2406L14.2406 5.88186ZM62.5606 54.551C62.5606 58.6625 59.2151 62.0079 55.1133 62.0079H9.88666C5.78486 62.0079 2.43939 58.6625 2.43939 54.551V25.4019H62.5606V54.551ZM62.5606 23.4625H2.43939V18.0806C2.43939 13.9691 5.78486 10.6236 9.88666 10.6236H20.02V13.4261C20.02 13.7558 19.9521 14.0661 19.8455 14.3764C19.1569 13.6685 18.197 13.2321 17.1303 13.2321C15.4818 13.2321 14.0855 14.2891 13.5521 15.7534C13.5133 15.8213 13.4939 15.8988 13.4842 15.9764C13.3776 16.3158 13.3097 16.6649 13.3097 17.0431C13.3097 19.1473 15.026 20.854 17.1303 20.854C19.2345 20.854 20.9509 19.1473 20.9509 17.0431C20.9509 16.8297 20.9218 16.6261 20.883 16.4322C21.5715 15.5788 21.9594 14.5316 21.9594 13.4261V10.6236H49.1885V13.4261C49.1885 13.7558 49.1303 14.0661 49.0236 14.3764C48.3352 13.6685 47.3655 13.2321 46.3085 13.2321C44.6503 13.2321 43.254 14.2891 42.7303 15.7534C42.6915 15.8213 42.6721 15.8988 42.6527 15.9764C42.5557 16.3158 42.4879 16.6649 42.4879 17.0431C42.4879 19.1473 44.1945 20.854 46.3085 20.854C48.4128 20.854 50.1194 19.1473 50.1194 17.0431C50.1194 16.8297 50.0903 16.6261 50.0612 16.4322C50.74 15.5691 51.1279 14.5316 51.1279 13.4261V10.6236H55.1133C59.2151 10.6236 62.5606 13.9691 62.5606 18.0806L62.5606 23.4625ZM17.1303 18.2552C17.6927 18.2552 18.2357 18.1485 18.7594 17.9642C18.4297 18.5267 17.8285 18.9146 17.1303 18.9146C16.4321 18.9146 15.8212 18.5267 15.5013 17.9545C16.0152 18.1388 16.5679 18.2552 17.1303 18.2552ZM15.6564 15.8891C16.0055 15.4528 16.5291 15.1715 17.1303 15.1715C17.7315 15.1715 18.2649 15.4625 18.6042 15.8988C17.7121 16.403 16.5582 16.4128 15.6564 15.8891ZM46.2988 18.2552C46.8709 18.2552 47.414 18.1485 47.9279 17.9642C47.6079 18.5267 47.0067 18.9146 46.3085 18.9146C45.6006 18.9146 44.9994 18.5267 44.6794 17.9545C45.1934 18.1388 45.7364 18.2552 46.2988 18.2552ZM44.8346 15.8891C45.174 15.4528 45.7073 15.1715 46.3085 15.1715C46.9097 15.1715 47.4334 15.4625 47.7824 15.8988C46.8903 16.403 45.7364 16.4128 44.8346 15.8891Z" fill="#524633"/>
<path d="M18.6049 15.8987C17.7128 16.4029 16.5589 16.4126 15.6571 15.889C16.0062 15.4526 16.5298 15.1714 17.131 15.1714C17.7322 15.1714 18.2656 15.4623 18.6049 15.8987ZM18.7601 17.9641C18.4304 18.5266 17.8292 18.9145 17.131 18.9145C16.4328 18.9145 15.8219 18.5266 15.502 17.9544C16.0159 18.1387 16.5686 18.2551 17.131 18.2551C17.6934 18.2551 18.2364 18.1484 18.7601 17.9641ZM47.9286 17.9641C47.6086 18.5266 47.0074 18.9145 46.3092 18.9145C45.6013 18.9145 45.0001 18.5266 44.6801 17.9544C45.194 18.1387 45.7371 18.2551 46.2995 18.2551C46.8716 18.2551 47.4146 18.1484 47.9286 17.9641ZM47.7831 15.8987C46.891 16.4029 45.7371 16.4126 44.8353 15.889C45.1746 15.4526 45.708 15.1714 46.3092 15.1714C46.9104 15.1714 47.4341 15.4623 47.7831 15.8987Z" fill="#FFDB6B"/>
<path d="M30.3955 50.7497H24.587C29.067 46.4055 32.1991 42.9146 32.1991 38.357C32.1991 34.5461 29.7264 30.7061 24.2088 30.7061C21.3773 30.7061 19.2827 31.7242 18.0221 32.5873C17.0718 33.2272 16.7324 34.4588 17.2076 35.5158C17.4888 36.1267 18.0124 36.5921 18.6525 36.7861C19.3021 36.9897 20.0197 36.8927 20.6112 36.5339C21.6003 35.923 22.6088 35.6224 23.5882 35.6224C25.7312 35.6224 26.7785 36.6406 26.7785 38.7255C26.7494 41.5279 24.4318 44.1849 18.8949 49.4503L16.9361 51.3509C16.4512 51.8261 16.1797 52.4758 16.1797 53.1546C16.1797 54.5315 17.3046 55.6563 18.6815 55.6563H30.3955C31.6852 55.6563 32.7421 54.5994 32.7421 53.3097V53.0964C32.7421 51.797 31.6852 50.7497 30.3955 50.7497ZM31.2876 53.3097C31.2876 53.8042 30.89 54.2018 30.3955 54.2018H18.6815C18.0997 54.2018 17.6342 53.7267 17.6342 53.1546C17.6342 52.8733 17.7506 52.5921 17.9542 52.3982L19.9033 50.4976C25.7506 44.9412 28.1942 42.0709 28.233 38.7255C28.233 35.8261 26.536 34.1679 23.5882 34.1679C22.3373 34.1679 21.0767 34.5461 19.8452 35.2927C19.6124 35.4382 19.3409 35.4769 19.0791 35.3897C18.8367 35.3218 18.6427 35.1473 18.536 34.9146C18.3518 34.4976 18.4778 34.0321 18.8367 33.7897C19.9324 33.0431 21.7458 32.1606 24.2088 32.1606C29.0282 32.1606 30.7445 35.4964 30.7445 38.357C30.7445 42.4782 27.6124 45.8139 23.2003 50.0709L22.25 50.9339C22.0367 51.1376 21.9591 51.4576 22.0657 51.7388C22.1821 52.02 22.4439 52.2042 22.7445 52.2042H30.3955C30.89 52.2042 31.2876 52.6018 31.2876 53.0964L31.2876 53.3097Z" fill="#524633"/>
<path d="M31.2881 53.0964V53.3097C31.2881 53.8043 30.8906 54.2018 30.396 54.2018H18.6821C18.1003 54.2018 17.6348 53.7267 17.6348 53.1546C17.6348 52.8734 17.7511 52.5922 17.9548 52.3982L19.9039 50.4977C25.7511 44.9413 28.1948 42.071 28.2335 38.7255C28.2335 35.8261 26.5366 34.1679 23.5887 34.1679C22.3378 34.1679 21.0772 34.5461 19.8457 35.2927C19.613 35.4382 19.3414 35.477 19.0797 35.3898C18.8372 35.3219 18.6433 35.1473 18.5366 34.9146C18.3524 34.4977 18.4784 34.0322 18.8372 33.7897C19.9329 33.0431 21.7463 32.1606 24.2093 32.1606C29.0287 32.1606 30.7451 35.4964 30.7451 38.357C30.7451 42.4782 27.613 45.814 23.2009 50.071L22.2505 50.934C22.0372 51.1376 21.9596 51.4576 22.0663 51.7388C22.1826 52.02 22.4445 52.2043 22.7451 52.2043H30.396C30.8906 52.2043 31.2881 52.6019 31.2881 53.0964Z" fill="#FFDB6B"/>
<path d="M42.0905 41.8672C40.2383 41.8672 38.4735 42.992 37.6008 44.6793C37.339 45.1254 37.2129 45.6102 37.2129 46.1726C37.2905 50.226 39.2493 52.7472 42.3329 52.7472C45.019 52.7472 46.9002 50.4587 46.9002 47.1811C46.9002 43.9521 45.0093 41.8672 42.0905 41.8672ZM42.3329 51.2926C40.0638 51.2926 38.7353 49.4114 38.6674 46.1629C38.6674 45.872 38.7256 45.6393 38.8808 45.3872C39.5208 44.1266 40.7814 43.3217 42.0905 43.3217C44.1947 43.3217 45.4456 44.7666 45.4456 47.1811C45.4456 49.6829 44.2238 51.2926 42.3329 51.2926Z" fill="#524633"/>
<path d="M43.0112 38.6479C41.9445 38.6479 40.9166 38.8419 39.9663 39.2201C41.1397 37.3679 43.0597 36.1364 45.4548 35.7388C45.8233 35.6806 46.182 35.6419 46.5118 35.6225C47.753 35.5546 48.7227 34.517 48.7227 33.2758V33.1497C48.7227 32.4904 48.4415 31.86 47.9566 31.4139C47.4718 30.9679 46.8124 30.7449 46.1433 30.803C45.833 30.8322 45.5033 30.8709 45.1833 30.9195C42.1094 31.2976 39.4136 32.5485 37.3869 34.5364C34.7397 37.1837 33.2754 41.0334 33.2754 45.3776C33.2754 51.8552 36.8342 56.0346 42.3324 56.0346C47.8984 56.0346 50.9045 51.3898 50.9045 47.0164C50.9045 42.0903 47.656 38.6479 43.0112 38.6479ZM42.3324 54.58C37.7166 54.58 34.7299 50.9631 34.7299 45.3776C34.7299 41.4212 36.0391 37.94 38.4051 35.574C40.199 33.8091 42.6039 32.7037 45.3773 32.3643C45.6875 32.3158 45.9978 32.277 46.2791 32.2479H46.3566C46.5894 32.2479 46.8124 32.3352 46.9772 32.4806C47.1615 32.6552 47.2681 32.8976 47.2681 33.1497V33.2758C47.2681 33.7509 46.8996 34.1388 46.4245 34.1679C46.0463 34.197 45.639 34.2358 45.2221 34.3037C41.479 34.9242 38.7251 37.2903 37.6681 40.7715C37.5808 41.0818 37.6972 41.4115 37.959 41.5861C38.2306 41.7703 38.5797 41.7509 38.8318 41.5473C39.9566 40.6164 41.4499 40.1024 43.0112 40.1024C46.8027 40.1024 49.4499 42.9436 49.4499 47.0164C49.4499 50.6818 46.9579 54.58 42.3324 54.58Z" fill="#524633"/>
<path d="M43.0117 40.1026C41.4505 40.1026 39.9571 40.6165 38.8323 41.5474C38.5802 41.7511 38.2311 41.7705 37.9596 41.5862C37.6977 41.4116 37.5814 41.082 37.6687 40.7717C38.7256 37.2904 41.4796 34.9244 45.2226 34.3038C45.6396 34.2359 46.0469 34.1971 46.425 34.168C46.9002 34.1389 47.2687 33.7511 47.2687 33.2759V33.1499C47.2687 32.8977 47.162 32.6553 46.9777 32.4808C46.8129 32.3353 46.5899 32.248 46.3571 32.248H46.2796C45.9983 32.2771 45.688 32.3159 45.3778 32.3644C42.6044 32.7038 40.1996 33.8092 38.4057 35.5741C36.0396 37.9402 34.7305 41.4213 34.7305 45.3777C34.7305 50.9632 37.7172 54.5801 42.3329 54.5801C46.9584 54.5801 49.4505 50.6819 49.4505 47.0165C49.4505 42.9438 46.8032 40.1026 43.0117 40.1026ZM42.3329 52.7474C39.2493 52.7474 37.2905 50.2262 37.2129 46.1729C37.2129 45.6104 37.339 45.1256 37.6008 44.6796C38.4735 42.9922 40.2383 41.8674 42.0905 41.8674C45.0093 41.8674 46.9002 43.9523 46.9002 47.1813C46.9001 50.4589 45.019 52.7474 42.3329 52.7474Z" fill="#FFDB6B"/>
</svg>
