<svg width="504" height="235" viewBox="0 0 504 235" fill="none" xmlns="http://www.w3.org/2000/svg">
<g filter="url(#filter0_d_5_4613)">
<g filter="url(#filter1_b_5_4613)">
<rect x="44" y="52.0977" width="404.509" height="134.836" rx="30" fill="#7C5224" fill-opacity="0.2"/>
</g>
<circle cx="100.803" cy="119.602" r="36.47" fill="#A67F28"/>
<path d="M94.7174 119.267C94.7174 118.852 95.0532 118.517 95.4674 118.517H105.967C106.382 118.517 106.717 118.852 106.717 119.267C106.717 119.681 106.382 120.017 105.967 120.017H95.4674C95.0532 120.017 94.7174 119.681 94.7174 119.267Z" fill="#EEEEEE"/>
<path d="M108.717 131.517H91.7174C90.0606 131.517 88.7174 130.173 88.7174 128.517V116.517C88.7174 114.86 90.0606 113.517 91.7174 113.517H95.6405" stroke="#EEEEEE" stroke-width="1.5" stroke-linecap="round"/>
<path d="M92.7174 107.517L109.717 107.517C111.374 107.517 112.717 108.86 112.717 110.517L112.717 122.517C112.717 124.173 111.374 125.517 109.717 125.517L95.7943 125.517" stroke="#EEEEEE" stroke-width="1.5" stroke-linecap="round"/>
<path d="M448.509 106.674L392.05 106.674C391.385 106.674 390.905 106.037 391.089 105.398L406.413 52.0972" stroke="url(#paint0_diamond_5_4613)" stroke-opacity="0.13" stroke-width="23" stroke-linecap="round"/>
<path d="M165.184 125.447C164.904 124.803 164.474 124.299 163.896 123.935C163.326 123.562 162.654 123.375 161.88 123.375C161.152 123.375 160.498 123.543 159.92 123.879C159.341 124.215 158.884 124.696 158.548 125.321C158.212 125.937 158.044 126.656 158.044 127.477C158.044 128.298 158.212 129.022 158.548 129.647C158.884 130.272 159.341 130.753 159.92 131.089C160.498 131.425 161.152 131.593 161.88 131.593C162.561 131.593 163.172 131.448 163.714 131.159C164.264 130.86 164.703 130.44 165.03 129.899C165.366 129.348 165.557 128.709 165.604 127.981H161.488V127.183H166.64V127.897C166.593 128.756 166.36 129.535 165.94 130.235C165.52 130.926 164.955 131.472 164.246 131.873C163.546 132.274 162.757 132.475 161.88 132.475C160.974 132.475 160.153 132.265 159.416 131.845C158.678 131.416 158.095 130.823 157.666 130.067C157.246 129.302 157.036 128.438 157.036 127.477C157.036 126.516 157.246 125.657 157.666 124.901C158.095 124.136 158.678 123.543 159.416 123.123C160.153 122.694 160.974 122.479 161.88 122.479C162.925 122.479 163.84 122.74 164.624 123.263C165.408 123.786 165.977 124.514 166.332 125.447H165.184ZM171.781 132.489C171.062 132.489 170.413 132.33 169.835 132.013C169.265 131.686 168.813 131.229 168.477 130.641C168.15 130.044 167.987 129.348 167.987 128.555C167.987 127.762 168.155 127.071 168.491 126.483C168.827 125.886 169.284 125.428 169.863 125.111C170.441 124.784 171.09 124.621 171.809 124.621C172.527 124.621 173.176 124.784 173.755 125.111C174.343 125.428 174.8 125.886 175.127 126.483C175.463 127.071 175.631 127.762 175.631 128.555C175.631 129.339 175.463 130.03 175.127 130.627C174.791 131.224 174.329 131.686 173.741 132.013C173.153 132.33 172.499 132.489 171.781 132.489ZM171.781 131.635C172.285 131.635 172.751 131.523 173.181 131.299C173.61 131.066 173.955 130.72 174.217 130.263C174.487 129.796 174.623 129.227 174.623 128.555C174.623 127.883 174.492 127.318 174.231 126.861C173.969 126.394 173.624 126.049 173.195 125.825C172.765 125.592 172.299 125.475 171.795 125.475C171.291 125.475 170.824 125.592 170.395 125.825C169.965 126.049 169.62 126.394 169.359 126.861C169.107 127.318 168.981 127.883 168.981 128.555C168.981 129.227 169.107 129.796 169.359 130.263C169.62 130.72 169.961 131.066 170.381 131.299C170.81 131.523 171.277 131.635 171.781 131.635ZM176.969 128.541C176.969 127.757 177.123 127.071 177.431 126.483C177.749 125.886 178.183 125.428 178.733 125.111C179.293 124.784 179.923 124.621 180.623 124.621C181.351 124.621 181.977 124.789 182.499 125.125C183.031 125.461 183.414 125.89 183.647 126.413V124.733H184.627V132.377H183.647V130.683C183.405 131.206 183.017 131.64 182.485 131.985C181.963 132.321 181.337 132.489 180.609 132.489C179.919 132.489 179.293 132.326 178.733 131.999C178.183 131.672 177.749 131.21 177.431 130.613C177.123 130.016 176.969 129.325 176.969 128.541ZM183.647 128.555C183.647 127.939 183.521 127.398 183.269 126.931C183.017 126.464 182.672 126.105 182.233 125.853C181.804 125.601 181.328 125.475 180.805 125.475C180.264 125.475 179.779 125.596 179.349 125.839C178.92 126.082 178.579 126.436 178.327 126.903C178.085 127.36 177.963 127.906 177.963 128.541C177.963 129.166 178.085 129.717 178.327 130.193C178.579 130.66 178.92 131.019 179.349 131.271C179.779 131.514 180.264 131.635 180.805 131.635C181.328 131.635 181.804 131.509 182.233 131.257C182.672 131.005 183.017 130.646 183.269 130.179C183.521 129.712 183.647 129.171 183.647 128.555ZM187.845 122.017V132.377H186.865V122.017H187.845ZM196.538 132.489C195.66 132.489 194.942 132.288 194.382 131.887C193.831 131.476 193.523 130.921 193.458 130.221H194.466C194.512 130.65 194.713 131 195.068 131.271C195.432 131.532 195.917 131.663 196.524 131.663C197.056 131.663 197.471 131.537 197.77 131.285C198.078 131.033 198.232 130.72 198.232 130.347C198.232 130.086 198.148 129.871 197.98 129.703C197.812 129.535 197.597 129.404 197.336 129.311C197.084 129.208 196.738 129.101 196.3 128.989C195.73 128.84 195.268 128.69 194.914 128.541C194.559 128.392 194.256 128.172 194.004 127.883C193.761 127.584 193.64 127.188 193.64 126.693C193.64 126.32 193.752 125.974 193.976 125.657C194.2 125.34 194.517 125.088 194.928 124.901C195.338 124.714 195.805 124.621 196.328 124.621C197.149 124.621 197.812 124.831 198.316 125.251C198.82 125.662 199.09 126.231 199.128 126.959H198.148C198.12 126.511 197.942 126.152 197.616 125.881C197.298 125.601 196.86 125.461 196.3 125.461C195.805 125.461 195.404 125.578 195.096 125.811C194.788 126.044 194.634 126.334 194.634 126.679C194.634 126.978 194.722 127.225 194.9 127.421C195.086 127.608 195.315 127.757 195.586 127.869C195.856 127.972 196.22 128.088 196.678 128.219C197.228 128.368 197.667 128.513 197.994 128.653C198.32 128.793 198.6 128.998 198.834 129.269C199.067 129.54 199.188 129.899 199.198 130.347C199.198 130.758 199.086 131.126 198.862 131.453C198.638 131.77 198.325 132.022 197.924 132.209C197.522 132.396 197.06 132.489 196.538 132.489ZM207.958 128.163C207.958 128.499 207.949 128.756 207.93 128.933H201.588C201.616 129.512 201.756 130.006 202.008 130.417C202.26 130.828 202.592 131.14 203.002 131.355C203.413 131.56 203.861 131.663 204.346 131.663C204.981 131.663 205.513 131.509 205.942 131.201C206.381 130.893 206.67 130.478 206.81 129.955H207.846C207.66 130.702 207.258 131.313 206.642 131.789C206.036 132.256 205.27 132.489 204.346 132.489C203.628 132.489 202.984 132.33 202.414 132.013C201.845 131.686 201.397 131.229 201.07 130.641C200.753 130.044 200.594 129.348 200.594 128.555C200.594 127.762 200.753 127.066 201.07 126.469C201.388 125.872 201.831 125.414 202.4 125.097C202.97 124.78 203.618 124.621 204.346 124.621C205.074 124.621 205.709 124.78 206.25 125.097C206.801 125.414 207.221 125.844 207.51 126.385C207.809 126.917 207.958 127.51 207.958 128.163ZM206.964 128.135C206.974 127.566 206.857 127.08 206.614 126.679C206.381 126.278 206.059 125.974 205.648 125.769C205.238 125.564 204.79 125.461 204.304 125.461C203.576 125.461 202.956 125.694 202.442 126.161C201.929 126.628 201.644 127.286 201.588 128.135H206.964ZM211.025 125.559V130.305C211.025 130.772 211.114 131.094 211.291 131.271C211.469 131.448 211.781 131.537 212.229 131.537H213.125V132.377H212.075C211.385 132.377 210.871 132.218 210.535 131.901C210.199 131.574 210.031 131.042 210.031 130.305V125.559H208.967V124.733H210.031V122.815H211.025V124.733H213.125V125.559H211.025ZM216.015 125.559V130.305C216.015 130.772 216.104 131.094 216.281 131.271C216.459 131.448 216.771 131.537 217.219 131.537H218.115V132.377H217.065C216.375 132.377 215.861 132.218 215.525 131.901C215.189 131.574 215.021 131.042 215.021 130.305V125.559H213.957V124.733H215.021V122.815H216.015V124.733H218.115V125.559H216.015ZM220.222 123.291C220.026 123.291 219.858 123.221 219.718 123.081C219.578 122.941 219.508 122.768 219.508 122.563C219.508 122.358 219.578 122.19 219.718 122.059C219.858 121.919 220.026 121.849 220.222 121.849C220.418 121.849 220.586 121.919 220.726 122.059C220.866 122.19 220.936 122.358 220.936 122.563C220.936 122.768 220.866 122.941 220.726 123.081C220.586 123.221 220.418 123.291 220.222 123.291ZM220.712 124.733V132.377H219.732V124.733H220.712ZM226.515 124.593C227.43 124.593 228.176 124.878 228.755 125.447C229.334 126.007 229.623 126.824 229.623 127.897V132.377H228.657V128.009C228.657 127.178 228.447 126.544 228.027 126.105C227.616 125.666 227.052 125.447 226.333 125.447C225.596 125.447 225.008 125.68 224.569 126.147C224.13 126.614 223.911 127.3 223.911 128.205V132.377H222.931V124.733H223.911V126.035C224.154 125.568 224.504 125.214 224.961 124.971C225.418 124.719 225.936 124.593 226.515 124.593ZM234.996 124.621C235.715 124.621 236.34 124.789 236.872 125.125C237.404 125.461 237.787 125.886 238.02 126.399V124.733H239V132.573C239 133.273 238.846 133.894 238.538 134.435C238.24 134.976 237.82 135.392 237.278 135.681C236.737 135.98 236.121 136.129 235.43 136.129C234.45 136.129 233.634 135.896 232.98 135.429C232.336 134.962 231.935 134.328 231.776 133.525H232.742C232.91 134.057 233.228 134.482 233.694 134.799C234.17 135.116 234.749 135.275 235.43 135.275C235.925 135.275 236.368 135.168 236.76 134.953C237.152 134.748 237.46 134.44 237.684 134.029C237.908 133.618 238.02 133.133 238.02 132.573V130.683C237.778 131.206 237.39 131.64 236.858 131.985C236.336 132.321 235.715 132.489 234.996 132.489C234.296 132.489 233.666 132.326 233.106 131.999C232.556 131.672 232.122 131.21 231.804 130.613C231.496 130.016 231.342 129.325 231.342 128.541C231.342 127.757 231.496 127.071 231.804 126.483C232.122 125.886 232.556 125.428 233.106 125.111C233.666 124.784 234.296 124.621 234.996 124.621ZM238.02 128.555C238.02 127.939 237.894 127.398 237.642 126.931C237.39 126.464 237.045 126.105 236.606 125.853C236.177 125.601 235.701 125.475 235.178 125.475C234.637 125.475 234.152 125.596 233.722 125.839C233.293 126.082 232.952 126.436 232.7 126.903C232.458 127.36 232.336 127.906 232.336 128.541C232.336 129.166 232.458 129.717 232.7 130.193C232.952 130.66 233.293 131.019 233.722 131.271C234.152 131.514 234.637 131.635 235.178 131.635C235.701 131.635 236.177 131.509 236.606 131.257C237.045 131.005 237.39 130.646 237.642 130.179C237.894 129.712 238.02 129.171 238.02 128.555ZM242.134 130.753L240.678 134.421H240.006L241.042 130.753H242.134ZM248.465 126.413C248.708 125.9 249.091 125.475 249.613 125.139C250.145 124.794 250.775 124.621 251.503 124.621C252.194 124.621 252.815 124.784 253.365 125.111C253.925 125.428 254.359 125.886 254.667 126.483C254.985 127.071 255.143 127.757 255.143 128.541C255.143 129.325 254.985 130.016 254.667 130.613C254.359 131.21 253.925 131.672 253.365 131.999C252.815 132.326 252.194 132.489 251.503 132.489C250.785 132.489 250.159 132.321 249.627 131.985C249.095 131.64 248.708 131.21 248.465 130.697V135.989H247.499V124.733H248.465V126.413ZM254.149 128.541C254.149 127.906 254.023 127.36 253.771 126.903C253.529 126.436 253.193 126.082 252.763 125.839C252.334 125.596 251.849 125.475 251.307 125.475C250.785 125.475 250.304 125.601 249.865 125.853C249.436 126.105 249.095 126.464 248.843 126.931C248.591 127.398 248.465 127.939 248.465 128.555C248.465 129.171 248.591 129.712 248.843 130.179C249.095 130.646 249.436 131.005 249.865 131.257C250.304 131.509 250.785 131.635 251.307 131.635C251.849 131.635 252.334 131.514 252.763 131.271C253.193 131.019 253.529 130.66 253.771 130.193C254.023 129.717 254.149 129.166 254.149 128.541ZM257.927 122.017V132.377H256.947V122.017H257.927ZM259.698 128.541C259.698 127.757 259.852 127.071 260.16 126.483C260.477 125.886 260.911 125.428 261.462 125.111C262.022 124.784 262.652 124.621 263.352 124.621C264.08 124.621 264.705 124.789 265.228 125.125C265.76 125.461 266.142 125.89 266.376 126.413V124.733H267.356V132.377H266.376V130.683C266.133 131.206 265.746 131.64 265.214 131.985C264.691 132.321 264.066 132.489 263.338 132.489C262.647 132.489 262.022 132.326 261.462 131.999C260.911 131.672 260.477 131.21 260.16 130.613C259.852 130.016 259.698 129.325 259.698 128.541ZM266.376 128.555C266.376 127.939 266.25 127.398 265.998 126.931C265.746 126.464 265.4 126.105 264.962 125.853C264.532 125.601 264.056 125.475 263.534 125.475C262.992 125.475 262.507 125.596 262.078 125.839C261.648 126.082 261.308 126.436 261.056 126.903C260.813 127.36 260.692 127.906 260.692 128.541C260.692 129.166 260.813 129.717 261.056 130.193C261.308 130.66 261.648 131.019 262.078 131.271C262.507 131.514 262.992 131.635 263.534 131.635C264.056 131.635 264.532 131.509 264.962 131.257C265.4 131.005 265.746 130.646 265.998 130.179C266.25 129.712 266.376 129.171 266.376 128.555ZM273.177 124.593C274.092 124.593 274.838 124.878 275.417 125.447C275.996 126.007 276.285 126.824 276.285 127.897V132.377H275.319V128.009C275.319 127.178 275.109 126.544 274.689 126.105C274.278 125.666 273.714 125.447 272.995 125.447C272.258 125.447 271.67 125.68 271.231 126.147C270.792 126.614 270.573 127.3 270.573 128.205V132.377H269.593V124.733H270.573V126.035C270.816 125.568 271.166 125.214 271.623 124.971C272.08 124.719 272.598 124.593 273.177 124.593ZM282.036 124.593C282.951 124.593 283.698 124.878 284.276 125.447C284.855 126.007 285.144 126.824 285.144 127.897V132.377H284.178V128.009C284.178 127.178 283.968 126.544 283.548 126.105C283.138 125.666 282.573 125.447 281.854 125.447C281.117 125.447 280.529 125.68 280.09 126.147C279.652 126.614 279.432 127.3 279.432 128.205V132.377H278.452V124.733H279.432V126.035C279.675 125.568 280.025 125.214 280.482 124.971C280.94 124.719 281.458 124.593 282.036 124.593ZM294.228 128.163C294.228 128.499 294.218 128.756 294.2 128.933H287.858C287.886 129.512 288.026 130.006 288.278 130.417C288.53 130.828 288.861 131.14 289.272 131.355C289.682 131.56 290.13 131.663 290.616 131.663C291.25 131.663 291.782 131.509 292.212 131.201C292.65 130.893 292.94 130.478 293.08 129.955H294.116C293.929 130.702 293.528 131.313 292.912 131.789C292.305 132.256 291.54 132.489 290.616 132.489C289.897 132.489 289.253 132.33 288.684 132.013C288.114 131.686 287.666 131.229 287.34 130.641C287.022 130.044 286.864 129.348 286.864 128.555C286.864 127.762 287.022 127.066 287.34 126.469C287.657 125.872 288.1 125.414 288.67 125.097C289.239 124.78 289.888 124.621 290.616 124.621C291.344 124.621 291.978 124.78 292.52 125.097C293.07 125.414 293.49 125.844 293.78 126.385C294.078 126.917 294.228 127.51 294.228 128.163ZM293.234 128.135C293.243 127.566 293.126 127.08 292.884 126.679C292.65 126.278 292.328 125.974 291.918 125.769C291.507 125.564 291.059 125.461 290.574 125.461C289.846 125.461 289.225 125.694 288.712 126.161C288.198 126.628 287.914 127.286 287.858 128.135H293.234ZM297.001 126.091C297.215 125.615 297.542 125.246 297.981 124.985C298.429 124.724 298.975 124.593 299.619 124.593V125.615H299.353C298.643 125.615 298.074 125.806 297.645 126.189C297.215 126.572 297.001 127.211 297.001 128.107V132.377H296.021V124.733H297.001V126.091ZM303.725 132.489C302.848 132.489 302.129 132.288 301.569 131.887C301.018 131.476 300.71 130.921 300.645 130.221H301.653C301.7 130.65 301.9 131 302.255 131.271C302.619 131.532 303.104 131.663 303.711 131.663C304.243 131.663 304.658 131.537 304.957 131.285C305.265 131.033 305.419 130.72 305.419 130.347C305.419 130.086 305.335 129.871 305.167 129.703C304.999 129.535 304.784 129.404 304.523 129.311C304.271 129.208 303.926 129.101 303.487 128.989C302.918 128.84 302.456 128.69 302.101 128.541C301.746 128.392 301.443 128.172 301.191 127.883C300.948 127.584 300.827 127.188 300.827 126.693C300.827 126.32 300.939 125.974 301.163 125.657C301.387 125.34 301.704 125.088 302.115 124.901C302.526 124.714 302.992 124.621 303.515 124.621C304.336 124.621 304.999 124.831 305.503 125.251C306.007 125.662 306.278 126.231 306.315 126.959H305.335C305.307 126.511 305.13 126.152 304.803 125.881C304.486 125.601 304.047 125.461 303.487 125.461C302.992 125.461 302.591 125.578 302.283 125.811C301.975 126.044 301.821 126.334 301.821 126.679C301.821 126.978 301.91 127.225 302.087 127.421C302.274 127.608 302.502 127.757 302.773 127.869C303.044 127.972 303.408 128.088 303.865 128.219C304.416 128.368 304.854 128.513 305.181 128.653C305.508 128.793 305.788 128.998 306.021 129.269C306.254 129.54 306.376 129.899 306.385 130.347C306.385 130.758 306.273 131.126 306.049 131.453C305.825 131.77 305.512 132.022 305.111 132.209C304.71 132.396 304.248 132.489 303.725 132.489ZM309.126 130.753L307.67 134.421H306.998L308.034 130.753H309.126ZM317.501 125.559H315.723V132.377H314.743V125.559H313.679V124.733H314.743V124.201C314.743 123.37 314.953 122.759 315.373 122.367C315.803 121.975 316.493 121.779 317.445 121.779V122.619C316.811 122.619 316.363 122.74 316.101 122.983C315.849 123.226 315.723 123.632 315.723 124.201V124.733H317.501V125.559ZM319.534 123.291C319.338 123.291 319.17 123.221 319.03 123.081C318.89 122.941 318.82 122.768 318.82 122.563C318.82 122.358 318.89 122.19 319.03 122.059C319.17 121.919 319.338 121.849 319.534 121.849C319.73 121.849 319.898 121.919 320.038 122.059C320.178 122.19 320.248 122.358 320.248 122.563C320.248 122.768 320.178 122.941 320.038 123.081C319.898 123.221 319.73 123.291 319.534 123.291ZM320.024 124.733V132.377H319.044V124.733H320.024ZM325.827 124.593C326.742 124.593 327.489 124.878 328.067 125.447C328.646 126.007 328.935 126.824 328.935 127.897V132.377H327.969V128.009C327.969 127.178 327.759 126.544 327.339 126.105C326.929 125.666 326.364 125.447 325.645 125.447C324.908 125.447 324.32 125.68 323.881 126.147C323.443 126.614 323.223 127.3 323.223 128.205V132.377H322.243V124.733H323.223V126.035C323.466 125.568 323.816 125.214 324.273 124.971C324.731 124.719 325.249 124.593 325.827 124.593ZM330.655 128.541C330.655 127.757 330.809 127.071 331.117 126.483C331.434 125.886 331.868 125.428 332.419 125.111C332.979 124.784 333.609 124.621 334.309 124.621C335.037 124.621 335.662 124.789 336.185 125.125C336.717 125.461 337.099 125.89 337.333 126.413V124.733H338.313V132.377H337.333V130.683C337.09 131.206 336.703 131.64 336.171 131.985C335.648 132.321 335.023 132.489 334.295 132.489C333.604 132.489 332.979 132.326 332.419 131.999C331.868 131.672 331.434 131.21 331.117 130.613C330.809 130.016 330.655 129.325 330.655 128.541ZM337.333 128.555C337.333 127.939 337.207 127.398 336.955 126.931C336.703 126.464 336.357 126.105 335.919 125.853C335.489 125.601 335.013 125.475 334.491 125.475C333.949 125.475 333.464 125.596 333.035 125.839C332.605 126.082 332.265 126.436 332.013 126.903C331.77 127.36 331.649 127.906 331.649 128.541C331.649 129.166 331.77 129.717 332.013 130.193C332.265 130.66 332.605 131.019 333.035 131.271C333.464 131.514 333.949 131.635 334.491 131.635C335.013 131.635 335.489 131.509 335.919 131.257C336.357 131.005 336.703 130.646 336.955 130.179C337.207 129.712 337.333 129.171 337.333 128.555ZM344.134 124.593C345.049 124.593 345.795 124.878 346.374 125.447C346.953 126.007 347.242 126.824 347.242 127.897V132.377H346.276V128.009C346.276 127.178 346.066 126.544 345.646 126.105C345.235 125.666 344.671 125.447 343.952 125.447C343.215 125.447 342.627 125.68 342.188 126.147C341.749 126.614 341.53 127.3 341.53 128.205V132.377H340.55V124.733H341.53V126.035C341.773 125.568 342.123 125.214 342.58 124.971C343.037 124.719 343.555 124.593 344.134 124.593ZM348.961 128.555C348.961 127.762 349.12 127.071 349.437 126.483C349.755 125.886 350.193 125.428 350.753 125.111C351.313 124.784 351.953 124.621 352.671 124.621C353.614 124.621 354.389 124.854 354.995 125.321C355.611 125.788 356.008 126.422 356.185 127.225H355.135C355.005 126.674 354.72 126.245 354.281 125.937C353.852 125.62 353.315 125.461 352.671 125.461C352.158 125.461 351.696 125.578 351.285 125.811C350.875 126.044 350.548 126.394 350.305 126.861C350.072 127.318 349.955 127.883 349.955 128.555C349.955 129.227 350.072 129.796 350.305 130.263C350.548 130.73 350.875 131.08 351.285 131.313C351.696 131.546 352.158 131.663 352.671 131.663C353.315 131.663 353.852 131.509 354.281 131.201C354.72 130.884 355.005 130.445 355.135 129.885H356.185C356.008 130.669 355.611 131.299 354.995 131.775C354.379 132.251 353.605 132.489 352.671 132.489C351.953 132.489 351.313 132.33 350.753 132.013C350.193 131.686 349.755 131.229 349.437 130.641C349.12 130.044 348.961 129.348 348.961 128.555ZM358.485 123.291C358.289 123.291 358.121 123.221 357.981 123.081C357.841 122.941 357.771 122.768 357.771 122.563C357.771 122.358 357.841 122.19 357.981 122.059C358.121 121.919 358.289 121.849 358.485 121.849C358.681 121.849 358.849 121.919 358.989 122.059C359.129 122.19 359.199 122.358 359.199 122.563C359.199 122.768 359.129 122.941 358.989 123.081C358.849 123.221 358.681 123.291 358.485 123.291ZM358.975 124.733V132.377H357.995V124.733H358.975ZM360.747 128.541C360.747 127.757 360.901 127.071 361.209 126.483C361.526 125.886 361.96 125.428 362.511 125.111C363.071 124.784 363.701 124.621 364.401 124.621C365.129 124.621 365.754 124.789 366.277 125.125C366.809 125.461 367.191 125.89 367.425 126.413V124.733H368.405V132.377H367.425V130.683C367.182 131.206 366.795 131.64 366.263 131.985C365.74 132.321 365.115 132.489 364.387 132.489C363.696 132.489 363.071 132.326 362.511 131.999C361.96 131.672 361.526 131.21 361.209 130.613C360.901 130.016 360.747 129.325 360.747 128.541ZM367.425 128.555C367.425 127.939 367.299 127.398 367.047 126.931C366.795 126.464 366.449 126.105 366.011 125.853C365.581 125.601 365.105 125.475 364.583 125.475C364.041 125.475 363.556 125.596 363.127 125.839C362.697 126.082 362.357 126.436 362.105 126.903C361.862 127.36 361.741 127.906 361.741 128.541C361.741 129.166 361.862 129.717 362.105 130.193C362.357 130.66 362.697 131.019 363.127 131.271C363.556 131.514 364.041 131.635 364.583 131.635C365.105 131.635 365.581 131.509 366.011 131.257C366.449 131.005 366.795 130.646 367.047 130.179C367.299 129.712 367.425 129.171 367.425 128.555ZM371.622 122.017V132.377H370.642V122.017H371.622ZM158.758 146.559V151.305C158.758 151.772 158.846 152.094 159.024 152.271C159.201 152.448 159.514 152.537 159.962 152.537H160.858V153.377H159.808C159.117 153.377 158.604 153.218 158.268 152.901C157.932 152.574 157.764 152.042 157.764 151.305V146.559H156.7V145.733H157.764V143.815H158.758V145.733H160.858V146.559H158.758ZM165.82 153.489C165.101 153.489 164.453 153.33 163.874 153.013C163.305 152.686 162.852 152.229 162.516 151.641C162.189 151.044 162.026 150.348 162.026 149.555C162.026 148.762 162.194 148.071 162.53 147.483C162.866 146.886 163.323 146.428 163.902 146.111C164.481 145.784 165.129 145.621 165.848 145.621C166.567 145.621 167.215 145.784 167.794 146.111C168.382 146.428 168.839 146.886 169.166 147.483C169.502 148.071 169.67 148.762 169.67 149.555C169.67 150.339 169.502 151.03 169.166 151.627C168.83 152.224 168.368 152.686 167.78 153.013C167.192 153.33 166.539 153.489 165.82 153.489ZM165.82 152.635C166.324 152.635 166.791 152.523 167.22 152.299C167.649 152.066 167.995 151.72 168.256 151.263C168.527 150.796 168.662 150.227 168.662 149.555C168.662 148.883 168.531 148.318 168.27 147.861C168.009 147.394 167.663 147.049 167.234 146.825C166.805 146.592 166.338 146.475 165.834 146.475C165.33 146.475 164.863 146.592 164.434 146.825C164.005 147.049 163.659 147.394 163.398 147.861C163.146 148.318 163.02 148.883 163.02 149.555C163.02 150.227 163.146 150.796 163.398 151.263C163.659 151.72 164 152.066 164.42 152.299C164.849 152.523 165.316 152.635 165.82 152.635ZM174.802 153.489C174.084 153.489 173.435 153.33 172.856 153.013C172.287 152.686 171.834 152.229 171.498 151.641C171.172 151.044 171.008 150.348 171.008 149.555C171.008 148.762 171.176 148.071 171.512 147.483C171.848 146.886 172.306 146.428 172.884 146.111C173.463 145.784 174.112 145.621 174.83 145.621C175.549 145.621 176.198 145.784 176.776 146.111C177.364 146.428 177.822 146.886 178.148 147.483C178.484 148.071 178.652 148.762 178.652 149.555C178.652 150.339 178.484 151.03 178.148 151.627C177.812 152.224 177.35 152.686 176.762 153.013C176.174 153.33 175.521 153.489 174.802 153.489ZM174.802 152.635C175.306 152.635 175.773 152.523 176.202 152.299C176.632 152.066 176.977 151.72 177.238 151.263C177.509 150.796 177.644 150.227 177.644 149.555C177.644 148.883 177.514 148.318 177.252 147.861C176.991 147.394 176.646 147.049 176.216 146.825C175.787 146.592 175.32 146.475 174.816 146.475C174.312 146.475 173.846 146.592 173.416 146.825C172.987 147.049 172.642 147.394 172.38 147.861C172.128 148.318 172.002 148.883 172.002 149.555C172.002 150.227 172.128 150.796 172.38 151.263C172.642 151.72 172.982 152.066 173.402 152.299C173.832 152.523 174.298 152.635 174.802 152.635ZM181.419 143.017V153.377H180.439V143.017H181.419ZM186.27 153.489C185.393 153.489 184.674 153.288 184.114 152.887C183.563 152.476 183.255 151.921 183.19 151.221H184.198C184.245 151.65 184.445 152 184.8 152.271C185.164 152.532 185.649 152.663 186.256 152.663C186.788 152.663 187.203 152.537 187.502 152.285C187.81 152.033 187.964 151.72 187.964 151.347C187.964 151.086 187.88 150.871 187.712 150.703C187.544 150.535 187.329 150.404 187.068 150.311C186.816 150.208 186.471 150.101 186.032 149.989C185.463 149.84 185.001 149.69 184.646 149.541C184.291 149.392 183.988 149.172 183.736 148.883C183.493 148.584 183.372 148.188 183.372 147.693C183.372 147.32 183.484 146.974 183.708 146.657C183.932 146.34 184.249 146.088 184.66 145.901C185.071 145.714 185.537 145.621 186.06 145.621C186.881 145.621 187.544 145.831 188.048 146.251C188.552 146.662 188.823 147.231 188.86 147.959H187.88C187.852 147.511 187.675 147.152 187.348 146.881C187.031 146.601 186.592 146.461 186.032 146.461C185.537 146.461 185.136 146.578 184.828 146.811C184.52 147.044 184.366 147.334 184.366 147.679C184.366 147.978 184.455 148.225 184.632 148.421C184.819 148.608 185.047 148.757 185.318 148.869C185.589 148.972 185.953 149.088 186.41 149.219C186.961 149.368 187.399 149.513 187.726 149.653C188.053 149.793 188.333 149.998 188.566 150.269C188.799 150.54 188.921 150.899 188.93 151.347C188.93 151.758 188.818 152.126 188.594 152.453C188.37 152.77 188.057 153.022 187.656 153.209C187.255 153.396 186.793 153.489 186.27 153.489ZM191.671 151.753L190.215 155.421H189.543L190.579 151.753H191.671ZM196.588 149.555C196.588 148.762 196.747 148.071 197.064 147.483C197.382 146.886 197.82 146.428 198.38 146.111C198.94 145.784 199.58 145.621 200.298 145.621C201.241 145.621 202.016 145.854 202.622 146.321C203.238 146.788 203.635 147.422 203.812 148.225H202.762C202.632 147.674 202.347 147.245 201.908 146.937C201.479 146.62 200.942 146.461 200.298 146.461C199.785 146.461 199.323 146.578 198.912 146.811C198.502 147.044 198.175 147.394 197.932 147.861C197.699 148.318 197.582 148.883 197.582 149.555C197.582 150.227 197.699 150.796 197.932 151.263C198.175 151.73 198.502 152.08 198.912 152.313C199.323 152.546 199.785 152.663 200.298 152.663C200.942 152.663 201.479 152.509 201.908 152.201C202.347 151.884 202.632 151.445 202.762 150.885H203.812C203.635 151.669 203.238 152.299 202.622 152.775C202.006 153.251 201.232 153.489 200.298 153.489C199.58 153.489 198.94 153.33 198.38 153.013C197.82 152.686 197.382 152.229 197.064 151.641C196.747 151.044 196.588 150.348 196.588 149.555ZM205.174 149.541C205.174 148.757 205.328 148.071 205.636 147.483C205.954 146.886 206.388 146.428 206.938 146.111C207.498 145.784 208.128 145.621 208.828 145.621C209.556 145.621 210.182 145.789 210.704 146.125C211.236 146.461 211.619 146.89 211.852 147.413V145.733H212.832V153.377H211.852V151.683C211.61 152.206 211.222 152.64 210.69 152.985C210.168 153.321 209.542 153.489 208.814 153.489C208.124 153.489 207.498 153.326 206.938 152.999C206.388 152.672 205.954 152.21 205.636 151.613C205.328 151.016 205.174 150.325 205.174 149.541ZM211.852 149.555C211.852 148.939 211.726 148.398 211.474 147.931C211.222 147.464 210.877 147.105 210.438 146.853C210.009 146.601 209.533 146.475 209.01 146.475C208.469 146.475 207.984 146.596 207.554 146.839C207.125 147.082 206.784 147.436 206.532 147.903C206.29 148.36 206.168 148.906 206.168 149.541C206.168 150.166 206.29 150.717 206.532 151.193C206.784 151.66 207.125 152.019 207.554 152.271C207.984 152.514 208.469 152.635 209.01 152.635C209.533 152.635 210.009 152.509 210.438 152.257C210.877 152.005 211.222 151.646 211.474 151.179C211.726 150.712 211.852 150.171 211.852 149.555ZM216.05 147.091C216.264 146.615 216.591 146.246 217.03 145.985C217.478 145.724 218.024 145.593 218.668 145.593V146.615H218.402C217.692 146.615 217.123 146.806 216.694 147.189C216.264 147.572 216.05 148.211 216.05 149.107V153.377H215.07V145.733H216.05V147.091ZM227.058 149.163C227.058 149.499 227.049 149.756 227.03 149.933H220.688C220.716 150.512 220.856 151.006 221.108 151.417C221.36 151.828 221.691 152.14 222.102 152.355C222.513 152.56 222.961 152.663 223.446 152.663C224.081 152.663 224.613 152.509 225.042 152.201C225.481 151.893 225.77 151.478 225.91 150.955H226.946C226.759 151.702 226.358 152.313 225.742 152.789C225.135 153.256 224.37 153.489 223.446 153.489C222.727 153.489 222.083 153.33 221.514 153.013C220.945 152.686 220.497 152.229 220.17 151.641C219.853 151.044 219.694 150.348 219.694 149.555C219.694 148.762 219.853 148.066 220.17 147.469C220.487 146.872 220.931 146.414 221.5 146.097C222.069 145.78 222.718 145.621 223.446 145.621C224.174 145.621 224.809 145.78 225.35 146.097C225.901 146.414 226.321 146.844 226.61 147.385C226.909 147.917 227.058 148.51 227.058 149.163ZM226.064 149.135C226.073 148.566 225.957 148.08 225.714 147.679C225.481 147.278 225.159 146.974 224.748 146.769C224.337 146.564 223.889 146.461 223.404 146.461C222.676 146.461 222.055 146.694 221.542 147.161C221.029 147.628 220.744 148.286 220.688 149.135H226.064ZM235.767 149.163C235.767 149.499 235.758 149.756 235.739 149.933H229.397C229.425 150.512 229.565 151.006 229.817 151.417C230.069 151.828 230.4 152.14 230.811 152.355C231.222 152.56 231.67 152.663 232.155 152.663C232.79 152.663 233.322 152.509 233.751 152.201C234.19 151.893 234.479 151.478 234.619 150.955H235.655C235.468 151.702 235.067 152.313 234.451 152.789C233.844 153.256 233.079 153.489 232.155 153.489C231.436 153.489 230.792 153.33 230.223 153.013C229.654 152.686 229.206 152.229 228.879 151.641C228.562 151.044 228.403 150.348 228.403 149.555C228.403 148.762 228.562 148.066 228.879 147.469C229.196 146.872 229.64 146.414 230.209 146.097C230.778 145.78 231.427 145.621 232.155 145.621C232.883 145.621 233.518 145.78 234.059 146.097C234.61 146.414 235.03 146.844 235.319 147.385C235.618 147.917 235.767 148.51 235.767 149.163ZM234.773 149.135C234.782 148.566 234.666 148.08 234.423 147.679C234.19 147.278 233.868 146.974 233.457 146.769C233.046 146.564 232.598 146.461 232.113 146.461C231.385 146.461 230.764 146.694 230.251 147.161C229.738 147.628 229.453 148.286 229.397 149.135H234.773ZM238.54 147.091C238.754 146.615 239.081 146.246 239.52 145.985C239.968 145.724 240.514 145.593 241.158 145.593V146.615H240.892C240.182 146.615 239.613 146.806 239.184 147.189C238.754 147.572 238.54 148.211 238.54 149.107V153.377H237.56V145.733H238.54V147.091ZM249.68 145.621C250.399 145.621 251.024 145.789 251.556 146.125C252.088 146.461 252.471 146.886 252.704 147.399V145.733H253.684V153.573C253.684 154.273 253.53 154.894 253.222 155.435C252.923 155.976 252.503 156.392 251.962 156.681C251.421 156.98 250.805 157.129 250.114 157.129C249.134 157.129 248.317 156.896 247.664 156.429C247.02 155.962 246.619 155.328 246.46 154.525H247.426C247.594 155.057 247.911 155.482 248.378 155.799C248.854 156.116 249.433 156.275 250.114 156.275C250.609 156.275 251.052 156.168 251.444 155.953C251.836 155.748 252.144 155.44 252.368 155.029C252.592 154.618 252.704 154.133 252.704 153.573V151.683C252.461 152.206 252.074 152.64 251.542 152.985C251.019 153.321 250.399 153.489 249.68 153.489C248.98 153.489 248.35 153.326 247.79 152.999C247.239 152.672 246.805 152.21 246.488 151.613C246.18 151.016 246.026 150.325 246.026 149.541C246.026 148.757 246.18 148.071 246.488 147.483C246.805 146.886 247.239 146.428 247.79 146.111C248.35 145.784 248.98 145.621 249.68 145.621ZM252.704 149.555C252.704 148.939 252.578 148.398 252.326 147.931C252.074 147.464 251.729 147.105 251.29 146.853C250.861 146.601 250.385 146.475 249.862 146.475C249.321 146.475 248.835 146.596 248.406 146.839C247.977 147.082 247.636 147.436 247.384 147.903C247.141 148.36 247.02 148.906 247.02 149.541C247.02 150.166 247.141 150.717 247.384 151.193C247.636 151.66 247.977 152.019 248.406 152.271C248.835 152.514 249.321 152.635 249.862 152.635C250.385 152.635 250.861 152.509 251.29 152.257C251.729 152.005 252.074 151.646 252.326 151.179C252.578 150.712 252.704 150.171 252.704 149.555ZM262.543 145.733V153.377H261.563V152.033C261.339 152.509 260.994 152.873 260.527 153.125C260.06 153.377 259.538 153.503 258.959 153.503C258.044 153.503 257.298 153.223 256.719 152.663C256.14 152.094 255.851 151.272 255.851 150.199V145.733H256.817V150.087C256.817 150.918 257.022 151.552 257.433 151.991C257.853 152.43 258.422 152.649 259.141 152.649C259.878 152.649 260.466 152.416 260.905 151.949C261.344 151.482 261.563 150.796 261.563 149.891V145.733H262.543ZM265.271 144.291C265.075 144.291 264.907 144.221 264.767 144.081C264.627 143.941 264.557 143.768 264.557 143.563C264.557 143.358 264.627 143.19 264.767 143.059C264.907 142.919 265.075 142.849 265.271 142.849C265.467 142.849 265.635 142.919 265.775 143.059C265.915 143.19 265.985 143.358 265.985 143.563C265.985 143.768 265.915 143.941 265.775 144.081C265.635 144.221 265.467 144.291 265.271 144.291ZM265.761 145.733V153.377H264.781V145.733H265.761ZM267.532 149.541C267.532 148.757 267.69 148.071 268.008 147.483C268.325 146.886 268.759 146.428 269.31 146.111C269.87 145.784 270.5 145.621 271.2 145.621C271.872 145.621 272.478 145.784 273.02 146.111C273.561 146.438 273.958 146.862 274.21 147.385V143.017H275.19V153.377H274.21V151.669C273.976 152.201 273.594 152.64 273.062 152.985C272.53 153.321 271.904 153.489 271.186 153.489C270.486 153.489 269.856 153.326 269.296 152.999C268.745 152.672 268.311 152.21 267.994 151.613C267.686 151.016 267.532 150.325 267.532 149.541ZM274.21 149.555C274.21 148.939 274.084 148.398 273.832 147.931C273.58 147.464 273.234 147.105 272.796 146.853C272.366 146.601 271.89 146.475 271.368 146.475C270.826 146.475 270.341 146.596 269.912 146.839C269.482 147.082 269.142 147.436 268.89 147.903C268.647 148.36 268.526 148.906 268.526 149.541C268.526 150.166 268.647 150.717 268.89 151.193C269.142 151.66 269.482 152.019 269.912 152.271C270.341 152.514 270.826 152.635 271.368 152.635C271.89 152.635 272.366 152.509 272.796 152.257C273.234 152.005 273.58 151.646 273.832 151.179C274.084 150.712 274.21 150.171 274.21 149.555ZM276.979 149.541C276.979 148.757 277.133 148.071 277.441 147.483C277.758 146.886 278.192 146.428 278.743 146.111C279.303 145.784 279.933 145.621 280.633 145.621C281.361 145.621 281.986 145.789 282.509 146.125C283.041 146.461 283.424 146.89 283.657 147.413V145.733H284.637V153.377H283.657V151.683C283.414 152.206 283.027 152.64 282.495 152.985C281.972 153.321 281.347 153.489 280.619 153.489C279.928 153.489 279.303 153.326 278.743 152.999C278.192 152.672 277.758 152.21 277.441 151.613C277.133 151.016 276.979 150.325 276.979 149.541ZM283.657 149.555C283.657 148.939 283.531 148.398 283.279 147.931C283.027 147.464 282.682 147.105 282.243 146.853C281.814 146.601 281.338 146.475 280.815 146.475C280.274 146.475 279.788 146.596 279.359 146.839C278.93 147.082 278.589 147.436 278.337 147.903C278.094 148.36 277.973 148.906 277.973 149.541C277.973 150.166 278.094 150.717 278.337 151.193C278.589 151.66 278.93 152.019 279.359 152.271C279.788 152.514 280.274 152.635 280.815 152.635C281.338 152.635 281.814 152.509 282.243 152.257C282.682 152.005 283.027 151.646 283.279 151.179C283.531 150.712 283.657 150.171 283.657 149.555ZM290.458 145.593C291.373 145.593 292.12 145.878 292.698 146.447C293.277 147.007 293.566 147.824 293.566 148.897V153.377H292.6V149.009C292.6 148.178 292.39 147.544 291.97 147.105C291.56 146.666 290.995 146.447 290.276 146.447C289.539 146.447 288.951 146.68 288.512 147.147C288.074 147.614 287.854 148.3 287.854 149.205V153.377H286.874V145.733H287.854V147.035C288.097 146.568 288.447 146.214 288.904 145.971C289.362 145.719 289.88 145.593 290.458 145.593ZM295.286 149.555C295.286 148.762 295.444 148.071 295.762 147.483C296.079 146.886 296.518 146.428 297.078 146.111C297.638 145.784 298.277 145.621 298.996 145.621C299.938 145.621 300.713 145.854 301.32 146.321C301.936 146.788 302.332 147.422 302.51 148.225H301.46C301.329 147.674 301.044 147.245 300.606 146.937C300.176 146.62 299.64 146.461 298.996 146.461C298.482 146.461 298.02 146.578 297.61 146.811C297.199 147.044 296.872 147.394 296.63 147.861C296.396 148.318 296.28 148.883 296.28 149.555C296.28 150.227 296.396 150.796 296.63 151.263C296.872 151.73 297.199 152.08 297.61 152.313C298.02 152.546 298.482 152.663 298.996 152.663C299.64 152.663 300.176 152.509 300.606 152.201C301.044 151.884 301.329 151.445 301.46 150.885H302.51C302.332 151.669 301.936 152.299 301.32 152.775C300.704 153.251 299.929 153.489 298.996 153.489C298.277 153.489 297.638 153.33 297.078 153.013C296.518 152.686 296.079 152.229 295.762 151.641C295.444 151.044 295.286 150.348 295.286 149.555ZM311.236 149.163C311.236 149.499 311.226 149.756 311.208 149.933H304.866C304.894 150.512 305.034 151.006 305.286 151.417C305.538 151.828 305.869 152.14 306.28 152.355C306.69 152.56 307.138 152.663 307.624 152.663C308.258 152.663 308.79 152.509 309.22 152.201C309.658 151.893 309.948 151.478 310.088 150.955H311.124C310.937 151.702 310.536 152.313 309.92 152.789C309.313 153.256 308.548 153.489 307.624 153.489C306.905 153.489 306.261 153.33 305.692 153.013C305.122 152.686 304.674 152.229 304.348 151.641C304.03 151.044 303.872 150.348 303.872 149.555C303.872 148.762 304.03 148.066 304.348 147.469C304.665 146.872 305.108 146.414 305.678 146.097C306.247 145.78 306.896 145.621 307.624 145.621C308.352 145.621 308.986 145.78 309.528 146.097C310.078 146.414 310.498 146.844 310.788 147.385C311.086 147.917 311.236 148.51 311.236 149.163ZM310.242 149.135C310.251 148.566 310.134 148.08 309.892 147.679C309.658 147.278 309.336 146.974 308.926 146.769C308.515 146.564 308.067 146.461 307.582 146.461C306.854 146.461 306.233 146.694 305.72 147.161C305.206 147.628 304.922 148.286 304.866 149.135H310.242ZM313.197 153.447C312.991 153.447 312.819 153.377 312.679 153.237C312.548 153.097 312.483 152.924 312.483 152.719C312.483 152.514 312.548 152.346 312.679 152.215C312.819 152.075 312.991 152.005 313.197 152.005C313.393 152.005 313.556 152.075 313.687 152.215C313.827 152.346 313.897 152.514 313.897 152.719C313.897 152.924 313.827 153.097 313.687 153.237C313.556 153.377 313.393 153.447 313.197 153.447Z" fill="#575455"/>
<path d="M166.244 93.8709H160.424L159.424 96.7109H157.044L162.024 82.7909H164.664L169.644 96.7109H167.244L166.244 93.8709ZM165.604 92.0109L163.344 85.5509L161.064 92.0109H165.604ZM177.369 85.5109C178.236 85.5109 179.009 85.6909 179.689 86.0509C180.382 86.4109 180.922 86.9443 181.309 87.6509C181.696 88.3576 181.889 89.2109 181.889 90.2109V96.7109H179.629V90.5509C179.629 89.5643 179.382 88.8109 178.889 88.2909C178.396 87.7576 177.722 87.4909 176.869 87.4909C176.016 87.4909 175.336 87.7576 174.829 88.2909C174.336 88.8109 174.089 89.5643 174.089 90.5509V96.7109H171.809V85.6909H174.089V86.9509C174.462 86.4976 174.936 86.1443 175.509 85.8909C176.096 85.6376 176.716 85.5109 177.369 85.5109ZM184.037 91.1509C184.037 90.0443 184.264 89.0643 184.717 88.2109C185.184 87.3576 185.811 86.6976 186.597 86.2309C187.397 85.7509 188.277 85.5109 189.237 85.5109C190.104 85.5109 190.857 85.6843 191.497 86.0309C192.151 86.3643 192.671 86.7843 193.057 87.2909V85.6909H195.357V96.7109H193.057V95.0709C192.671 95.5909 192.144 96.0243 191.477 96.3709C190.811 96.7176 190.051 96.8909 189.197 96.8909C188.251 96.8909 187.384 96.6509 186.597 96.1709C185.811 95.6776 185.184 94.9976 184.717 94.1309C184.264 93.2509 184.037 92.2576 184.037 91.1509ZM193.057 91.1909C193.057 90.4309 192.897 89.7709 192.577 89.2109C192.271 88.6509 191.864 88.2243 191.357 87.9309C190.851 87.6376 190.304 87.4909 189.717 87.4909C189.131 87.4909 188.584 87.6376 188.077 87.9309C187.571 88.2109 187.157 88.6309 186.837 89.1909C186.531 89.7376 186.377 90.3909 186.377 91.1509C186.377 91.9109 186.531 92.5776 186.837 93.1509C187.157 93.7243 187.571 94.1643 188.077 94.4709C188.597 94.7643 189.144 94.9109 189.717 94.9109C190.304 94.9109 190.851 94.7643 191.357 94.4709C191.864 94.1776 192.271 93.7509 192.577 93.1909C192.897 92.6176 193.057 91.9509 193.057 91.1909ZM200.632 81.9109V96.7109H198.352V81.9109H200.632ZM213.545 85.6909L206.785 101.891H204.425L206.665 96.5309L202.325 85.6909H204.865L207.965 94.0909L211.185 85.6909H213.545ZM219.266 96.8909C218.399 96.8909 217.619 96.7376 216.926 96.4309C216.246 96.1109 215.706 95.6843 215.306 95.1509C214.906 94.6043 214.693 93.9976 214.666 93.3309H217.026C217.066 93.7976 217.286 94.1909 217.686 94.5109C218.099 94.8176 218.613 94.9709 219.226 94.9709C219.866 94.9709 220.359 94.8509 220.706 94.6109C221.066 94.3576 221.246 94.0376 221.246 93.6509C221.246 93.2376 221.046 92.9309 220.646 92.7309C220.259 92.5309 219.639 92.3109 218.786 92.0709C217.959 91.8443 217.286 91.6243 216.766 91.4109C216.246 91.1976 215.793 90.8709 215.406 90.4309C215.033 89.9909 214.846 89.4109 214.846 88.6909C214.846 88.1043 215.019 87.5709 215.366 87.0909C215.713 86.5976 216.206 86.2109 216.846 85.9309C217.499 85.6509 218.246 85.5109 219.086 85.5109C220.339 85.5109 221.346 85.8309 222.106 86.4709C222.879 87.0976 223.293 87.9576 223.346 89.0509H221.066C221.026 88.5576 220.826 88.1643 220.466 87.8709C220.106 87.5776 219.619 87.4309 219.006 87.4309C218.406 87.4309 217.946 87.5443 217.626 87.7709C217.306 87.9976 217.146 88.2976 217.146 88.6709C217.146 88.9643 217.253 89.2109 217.466 89.4109C217.679 89.6109 217.939 89.7709 218.246 89.8909C218.553 89.9976 219.006 90.1376 219.606 90.3109C220.406 90.5243 221.059 90.7443 221.566 90.9709C222.086 91.1843 222.533 91.5043 222.906 91.9309C223.279 92.3576 223.473 92.9243 223.486 93.6309C223.486 94.2576 223.313 94.8176 222.966 95.3109C222.619 95.8043 222.126 96.1909 221.486 96.4709C220.859 96.7509 220.119 96.8909 219.266 96.8909ZM236.05 90.9309C236.05 91.3443 236.023 91.7176 235.97 92.0509H227.55C227.616 92.9309 227.943 93.6376 228.53 94.1709C229.116 94.7043 229.836 94.9709 230.69 94.9709C231.916 94.9709 232.783 94.4576 233.29 93.4309H235.75C235.416 94.4443 234.81 95.2776 233.93 95.9309C233.063 96.5709 231.983 96.8909 230.69 96.8909C229.636 96.8909 228.69 96.6576 227.85 96.1909C227.023 95.7109 226.37 95.0443 225.89 94.1909C225.423 93.3243 225.19 92.3243 225.19 91.1909C225.19 90.0576 225.416 89.0643 225.87 88.2109C226.336 87.3443 226.983 86.6776 227.81 86.2109C228.65 85.7443 229.61 85.5109 230.69 85.5109C231.73 85.5109 232.656 85.7376 233.47 86.1909C234.283 86.6443 234.916 87.2843 235.37 88.1109C235.823 88.9243 236.05 89.8643 236.05 90.9309ZM233.67 90.2109C233.656 89.3709 233.356 88.6976 232.77 88.1909C232.183 87.6843 231.456 87.4309 230.59 87.4309C229.803 87.4309 229.13 87.6843 228.57 88.1909C228.01 88.6843 227.676 89.3576 227.57 90.2109H233.67Z" fill="#524633"/>
</g>
<defs>
<filter id="filter0_d_5_4613" x="0" y="0.59375" width="504.009" height="234.341" filterUnits="userSpaceOnUse" color-interpolation-filters="sRGB">
<feFlood flood-opacity="0" result="BackgroundImageFix"/>
<feColorMatrix in="SourceAlpha" type="matrix" values="0 0 0 0 0 0 0 0 0 0 0 0 0 0 0 0 0 0 127 0" result="hardAlpha"/>
<feOffset dy="4"/>
<feGaussianBlur stdDeviation="22"/>
<feComposite in2="hardAlpha" operator="out"/>
<feColorMatrix type="matrix" values="0 0 0 0 0 0 0 0 0 0 0 0 0 0 0 0 0 0 0.07 0"/>
<feBlend mode="normal" in2="BackgroundImageFix" result="effect1_dropShadow_5_4613"/>
<feBlend mode="normal" in="SourceGraphic" in2="effect1_dropShadow_5_4613" result="shape"/>
</filter>
<filter id="filter1_b_5_4613" x="-56" y="-47.9023" width="604.509" height="334.837" filterUnits="userSpaceOnUse" color-interpolation-filters="sRGB">
<feFlood flood-opacity="0" result="BackgroundImageFix"/>
<feGaussianBlur in="BackgroundImageFix" stdDeviation="50"/>
<feComposite in2="SourceAlpha" operator="in" result="effect1_backgroundBlur_5_4613"/>
<feBlend mode="normal" in="SourceGraphic" in2="effect1_backgroundBlur_5_4613" result="shape"/>
</filter>
<radialGradient id="paint0_diamond_5_4613" cx="0" cy="0" r="1" gradientUnits="userSpaceOnUse" gradientTransform="translate(391.948 106.674) rotate(-47.5828) scale(104.674 42.057)">
<stop stop-color="#7C5224"/>
<stop offset="1" stop-color="#7C5224" stop-opacity="0"/>
</radialGradient>
</defs>
</svg>
