<svg width="430" height="235" viewBox="0 0 430 235" fill="none" xmlns="http://www.w3.org/2000/svg">
<g filter="url(#filter0_d_26_108)">
<g filter="url(#filter1_b_26_108)">
<rect x="44" y="52" width="319" height="135" rx="30" fill="white" fill-opacity="0.2"/>
</g>
<circle cx="99" cy="107" r="25" fill="#A67F28"/>
<path d="M94.0416 107.708L103.958 107.708" stroke="white" stroke-linecap="round"/>
<path d="M94.0416 111.958L99.7083 111.958" stroke="white" stroke-linecap="round"/>
<path d="M89.7916 97.358C89.7916 96.5179 89.7916 96.0979 89.9551 95.777C90.0989 95.4948 90.3284 95.2653 90.6106 95.1215C90.9315 94.958 91.3515 94.958 92.1916 94.958H100.131C100.498 94.958 100.681 94.958 100.854 94.9995C101.007 95.0362 101.153 95.0968 101.287 95.179C101.439 95.2718 101.568 95.4015 101.828 95.661L107.505 101.338C107.765 101.598 107.894 101.728 107.987 101.879C108.069 102.013 108.13 102.159 108.167 102.312C108.208 102.485 108.208 102.669 108.208 103.035V116.641C108.208 117.481 108.208 117.901 108.045 118.222C107.901 118.505 107.672 118.734 107.389 118.878C107.068 119.041 106.648 119.041 105.808 119.041H92.1916C91.3515 119.041 90.9315 119.041 90.6106 118.878C90.3284 118.734 90.0989 118.505 89.9551 118.222C89.7916 117.901 89.7916 117.481 89.7916 116.641V97.358Z" stroke="white"/>
<path d="M99.7084 94.958V101.058C99.7084 101.898 99.7084 102.318 99.8719 102.639C100.016 102.921 100.245 103.151 100.527 103.295C100.848 103.458 101.268 103.458 102.108 103.458H108.208" stroke="white"/>
<path d="M373.787 106.576L317.328 106.576C316.663 106.576 316.183 105.939 316.367 105.3L331.691 51.9995" stroke="url(#paint0_diamond_26_108)" stroke-opacity="0.13" stroke-width="23" stroke-linecap="round"/>
<path d="M141.672 127.1C141.672 126.139 141.882 125.28 142.302 124.524C142.722 123.759 143.296 123.166 144.024 122.746C144.752 122.317 145.564 122.102 146.46 122.102C147.552 122.102 148.485 122.363 149.26 122.886C150.044 123.399 150.613 124.127 150.968 125.07H149.82C149.54 124.407 149.111 123.889 148.532 123.516C147.963 123.143 147.272 122.956 146.46 122.956C145.741 122.956 145.093 123.124 144.514 123.46C143.945 123.796 143.497 124.281 143.17 124.916C142.843 125.541 142.68 126.269 142.68 127.1C142.68 127.931 142.843 128.659 143.17 129.284C143.497 129.909 143.945 130.39 144.514 130.726C145.093 131.062 145.741 131.23 146.46 131.23C147.272 131.23 147.963 131.048 148.532 130.684C149.111 130.311 149.54 129.797 149.82 129.144H150.968C150.613 130.077 150.044 130.801 149.26 131.314C148.476 131.827 147.543 132.084 146.46 132.084C145.564 132.084 144.752 131.874 144.024 131.454C143.296 131.025 142.722 130.432 142.302 129.676C141.882 128.92 141.672 128.061 141.672 127.1ZM152.473 128.164C152.473 127.38 152.627 126.694 152.935 126.106C153.252 125.509 153.686 125.051 154.237 124.734C154.797 124.407 155.427 124.244 156.127 124.244C156.855 124.244 157.48 124.412 158.003 124.748C158.535 125.084 158.917 125.513 159.151 126.036V124.356H160.131V132H159.151V130.306C158.908 130.829 158.521 131.263 157.989 131.608C157.466 131.944 156.841 132.112 156.113 132.112C155.422 132.112 154.797 131.949 154.237 131.622C153.686 131.295 153.252 130.833 152.935 130.236C152.627 129.639 152.473 128.948 152.473 128.164ZM159.151 128.178C159.151 127.562 159.025 127.021 158.773 126.554C158.521 126.087 158.175 125.728 157.737 125.476C157.307 125.224 156.831 125.098 156.309 125.098C155.767 125.098 155.282 125.219 154.853 125.462C154.423 125.705 154.083 126.059 153.831 126.526C153.588 126.983 153.467 127.529 153.467 128.164C153.467 128.789 153.588 129.34 153.831 129.816C154.083 130.283 154.423 130.642 154.853 130.894C155.282 131.137 155.767 131.258 156.309 131.258C156.831 131.258 157.307 131.132 157.737 130.88C158.175 130.628 158.521 130.269 158.773 129.802C159.025 129.335 159.151 128.794 159.151 128.178ZM165 132.112C164.123 132.112 163.404 131.911 162.844 131.51C162.293 131.099 161.985 130.544 161.92 129.844H162.928C162.975 130.273 163.175 130.623 163.53 130.894C163.894 131.155 164.379 131.286 164.986 131.286C165.518 131.286 165.933 131.16 166.232 130.908C166.54 130.656 166.694 130.343 166.694 129.97C166.694 129.709 166.61 129.494 166.442 129.326C166.274 129.158 166.059 129.027 165.798 128.934C165.546 128.831 165.201 128.724 164.762 128.612C164.193 128.463 163.731 128.313 163.376 128.164C163.021 128.015 162.718 127.795 162.466 127.506C162.223 127.207 162.102 126.811 162.102 126.316C162.102 125.943 162.214 125.597 162.438 125.28C162.662 124.963 162.979 124.711 163.39 124.524C163.801 124.337 164.267 124.244 164.79 124.244C165.611 124.244 166.274 124.454 166.778 124.874C167.282 125.285 167.553 125.854 167.59 126.582H166.61C166.582 126.134 166.405 125.775 166.078 125.504C165.761 125.224 165.322 125.084 164.762 125.084C164.267 125.084 163.866 125.201 163.558 125.434C163.25 125.667 163.096 125.957 163.096 126.302C163.096 126.601 163.185 126.848 163.362 127.044C163.549 127.231 163.777 127.38 164.048 127.492C164.319 127.595 164.683 127.711 165.14 127.842C165.691 127.991 166.129 128.136 166.456 128.276C166.783 128.416 167.063 128.621 167.296 128.892C167.529 129.163 167.651 129.522 167.66 129.97C167.66 130.381 167.548 130.749 167.324 131.076C167.1 131.393 166.787 131.645 166.386 131.832C165.985 132.019 165.523 132.112 165 132.112ZM173.145 124.216C173.723 124.216 174.241 124.337 174.699 124.58C175.165 124.823 175.529 125.196 175.791 125.7C176.061 126.195 176.197 126.801 176.197 127.52V132H175.231V127.632C175.231 126.801 175.021 126.167 174.601 125.728C174.19 125.289 173.625 125.07 172.907 125.07C172.169 125.07 171.581 125.303 171.143 125.77C170.704 126.237 170.485 126.923 170.485 127.828V132H169.505V121.64H170.485V125.658C170.727 125.201 171.082 124.846 171.549 124.594C172.025 124.342 172.557 124.216 173.145 124.216ZM179.26 130.376L177.804 134.044H177.132L178.168 130.376H179.26ZM184.178 128.164C184.178 127.38 184.332 126.694 184.64 126.106C184.957 125.509 185.391 125.051 185.942 124.734C186.502 124.407 187.132 124.244 187.832 124.244C188.56 124.244 189.185 124.412 189.708 124.748C190.24 125.084 190.623 125.513 190.856 126.036V124.356H191.836V132H190.856V130.306C190.613 130.829 190.226 131.263 189.694 131.608C189.171 131.944 188.546 132.112 187.818 132.112C187.127 132.112 186.502 131.949 185.942 131.622C185.391 131.295 184.957 130.833 184.64 130.236C184.332 129.639 184.178 128.948 184.178 128.164ZM190.856 128.178C190.856 127.562 190.73 127.021 190.478 126.554C190.226 126.087 189.881 125.728 189.442 125.476C189.013 125.224 188.537 125.098 188.014 125.098C187.473 125.098 186.987 125.219 186.558 125.462C186.129 125.705 185.788 126.059 185.536 126.526C185.293 126.983 185.172 127.529 185.172 128.164C185.172 128.789 185.293 129.34 185.536 129.816C185.788 130.283 186.129 130.642 186.558 130.894C186.987 131.137 187.473 131.258 188.014 131.258C188.537 131.258 189.013 131.132 189.442 130.88C189.881 130.628 190.226 130.269 190.478 129.802C190.73 129.335 190.856 128.794 190.856 128.178ZM193.625 128.178C193.625 127.385 193.784 126.694 194.101 126.106C194.418 125.509 194.857 125.051 195.417 124.734C195.977 124.407 196.616 124.244 197.335 124.244C198.278 124.244 199.052 124.477 199.659 124.944C200.275 125.411 200.672 126.045 200.849 126.848H199.799C199.668 126.297 199.384 125.868 198.945 125.56C198.516 125.243 197.979 125.084 197.335 125.084C196.822 125.084 196.36 125.201 195.949 125.434C195.538 125.667 195.212 126.017 194.969 126.484C194.736 126.941 194.619 127.506 194.619 128.178C194.619 128.85 194.736 129.419 194.969 129.886C195.212 130.353 195.538 130.703 195.949 130.936C196.36 131.169 196.822 131.286 197.335 131.286C197.979 131.286 198.516 131.132 198.945 130.824C199.384 130.507 199.668 130.068 199.799 129.508H200.849C200.672 130.292 200.275 130.922 199.659 131.398C199.043 131.874 198.268 132.112 197.335 132.112C196.616 132.112 195.977 131.953 195.417 131.636C194.857 131.309 194.418 130.852 194.101 130.264C193.784 129.667 193.625 128.971 193.625 128.178ZM202.211 128.178C202.211 127.385 202.37 126.694 202.687 126.106C203.004 125.509 203.443 125.051 204.003 124.734C204.563 124.407 205.202 124.244 205.921 124.244C206.864 124.244 207.638 124.477 208.245 124.944C208.861 125.411 209.258 126.045 209.435 126.848H208.385C208.254 126.297 207.97 125.868 207.531 125.56C207.102 125.243 206.565 125.084 205.921 125.084C205.408 125.084 204.946 125.201 204.535 125.434C204.124 125.667 203.798 126.017 203.555 126.484C203.322 126.941 203.205 127.506 203.205 128.178C203.205 128.85 203.322 129.419 203.555 129.886C203.798 130.353 204.124 130.703 204.535 130.936C204.946 131.169 205.408 131.286 205.921 131.286C206.565 131.286 207.102 131.132 207.531 130.824C207.97 130.507 208.254 130.068 208.385 129.508H209.435C209.258 130.292 208.861 130.922 208.245 131.398C207.629 131.874 206.854 132.112 205.921 132.112C205.202 132.112 204.563 131.953 204.003 131.636C203.443 131.309 203.004 130.852 202.687 130.264C202.37 129.667 202.211 128.971 202.211 128.178ZM214.591 132.112C213.872 132.112 213.224 131.953 212.645 131.636C212.076 131.309 211.623 130.852 211.287 130.264C210.96 129.667 210.797 128.971 210.797 128.178C210.797 127.385 210.965 126.694 211.301 126.106C211.637 125.509 212.094 125.051 212.673 124.734C213.252 124.407 213.9 124.244 214.619 124.244C215.338 124.244 215.986 124.407 216.565 124.734C217.153 125.051 217.61 125.509 217.937 126.106C218.273 126.694 218.441 127.385 218.441 128.178C218.441 128.962 218.273 129.653 217.937 130.25C217.601 130.847 217.139 131.309 216.551 131.636C215.963 131.953 215.31 132.112 214.591 132.112ZM214.591 131.258C215.095 131.258 215.562 131.146 215.991 130.922C216.42 130.689 216.766 130.343 217.027 129.886C217.298 129.419 217.433 128.85 217.433 128.178C217.433 127.506 217.302 126.941 217.041 126.484C216.78 126.017 216.434 125.672 216.005 125.448C215.576 125.215 215.109 125.098 214.605 125.098C214.101 125.098 213.634 125.215 213.205 125.448C212.776 125.672 212.43 126.017 212.169 126.484C211.917 126.941 211.791 127.506 211.791 128.178C211.791 128.85 211.917 129.419 212.169 129.886C212.43 130.343 212.771 130.689 213.191 130.922C213.62 131.146 214.087 131.258 214.591 131.258ZM226.849 124.356V132H225.869V130.656C225.645 131.132 225.3 131.496 224.833 131.748C224.367 132 223.844 132.126 223.265 132.126C222.351 132.126 221.604 131.846 221.025 131.286C220.447 130.717 220.157 129.895 220.157 128.822V124.356H221.123V128.71C221.123 129.541 221.329 130.175 221.739 130.614C222.159 131.053 222.729 131.272 223.447 131.272C224.185 131.272 224.773 131.039 225.211 130.572C225.65 130.105 225.869 129.419 225.869 128.514V124.356H226.849ZM232.671 124.216C233.585 124.216 234.332 124.501 234.911 125.07C235.489 125.63 235.779 126.447 235.779 127.52V132H234.813V127.632C234.813 126.801 234.603 126.167 234.183 125.728C233.772 125.289 233.207 125.07 232.489 125.07C231.751 125.07 231.163 125.303 230.725 125.77C230.286 126.237 230.067 126.923 230.067 127.828V132H229.087V124.356H230.067V125.658C230.309 125.191 230.659 124.837 231.117 124.594C231.574 124.342 232.092 124.216 232.671 124.216ZM239.22 125.182V129.928C239.22 130.395 239.309 130.717 239.486 130.894C239.664 131.071 239.976 131.16 240.424 131.16H241.32V132H240.27C239.58 132 239.066 131.841 238.73 131.524C238.394 131.197 238.226 130.665 238.226 129.928V125.182H237.162V124.356H238.226V122.438H239.22V124.356H241.32V125.182H239.22ZM245.568 132.112C244.691 132.112 243.972 131.911 243.412 131.51C242.862 131.099 242.554 130.544 242.488 129.844H243.496C243.543 130.273 243.744 130.623 244.098 130.894C244.462 131.155 244.948 131.286 245.554 131.286C246.086 131.286 246.502 131.16 246.8 130.908C247.108 130.656 247.262 130.343 247.262 129.97C247.262 129.709 247.178 129.494 247.01 129.326C246.842 129.158 246.628 129.027 246.366 128.934C246.114 128.831 245.769 128.724 245.33 128.612C244.761 128.463 244.299 128.313 243.944 128.164C243.59 128.015 243.286 127.795 243.034 127.506C242.792 127.207 242.67 126.811 242.67 126.316C242.67 125.943 242.782 125.597 243.006 125.28C243.23 124.963 243.548 124.711 243.958 124.524C244.369 124.337 244.836 124.244 245.358 124.244C246.18 124.244 246.842 124.454 247.346 124.874C247.85 125.285 248.121 125.854 248.158 126.582H247.178C247.15 126.134 246.973 125.775 246.646 125.504C246.329 125.224 245.89 125.084 245.33 125.084C244.836 125.084 244.434 125.201 244.126 125.434C243.818 125.667 243.664 125.957 243.664 126.302C243.664 126.601 243.753 126.848 243.93 127.044C244.117 127.231 244.346 127.38 244.616 127.492C244.887 127.595 245.251 127.711 245.708 127.842C246.259 127.991 246.698 128.136 247.024 128.276C247.351 128.416 247.631 128.621 247.864 128.892C248.098 129.163 248.219 129.522 248.228 129.97C248.228 130.381 248.116 130.749 247.892 131.076C247.668 131.393 247.356 131.645 246.954 131.832C246.553 132.019 246.091 132.112 245.568 132.112ZM143.1 146.714C143.315 146.238 143.641 145.869 144.08 145.608C144.528 145.347 145.074 145.216 145.718 145.216V146.238H145.452C144.743 146.238 144.173 146.429 143.744 146.812C143.315 147.195 143.1 147.834 143.1 148.73V153H142.12V145.356H143.1V146.714ZM154.108 148.786C154.108 149.122 154.099 149.379 154.08 149.556H147.738C147.766 150.135 147.906 150.629 148.158 151.04C148.41 151.451 148.742 151.763 149.152 151.978C149.563 152.183 150.011 152.286 150.496 152.286C151.131 152.286 151.663 152.132 152.092 151.824C152.531 151.516 152.82 151.101 152.96 150.578H153.996C153.81 151.325 153.408 151.936 152.792 152.412C152.186 152.879 151.42 153.112 150.496 153.112C149.778 153.112 149.134 152.953 148.564 152.636C147.995 152.309 147.547 151.852 147.22 151.264C146.903 150.667 146.744 149.971 146.744 149.178C146.744 148.385 146.903 147.689 147.22 147.092C147.538 146.495 147.981 146.037 148.55 145.72C149.12 145.403 149.768 145.244 150.496 145.244C151.224 145.244 151.859 145.403 152.4 145.72C152.951 146.037 153.371 146.467 153.66 147.008C153.959 147.54 154.108 148.133 154.108 148.786ZM153.114 148.758C153.124 148.189 153.007 147.703 152.764 147.302C152.531 146.901 152.209 146.597 151.798 146.392C151.388 146.187 150.94 146.084 150.454 146.084C149.726 146.084 149.106 146.317 148.592 146.784C148.079 147.251 147.794 147.909 147.738 148.758H153.114ZM155.453 149.178C155.453 148.385 155.612 147.694 155.929 147.106C156.247 146.509 156.685 146.051 157.245 145.734C157.805 145.407 158.445 145.244 159.163 145.244C160.106 145.244 160.881 145.477 161.487 145.944C162.103 146.411 162.5 147.045 162.677 147.848H161.627C161.497 147.297 161.212 146.868 160.773 146.56C160.344 146.243 159.807 146.084 159.163 146.084C158.65 146.084 158.188 146.201 157.777 146.434C157.367 146.667 157.04 147.017 156.797 147.484C156.564 147.941 156.447 148.506 156.447 149.178C156.447 149.85 156.564 150.419 156.797 150.886C157.04 151.353 157.367 151.703 157.777 151.936C158.188 152.169 158.65 152.286 159.163 152.286C159.807 152.286 160.344 152.132 160.773 151.824C161.212 151.507 161.497 151.068 161.627 150.508H162.677C162.5 151.292 162.103 151.922 161.487 152.398C160.871 152.874 160.097 153.112 159.163 153.112C158.445 153.112 157.805 152.953 157.245 152.636C156.685 152.309 156.247 151.852 155.929 151.264C155.612 150.667 155.453 149.971 155.453 149.178ZM171.403 148.786C171.403 149.122 171.394 149.379 171.375 149.556H165.033C165.061 150.135 165.201 150.629 165.453 151.04C165.705 151.451 166.037 151.763 166.447 151.978C166.858 152.183 167.306 152.286 167.791 152.286C168.426 152.286 168.958 152.132 169.387 151.824C169.826 151.516 170.115 151.101 170.255 150.578H171.291C171.105 151.325 170.703 151.936 170.087 152.412C169.481 152.879 168.715 153.112 167.791 153.112C167.073 153.112 166.429 152.953 165.859 152.636C165.29 152.309 164.842 151.852 164.515 151.264C164.198 150.667 164.039 149.971 164.039 149.178C164.039 148.385 164.198 147.689 164.515 147.092C164.833 146.495 165.276 146.037 165.845 145.72C166.415 145.403 167.063 145.244 167.791 145.244C168.519 145.244 169.154 145.403 169.695 145.72C170.246 146.037 170.666 146.467 170.955 147.008C171.254 147.54 171.403 148.133 171.403 148.786ZM170.409 148.758C170.419 148.189 170.302 147.703 170.059 147.302C169.826 146.901 169.504 146.597 169.093 146.392C168.683 146.187 168.235 146.084 167.749 146.084C167.021 146.084 166.401 146.317 165.887 146.784C165.374 147.251 165.089 147.909 165.033 148.758H170.409ZM173.686 143.914C173.49 143.914 173.322 143.844 173.182 143.704C173.042 143.564 172.972 143.391 172.972 143.186C172.972 142.981 173.042 142.813 173.182 142.682C173.322 142.542 173.49 142.472 173.686 142.472C173.882 142.472 174.05 142.542 174.19 142.682C174.33 142.813 174.4 142.981 174.4 143.186C174.4 143.391 174.33 143.564 174.19 143.704C174.05 143.844 173.882 143.914 173.686 143.914ZM174.176 145.356V153H173.196V145.356H174.176ZM179.111 152.048L181.687 145.356H182.723L179.657 153H178.551L175.485 145.356H176.535L179.111 152.048ZM183.604 149.164C183.604 148.38 183.758 147.694 184.066 147.106C184.383 146.509 184.817 146.051 185.368 145.734C185.928 145.407 186.558 145.244 187.258 145.244C187.986 145.244 188.611 145.412 189.134 145.748C189.666 146.084 190.048 146.513 190.282 147.036V145.356H191.262V153H190.282V151.306C190.039 151.829 189.652 152.263 189.12 152.608C188.597 152.944 187.972 153.112 187.244 153.112C186.553 153.112 185.928 152.949 185.368 152.622C184.817 152.295 184.383 151.833 184.066 151.236C183.758 150.639 183.604 149.948 183.604 149.164ZM190.282 149.178C190.282 148.562 190.156 148.021 189.904 147.554C189.652 147.087 189.306 146.728 188.868 146.476C188.438 146.224 187.962 146.098 187.44 146.098C186.898 146.098 186.413 146.219 185.984 146.462C185.554 146.705 185.214 147.059 184.962 147.526C184.719 147.983 184.598 148.529 184.598 149.164C184.598 149.789 184.719 150.34 184.962 150.816C185.214 151.283 185.554 151.642 185.984 151.894C186.413 152.137 186.898 152.258 187.44 152.258C187.962 152.258 188.438 152.132 188.868 151.88C189.306 151.628 189.652 151.269 189.904 150.802C190.156 150.335 190.282 149.794 190.282 149.178ZM194.465 147.05C194.717 146.518 195.104 146.084 195.627 145.748C196.159 145.412 196.784 145.244 197.503 145.244C198.203 145.244 198.828 145.407 199.379 145.734C199.93 146.051 200.359 146.509 200.667 147.106C200.984 147.694 201.143 148.38 201.143 149.164C201.143 149.948 200.984 150.639 200.667 151.236C200.359 151.833 199.925 152.295 199.365 152.622C198.814 152.949 198.194 153.112 197.503 153.112C196.775 153.112 196.145 152.949 195.613 152.622C195.09 152.286 194.708 151.852 194.465 151.32V153H193.499V142.64H194.465V147.05ZM200.149 149.164C200.149 148.529 200.023 147.983 199.771 147.526C199.528 147.059 199.192 146.705 198.763 146.462C198.334 146.219 197.848 146.098 197.307 146.098C196.784 146.098 196.304 146.224 195.865 146.476C195.436 146.728 195.095 147.087 194.843 147.554C194.591 148.021 194.465 148.562 194.465 149.178C194.465 149.794 194.591 150.335 194.843 150.802C195.095 151.269 195.436 151.628 195.865 151.88C196.304 152.132 196.784 152.258 197.307 152.258C197.848 152.258 198.334 152.137 198.763 151.894C199.192 151.642 199.528 151.283 199.771 150.816C200.023 150.34 200.149 149.789 200.149 149.164ZM203.926 142.64V153H202.946V142.64H203.926ZM213.061 148.786C213.061 149.122 213.052 149.379 213.033 149.556H206.691C206.719 150.135 206.859 150.629 207.111 151.04C207.363 151.451 207.695 151.763 208.105 151.978C208.516 152.183 208.964 152.286 209.449 152.286C210.084 152.286 210.616 152.132 211.045 151.824C211.484 151.516 211.773 151.101 211.913 150.578H212.949C212.763 151.325 212.361 151.936 211.745 152.412C211.139 152.879 210.373 153.112 209.449 153.112C208.731 153.112 208.087 152.953 207.517 152.636C206.948 152.309 206.5 151.852 206.173 151.264C205.856 150.667 205.697 149.971 205.697 149.178C205.697 148.385 205.856 147.689 206.173 147.092C206.491 146.495 206.934 146.037 207.503 145.72C208.073 145.403 208.721 145.244 209.449 145.244C210.177 145.244 210.812 145.403 211.353 145.72C211.904 146.037 212.324 146.467 212.613 147.008C212.912 147.54 213.061 148.133 213.061 148.786ZM212.067 148.758C212.077 148.189 211.96 147.703 211.717 147.302C211.484 146.901 211.162 146.597 210.751 146.392C210.341 146.187 209.893 146.084 209.407 146.084C208.679 146.084 208.059 146.317 207.545 146.784C207.032 147.251 206.747 147.909 206.691 148.758H212.067ZM215.75 151.376L214.294 155.044H213.622L214.658 151.376H215.75ZM221.606 143.914C221.41 143.914 221.242 143.844 221.102 143.704C220.962 143.564 220.892 143.391 220.892 143.186C220.892 142.981 220.962 142.813 221.102 142.682C221.242 142.542 221.41 142.472 221.606 142.472C221.802 142.472 221.97 142.542 222.11 142.682C222.25 142.813 222.32 142.981 222.32 143.186C222.32 143.391 222.25 143.564 222.11 143.704C221.97 143.844 221.802 143.914 221.606 143.914ZM222.096 145.356V153H221.116V145.356H222.096ZM227.899 145.216C228.814 145.216 229.561 145.501 230.139 146.07C230.718 146.63 231.007 147.447 231.007 148.52V153H230.041V148.632C230.041 147.801 229.831 147.167 229.411 146.728C229.001 146.289 228.436 146.07 227.717 146.07C226.98 146.07 226.392 146.303 225.953 146.77C225.515 147.237 225.295 147.923 225.295 148.828V153H224.315V145.356H225.295V146.658C225.538 146.191 225.888 145.837 226.345 145.594C226.803 145.342 227.321 145.216 227.899 145.216ZM235.891 152.048L238.467 145.356H239.503L236.437 153H235.331L232.265 145.356H233.315L235.891 152.048ZM247.747 148.786C247.747 149.122 247.738 149.379 247.719 149.556H241.377C241.405 150.135 241.545 150.629 241.797 151.04C242.049 151.451 242.38 151.763 242.791 151.978C243.202 152.183 243.65 152.286 244.135 152.286C244.77 152.286 245.302 152.132 245.731 151.824C246.17 151.516 246.459 151.101 246.599 150.578H247.635C247.448 151.325 247.047 151.936 246.431 152.412C245.824 152.879 245.059 153.112 244.135 153.112C243.416 153.112 242.772 152.953 242.203 152.636C241.634 152.309 241.186 151.852 240.859 151.264C240.542 150.667 240.383 149.971 240.383 149.178C240.383 148.385 240.542 147.689 240.859 147.092C241.176 146.495 241.62 146.037 242.189 145.72C242.758 145.403 243.407 145.244 244.135 145.244C244.863 145.244 245.498 145.403 246.039 145.72C246.59 146.037 247.01 146.467 247.299 147.008C247.598 147.54 247.747 148.133 247.747 148.786ZM246.753 148.758C246.762 148.189 246.646 147.703 246.403 147.302C246.17 146.901 245.848 146.597 245.437 146.392C245.026 146.187 244.578 146.084 244.093 146.084C243.365 146.084 242.744 146.317 242.231 146.784C241.718 147.251 241.433 147.909 241.377 148.758H246.753ZM253.124 145.216C254.039 145.216 254.785 145.501 255.364 146.07C255.943 146.63 256.232 147.447 256.232 148.52V153H255.266V148.632C255.266 147.801 255.056 147.167 254.636 146.728C254.225 146.289 253.661 146.07 252.942 146.07C252.205 146.07 251.617 146.303 251.178 146.77C250.739 147.237 250.52 147.923 250.52 148.828V153H249.54V145.356H250.52V146.658C250.763 146.191 251.113 145.837 251.57 145.594C252.027 145.342 252.545 145.216 253.124 145.216ZM259.673 146.182V150.928C259.673 151.395 259.762 151.717 259.939 151.894C260.117 152.071 260.429 152.16 260.877 152.16H261.773V153H260.723C260.033 153 259.519 152.841 259.183 152.524C258.847 152.197 258.679 151.665 258.679 150.928V146.182H257.615V145.356H258.679V143.438H259.673V145.356H261.773V146.182H259.673ZM266.736 153.112C266.017 153.112 265.368 152.953 264.79 152.636C264.22 152.309 263.768 151.852 263.432 151.264C263.105 150.667 262.942 149.971 262.942 149.178C262.942 148.385 263.11 147.694 263.446 147.106C263.782 146.509 264.239 146.051 264.818 145.734C265.396 145.407 266.045 145.244 266.764 145.244C267.482 145.244 268.131 145.407 268.71 145.734C269.298 146.051 269.755 146.509 270.082 147.106C270.418 147.694 270.586 148.385 270.586 149.178C270.586 149.962 270.418 150.653 270.082 151.25C269.746 151.847 269.284 152.309 268.696 152.636C268.108 152.953 267.454 153.112 266.736 153.112ZM266.736 152.258C267.24 152.258 267.706 152.146 268.136 151.922C268.565 151.689 268.91 151.343 269.172 150.886C269.442 150.419 269.578 149.85 269.578 149.178C269.578 148.506 269.447 147.941 269.186 147.484C268.924 147.017 268.579 146.672 268.15 146.448C267.72 146.215 267.254 146.098 266.75 146.098C266.246 146.098 265.779 146.215 265.35 146.448C264.92 146.672 264.575 147.017 264.314 147.484C264.062 147.941 263.936 148.506 263.936 149.178C263.936 149.85 264.062 150.419 264.314 150.886C264.575 151.343 264.916 151.689 265.336 151.922C265.765 152.146 266.232 152.258 266.736 152.258ZM273.352 146.714C273.567 146.238 273.893 145.869 274.332 145.608C274.78 145.347 275.326 145.216 275.97 145.216V146.238H275.704C274.995 146.238 274.425 146.429 273.996 146.812C273.567 147.195 273.352 147.834 273.352 148.73V153H272.372V145.356H273.352V146.714ZM283.744 145.356L279.208 156.598H278.186L279.67 152.958L276.534 145.356H277.612L280.216 151.88L282.736 145.356H283.744ZM285.241 153.07C285.036 153.07 284.863 153 284.723 152.86C284.592 152.72 284.527 152.547 284.527 152.342C284.527 152.137 284.592 151.969 284.723 151.838C284.863 151.698 285.036 151.628 285.241 151.628C285.437 151.628 285.6 151.698 285.731 151.838C285.871 151.969 285.941 152.137 285.941 152.342C285.941 152.547 285.871 152.72 285.731 152.86C285.6 153 285.437 153.07 285.241 153.07Z" fill="#575455"/>
<path d="M149.94 98.86C150.687 98.9933 151.32 99.3867 151.84 100.04C152.36 100.693 152.62 101.433 152.62 102.26C152.62 102.967 152.433 103.607 152.06 104.18C151.7 104.74 151.173 105.187 150.48 105.52C149.787 105.84 148.98 106 148.06 106H142.5V92.1H147.8C148.747 92.1 149.56 92.26 150.24 92.58C150.92 92.9 151.433 93.3333 151.78 93.88C152.127 94.4133 152.3 95.0133 152.3 95.68C152.3 96.48 152.087 97.1467 151.66 97.68C151.233 98.2133 150.66 98.6067 149.94 98.86ZM144.78 97.94H147.6C148.347 97.94 148.927 97.7733 149.34 97.44C149.767 97.0933 149.98 96.6 149.98 95.96C149.98 95.3333 149.767 94.8467 149.34 94.5C148.927 94.14 148.347 93.96 147.6 93.96H144.78V97.94ZM147.86 104.14C148.633 104.14 149.24 103.953 149.68 103.58C150.12 103.207 150.34 102.687 150.34 102.02C150.34 101.34 150.107 100.8 149.64 100.4C149.173 100 148.553 99.8 147.78 99.8H144.78V104.14H147.86ZM154.338 100.44C154.338 99.3333 154.564 98.3533 155.018 97.5C155.484 96.6467 156.111 95.9867 156.898 95.52C157.698 95.04 158.578 94.8 159.538 94.8C160.404 94.8 161.158 94.9733 161.798 95.32C162.451 95.6533 162.971 96.0733 163.358 96.58V94.98H165.658V106H163.358V104.36C162.971 104.88 162.444 105.313 161.778 105.66C161.111 106.007 160.351 106.18 159.498 106.18C158.551 106.18 157.684 105.94 156.898 105.46C156.111 104.967 155.484 104.287 155.018 103.42C154.564 102.54 154.338 101.547 154.338 100.44ZM163.358 100.48C163.358 99.72 163.198 99.06 162.878 98.5C162.571 97.94 162.164 97.5133 161.658 97.22C161.151 96.9267 160.604 96.78 160.018 96.78C159.431 96.78 158.884 96.9267 158.378 97.22C157.871 97.5 157.458 97.92 157.138 98.48C156.831 99.0267 156.678 99.68 156.678 100.44C156.678 101.2 156.831 101.867 157.138 102.44C157.458 103.013 157.871 103.453 158.378 103.76C158.898 104.053 159.444 104.2 160.018 104.2C160.604 104.2 161.151 104.053 161.658 103.76C162.164 103.467 162.571 103.04 162.878 102.48C163.198 101.907 163.358 101.24 163.358 100.48ZM170.932 91.2V106H168.652V91.2H170.932ZM173.166 100.44C173.166 99.3333 173.392 98.3533 173.846 97.5C174.312 96.6467 174.939 95.9867 175.726 95.52C176.526 95.04 177.406 94.8 178.366 94.8C179.232 94.8 179.986 94.9733 180.626 95.32C181.279 95.6533 181.799 96.0733 182.186 96.58V94.98H184.486V106H182.186V104.36C181.799 104.88 181.272 105.313 180.606 105.66C179.939 106.007 179.179 106.18 178.326 106.18C177.379 106.18 176.512 105.94 175.726 105.46C174.939 104.967 174.312 104.287 173.846 103.42C173.392 102.54 173.166 101.547 173.166 100.44ZM182.186 100.48C182.186 99.72 182.026 99.06 181.706 98.5C181.399 97.94 180.992 97.5133 180.486 97.22C179.979 96.9267 179.432 96.78 178.846 96.78C178.259 96.78 177.712 96.9267 177.206 97.22C176.699 97.5 176.286 97.92 175.966 98.48C175.659 99.0267 175.506 99.68 175.506 100.44C175.506 101.2 175.659 101.867 175.966 102.44C176.286 103.013 176.699 103.453 177.206 103.76C177.726 104.053 178.272 104.2 178.846 104.2C179.432 104.2 179.979 104.053 180.486 103.76C180.992 103.467 181.399 103.04 181.706 102.48C182.026 101.907 182.186 101.24 182.186 100.48ZM193.04 94.8C193.907 94.8 194.68 94.98 195.36 95.34C196.054 95.7 196.594 96.2333 196.98 96.94C197.367 97.6467 197.56 98.5 197.56 99.5V106H195.3V99.84C195.3 98.8533 195.054 98.1 194.56 97.58C194.067 97.0467 193.394 96.78 192.54 96.78C191.687 96.78 191.007 97.0467 190.5 97.58C190.007 98.1 189.76 98.8533 189.76 99.84V106H187.48V94.98H189.76V96.24C190.134 95.7867 190.607 95.4333 191.18 95.18C191.767 94.9267 192.387 94.8 193.04 94.8ZM199.709 100.48C199.709 99.3467 199.935 98.3533 200.389 97.5C200.855 96.6333 201.495 95.9667 202.309 95.5C203.122 95.0333 204.055 94.8 205.109 94.8C206.442 94.8 207.542 95.12 208.409 95.76C209.289 96.3867 209.882 97.2867 210.189 98.46H207.729C207.529 97.9133 207.209 97.4867 206.769 97.18C206.329 96.8733 205.775 96.72 205.109 96.72C204.175 96.72 203.429 97.0533 202.869 97.72C202.322 98.3733 202.049 99.2933 202.049 100.48C202.049 101.667 202.322 102.593 202.869 103.26C203.429 103.927 204.175 104.26 205.109 104.26C206.429 104.26 207.302 103.68 207.729 102.52H210.189C209.869 103.64 209.269 104.533 208.389 105.2C207.509 105.853 206.415 106.18 205.109 106.18C204.055 106.18 203.122 105.947 202.309 105.48C201.495 105 200.855 104.333 200.389 103.48C199.935 102.613 199.709 101.613 199.709 100.48ZM222.561 100.22C222.561 100.633 222.534 101.007 222.481 101.34H214.061C214.128 102.22 214.454 102.927 215.041 103.46C215.628 103.993 216.348 104.26 217.201 104.26C218.428 104.26 219.294 103.747 219.801 102.72H222.261C221.928 103.733 221.321 104.567 220.441 105.22C219.574 105.86 218.494 106.18 217.201 106.18C216.148 106.18 215.201 105.947 214.361 105.48C213.534 105 212.881 104.333 212.401 103.48C211.934 102.613 211.701 101.613 211.701 100.48C211.701 99.3467 211.928 98.3533 212.381 97.5C212.848 96.6333 213.494 95.9667 214.321 95.5C215.161 95.0333 216.121 94.8 217.201 94.8C218.241 94.8 219.168 95.0267 219.981 95.48C220.794 95.9333 221.428 96.5733 221.881 97.4C222.334 98.2133 222.561 99.1533 222.561 100.22ZM220.181 99.5C220.168 98.66 219.868 97.9867 219.281 97.48C218.694 96.9733 217.968 96.72 217.101 96.72C216.314 96.72 215.641 96.9733 215.081 97.48C214.521 97.9733 214.188 98.6467 214.081 99.5H220.181ZM234.58 106.14C233.647 106.14 232.807 105.98 232.06 105.66C231.313 105.327 230.727 104.86 230.3 104.26C229.873 103.66 229.66 102.96 229.66 102.16H232.1C232.153 102.76 232.387 103.253 232.8 103.64C233.227 104.027 233.82 104.22 234.58 104.22C235.367 104.22 235.98 104.033 236.42 103.66C236.86 103.273 237.08 102.78 237.08 102.18C237.08 101.713 236.94 101.333 236.66 101.04C236.393 100.747 236.053 100.52 235.64 100.36C235.24 100.2 234.68 100.027 233.96 99.84C233.053 99.6 232.313 99.36 231.74 99.12C231.18 98.8667 230.7 98.48 230.3 97.96C229.9 97.44 229.7 96.7467 229.7 95.88C229.7 95.08 229.9 94.38 230.3 93.78C230.7 93.18 231.26 92.72 231.98 92.4C232.7 92.08 233.533 91.92 234.48 91.92C235.827 91.92 236.927 92.26 237.78 92.94C238.647 93.6067 239.127 94.5267 239.22 95.7H236.7C236.66 95.1933 236.42 94.76 235.98 94.4C235.54 94.04 234.96 93.86 234.24 93.86C233.587 93.86 233.053 94.0267 232.64 94.36C232.227 94.6933 232.02 95.1733 232.02 95.8C232.02 96.2267 232.147 96.58 232.4 96.86C232.667 97.1267 233 97.34 233.4 97.5C233.8 97.66 234.347 97.8333 235.04 98.02C235.96 98.2733 236.707 98.5267 237.28 98.78C237.867 99.0333 238.36 99.4267 238.76 99.96C239.173 100.48 239.38 101.18 239.38 102.06C239.38 102.767 239.187 103.433 238.8 104.06C238.427 104.687 237.873 105.193 237.14 105.58C236.42 105.953 235.567 106.14 234.58 106.14ZM247.77 94.8C248.61 94.8 249.357 94.98 250.01 95.34C250.677 95.7 251.197 96.2333 251.57 96.94C251.957 97.6467 252.15 98.5 252.15 99.5V106H249.89V99.84C249.89 98.8533 249.644 98.1 249.15 97.58C248.657 97.0467 247.984 96.78 247.13 96.78C246.277 96.78 245.597 97.0467 245.09 97.58C244.597 98.1 244.35 98.8533 244.35 99.84V106H242.07V91.2H244.35V96.26C244.737 95.7933 245.224 95.4333 245.81 95.18C246.41 94.9267 247.064 94.8 247.77 94.8ZM265.159 100.22C265.159 100.633 265.132 101.007 265.079 101.34H256.659C256.725 102.22 257.052 102.927 257.639 103.46C258.225 103.993 258.945 104.26 259.799 104.26C261.025 104.26 261.892 103.747 262.399 102.72H264.859C264.525 103.733 263.919 104.567 263.039 105.22C262.172 105.86 261.092 106.18 259.799 106.18C258.745 106.18 257.799 105.947 256.959 105.48C256.132 105 255.479 104.333 254.999 103.48C254.532 102.613 254.299 101.613 254.299 100.48C254.299 99.3467 254.525 98.3533 254.979 97.5C255.445 96.6333 256.092 95.9667 256.919 95.5C257.759 95.0333 258.719 94.8 259.799 94.8C260.839 94.8 261.765 95.0267 262.579 95.48C263.392 95.9333 264.025 96.5733 264.479 97.4C264.932 98.2133 265.159 99.1533 265.159 100.22ZM262.779 99.5C262.765 98.66 262.465 97.9867 261.879 97.48C261.292 96.9733 260.565 96.72 259.699 96.72C258.912 96.72 258.239 96.9733 257.679 97.48C257.119 97.9733 256.785 98.6467 256.679 99.5H262.779ZM277.502 100.22C277.502 100.633 277.476 101.007 277.422 101.34H269.002C269.069 102.22 269.396 102.927 269.982 103.46C270.569 103.993 271.289 104.26 272.142 104.26C273.369 104.26 274.236 103.747 274.742 102.72H277.202C276.869 103.733 276.262 104.567 275.382 105.22C274.516 105.86 273.436 106.18 272.142 106.18C271.089 106.18 270.142 105.947 269.302 105.48C268.476 105 267.822 104.333 267.342 103.48C266.876 102.613 266.642 101.613 266.642 100.48C266.642 99.3467 266.869 98.3533 267.322 97.5C267.789 96.6333 268.436 95.9667 269.262 95.5C270.102 95.0333 271.062 94.8 272.142 94.8C273.182 94.8 274.109 95.0267 274.922 95.48C275.736 95.9333 276.369 96.5733 276.822 97.4C277.276 98.2133 277.502 99.1533 277.502 100.22ZM275.122 99.5C275.109 98.66 274.809 97.9867 274.222 97.48C273.636 96.9733 272.909 96.72 272.042 96.72C271.256 96.72 270.582 96.9733 270.022 97.48C269.462 97.9733 269.129 98.6467 269.022 99.5H275.122ZM282.406 96.84V102.94C282.406 103.353 282.499 103.653 282.686 103.84C282.886 104.013 283.219 104.1 283.686 104.1H285.086V106H283.286C282.259 106 281.473 105.76 280.926 105.28C280.379 104.8 280.106 104.02 280.106 102.94V96.84H278.806V94.98H280.106V92.24H282.406V94.98H285.086V96.84H282.406Z" fill="#524633"/>
</g>
<defs>
<filter id="filter0_d_26_108" x="0" y="0.496094" width="429.287" height="234.504" filterUnits="userSpaceOnUse" color-interpolation-filters="sRGB">
<feFlood flood-opacity="0" result="BackgroundImageFix"/>
<feColorMatrix in="SourceAlpha" type="matrix" values="0 0 0 0 0 0 0 0 0 0 0 0 0 0 0 0 0 0 127 0" result="hardAlpha"/>
<feOffset dy="4"/>
<feGaussianBlur stdDeviation="22"/>
<feComposite in2="hardAlpha" operator="out"/>
<feColorMatrix type="matrix" values="0 0 0 0 0 0 0 0 0 0 0 0 0 0 0 0 0 0 0.07 0"/>
<feBlend mode="normal" in2="BackgroundImageFix" result="effect1_dropShadow_26_108"/>
<feBlend mode="normal" in="SourceGraphic" in2="effect1_dropShadow_26_108" result="shape"/>
</filter>
<filter id="filter1_b_26_108" x="-56" y="-48" width="519" height="335" filterUnits="userSpaceOnUse" color-interpolation-filters="sRGB">
<feFlood flood-opacity="0" result="BackgroundImageFix"/>
<feGaussianBlur in="BackgroundImageFix" stdDeviation="50"/>
<feComposite in2="SourceAlpha" operator="in" result="effect1_backgroundBlur_26_108"/>
<feBlend mode="normal" in="SourceGraphic" in2="effect1_backgroundBlur_26_108" result="shape"/>
</filter>
<radialGradient id="paint0_diamond_26_108" cx="0" cy="0" r="1" gradientUnits="userSpaceOnUse" gradientTransform="translate(317.226 106.576) rotate(-47.5828) scale(104.674 42.057)">
<stop stop-color="#7C5224"/>
<stop offset="1" stop-color="#7C5224" stop-opacity="0"/>
</radialGradient>
</defs>
</svg>
