<svg width="372" height="282" viewBox="0 0 372 282" fill="none" xmlns="http://www.w3.org/2000/svg">
<g filter="url(#filter0_d_26_196)">
<g filter="url(#filter1_b_26_196)">
<rect x="44" y="40" width="284" height="194" rx="30" fill="#F0E6CE"/>
</g>
<circle cx="99" cy="95" r="25" fill="#A67F28"/>
<rect x="87" y="87" width="24" height="16" rx="2" stroke="white"/>
<path d="M89.6667 91H93.6667" stroke="white" stroke-linecap="round"/>
<path d="M104.333 99H108.333" stroke="white" stroke-linecap="round"/>
<circle cx="99" cy="94.9997" r="2.66667" stroke="white"/>
<path d="M93.6 142.1L89.48 156H86.9L83.98 145.48L80.88 156L78.32 156.02L74.38 142.1H76.8L79.68 153.42L82.8 142.1H85.36L88.26 153.36L91.16 142.1H93.6ZM101.18 144.8C102.02 144.8 102.767 144.98 103.42 145.34C104.087 145.7 104.607 146.233 104.98 146.94C105.367 147.647 105.56 148.5 105.56 149.5V156H103.3V149.84C103.3 148.853 103.054 148.1 102.56 147.58C102.067 147.047 101.394 146.78 100.54 146.78C99.6871 146.78 99.0071 147.047 98.5005 147.58C98.0071 148.1 97.7605 148.853 97.7605 149.84V156H95.4805V141.2H97.7605V146.26C98.1471 145.793 98.6338 145.433 99.2205 145.18C99.8205 144.927 100.474 144.8 101.18 144.8ZM107.709 150.44C107.709 149.333 107.935 148.353 108.389 147.5C108.855 146.647 109.482 145.987 110.269 145.52C111.069 145.04 111.949 144.8 112.909 144.8C113.775 144.8 114.529 144.973 115.169 145.32C115.822 145.653 116.342 146.073 116.729 146.58V144.98H119.029V156H116.729V154.36C116.342 154.88 115.815 155.313 115.149 155.66C114.482 156.007 113.722 156.18 112.869 156.18C111.922 156.18 111.055 155.94 110.269 155.46C109.482 154.967 108.855 154.287 108.389 153.42C107.935 152.54 107.709 151.547 107.709 150.44ZM116.729 150.48C116.729 149.72 116.569 149.06 116.249 148.5C115.942 147.94 115.535 147.513 115.029 147.22C114.522 146.927 113.975 146.78 113.389 146.78C112.802 146.78 112.255 146.927 111.749 147.22C111.242 147.5 110.829 147.92 110.509 148.48C110.202 149.027 110.049 149.68 110.049 150.44C110.049 151.2 110.202 151.867 110.509 152.44C110.829 153.013 111.242 153.453 111.749 153.76C112.269 154.053 112.815 154.2 113.389 154.2C113.975 154.2 114.522 154.053 115.029 153.76C115.535 153.467 115.942 153.04 116.249 152.48C116.569 151.907 116.729 151.24 116.729 150.48ZM124.683 146.84V152.94C124.683 153.353 124.777 153.653 124.963 153.84C125.163 154.013 125.497 154.1 125.963 154.1H127.363V156H125.563C124.537 156 123.75 155.76 123.203 155.28C122.657 154.8 122.383 154.02 122.383 152.94V146.84H121.083V144.98H122.383V142.24H124.683V144.98H127.363V146.84H124.683ZM135.82 143.52C135.407 143.52 135.06 143.38 134.78 143.1C134.5 142.82 134.36 142.473 134.36 142.06C134.36 141.647 134.5 141.3 134.78 141.02C135.06 140.74 135.407 140.6 135.82 140.6C136.22 140.6 136.56 140.74 136.84 141.02C137.12 141.3 137.26 141.647 137.26 142.06C137.26 142.473 137.12 142.82 136.84 143.1C136.56 143.38 136.22 143.52 135.82 143.52ZM136.94 144.98V156H134.66V144.98H136.94ZM143.934 156.18C143.067 156.18 142.287 156.027 141.594 155.72C140.914 155.4 140.374 154.973 139.974 154.44C139.574 153.893 139.36 153.287 139.334 152.62H141.694C141.734 153.087 141.954 153.48 142.354 153.8C142.767 154.107 143.28 154.26 143.894 154.26C144.534 154.26 145.027 154.14 145.374 153.9C145.734 153.647 145.914 153.327 145.914 152.94C145.914 152.527 145.714 152.22 145.314 152.02C144.927 151.82 144.307 151.6 143.454 151.36C142.627 151.133 141.954 150.913 141.434 150.7C140.914 150.487 140.46 150.16 140.074 149.72C139.7 149.28 139.514 148.7 139.514 147.98C139.514 147.393 139.687 146.86 140.034 146.38C140.38 145.887 140.874 145.5 141.514 145.22C142.167 144.94 142.914 144.8 143.754 144.8C145.007 144.8 146.014 145.12 146.774 145.76C147.547 146.387 147.96 147.247 148.014 148.34H145.734C145.694 147.847 145.494 147.453 145.134 147.16C144.774 146.867 144.287 146.72 143.674 146.72C143.074 146.72 142.614 146.833 142.294 147.06C141.974 147.287 141.814 147.587 141.814 147.96C141.814 148.253 141.92 148.5 142.134 148.7C142.347 148.9 142.607 149.06 142.914 149.18C143.22 149.287 143.674 149.427 144.274 149.6C145.074 149.813 145.727 150.033 146.234 150.26C146.754 150.473 147.2 150.793 147.574 151.22C147.947 151.647 148.14 152.213 148.154 152.92C148.154 153.547 147.98 154.107 147.634 154.6C147.287 155.093 146.794 155.48 146.154 155.76C145.527 156.04 144.787 156.18 143.934 156.18ZM155.053 150.44C155.053 149.333 155.279 148.353 155.733 147.5C156.199 146.647 156.826 145.987 157.613 145.52C158.413 145.04 159.293 144.8 160.253 144.8C161.119 144.8 161.873 144.973 162.513 145.32C163.166 145.653 163.686 146.073 164.073 146.58V144.98H166.373V156H164.073V154.36C163.686 154.88 163.159 155.313 162.493 155.66C161.826 156.007 161.066 156.18 160.213 156.18C159.266 156.18 158.399 155.94 157.613 155.46C156.826 154.967 156.199 154.287 155.733 153.42C155.279 152.54 155.053 151.547 155.053 150.44ZM164.073 150.48C164.073 149.72 163.913 149.06 163.593 148.5C163.286 147.94 162.879 147.513 162.373 147.22C161.866 146.927 161.319 146.78 160.733 146.78C160.146 146.78 159.599 146.927 159.093 147.22C158.586 147.5 158.173 147.92 157.853 148.48C157.546 149.027 157.393 149.68 157.393 150.44C157.393 151.2 157.546 151.867 157.853 152.44C158.173 153.013 158.586 153.453 159.093 153.76C159.613 154.053 160.159 154.2 160.733 154.2C161.319 154.2 161.866 154.053 162.373 153.76C162.879 153.467 163.286 153.04 163.593 152.48C163.913 151.907 164.073 151.24 164.073 150.48ZM176.843 146.62C177.229 146.087 177.756 145.653 178.423 145.32C179.103 144.973 179.856 144.8 180.683 144.8C181.656 144.8 182.536 145.033 183.323 145.5C184.109 145.967 184.729 146.633 185.183 147.5C185.636 148.353 185.863 149.333 185.863 150.44C185.863 151.547 185.636 152.54 185.183 153.42C184.729 154.287 184.103 154.967 183.303 155.46C182.516 155.94 181.643 156.18 180.683 156.18C179.829 156.18 179.069 156.013 178.403 155.68C177.749 155.347 177.229 154.92 176.843 154.4V156H174.563V141.2H176.843V146.62ZM183.543 150.44C183.543 149.68 183.383 149.027 183.062 148.48C182.756 147.92 182.343 147.5 181.823 147.22C181.316 146.927 180.769 146.78 180.183 146.78C179.609 146.78 179.063 146.927 178.543 147.22C178.036 147.513 177.623 147.94 177.303 148.5C176.996 149.06 176.843 149.72 176.843 150.48C176.843 151.24 176.996 151.907 177.303 152.48C177.623 153.04 178.036 153.467 178.543 153.76C179.063 154.053 179.609 154.2 180.183 154.2C180.769 154.2 181.316 154.053 181.823 153.76C182.343 153.453 182.756 153.013 183.062 152.44C183.383 151.867 183.543 151.2 183.543 150.44ZM198.097 144.98V156H195.817V154.7C195.457 155.153 194.984 155.513 194.397 155.78C193.824 156.033 193.211 156.16 192.557 156.16C191.691 156.16 190.911 155.98 190.217 155.62C189.537 155.26 188.997 154.727 188.597 154.02C188.211 153.313 188.017 152.46 188.017 151.46V144.98H190.277V151.12C190.277 152.107 190.524 152.867 191.017 153.4C191.511 153.92 192.184 154.18 193.037 154.18C193.891 154.18 194.564 153.92 195.057 153.4C195.564 152.867 195.817 152.107 195.817 151.12V144.98H198.097ZM200.345 150.44C200.345 149.333 200.572 148.353 201.025 147.5C201.492 146.647 202.119 145.987 202.905 145.52C203.705 145.04 204.592 144.8 205.565 144.8C206.285 144.8 206.992 144.96 207.685 145.28C208.392 145.587 208.952 146 209.365 146.52V141.2H211.665V156H209.365V154.34C208.992 154.873 208.472 155.313 207.805 155.66C207.152 156.007 206.399 156.18 205.545 156.18C204.585 156.18 203.705 155.94 202.905 155.46C202.119 154.967 201.492 154.287 201.025 153.42C200.572 152.54 200.345 151.547 200.345 150.44ZM209.365 150.48C209.365 149.72 209.205 149.06 208.885 148.5C208.579 147.94 208.172 147.513 207.665 147.22C207.159 146.927 206.612 146.78 206.025 146.78C205.439 146.78 204.892 146.927 204.385 147.22C203.879 147.5 203.465 147.92 203.145 148.48C202.839 149.027 202.685 149.68 202.685 150.44C202.685 151.2 202.839 151.867 203.145 152.44C203.465 153.013 203.879 153.453 204.385 153.76C204.905 154.053 205.452 154.2 206.025 154.2C206.612 154.2 207.159 154.053 207.665 153.76C208.172 153.467 208.579 153.04 208.885 152.48C209.205 151.907 209.365 151.24 209.365 150.48ZM219.1 144.8C219.953 144.8 220.707 144.973 221.36 145.32C222.027 145.653 222.547 146.073 222.92 146.58V144.98H225.22V156.18C225.22 157.193 225.007 158.093 224.58 158.88C224.153 159.68 223.533 160.307 222.72 160.76C221.92 161.213 220.96 161.44 219.84 161.44C218.347 161.44 217.107 161.087 216.12 160.38C215.133 159.687 214.573 158.74 214.44 157.54H216.7C216.873 158.113 217.24 158.573 217.8 158.92C218.373 159.28 219.053 159.46 219.84 159.46C220.76 159.46 221.5 159.18 222.06 158.62C222.633 158.06 222.92 157.247 222.92 156.18V154.34C222.533 154.86 222.007 155.3 221.34 155.66C220.687 156.007 219.94 156.18 219.1 156.18C218.14 156.18 217.26 155.94 216.46 155.46C215.673 154.967 215.047 154.287 214.58 153.42C214.127 152.54 213.9 151.547 213.9 150.44C213.9 149.333 214.127 148.353 214.58 147.5C215.047 146.647 215.673 145.987 216.46 145.52C217.26 145.04 218.14 144.8 219.1 144.8ZM222.92 150.48C222.92 149.72 222.76 149.06 222.44 148.5C222.133 147.94 221.727 147.513 221.22 147.22C220.713 146.927 220.167 146.78 219.58 146.78C218.993 146.78 218.447 146.927 217.94 147.22C217.433 147.5 217.02 147.92 216.7 148.48C216.393 149.027 216.24 149.68 216.24 150.44C216.24 151.2 216.393 151.867 216.7 152.44C217.02 153.013 217.433 153.453 217.94 153.76C218.46 154.053 219.007 154.2 219.58 154.2C220.167 154.2 220.713 154.053 221.22 153.76C221.727 153.467 222.133 153.04 222.44 152.48C222.76 151.907 222.92 151.24 222.92 150.48ZM238.315 150.22C238.315 150.633 238.288 151.007 238.235 151.34H229.815C229.882 152.22 230.208 152.927 230.795 153.46C231.382 153.993 232.102 154.26 232.955 154.26C234.182 154.26 235.048 153.747 235.555 152.72H238.015C237.682 153.733 237.075 154.567 236.195 155.22C235.328 155.86 234.248 156.18 232.955 156.18C231.902 156.18 230.955 155.947 230.115 155.48C229.288 155 228.635 154.333 228.155 153.48C227.688 152.613 227.455 151.613 227.455 150.48C227.455 149.347 227.682 148.353 228.135 147.5C228.602 146.633 229.248 145.967 230.075 145.5C230.915 145.033 231.875 144.8 232.955 144.8C233.995 144.8 234.922 145.027 235.735 145.48C236.548 145.933 237.182 146.573 237.635 147.4C238.088 148.213 238.315 149.153 238.315 150.22ZM235.935 149.5C235.922 148.66 235.622 147.987 235.035 147.48C234.448 146.973 233.722 146.72 232.855 146.72C232.068 146.72 231.395 146.973 230.835 147.48C230.275 147.973 229.942 148.647 229.835 149.5H235.935ZM243.219 146.84V152.94C243.219 153.353 243.312 153.653 243.499 153.84C243.699 154.013 244.032 154.1 244.499 154.1H245.899V156H244.099C243.072 156 242.285 155.76 241.739 155.28C241.192 154.8 240.919 154.02 240.919 152.94V146.84H239.619V144.98H240.919V142.24H243.219V144.98H245.899V146.84H243.219ZM251.74 141.9C253.1 141.9 254.187 142.273 255 143.02C255.827 143.767 256.24 144.787 256.24 146.08C256.24 147.427 255.813 148.44 254.96 149.12C254.107 149.8 252.973 150.14 251.56 150.14L251.48 151.72H249.5L249.4 148.58H250.06C251.353 148.58 252.34 148.407 253.02 148.06C253.713 147.713 254.06 147.053 254.06 146.08C254.06 145.373 253.853 144.82 253.44 144.42C253.04 144.02 252.48 143.82 251.76 143.82C251.04 143.82 250.473 144.013 250.06 144.4C249.647 144.787 249.44 145.327 249.44 146.02H247.3C247.3 145.22 247.48 144.507 247.84 143.88C248.2 143.253 248.713 142.767 249.38 142.42C250.06 142.073 250.847 141.9 251.74 141.9ZM250.46 156.14C250.047 156.14 249.7 156 249.42 155.72C249.14 155.44 249 155.093 249 154.68C249 154.267 249.14 153.92 249.42 153.64C249.7 153.36 250.047 153.22 250.46 153.22C250.86 153.22 251.2 153.36 251.48 153.64C251.76 153.92 251.9 154.267 251.9 154.68C251.9 155.093 251.76 155.44 251.48 155.72C251.2 156 250.86 156.14 250.46 156.14Z" fill="#524633"/>
<path d="M81.378 174.028C81.378 174.868 81.1027 175.545 80.552 176.058C80.0013 176.571 79.1753 176.828 78.074 176.828H76.1V181H75.12V171.214H78.074C79.166 171.214 79.9873 171.471 80.538 171.984C81.098 172.497 81.378 173.179 81.378 174.028ZM78.074 175.988C79.6047 175.988 80.37 175.335 80.37 174.028C80.37 173.375 80.188 172.88 79.824 172.544C79.46 172.208 78.8767 172.04 78.074 172.04H76.1V175.988H78.074ZM84.0023 170.64V181H83.0223V170.64H84.0023ZM85.7736 177.164C85.7736 176.38 85.9276 175.694 86.2356 175.106C86.5529 174.509 86.9869 174.051 87.5376 173.734C88.0976 173.407 88.7276 173.244 89.4276 173.244C90.1556 173.244 90.7809 173.412 91.3036 173.748C91.8356 174.084 92.2182 174.513 92.4516 175.036V173.356H93.4316V181H92.4516V179.306C92.2089 179.829 91.8216 180.263 91.2896 180.608C90.7669 180.944 90.1416 181.112 89.4136 181.112C88.7229 181.112 88.0976 180.949 87.5376 180.622C86.9869 180.295 86.5529 179.833 86.2356 179.236C85.9276 178.639 85.7736 177.948 85.7736 177.164ZM92.4516 177.178C92.4516 176.562 92.3256 176.021 92.0736 175.554C91.8216 175.087 91.4762 174.728 91.0376 174.476C90.6082 174.224 90.1322 174.098 89.6096 174.098C89.0682 174.098 88.5829 174.219 88.1536 174.462C87.7242 174.705 87.3836 175.059 87.1316 175.526C86.8889 175.983 86.7676 176.529 86.7676 177.164C86.7676 177.789 86.8889 178.34 87.1316 178.816C87.3836 179.283 87.7242 179.642 88.1536 179.894C88.5829 180.137 89.0682 180.258 89.6096 180.258C90.1322 180.258 90.6082 180.132 91.0376 179.88C91.4762 179.628 91.8216 179.269 92.0736 178.802C92.3256 178.335 92.4516 177.794 92.4516 177.178ZM99.2528 173.216C100.167 173.216 100.914 173.501 101.493 174.07C102.071 174.63 102.361 175.447 102.361 176.52V181H101.395V176.632C101.395 175.801 101.185 175.167 100.765 174.728C100.354 174.289 99.7895 174.07 99.0708 174.07C98.3335 174.07 97.7455 174.303 97.3068 174.77C96.8682 175.237 96.6488 175.923 96.6488 176.828V181H95.6688V173.356H96.6488V174.658C96.8915 174.191 97.2415 173.837 97.6988 173.594C98.1562 173.342 98.6742 173.216 99.2528 173.216ZM105.424 179.376L103.968 183.044H103.296L104.332 179.376H105.424ZM111.77 171.214V181H110.79V171.214H111.77ZM117.573 173.216C118.488 173.216 119.234 173.501 119.813 174.07C120.392 174.63 120.681 175.447 120.681 176.52V181H119.715V176.632C119.715 175.801 119.505 175.167 119.085 174.728C118.674 174.289 118.11 174.07 117.391 174.07C116.654 174.07 116.066 174.303 115.627 174.77C115.188 175.237 114.969 175.923 114.969 176.828V181H113.989V173.356H114.969V174.658C115.212 174.191 115.562 173.837 116.019 173.594C116.476 173.342 116.994 173.216 117.573 173.216ZM122.401 177.178C122.401 176.385 122.559 175.694 122.877 175.106C123.194 174.509 123.633 174.051 124.193 173.734C124.753 173.407 125.392 173.244 126.111 173.244C127.053 173.244 127.828 173.477 128.435 173.944C129.051 174.411 129.447 175.045 129.625 175.848H128.575C128.444 175.297 128.159 174.868 127.721 174.56C127.291 174.243 126.755 174.084 126.111 174.084C125.597 174.084 125.135 174.201 124.725 174.434C124.314 174.667 123.987 175.017 123.745 175.484C123.511 175.941 123.395 176.506 123.395 177.178C123.395 177.85 123.511 178.419 123.745 178.886C123.987 179.353 124.314 179.703 124.725 179.936C125.135 180.169 125.597 180.286 126.111 180.286C126.755 180.286 127.291 180.132 127.721 179.824C128.159 179.507 128.444 179.068 128.575 178.508H129.625C129.447 179.292 129.051 179.922 128.435 180.398C127.819 180.874 127.044 181.112 126.111 181.112C125.392 181.112 124.753 180.953 124.193 180.636C123.633 180.309 123.194 179.852 122.877 179.264C122.559 178.667 122.401 177.971 122.401 177.178ZM134.78 181.112C134.062 181.112 133.413 180.953 132.834 180.636C132.265 180.309 131.812 179.852 131.476 179.264C131.15 178.667 130.986 177.971 130.986 177.178C130.986 176.385 131.154 175.694 131.49 175.106C131.826 174.509 132.284 174.051 132.862 173.734C133.441 173.407 134.09 173.244 134.808 173.244C135.527 173.244 136.176 173.407 136.754 173.734C137.342 174.051 137.8 174.509 138.126 175.106C138.462 175.694 138.63 176.385 138.63 177.178C138.63 177.962 138.462 178.653 138.126 179.25C137.79 179.847 137.328 180.309 136.74 180.636C136.152 180.953 135.499 181.112 134.78 181.112ZM134.78 180.258C135.284 180.258 135.751 180.146 136.18 179.922C136.61 179.689 136.955 179.343 137.216 178.886C137.487 178.419 137.622 177.85 137.622 177.178C137.622 176.506 137.492 175.941 137.23 175.484C136.969 175.017 136.624 174.672 136.194 174.448C135.765 174.215 135.298 174.098 134.794 174.098C134.29 174.098 133.824 174.215 133.394 174.448C132.965 174.672 132.62 175.017 132.358 175.484C132.106 175.941 131.98 176.506 131.98 177.178C131.98 177.85 132.106 178.419 132.358 178.886C132.62 179.343 132.96 179.689 133.38 179.922C133.81 180.146 134.276 180.258 134.78 180.258ZM149.517 173.216C150.413 173.216 151.141 173.501 151.701 174.07C152.27 174.63 152.555 175.447 152.555 176.52V181H151.589V176.632C151.589 175.801 151.388 175.167 150.987 174.728C150.586 174.289 150.04 174.07 149.349 174.07C148.63 174.07 148.056 174.308 147.627 174.784C147.198 175.26 146.983 175.951 146.983 176.856V181H146.017V176.632C146.017 175.801 145.816 175.167 145.415 174.728C145.014 174.289 144.463 174.07 143.763 174.07C143.044 174.07 142.47 174.308 142.041 174.784C141.612 175.26 141.397 175.951 141.397 176.856V181H140.417V173.356H141.397V174.672C141.64 174.196 141.985 173.837 142.433 173.594C142.881 173.342 143.38 173.216 143.931 173.216C144.594 173.216 145.172 173.375 145.667 173.692C146.171 174.009 146.535 174.476 146.759 175.092C146.964 174.485 147.314 174.023 147.809 173.706C148.313 173.379 148.882 173.216 149.517 173.216ZM161.647 176.786C161.647 177.122 161.638 177.379 161.619 177.556H155.277C155.305 178.135 155.445 178.629 155.697 179.04C155.949 179.451 156.281 179.763 156.691 179.978C157.102 180.183 157.55 180.286 158.035 180.286C158.67 180.286 159.202 180.132 159.631 179.824C160.07 179.516 160.359 179.101 160.499 178.578H161.535C161.349 179.325 160.947 179.936 160.331 180.412C159.725 180.879 158.959 181.112 158.035 181.112C157.317 181.112 156.673 180.953 156.103 180.636C155.534 180.309 155.086 179.852 154.759 179.264C154.442 178.667 154.283 177.971 154.283 177.178C154.283 176.385 154.442 175.689 154.759 175.092C155.077 174.495 155.52 174.037 156.089 173.72C156.659 173.403 157.307 173.244 158.035 173.244C158.763 173.244 159.398 173.403 159.939 173.72C160.49 174.037 160.91 174.467 161.199 175.008C161.498 175.54 161.647 176.133 161.647 176.786ZM160.653 176.758C160.663 176.189 160.546 175.703 160.303 175.302C160.07 174.901 159.748 174.597 159.337 174.392C158.927 174.187 158.479 174.084 157.993 174.084C157.265 174.084 156.645 174.317 156.131 174.784C155.618 175.251 155.333 175.909 155.277 176.758H160.653ZM164.336 179.376L162.88 183.044H162.208L163.244 179.376H164.336ZM170.682 172.012V175.666H174.392V176.478H170.682V180.188H174.812V181H169.702V171.2H174.812V172.012H170.682ZM180.747 181L178.773 177.92L176.869 181H175.833L178.297 177.178L175.861 173.356H176.967L178.913 176.394L180.803 173.356H181.825L179.389 177.136L181.853 181H180.747ZM184.149 175.036C184.391 174.523 184.774 174.098 185.297 173.762C185.829 173.417 186.459 173.244 187.187 173.244C187.877 173.244 188.498 173.407 189.049 173.734C189.609 174.051 190.043 174.509 190.351 175.106C190.668 175.694 190.827 176.38 190.827 177.164C190.827 177.948 190.668 178.639 190.351 179.236C190.043 179.833 189.609 180.295 189.049 180.622C188.498 180.949 187.877 181.112 187.187 181.112C186.468 181.112 185.843 180.944 185.311 180.608C184.779 180.263 184.391 179.833 184.149 179.32V184.612H183.183V173.356H184.149V175.036ZM189.833 177.164C189.833 176.529 189.707 175.983 189.454 175.526C189.212 175.059 188.876 174.705 188.447 174.462C188.017 174.219 187.532 174.098 186.991 174.098C186.468 174.098 185.987 174.224 185.549 174.476C185.119 174.728 184.779 175.087 184.527 175.554C184.275 176.021 184.149 176.562 184.149 177.178C184.149 177.794 184.275 178.335 184.527 178.802C184.779 179.269 185.119 179.628 185.549 179.88C185.987 180.132 186.468 180.258 186.991 180.258C187.532 180.258 188.017 180.137 188.447 179.894C188.876 179.642 189.212 179.283 189.454 178.816C189.707 178.34 189.833 177.789 189.833 177.164ZM199.546 176.786C199.546 177.122 199.536 177.379 199.518 177.556H193.176C193.204 178.135 193.344 178.629 193.596 179.04C193.848 179.451 194.179 179.763 194.59 179.978C195 180.183 195.448 180.286 195.934 180.286C196.568 180.286 197.1 180.132 197.53 179.824C197.968 179.516 198.258 179.101 198.398 178.578H199.434C199.247 179.325 198.846 179.936 198.23 180.412C197.623 180.879 196.858 181.112 195.934 181.112C195.215 181.112 194.571 180.953 194.002 180.636C193.432 180.309 192.984 179.852 192.658 179.264C192.34 178.667 192.182 177.971 192.182 177.178C192.182 176.385 192.34 175.689 192.658 175.092C192.975 174.495 193.418 174.037 193.988 173.72C194.557 173.403 195.206 173.244 195.934 173.244C196.662 173.244 197.296 173.403 197.838 173.72C198.388 174.037 198.808 174.467 199.098 175.008C199.396 175.54 199.546 176.133 199.546 176.786ZM198.552 176.758C198.561 176.189 198.444 175.703 198.202 175.302C197.968 174.901 197.646 174.597 197.236 174.392C196.825 174.187 196.377 174.084 195.892 174.084C195.164 174.084 194.543 174.317 194.03 174.784C193.516 175.251 193.232 175.909 193.176 176.758H198.552ZM204.923 173.216C205.837 173.216 206.584 173.501 207.163 174.07C207.741 174.63 208.031 175.447 208.031 176.52V181H207.065V176.632C207.065 175.801 206.855 175.167 206.435 174.728C206.024 174.289 205.459 174.07 204.741 174.07C204.003 174.07 203.415 174.303 202.977 174.77C202.538 175.237 202.319 175.923 202.319 176.828V181H201.339V173.356H202.319V174.658C202.561 174.191 202.911 173.837 203.369 173.594C203.826 173.342 204.344 173.216 204.923 173.216ZM212.83 181.112C211.953 181.112 211.234 180.911 210.674 180.51C210.123 180.099 209.815 179.544 209.75 178.844H210.758C210.805 179.273 211.005 179.623 211.36 179.894C211.724 180.155 212.209 180.286 212.816 180.286C213.348 180.286 213.763 180.16 214.062 179.908C214.37 179.656 214.524 179.343 214.524 178.97C214.524 178.709 214.44 178.494 214.272 178.326C214.104 178.158 213.889 178.027 213.628 177.934C213.376 177.831 213.031 177.724 212.592 177.612C212.023 177.463 211.561 177.313 211.206 177.164C210.851 177.015 210.548 176.795 210.296 176.506C210.053 176.207 209.932 175.811 209.932 175.316C209.932 174.943 210.044 174.597 210.268 174.28C210.492 173.963 210.809 173.711 211.22 173.524C211.631 173.337 212.097 173.244 212.62 173.244C213.441 173.244 214.104 173.454 214.608 173.874C215.112 174.285 215.383 174.854 215.42 175.582H214.44C214.412 175.134 214.235 174.775 213.908 174.504C213.591 174.224 213.152 174.084 212.592 174.084C212.097 174.084 211.696 174.201 211.388 174.434C211.08 174.667 210.926 174.957 210.926 175.302C210.926 175.601 211.015 175.848 211.192 176.044C211.379 176.231 211.607 176.38 211.878 176.492C212.149 176.595 212.513 176.711 212.97 176.842C213.521 176.991 213.959 177.136 214.286 177.276C214.613 177.416 214.893 177.621 215.126 177.892C215.359 178.163 215.481 178.522 215.49 178.97C215.49 179.381 215.378 179.749 215.154 180.076C214.93 180.393 214.617 180.645 214.216 180.832C213.815 181.019 213.353 181.112 212.83 181.112ZM224.251 176.786C224.251 177.122 224.242 177.379 224.223 177.556H217.881C217.909 178.135 218.049 178.629 218.301 179.04C218.553 179.451 218.884 179.763 219.295 179.978C219.706 180.183 220.154 180.286 220.639 180.286C221.274 180.286 221.806 180.132 222.235 179.824C222.674 179.516 222.963 179.101 223.103 178.578H224.139C223.952 179.325 223.551 179.936 222.935 180.412C222.328 180.879 221.563 181.112 220.639 181.112C219.92 181.112 219.276 180.953 218.707 180.636C218.138 180.309 217.69 179.852 217.363 179.264C217.046 178.667 216.887 177.971 216.887 177.178C216.887 176.385 217.046 175.689 217.363 175.092C217.68 174.495 218.124 174.037 218.693 173.72C219.262 173.403 219.911 173.244 220.639 173.244C221.367 173.244 222.002 173.403 222.543 173.72C223.094 174.037 223.514 174.467 223.803 175.008C224.102 175.54 224.251 176.133 224.251 176.786ZM223.257 176.758C223.266 176.189 223.15 175.703 222.907 175.302C222.674 174.901 222.352 174.597 221.941 174.392C221.53 174.187 221.082 174.084 220.597 174.084C219.869 174.084 219.248 174.317 218.735 174.784C218.222 175.251 217.937 175.909 217.881 176.758H223.257ZM228.676 181.112C227.798 181.112 227.08 180.911 226.52 180.51C225.969 180.099 225.661 179.544 225.596 178.844H226.604C226.65 179.273 226.851 179.623 227.206 179.894C227.57 180.155 228.055 180.286 228.662 180.286C229.194 180.286 229.609 180.16 229.908 179.908C230.216 179.656 230.37 179.343 230.37 178.97C230.37 178.709 230.286 178.494 230.118 178.326C229.95 178.158 229.735 178.027 229.474 177.934C229.222 177.831 228.876 177.724 228.438 177.612C227.868 177.463 227.406 177.313 227.052 177.164C226.697 177.015 226.394 176.795 226.142 176.506C225.899 176.207 225.778 175.811 225.778 175.316C225.778 174.943 225.89 174.597 226.114 174.28C226.338 173.963 226.655 173.711 227.066 173.524C227.476 173.337 227.943 173.244 228.466 173.244C229.287 173.244 229.95 173.454 230.454 173.874C230.958 174.285 231.228 174.854 231.266 175.582H230.286C230.258 175.134 230.08 174.775 229.754 174.504C229.436 174.224 228.998 174.084 228.438 174.084C227.943 174.084 227.542 174.201 227.234 174.434C226.926 174.667 226.772 174.957 226.772 175.302C226.772 175.601 226.86 175.848 227.038 176.044C227.224 176.231 227.453 176.38 227.724 176.492C227.994 176.595 228.358 176.711 228.816 176.842C229.366 176.991 229.805 177.136 230.132 177.276C230.458 177.416 230.738 177.621 230.972 177.892C231.205 178.163 231.326 178.522 231.336 178.97C231.336 179.381 231.224 179.749 231 180.076C230.776 180.393 230.463 180.645 230.062 180.832C229.66 181.019 229.198 181.112 228.676 181.112ZM76.016 200.376L74.56 204.044H73.888L74.924 200.376H76.016ZM82.8319 192.214V193.026H78.5199V196.68H82.1599V197.492H78.5199V202H77.5399V192.214H82.8319ZM87.7902 202.112C87.0716 202.112 86.4229 201.953 85.8442 201.636C85.2749 201.309 84.8222 200.852 84.4862 200.264C84.1596 199.667 83.9962 198.971 83.9962 198.178C83.9962 197.385 84.1642 196.694 84.5002 196.106C84.8362 195.509 85.2936 195.051 85.8722 194.734C86.4509 194.407 87.0996 194.244 87.8182 194.244C88.5369 194.244 89.1856 194.407 89.7642 194.734C90.3522 195.051 90.8096 195.509 91.1362 196.106C91.4722 196.694 91.6402 197.385 91.6402 198.178C91.6402 198.962 91.4722 199.653 91.1362 200.25C90.8002 200.847 90.3382 201.309 89.7502 201.636C89.1622 201.953 88.5089 202.112 87.7902 202.112ZM87.7902 201.258C88.2942 201.258 88.7609 201.146 89.1902 200.922C89.6196 200.689 89.9649 200.343 90.2262 199.886C90.4969 199.419 90.6322 198.85 90.6322 198.178C90.6322 197.506 90.5016 196.941 90.2402 196.484C89.9789 196.017 89.6336 195.672 89.2042 195.448C88.7749 195.215 88.3082 195.098 87.8042 195.098C87.3002 195.098 86.8336 195.215 86.4042 195.448C85.9749 195.672 85.6296 196.017 85.3682 196.484C85.1162 196.941 84.9902 197.506 84.9902 198.178C84.9902 198.85 85.1162 199.419 85.3682 199.886C85.6296 200.343 85.9702 200.689 86.3902 200.922C86.8196 201.146 87.2862 201.258 87.7902 201.258ZM94.4066 195.714C94.6213 195.238 94.948 194.869 95.3866 194.608C95.8346 194.347 96.3806 194.216 97.0246 194.216V195.238H96.7586C96.0493 195.238 95.48 195.429 95.0506 195.812C94.6213 196.195 94.4066 196.834 94.4066 197.73V202H93.4266V194.356H94.4066V195.714ZM105.415 197.786C105.415 198.122 105.406 198.379 105.387 198.556H99.0449C99.0729 199.135 99.2129 199.629 99.4649 200.04C99.7169 200.451 100.048 200.763 100.459 200.978C100.87 201.183 101.318 201.286 101.803 201.286C102.438 201.286 102.97 201.132 103.399 200.824C103.838 200.516 104.127 200.101 104.267 199.578H105.303C105.116 200.325 104.715 200.936 104.099 201.412C103.492 201.879 102.727 202.112 101.803 202.112C101.084 202.112 100.44 201.953 99.8709 201.636C99.3016 201.309 98.8536 200.852 98.5269 200.264C98.2096 199.667 98.0509 198.971 98.0509 198.178C98.0509 197.385 98.2096 196.689 98.5269 196.092C98.8442 195.495 99.2876 195.037 99.8569 194.72C100.426 194.403 101.075 194.244 101.803 194.244C102.531 194.244 103.166 194.403 103.707 194.72C104.258 195.037 104.678 195.467 104.967 196.008C105.266 196.54 105.415 197.133 105.415 197.786ZM104.421 197.758C104.43 197.189 104.314 196.703 104.071 196.302C103.838 195.901 103.516 195.597 103.105 195.392C102.694 195.187 102.246 195.084 101.761 195.084C101.033 195.084 100.412 195.317 99.8989 195.784C99.3856 196.251 99.1009 196.909 99.0449 197.758H104.421ZM106.76 198.178C106.76 197.385 106.919 196.694 107.236 196.106C107.553 195.509 107.992 195.051 108.552 194.734C109.112 194.407 109.751 194.244 110.47 194.244C111.413 194.244 112.187 194.477 112.794 194.944C113.41 195.411 113.807 196.045 113.984 196.848H112.934C112.803 196.297 112.519 195.868 112.08 195.56C111.651 195.243 111.114 195.084 110.47 195.084C109.957 195.084 109.495 195.201 109.084 195.434C108.673 195.667 108.347 196.017 108.104 196.484C107.871 196.941 107.754 197.506 107.754 198.178C107.754 198.85 107.871 199.419 108.104 199.886C108.347 200.353 108.673 200.703 109.084 200.936C109.495 201.169 109.957 201.286 110.47 201.286C111.114 201.286 111.651 201.132 112.08 200.824C112.519 200.507 112.803 200.068 112.934 199.508H113.984C113.807 200.292 113.41 200.922 112.794 201.398C112.178 201.874 111.403 202.112 110.47 202.112C109.751 202.112 109.112 201.953 108.552 201.636C107.992 201.309 107.553 200.852 107.236 200.264C106.919 199.667 106.76 198.971 106.76 198.178ZM115.346 198.164C115.346 197.38 115.5 196.694 115.808 196.106C116.125 195.509 116.559 195.051 117.11 194.734C117.67 194.407 118.3 194.244 119 194.244C119.728 194.244 120.353 194.412 120.876 194.748C121.408 195.084 121.79 195.513 122.024 196.036V194.356H123.004V202H122.024V200.306C121.781 200.829 121.394 201.263 120.862 201.608C120.339 201.944 119.714 202.112 118.986 202.112C118.295 202.112 117.67 201.949 117.11 201.622C116.559 201.295 116.125 200.833 115.808 200.236C115.5 199.639 115.346 198.948 115.346 198.164ZM122.024 198.178C122.024 197.562 121.898 197.021 121.646 196.554C121.394 196.087 121.048 195.728 120.61 195.476C120.18 195.224 119.704 195.098 119.182 195.098C118.64 195.098 118.155 195.219 117.726 195.462C117.296 195.705 116.956 196.059 116.704 196.526C116.461 196.983 116.34 197.529 116.34 198.164C116.34 198.789 116.461 199.34 116.704 199.816C116.956 200.283 117.296 200.642 117.726 200.894C118.155 201.137 118.64 201.258 119.182 201.258C119.704 201.258 120.18 201.132 120.61 200.88C121.048 200.628 121.394 200.269 121.646 199.802C121.898 199.335 122.024 198.794 122.024 198.178ZM127.873 202.112C126.996 202.112 126.277 201.911 125.717 201.51C125.166 201.099 124.858 200.544 124.793 199.844H125.801C125.848 200.273 126.048 200.623 126.403 200.894C126.767 201.155 127.252 201.286 127.859 201.286C128.391 201.286 128.806 201.16 129.105 200.908C129.413 200.656 129.567 200.343 129.567 199.97C129.567 199.709 129.483 199.494 129.315 199.326C129.147 199.158 128.932 199.027 128.671 198.934C128.419 198.831 128.074 198.724 127.635 198.612C127.066 198.463 126.604 198.313 126.249 198.164C125.894 198.015 125.591 197.795 125.339 197.506C125.096 197.207 124.975 196.811 124.975 196.316C124.975 195.943 125.087 195.597 125.311 195.28C125.535 194.963 125.852 194.711 126.263 194.524C126.674 194.337 127.14 194.244 127.663 194.244C128.484 194.244 129.147 194.454 129.651 194.874C130.155 195.285 130.426 195.854 130.463 196.582H129.483C129.455 196.134 129.278 195.775 128.951 195.504C128.634 195.224 128.195 195.084 127.635 195.084C127.14 195.084 126.739 195.201 126.431 195.434C126.123 195.667 125.969 195.957 125.969 196.302C125.969 196.601 126.058 196.848 126.235 197.044C126.422 197.231 126.65 197.38 126.921 197.492C127.192 197.595 127.556 197.711 128.013 197.842C128.564 197.991 129.002 198.136 129.329 198.276C129.656 198.416 129.936 198.621 130.169 198.892C130.402 199.163 130.524 199.522 130.533 199.97C130.533 200.381 130.421 200.749 130.197 201.076C129.973 201.393 129.66 201.645 129.259 201.832C128.858 202.019 128.396 202.112 127.873 202.112ZM133.652 195.182V199.928C133.652 200.395 133.74 200.717 133.918 200.894C134.095 201.071 134.408 201.16 134.856 201.16H135.752V202H134.702C134.011 202 133.498 201.841 133.162 201.524C132.826 201.197 132.658 200.665 132.658 199.928V195.182H131.594V194.356H132.658V192.438H133.652V194.356H135.752V195.182H133.652ZM138.264 200.376L136.808 204.044H136.136L137.172 200.376H138.264ZM143.182 197.1C143.182 196.139 143.392 195.28 143.812 194.524C144.232 193.759 144.806 193.166 145.534 192.746C146.262 192.317 147.074 192.102 147.97 192.102C149.062 192.102 149.995 192.363 150.77 192.886C151.554 193.399 152.123 194.127 152.478 195.07H151.33C151.05 194.407 150.62 193.889 150.042 193.516C149.472 193.143 148.782 192.956 147.97 192.956C147.251 192.956 146.602 193.124 146.024 193.46C145.454 193.796 145.006 194.281 144.68 194.916C144.353 195.541 144.19 196.269 144.19 197.1C144.19 197.931 144.353 198.659 144.68 199.284C145.006 199.909 145.454 200.39 146.024 200.726C146.602 201.062 147.251 201.23 147.97 201.23C148.782 201.23 149.472 201.048 150.042 200.684C150.62 200.311 151.05 199.797 151.33 199.144H152.478C152.123 200.077 151.554 200.801 150.77 201.314C149.986 201.827 149.052 202.084 147.97 202.084C147.074 202.084 146.262 201.874 145.534 201.454C144.806 201.025 144.232 200.432 143.812 199.676C143.392 198.92 143.182 198.061 143.182 197.1ZM157.777 202.112C157.058 202.112 156.409 201.953 155.831 201.636C155.261 201.309 154.809 200.852 154.473 200.264C154.146 199.667 153.983 198.971 153.983 198.178C153.983 197.385 154.151 196.694 154.487 196.106C154.823 195.509 155.28 195.051 155.859 194.734C156.437 194.407 157.086 194.244 157.805 194.244C158.523 194.244 159.172 194.407 159.751 194.734C160.339 195.051 160.796 195.509 161.123 196.106C161.459 196.694 161.627 197.385 161.627 198.178C161.627 198.962 161.459 199.653 161.123 200.25C160.787 200.847 160.325 201.309 159.737 201.636C159.149 201.953 158.495 202.112 157.777 202.112ZM157.777 201.258C158.281 201.258 158.747 201.146 159.177 200.922C159.606 200.689 159.951 200.343 160.213 199.886C160.483 199.419 160.619 198.85 160.619 198.178C160.619 197.506 160.488 196.941 160.227 196.484C159.965 196.017 159.62 195.672 159.191 195.448C158.761 195.215 158.295 195.098 157.791 195.098C157.287 195.098 156.82 195.215 156.391 195.448C155.961 195.672 155.616 196.017 155.355 196.484C155.103 196.941 154.977 197.506 154.977 198.178C154.977 198.85 155.103 199.419 155.355 199.886C155.616 200.343 155.957 200.689 156.377 200.922C156.806 201.146 157.273 201.258 157.777 201.258ZM166.997 194.216C167.912 194.216 168.658 194.501 169.237 195.07C169.816 195.63 170.105 196.447 170.105 197.52V202H169.139V197.632C169.139 196.801 168.929 196.167 168.509 195.728C168.098 195.289 167.534 195.07 166.815 195.07C166.078 195.07 165.49 195.303 165.051 195.77C164.612 196.237 164.393 196.923 164.393 197.828V202H163.413V194.356H164.393V195.658C164.636 195.191 164.986 194.837 165.443 194.594C165.9 194.342 166.418 194.216 166.997 194.216ZM173.546 195.182V199.928C173.546 200.395 173.635 200.717 173.812 200.894C173.99 201.071 174.302 201.16 174.75 201.16H175.646V202H174.596C173.906 202 173.392 201.841 173.056 201.524C172.72 201.197 172.552 200.665 172.552 199.928V195.182H171.488V194.356H172.552V192.438H173.546V194.356H175.646V195.182H173.546ZM178.243 195.714C178.457 195.238 178.784 194.869 179.223 194.608C179.671 194.347 180.217 194.216 180.861 194.216V195.238H180.595C179.885 195.238 179.316 195.429 178.887 195.812C178.457 196.195 178.243 196.834 178.243 197.73V202H177.263V194.356H178.243V195.714ZM185.681 202.112C184.962 202.112 184.314 201.953 183.735 201.636C183.166 201.309 182.713 200.852 182.377 200.264C182.05 199.667 181.887 198.971 181.887 198.178C181.887 197.385 182.055 196.694 182.391 196.106C182.727 195.509 183.184 195.051 183.763 194.734C184.342 194.407 184.99 194.244 185.709 194.244C186.428 194.244 187.076 194.407 187.655 194.734C188.243 195.051 188.7 195.509 189.027 196.106C189.363 196.694 189.531 197.385 189.531 198.178C189.531 198.962 189.363 199.653 189.027 200.25C188.691 200.847 188.229 201.309 187.641 201.636C187.053 201.953 186.4 202.112 185.681 202.112ZM185.681 201.258C186.185 201.258 186.652 201.146 187.081 200.922C187.51 200.689 187.856 200.343 188.117 199.886C188.388 199.419 188.523 198.85 188.523 198.178C188.523 197.506 188.392 196.941 188.131 196.484C187.87 196.017 187.524 195.672 187.095 195.448C186.666 195.215 186.199 195.098 185.695 195.098C185.191 195.098 184.724 195.215 184.295 195.448C183.866 195.672 183.52 196.017 183.259 196.484C183.007 196.941 182.881 197.506 182.881 198.178C182.881 198.85 183.007 199.419 183.259 199.886C183.52 200.343 183.861 200.689 184.281 200.922C184.71 201.146 185.177 201.258 185.681 201.258ZM192.297 191.64V202H191.317V191.64H192.297Z" fill="#575455"/>
</g>
<path d="M135 73L293.64 73C294.314 73 294.795 73.6544 294.594 74.2983L251.556 212" stroke="url(#paint0_diamond_26_196)" stroke-opacity="0.13" stroke-width="23" stroke-linecap="round"/>
<defs>
<filter id="filter0_d_26_196" x="0" y="0" width="372" height="282" filterUnits="userSpaceOnUse" color-interpolation-filters="sRGB">
<feFlood flood-opacity="0" result="BackgroundImageFix"/>
<feColorMatrix in="SourceAlpha" type="matrix" values="0 0 0 0 0 0 0 0 0 0 0 0 0 0 0 0 0 0 127 0" result="hardAlpha"/>
<feOffset dy="4"/>
<feGaussianBlur stdDeviation="22"/>
<feComposite in2="hardAlpha" operator="out"/>
<feColorMatrix type="matrix" values="0 0 0 0 0 0 0 0 0 0 0 0 0 0 0 0 0 0 0.07 0"/>
<feBlend mode="normal" in2="BackgroundImageFix" result="effect1_dropShadow_26_196"/>
<feBlend mode="normal" in="SourceGraphic" in2="effect1_dropShadow_26_196" result="shape"/>
</filter>
<filter id="filter1_b_26_196" x="-56" y="-60" width="484" height="394" filterUnits="userSpaceOnUse" color-interpolation-filters="sRGB">
<feFlood flood-opacity="0" result="BackgroundImageFix"/>
<feGaussianBlur in="BackgroundImageFix" stdDeviation="50"/>
<feComposite in2="SourceAlpha" operator="in" result="effect1_backgroundBlur_26_196"/>
<feBlend mode="normal" in="SourceGraphic" in2="effect1_backgroundBlur_26_196" result="shape"/>
</filter>
<radialGradient id="paint0_diamond_26_196" cx="0" cy="0" r="1" gradientUnits="userSpaceOnUse" gradientTransform="translate(291.606 73) rotate(134.807) scale(277.402 111.909)">
<stop stop-color="#7C5224"/>
<stop offset="1" stop-color="#7C5224" stop-opacity="0"/>
</radialGradient>
</defs>
</svg>
