<svg width="372" height="286" viewBox="0 0 372 286" fill="none" xmlns="http://www.w3.org/2000/svg">
<g filter="url(#filter0_d_26_120)">
<g filter="url(#filter1_b_26_120)">
<rect x="44" y="40" width="284" height="198" rx="30" fill="white" fill-opacity="0.2"/>
</g>
<circle cx="99" cy="95" r="25" fill="#A67F28"/>
<path d="M98.9511 82.835C92.2706 82.835 86.8359 88.27 86.8359 94.9502C86.8359 101.631 92.2709 107.065 98.9511 107.065C105.631 107.065 111.066 101.63 111.066 94.9502C111.066 88.27 105.631 82.835 98.9511 82.835ZM98.5325 106.218C92.6461 106.002 87.8995 101.255 87.6833 95.3687H91.0173C91.2285 99.4173 94.484 102.673 98.5325 102.884V106.218ZM98.5325 102.045C94.9461 101.836 92.0661 98.9552 91.8565 95.3687H95.3685C95.5607 97.0244 96.8769 98.3403 98.5325 98.5328V102.045ZM98.5325 97.6868C97.3395 97.5049 96.3964 96.5618 96.2145 95.3687H98.5325V97.6868ZM96.2142 94.5317C96.3961 93.3386 97.3392 92.3955 98.5322 92.2136V94.5317H96.2142ZM98.5325 91.3676C96.8769 91.5601 95.561 92.876 95.3685 94.5317H91.8565C92.0661 90.9452 94.9461 88.0652 98.5325 87.8559V91.3676ZM98.5325 87.0166C94.484 87.2278 91.2285 90.4834 91.0173 94.5317H87.6833C87.8995 88.6455 92.6461 83.8989 98.5325 83.6826V87.0166ZM99.3693 83.6826C105.256 83.8989 110.002 88.6455 110.218 94.5317H106.884C106.673 90.4834 103.418 87.2278 99.3693 87.0166V83.6826ZM101.688 95.3687C101.506 96.5618 100.563 97.5049 99.3696 97.6868V95.3687H101.688ZM99.3696 94.5317V92.2136C100.563 92.3955 101.506 93.3386 101.688 94.5317H99.3696ZM102.534 95.3687H106.046C105.836 98.9552 102.956 101.835 99.3699 102.045L99.3696 98.5328C101.025 98.3403 102.341 97.0244 102.534 95.3687ZM99.3693 87.8556C102.956 88.0652 105.836 90.9452 106.045 94.5314H102.533V94.5317C102.341 92.876 101.025 91.5601 99.3693 91.3676V87.8556ZM99.3696 106.218V102.884C103.418 102.673 106.673 99.417 106.885 95.3684H110.219C110.002 101.255 105.256 106.002 99.3696 106.218Z" fill="white"/>
<path d="M85.56 146.1C85.2 145.407 84.7 144.887 84.06 144.54C83.42 144.18 82.68 144 81.84 144C80.92 144 80.1 144.207 79.38 144.62C78.66 145.033 78.0933 145.62 77.68 146.38C77.28 147.14 77.08 148.02 77.08 149.02C77.08 150.02 77.28 150.907 77.68 151.68C78.0933 152.44 78.66 153.027 79.38 153.44C80.1 153.853 80.92 154.06 81.84 154.06C83.08 154.06 84.0867 153.713 84.86 153.02C85.6333 152.327 86.1067 151.387 86.28 150.2H81.06V148.38H88.72V150.16C88.5733 151.24 88.1867 152.233 87.56 153.14C86.9467 154.047 86.14 154.773 85.14 155.32C84.1533 155.853 83.0533 156.12 81.84 156.12C80.5333 156.12 79.34 155.82 78.26 155.22C77.18 154.607 76.32 153.76 75.68 152.68C75.0533 151.6 74.74 150.38 74.74 149.02C74.74 147.66 75.0533 146.44 75.68 145.36C76.32 144.28 77.18 143.44 78.26 142.84C79.3533 142.227 80.5467 141.92 81.84 141.92C83.32 141.92 84.6333 142.287 85.78 143.02C86.94 143.74 87.78 144.767 88.3 146.1H85.56ZM95.7488 156.18C94.7088 156.18 93.7688 155.947 92.9288 155.48C92.0888 155 91.4288 154.333 90.9488 153.48C90.4688 152.613 90.2288 151.613 90.2288 150.48C90.2288 149.36 90.4754 148.367 90.9688 147.5C91.4621 146.633 92.1354 145.967 92.9888 145.5C93.8421 145.033 94.7954 144.8 95.8488 144.8C96.9021 144.8 97.8554 145.033 98.7088 145.5C99.5621 145.967 100.235 146.633 100.729 147.5C101.222 148.367 101.469 149.36 101.469 150.48C101.469 151.6 101.215 152.593 100.709 153.46C100.202 154.327 99.5088 155 98.6288 155.48C97.7621 155.947 96.8021 156.18 95.7488 156.18ZM95.7488 154.2C96.3354 154.2 96.8821 154.06 97.3888 153.78C97.9088 153.5 98.3288 153.08 98.6488 152.52C98.9688 151.96 99.1288 151.28 99.1288 150.48C99.1288 149.68 98.9754 149.007 98.6688 148.46C98.3621 147.9 97.9554 147.48 97.4488 147.2C96.9421 146.92 96.3954 146.78 95.8088 146.78C95.2221 146.78 94.6754 146.92 94.1688 147.2C93.6754 147.48 93.2821 147.9 92.9888 148.46C92.6954 149.007 92.5488 149.68 92.5488 150.48C92.5488 151.667 92.8488 152.587 93.4488 153.24C94.0621 153.88 94.8288 154.2 95.7488 154.2ZM102.963 150.44C102.963 149.333 103.189 148.353 103.643 147.5C104.109 146.647 104.736 145.987 105.523 145.52C106.323 145.04 107.203 144.8 108.163 144.8C109.029 144.8 109.783 144.973 110.423 145.32C111.076 145.653 111.596 146.073 111.983 146.58V144.98H114.283V156H111.983V154.36C111.596 154.88 111.069 155.313 110.403 155.66C109.736 156.007 108.976 156.18 108.123 156.18C107.176 156.18 106.309 155.94 105.523 155.46C104.736 154.967 104.109 154.287 103.643 153.42C103.189 152.54 102.963 151.547 102.963 150.44ZM111.983 150.48C111.983 149.72 111.823 149.06 111.503 148.5C111.196 147.94 110.789 147.513 110.283 147.22C109.776 146.927 109.229 146.78 108.643 146.78C108.056 146.78 107.509 146.927 107.003 147.22C106.496 147.5 106.083 147.92 105.763 148.48C105.456 149.027 105.303 149.68 105.303 150.44C105.303 151.2 105.456 151.867 105.763 152.44C106.083 153.013 106.496 153.453 107.003 153.76C107.523 154.053 108.069 154.2 108.643 154.2C109.229 154.2 109.776 154.053 110.283 153.76C110.789 153.467 111.196 153.04 111.503 152.48C111.823 151.907 111.983 151.24 111.983 150.48ZM119.557 141.2V156H117.277V141.2H119.557ZM126.551 156.18C125.684 156.18 124.904 156.027 124.211 155.72C123.531 155.4 122.991 154.973 122.591 154.44C122.191 153.893 121.977 153.287 121.951 152.62H124.311C124.351 153.087 124.571 153.48 124.971 153.8C125.384 154.107 125.897 154.26 126.511 154.26C127.151 154.26 127.644 154.14 127.991 153.9C128.351 153.647 128.531 153.327 128.531 152.94C128.531 152.527 128.331 152.22 127.931 152.02C127.544 151.82 126.924 151.6 126.071 151.36C125.244 151.133 124.571 150.913 124.051 150.7C123.531 150.487 123.077 150.16 122.691 149.72C122.317 149.28 122.131 148.7 122.131 147.98C122.131 147.393 122.304 146.86 122.651 146.38C122.997 145.887 123.491 145.5 124.131 145.22C124.784 144.94 125.531 144.8 126.371 144.8C127.624 144.8 128.631 145.12 129.391 145.76C130.164 146.387 130.577 147.247 130.631 148.34H128.351C128.311 147.847 128.111 147.453 127.751 147.16C127.391 146.867 126.904 146.72 126.291 146.72C125.691 146.72 125.231 146.833 124.911 147.06C124.591 147.287 124.431 147.587 124.431 147.96C124.431 148.253 124.537 148.5 124.751 148.7C124.964 148.9 125.224 149.06 125.531 149.18C125.837 149.287 126.291 149.427 126.891 149.6C127.691 149.813 128.344 150.033 128.851 150.26C129.371 150.473 129.817 150.793 130.191 151.22C130.564 151.647 130.757 152.213 130.771 152.92C130.771 153.547 130.597 154.107 130.251 154.6C129.904 155.093 129.411 155.48 128.771 155.76C128.144 156.04 127.404 156.18 126.551 156.18ZM137.67 150.44C137.67 149.333 137.896 148.353 138.35 147.5C138.816 146.647 139.443 145.987 140.23 145.52C141.03 145.04 141.91 144.8 142.87 144.8C143.736 144.8 144.49 144.973 145.13 145.32C145.783 145.653 146.303 146.073 146.69 146.58V144.98H148.99V156H146.69V154.36C146.303 154.88 145.776 155.313 145.11 155.66C144.443 156.007 143.683 156.18 142.83 156.18C141.883 156.18 141.016 155.94 140.23 155.46C139.443 154.967 138.816 154.287 138.35 153.42C137.896 152.54 137.67 151.547 137.67 150.44ZM146.69 150.48C146.69 149.72 146.53 149.06 146.21 148.5C145.903 147.94 145.496 147.513 144.99 147.22C144.483 146.927 143.936 146.78 143.35 146.78C142.763 146.78 142.216 146.927 141.71 147.22C141.203 147.5 140.79 147.92 140.47 148.48C140.163 149.027 140.01 149.68 140.01 150.44C140.01 151.2 140.163 151.867 140.47 152.44C140.79 153.013 141.203 153.453 141.71 153.76C142.23 154.053 142.776 154.2 143.35 154.2C143.936 154.2 144.483 154.053 144.99 153.76C145.496 153.467 145.903 153.04 146.21 152.48C146.53 151.907 146.69 151.24 146.69 150.48ZM157.544 144.8C158.411 144.8 159.184 144.98 159.864 145.34C160.558 145.7 161.098 146.233 161.484 146.94C161.871 147.647 162.064 148.5 162.064 149.5V156H159.804V149.84C159.804 148.853 159.558 148.1 159.064 147.58C158.571 147.047 157.898 146.78 157.044 146.78C156.191 146.78 155.511 147.047 155.004 147.58C154.511 148.1 154.264 148.853 154.264 149.84V156H151.984V144.98H154.264V146.24C154.638 145.787 155.111 145.433 155.684 145.18C156.271 144.927 156.891 144.8 157.544 144.8ZM164.213 150.44C164.213 149.333 164.439 148.353 164.893 147.5C165.359 146.647 165.986 145.987 166.773 145.52C167.573 145.04 168.459 144.8 169.433 144.8C170.153 144.8 170.859 144.96 171.553 145.28C172.259 145.587 172.819 146 173.233 146.52V141.2H175.533V156H173.233V154.34C172.859 154.873 172.339 155.313 171.673 155.66C171.019 156.007 170.266 156.18 169.413 156.18C168.453 156.18 167.573 155.94 166.773 155.46C165.986 154.967 165.359 154.287 164.893 153.42C164.439 152.54 164.213 151.547 164.213 150.44ZM173.233 150.48C173.233 149.72 173.073 149.06 172.753 148.5C172.446 147.94 172.039 147.513 171.533 147.22C171.026 146.927 170.479 146.78 169.893 146.78C169.306 146.78 168.759 146.927 168.253 147.22C167.746 147.5 167.333 147.92 167.013 148.48C166.706 149.027 166.553 149.68 166.553 150.44C166.553 151.2 166.706 151.867 167.013 152.44C167.333 153.013 167.746 153.453 168.253 153.76C168.773 154.053 169.319 154.2 169.893 154.2C170.479 154.2 171.026 154.053 171.533 153.76C172.039 153.467 172.446 153.04 172.753 152.48C173.073 151.907 173.233 151.24 173.233 150.48ZM193.443 146.24C193.443 146.947 193.276 147.613 192.943 148.24C192.609 148.867 192.076 149.38 191.343 149.78C190.609 150.167 189.669 150.36 188.523 150.36H186.003V156H183.723V142.1H188.523C189.589 142.1 190.489 142.287 191.223 142.66C191.969 143.02 192.523 143.513 192.883 144.14C193.256 144.767 193.443 145.467 193.443 146.24ZM188.523 148.5C189.389 148.5 190.036 148.307 190.463 147.92C190.889 147.52 191.103 146.96 191.103 146.24C191.103 144.72 190.243 143.96 188.523 143.96H186.003V148.5H188.523ZM197.897 146.58C198.231 146.02 198.671 145.587 199.217 145.28C199.777 144.96 200.437 144.8 201.197 144.8V147.16H200.617C199.724 147.16 199.044 147.387 198.577 147.84C198.124 148.293 197.897 149.08 197.897 150.2V156H195.617V144.98H197.897V146.58ZM208.073 156.18C207.033 156.18 206.093 155.947 205.253 155.48C204.413 155 203.753 154.333 203.273 153.48C202.793 152.613 202.553 151.613 202.553 150.48C202.553 149.36 202.8 148.367 203.293 147.5C203.786 146.633 204.46 145.967 205.313 145.5C206.166 145.033 207.12 144.8 208.173 144.8C209.226 144.8 210.18 145.033 211.033 145.5C211.886 145.967 212.56 146.633 213.053 147.5C213.546 148.367 213.793 149.36 213.793 150.48C213.793 151.6 213.54 152.593 213.033 153.46C212.526 154.327 211.833 155 210.953 155.48C210.086 155.947 209.126 156.18 208.073 156.18ZM208.073 154.2C208.66 154.2 209.206 154.06 209.713 153.78C210.233 153.5 210.653 153.08 210.973 152.52C211.293 151.96 211.453 151.28 211.453 150.48C211.453 149.68 211.3 149.007 210.993 148.46C210.686 147.9 210.28 147.48 209.773 147.2C209.266 146.92 208.72 146.78 208.133 146.78C207.546 146.78 207 146.92 206.493 147.2C206 147.48 205.606 147.9 205.313 148.46C205.02 149.007 204.873 149.68 204.873 150.48C204.873 151.667 205.173 152.587 205.773 153.24C206.386 153.88 207.153 154.2 208.073 154.2ZM217.207 143.52C216.794 143.52 216.447 143.38 216.167 143.1C215.887 142.82 215.747 142.473 215.747 142.06C215.747 141.647 215.887 141.3 216.167 141.02C216.447 140.74 216.794 140.6 217.207 140.6C217.607 140.6 217.947 140.74 218.227 141.02C218.507 141.3 218.647 141.647 218.647 142.06C218.647 142.473 218.507 142.82 218.227 143.1C217.947 143.38 217.607 143.52 217.207 143.52ZM218.327 158.16C218.327 159.24 218.054 160.02 217.507 160.5C216.974 160.993 216.194 161.24 215.167 161.24H213.987V159.32H214.767C215.234 159.32 215.56 159.227 215.747 159.04C215.947 158.867 216.047 158.573 216.047 158.16V144.98H218.327V158.16ZM231.42 150.22C231.42 150.633 231.394 151.007 231.34 151.34H222.92C222.987 152.22 223.314 152.927 223.9 153.46C224.487 153.993 225.207 154.26 226.06 154.26C227.287 154.26 228.154 153.747 228.66 152.72H231.12C230.787 153.733 230.18 154.567 229.3 155.22C228.434 155.86 227.354 156.18 226.06 156.18C225.007 156.18 224.06 155.947 223.22 155.48C222.394 155 221.74 154.333 221.26 153.48C220.794 152.613 220.56 151.613 220.56 150.48C220.56 149.347 220.787 148.353 221.24 147.5C221.707 146.633 222.354 145.967 223.18 145.5C224.02 145.033 224.98 144.8 226.06 144.8C227.1 144.8 228.027 145.027 228.84 145.48C229.654 145.933 230.287 146.573 230.74 147.4C231.194 148.213 231.42 149.153 231.42 150.22ZM229.04 149.5C229.027 148.66 228.727 147.987 228.14 147.48C227.554 146.973 226.827 146.72 225.96 146.72C225.174 146.72 224.5 146.973 223.94 147.48C223.38 147.973 223.047 148.647 222.94 149.5H229.04ZM232.904 150.48C232.904 149.347 233.131 148.353 233.584 147.5C234.051 146.633 234.691 145.967 235.504 145.5C236.317 145.033 237.251 144.8 238.304 144.8C239.637 144.8 240.737 145.12 241.604 145.76C242.484 146.387 243.077 147.287 243.384 148.46H240.924C240.724 147.913 240.404 147.487 239.964 147.18C239.524 146.873 238.971 146.72 238.304 146.72C237.371 146.72 236.624 147.053 236.064 147.72C235.517 148.373 235.244 149.293 235.244 150.48C235.244 151.667 235.517 152.593 236.064 153.26C236.624 153.927 237.371 154.26 238.304 154.26C239.624 154.26 240.497 153.68 240.924 152.52H243.384C243.064 153.64 242.464 154.533 241.584 155.2C240.704 155.853 239.611 156.18 238.304 156.18C237.251 156.18 236.317 155.947 235.504 155.48C234.691 155 234.051 154.333 233.584 153.48C233.131 152.613 232.904 151.613 232.904 150.48ZM248.316 146.84V152.94C248.316 153.353 248.41 153.653 248.596 153.84C248.796 154.013 249.13 154.1 249.596 154.1H250.996V156H249.196C248.17 156 247.383 155.76 246.836 155.28C246.29 154.8 246.016 154.02 246.016 152.94V146.84H244.716V144.98H246.016V142.24H248.316V144.98H250.996V146.84H248.316ZM254.258 143.52C253.844 143.52 253.498 143.38 253.218 143.1C252.938 142.82 252.798 142.473 252.798 142.06C252.798 141.647 252.938 141.3 253.218 141.02C253.498 140.74 253.844 140.6 254.258 140.6C254.658 140.6 254.998 140.74 255.278 141.02C255.558 141.3 255.698 141.647 255.698 142.06C255.698 142.473 255.558 142.82 255.278 143.1C254.998 143.38 254.658 143.52 254.258 143.52ZM255.378 144.98V156H253.098V144.98H255.378ZM263.151 156.18C262.111 156.18 261.171 155.947 260.331 155.48C259.491 155 258.831 154.333 258.351 153.48C257.871 152.613 257.631 151.613 257.631 150.48C257.631 149.36 257.878 148.367 258.371 147.5C258.864 146.633 259.538 145.967 260.391 145.5C261.244 145.033 262.198 144.8 263.251 144.8C264.304 144.8 265.258 145.033 266.111 145.5C266.964 145.967 267.638 146.633 268.131 147.5C268.624 148.367 268.871 149.36 268.871 150.48C268.871 151.6 268.618 152.593 268.111 153.46C267.604 154.327 266.911 155 266.031 155.48C265.164 155.947 264.204 156.18 263.151 156.18ZM263.151 154.2C263.738 154.2 264.284 154.06 264.791 153.78C265.311 153.5 265.731 153.08 266.051 152.52C266.371 151.96 266.531 151.28 266.531 150.48C266.531 149.68 266.378 149.007 266.071 148.46C265.764 147.9 265.358 147.48 264.851 147.2C264.344 146.92 263.798 146.78 263.211 146.78C262.624 146.78 262.078 146.92 261.571 147.2C261.078 147.48 260.684 147.9 260.391 148.46C260.098 149.007 259.951 149.68 259.951 150.48C259.951 151.667 260.251 152.587 260.851 153.24C261.464 153.88 262.231 154.2 263.151 154.2ZM276.685 144.8C277.552 144.8 278.325 144.98 279.005 145.34C279.698 145.7 280.238 146.233 280.625 146.94C281.012 147.647 281.205 148.5 281.205 149.5V156H278.945V149.84C278.945 148.853 278.698 148.1 278.205 147.58C277.712 147.047 277.038 146.78 276.185 146.78C275.332 146.78 274.652 147.047 274.145 147.58C273.652 148.1 273.405 148.853 273.405 149.84V156H271.125V144.98H273.405V146.24C273.778 145.787 274.252 145.433 274.825 145.18C275.412 144.927 276.032 144.8 276.685 144.8ZM288.113 156.18C287.247 156.18 286.467 156.027 285.773 155.72C285.093 155.4 284.553 154.973 284.153 154.44C283.753 153.893 283.54 153.287 283.513 152.62H285.873C285.913 153.087 286.133 153.48 286.533 153.8C286.947 154.107 287.46 154.26 288.073 154.26C288.713 154.26 289.207 154.14 289.553 153.9C289.913 153.647 290.093 153.327 290.093 152.94C290.093 152.527 289.893 152.22 289.493 152.02C289.107 151.82 288.487 151.6 287.633 151.36C286.807 151.133 286.133 150.913 285.613 150.7C285.093 150.487 284.64 150.16 284.253 149.72C283.88 149.28 283.693 148.7 283.693 147.98C283.693 147.393 283.867 146.86 284.213 146.38C284.56 145.887 285.053 145.5 285.693 145.22C286.347 144.94 287.093 144.8 287.933 144.8C289.187 144.8 290.193 145.12 290.953 145.76C291.727 146.387 292.14 147.247 292.193 148.34H289.913C289.873 147.847 289.673 147.453 289.313 147.16C288.953 146.867 288.467 146.72 287.853 146.72C287.253 146.72 286.793 146.833 286.473 147.06C286.153 147.287 285.993 147.587 285.993 147.96C285.993 148.253 286.1 148.5 286.313 148.7C286.527 148.9 286.787 149.06 287.093 149.18C287.4 149.287 287.853 149.427 288.453 149.6C289.253 149.813 289.907 150.033 290.413 150.26C290.933 150.473 291.38 150.793 291.753 151.22C292.127 151.647 292.32 152.213 292.333 152.92C292.333 153.547 292.16 154.107 291.813 154.6C291.467 155.093 290.973 155.48 290.333 155.76C289.707 156.04 288.967 156.18 288.113 156.18Z" fill="#524633"/>
<path d="M78.088 181.098C77.444 181.098 76.8747 180.986 76.38 180.762C75.8947 180.538 75.512 180.225 75.232 179.824C74.952 179.423 74.8027 178.975 74.784 178.48H75.82C75.8667 178.956 76.0767 179.376 76.45 179.74C76.8233 180.095 77.3693 180.272 78.088 180.272C78.7507 180.272 79.2733 180.104 79.656 179.768C80.048 179.423 80.244 178.989 80.244 178.466C80.244 178.046 80.1367 177.71 79.922 177.458C79.7073 177.197 79.4413 177.005 79.124 176.884C78.8067 176.753 78.368 176.613 77.808 176.464C77.1547 176.287 76.6367 176.114 76.254 175.946C75.8713 175.778 75.5447 175.517 75.274 175.162C75.0033 174.807 74.868 174.327 74.868 173.72C74.868 173.216 74.9987 172.768 75.26 172.376C75.5213 171.975 75.89 171.662 76.366 171.438C76.842 171.214 77.388 171.102 78.004 171.102C78.9093 171.102 79.6373 171.326 80.188 171.774C80.748 172.213 81.07 172.782 81.154 173.482H80.09C80.0247 173.081 79.8053 172.726 79.432 172.418C79.0587 172.101 78.5547 171.942 77.92 171.942C77.332 171.942 76.842 172.101 76.45 172.418C76.058 172.726 75.862 173.151 75.862 173.692C75.862 174.103 75.9693 174.434 76.184 174.686C76.3987 174.938 76.6647 175.129 76.982 175.26C77.3087 175.391 77.7473 175.531 78.298 175.68C78.9327 175.857 79.446 176.035 79.838 176.212C80.23 176.38 80.5613 176.641 80.832 176.996C81.1027 177.351 81.238 177.827 81.238 178.424C81.238 178.881 81.1167 179.315 80.874 179.726C80.6313 180.137 80.272 180.468 79.796 180.72C79.32 180.972 78.7507 181.098 78.088 181.098ZM86.7717 173.216C87.3504 173.216 87.8684 173.337 88.3257 173.58C88.7924 173.823 89.1564 174.196 89.4177 174.7C89.6884 175.195 89.8237 175.801 89.8237 176.52V181H88.8577V176.632C88.8577 175.801 88.6477 175.167 88.2277 174.728C87.8171 174.289 87.2524 174.07 86.5337 174.07C85.7964 174.07 85.2084 174.303 84.7697 174.77C84.3311 175.237 84.1117 175.923 84.1117 176.828V181H83.1317V170.64H84.1117V174.658C84.3544 174.201 84.7091 173.846 85.1757 173.594C85.6517 173.342 86.1837 173.216 86.7717 173.216ZM95.3371 181.112C94.6184 181.112 93.9698 180.953 93.3911 180.636C92.8218 180.309 92.3691 179.852 92.0331 179.264C91.7064 178.667 91.5431 177.971 91.5431 177.178C91.5431 176.385 91.7111 175.694 92.0471 175.106C92.3831 174.509 92.8404 174.051 93.4191 173.734C93.9978 173.407 94.6464 173.244 95.3651 173.244C96.0838 173.244 96.7324 173.407 97.3111 173.734C97.8991 174.051 98.3564 174.509 98.6831 175.106C99.0191 175.694 99.1871 176.385 99.1871 177.178C99.1871 177.962 99.0191 178.653 98.6831 179.25C98.3471 179.847 97.8851 180.309 97.2971 180.636C96.7091 180.953 96.0558 181.112 95.3371 181.112ZM95.3371 180.258C95.8411 180.258 96.3078 180.146 96.7371 179.922C97.1664 179.689 97.5118 179.343 97.7731 178.886C98.0438 178.419 98.1791 177.85 98.1791 177.178C98.1791 176.506 98.0484 175.941 97.7871 175.484C97.5258 175.017 97.1804 174.672 96.7511 174.448C96.3218 174.215 95.8551 174.098 95.3511 174.098C94.8471 174.098 94.3804 174.215 93.9511 174.448C93.5218 174.672 93.1764 175.017 92.9151 175.484C92.6631 175.941 92.5371 176.506 92.5371 177.178C92.5371 177.85 92.6631 178.419 92.9151 178.886C93.1764 179.343 93.5171 179.689 93.9371 179.922C94.3664 180.146 94.8331 180.258 95.3371 180.258ZM101.954 174.714C102.168 174.238 102.495 173.869 102.934 173.608C103.382 173.347 103.928 173.216 104.572 173.216V174.238H104.306C103.596 174.238 103.027 174.429 102.598 174.812C102.168 175.195 101.954 175.834 101.954 176.73V181H100.974V173.356H101.954V174.714ZM107.32 174.182V178.928C107.32 179.395 107.408 179.717 107.586 179.894C107.763 180.071 108.076 180.16 108.524 180.16H109.42V181H108.37C107.679 181 107.166 180.841 106.83 180.524C106.494 180.197 106.326 179.665 106.326 178.928V174.182H105.262V173.356H106.326V171.438H107.32V173.356H109.42V174.182H107.32ZM115.782 175.4V176.226H110.336V175.4H115.782ZM124.022 171.214V172.026H121.306V181H120.326V172.026H117.596V171.214H124.022ZM132.485 176.786C132.485 177.122 132.476 177.379 132.457 177.556H126.115C126.143 178.135 126.283 178.629 126.535 179.04C126.787 179.451 127.119 179.763 127.529 179.978C127.94 180.183 128.388 180.286 128.873 180.286C129.508 180.286 130.04 180.132 130.469 179.824C130.908 179.516 131.197 179.101 131.337 178.578H132.373C132.187 179.325 131.785 179.936 131.169 180.412C130.563 180.879 129.797 181.112 128.873 181.112C128.155 181.112 127.511 180.953 126.941 180.636C126.372 180.309 125.924 179.852 125.597 179.264C125.28 178.667 125.121 177.971 125.121 177.178C125.121 176.385 125.28 175.689 125.597 175.092C125.915 174.495 126.358 174.037 126.927 173.72C127.497 173.403 128.145 173.244 128.873 173.244C129.601 173.244 130.236 173.403 130.777 173.72C131.328 174.037 131.748 174.467 132.037 175.008C132.336 175.54 132.485 176.133 132.485 176.786ZM131.491 176.758C131.501 176.189 131.384 175.703 131.141 175.302C130.908 174.901 130.586 174.597 130.175 174.392C129.765 174.187 129.317 174.084 128.831 174.084C128.103 174.084 127.483 174.317 126.969 174.784C126.456 175.251 126.171 175.909 126.115 176.758H131.491ZM135.258 174.714C135.473 174.238 135.8 173.869 136.238 173.608C136.686 173.347 137.232 173.216 137.876 173.216V174.238H137.61C136.901 174.238 136.332 174.429 135.902 174.812C135.473 175.195 135.258 175.834 135.258 176.73V181H134.278V173.356H135.258V174.714ZM148.45 173.216C149.346 173.216 150.074 173.501 150.634 174.07C151.204 174.63 151.488 175.447 151.488 176.52V181H150.522V176.632C150.522 175.801 150.322 175.167 149.92 174.728C149.519 174.289 148.973 174.07 148.282 174.07C147.564 174.07 146.99 174.308 146.56 174.784C146.131 175.26 145.916 175.951 145.916 176.856V181H144.95V176.632C144.95 175.801 144.75 175.167 144.348 174.728C143.947 174.289 143.396 174.07 142.696 174.07C141.978 174.07 141.404 174.308 140.974 174.784C140.545 175.26 140.33 175.951 140.33 176.856V181H139.35V173.356H140.33V174.672C140.573 174.196 140.918 173.837 141.366 173.594C141.814 173.342 142.314 173.216 142.864 173.216C143.527 173.216 144.106 173.375 144.6 173.692C145.104 174.009 145.468 174.476 145.692 175.092C145.898 174.485 146.248 174.023 146.742 173.706C147.246 173.379 147.816 173.216 148.45 173.216ZM165.207 174.07C164.927 173.426 164.497 172.922 163.919 172.558C163.349 172.185 162.677 171.998 161.903 171.998C161.175 171.998 160.521 172.166 159.943 172.502C159.364 172.838 158.907 173.319 158.571 173.944C158.235 174.56 158.067 175.279 158.067 176.1C158.067 176.921 158.235 177.645 158.571 178.27C158.907 178.895 159.364 179.376 159.943 179.712C160.521 180.048 161.175 180.216 161.903 180.216C162.584 180.216 163.195 180.071 163.737 179.782C164.287 179.483 164.726 179.063 165.053 178.522C165.389 177.971 165.58 177.332 165.627 176.604H161.511V175.806H166.663V176.52C166.616 177.379 166.383 178.158 165.963 178.858C165.543 179.549 164.978 180.095 164.269 180.496C163.569 180.897 162.78 181.098 161.903 181.098C160.997 181.098 160.176 180.888 159.439 180.468C158.701 180.039 158.118 179.446 157.689 178.69C157.269 177.925 157.059 177.061 157.059 176.1C157.059 175.139 157.269 174.28 157.689 173.524C158.118 172.759 158.701 172.166 159.439 171.746C160.176 171.317 160.997 171.102 161.903 171.102C162.948 171.102 163.863 171.363 164.647 171.886C165.431 172.409 166 173.137 166.355 174.07H165.207ZM171.804 181.112C171.085 181.112 170.437 180.953 169.858 180.636C169.289 180.309 168.836 179.852 168.5 179.264C168.173 178.667 168.01 177.971 168.01 177.178C168.01 176.385 168.178 175.694 168.514 175.106C168.85 174.509 169.307 174.051 169.886 173.734C170.465 173.407 171.113 173.244 171.832 173.244C172.551 173.244 173.199 173.407 173.778 173.734C174.366 174.051 174.823 174.509 175.15 175.106C175.486 175.694 175.654 176.385 175.654 177.178C175.654 177.962 175.486 178.653 175.15 179.25C174.814 179.847 174.352 180.309 173.764 180.636C173.176 180.953 172.523 181.112 171.804 181.112ZM171.804 180.258C172.308 180.258 172.775 180.146 173.204 179.922C173.633 179.689 173.979 179.343 174.24 178.886C174.511 178.419 174.646 177.85 174.646 177.178C174.646 176.506 174.515 175.941 174.254 175.484C173.993 175.017 173.647 174.672 173.218 174.448C172.789 174.215 172.322 174.098 171.818 174.098C171.314 174.098 170.847 174.215 170.418 174.448C169.989 174.672 169.643 175.017 169.382 175.484C169.13 175.941 169.004 176.506 169.004 177.178C169.004 177.85 169.13 178.419 169.382 178.886C169.643 179.343 169.984 179.689 170.404 179.922C170.833 180.146 171.3 180.258 171.804 180.258ZM176.992 177.164C176.992 176.38 177.146 175.694 177.454 175.106C177.772 174.509 178.206 174.051 178.756 173.734C179.316 173.407 179.946 173.244 180.646 173.244C181.374 173.244 182 173.412 182.522 173.748C183.054 174.084 183.437 174.513 183.67 175.036V173.356H184.65V181H183.67V179.306C183.428 179.829 183.04 180.263 182.508 180.608C181.986 180.944 181.36 181.112 180.632 181.112C179.942 181.112 179.316 180.949 178.756 180.622C178.206 180.295 177.772 179.833 177.454 179.236C177.146 178.639 176.992 177.948 176.992 177.164ZM183.67 177.178C183.67 176.562 183.544 176.021 183.292 175.554C183.04 175.087 182.695 174.728 182.256 174.476C181.827 174.224 181.351 174.098 180.828 174.098C180.287 174.098 179.802 174.219 179.372 174.462C178.943 174.705 178.602 175.059 178.35 175.526C178.108 175.983 177.986 176.529 177.986 177.164C177.986 177.789 178.108 178.34 178.35 178.816C178.602 179.283 178.943 179.642 179.372 179.894C179.802 180.137 180.287 180.258 180.828 180.258C181.351 180.258 181.827 180.132 182.256 179.88C182.695 179.628 183.04 179.269 183.292 178.802C183.544 178.335 183.67 177.794 183.67 177.178ZM187.868 170.64V181H186.888V170.64H187.868ZM192.719 181.112C191.841 181.112 191.123 180.911 190.563 180.51C190.012 180.099 189.704 179.544 189.639 178.844H190.647C190.693 179.273 190.894 179.623 191.249 179.894C191.613 180.155 192.098 180.286 192.705 180.286C193.237 180.286 193.652 180.16 193.951 179.908C194.259 179.656 194.413 179.343 194.413 178.97C194.413 178.709 194.329 178.494 194.161 178.326C193.993 178.158 193.778 178.027 193.517 177.934C193.265 177.831 192.919 177.724 192.481 177.612C191.911 177.463 191.449 177.313 191.095 177.164C190.74 177.015 190.437 176.795 190.185 176.506C189.942 176.207 189.821 175.811 189.821 175.316C189.821 174.943 189.933 174.597 190.157 174.28C190.381 173.963 190.698 173.711 191.109 173.524C191.519 173.337 191.986 173.244 192.509 173.244C193.33 173.244 193.993 173.454 194.497 173.874C195.001 174.285 195.271 174.854 195.309 175.582H194.329C194.301 175.134 194.123 174.775 193.797 174.504C193.479 174.224 193.041 174.084 192.481 174.084C191.986 174.084 191.585 174.201 191.277 174.434C190.969 174.667 190.815 174.957 190.815 175.302C190.815 175.601 190.903 175.848 191.081 176.044C191.267 176.231 191.496 176.38 191.767 176.492C192.037 176.595 192.401 176.711 192.859 176.842C193.409 176.991 193.848 177.136 194.175 177.276C194.501 177.416 194.781 177.621 195.015 177.892C195.248 178.163 195.369 178.522 195.379 178.97C195.379 179.381 195.267 179.749 195.043 180.076C194.819 180.393 194.506 180.645 194.105 180.832C193.703 181.019 193.241 181.112 192.719 181.112ZM198.12 179.376L196.664 183.044H195.992L197.028 179.376H198.12ZM204.465 180.202H207.979V181H203.485V171.214H204.465V180.202ZM212.724 181.112C212.005 181.112 211.356 180.953 210.778 180.636C210.208 180.309 209.756 179.852 209.42 179.264C209.093 178.667 208.93 177.971 208.93 177.178C208.93 176.385 209.098 175.694 209.434 175.106C209.77 174.509 210.227 174.051 210.806 173.734C211.384 173.407 212.033 173.244 212.752 173.244C213.47 173.244 214.119 173.407 214.698 173.734C215.286 174.051 215.743 174.509 216.07 175.106C216.406 175.694 216.574 176.385 216.574 177.178C216.574 177.962 216.406 178.653 216.07 179.25C215.734 179.847 215.272 180.309 214.684 180.636C214.096 180.953 213.442 181.112 212.724 181.112ZM212.724 180.258C213.228 180.258 213.694 180.146 214.124 179.922C214.553 179.689 214.898 179.343 215.16 178.886C215.43 178.419 215.566 177.85 215.566 177.178C215.566 176.506 215.435 175.941 215.174 175.484C214.912 175.017 214.567 174.672 214.138 174.448C213.708 174.215 213.242 174.098 212.738 174.098C212.234 174.098 211.767 174.215 211.338 174.448C210.908 174.672 210.563 175.017 210.302 175.484C210.05 175.941 209.924 176.506 209.924 177.178C209.924 177.85 210.05 178.419 210.302 178.886C210.563 179.343 210.904 179.689 211.324 179.922C211.753 180.146 212.22 180.258 212.724 180.258ZM221.944 173.216C222.859 173.216 223.606 173.501 224.184 174.07C224.763 174.63 225.052 175.447 225.052 176.52V181H224.086V176.632C224.086 175.801 223.876 175.167 223.456 174.728C223.046 174.289 222.481 174.07 221.762 174.07C221.025 174.07 220.437 174.303 219.998 174.77C219.56 175.237 219.34 175.923 219.34 176.828V181H218.36V173.356H219.34V174.658C219.583 174.191 219.933 173.837 220.39 173.594C220.848 173.342 221.366 173.216 221.944 173.216ZM230.426 173.244C231.144 173.244 231.77 173.412 232.302 173.748C232.834 174.084 233.216 174.509 233.45 175.022V173.356H234.43V181.196C234.43 181.896 234.276 182.517 233.968 183.058C233.669 183.599 233.249 184.015 232.708 184.304C232.166 184.603 231.55 184.752 230.86 184.752C229.88 184.752 229.063 184.519 228.41 184.052C227.766 183.585 227.364 182.951 227.206 182.148H228.172C228.34 182.68 228.657 183.105 229.124 183.422C229.6 183.739 230.178 183.898 230.86 183.898C231.354 183.898 231.798 183.791 232.19 183.576C232.582 183.371 232.89 183.063 233.114 182.652C233.338 182.241 233.45 181.756 233.45 181.196V179.306C233.207 179.829 232.82 180.263 232.288 180.608C231.765 180.944 231.144 181.112 230.426 181.112C229.726 181.112 229.096 180.949 228.536 180.622C227.985 180.295 227.551 179.833 227.234 179.236C226.926 178.639 226.772 177.948 226.772 177.164C226.772 176.38 226.926 175.694 227.234 175.106C227.551 174.509 227.985 174.051 228.536 173.734C229.096 173.407 229.726 173.244 230.426 173.244ZM233.45 177.178C233.45 176.562 233.324 176.021 233.072 175.554C232.82 175.087 232.474 174.728 232.036 174.476C231.606 174.224 231.13 174.098 230.608 174.098C230.066 174.098 229.581 174.219 229.152 174.462C228.722 174.705 228.382 175.059 228.13 175.526C227.887 175.983 227.766 176.529 227.766 177.164C227.766 177.789 227.887 178.34 228.13 178.816C228.382 179.283 228.722 179.642 229.152 179.894C229.581 180.137 230.066 180.258 230.608 180.258C231.13 180.258 231.606 180.132 232.036 179.88C232.474 179.628 232.82 179.269 233.072 178.802C233.324 178.335 233.45 177.794 233.45 177.178ZM241.413 175.4V176.226H235.967V175.4H241.413ZM249.653 171.214V172.026H246.937V181H245.957V172.026H243.227V171.214H249.653ZM258.116 176.786C258.116 177.122 258.107 177.379 258.088 177.556H251.746C251.774 178.135 251.914 178.629 252.166 179.04C252.418 179.451 252.749 179.763 253.16 179.978C253.571 180.183 254.019 180.286 254.504 180.286C255.139 180.286 255.671 180.132 256.1 179.824C256.539 179.516 256.828 179.101 256.968 178.578H258.004C257.817 179.325 257.416 179.936 256.8 180.412C256.193 180.879 255.428 181.112 254.504 181.112C253.785 181.112 253.141 180.953 252.572 180.636C252.003 180.309 251.555 179.852 251.228 179.264C250.911 178.667 250.752 177.971 250.752 177.178C250.752 176.385 250.911 175.689 251.228 175.092C251.545 174.495 251.989 174.037 252.558 173.72C253.127 173.403 253.776 173.244 254.504 173.244C255.232 173.244 255.867 173.403 256.408 173.72C256.959 174.037 257.379 174.467 257.668 175.008C257.967 175.54 258.116 176.133 258.116 176.786ZM257.122 176.758C257.131 176.189 257.015 175.703 256.772 175.302C256.539 174.901 256.217 174.597 255.806 174.392C255.395 174.187 254.947 174.084 254.462 174.084C253.734 174.084 253.113 174.317 252.6 174.784C252.087 175.251 251.802 175.909 251.746 176.758H257.122ZM260.889 174.714C261.104 174.238 261.43 173.869 261.869 173.608C262.317 173.347 262.863 173.216 263.507 173.216V174.238H263.241C262.532 174.238 261.962 174.429 261.533 174.812C261.104 175.195 260.889 175.834 260.889 176.73V181H259.909V173.356H260.889V174.714ZM274.081 173.216C274.977 173.216 275.705 173.501 276.265 174.07C276.835 174.63 277.119 175.447 277.119 176.52V181H276.153V176.632C276.153 175.801 275.953 175.167 275.551 174.728C275.15 174.289 274.604 174.07 273.913 174.07C273.195 174.07 272.621 174.308 272.191 174.784C271.762 175.26 271.547 175.951 271.547 176.856V181H270.581V176.632C270.581 175.801 270.381 175.167 269.979 174.728C269.578 174.289 269.027 174.07 268.327 174.07C267.609 174.07 267.035 174.308 266.605 174.784C266.176 175.26 265.961 175.951 265.961 176.856V181H264.981V173.356H265.961V174.672C266.204 174.196 266.549 173.837 266.997 173.594C267.445 173.342 267.945 173.216 268.495 173.216C269.158 173.216 269.737 173.375 270.231 173.692C270.735 174.009 271.099 174.476 271.323 175.092C271.529 174.485 271.879 174.023 272.373 173.706C272.877 173.379 273.447 173.216 274.081 173.216ZM82.82 195.07C82.54 194.426 82.1107 193.922 81.532 193.558C80.9627 193.185 80.2907 192.998 79.516 192.998C78.788 192.998 78.1347 193.166 77.556 193.502C76.9773 193.838 76.52 194.319 76.184 194.944C75.848 195.56 75.68 196.279 75.68 197.1C75.68 197.921 75.848 198.645 76.184 199.27C76.52 199.895 76.9773 200.376 77.556 200.712C78.1347 201.048 78.788 201.216 79.516 201.216C80.1973 201.216 80.8087 201.071 81.35 200.782C81.9007 200.483 82.3393 200.063 82.666 199.522C83.002 198.971 83.1933 198.332 83.24 197.604H79.124V196.806H84.276V197.52C84.2293 198.379 83.996 199.158 83.576 199.858C83.156 200.549 82.5913 201.095 81.882 201.496C81.182 201.897 80.3933 202.098 79.516 202.098C78.6107 202.098 77.7893 201.888 77.052 201.468C76.3147 201.039 75.7313 200.446 75.302 199.69C74.882 198.925 74.672 198.061 74.672 197.1C74.672 196.139 74.882 195.28 75.302 194.524C75.7313 193.759 76.3147 193.166 77.052 192.746C77.7893 192.317 78.6107 192.102 79.516 192.102C80.5613 192.102 81.476 192.363 82.26 192.886C83.044 193.409 83.6133 194.137 83.968 195.07H82.82ZM89.4172 202.112C88.6985 202.112 88.0498 201.953 87.4712 201.636C86.9018 201.309 86.4492 200.852 86.1132 200.264C85.7865 199.667 85.6232 198.971 85.6232 198.178C85.6232 197.385 85.7912 196.694 86.1272 196.106C86.4632 195.509 86.9205 195.051 87.4992 194.734C88.0778 194.407 88.7265 194.244 89.4452 194.244C90.1638 194.244 90.8125 194.407 91.3912 194.734C91.9792 195.051 92.4365 195.509 92.7632 196.106C93.0992 196.694 93.2672 197.385 93.2672 198.178C93.2672 198.962 93.0992 199.653 92.7632 200.25C92.4272 200.847 91.9652 201.309 91.3772 201.636C90.7892 201.953 90.1358 202.112 89.4172 202.112ZM89.4172 201.258C89.9212 201.258 90.3878 201.146 90.8172 200.922C91.2465 200.689 91.5918 200.343 91.8532 199.886C92.1238 199.419 92.2592 198.85 92.2592 198.178C92.2592 197.506 92.1285 196.941 91.8672 196.484C91.6058 196.017 91.2605 195.672 90.8312 195.448C90.4018 195.215 89.9352 195.098 89.4312 195.098C88.9272 195.098 88.4605 195.215 88.0312 195.448C87.6018 195.672 87.2565 196.017 86.9952 196.484C86.7432 196.941 86.6172 197.506 86.6172 198.178C86.6172 198.85 86.7432 199.419 86.9952 199.886C87.2565 200.343 87.5972 200.689 88.0172 200.922C88.4465 201.146 88.9132 201.258 89.4172 201.258ZM94.6056 198.164C94.6056 197.38 94.7596 196.694 95.0676 196.106C95.3849 195.509 95.8189 195.051 96.3696 194.734C96.9296 194.407 97.5596 194.244 98.2596 194.244C98.9876 194.244 99.6129 194.412 100.136 194.748C100.668 195.084 101.05 195.513 101.284 196.036V194.356H102.264V202H101.284V200.306C101.041 200.829 100.654 201.263 100.122 201.608C99.5989 201.944 98.9736 202.112 98.2456 202.112C97.5549 202.112 96.9296 201.949 96.3696 201.622C95.8189 201.295 95.3849 200.833 95.0676 200.236C94.7596 199.639 94.6056 198.948 94.6056 198.164ZM101.284 198.178C101.284 197.562 101.158 197.021 100.906 196.554C100.654 196.087 100.308 195.728 99.8696 195.476C99.4403 195.224 98.9643 195.098 98.4416 195.098C97.9003 195.098 97.4149 195.219 96.9856 195.462C96.5563 195.705 96.2156 196.059 95.9636 196.526C95.7209 196.983 95.5996 197.529 95.5996 198.164C95.5996 198.789 95.7209 199.34 95.9636 199.816C96.2156 200.283 96.5563 200.642 96.9856 200.894C97.4149 201.137 97.9003 201.258 98.4416 201.258C98.9643 201.258 99.4403 201.132 99.8696 200.88C100.308 200.628 100.654 200.269 100.906 199.802C101.158 199.335 101.284 198.794 101.284 198.178ZM105.481 191.64V202H104.501V191.64H105.481ZM110.332 202.112C109.455 202.112 108.736 201.911 108.176 201.51C107.625 201.099 107.317 200.544 107.252 199.844H108.26C108.307 200.273 108.507 200.623 108.862 200.894C109.226 201.155 109.711 201.286 110.318 201.286C110.85 201.286 111.265 201.16 111.564 200.908C111.872 200.656 112.026 200.343 112.026 199.97C112.026 199.709 111.942 199.494 111.774 199.326C111.606 199.158 111.391 199.027 111.13 198.934C110.878 198.831 110.533 198.724 110.094 198.612C109.525 198.463 109.063 198.313 108.708 198.164C108.353 198.015 108.05 197.795 107.798 197.506C107.555 197.207 107.434 196.811 107.434 196.316C107.434 195.943 107.546 195.597 107.77 195.28C107.994 194.963 108.311 194.711 108.722 194.524C109.133 194.337 109.599 194.244 110.122 194.244C110.943 194.244 111.606 194.454 112.11 194.874C112.614 195.285 112.885 195.854 112.922 196.582H111.942C111.914 196.134 111.737 195.775 111.41 195.504C111.093 195.224 110.654 195.084 110.094 195.084C109.599 195.084 109.198 195.201 108.89 195.434C108.582 195.667 108.428 195.957 108.428 196.302C108.428 196.601 108.517 196.848 108.694 197.044C108.881 197.231 109.109 197.38 109.38 197.492C109.651 197.595 110.015 197.711 110.472 197.842C111.023 197.991 111.461 198.136 111.788 198.276C112.115 198.416 112.395 198.621 112.628 198.892C112.861 199.163 112.983 199.522 112.992 199.97C112.992 200.381 112.88 200.749 112.656 201.076C112.432 201.393 112.119 201.645 111.718 201.832C111.317 202.019 110.855 202.112 110.332 202.112ZM115.733 200.376L114.277 204.044H113.605L114.641 200.376H115.733ZM126.391 192.214V193.026H122.079V196.68H125.719V197.492H122.079V202H121.099V192.214H126.391ZM128.493 192.914C128.297 192.914 128.129 192.844 127.989 192.704C127.849 192.564 127.779 192.391 127.779 192.186C127.779 191.981 127.849 191.813 127.989 191.682C128.129 191.542 128.297 191.472 128.493 191.472C128.689 191.472 128.857 191.542 128.997 191.682C129.137 191.813 129.207 191.981 129.207 192.186C129.207 192.391 129.137 192.564 128.997 192.704C128.857 192.844 128.689 192.914 128.493 192.914ZM128.983 194.356V202H128.003V194.356H128.983ZM134.786 194.216C135.701 194.216 136.447 194.501 137.026 195.07C137.605 195.63 137.894 196.447 137.894 197.52V202H136.928V197.632C136.928 196.801 136.718 196.167 136.298 195.728C135.887 195.289 135.323 195.07 134.604 195.07C133.867 195.07 133.279 195.303 132.84 195.77C132.401 196.237 132.182 196.923 132.182 197.828V202H131.202V194.356H132.182V195.658C132.425 195.191 132.775 194.837 133.232 194.594C133.689 194.342 134.207 194.216 134.786 194.216ZM139.613 198.164C139.613 197.38 139.767 196.694 140.075 196.106C140.393 195.509 140.827 195.051 141.377 194.734C141.937 194.407 142.567 194.244 143.267 194.244C143.995 194.244 144.621 194.412 145.143 194.748C145.675 195.084 146.058 195.513 146.291 196.036V194.356H147.271V202H146.291V200.306C146.049 200.829 145.661 201.263 145.129 201.608C144.607 201.944 143.981 202.112 143.253 202.112C142.563 202.112 141.937 201.949 141.377 201.622C140.827 201.295 140.393 200.833 140.075 200.236C139.767 199.639 139.613 198.948 139.613 198.164ZM146.291 198.178C146.291 197.562 146.165 197.021 145.913 196.554C145.661 196.087 145.316 195.728 144.877 195.476C144.448 195.224 143.972 195.098 143.449 195.098C142.908 195.098 142.423 195.219 141.993 195.462C141.564 195.705 141.223 196.059 140.971 196.526C140.729 196.983 140.607 197.529 140.607 198.164C140.607 198.789 140.729 199.34 140.971 199.816C141.223 200.283 141.564 200.642 141.993 200.894C142.423 201.137 142.908 201.258 143.449 201.258C143.972 201.258 144.448 201.132 144.877 200.88C145.316 200.628 145.661 200.269 145.913 199.802C146.165 199.335 146.291 198.794 146.291 198.178ZM153.093 194.216C154.007 194.216 154.754 194.501 155.333 195.07C155.911 195.63 156.201 196.447 156.201 197.52V202H155.235V197.632C155.235 196.801 155.025 196.167 154.605 195.728C154.194 195.289 153.629 195.07 152.911 195.07C152.173 195.07 151.585 195.303 151.147 195.77C150.708 196.237 150.489 196.923 150.489 197.828V202H149.509V194.356H150.489V195.658C150.731 195.191 151.081 194.837 151.539 194.594C151.996 194.342 152.514 194.216 153.093 194.216ZM157.92 198.178C157.92 197.385 158.079 196.694 158.396 196.106C158.713 195.509 159.152 195.051 159.712 194.734C160.272 194.407 160.911 194.244 161.63 194.244C162.573 194.244 163.347 194.477 163.954 194.944C164.57 195.411 164.967 196.045 165.144 196.848H164.094C163.963 196.297 163.679 195.868 163.24 195.56C162.811 195.243 162.274 195.084 161.63 195.084C161.117 195.084 160.655 195.201 160.244 195.434C159.833 195.667 159.507 196.017 159.264 196.484C159.031 196.941 158.914 197.506 158.914 198.178C158.914 198.85 159.031 199.419 159.264 199.886C159.507 200.353 159.833 200.703 160.244 200.936C160.655 201.169 161.117 201.286 161.63 201.286C162.274 201.286 162.811 201.132 163.24 200.824C163.679 200.507 163.963 200.068 164.094 199.508H165.144C164.967 200.292 164.57 200.922 163.954 201.398C163.338 201.874 162.563 202.112 161.63 202.112C160.911 202.112 160.272 201.953 159.712 201.636C159.152 201.309 158.713 200.852 158.396 200.264C158.079 199.667 157.92 198.971 157.92 198.178ZM167.444 192.914C167.248 192.914 167.08 192.844 166.94 192.704C166.8 192.564 166.73 192.391 166.73 192.186C166.73 191.981 166.8 191.813 166.94 191.682C167.08 191.542 167.248 191.472 167.444 191.472C167.64 191.472 167.808 191.542 167.948 191.682C168.088 191.813 168.158 191.981 168.158 192.186C168.158 192.391 168.088 192.564 167.948 192.704C167.808 192.844 167.64 192.914 167.444 192.914ZM167.934 194.356V202H166.954V194.356H167.934ZM169.705 198.164C169.705 197.38 169.859 196.694 170.167 196.106C170.485 195.509 170.919 195.051 171.469 194.734C172.029 194.407 172.659 194.244 173.359 194.244C174.087 194.244 174.713 194.412 175.235 194.748C175.767 195.084 176.15 195.513 176.383 196.036V194.356H177.363V202H176.383V200.306C176.141 200.829 175.753 201.263 175.221 201.608C174.699 201.944 174.073 202.112 173.345 202.112C172.655 202.112 172.029 201.949 171.469 201.622C170.919 201.295 170.485 200.833 170.167 200.236C169.859 199.639 169.705 198.948 169.705 198.164ZM176.383 198.178C176.383 197.562 176.257 197.021 176.005 196.554C175.753 196.087 175.408 195.728 174.969 195.476C174.54 195.224 174.064 195.098 173.541 195.098C173 195.098 172.515 195.219 172.085 195.462C171.656 195.705 171.315 196.059 171.063 196.526C170.821 196.983 170.699 197.529 170.699 198.164C170.699 198.789 170.821 199.34 171.063 199.816C171.315 200.283 171.656 200.642 172.085 200.894C172.515 201.137 173 201.258 173.541 201.258C174.064 201.258 174.54 201.132 174.969 200.88C175.408 200.628 175.753 200.269 176.005 199.802C176.257 199.335 176.383 198.794 176.383 198.178ZM180.58 191.64V202H179.6V191.64H180.58ZM192.899 195.028C192.899 195.868 192.624 196.545 192.073 197.058C191.523 197.571 190.697 197.828 189.595 197.828H187.621V202H186.641V192.214H189.595C190.687 192.214 191.509 192.471 192.059 192.984C192.619 193.497 192.899 194.179 192.899 195.028ZM189.595 196.988C191.126 196.988 191.891 196.335 191.891 195.028C191.891 194.375 191.709 193.88 191.345 193.544C190.981 193.208 190.398 193.04 189.595 193.04H187.621V196.988H189.595ZM195.524 195.714C195.738 195.238 196.065 194.869 196.504 194.608C196.952 194.347 197.498 194.216 198.142 194.216V195.238H197.876C197.166 195.238 196.597 195.429 196.168 195.812C195.738 196.195 195.524 196.834 195.524 197.73V202H194.544V194.356H195.524V195.714ZM202.962 202.112C202.243 202.112 201.595 201.953 201.016 201.636C200.447 201.309 199.994 200.852 199.658 200.264C199.331 199.667 199.168 198.971 199.168 198.178C199.168 197.385 199.336 196.694 199.672 196.106C200.008 195.509 200.465 195.051 201.044 194.734C201.623 194.407 202.271 194.244 202.99 194.244C203.709 194.244 204.357 194.407 204.936 194.734C205.524 195.051 205.981 195.509 206.308 196.106C206.644 196.694 206.812 197.385 206.812 198.178C206.812 198.962 206.644 199.653 206.308 200.25C205.972 200.847 205.51 201.309 204.922 201.636C204.334 201.953 203.681 202.112 202.962 202.112ZM202.962 201.258C203.466 201.258 203.933 201.146 204.362 200.922C204.791 200.689 205.137 200.343 205.398 199.886C205.669 199.419 205.804 198.85 205.804 198.178C205.804 197.506 205.673 196.941 205.412 196.484C205.151 196.017 204.805 195.672 204.376 195.448C203.947 195.215 203.48 195.098 202.976 195.098C202.472 195.098 202.005 195.215 201.576 195.448C201.147 195.672 200.801 196.017 200.54 196.484C200.288 196.941 200.162 197.506 200.162 198.178C200.162 198.85 200.288 199.419 200.54 199.886C200.801 200.343 201.142 200.689 201.562 200.922C201.991 201.146 202.458 201.258 202.962 201.258ZM209.159 192.914C208.963 192.914 208.795 192.844 208.655 192.704C208.515 192.564 208.445 192.391 208.445 192.186C208.445 191.981 208.515 191.813 208.655 191.682C208.795 191.542 208.963 191.472 209.159 191.472C209.355 191.472 209.518 191.542 209.649 191.682C209.789 191.813 209.859 191.981 209.859 192.186C209.859 192.391 209.789 192.564 209.649 192.704C209.518 192.844 209.355 192.914 209.159 192.914ZM209.635 203.806C209.635 204.422 209.481 204.875 209.173 205.164C208.865 205.463 208.403 205.612 207.787 205.612H207.101V204.772H207.633C207.997 204.772 208.258 204.693 208.417 204.534C208.575 204.385 208.655 204.128 208.655 203.764V194.356H209.635V203.806ZM218.796 197.786C218.796 198.122 218.786 198.379 218.768 198.556H212.426C212.454 199.135 212.594 199.629 212.846 200.04C213.098 200.451 213.429 200.763 213.84 200.978C214.25 201.183 214.698 201.286 215.184 201.286C215.818 201.286 216.35 201.132 216.78 200.824C217.218 200.516 217.508 200.101 217.648 199.578H218.684C218.497 200.325 218.096 200.936 217.48 201.412C216.873 201.879 216.108 202.112 215.184 202.112C214.465 202.112 213.821 201.953 213.252 201.636C212.682 201.309 212.234 200.852 211.908 200.264C211.59 199.667 211.432 198.971 211.432 198.178C211.432 197.385 211.59 196.689 211.908 196.092C212.225 195.495 212.668 195.037 213.238 194.72C213.807 194.403 214.456 194.244 215.184 194.244C215.912 194.244 216.546 194.403 217.088 194.72C217.638 195.037 218.058 195.467 218.348 196.008C218.646 196.54 218.796 197.133 218.796 197.786ZM217.802 197.758C217.811 197.189 217.694 196.703 217.452 196.302C217.218 195.901 216.896 195.597 216.486 195.392C216.075 195.187 215.627 195.084 215.142 195.084C214.414 195.084 213.793 195.317 213.28 195.784C212.766 196.251 212.482 196.909 212.426 197.758H217.802ZM220.141 198.178C220.141 197.385 220.299 196.694 220.617 196.106C220.934 195.509 221.373 195.051 221.933 194.734C222.493 194.407 223.132 194.244 223.851 194.244C224.793 194.244 225.568 194.477 226.175 194.944C226.791 195.411 227.187 196.045 227.365 196.848H226.315C226.184 196.297 225.899 195.868 225.461 195.56C225.031 195.243 224.495 195.084 223.851 195.084C223.337 195.084 222.875 195.201 222.465 195.434C222.054 195.667 221.727 196.017 221.485 196.484C221.251 196.941 221.135 197.506 221.135 198.178C221.135 198.85 221.251 199.419 221.485 199.886C221.727 200.353 222.054 200.703 222.465 200.936C222.875 201.169 223.337 201.286 223.851 201.286C224.495 201.286 225.031 201.132 225.461 200.824C225.899 200.507 226.184 200.068 226.315 199.508H227.365C227.187 200.292 226.791 200.922 226.175 201.398C225.559 201.874 224.784 202.112 223.851 202.112C223.132 202.112 222.493 201.953 221.933 201.636C221.373 201.309 220.934 200.852 220.617 200.264C220.299 199.667 220.141 198.971 220.141 198.178ZM230.449 195.182V199.928C230.449 200.395 230.537 200.717 230.715 200.894C230.892 201.071 231.205 201.16 231.653 201.16H232.549V202H231.499C230.808 202 230.295 201.841 229.959 201.524C229.623 201.197 229.455 200.665 229.455 199.928V195.182H228.391V194.356H229.455V192.438H230.449V194.356H232.549V195.182H230.449ZM234.655 192.914C234.459 192.914 234.291 192.844 234.151 192.704C234.011 192.564 233.941 192.391 233.941 192.186C233.941 191.981 234.011 191.813 234.151 191.682C234.291 191.542 234.459 191.472 234.655 191.472C234.851 191.472 235.019 191.542 235.159 191.682C235.299 191.813 235.369 191.981 235.369 192.186C235.369 192.391 235.299 192.564 235.159 192.704C235.019 192.844 234.851 192.914 234.655 192.914ZM235.145 194.356V202H234.165V194.356H235.145ZM240.71 202.112C239.991 202.112 239.343 201.953 238.764 201.636C238.195 201.309 237.742 200.852 237.406 200.264C237.079 199.667 236.916 198.971 236.916 198.178C236.916 197.385 237.084 196.694 237.42 196.106C237.756 195.509 238.213 195.051 238.792 194.734C239.371 194.407 240.019 194.244 240.738 194.244C241.457 194.244 242.105 194.407 242.684 194.734C243.272 195.051 243.729 195.509 244.056 196.106C244.392 196.694 244.56 197.385 244.56 198.178C244.56 198.962 244.392 199.653 244.056 200.25C243.72 200.847 243.258 201.309 242.67 201.636C242.082 201.953 241.429 202.112 240.71 202.112ZM240.71 201.258C241.214 201.258 241.681 201.146 242.11 200.922C242.539 200.689 242.885 200.343 243.146 199.886C243.417 199.419 243.552 198.85 243.552 198.178C243.552 197.506 243.421 196.941 243.16 196.484C242.899 196.017 242.553 195.672 242.124 195.448C241.695 195.215 241.228 195.098 240.724 195.098C240.22 195.098 239.753 195.215 239.324 195.448C238.895 195.672 238.549 196.017 238.288 196.484C238.036 196.941 237.91 197.506 237.91 198.178C237.91 198.85 238.036 199.419 238.288 199.886C238.549 200.343 238.89 200.689 239.31 200.922C239.739 201.146 240.206 201.258 240.71 201.258ZM249.931 194.216C250.845 194.216 251.592 194.501 252.171 195.07C252.749 195.63 253.039 196.447 253.039 197.52V202H252.073V197.632C252.073 196.801 251.863 196.167 251.443 195.728C251.032 195.289 250.467 195.07 249.749 195.07C249.011 195.07 248.423 195.303 247.985 195.77C247.546 196.237 247.327 196.923 247.327 197.828V202H246.347V194.356H247.327V195.658C247.569 195.191 247.919 194.837 248.377 194.594C248.834 194.342 249.352 194.216 249.931 194.216ZM257.838 202.112C256.961 202.112 256.242 201.911 255.682 201.51C255.131 201.099 254.823 200.544 254.758 199.844H255.766C255.813 200.273 256.013 200.623 256.368 200.894C256.732 201.155 257.217 201.286 257.824 201.286C258.356 201.286 258.771 201.16 259.07 200.908C259.378 200.656 259.532 200.343 259.532 199.97C259.532 199.709 259.448 199.494 259.28 199.326C259.112 199.158 258.897 199.027 258.636 198.934C258.384 198.831 258.039 198.724 257.6 198.612C257.031 198.463 256.569 198.313 256.214 198.164C255.859 198.015 255.556 197.795 255.304 197.506C255.061 197.207 254.94 196.811 254.94 196.316C254.94 195.943 255.052 195.597 255.276 195.28C255.5 194.963 255.817 194.711 256.228 194.524C256.639 194.337 257.105 194.244 257.628 194.244C258.449 194.244 259.112 194.454 259.616 194.874C260.12 195.285 260.391 195.854 260.428 196.582H259.448C259.42 196.134 259.243 195.775 258.916 195.504C258.599 195.224 258.16 195.084 257.6 195.084C257.105 195.084 256.704 195.201 256.396 195.434C256.088 195.667 255.934 195.957 255.934 196.302C255.934 196.601 256.023 196.848 256.2 197.044C256.387 197.231 256.615 197.38 256.886 197.492C257.157 197.595 257.521 197.711 257.978 197.842C258.529 197.991 258.967 198.136 259.294 198.276C259.621 198.416 259.901 198.621 260.134 198.892C260.367 199.163 260.489 199.522 260.498 199.97C260.498 200.381 260.386 200.749 260.162 201.076C259.938 201.393 259.625 201.645 259.224 201.832C258.823 202.019 258.361 202.112 257.838 202.112Z" fill="#575455"/>
</g>
<defs>
<filter id="filter0_d_26_120" x="0" y="0" width="372" height="286" filterUnits="userSpaceOnUse" color-interpolation-filters="sRGB">
<feFlood flood-opacity="0" result="BackgroundImageFix"/>
<feColorMatrix in="SourceAlpha" type="matrix" values="0 0 0 0 0 0 0 0 0 0 0 0 0 0 0 0 0 0 127 0" result="hardAlpha"/>
<feOffset dy="4"/>
<feGaussianBlur stdDeviation="22"/>
<feComposite in2="hardAlpha" operator="out"/>
<feColorMatrix type="matrix" values="0 0 0 0 0 0 0 0 0 0 0 0 0 0 0 0 0 0 0.07 0"/>
<feBlend mode="normal" in2="BackgroundImageFix" result="effect1_dropShadow_26_120"/>
<feBlend mode="normal" in="SourceGraphic" in2="effect1_dropShadow_26_120" result="shape"/>
</filter>
<filter id="filter1_b_26_120" x="-56" y="-60" width="484" height="398" filterUnits="userSpaceOnUse" color-interpolation-filters="sRGB">
<feFlood flood-opacity="0" result="BackgroundImageFix"/>
<feGaussianBlur in="BackgroundImageFix" stdDeviation="50"/>
<feComposite in2="SourceAlpha" operator="in" result="effect1_backgroundBlur_26_120"/>
<feBlend mode="normal" in="SourceGraphic" in2="effect1_backgroundBlur_26_120" result="shape"/>
</filter>
</defs>
</svg>
