<svg width="65" height="65" viewBox="0 0 65 65" fill="none" xmlns="http://www.w3.org/2000/svg">
<path d="M63.95 42.927C62.81 40.817 60.28 39.927 58.1299 40.827L43.6 46.137C43.6 46.087 43.61 46.0371 43.61 45.9771C43.61 42.897 41.1 40.387 38.0099 40.387H29.33L27.5099 39.117C24.3799 36.927 20.7099 35.767 16.9 35.767H14.97V35.267C14.97 33.707 13.6999 32.437 12.1299 32.437H3.33997C1.77997 32.437 0.5 33.707 0.5 35.267V56.277C0.5 57.837 1.77997 59.107 3.33997 59.107H12.1299C13.6 59.107 14.79 57.987 14.94 56.567L21.27 60.427C24.16 62.187 27.47 63.087 30.78 63.087C33.66 63.087 36.54 62.4071 39.15 61.057L62 49.237C63.54 48.437 64.5 46.857 64.5 45.117C64.5 44.367 64.31 43.607 63.95 42.927ZM12.97 56.2771C12.97 56.737 12.59 57.107 12.1299 57.107H3.33997C2.87995 57.107 2.5 56.737 2.5 56.2771V35.267C2.5 34.807 2.87994 34.437 3.33997 34.437H12.1299C12.59 34.437 12.97 34.807 12.97 35.267L12.97 56.2771ZM61.08 47.457L38.23 59.2771C33.23 61.877 27.1299 61.6571 22.31 58.7171L14.97 54.237V37.767H16.9C20.3 37.767 23.5799 38.807 26.37 40.757L28.44 42.207C28.6 42.327 28.8 42.387 29.01 42.387H38.0099C39.99 42.387 41.61 43.997 41.61 45.9771C41.61 46.437 41.53 46.867 41.36 47.297C41.18 47.747 40.91 48.167 40.55 48.5271C39.87 49.207 38.97 49.577 38.0099 49.577H28.34C27.79 49.577 27.34 50.0271 27.34 50.577C27.34 51.127 27.79 51.577 28.34 51.577H38.0099C39.5 51.577 40.91 50.997 41.97 49.937C42.4 49.507 42.75 49.007 43.0099 48.4771L58.86 42.687C60.11 42.167 61.54 42.677 62.19 43.867C62.39 44.257 62.5 44.687 62.5 45.117C62.5 46.107 61.95 47.007 61.08 47.457Z" fill="#524633"/>
<path d="M12.97 35.267V56.277C12.97 56.737 12.59 57.107 12.1299 57.107H3.33997C2.87995 57.107 2.5 56.737 2.5 56.277V35.267C2.5 34.807 2.87994 34.437 3.33997 34.437H12.1299C12.59 34.437 12.97 34.807 12.97 35.267Z" fill="#FFDB6B"/>
<path d="M59.6492 13.6269C59.6492 13.6169 59.6492 13.6069 59.6492 13.6069C59.6492 13.597 59.6492 13.597 59.6492 13.597C59.5392 7.85692 55.2292 2.89695 49.6093 2.05693C46.8093 1.62694 44.0692 2.16691 41.6793 3.59697C41.4492 3.73692 41.1692 3.73692 40.9393 3.59697C38.5493 2.16692 35.8093 1.62694 33.0092 2.05693C27.3892 2.89696 23.0892 7.84697 22.9692 13.597V13.6069C22.9692 13.6269 22.9592 13.647 22.9592 13.6669L22.9692 13.6769C22.9592 13.827 22.9492 13.977 22.9592 14.1069C23.0292 17.6869 24.4792 21.327 27.2592 24.9369C29.3593 27.6669 31.9293 30.007 34.2692 31.837C36.6093 33.6769 38.7292 35.0069 39.9393 35.717C40.3592 35.967 40.8392 36.097 41.3093 36.097C41.7792 36.097 42.2493 35.967 42.6693 35.727C45.0792 34.2969 51.1492 30.4069 55.3593 24.9369C58.1292 21.3269 59.5792 17.6869 59.6592 14.1169C59.6693 13.977 59.6592 13.8269 59.6592 13.6769V13.6669C59.6592 13.657 59.6492 13.6369 59.6492 13.6269ZM33.2993 4.02696C35.6392 3.67692 37.9193 4.12694 39.9193 5.31694C40.7792 5.82695 41.8492 5.82695 42.6992 5.31694C44.6893 4.12694 46.9793 3.67693 49.3192 4.02696C53.6693 4.68693 57.0692 8.31694 57.5892 12.6769H25.0292C25.5493 8.31694 28.9492 4.68693 33.2993 4.02696ZM41.6492 33.9969C41.4393 34.1269 41.1793 34.1269 40.9592 33.9969C38.8992 32.777 34.0292 29.6669 30.1793 25.327H52.4393C48.5792 29.6769 43.7192 32.787 41.6492 33.9969ZM54.0593 23.327H28.5493C26.3892 20.4169 25.1992 17.517 24.9893 14.6769H57.6292C57.4293 17.4969 56.2292 20.407 54.0593 23.327Z" fill="#524633"/>
<path d="M57.6302 14.6768C57.4302 17.4968 56.2302 20.4068 54.0602 23.3268H28.5502C26.3902 20.4167 25.2002 17.5168 24.9902 14.6768H57.6302Z" fill="#FFDB6B"/>
</svg>
