<svg width="276" height="90" viewBox="0 0 276 90" fill="none" xmlns="http://www.w3.org/2000/svg">
<g filter="url(#filter0_b_5_4689)">
<rect width="276" height="90" rx="20" fill="#D5A53A" fill-opacity="0.5"/>
</g>
<circle cx="45" cy="45" r="25" fill="white"/>
<mask id="mask0_5_4689" style="mask-type:alpha" maskUnits="userSpaceOnUse" x="33" y="33" width="24" height="24">
<rect x="33" y="33" width="24" height="24" fill="#524633"/>
</mask>
<g mask="url(#mask0_5_4689)">
<path d="M34 50.2C34 49.6333 34.1458 49.1125 34.4375 48.6375C34.7292 48.1625 35.1167 47.8 35.6 47.55C36.6333 47.0333 37.6833 46.6458 38.75 46.3875C39.8167 46.1292 40.9 46 42 46C43.1 46 44.1833 46.1292 45.25 46.3875C46.3167 46.6458 47.3667 47.0333 48.4 47.55C48.8833 47.8 49.2708 48.1625 49.5625 48.6375C49.8542 49.1125 50 49.6333 50 50.2V51C50 51.55 49.8042 52.0208 49.4125 52.4125C49.0208 52.8042 48.55 53 48 53H36C35.45 53 34.9792 52.8042 34.5875 52.4125C34.1958 52.0208 34 51.55 34 51V50.2ZM54 53H51.45C51.6333 52.7 51.7708 52.3792 51.8625 52.0375C51.9542 51.6958 52 51.35 52 51V50C52 49.2667 51.7958 48.5625 51.3875 47.8875C50.9792 47.2125 50.4 46.6333 49.65 46.15C50.5 46.25 51.3 46.4208 52.05 46.6625C52.8 46.9042 53.5 47.2 54.15 47.55C54.75 47.8833 55.2083 48.2542 55.525 48.6625C55.8417 49.0708 56 49.5167 56 50V51C56 51.55 55.8042 52.0208 55.4125 52.4125C55.0208 52.8042 54.55 53 54 53ZM42 45C40.9 45 39.9583 44.6083 39.175 43.825C38.3917 43.0417 38 42.1 38 41C38 39.9 38.3917 38.9583 39.175 38.175C39.9583 37.3917 40.9 37 42 37C43.1 37 44.0417 37.3917 44.825 38.175C45.6083 38.9583 46 39.9 46 41C46 42.1 45.6083 43.0417 44.825 43.825C44.0417 44.6083 43.1 45 42 45ZM52 41C52 42.1 51.6083 43.0417 50.825 43.825C50.0417 44.6083 49.1 45 48 45C47.8167 45 47.5833 44.9792 47.3 44.9375C47.0167 44.8958 46.7833 44.85 46.6 44.8C47.05 44.2667 47.3958 43.675 47.6375 43.025C47.8792 42.375 48 41.7 48 41C48 40.3 47.8792 39.625 47.6375 38.975C47.3958 38.325 47.05 37.7333 46.6 37.2C46.8333 37.1167 47.0667 37.0625 47.3 37.0375C47.5333 37.0125 47.7667 37 48 37C49.1 37 50.0417 37.3917 50.825 38.175C51.6083 38.9583 52 39.9 52 41ZM36 51H48V50.2C48 50.0167 47.9542 49.85 47.8625 49.7C47.7708 49.55 47.65 49.4333 47.5 49.35C46.6 48.9 45.6917 48.5625 44.775 48.3375C43.8583 48.1125 42.9333 48 42 48C41.0667 48 40.1417 48.1125 39.225 48.3375C38.3083 48.5625 37.4 48.9 36.5 49.35C36.35 49.4333 36.2292 49.55 36.1375 49.7C36.0458 49.85 36 50.0167 36 50.2V51ZM42 43C42.55 43 43.0208 42.8042 43.4125 42.4125C43.8042 42.0208 44 41.55 44 41C44 40.45 43.8042 39.9792 43.4125 39.5875C43.0208 39.1958 42.55 39 42 39C41.45 39 40.9792 39.1958 40.5875 39.5875C40.1958 39.9792 40 40.45 40 41C40 41.55 40.1958 42.0208 40.5875 42.4125C40.9792 42.8042 41.45 43 42 43Z" fill="#524633"/>
</g>
<path d="M120.248 31.08L112.448 59H105.848L100.608 39.12L95.128 59L88.568 59.04L81.048 31.08H87.048L91.968 52.76L97.648 31.08H103.888L109.248 52.64L114.208 31.08H120.248ZM142.505 47.44C142.505 48.24 142.451 48.96 142.345 49.6H126.145C126.278 51.2 126.838 52.4533 127.825 53.36C128.811 54.2667 130.025 54.72 131.465 54.72C133.545 54.72 135.025 53.8267 135.905 52.04H141.945C141.305 54.1733 140.078 55.9333 138.265 57.32C136.451 58.68 134.225 59.36 131.585 59.36C129.451 59.36 127.531 58.8933 125.825 57.96C124.145 57 122.825 55.6533 121.865 53.92C120.931 52.1867 120.465 50.1867 120.465 47.92C120.465 45.6267 120.931 43.6133 121.865 41.88C122.798 40.1467 124.105 38.8133 125.785 37.88C127.465 36.9467 129.398 36.48 131.585 36.48C133.691 36.48 135.571 36.9333 137.225 37.84C138.905 38.7467 140.198 40.04 141.105 41.72C142.038 43.3733 142.505 45.28 142.505 47.44ZM136.705 45.84C136.678 44.4 136.158 43.2533 135.145 42.4C134.131 41.52 132.891 41.08 131.425 41.08C130.038 41.08 128.865 41.5067 127.905 42.36C126.971 43.1867 126.398 44.3467 126.185 45.84H136.705Z" fill="#524633"/>
<path d="M160.44 30.104C161.101 30.104 161.693 30.2427 162.216 30.52C162.749 30.7973 163.165 31.224 163.464 31.8C163.773 32.3653 163.928 33.0587 163.928 33.88V39H162.824V34.008C162.824 33.0587 162.584 32.3333 162.104 31.832C161.635 31.3307 160.989 31.08 160.168 31.08C159.325 31.08 158.653 31.3467 158.152 31.88C157.651 32.4133 157.4 33.1973 157.4 34.232V39H156.28V27.16H157.4V31.752C157.677 31.2293 158.083 30.824 158.616 30.536C159.16 30.248 159.768 30.104 160.44 30.104ZM165.093 34.616C165.093 33.72 165.269 32.936 165.621 32.264C165.984 31.5813 166.48 31.0587 167.109 30.696C167.749 30.3227 168.469 30.136 169.269 30.136C170.101 30.136 170.816 30.328 171.413 30.712C172.021 31.096 172.458 31.5867 172.725 32.184V30.264H173.845V39H172.725V37.064C172.448 37.6613 172.005 38.1573 171.397 38.552C170.8 38.936 170.085 39.128 169.253 39.128C168.464 39.128 167.749 38.9413 167.109 38.568C166.48 38.1947 165.984 37.6667 165.621 36.984C165.269 36.3013 165.093 35.512 165.093 34.616ZM172.725 34.632C172.725 33.928 172.581 33.3093 172.293 32.776C172.005 32.2427 171.61 31.832 171.109 31.544C170.618 31.256 170.074 31.112 169.477 31.112C168.858 31.112 168.304 31.2507 167.813 31.528C167.322 31.8053 166.933 32.2107 166.645 32.744C166.368 33.2667 166.229 33.8907 166.229 34.616C166.229 35.3307 166.368 35.96 166.645 36.504C166.933 37.0373 167.322 37.448 167.813 37.736C168.304 38.0133 168.858 38.152 169.477 38.152C170.074 38.152 170.618 38.008 171.109 37.72C171.61 37.432 172.005 37.0213 172.293 36.488C172.581 35.9547 172.725 35.336 172.725 34.632ZM178.706 37.912L181.65 30.264H182.834L179.33 39H178.066L174.562 30.264H175.762L178.706 37.912ZM191.456 34.184C191.456 34.568 191.445 34.8613 191.424 35.064H184.176C184.208 35.7253 184.368 36.2907 184.656 36.76C184.944 37.2293 185.323 37.5867 185.792 37.832C186.261 38.0667 186.773 38.184 187.328 38.184C188.053 38.184 188.661 38.008 189.152 37.656C189.653 37.304 189.984 36.8293 190.144 36.232H191.328C191.115 37.0853 190.656 37.784 189.952 38.328C189.259 38.8613 188.384 39.128 187.328 39.128C186.507 39.128 185.771 38.9467 185.12 38.584C184.469 38.2107 183.957 37.688 183.584 37.016C183.221 36.3333 183.04 35.5387 183.04 34.632C183.04 33.7253 183.221 32.9307 183.584 32.248C183.947 31.5653 184.453 31.0427 185.104 30.68C185.755 30.3173 186.496 30.136 187.328 30.136C188.16 30.136 188.885 30.3173 189.504 30.68C190.133 31.0427 190.613 31.5333 190.944 32.152C191.285 32.76 191.456 33.4373 191.456 34.184ZM190.32 34.152C190.331 33.5013 190.197 32.9467 189.92 32.488C189.653 32.0293 189.285 31.6827 188.816 31.448C188.347 31.2133 187.835 31.096 187.28 31.096C186.448 31.096 185.739 31.3627 185.152 31.896C184.565 32.4293 184.24 33.1813 184.176 34.152H190.32ZM200.456 30.104C201.117 30.104 201.709 30.2427 202.232 30.52C202.765 30.7973 203.181 31.224 203.48 31.8C203.789 32.3653 203.944 33.0587 203.944 33.88V39H202.84V34.008C202.84 33.0587 202.6 32.3333 202.12 31.832C201.65 31.3307 201.005 31.08 200.184 31.08C199.341 31.08 198.669 31.3467 198.168 31.88C197.666 32.4133 197.416 33.1973 197.416 34.232V39H196.296V27.16H197.416V31.752C197.693 31.2293 198.098 30.824 198.632 30.536C199.176 30.248 199.784 30.104 200.456 30.104ZM206.181 28.616C205.957 28.616 205.765 28.536 205.605 28.376C205.445 28.216 205.365 28.0187 205.365 27.784C205.365 27.5493 205.445 27.3573 205.605 27.208C205.765 27.048 205.957 26.968 206.181 26.968C206.405 26.968 206.597 27.048 206.757 27.208C206.917 27.3573 206.997 27.5493 206.997 27.784C206.997 28.0187 206.917 28.216 206.757 28.376C206.597 28.536 206.405 28.616 206.181 28.616ZM206.741 30.264V39H205.621V30.264H206.741ZM212.141 30.136C212.962 30.136 213.677 30.328 214.285 30.712C214.893 31.096 215.33 31.5813 215.597 32.168V30.264H216.717V39.224C216.717 40.024 216.541 40.7333 216.189 41.352C215.848 41.9707 215.368 42.4453 214.749 42.776C214.13 43.1173 213.426 43.288 212.637 43.288C211.517 43.288 210.584 43.0213 209.837 42.488C209.101 41.9547 208.642 41.2293 208.461 40.312H209.565C209.757 40.92 210.12 41.4053 210.653 41.768C211.197 42.1307 211.858 42.312 212.637 42.312C213.202 42.312 213.709 42.1893 214.157 41.944C214.605 41.7093 214.957 41.3573 215.213 40.888C215.469 40.4187 215.597 39.864 215.597 39.224V37.064C215.32 37.6613 214.877 38.1573 214.269 38.552C213.672 38.936 212.962 39.128 212.141 39.128C211.341 39.128 210.621 38.9413 209.981 38.568C209.352 38.1947 208.856 37.6667 208.493 36.984C208.141 36.3013 207.965 35.512 207.965 34.616C207.965 33.72 208.141 32.936 208.493 32.264C208.856 31.5813 209.352 31.0587 209.981 30.696C210.621 30.3227 211.341 30.136 212.141 30.136ZM215.597 34.632C215.597 33.928 215.453 33.3093 215.165 32.776C214.877 32.2427 214.482 31.832 213.981 31.544C213.49 31.256 212.946 31.112 212.349 31.112C211.73 31.112 211.176 31.2507 210.685 31.528C210.194 31.8053 209.805 32.2107 209.517 32.744C209.24 33.2667 209.101 33.8907 209.101 34.616C209.101 35.3307 209.24 35.96 209.517 36.504C209.805 37.0373 210.194 37.448 210.685 37.736C211.176 38.0133 211.73 38.152 212.349 38.152C212.946 38.152 213.49 38.008 213.981 37.72C214.482 37.432 214.877 37.0213 215.165 36.488C215.453 35.9547 215.597 35.336 215.597 34.632ZM222.634 30.104C223.295 30.104 223.887 30.2427 224.41 30.52C224.943 30.7973 225.359 31.224 225.658 31.8C225.967 32.3653 226.122 33.0587 226.122 33.88V39H225.018V34.008C225.018 33.0587 224.778 32.3333 224.298 31.832C223.828 31.3307 223.183 31.08 222.362 31.08C221.519 31.08 220.847 31.3467 220.346 31.88C219.844 32.4133 219.594 33.1973 219.594 34.232V39H218.474V27.16H219.594V31.752C219.871 31.2293 220.276 30.824 220.81 30.536C221.354 30.248 221.962 30.104 222.634 30.104ZM235.703 34.184C235.703 34.568 235.692 34.8613 235.671 35.064H228.423C228.455 35.7253 228.615 36.2907 228.903 36.76C229.191 37.2293 229.569 37.5867 230.039 37.832C230.508 38.0667 231.02 38.184 231.575 38.184C232.3 38.184 232.908 38.008 233.399 37.656C233.9 37.304 234.231 36.8293 234.391 36.232H235.575C235.361 37.0853 234.903 37.784 234.199 38.328C233.505 38.8613 232.631 39.128 231.575 39.128C230.753 39.128 230.017 38.9467 229.367 38.584C228.716 38.2107 228.204 37.688 227.831 37.016C227.468 36.3333 227.287 35.5387 227.287 34.632C227.287 33.7253 227.468 32.9307 227.831 32.248C228.193 31.5653 228.7 31.0427 229.351 30.68C230.001 30.3173 230.743 30.136 231.575 30.136C232.407 30.136 233.132 30.3173 233.751 30.68C234.38 31.0427 234.86 31.5333 235.191 32.152C235.532 32.76 235.703 33.4373 235.703 34.184ZM234.567 34.152C234.577 33.5013 234.444 32.9467 234.167 32.488C233.9 32.0293 233.532 31.6827 233.063 31.448C232.593 31.2133 232.081 31.096 231.527 31.096C230.695 31.096 229.985 31.3627 229.399 31.896C228.812 32.4293 228.487 33.1813 228.423 34.152H234.567ZM238.072 31.816C238.317 31.272 238.691 30.8507 239.192 30.552C239.704 30.2533 240.328 30.104 241.064 30.104V31.272H240.76C239.949 31.272 239.299 31.4907 238.808 31.928C238.317 32.3653 238.072 33.096 238.072 34.12V39H236.952V30.264H238.072V31.816ZM159.672 63.112C158.936 63.112 158.285 62.984 157.72 62.728C157.165 62.472 156.728 62.1147 156.408 61.656C156.088 61.1973 155.917 60.6853 155.896 60.12H157.08C157.133 60.664 157.373 61.144 157.8 61.56C158.227 61.9653 158.851 62.168 159.672 62.168C160.429 62.168 161.027 61.976 161.464 61.592C161.912 61.1973 162.136 60.7013 162.136 60.104C162.136 59.624 162.013 59.24 161.768 58.952C161.523 58.6533 161.219 58.4347 160.856 58.296C160.493 58.1467 159.992 57.9867 159.352 57.816C158.605 57.6133 158.013 57.416 157.576 57.224C157.139 57.032 156.765 56.7333 156.456 56.328C156.147 55.9227 155.992 55.3733 155.992 54.68C155.992 54.104 156.141 53.592 156.44 53.144C156.739 52.6853 157.16 52.328 157.704 52.072C158.248 51.816 158.872 51.688 159.576 51.688C160.611 51.688 161.443 51.944 162.072 52.456C162.712 52.9573 163.08 53.608 163.176 54.408H161.96C161.885 53.9493 161.635 53.544 161.208 53.192C160.781 52.8293 160.205 52.648 159.48 52.648C158.808 52.648 158.248 52.8293 157.8 53.192C157.352 53.544 157.128 54.0293 157.128 54.648C157.128 55.1173 157.251 55.496 157.496 55.784C157.741 56.072 158.045 56.2907 158.408 56.44C158.781 56.5893 159.283 56.7493 159.912 56.92C160.637 57.1227 161.224 57.3253 161.672 57.528C162.12 57.72 162.499 58.0187 162.808 58.424C163.117 58.8293 163.272 59.3733 163.272 60.056C163.272 60.5787 163.133 61.0747 162.856 61.544C162.579 62.0133 162.168 62.392 161.624 62.68C161.08 62.968 160.429 63.112 159.672 63.112ZM164.124 58.616C164.124 57.72 164.3 56.936 164.652 56.264C165.015 55.5813 165.511 55.0587 166.14 54.696C166.78 54.3227 167.5 54.136 168.3 54.136C169.132 54.136 169.847 54.328 170.444 54.712C171.052 55.096 171.49 55.5867 171.756 56.184V54.264H172.876V63H171.756V61.064C171.479 61.6613 171.036 62.1573 170.428 62.552C169.831 62.936 169.116 63.128 168.284 63.128C167.495 63.128 166.78 62.9413 166.14 62.568C165.511 62.1947 165.015 61.6667 164.652 60.984C164.3 60.3013 164.124 59.512 164.124 58.616ZM171.756 58.632C171.756 57.928 171.612 57.3093 171.324 56.776C171.036 56.2427 170.642 55.832 170.14 55.544C169.65 55.256 169.106 55.112 168.508 55.112C167.89 55.112 167.335 55.2507 166.844 55.528C166.354 55.8053 165.964 56.2107 165.676 56.744C165.399 57.2667 165.26 57.8907 165.26 58.616C165.26 59.3307 165.399 59.96 165.676 60.504C165.964 61.0373 166.354 61.448 166.844 61.736C167.335 62.0133 167.89 62.152 168.508 62.152C169.106 62.152 169.65 62.008 170.14 61.72C170.642 61.432 171.036 61.0213 171.324 60.488C171.612 59.9547 171.756 59.336 171.756 58.632ZM175.753 51.16V63H174.633V51.16H175.753ZM176.977 58.616C176.977 57.72 177.153 56.936 177.505 56.264C177.868 55.5813 178.364 55.0587 178.993 54.696C179.633 54.3227 180.353 54.136 181.153 54.136C181.985 54.136 182.7 54.328 183.297 54.712C183.905 55.096 184.343 55.5867 184.609 56.184V54.264H185.729V63H184.609V61.064C184.332 61.6613 183.889 62.1573 183.281 62.552C182.684 62.936 181.969 63.128 181.137 63.128C180.348 63.128 179.633 62.9413 178.993 62.568C178.364 62.1947 177.868 61.6667 177.505 60.984C177.153 60.3013 176.977 59.512 176.977 58.616ZM184.609 58.632C184.609 57.928 184.465 57.3093 184.177 56.776C183.889 56.2427 183.495 55.832 182.993 55.544C182.503 55.256 181.959 55.112 181.361 55.112C180.743 55.112 180.188 55.2507 179.697 55.528C179.207 55.8053 178.817 56.2107 178.529 56.744C178.252 57.2667 178.113 57.8907 178.113 58.616C178.113 59.3307 178.252 59.96 178.529 60.504C178.817 61.0373 179.207 61.448 179.697 61.736C180.188 62.0133 180.743 62.152 181.361 62.152C181.959 62.152 182.503 62.008 182.993 61.72C183.495 61.432 183.889 61.0213 184.177 60.488C184.465 59.9547 184.609 59.336 184.609 58.632ZM188.606 55.816C188.852 55.272 189.225 54.8507 189.726 54.552C190.238 54.2533 190.862 54.104 191.598 54.104V55.272H191.294C190.484 55.272 189.833 55.4907 189.342 55.928C188.852 56.3653 188.606 57.096 188.606 58.12V63H187.486V54.264H188.606V55.816ZM199.683 54.264L194.499 67.112H193.331L195.027 62.952L191.443 54.264H192.675L195.651 61.72L198.531 54.264H199.683ZM209.945 63L207.177 58.328H205.113V63H203.993V51.816H207.353C208.601 51.816 209.545 52.1147 210.185 52.712C210.835 53.3093 211.161 54.0933 211.161 55.064C211.161 55.8747 210.926 56.568 210.457 57.144C209.998 57.7093 209.315 58.0773 208.409 58.248L211.289 63H209.945ZM205.113 57.416H207.369C208.243 57.416 208.899 57.2027 209.337 56.776C209.785 56.3493 210.009 55.7787 210.009 55.064C210.009 54.328 209.795 53.7627 209.369 53.368C208.942 52.9627 208.27 52.76 207.353 52.76H205.113V57.416ZM212.071 58.616C212.071 57.72 212.247 56.936 212.599 56.264C212.962 55.5813 213.458 55.0587 214.087 54.696C214.727 54.3227 215.447 54.136 216.247 54.136C217.079 54.136 217.794 54.328 218.391 54.712C218.999 55.096 219.436 55.5867 219.703 56.184V54.264H220.823V63H219.703V61.064C219.426 61.6613 218.983 62.1573 218.375 62.552C217.778 62.936 217.063 63.128 216.231 63.128C215.442 63.128 214.727 62.9413 214.087 62.568C213.458 62.1947 212.962 61.6667 212.599 60.984C212.247 60.3013 212.071 59.512 212.071 58.616ZM219.703 58.632C219.703 57.928 219.559 57.3093 219.271 56.776C218.983 56.2427 218.588 55.832 218.087 55.544C217.596 55.256 217.052 55.112 216.455 55.112C215.836 55.112 215.282 55.2507 214.791 55.528C214.3 55.8053 213.911 56.2107 213.623 56.744C213.346 57.2667 213.207 57.8907 213.207 58.616C213.207 59.3307 213.346 59.96 213.623 60.504C213.911 61.0373 214.3 61.448 214.791 61.736C215.282 62.0133 215.836 62.152 216.455 62.152C217.052 62.152 217.596 62.008 218.087 61.72C218.588 61.432 218.983 61.0213 219.271 60.488C219.559 59.9547 219.703 59.336 219.703 58.632ZM226.676 54.104C227.721 54.104 228.575 54.4293 229.236 55.08C229.897 55.72 230.228 56.6533 230.228 57.88V63H229.124V58.008C229.124 57.0587 228.884 56.3333 228.404 55.832C227.935 55.3307 227.289 55.08 226.468 55.08C225.625 55.08 224.953 55.3467 224.452 55.88C223.951 56.4133 223.7 57.1973 223.7 58.232V63H222.58V54.264H223.7V55.752C223.977 55.2187 224.377 54.8133 224.9 54.536C225.423 54.248 226.015 54.104 226.676 54.104ZM235.569 54.136C236.39 54.136 237.105 54.328 237.713 54.712C238.321 55.096 238.758 55.5813 239.025 56.168V54.264H240.145V63.224C240.145 64.024 239.969 64.7333 239.617 65.352C239.276 65.9707 238.796 66.4453 238.177 66.776C237.558 67.1173 236.854 67.288 236.065 67.288C234.945 67.288 234.012 67.0213 233.265 66.488C232.529 65.9547 232.07 65.2293 231.889 64.312H232.993C233.185 64.92 233.548 65.4053 234.081 65.768C234.625 66.1307 235.286 66.312 236.065 66.312C236.63 66.312 237.137 66.1893 237.585 65.944C238.033 65.7093 238.385 65.3573 238.641 64.888C238.897 64.4187 239.025 63.864 239.025 63.224V61.064C238.748 61.6613 238.305 62.1573 237.697 62.552C237.1 62.936 236.39 63.128 235.569 63.128C234.769 63.128 234.049 62.9413 233.409 62.568C232.78 62.1947 232.284 61.6667 231.921 60.984C231.569 60.3013 231.393 59.512 231.393 58.616C231.393 57.72 231.569 56.936 231.921 56.264C232.284 55.5813 232.78 55.0587 233.409 54.696C234.049 54.3227 234.769 54.136 235.569 54.136ZM239.025 58.632C239.025 57.928 238.881 57.3093 238.593 56.776C238.305 56.2427 237.91 55.832 237.409 55.544C236.918 55.256 236.374 55.112 235.777 55.112C235.158 55.112 234.604 55.2507 234.113 55.528C233.622 55.8053 233.233 56.2107 232.945 56.744C232.668 57.2667 232.529 57.8907 232.529 58.616C232.529 59.3307 232.668 59.96 232.945 60.504C233.233 61.0373 233.622 61.448 234.113 61.736C234.604 62.0133 235.158 62.152 235.777 62.152C236.374 62.152 236.918 62.008 237.409 61.72C237.91 61.432 238.305 61.0213 238.593 60.488C238.881 59.9547 239.025 59.336 239.025 58.632ZM249.806 58.184C249.806 58.568 249.795 58.8613 249.774 59.064H242.526C242.558 59.7253 242.718 60.2907 243.006 60.76C243.294 61.2293 243.673 61.5867 244.142 61.832C244.611 62.0667 245.123 62.184 245.678 62.184C246.403 62.184 247.011 62.008 247.502 61.656C248.003 61.304 248.334 60.8293 248.494 60.232H249.678C249.465 61.0853 249.006 61.784 248.302 62.328C247.609 62.8613 246.734 63.128 245.678 63.128C244.857 63.128 244.121 62.9467 243.47 62.584C242.819 62.2107 242.307 61.688 241.934 61.016C241.571 60.3333 241.39 59.5387 241.39 58.632C241.39 57.7253 241.571 56.9307 241.934 56.248C242.297 55.5653 242.803 55.0427 243.454 54.68C244.105 54.3173 244.846 54.136 245.678 54.136C246.51 54.136 247.235 54.3173 247.854 54.68C248.483 55.0427 248.963 55.5333 249.294 56.152C249.635 56.76 249.806 57.4373 249.806 58.184ZM248.67 58.152C248.681 57.5013 248.547 56.9467 248.27 56.488C248.003 56.0293 247.635 55.6827 247.166 55.448C246.697 55.2133 246.185 55.096 245.63 55.096C244.798 55.096 244.089 55.3627 243.502 55.896C242.915 56.4293 242.59 57.1813 242.526 58.152H248.67Z" fill="#524633"/>
<defs>
<filter id="filter0_b_5_4689" x="-64" y="-64" width="404" height="218" filterUnits="userSpaceOnUse" color-interpolation-filters="sRGB">
<feFlood flood-opacity="0" result="BackgroundImageFix"/>
<feGaussianBlur in="BackgroundImageFix" stdDeviation="32"/>
<feComposite in2="SourceAlpha" operator="in" result="effect1_backgroundBlur_5_4689"/>
<feBlend mode="normal" in="SourceGraphic" in2="effect1_backgroundBlur_5_4689" result="shape"/>
</filter>
</defs>
</svg>
