<svg width="264" height="90" viewBox="0 0 264 90" fill="none" xmlns="http://www.w3.org/2000/svg">
<rect x="0.5" y="0.5" width="263" height="89" rx="19.5" fill="white" stroke="#EFE8DD"/>
<path d="M85.3931 35V29.84H95.0331V59H89.2731V35H85.3931ZM118.165 34.68H105.205V41.52C105.765 40.8267 106.565 40.2667 107.605 39.84C108.645 39.3867 109.752 39.16 110.925 39.16C113.059 39.16 114.805 39.6267 116.165 40.56C117.525 41.4933 118.512 42.6933 119.125 44.16C119.739 45.6 120.045 47.1467 120.045 48.8C120.045 51.8667 119.165 54.3333 117.405 56.2C115.672 58.0667 113.192 59 109.965 59C106.925 59 104.499 58.24 102.685 56.72C100.872 55.2 99.8453 53.2133 99.6053 50.76H105.045C105.285 51.8267 105.819 52.68 106.645 53.32C107.499 53.96 108.579 54.28 109.885 54.28C111.459 54.28 112.645 53.7867 113.445 52.8C114.245 51.8133 114.645 50.5067 114.645 48.88C114.645 47.2267 114.232 45.9733 113.405 45.12C112.605 44.24 111.419 43.8 109.845 43.8C108.725 43.8 107.792 44.08 107.045 44.64C106.299 45.2 105.765 45.9467 105.445 46.88H100.085V29.76H118.165V34.68ZM122.308 44.04C122.308 39.4267 123.134 35.8133 124.788 33.2C126.468 30.5867 129.241 29.28 133.108 29.28C136.974 29.28 139.734 30.5867 141.388 33.2C143.068 35.8133 143.908 39.4267 143.908 44.04C143.908 48.68 143.068 52.32 141.388 54.96C139.734 57.6 136.974 58.92 133.108 58.92C129.241 58.92 126.468 57.6 124.788 54.96C123.134 52.32 122.308 48.68 122.308 44.04ZM138.388 44.04C138.388 42.0667 138.254 40.4133 137.988 39.08C137.748 37.72 137.241 36.6133 136.468 35.76C135.721 34.9067 134.601 34.48 133.108 34.48C131.614 34.48 130.481 34.9067 129.708 35.76C128.961 36.6133 128.454 37.72 128.188 39.08C127.948 40.4133 127.828 42.0667 127.828 44.04C127.828 46.0667 127.948 47.7733 128.188 49.16C128.428 50.52 128.934 51.6267 129.708 52.48C130.481 53.3067 131.614 53.72 133.108 53.72C134.601 53.72 135.734 53.3067 136.508 52.48C137.281 51.6267 137.788 50.52 138.028 49.16C138.268 47.7733 138.388 46.0667 138.388 44.04Z" fill="#524633"/>
<path d="M168.208 26.96V38H167.088V29.184L163.152 38H162.336L158.4 29.216V38H157.28V26.96H158.464L162.736 36.528L167.008 26.96H168.208ZM177.853 33.184C177.853 33.568 177.842 33.8613 177.821 34.064H170.573C170.605 34.7253 170.765 35.2907 171.053 35.76C171.341 36.2293 171.719 36.5867 172.189 36.832C172.658 37.0667 173.17 37.184 173.725 37.184C174.45 37.184 175.058 37.008 175.549 36.656C176.05 36.304 176.381 35.8293 176.541 35.232H177.725C177.511 36.0853 177.053 36.784 176.349 37.328C175.655 37.8613 174.781 38.128 173.725 38.128C172.903 38.128 172.167 37.9467 171.517 37.584C170.866 37.2107 170.354 36.688 169.981 36.016C169.618 35.3333 169.437 34.5387 169.437 33.632C169.437 32.7253 169.618 31.9307 169.981 31.248C170.343 30.5653 170.85 30.0427 171.501 29.68C172.151 29.3173 172.893 29.136 173.725 29.136C174.557 29.136 175.282 29.3173 175.901 29.68C176.53 30.0427 177.01 30.5333 177.341 31.152C177.682 31.76 177.853 32.4373 177.853 33.184ZM176.717 33.152C176.727 32.5013 176.594 31.9467 176.317 31.488C176.05 31.0293 175.682 30.6827 175.213 30.448C174.743 30.2133 174.231 30.096 173.677 30.096C172.845 30.096 172.135 30.3627 171.549 30.896C170.962 31.4293 170.637 32.1813 170.573 33.152H176.717ZM189.502 29.104C190.526 29.104 191.358 29.4293 191.998 30.08C192.649 30.72 192.974 31.6533 192.974 32.88V38H191.87V33.008C191.87 32.0587 191.641 31.3333 191.182 30.832C190.723 30.3307 190.099 30.08 189.31 30.08C188.489 30.08 187.833 30.352 187.342 30.896C186.851 31.44 186.606 32.2293 186.606 33.264V38H185.502V33.008C185.502 32.0587 185.273 31.3333 184.814 30.832C184.355 30.3307 183.726 30.08 182.926 30.08C182.105 30.08 181.449 30.352 180.958 30.896C180.467 31.44 180.222 32.2293 180.222 33.264V38H179.102V29.264H180.222V30.768C180.499 30.224 180.894 29.8133 181.406 29.536C181.918 29.248 182.489 29.104 183.118 29.104C183.875 29.104 184.537 29.2853 185.102 29.648C185.678 30.0107 186.094 30.544 186.35 31.248C186.585 30.5547 186.985 30.0267 187.55 29.664C188.126 29.2907 188.777 29.104 189.502 29.104ZM202.565 33.184C202.565 33.568 202.555 33.8613 202.533 34.064H195.285C195.317 34.7253 195.477 35.2907 195.765 35.76C196.053 36.2293 196.432 36.5867 196.901 36.832C197.371 37.0667 197.883 37.184 198.437 37.184C199.163 37.184 199.771 37.008 200.261 36.656C200.763 36.304 201.093 35.8293 201.253 35.232H202.437C202.224 36.0853 201.765 36.784 201.061 37.328C200.368 37.8613 199.493 38.128 198.437 38.128C197.616 38.128 196.88 37.9467 196.229 37.584C195.579 37.2107 195.067 36.688 194.693 36.016C194.331 35.3333 194.149 34.5387 194.149 33.632C194.149 32.7253 194.331 31.9307 194.693 31.248C195.056 30.5653 195.563 30.0427 196.213 29.68C196.864 29.3173 197.605 29.136 198.437 29.136C199.269 29.136 199.995 29.3173 200.613 29.68C201.243 30.0427 201.723 30.5333 202.053 31.152C202.395 31.76 202.565 32.4373 202.565 33.184ZM201.429 33.152C201.44 32.5013 201.307 31.9467 201.029 31.488C200.763 31.0293 200.395 30.6827 199.925 30.448C199.456 30.2133 198.944 30.096 198.389 30.096C197.557 30.096 196.848 30.3627 196.261 30.896C195.675 31.4293 195.349 32.1813 195.285 33.152H201.429ZM204.918 31.2C205.206 30.592 205.649 30.096 206.246 29.712C206.854 29.328 207.569 29.136 208.39 29.136C209.19 29.136 209.905 29.3227 210.534 29.696C211.164 30.0587 211.654 30.5813 212.006 31.264C212.369 31.936 212.55 32.72 212.55 33.616C212.55 34.512 212.369 35.3013 212.006 35.984C211.654 36.6667 211.158 37.1947 210.518 37.568C209.889 37.9413 209.18 38.128 208.39 38.128C207.558 38.128 206.838 37.9413 206.23 37.568C205.633 37.184 205.196 36.688 204.918 36.08V38H203.814V26.16H204.918V31.2ZM211.414 33.616C211.414 32.8907 211.27 32.2667 210.982 31.744C210.705 31.2107 210.321 30.8053 209.83 30.528C209.34 30.2507 208.785 30.112 208.166 30.112C207.569 30.112 207.02 30.256 206.518 30.544C206.028 30.832 205.638 31.2427 205.35 31.776C205.062 32.3093 204.918 32.928 204.918 33.632C204.918 34.336 205.062 34.9547 205.35 35.488C205.638 36.0213 206.028 36.432 206.518 36.72C207.02 37.008 207.569 37.152 208.166 37.152C208.785 37.152 209.34 37.0133 209.83 36.736C210.321 36.448 210.705 36.0373 210.982 35.504C211.27 34.96 211.414 34.3307 211.414 33.616ZM221.715 33.184C221.715 33.568 221.705 33.8613 221.683 34.064H214.435C214.467 34.7253 214.627 35.2907 214.915 35.76C215.203 36.2293 215.582 36.5867 216.051 36.832C216.521 37.0667 217.033 37.184 217.587 37.184C218.313 37.184 218.921 37.008 219.411 36.656C219.913 36.304 220.243 35.8293 220.403 35.232H221.587C221.374 36.0853 220.915 36.784 220.211 37.328C219.518 37.8613 218.643 38.128 217.587 38.128C216.766 38.128 216.03 37.9467 215.379 37.584C214.729 37.2107 214.217 36.688 213.843 36.016C213.481 35.3333 213.299 34.5387 213.299 33.632C213.299 32.7253 213.481 31.9307 213.843 31.248C214.206 30.5653 214.713 30.0427 215.363 29.68C216.014 29.3173 216.755 29.136 217.587 29.136C218.419 29.136 219.145 29.3173 219.763 29.68C220.393 30.0427 220.873 30.5333 221.203 31.152C221.545 31.76 221.715 32.4373 221.715 33.184ZM220.579 33.152C220.59 32.5013 220.457 31.9467 220.179 31.488C219.913 31.0293 219.545 30.6827 219.075 30.448C218.606 30.2133 218.094 30.096 217.539 30.096C216.707 30.096 215.998 30.3627 215.411 30.896C214.825 31.4293 214.499 32.1813 214.435 33.152H220.579ZM224.084 30.816C224.33 30.272 224.703 29.8507 225.204 29.552C225.716 29.2533 226.34 29.104 227.076 29.104V30.272H226.772C225.962 30.272 225.311 30.4907 224.82 30.928C224.33 31.3653 224.084 32.096 224.084 33.12V38H222.964V29.264H224.084V30.816ZM230.969 38.128C229.967 38.128 229.145 37.8987 228.505 37.44C227.876 36.9707 227.524 36.336 227.449 35.536H228.601C228.655 36.0267 228.884 36.4267 229.289 36.736C229.705 37.0347 230.26 37.184 230.953 37.184C231.561 37.184 232.036 37.04 232.377 36.752C232.729 36.464 232.905 36.1067 232.905 35.68C232.905 35.3813 232.809 35.136 232.617 34.944C232.425 34.752 232.18 34.6027 231.881 34.496C231.593 34.3787 231.199 34.256 230.697 34.128C230.047 33.9573 229.519 33.7867 229.113 33.616C228.708 33.4453 228.361 33.1947 228.073 32.864C227.796 32.5227 227.657 32.0693 227.657 31.504C227.657 31.0773 227.785 30.6827 228.041 30.32C228.297 29.9573 228.66 29.6693 229.129 29.456C229.599 29.2427 230.132 29.136 230.729 29.136C231.668 29.136 232.425 29.376 233.001 29.856C233.577 30.3253 233.887 30.976 233.929 31.808H232.809C232.777 31.296 232.575 30.8853 232.201 30.576C231.839 30.256 231.337 30.096 230.697 30.096C230.132 30.096 229.673 30.2293 229.321 30.496C228.969 30.7627 228.793 31.0933 228.793 31.488C228.793 31.8293 228.895 32.112 229.097 32.336C229.311 32.5493 229.572 32.72 229.881 32.848C230.191 32.9653 230.607 33.0987 231.129 33.248C231.759 33.4187 232.26 33.584 232.633 33.744C233.007 33.904 233.327 34.1387 233.593 34.448C233.86 34.7573 233.999 35.168 234.009 35.68C234.009 36.1493 233.881 36.5707 233.625 36.944C233.369 37.3067 233.012 37.5947 232.553 37.808C232.095 38.0213 231.567 38.128 230.969 38.128ZM157.84 51.616C157.616 51.616 157.424 51.536 157.264 51.376C157.104 51.216 157.024 51.0187 157.024 50.784C157.024 50.5493 157.104 50.3573 157.264 50.208C157.424 50.048 157.616 49.968 157.84 49.968C158.064 49.968 158.256 50.048 158.416 50.208C158.576 50.3573 158.656 50.5493 158.656 50.784C158.656 51.0187 158.576 51.216 158.416 51.376C158.256 51.536 158.064 51.616 157.84 51.616ZM158.4 53.264V62H157.28V53.264H158.4ZM164.232 53.104C165.278 53.104 166.131 53.4293 166.792 54.08C167.454 54.72 167.784 55.6533 167.784 56.88V62H166.68V57.008C166.68 56.0587 166.44 55.3333 165.96 54.832C165.491 54.3307 164.846 54.08 164.024 54.08C163.182 54.08 162.51 54.3467 162.008 54.88C161.507 55.4133 161.256 56.1973 161.256 57.232V62H160.136V53.264H161.256V54.752C161.534 54.2187 161.934 53.8133 162.456 53.536C162.979 53.248 163.571 53.104 164.232 53.104ZM176.876 62.128C176.055 62.128 175.313 61.9467 174.652 61.584C174.001 61.2107 173.484 60.688 173.1 60.016C172.727 59.3333 172.54 58.5387 172.54 57.632C172.54 56.7253 172.732 55.936 173.116 55.264C173.5 54.5813 174.023 54.0587 174.684 53.696C175.345 53.3227 176.087 53.136 176.908 53.136C177.729 53.136 178.471 53.3227 179.132 53.696C179.804 54.0587 180.327 54.5813 180.7 55.264C181.084 55.936 181.276 56.7253 181.276 57.632C181.276 58.528 181.084 59.3173 180.7 60C180.316 60.6827 179.788 61.2107 179.116 61.584C178.444 61.9467 177.697 62.128 176.876 62.128ZM176.876 61.152C177.452 61.152 177.985 61.024 178.476 60.768C178.967 60.5013 179.361 60.1067 179.66 59.584C179.969 59.0507 180.124 58.4 180.124 57.632C180.124 56.864 179.975 56.2187 179.676 55.696C179.377 55.1627 178.983 54.768 178.492 54.512C178.001 54.2453 177.468 54.112 176.892 54.112C176.316 54.112 175.783 54.2453 175.292 54.512C174.801 54.768 174.407 55.1627 174.108 55.696C173.82 56.2187 173.676 56.864 173.676 57.632C173.676 58.4 173.82 59.0507 174.108 59.584C174.407 60.1067 174.796 60.5013 175.276 60.768C175.767 61.024 176.3 61.152 176.876 61.152ZM190.085 53.264V62H188.965V60.464C188.709 61.008 188.315 61.424 187.781 61.712C187.248 62 186.651 62.144 185.989 62.144C184.944 62.144 184.091 61.824 183.429 61.184C182.768 60.5333 182.437 59.5947 182.437 58.368V53.264H183.541V58.24C183.541 59.1893 183.776 59.9147 184.245 60.416C184.725 60.9173 185.376 61.168 186.197 61.168C187.04 61.168 187.712 60.9013 188.213 60.368C188.715 59.8347 188.965 59.0507 188.965 58.016V53.264H190.085ZM192.963 54.816C193.208 54.272 193.581 53.8507 194.083 53.552C194.595 53.2533 195.219 53.104 195.955 53.104V54.272H195.651C194.84 54.272 194.189 54.4907 193.699 54.928C193.208 55.3653 192.963 56.096 192.963 57.12V62H191.843V53.264H192.963V54.816ZM203.87 54.208H201.838V62H200.718V54.208H199.502V53.264H200.718V52.656C200.718 51.7067 200.958 51.008 201.438 50.56C201.929 50.112 202.718 49.888 203.806 49.888V50.848C203.081 50.848 202.569 50.9867 202.27 51.264C201.982 51.5413 201.838 52.0053 201.838 52.656V53.264H203.87V54.208ZM204.321 57.616C204.321 56.72 204.497 55.936 204.849 55.264C205.212 54.5813 205.708 54.0587 206.337 53.696C206.977 53.3227 207.697 53.136 208.497 53.136C209.329 53.136 210.044 53.328 210.641 53.712C211.249 54.096 211.686 54.5867 211.953 55.184V53.264H213.073V62H211.953V60.064C211.676 60.6613 211.233 61.1573 210.625 61.552C210.028 61.936 209.313 62.128 208.481 62.128C207.692 62.128 206.977 61.9413 206.337 61.568C205.708 61.1947 205.212 60.6667 204.849 59.984C204.497 59.3013 204.321 58.512 204.321 57.616ZM211.953 57.632C211.953 56.928 211.809 56.3093 211.521 55.776C211.233 55.2427 210.838 54.832 210.337 54.544C209.846 54.256 209.302 54.112 208.705 54.112C208.086 54.112 207.532 54.2507 207.041 54.528C206.55 54.8053 206.161 55.2107 205.873 55.744C205.596 56.2667 205.457 56.8907 205.457 57.616C205.457 58.3307 205.596 58.96 205.873 59.504C206.161 60.0373 206.55 60.448 207.041 60.736C207.532 61.0133 208.086 61.152 208.705 61.152C209.302 61.152 209.846 61.008 210.337 60.72C210.838 60.432 211.233 60.0213 211.521 59.488C211.809 58.9547 211.953 58.336 211.953 57.632ZM225.23 53.104C226.254 53.104 227.086 53.4293 227.726 54.08C228.377 54.72 228.702 55.6533 228.702 56.88V62H227.598V57.008C227.598 56.0587 227.369 55.3333 226.91 54.832C226.451 54.3307 225.827 54.08 225.038 54.08C224.217 54.08 223.561 54.352 223.07 54.896C222.579 55.44 222.334 56.2293 222.334 57.264V62H221.23V57.008C221.23 56.0587 221.001 55.3333 220.542 54.832C220.083 54.3307 219.454 54.08 218.654 54.08C217.833 54.08 217.177 54.352 216.686 54.896C216.195 55.44 215.95 56.2293 215.95 57.264V62H214.83V53.264H215.95V54.768C216.227 54.224 216.622 53.8133 217.134 53.536C217.646 53.248 218.217 53.104 218.846 53.104C219.603 53.104 220.265 53.2853 220.83 53.648C221.406 54.0107 221.822 54.544 222.078 55.248C222.313 54.5547 222.713 54.0267 223.278 53.664C223.854 53.2907 224.505 53.104 225.23 53.104ZM230.949 51.616C230.725 51.616 230.533 51.536 230.373 51.376C230.213 51.216 230.133 51.0187 230.133 50.784C230.133 50.5493 230.213 50.3573 230.373 50.208C230.533 50.048 230.725 49.968 230.949 49.968C231.173 49.968 231.365 50.048 231.525 50.208C231.685 50.3573 231.765 50.5493 231.765 50.784C231.765 51.0187 231.685 51.216 231.525 51.376C231.365 51.536 231.173 51.616 230.949 51.616ZM231.509 53.264V62H230.389V53.264H231.509ZM234.366 50.16V62H233.246V50.16H234.366ZM243.302 53.264L238.118 66.112H236.95L238.646 61.952L235.062 53.264H236.294L239.27 60.72L242.15 53.264H243.302Z" fill="#524633"/>
<circle cx="45" cy="45" r="25" fill="#524633"/>
<mask id="mask0_5_4677" style="mask-type:alpha" maskUnits="userSpaceOnUse" x="33" y="33" width="24" height="24">
<rect x="33" y="33" width="24" height="24" fill="#FFFDFA"/>
</mask>
<g mask="url(#mask0_5_4677)">
<path d="M34 50.2C34 49.6333 34.1458 49.1125 34.4375 48.6375C34.7292 48.1625 35.1167 47.8 35.6 47.55C36.6333 47.0333 37.6833 46.6458 38.75 46.3875C39.8167 46.1292 40.9 46 42 46C43.1 46 44.1833 46.1292 45.25 46.3875C46.3167 46.6458 47.3667 47.0333 48.4 47.55C48.8833 47.8 49.2708 48.1625 49.5625 48.6375C49.8542 49.1125 50 49.6333 50 50.2V51C50 51.55 49.8042 52.0208 49.4125 52.4125C49.0208 52.8042 48.55 53 48 53H36C35.45 53 34.9792 52.8042 34.5875 52.4125C34.1958 52.0208 34 51.55 34 51V50.2ZM54 53H51.45C51.6333 52.7 51.7708 52.3792 51.8625 52.0375C51.9542 51.6958 52 51.35 52 51V50C52 49.2667 51.7958 48.5625 51.3875 47.8875C50.9792 47.2125 50.4 46.6333 49.65 46.15C50.5 46.25 51.3 46.4208 52.05 46.6625C52.8 46.9042 53.5 47.2 54.15 47.55C54.75 47.8833 55.2083 48.2542 55.525 48.6625C55.8417 49.0708 56 49.5167 56 50V51C56 51.55 55.8042 52.0208 55.4125 52.4125C55.0208 52.8042 54.55 53 54 53ZM42 45C40.9 45 39.9583 44.6083 39.175 43.825C38.3917 43.0417 38 42.1 38 41C38 39.9 38.3917 38.9583 39.175 38.175C39.9583 37.3917 40.9 37 42 37C43.1 37 44.0417 37.3917 44.825 38.175C45.6083 38.9583 46 39.9 46 41C46 42.1 45.6083 43.0417 44.825 43.825C44.0417 44.6083 43.1 45 42 45ZM52 41C52 42.1 51.6083 43.0417 50.825 43.825C50.0417 44.6083 49.1 45 48 45C47.8167 45 47.5833 44.9792 47.3 44.9375C47.0167 44.8958 46.7833 44.85 46.6 44.8C47.05 44.2667 47.3958 43.675 47.6375 43.025C47.8792 42.375 48 41.7 48 41C48 40.3 47.8792 39.625 47.6375 38.975C47.3958 38.325 47.05 37.7333 46.6 37.2C46.8333 37.1167 47.0667 37.0625 47.3 37.0375C47.5333 37.0125 47.7667 37 48 37C49.1 37 50.0417 37.3917 50.825 38.175C51.6083 38.9583 52 39.9 52 41ZM36 51H48V50.2C48 50.0167 47.9542 49.85 47.8625 49.7C47.7708 49.55 47.65 49.4333 47.5 49.35C46.6 48.9 45.6917 48.5625 44.775 48.3375C43.8583 48.1125 42.9333 48 42 48C41.0667 48 40.1417 48.1125 39.225 48.3375C38.3083 48.5625 37.4 48.9 36.5 49.35C36.35 49.4333 36.2292 49.55 36.1375 49.7C36.0458 49.85 36 50.0167 36 50.2V51ZM42 43C42.55 43 43.0208 42.8042 43.4125 42.4125C43.8042 42.0208 44 41.55 44 41C44 40.45 43.8042 39.9792 43.4125 39.5875C43.0208 39.1958 42.55 39 42 39C41.45 39 40.9792 39.1958 40.5875 39.5875C40.1958 39.9792 40 40.45 40 41C40 41.55 40.1958 42.0208 40.5875 42.4125C40.9792 42.8042 41.45 43 42 43Z" fill="#FFFDFA"/>
</g>
</svg>
