<svg width="384" height="317" viewBox="0 0 384 317" fill="none" xmlns="http://www.w3.org/2000/svg">
<g filter="url(#filter0_d_5_4703)">
<rect x="50" y="50" width="284" height="217" rx="30" fill="url(#paint0_linear_5_4703)"/>
</g>
<path d="M82.2 97.52C82.3333 94.8533 83.2667 92.8 85 91.36C86.76 89.8933 89.0667 89.16 91.92 89.16C93.8667 89.16 95.5333 89.5067 96.92 90.2C98.3067 90.8667 99.3467 91.7867 100.04 92.96C100.76 94.1067 101.12 95.4133 101.12 96.88C101.12 98.56 100.68 99.9867 99.8 101.16C98.9467 102.307 97.92 103.08 96.72 103.48V103.64C98.2667 104.12 99.4667 104.973 100.32 106.2C101.2 107.427 101.64 109 101.64 110.92C101.64 112.52 101.267 113.947 100.52 115.2C99.8 116.453 98.72 117.44 97.28 118.16C95.8667 118.853 94.16 119.2 92.16 119.2C89.1467 119.2 86.6933 118.44 84.8 116.92C82.9067 115.4 81.9067 113.16 81.8 110.2H87.24C87.2933 111.507 87.7333 112.56 88.56 113.36C89.4133 114.133 90.5733 114.52 92.04 114.52C93.4 114.52 94.44 114.147 95.16 113.4C95.9067 112.627 96.28 111.64 96.28 110.44C96.28 108.84 95.7733 107.693 94.76 107C93.7467 106.307 92.1733 105.96 90.04 105.96H88.88V101.36H90.04C93.8267 101.36 95.72 100.093 95.72 97.56C95.72 96.4133 95.3733 95.52 94.68 94.88C94.0133 94.24 93.04 93.92 91.76 93.92C90.5067 93.92 89.5333 94.2667 88.84 94.96C88.1733 95.6267 87.7867 96.48 87.68 97.52H82.2ZM104.065 104.04C104.065 99.4267 104.892 95.8133 106.545 93.2C108.225 90.5867 110.999 89.28 114.865 89.28C118.732 89.28 121.492 90.5867 123.145 93.2C124.825 95.8133 125.665 99.4267 125.665 104.04C125.665 108.68 124.825 112.32 123.145 114.96C121.492 117.6 118.732 118.92 114.865 118.92C110.999 118.92 108.225 117.6 106.545 114.96C104.892 112.32 104.065 108.68 104.065 104.04ZM120.145 104.04C120.145 102.067 120.012 100.413 119.745 99.08C119.505 97.72 118.999 96.6133 118.225 95.76C117.479 94.9067 116.359 94.48 114.865 94.48C113.372 94.48 112.239 94.9067 111.465 95.76C110.719 96.6133 110.212 97.72 109.945 99.08C109.705 100.413 109.585 102.067 109.585 104.04C109.585 106.067 109.705 107.773 109.945 109.16C110.185 110.52 110.692 111.627 111.465 112.48C112.239 113.307 113.372 113.72 114.865 113.72C116.359 113.72 117.492 113.307 118.265 112.48C119.039 111.627 119.545 110.52 119.785 109.16C120.025 107.773 120.145 106.067 120.145 104.04ZM127.285 97C127.285 94.9733 127.871 93.3867 129.045 92.24C130.245 91.0933 131.778 90.52 133.645 90.52C135.511 90.52 137.031 91.0933 138.205 92.24C139.405 93.3867 140.005 94.9733 140.005 97C140.005 99.0533 139.405 100.653 138.205 101.8C137.031 102.947 135.511 103.52 133.645 103.52C131.778 103.52 130.245 102.947 129.045 101.8C127.871 100.653 127.285 99.0533 127.285 97ZM152.965 91L137.245 119H131.805L147.485 91H152.965ZM133.605 93.88C132.138 93.88 131.405 94.92 131.405 97C131.405 99.1067 132.138 100.16 133.605 100.16C134.325 100.16 134.885 99.9067 135.285 99.4C135.685 98.8667 135.885 98.0667 135.885 97C135.885 94.92 135.125 93.88 133.605 93.88ZM144.845 112.96C144.845 110.907 145.431 109.32 146.605 108.2C147.805 107.053 149.338 106.48 151.205 106.48C153.071 106.48 154.578 107.053 155.725 108.2C156.898 109.32 157.485 110.907 157.485 112.96C157.485 115.013 156.898 116.613 155.725 117.76C154.578 118.907 153.071 119.48 151.205 119.48C149.311 119.48 147.778 118.907 146.605 117.76C145.431 116.613 144.845 115.013 144.845 112.96ZM151.165 109.84C149.645 109.84 148.885 110.88 148.885 112.96C148.885 115.067 149.645 116.12 151.165 116.12C152.658 116.12 153.405 115.067 153.405 112.96C153.405 110.88 152.658 109.84 151.165 109.84Z" fill="#524633"/>
<path d="M82.4 148.728V152.904H86.64V153.832H82.4V158.072H87.12V159H81.28V147.8H87.12V148.728H82.4ZM92.6229 150.104C93.6682 150.104 94.5215 150.429 95.1829 151.08C95.8442 151.72 96.1749 152.653 96.1749 153.88V159H95.0709V154.008C95.0709 153.059 94.8309 152.333 94.3509 151.832C93.8815 151.331 93.2362 151.08 92.4149 151.08C91.5722 151.08 90.9002 151.347 90.3989 151.88C89.8975 152.413 89.6469 153.197 89.6469 154.232V159H88.5269V150.264H89.6469V151.752C89.9242 151.219 90.3242 150.813 90.8469 150.536C91.3695 150.248 91.9615 150.104 92.6229 150.104ZM98.4919 148.616C98.2679 148.616 98.0759 148.536 97.9159 148.376C97.7559 148.216 97.6759 148.019 97.6759 147.784C97.6759 147.549 97.7559 147.357 97.9159 147.208C98.0759 147.048 98.2679 146.968 98.4919 146.968C98.7159 146.968 98.9025 147.048 99.0519 147.208C99.2119 147.357 99.2919 147.549 99.2919 147.784C99.2919 148.019 99.2119 148.216 99.0519 148.376C98.9025 148.536 98.7159 148.616 98.4919 148.616ZM99.0359 161.064C99.0359 161.768 98.8599 162.285 98.5079 162.616C98.1559 162.957 97.6279 163.128 96.9239 163.128H96.1399V162.168H96.7479C97.1639 162.168 97.4625 162.077 97.6439 161.896C97.8252 161.725 97.9159 161.432 97.9159 161.016V150.264H99.0359V161.064ZM104.626 159.128C103.805 159.128 103.063 158.947 102.402 158.584C101.751 158.211 101.234 157.688 100.85 157.016C100.477 156.333 100.29 155.539 100.29 154.632C100.29 153.725 100.482 152.936 100.866 152.264C101.25 151.581 101.773 151.059 102.434 150.696C103.095 150.323 103.837 150.136 104.658 150.136C105.479 150.136 106.221 150.323 106.882 150.696C107.554 151.059 108.077 151.581 108.45 152.264C108.834 152.936 109.026 153.725 109.026 154.632C109.026 155.528 108.834 156.317 108.45 157C108.066 157.683 107.538 158.211 106.866 158.584C106.194 158.947 105.447 159.128 104.626 159.128ZM104.626 158.152C105.202 158.152 105.735 158.024 106.226 157.768C106.717 157.501 107.111 157.107 107.41 156.584C107.719 156.051 107.874 155.4 107.874 154.632C107.874 153.864 107.725 153.219 107.426 152.696C107.127 152.163 106.733 151.768 106.242 151.512C105.751 151.245 105.218 151.112 104.642 151.112C104.066 151.112 103.533 151.245 103.042 151.512C102.551 151.768 102.157 152.163 101.858 152.696C101.57 153.219 101.426 153.864 101.426 154.632C101.426 155.4 101.57 156.051 101.858 156.584C102.157 157.107 102.546 157.501 103.026 157.768C103.517 158.024 104.05 158.152 104.626 158.152ZM117.467 150.264L112.283 163.112H111.115L112.811 158.952L109.227 150.264H110.459L113.435 157.72L116.315 150.264H117.467ZM121.265 154.616C121.265 153.72 121.441 152.936 121.793 152.264C122.156 151.581 122.652 151.059 123.281 150.696C123.921 150.323 124.641 150.136 125.441 150.136C126.273 150.136 126.988 150.328 127.585 150.712C128.193 151.096 128.63 151.587 128.897 152.184V150.264H130.017V159H128.897V157.064C128.62 157.661 128.177 158.157 127.569 158.552C126.972 158.936 126.257 159.128 125.425 159.128C124.636 159.128 123.921 158.941 123.281 158.568C122.652 158.195 122.156 157.667 121.793 156.984C121.441 156.301 121.265 155.512 121.265 154.616ZM128.897 154.632C128.897 153.928 128.753 153.309 128.465 152.776C128.177 152.243 127.782 151.832 127.281 151.544C126.79 151.256 126.246 151.112 125.649 151.112C125.03 151.112 124.476 151.251 123.985 151.528C123.494 151.805 123.105 152.211 122.817 152.744C122.54 153.267 122.401 153.891 122.401 154.616C122.401 155.331 122.54 155.96 122.817 156.504C123.105 157.037 123.494 157.448 123.985 157.736C124.476 158.013 125.03 158.152 125.649 158.152C126.246 158.152 126.79 158.008 127.281 157.72C127.782 157.432 128.177 157.021 128.465 156.488C128.753 155.955 128.897 155.336 128.897 154.632ZM139.028 150.136C139.85 150.136 140.564 150.328 141.172 150.712C141.78 151.096 142.218 151.581 142.484 152.168V150.264H143.604V159.224C143.604 160.024 143.428 160.733 143.076 161.352C142.735 161.971 142.255 162.445 141.636 162.776C141.018 163.117 140.314 163.288 139.524 163.288C138.404 163.288 137.471 163.021 136.724 162.488C135.988 161.955 135.53 161.229 135.348 160.312H136.452C136.644 160.92 137.007 161.405 137.54 161.768C138.084 162.131 138.746 162.312 139.524 162.312C140.09 162.312 140.596 162.189 141.044 161.944C141.492 161.709 141.844 161.357 142.1 160.888C142.356 160.419 142.484 159.864 142.484 159.224V157.064C142.207 157.661 141.764 158.157 141.156 158.552C140.559 158.936 139.85 159.128 139.028 159.128C138.228 159.128 137.508 158.941 136.868 158.568C136.239 158.195 135.743 157.667 135.38 156.984C135.028 156.301 134.852 155.512 134.852 154.616C134.852 153.72 135.028 152.936 135.38 152.264C135.743 151.581 136.239 151.059 136.868 150.696C137.508 150.323 138.228 150.136 139.028 150.136ZM142.484 154.632C142.484 153.928 142.34 153.309 142.052 152.776C141.764 152.243 141.37 151.832 140.868 151.544C140.378 151.256 139.834 151.112 139.236 151.112C138.618 151.112 138.063 151.251 137.572 151.528C137.082 151.805 136.692 152.211 136.404 152.744C136.127 153.267 135.988 153.891 135.988 154.616C135.988 155.331 136.127 155.96 136.404 156.504C136.692 157.037 137.082 157.448 137.572 157.736C138.063 158.013 138.618 158.152 139.236 158.152C139.834 158.152 140.378 158.008 140.868 157.72C141.37 157.432 141.764 157.021 142.052 156.488C142.34 155.955 142.484 155.336 142.484 154.632ZM153.265 154.184C153.265 154.568 153.255 154.861 153.233 155.064H145.985C146.017 155.725 146.177 156.291 146.465 156.76C146.753 157.229 147.132 157.587 147.601 157.832C148.071 158.067 148.583 158.184 149.137 158.184C149.863 158.184 150.471 158.008 150.961 157.656C151.463 157.304 151.793 156.829 151.953 156.232H153.137C152.924 157.085 152.465 157.784 151.761 158.328C151.068 158.861 150.193 159.128 149.137 159.128C148.316 159.128 147.58 158.947 146.929 158.584C146.279 158.211 145.767 157.688 145.393 157.016C145.031 156.333 144.849 155.539 144.849 154.632C144.849 153.725 145.031 152.931 145.393 152.248C145.756 151.565 146.263 151.043 146.913 150.68C147.564 150.317 148.305 150.136 149.137 150.136C149.969 150.136 150.695 150.317 151.313 150.68C151.943 151.043 152.423 151.533 152.753 152.152C153.095 152.76 153.265 153.437 153.265 154.184ZM152.129 154.152C152.14 153.501 152.007 152.947 151.729 152.488C151.463 152.029 151.095 151.683 150.625 151.448C150.156 151.213 149.644 151.096 149.089 151.096C148.257 151.096 147.548 151.363 146.961 151.896C146.375 152.429 146.049 153.181 145.985 154.152H152.129ZM158.61 150.104C159.656 150.104 160.509 150.429 161.17 151.08C161.832 151.72 162.162 152.653 162.162 153.88V159H161.058V154.008C161.058 153.059 160.818 152.333 160.338 151.832C159.869 151.331 159.224 151.08 158.402 151.08C157.56 151.08 156.888 151.347 156.386 151.88C155.885 152.413 155.634 153.197 155.634 154.232V159H154.514V150.264H155.634V151.752C155.912 151.219 156.312 150.813 156.834 150.536C157.357 150.248 157.949 150.104 158.61 150.104ZM171.743 154.184C171.743 154.568 171.733 154.861 171.711 155.064H164.463C164.495 155.725 164.655 156.291 164.943 156.76C165.231 157.229 165.61 157.587 166.079 157.832C166.549 158.067 167.061 158.184 167.615 158.184C168.341 158.184 168.949 158.008 169.439 157.656C169.941 157.304 170.271 156.829 170.431 156.232H171.615C171.402 157.085 170.943 157.784 170.239 158.328C169.546 158.861 168.671 159.128 167.615 159.128C166.794 159.128 166.058 158.947 165.407 158.584C164.757 158.211 164.245 157.688 163.871 157.016C163.509 156.333 163.327 155.539 163.327 154.632C163.327 153.725 163.509 152.931 163.871 152.248C164.234 151.565 164.741 151.043 165.391 150.68C166.042 150.317 166.783 150.136 167.615 150.136C168.447 150.136 169.173 150.317 169.791 150.68C170.421 151.043 170.901 151.533 171.231 152.152C171.573 152.76 171.743 153.437 171.743 154.184ZM170.607 154.152C170.618 153.501 170.485 152.947 170.207 152.488C169.941 152.029 169.573 151.683 169.103 151.448C168.634 151.213 168.122 151.096 167.567 151.096C166.735 151.096 166.026 151.363 165.439 151.896C164.853 152.429 164.527 153.181 164.463 154.152H170.607ZM174.113 151.816C174.358 151.272 174.731 150.851 175.233 150.552C175.745 150.253 176.369 150.104 177.105 150.104V151.272H176.801C175.99 151.272 175.339 151.491 174.849 151.928C174.358 152.365 174.113 153.096 174.113 154.12V159H172.993V150.264H174.113V151.816ZM181.813 159.128C180.992 159.128 180.251 158.947 179.589 158.584C178.939 158.211 178.421 157.688 178.037 157.016C177.664 156.333 177.477 155.539 177.477 154.632C177.477 153.725 177.669 152.936 178.053 152.264C178.437 151.581 178.96 151.059 179.621 150.696C180.283 150.323 181.024 150.136 181.845 150.136C182.667 150.136 183.408 150.323 184.069 150.696C184.741 151.059 185.264 151.581 185.637 152.264C186.021 152.936 186.213 153.725 186.213 154.632C186.213 155.528 186.021 156.317 185.637 157C185.253 157.683 184.725 158.211 184.053 158.584C183.381 158.947 182.635 159.128 181.813 159.128ZM181.813 158.152C182.389 158.152 182.923 158.024 183.413 157.768C183.904 157.501 184.299 157.107 184.597 156.584C184.907 156.051 185.061 155.4 185.061 154.632C185.061 153.864 184.912 153.219 184.613 152.696C184.315 152.163 183.92 151.768 183.429 151.512C182.939 151.245 182.405 151.112 181.829 151.112C181.253 151.112 180.72 151.245 180.229 151.512C179.739 151.768 179.344 152.163 179.045 152.696C178.757 153.219 178.613 153.864 178.613 154.632C178.613 155.4 178.757 156.051 179.045 156.584C179.344 157.107 179.733 157.501 180.213 157.768C180.704 158.024 181.237 158.152 181.813 158.152ZM195.023 150.264V159H193.903V157.464C193.647 158.008 193.252 158.424 192.719 158.712C192.186 159 191.588 159.144 190.927 159.144C189.882 159.144 189.028 158.824 188.367 158.184C187.706 157.533 187.375 156.595 187.375 155.368V150.264H188.479V155.24C188.479 156.189 188.714 156.915 189.183 157.416C189.663 157.917 190.314 158.168 191.135 158.168C191.978 158.168 192.65 157.901 193.151 157.368C193.652 156.835 193.903 156.051 193.903 155.016V150.264H195.023ZM199.788 159.128C198.785 159.128 197.964 158.899 197.324 158.44C196.695 157.971 196.343 157.336 196.268 156.536H197.42C197.473 157.027 197.703 157.427 198.108 157.736C198.524 158.035 199.079 158.184 199.772 158.184C200.38 158.184 200.855 158.04 201.196 157.752C201.548 157.464 201.724 157.107 201.724 156.68C201.724 156.381 201.628 156.136 201.436 155.944C201.244 155.752 200.999 155.603 200.7 155.496C200.412 155.379 200.017 155.256 199.516 155.128C198.865 154.957 198.337 154.787 197.932 154.616C197.527 154.445 197.18 154.195 196.892 153.864C196.615 153.523 196.476 153.069 196.476 152.504C196.476 152.077 196.604 151.683 196.86 151.32C197.116 150.957 197.479 150.669 197.948 150.456C198.417 150.243 198.951 150.136 199.548 150.136C200.487 150.136 201.244 150.376 201.82 150.856C202.396 151.325 202.705 151.976 202.748 152.808H201.628C201.596 152.296 201.393 151.885 201.02 151.576C200.657 151.256 200.156 151.096 199.516 151.096C198.951 151.096 198.492 151.229 198.14 151.496C197.788 151.763 197.612 152.093 197.612 152.488C197.612 152.829 197.713 153.112 197.916 153.336C198.129 153.549 198.391 153.72 198.7 153.848C199.009 153.965 199.425 154.099 199.948 154.248C200.577 154.419 201.079 154.584 201.452 154.744C201.825 154.904 202.145 155.139 202.412 155.448C202.679 155.757 202.817 156.168 202.828 156.68C202.828 157.149 202.7 157.571 202.444 157.944C202.188 158.307 201.831 158.595 201.372 158.808C200.913 159.021 200.385 159.128 199.788 159.128ZM207.439 150.456C207.514 149.485 207.887 148.723 208.559 148.168C209.242 147.603 210.122 147.32 211.199 147.32C211.914 147.32 212.527 147.448 213.039 147.704C213.551 147.96 213.935 148.312 214.191 148.76C214.458 149.197 214.591 149.693 214.591 150.248C214.591 150.92 214.394 151.501 213.999 151.992C213.604 152.483 213.044 152.787 212.319 152.904V152.984C213.076 153.133 213.679 153.464 214.127 153.976C214.575 154.477 214.799 155.139 214.799 155.96C214.799 156.877 214.49 157.629 213.871 158.216C213.263 158.792 212.378 159.08 211.215 159.08C210.106 159.08 209.194 158.792 208.479 158.216C207.764 157.629 207.354 156.803 207.247 155.736H208.335C208.431 156.451 208.73 157.032 209.231 157.48C209.732 157.917 210.394 158.136 211.215 158.136C212.026 158.136 212.644 157.923 213.071 157.496C213.508 157.069 213.727 156.525 213.727 155.864C213.727 154.243 212.559 153.432 210.223 153.432H209.871V152.488H210.239C212.415 152.488 213.503 151.779 213.503 150.36C213.503 149.741 213.3 149.245 212.895 148.872C212.49 148.488 211.914 148.296 211.167 148.296C210.442 148.296 209.839 148.488 209.359 148.872C208.89 149.245 208.612 149.773 208.527 150.456H207.439ZM216.046 153.16C216.046 151.325 216.329 149.901 216.894 148.888C217.46 147.875 218.473 147.368 219.934 147.368C221.396 147.368 222.409 147.875 222.974 148.888C223.54 149.901 223.822 151.325 223.822 153.16C223.822 155.027 223.54 156.472 222.974 157.496C222.409 158.52 221.396 159.032 219.934 159.032C218.462 159.032 217.444 158.52 216.878 157.496C216.324 156.472 216.046 155.027 216.046 153.16ZM222.718 153.16C222.718 152.168 222.649 151.331 222.51 150.648C222.372 149.965 222.1 149.416 221.694 149C221.289 148.584 220.702 148.376 219.934 148.376C219.166 148.376 218.58 148.584 218.174 149C217.769 149.416 217.497 149.965 217.358 150.648C217.22 151.331 217.15 152.168 217.15 153.16C217.15 154.184 217.22 155.043 217.358 155.736C217.497 156.419 217.769 156.968 218.174 157.384C218.58 157.8 219.166 158.008 219.934 158.008C220.702 158.008 221.289 157.8 221.694 157.384C222.1 156.968 222.372 156.419 222.51 155.736C222.649 155.043 222.718 154.184 222.718 153.16ZM224.754 149.928C224.754 149.245 224.962 148.696 225.378 148.28C225.804 147.853 226.343 147.64 226.994 147.64C227.655 147.64 228.194 147.853 228.61 148.28C229.036 148.696 229.25 149.245 229.25 149.928C229.25 150.621 229.036 151.181 228.61 151.608C228.194 152.024 227.655 152.232 226.994 152.232C226.343 152.232 225.804 152.024 225.378 151.608C224.962 151.181 224.754 150.621 224.754 149.928ZM233.714 147.8L227.154 159H226.018L232.594 147.8H233.714ZM226.994 148.36C226.588 148.36 226.263 148.499 226.018 148.776C225.783 149.043 225.666 149.427 225.666 149.928C225.666 150.429 225.783 150.819 226.018 151.096C226.263 151.373 226.588 151.512 226.994 151.512C227.399 151.512 227.724 151.373 227.97 151.096C228.215 150.819 228.338 150.429 228.338 149.928C228.338 149.437 228.215 149.053 227.97 148.776C227.724 148.499 227.399 148.36 226.994 148.36ZM230.514 156.872C230.514 156.179 230.722 155.624 231.138 155.208C231.564 154.781 232.103 154.568 232.754 154.568C233.404 154.568 233.938 154.781 234.354 155.208C234.78 155.624 234.994 156.179 234.994 156.872C234.994 157.565 234.78 158.125 234.354 158.552C233.938 158.968 233.404 159.176 232.754 159.176C232.103 159.176 231.564 158.968 231.138 158.552C230.722 158.125 230.514 157.565 230.514 156.872ZM232.754 155.304C232.348 155.304 232.023 155.443 231.778 155.72C231.532 155.997 231.41 156.381 231.41 156.872C231.41 157.363 231.532 157.747 231.778 158.024C232.023 158.301 232.348 158.44 232.754 158.44C233.159 158.44 233.479 158.307 233.714 158.04C233.959 157.763 234.082 157.373 234.082 156.872C234.082 156.371 233.959 155.987 233.714 155.72C233.479 155.443 233.159 155.304 232.754 155.304ZM240.306 148.616C240.082 148.616 239.89 148.536 239.73 148.376C239.57 148.216 239.49 148.019 239.49 147.784C239.49 147.549 239.57 147.357 239.73 147.208C239.89 147.048 240.082 146.968 240.306 146.968C240.53 146.968 240.722 147.048 240.882 147.208C241.042 147.357 241.122 147.549 241.122 147.784C241.122 148.019 241.042 148.216 240.882 148.376C240.722 148.536 240.53 148.616 240.306 148.616ZM240.866 150.264V159H239.746V150.264H240.866ZM246.698 150.104C247.743 150.104 248.597 150.429 249.258 151.08C249.919 151.72 250.25 152.653 250.25 153.88V159H249.146V154.008C249.146 153.059 248.906 152.333 248.426 151.832C247.957 151.331 247.311 151.08 246.49 151.08C245.647 151.08 244.975 151.347 244.474 151.88C243.973 152.413 243.722 153.197 243.722 154.232V159H242.602V150.264H243.722V151.752C243.999 151.219 244.399 150.813 244.922 150.536C245.445 150.248 246.037 150.104 246.698 150.104ZM251.415 154.632C251.415 153.725 251.596 152.936 251.959 152.264C252.322 151.581 252.823 151.059 253.463 150.696C254.103 150.323 254.834 150.136 255.655 150.136C256.732 150.136 257.618 150.403 258.311 150.936C259.015 151.469 259.468 152.195 259.671 153.112H258.471C258.322 152.483 257.996 151.992 257.495 151.64C257.004 151.277 256.391 151.096 255.655 151.096C255.068 151.096 254.54 151.229 254.071 151.496C253.602 151.763 253.228 152.163 252.951 152.696C252.684 153.219 252.551 153.864 252.551 154.632C252.551 155.4 252.684 156.051 252.951 156.584C253.228 157.117 253.602 157.517 254.071 157.784C254.54 158.051 255.068 158.184 255.655 158.184C256.391 158.184 257.004 158.008 257.495 157.656C257.996 157.293 258.322 156.792 258.471 156.152H259.671C259.468 157.048 259.015 157.768 258.311 158.312C257.607 158.856 256.722 159.128 255.655 159.128C254.834 159.128 254.103 158.947 253.463 158.584C252.823 158.211 252.322 157.688 251.959 157.016C251.596 156.333 251.415 155.539 251.415 154.632ZM262.059 151.816C262.305 151.272 262.678 150.851 263.179 150.552C263.691 150.253 264.315 150.104 265.051 150.104V151.272H264.747C263.937 151.272 263.286 151.491 262.795 151.928C262.305 152.365 262.059 153.096 262.059 154.12V159H260.939V150.264H262.059V151.816ZM273.84 154.184C273.84 154.568 273.83 154.861 273.808 155.064H266.56C266.592 155.725 266.752 156.291 267.04 156.76C267.328 157.229 267.707 157.587 268.176 157.832C268.646 158.067 269.158 158.184 269.712 158.184C270.438 158.184 271.046 158.008 271.536 157.656C272.038 157.304 272.368 156.829 272.528 156.232H273.712C273.499 157.085 273.04 157.784 272.336 158.328C271.643 158.861 270.768 159.128 269.712 159.128C268.891 159.128 268.155 158.947 267.504 158.584C266.854 158.211 266.342 157.688 265.968 157.016C265.606 156.333 265.424 155.539 265.424 154.632C265.424 153.725 265.606 152.931 265.968 152.248C266.331 151.565 266.838 151.043 267.488 150.68C268.139 150.317 268.88 150.136 269.712 150.136C270.544 150.136 271.27 150.317 271.888 150.68C272.518 151.043 272.998 151.533 273.328 152.152C273.67 152.76 273.84 153.437 273.84 154.184ZM272.704 154.152C272.715 153.501 272.582 152.947 272.304 152.488C272.038 152.029 271.67 151.683 271.2 151.448C270.731 151.213 270.219 151.096 269.664 151.096C268.832 151.096 268.123 151.363 267.536 151.896C266.95 152.429 266.624 153.181 266.56 154.152H272.704ZM274.577 154.616C274.577 153.72 274.753 152.936 275.105 152.264C275.468 151.581 275.964 151.059 276.593 150.696C277.233 150.323 277.953 150.136 278.753 150.136C279.585 150.136 280.3 150.328 280.897 150.712C281.505 151.096 281.943 151.587 282.209 152.184V150.264H283.329V159H282.209V157.064C281.932 157.661 281.489 158.157 280.881 158.552C280.284 158.936 279.569 159.128 278.737 159.128C277.948 159.128 277.233 158.941 276.593 158.568C275.964 158.195 275.468 157.667 275.105 156.984C274.753 156.301 274.577 155.512 274.577 154.616ZM282.209 154.632C282.209 153.928 282.065 153.309 281.777 152.776C281.489 152.243 281.095 151.832 280.593 151.544C280.103 151.256 279.559 151.112 278.961 151.112C278.343 151.112 277.788 151.251 277.297 151.528C276.807 151.805 276.417 152.211 276.129 152.744C275.852 153.267 275.713 153.891 275.713 154.616C275.713 155.331 275.852 155.96 276.129 156.504C276.417 157.037 276.807 157.448 277.297 157.736C277.788 158.013 278.343 158.152 278.961 158.152C279.559 158.152 280.103 158.008 280.593 157.72C281.095 157.432 281.489 157.021 281.777 156.488C282.065 155.955 282.209 155.336 282.209 154.632ZM288.094 159.128C287.092 159.128 286.27 158.899 285.63 158.44C285.001 157.971 284.649 157.336 284.574 156.536H285.726C285.78 157.027 286.009 157.427 286.414 157.736C286.83 158.035 287.385 158.184 288.078 158.184C288.686 158.184 289.161 158.04 289.502 157.752C289.854 157.464 290.03 157.107 290.03 156.68C290.03 156.381 289.934 156.136 289.742 155.944C289.55 155.752 289.305 155.603 289.006 155.496C288.718 155.379 288.324 155.256 287.822 155.128C287.172 154.957 286.644 154.787 286.238 154.616C285.833 154.445 285.486 154.195 285.198 153.864C284.921 153.523 284.782 153.069 284.782 152.504C284.782 152.077 284.91 151.683 285.166 151.32C285.422 150.957 285.785 150.669 286.254 150.456C286.724 150.243 287.257 150.136 287.854 150.136C288.793 150.136 289.55 150.376 290.126 150.856C290.702 151.325 291.012 151.976 291.054 152.808H289.934C289.902 152.296 289.7 151.885 289.326 151.576C288.964 151.256 288.462 151.096 287.822 151.096C287.257 151.096 286.798 151.229 286.446 151.496C286.094 151.763 285.918 152.093 285.918 152.488C285.918 152.829 286.02 153.112 286.222 153.336C286.436 153.549 286.697 153.72 287.006 153.848C287.316 153.965 287.732 154.099 288.254 154.248C288.884 154.419 289.385 154.584 289.758 154.744C290.132 154.904 290.452 155.139 290.718 155.448C290.985 155.757 291.124 156.168 291.134 156.68C291.134 157.149 291.006 157.571 290.75 157.944C290.494 158.307 290.137 158.595 289.678 158.808C289.22 159.021 288.692 159.128 288.094 159.128ZM300.347 154.184C300.347 154.568 300.336 154.861 300.315 155.064H293.067C293.099 155.725 293.259 156.291 293.547 156.76C293.835 157.229 294.213 157.587 294.683 157.832C295.152 158.067 295.664 158.184 296.219 158.184C296.944 158.184 297.552 158.008 298.043 157.656C298.544 157.304 298.875 156.829 299.035 156.232H300.219C300.005 157.085 299.547 157.784 298.843 158.328C298.149 158.861 297.275 159.128 296.219 159.128C295.397 159.128 294.661 158.947 294.011 158.584C293.36 158.211 292.848 157.688 292.475 157.016C292.112 156.333 291.931 155.539 291.931 154.632C291.931 153.725 292.112 152.931 292.475 152.248C292.837 151.565 293.344 151.043 293.995 150.68C294.645 150.317 295.387 150.136 296.219 150.136C297.051 150.136 297.776 150.317 298.395 150.68C299.024 151.043 299.504 151.533 299.835 152.152C300.176 152.76 300.347 153.437 300.347 154.184ZM299.211 154.152C299.221 153.501 299.088 152.947 298.811 152.488C298.544 152.029 298.176 151.683 297.707 151.448C297.237 151.213 296.725 151.096 296.171 151.096C295.339 151.096 294.629 151.363 294.043 151.896C293.456 152.429 293.131 153.181 293.067 154.152H299.211ZM81.84 172.616C81.616 172.616 81.424 172.536 81.264 172.376C81.104 172.216 81.024 172.019 81.024 171.784C81.024 171.549 81.104 171.357 81.264 171.208C81.424 171.048 81.616 170.968 81.84 170.968C82.064 170.968 82.256 171.048 82.416 171.208C82.576 171.357 82.656 171.549 82.656 171.784C82.656 172.019 82.576 172.216 82.416 172.376C82.256 172.536 82.064 172.616 81.84 172.616ZM82.4 174.264V183H81.28V174.264H82.4ZM88.2323 174.104C89.2776 174.104 90.1309 174.429 90.7923 175.08C91.4536 175.72 91.7843 176.653 91.7843 177.88V183H90.6803V178.008C90.6803 177.059 90.4403 176.333 89.9603 175.832C89.4909 175.331 88.8456 175.08 88.0243 175.08C87.1816 175.08 86.5096 175.347 86.0083 175.88C85.5069 176.413 85.2563 177.197 85.2563 178.232V183H84.1363V174.264H85.2563V175.752C85.5336 175.219 85.9336 174.813 86.4563 174.536C86.9789 174.248 87.5709 174.104 88.2323 174.104ZM104.252 174.264L99.0679 187.112H97.8999L99.5959 182.952L96.0119 174.264H97.2439L100.22 181.72L103.1 174.264H104.252ZM108.795 183.128C107.973 183.128 107.232 182.947 106.571 182.584C105.92 182.211 105.403 181.688 105.019 181.016C104.645 180.333 104.459 179.539 104.459 178.632C104.459 177.725 104.651 176.936 105.035 176.264C105.419 175.581 105.941 175.059 106.603 174.696C107.264 174.323 108.005 174.136 108.827 174.136C109.648 174.136 110.389 174.323 111.051 174.696C111.723 175.059 112.245 175.581 112.619 176.264C113.003 176.936 113.195 177.725 113.195 178.632C113.195 179.528 113.003 180.317 112.619 181C112.235 181.683 111.707 182.211 111.035 182.584C110.363 182.947 109.616 183.128 108.795 183.128ZM108.795 182.152C109.371 182.152 109.904 182.024 110.395 181.768C110.885 181.501 111.28 181.107 111.579 180.584C111.888 180.051 112.043 179.4 112.043 178.632C112.043 177.864 111.893 177.219 111.595 176.696C111.296 176.163 110.901 175.768 110.411 175.512C109.92 175.245 109.387 175.112 108.811 175.112C108.235 175.112 107.701 175.245 107.211 175.512C106.72 175.768 106.325 176.163 106.027 176.696C105.739 177.219 105.595 177.864 105.595 178.632C105.595 179.4 105.739 180.051 106.027 180.584C106.325 181.107 106.715 181.501 107.195 181.768C107.685 182.024 108.219 182.152 108.795 182.152ZM122.004 174.264V183H120.884V181.464C120.628 182.008 120.234 182.424 119.7 182.712C119.167 183 118.57 183.144 117.908 183.144C116.863 183.144 116.01 182.824 115.348 182.184C114.687 181.533 114.356 180.595 114.356 179.368V174.264H115.46V179.24C115.46 180.189 115.695 180.915 116.164 181.416C116.644 181.917 117.295 182.168 118.116 182.168C118.959 182.168 119.631 181.901 120.132 181.368C120.634 180.835 120.884 180.051 120.884 179.016V174.264H122.004ZM124.881 175.816C125.127 175.272 125.5 174.851 126.001 174.552C126.513 174.253 127.137 174.104 127.873 174.104V175.272H127.569C126.759 175.272 126.108 175.491 125.617 175.928C125.127 176.365 124.881 177.096 124.881 178.12V183H123.761V174.264H124.881V175.816ZM135.357 183.128C134.354 183.128 133.533 182.899 132.893 182.44C132.263 181.971 131.911 181.336 131.837 180.536H132.989C133.042 181.027 133.271 181.427 133.677 181.736C134.093 182.035 134.647 182.184 135.341 182.184C135.949 182.184 136.423 182.04 136.765 181.752C137.117 181.464 137.293 181.107 137.293 180.68C137.293 180.381 137.197 180.136 137.005 179.944C136.813 179.752 136.567 179.603 136.269 179.496C135.981 179.379 135.586 179.256 135.085 179.128C134.434 178.957 133.906 178.787 133.501 178.616C133.095 178.445 132.749 178.195 132.461 177.864C132.183 177.523 132.045 177.069 132.045 176.504C132.045 176.077 132.173 175.683 132.429 175.32C132.685 174.957 133.047 174.669 133.517 174.456C133.986 174.243 134.519 174.136 135.117 174.136C136.055 174.136 136.813 174.376 137.389 174.856C137.965 175.325 138.274 175.976 138.317 176.808H137.197C137.165 176.296 136.962 175.885 136.589 175.576C136.226 175.256 135.725 175.096 135.085 175.096C134.519 175.096 134.061 175.229 133.709 175.496C133.357 175.763 133.181 176.093 133.181 176.488C133.181 176.829 133.282 177.112 133.485 177.336C133.698 177.549 133.959 177.72 134.269 177.848C134.578 177.965 134.994 178.099 135.517 178.248C136.146 178.419 136.647 178.584 137.021 178.744C137.394 178.904 137.714 179.139 137.981 179.448C138.247 179.757 138.386 180.168 138.397 180.68C138.397 181.149 138.269 181.571 138.013 181.944C137.757 182.307 137.399 182.595 136.941 182.808C136.482 183.021 135.954 183.128 135.357 183.128ZM139.193 178.616C139.193 177.72 139.369 176.936 139.721 176.264C140.084 175.581 140.58 175.059 141.209 174.696C141.849 174.323 142.569 174.136 143.369 174.136C144.201 174.136 144.916 174.328 145.513 174.712C146.121 175.096 146.558 175.587 146.825 176.184V174.264H147.945V183H146.825V181.064C146.548 181.661 146.105 182.157 145.497 182.552C144.9 182.936 144.185 183.128 143.353 183.128C142.564 183.128 141.849 182.941 141.209 182.568C140.58 182.195 140.084 181.667 139.721 180.984C139.369 180.301 139.193 179.512 139.193 178.616ZM146.825 178.632C146.825 177.928 146.681 177.309 146.393 176.776C146.105 176.243 145.71 175.832 145.209 175.544C144.718 175.256 144.174 175.112 143.577 175.112C142.958 175.112 142.404 175.251 141.913 175.528C141.422 175.805 141.033 176.211 140.745 176.744C140.468 177.267 140.329 177.891 140.329 178.616C140.329 179.331 140.468 179.96 140.745 180.504C141.033 181.037 141.422 181.448 141.913 181.736C142.404 182.013 142.958 182.152 143.577 182.152C144.174 182.152 144.718 182.008 145.209 181.72C145.71 181.432 146.105 181.021 146.393 180.488C146.681 179.955 146.825 179.336 146.825 178.632ZM150.822 171.16V183H149.702V171.16H150.822ZM152.046 178.616C152.046 177.72 152.222 176.936 152.574 176.264C152.937 175.581 153.433 175.059 154.062 174.696C154.702 174.323 155.422 174.136 156.222 174.136C157.054 174.136 157.769 174.328 158.366 174.712C158.974 175.096 159.411 175.587 159.678 176.184V174.264H160.798V183H159.678V181.064C159.401 181.661 158.958 182.157 158.35 182.552C157.753 182.936 157.038 183.128 156.206 183.128C155.417 183.128 154.702 182.941 154.062 182.568C153.433 182.195 152.937 181.667 152.574 180.984C152.222 180.301 152.046 179.512 152.046 178.616ZM159.678 178.632C159.678 177.928 159.534 177.309 159.246 176.776C158.958 176.243 158.563 175.832 158.062 175.544C157.571 175.256 157.027 175.112 156.43 175.112C155.811 175.112 155.257 175.251 154.766 175.528C154.275 175.805 153.886 176.211 153.598 176.744C153.321 177.267 153.182 177.891 153.182 178.616C153.182 179.331 153.321 179.96 153.598 180.504C153.886 181.037 154.275 181.448 154.766 181.736C155.257 182.013 155.811 182.152 156.43 182.152C157.027 182.152 157.571 182.008 158.062 181.72C158.563 181.432 158.958 181.021 159.246 180.488C159.534 179.955 159.678 179.336 159.678 178.632ZM163.675 175.816C163.92 175.272 164.294 174.851 164.795 174.552C165.307 174.253 165.931 174.104 166.667 174.104V175.272H166.363C165.552 175.272 164.902 175.491 164.411 175.928C163.92 176.365 163.675 177.096 163.675 178.12V183H162.555V174.264H163.675V175.816ZM174.752 174.264L169.568 187.112H168.4L170.096 182.952L166.512 174.264H167.744L170.72 181.72L173.6 174.264H174.752ZM176.495 181.144L174.831 185.336H174.063L175.247 181.144H176.495ZM182.147 175.816C182.392 175.272 182.766 174.851 183.267 174.552C183.779 174.253 184.403 174.104 185.139 174.104V175.272H184.835C184.024 175.272 183.374 175.491 182.883 175.928C182.392 176.365 182.147 177.096 182.147 178.12V183H181.027V174.264H182.147V175.816ZM193.928 178.184C193.928 178.568 193.917 178.861 193.896 179.064H186.648C186.68 179.725 186.84 180.291 187.128 180.76C187.416 181.229 187.794 181.587 188.264 181.832C188.733 182.067 189.245 182.184 189.8 182.184C190.525 182.184 191.133 182.008 191.624 181.656C192.125 181.304 192.456 180.829 192.616 180.232H193.8C193.586 181.085 193.128 181.784 192.424 182.328C191.73 182.861 190.856 183.128 189.8 183.128C188.978 183.128 188.242 182.947 187.592 182.584C186.941 182.211 186.429 181.688 186.056 181.016C185.693 180.333 185.512 179.539 185.512 178.632C185.512 177.725 185.693 176.931 186.056 176.248C186.418 175.565 186.925 175.043 187.576 174.68C188.226 174.317 188.968 174.136 189.8 174.136C190.632 174.136 191.357 174.317 191.976 174.68C192.605 175.043 193.085 175.533 193.416 176.152C193.757 176.76 193.928 177.437 193.928 178.184ZM192.792 178.152C192.802 177.501 192.669 176.947 192.392 176.488C192.125 176.029 191.757 175.683 191.288 175.448C190.818 175.213 190.306 175.096 189.752 175.096C188.92 175.096 188.21 175.363 187.624 175.896C187.037 176.429 186.712 177.181 186.648 178.152H192.792ZM194.665 178.632C194.665 177.725 194.846 176.936 195.209 176.264C195.572 175.581 196.073 175.059 196.713 174.696C197.353 174.323 198.084 174.136 198.905 174.136C199.982 174.136 200.868 174.403 201.561 174.936C202.265 175.469 202.718 176.195 202.921 177.112H201.721C201.572 176.483 201.246 175.992 200.745 175.64C200.254 175.277 199.641 175.096 198.905 175.096C198.318 175.096 197.79 175.229 197.321 175.496C196.852 175.763 196.478 176.163 196.201 176.696C195.934 177.219 195.801 177.864 195.801 178.632C195.801 179.4 195.934 180.051 196.201 180.584C196.478 181.117 196.852 181.517 197.321 181.784C197.79 182.051 198.318 182.184 198.905 182.184C199.641 182.184 200.254 182.008 200.745 181.656C201.246 181.293 201.572 180.792 201.721 180.152H202.921C202.718 181.048 202.265 181.768 201.561 182.312C200.857 182.856 199.972 183.128 198.905 183.128C198.084 183.128 197.353 182.947 196.713 182.584C196.073 182.211 195.572 181.688 195.209 181.016C194.846 180.333 194.665 179.539 194.665 178.632ZM208.013 183.128C207.192 183.128 206.451 182.947 205.789 182.584C205.139 182.211 204.621 181.688 204.237 181.016C203.864 180.333 203.677 179.539 203.677 178.632C203.677 177.725 203.869 176.936 204.253 176.264C204.637 175.581 205.16 175.059 205.821 174.696C206.483 174.323 207.224 174.136 208.045 174.136C208.867 174.136 209.608 174.323 210.269 174.696C210.941 175.059 211.464 175.581 211.837 176.264C212.221 176.936 212.413 177.725 212.413 178.632C212.413 179.528 212.221 180.317 211.837 181C211.453 181.683 210.925 182.211 210.253 182.584C209.581 182.947 208.835 183.128 208.013 183.128ZM208.013 182.152C208.589 182.152 209.123 182.024 209.613 181.768C210.104 181.501 210.499 181.107 210.797 180.584C211.107 180.051 211.261 179.4 211.261 178.632C211.261 177.864 211.112 177.219 210.813 176.696C210.515 176.163 210.12 175.768 209.629 175.512C209.139 175.245 208.605 175.112 208.029 175.112C207.453 175.112 206.92 175.245 206.429 175.512C205.939 175.768 205.544 176.163 205.245 176.696C204.957 177.219 204.813 177.864 204.813 178.632C204.813 179.4 204.957 180.051 205.245 180.584C205.544 181.107 205.933 181.501 206.413 181.768C206.904 182.024 207.437 182.152 208.013 182.152ZM217.319 174.136C218.14 174.136 218.855 174.328 219.463 174.712C220.071 175.096 220.508 175.581 220.775 176.168V174.264H221.895V183.224C221.895 184.024 221.719 184.733 221.367 185.352C221.026 185.971 220.546 186.445 219.927 186.776C219.308 187.117 218.604 187.288 217.815 187.288C216.695 187.288 215.762 187.021 215.015 186.488C214.279 185.955 213.82 185.229 213.639 184.312H214.743C214.935 184.92 215.298 185.405 215.831 185.768C216.375 186.131 217.036 186.312 217.815 186.312C218.38 186.312 218.887 186.189 219.335 185.944C219.783 185.709 220.135 185.357 220.391 184.888C220.647 184.419 220.775 183.864 220.775 183.224V181.064C220.498 181.661 220.055 182.157 219.447 182.552C218.85 182.936 218.14 183.128 217.319 183.128C216.519 183.128 215.799 182.941 215.159 182.568C214.53 182.195 214.034 181.667 213.671 180.984C213.319 180.301 213.143 179.512 213.143 178.616C213.143 177.72 213.319 176.936 213.671 176.264C214.034 175.581 214.53 175.059 215.159 174.696C215.799 174.323 216.519 174.136 217.319 174.136ZM220.775 178.632C220.775 177.928 220.631 177.309 220.343 176.776C220.055 176.243 219.66 175.832 219.159 175.544C218.668 175.256 218.124 175.112 217.527 175.112C216.908 175.112 216.354 175.251 215.863 175.528C215.372 175.805 214.983 176.211 214.695 176.744C214.418 177.267 214.279 177.891 214.279 178.616C214.279 179.331 214.418 179.96 214.695 180.504C214.983 181.037 215.372 181.448 215.863 181.736C216.354 182.013 216.908 182.152 217.527 182.152C218.124 182.152 218.668 182.008 219.159 181.72C219.66 181.432 220.055 181.021 220.343 180.488C220.631 179.955 220.775 179.336 220.775 178.632ZM227.748 174.104C228.793 174.104 229.647 174.429 230.308 175.08C230.969 175.72 231.3 176.653 231.3 177.88V183H230.196V178.008C230.196 177.059 229.956 176.333 229.476 175.832C229.007 175.331 228.361 175.08 227.54 175.08C226.697 175.08 226.025 175.347 225.524 175.88C225.023 176.413 224.772 177.197 224.772 178.232V183H223.652V174.264H224.772V175.752C225.049 175.219 225.449 174.813 225.972 174.536C226.495 174.248 227.087 174.104 227.748 174.104ZM233.537 172.616C233.313 172.616 233.121 172.536 232.961 172.376C232.801 172.216 232.721 172.019 232.721 171.784C232.721 171.549 232.801 171.357 232.961 171.208C233.121 171.048 233.313 170.968 233.537 170.968C233.761 170.968 233.953 171.048 234.113 171.208C234.273 171.357 234.353 171.549 234.353 171.784C234.353 172.019 234.273 172.216 234.113 172.376C233.953 172.536 233.761 172.616 233.537 172.616ZM234.097 174.264V183H232.977V174.264H234.097ZM236.425 182.072H241.001V183H235.145V182.072L239.641 175.192H235.225V174.264H240.921V175.192L236.425 182.072ZM242.656 172.616C242.432 172.616 242.24 172.536 242.08 172.376C241.92 172.216 241.84 172.019 241.84 171.784C241.84 171.549 241.92 171.357 242.08 171.208C242.24 171.048 242.432 170.968 242.656 170.968C242.88 170.968 243.072 171.048 243.232 171.208C243.392 171.357 243.472 171.549 243.472 171.784C243.472 172.019 243.392 172.216 243.232 172.376C243.072 172.536 242.88 172.616 242.656 172.616ZM243.216 174.264V183H242.096V174.264H243.216ZM249.048 174.104C250.093 174.104 250.947 174.429 251.608 175.08C252.269 175.72 252.6 176.653 252.6 177.88V183H251.496V178.008C251.496 177.059 251.256 176.333 250.776 175.832C250.307 175.331 249.661 175.08 248.84 175.08C247.997 175.08 247.325 175.347 246.824 175.88C246.323 176.413 246.072 177.197 246.072 178.232V183H244.952V174.264H246.072V175.752C246.349 175.219 246.749 174.813 247.272 174.536C247.795 174.248 248.387 174.104 249.048 174.104ZM257.941 174.136C258.762 174.136 259.477 174.328 260.085 174.712C260.693 175.096 261.13 175.581 261.397 176.168V174.264H262.517V183.224C262.517 184.024 262.341 184.733 261.989 185.352C261.648 185.971 261.168 186.445 260.549 186.776C259.93 187.117 259.226 187.288 258.437 187.288C257.317 187.288 256.384 187.021 255.637 186.488C254.901 185.955 254.442 185.229 254.261 184.312H255.365C255.557 184.92 255.92 185.405 256.453 185.768C256.997 186.131 257.658 186.312 258.437 186.312C259.002 186.312 259.509 186.189 259.957 185.944C260.405 185.709 260.757 185.357 261.013 184.888C261.269 184.419 261.397 183.864 261.397 183.224V181.064C261.12 181.661 260.677 182.157 260.069 182.552C259.472 182.936 258.762 183.128 257.941 183.128C257.141 183.128 256.421 182.941 255.781 182.568C255.152 182.195 254.656 181.667 254.293 180.984C253.941 180.301 253.765 179.512 253.765 178.616C253.765 177.72 253.941 176.936 254.293 176.264C254.656 175.581 255.152 175.059 255.781 174.696C256.421 174.323 257.141 174.136 257.941 174.136ZM261.397 178.632C261.397 177.928 261.253 177.309 260.965 176.776C260.677 176.243 260.282 175.832 259.781 175.544C259.29 175.256 258.746 175.112 258.149 175.112C257.53 175.112 256.976 175.251 256.485 175.528C255.994 175.805 255.605 176.211 255.317 176.744C255.04 177.267 254.901 177.891 254.901 178.616C254.901 179.331 255.04 179.96 255.317 180.504C255.605 181.037 255.994 181.448 256.485 181.736C256.976 182.013 257.53 182.152 258.149 182.152C258.746 182.152 259.29 182.008 259.781 181.72C260.282 181.432 260.677 181.021 260.965 180.488C261.253 179.955 261.397 179.336 261.397 178.632ZM275.064 174.264L269.88 187.112H268.712L270.408 182.952L266.824 174.264H268.056L271.032 181.72L273.912 174.264H275.064ZM279.607 183.128C278.786 183.128 278.044 182.947 277.383 182.584C276.732 182.211 276.215 181.688 275.831 181.016C275.458 180.333 275.271 179.539 275.271 178.632C275.271 177.725 275.463 176.936 275.847 176.264C276.231 175.581 276.754 175.059 277.415 174.696C278.076 174.323 278.818 174.136 279.639 174.136C280.46 174.136 281.202 174.323 281.863 174.696C282.535 175.059 283.058 175.581 283.431 176.264C283.815 176.936 284.007 177.725 284.007 178.632C284.007 179.528 283.815 180.317 283.431 181C283.047 181.683 282.519 182.211 281.847 182.584C281.175 182.947 280.428 183.128 279.607 183.128ZM279.607 182.152C280.183 182.152 280.716 182.024 281.207 181.768C281.698 181.501 282.092 181.107 282.391 180.584C282.7 180.051 282.855 179.4 282.855 178.632C282.855 177.864 282.706 177.219 282.407 176.696C282.108 176.163 281.714 175.768 281.223 175.512C280.732 175.245 280.199 175.112 279.623 175.112C279.047 175.112 278.514 175.245 278.023 175.512C277.532 175.768 277.138 176.163 276.839 176.696C276.551 177.219 276.407 177.864 276.407 178.632C276.407 179.4 276.551 180.051 276.839 180.584C277.138 181.107 277.527 181.501 278.007 181.768C278.498 182.024 279.031 182.152 279.607 182.152ZM292.817 174.264V183H291.697V181.464C291.441 182.008 291.046 182.424 290.513 182.712C289.979 183 289.382 183.144 288.721 183.144C287.675 183.144 286.822 182.824 286.161 182.184C285.499 181.533 285.169 180.595 285.169 179.368V174.264H286.273V179.24C286.273 180.189 286.507 180.915 286.977 181.416C287.457 181.917 288.107 182.168 288.929 182.168C289.771 182.168 290.443 181.901 290.945 181.368C291.446 180.835 291.697 180.051 291.697 179.016V174.264H292.817ZM295.694 175.816C295.939 175.272 296.312 174.851 296.814 174.552C297.326 174.253 297.95 174.104 298.686 174.104V175.272H298.382C297.571 175.272 296.92 175.491 296.43 175.928C295.939 176.365 295.694 177.096 295.694 178.12V183H294.574V174.264H295.694V175.816ZM84.384 205.912L87.328 198.264H88.512L85.008 207H83.744L80.24 198.264H81.44L84.384 205.912ZM88.718 202.616C88.718 201.72 88.894 200.936 89.246 200.264C89.6087 199.581 90.1047 199.059 90.734 198.696C91.374 198.323 92.094 198.136 92.894 198.136C93.726 198.136 94.4407 198.328 95.038 198.712C95.646 199.096 96.0833 199.587 96.35 200.184V198.264H97.47V207H96.35V205.064C96.0727 205.661 95.63 206.157 95.022 206.552C94.4247 206.936 93.71 207.128 92.878 207.128C92.0887 207.128 91.374 206.941 90.734 206.568C90.1047 206.195 89.6087 205.667 89.246 204.984C88.894 204.301 88.718 203.512 88.718 202.616ZM96.35 202.632C96.35 201.928 96.206 201.309 95.918 200.776C95.63 200.243 95.2353 199.832 94.734 199.544C94.2433 199.256 93.6993 199.112 93.102 199.112C92.4833 199.112 91.9287 199.251 91.438 199.528C90.9473 199.805 90.558 200.211 90.27 200.744C89.9927 201.267 89.854 201.891 89.854 202.616C89.854 203.331 89.9927 203.96 90.27 204.504C90.558 205.037 90.9473 205.448 91.438 205.736C91.9287 206.013 92.4833 206.152 93.102 206.152C93.6993 206.152 94.2433 206.008 94.734 205.72C95.2353 205.432 95.63 205.021 95.918 204.488C96.206 203.955 96.35 203.336 96.35 202.632ZM100.347 195.16V207H99.2269V195.16H100.347ZM109.651 198.264V207H108.531V205.464C108.275 206.008 107.88 206.424 107.347 206.712C106.814 207 106.216 207.144 105.555 207.144C104.51 207.144 103.656 206.824 102.995 206.184C102.334 205.533 102.003 204.595 102.003 203.368V198.264H103.107V203.24C103.107 204.189 103.342 204.915 103.811 205.416C104.291 205.917 104.942 206.168 105.763 206.168C106.606 206.168 107.278 205.901 107.779 205.368C108.28 204.835 108.531 204.051 108.531 203.016V198.264H109.651ZM110.896 202.616C110.896 201.72 111.072 200.936 111.424 200.264C111.787 199.581 112.283 199.059 112.912 198.696C113.552 198.323 114.272 198.136 115.072 198.136C115.904 198.136 116.619 198.328 117.216 198.712C117.824 199.096 118.261 199.587 118.528 200.184V198.264H119.648V207H118.528V205.064C118.251 205.661 117.808 206.157 117.2 206.552C116.603 206.936 115.888 207.128 115.056 207.128C114.267 207.128 113.552 206.941 112.912 206.568C112.283 206.195 111.787 205.667 111.424 204.984C111.072 204.301 110.896 203.512 110.896 202.616ZM118.528 202.632C118.528 201.928 118.384 201.309 118.096 200.776C117.808 200.243 117.413 199.832 116.912 199.544C116.421 199.256 115.877 199.112 115.28 199.112C114.661 199.112 114.107 199.251 113.616 199.528C113.125 199.805 112.736 200.211 112.448 200.744C112.171 201.267 112.032 201.891 112.032 202.616C112.032 203.331 112.171 203.96 112.448 204.504C112.736 205.037 113.125 205.448 113.616 205.736C114.107 206.013 114.661 206.152 115.28 206.152C115.877 206.152 116.421 206.008 116.912 205.72C117.413 205.432 117.808 205.021 118.096 204.488C118.384 203.955 118.528 203.336 118.528 202.632ZM122.509 200.2C122.797 199.592 123.24 199.096 123.837 198.712C124.445 198.328 125.16 198.136 125.981 198.136C126.781 198.136 127.496 198.323 128.125 198.696C128.754 199.059 129.245 199.581 129.597 200.264C129.96 200.936 130.141 201.72 130.141 202.616C130.141 203.512 129.96 204.301 129.597 204.984C129.245 205.667 128.749 206.195 128.109 206.568C127.48 206.941 126.77 207.128 125.981 207.128C125.149 207.128 124.429 206.941 123.821 206.568C123.224 206.184 122.786 205.688 122.509 205.08V207H121.405V195.16H122.509V200.2ZM129.005 202.616C129.005 201.891 128.861 201.267 128.573 200.744C128.296 200.211 127.912 199.805 127.421 199.528C126.93 199.251 126.376 199.112 125.757 199.112C125.16 199.112 124.61 199.256 124.109 199.544C123.618 199.832 123.229 200.243 122.941 200.776C122.653 201.309 122.509 201.928 122.509 202.632C122.509 203.336 122.653 203.955 122.941 204.488C123.229 205.021 123.618 205.432 124.109 205.72C124.61 206.008 125.16 206.152 125.757 206.152C126.376 206.152 126.93 206.013 127.421 205.736C127.912 205.448 128.296 205.037 128.573 204.504C128.861 203.96 129.005 203.331 129.005 202.616ZM132.522 195.16V207H131.402V195.16H132.522ZM142.162 202.184C142.162 202.568 142.151 202.861 142.13 203.064H134.882C134.914 203.725 135.074 204.291 135.362 204.76C135.65 205.229 136.029 205.587 136.498 205.832C136.967 206.067 137.479 206.184 138.034 206.184C138.759 206.184 139.367 206.008 139.858 205.656C140.359 205.304 140.69 204.829 140.85 204.232H142.034C141.821 205.085 141.362 205.784 140.658 206.328C139.965 206.861 139.09 207.128 138.034 207.128C137.213 207.128 136.477 206.947 135.826 206.584C135.175 206.211 134.663 205.688 134.29 205.016C133.927 204.333 133.746 203.539 133.746 202.632C133.746 201.725 133.927 200.931 134.29 200.248C134.653 199.565 135.159 199.043 135.81 198.68C136.461 198.317 137.202 198.136 138.034 198.136C138.866 198.136 139.591 198.317 140.21 198.68C140.839 199.043 141.319 199.533 141.65 200.152C141.991 200.76 142.162 201.437 142.162 202.184ZM141.026 202.152C141.037 201.501 140.903 200.947 140.626 200.488C140.359 200.029 139.991 199.683 139.522 199.448C139.053 199.213 138.541 199.096 137.986 199.096C137.154 199.096 136.445 199.363 135.858 199.896C135.271 200.429 134.946 201.181 134.882 202.152H141.026ZM146.49 202.632C146.49 201.725 146.671 200.936 147.034 200.264C147.397 199.581 147.898 199.059 148.538 198.696C149.178 198.323 149.909 198.136 150.73 198.136C151.807 198.136 152.693 198.403 153.386 198.936C154.09 199.469 154.543 200.195 154.746 201.112H153.546C153.397 200.483 153.071 199.992 152.57 199.64C152.079 199.277 151.466 199.096 150.73 199.096C150.143 199.096 149.615 199.229 149.146 199.496C148.677 199.763 148.303 200.163 148.026 200.696C147.759 201.219 147.626 201.864 147.626 202.632C147.626 203.4 147.759 204.051 148.026 204.584C148.303 205.117 148.677 205.517 149.146 205.784C149.615 206.051 150.143 206.184 150.73 206.184C151.466 206.184 152.079 206.008 152.57 205.656C153.071 205.293 153.397 204.792 153.546 204.152H154.746C154.543 205.048 154.09 205.768 153.386 206.312C152.682 206.856 151.797 207.128 150.73 207.128C149.909 207.128 149.178 206.947 148.538 206.584C147.898 206.211 147.397 205.688 147.034 205.016C146.671 204.333 146.49 203.539 146.49 202.632ZM159.838 207.128C159.017 207.128 158.276 206.947 157.614 206.584C156.964 206.211 156.446 205.688 156.062 205.016C155.689 204.333 155.502 203.539 155.502 202.632C155.502 201.725 155.694 200.936 156.078 200.264C156.462 199.581 156.985 199.059 157.646 198.696C158.308 198.323 159.049 198.136 159.87 198.136C160.692 198.136 161.433 198.323 162.094 198.696C162.766 199.059 163.289 199.581 163.662 200.264C164.046 200.936 164.238 201.725 164.238 202.632C164.238 203.528 164.046 204.317 163.662 205C163.278 205.683 162.75 206.211 162.078 206.584C161.406 206.947 160.66 207.128 159.838 207.128ZM159.838 206.152C160.414 206.152 160.948 206.024 161.438 205.768C161.929 205.501 162.324 205.107 162.622 204.584C162.932 204.051 163.086 203.4 163.086 202.632C163.086 201.864 162.937 201.219 162.638 200.696C162.34 200.163 161.945 199.768 161.454 199.512C160.964 199.245 160.43 199.112 159.854 199.112C159.278 199.112 158.745 199.245 158.254 199.512C157.764 199.768 157.369 200.163 157.07 200.696C156.782 201.219 156.638 201.864 156.638 202.632C156.638 203.4 156.782 204.051 157.07 204.584C157.369 205.107 157.758 205.501 158.238 205.768C158.729 206.024 159.262 206.152 159.838 206.152ZM169.576 198.104C170.621 198.104 171.475 198.429 172.136 199.08C172.797 199.72 173.128 200.653 173.128 201.88V207H172.024V202.008C172.024 201.059 171.784 200.333 171.304 199.832C170.835 199.331 170.189 199.08 169.368 199.08C168.525 199.08 167.853 199.347 167.352 199.88C166.851 200.413 166.6 201.197 166.6 202.232V207H165.48V198.264H166.6V199.752C166.877 199.219 167.277 198.813 167.8 198.536C168.323 198.248 168.915 198.104 169.576 198.104ZM176.261 199.208V204.632C176.261 205.165 176.362 205.533 176.565 205.736C176.768 205.939 177.125 206.04 177.637 206.04H178.661V207H177.461C176.672 207 176.085 206.819 175.701 206.456C175.317 206.083 175.125 205.475 175.125 204.632V199.208H173.909V198.264H175.125V196.072H176.261V198.264H178.661V199.208H176.261ZM180.828 199.816C181.073 199.272 181.447 198.851 181.948 198.552C182.46 198.253 183.084 198.104 183.82 198.104V199.272H183.516C182.705 199.272 182.055 199.491 181.564 199.928C181.073 200.365 180.828 201.096 180.828 202.12V207H179.708V198.264H180.828V199.816ZM185.265 196.616C185.041 196.616 184.849 196.536 184.689 196.376C184.529 196.216 184.449 196.019 184.449 195.784C184.449 195.549 184.529 195.357 184.689 195.208C184.849 195.048 185.041 194.968 185.265 194.968C185.489 194.968 185.681 195.048 185.841 195.208C186.001 195.357 186.081 195.549 186.081 195.784C186.081 196.019 186.001 196.216 185.841 196.376C185.681 196.536 185.489 196.616 185.265 196.616ZM185.825 198.264V207H184.705V198.264H185.825ZM188.665 200.2C188.953 199.592 189.396 199.096 189.993 198.712C190.601 198.328 191.316 198.136 192.137 198.136C192.937 198.136 193.652 198.323 194.281 198.696C194.911 199.059 195.401 199.581 195.753 200.264C196.116 200.936 196.297 201.72 196.297 202.616C196.297 203.512 196.116 204.301 195.753 204.984C195.401 205.667 194.905 206.195 194.265 206.568C193.636 206.941 192.927 207.128 192.137 207.128C191.305 207.128 190.585 206.941 189.977 206.568C189.38 206.184 188.943 205.688 188.665 205.08V207H187.561V195.16H188.665V200.2ZM195.161 202.616C195.161 201.891 195.017 201.267 194.729 200.744C194.452 200.211 194.068 199.805 193.577 199.528C193.087 199.251 192.532 199.112 191.913 199.112C191.316 199.112 190.767 199.256 190.265 199.544C189.775 199.832 189.385 200.243 189.097 200.776C188.809 201.309 188.665 201.928 188.665 202.632C188.665 203.336 188.809 203.955 189.097 204.488C189.385 205.021 189.775 205.432 190.265 205.72C190.767 206.008 191.316 206.152 191.913 206.152C192.532 206.152 193.087 206.013 193.577 205.736C194.068 205.448 194.452 205.037 194.729 204.504C195.017 203.96 195.161 203.331 195.161 202.616ZM205.126 198.264V207H204.006V205.464C203.75 206.008 203.355 206.424 202.822 206.712C202.289 207 201.691 207.144 201.03 207.144C199.985 207.144 199.131 206.824 198.47 206.184C197.809 205.533 197.478 204.595 197.478 203.368V198.264H198.582V203.24C198.582 204.189 198.817 204.915 199.286 205.416C199.766 205.917 200.417 206.168 201.238 206.168C202.081 206.168 202.753 205.901 203.254 205.368C203.755 204.835 204.006 204.051 204.006 203.016V198.264H205.126ZM208.339 199.208V204.632C208.339 205.165 208.44 205.533 208.643 205.736C208.846 205.939 209.203 206.04 209.715 206.04H210.739V207H209.539C208.75 207 208.163 206.819 207.779 206.456C207.395 206.083 207.203 205.475 207.203 204.632V199.208H205.987V198.264H207.203V196.072H208.339V198.264H210.739V199.208H208.339ZM212.346 196.616C212.122 196.616 211.93 196.536 211.77 196.376C211.61 196.216 211.53 196.019 211.53 195.784C211.53 195.549 211.61 195.357 211.77 195.208C211.93 195.048 212.122 194.968 212.346 194.968C212.57 194.968 212.762 195.048 212.922 195.208C213.082 195.357 213.162 195.549 213.162 195.784C213.162 196.019 213.082 196.216 212.922 196.376C212.762 196.536 212.57 196.616 212.346 196.616ZM212.906 198.264V207H211.786V198.264H212.906ZM218.467 207.128C217.645 207.128 216.904 206.947 216.243 206.584C215.592 206.211 215.075 205.688 214.691 205.016C214.317 204.333 214.131 203.539 214.131 202.632C214.131 201.725 214.323 200.936 214.707 200.264C215.091 199.581 215.613 199.059 216.275 198.696C216.936 198.323 217.677 198.136 218.499 198.136C219.32 198.136 220.061 198.323 220.723 198.696C221.395 199.059 221.917 199.581 222.291 200.264C222.675 200.936 222.867 201.725 222.867 202.632C222.867 203.528 222.675 204.317 222.291 205C221.907 205.683 221.379 206.211 220.707 206.584C220.035 206.947 219.288 207.128 218.467 207.128ZM218.467 206.152C219.043 206.152 219.576 206.024 220.067 205.768C220.557 205.501 220.952 205.107 221.251 204.584C221.56 204.051 221.715 203.4 221.715 202.632C221.715 201.864 221.565 201.219 221.267 200.696C220.968 200.163 220.573 199.768 220.083 199.512C219.592 199.245 219.059 199.112 218.483 199.112C217.907 199.112 217.373 199.245 216.883 199.512C216.392 199.768 215.997 200.163 215.699 200.696C215.411 201.219 215.267 201.864 215.267 202.632C215.267 203.4 215.411 204.051 215.699 204.584C215.997 205.107 216.387 205.501 216.867 205.768C217.357 206.024 217.891 206.152 218.467 206.152ZM228.204 198.104C229.249 198.104 230.103 198.429 230.764 199.08C231.425 199.72 231.756 200.653 231.756 201.88V207H230.652V202.008C230.652 201.059 230.412 200.333 229.932 199.832C229.463 199.331 228.817 199.08 227.996 199.08C227.153 199.08 226.481 199.347 225.98 199.88C225.479 200.413 225.228 201.197 225.228 202.232V207H224.108V198.264H225.228V199.752C225.505 199.219 225.905 198.813 226.428 198.536C226.951 198.248 227.543 198.104 228.204 198.104ZM236.441 207.128C235.438 207.128 234.617 206.899 233.977 206.44C233.348 205.971 232.996 205.336 232.921 204.536H234.073C234.126 205.027 234.356 205.427 234.761 205.736C235.177 206.035 235.732 206.184 236.425 206.184C237.033 206.184 237.508 206.04 237.849 205.752C238.201 205.464 238.377 205.107 238.377 204.68C238.377 204.381 238.281 204.136 238.089 203.944C237.897 203.752 237.652 203.603 237.353 203.496C237.065 203.379 236.67 203.256 236.169 203.128C235.518 202.957 234.99 202.787 234.585 202.616C234.18 202.445 233.833 202.195 233.545 201.864C233.268 201.523 233.129 201.069 233.129 200.504C233.129 200.077 233.257 199.683 233.513 199.32C233.769 198.957 234.132 198.669 234.601 198.456C235.07 198.243 235.604 198.136 236.201 198.136C237.14 198.136 237.897 198.376 238.473 198.856C239.049 199.325 239.358 199.976 239.401 200.808H238.281C238.249 200.296 238.046 199.885 237.673 199.576C237.31 199.256 236.809 199.096 236.169 199.096C235.604 199.096 235.145 199.229 234.793 199.496C234.441 199.763 234.265 200.093 234.265 200.488C234.265 200.829 234.366 201.112 234.569 201.336C234.782 201.549 235.044 201.72 235.353 201.848C235.662 201.965 236.078 202.099 236.601 202.248C237.23 202.419 237.732 202.584 238.105 202.744C238.478 202.904 238.798 203.139 239.065 203.448C239.332 203.757 239.47 204.168 239.481 204.68C239.481 205.149 239.353 205.571 239.097 205.944C238.841 206.307 238.484 206.595 238.025 206.808C237.566 207.021 237.038 207.128 236.441 207.128ZM243.868 202.616C243.868 201.72 244.044 200.936 244.396 200.264C244.759 199.581 245.255 199.059 245.884 198.696C246.524 198.323 247.244 198.136 248.044 198.136C248.876 198.136 249.591 198.328 250.188 198.712C250.796 199.096 251.233 199.587 251.5 200.184V198.264H252.62V207H251.5V205.064C251.223 205.661 250.78 206.157 250.172 206.552C249.575 206.936 248.86 207.128 248.028 207.128C247.239 207.128 246.524 206.941 245.884 206.568C245.255 206.195 244.759 205.667 244.396 204.984C244.044 204.301 243.868 203.512 243.868 202.616ZM251.5 202.632C251.5 201.928 251.356 201.309 251.068 200.776C250.78 200.243 250.385 199.832 249.884 199.544C249.393 199.256 248.849 199.112 248.252 199.112C247.633 199.112 247.079 199.251 246.588 199.528C246.097 199.805 245.708 200.211 245.42 200.744C245.143 201.267 245.004 201.891 245.004 202.616C245.004 203.331 245.143 203.96 245.42 204.504C245.708 205.037 246.097 205.448 246.588 205.736C247.079 206.013 247.633 206.152 248.252 206.152C248.849 206.152 249.393 206.008 249.884 205.72C250.385 205.432 250.78 205.021 251.068 204.488C251.356 203.955 251.5 203.336 251.5 202.632ZM258.473 198.104C259.518 198.104 260.372 198.429 261.033 199.08C261.694 199.72 262.025 200.653 262.025 201.88V207H260.921V202.008C260.921 201.059 260.681 200.333 260.201 199.832C259.732 199.331 259.086 199.08 258.265 199.08C257.422 199.08 256.75 199.347 256.249 199.88C255.748 200.413 255.497 201.197 255.497 202.232V207H254.377V198.264H255.497V199.752C255.774 199.219 256.174 198.813 256.697 198.536C257.22 198.248 257.812 198.104 258.473 198.104ZM263.19 202.616C263.19 201.72 263.371 200.936 263.734 200.264C264.097 199.581 264.593 199.059 265.222 198.696C265.862 198.323 266.582 198.136 267.382 198.136C268.15 198.136 268.843 198.323 269.462 198.696C270.081 199.069 270.534 199.555 270.822 200.152V195.16H271.942V207H270.822V205.048C270.555 205.656 270.118 206.157 269.51 206.552C268.902 206.936 268.187 207.128 267.366 207.128C266.566 207.128 265.846 206.941 265.206 206.568C264.577 206.195 264.081 205.667 263.718 204.984C263.366 204.301 263.19 203.512 263.19 202.616ZM270.822 202.632C270.822 201.928 270.678 201.309 270.39 200.776C270.102 200.243 269.707 199.832 269.206 199.544C268.715 199.256 268.171 199.112 267.574 199.112C266.955 199.112 266.401 199.251 265.91 199.528C265.419 199.805 265.03 200.211 264.742 200.744C264.465 201.267 264.326 201.891 264.326 202.616C264.326 203.331 264.465 203.96 264.742 204.504C265.03 205.037 265.419 205.448 265.91 205.736C266.401 206.013 266.955 206.152 267.574 206.152C268.171 206.152 268.715 206.008 269.206 205.72C269.707 205.432 270.102 205.021 270.39 204.488C270.678 203.955 270.822 203.336 270.822 202.632ZM80.768 226.632C80.768 225.725 80.9493 224.936 81.312 224.264C81.6747 223.581 82.176 223.059 82.816 222.696C83.456 222.323 84.1867 222.136 85.008 222.136C86.0853 222.136 86.9707 222.403 87.664 222.936C88.368 223.469 88.8213 224.195 89.024 225.112H87.824C87.6747 224.483 87.3493 223.992 86.848 223.64C86.3573 223.277 85.744 223.096 85.008 223.096C84.4213 223.096 83.8933 223.229 83.424 223.496C82.9547 223.763 82.5813 224.163 82.304 224.696C82.0373 225.219 81.904 225.864 81.904 226.632C81.904 227.4 82.0373 228.051 82.304 228.584C82.5813 229.117 82.9547 229.517 83.424 229.784C83.8933 230.051 84.4213 230.184 85.008 230.184C85.744 230.184 86.3573 230.008 86.848 229.656C87.3493 229.293 87.6747 228.792 87.824 228.152H89.024C88.8213 229.048 88.368 229.768 87.664 230.312C86.96 230.856 86.0747 231.128 85.008 231.128C84.1867 231.128 83.456 230.947 82.816 230.584C82.176 230.211 81.6747 229.688 81.312 229.016C80.9493 228.333 80.768 227.539 80.768 226.632ZM94.1165 231.128C93.2952 231.128 92.5538 230.947 91.8925 230.584C91.2418 230.211 90.7245 229.688 90.3405 229.016C89.9672 228.333 89.7805 227.539 89.7805 226.632C89.7805 225.725 89.9725 224.936 90.3565 224.264C90.7405 223.581 91.2632 223.059 91.9245 222.696C92.5858 222.323 93.3272 222.136 94.1485 222.136C94.9698 222.136 95.7112 222.323 96.3725 222.696C97.0445 223.059 97.5672 223.581 97.9405 224.264C98.3245 224.936 98.5165 225.725 98.5165 226.632C98.5165 227.528 98.3245 228.317 97.9405 229C97.5565 229.683 97.0285 230.211 96.3565 230.584C95.6845 230.947 94.9378 231.128 94.1165 231.128ZM94.1165 230.152C94.6925 230.152 95.2258 230.024 95.7165 229.768C96.2072 229.501 96.6018 229.107 96.9005 228.584C97.2098 228.051 97.3645 227.4 97.3645 226.632C97.3645 225.864 97.2152 225.219 96.9165 224.696C96.6178 224.163 96.2232 223.768 95.7325 223.512C95.2418 223.245 94.7085 223.112 94.1325 223.112C93.5565 223.112 93.0232 223.245 92.5325 223.512C92.0418 223.768 91.6472 224.163 91.3485 224.696C91.0605 225.219 90.9165 225.864 90.9165 226.632C90.9165 227.4 91.0605 228.051 91.3485 228.584C91.6472 229.107 92.0365 229.501 92.5165 229.768C93.0072 230.024 93.5405 230.152 94.1165 230.152ZM110.158 222.104C111.182 222.104 112.014 222.429 112.654 223.08C113.305 223.72 113.63 224.653 113.63 225.88V231H112.526V226.008C112.526 225.059 112.297 224.333 111.838 223.832C111.379 223.331 110.755 223.08 109.966 223.08C109.145 223.08 108.489 223.352 107.998 223.896C107.507 224.44 107.262 225.229 107.262 226.264V231H106.158V226.008C106.158 225.059 105.929 224.333 105.47 223.832C105.011 223.331 104.382 223.08 103.582 223.08C102.761 223.08 102.105 223.352 101.614 223.896C101.123 224.44 100.878 225.229 100.878 226.264V231H99.7581V222.264H100.878V223.768C101.155 223.224 101.55 222.813 102.062 222.536C102.574 222.248 103.145 222.104 103.774 222.104C104.531 222.104 105.193 222.285 105.758 222.648C106.334 223.011 106.75 223.544 107.006 224.248C107.241 223.555 107.641 223.027 108.206 222.664C108.782 222.291 109.433 222.104 110.158 222.104ZM125.717 222.104C126.741 222.104 127.573 222.429 128.213 223.08C128.864 223.72 129.189 224.653 129.189 225.88V231H128.085V226.008C128.085 225.059 127.856 224.333 127.397 223.832C126.939 223.331 126.315 223.08 125.525 223.08C124.704 223.08 124.048 223.352 123.557 223.896C123.067 224.44 122.821 225.229 122.821 226.264V231H121.717V226.008C121.717 225.059 121.488 224.333 121.029 223.832C120.571 223.331 119.941 223.08 119.141 223.08C118.32 223.08 117.664 223.352 117.173 223.896C116.683 224.44 116.437 225.229 116.437 226.264V231H115.317V222.264H116.437V223.768C116.715 223.224 117.109 222.813 117.621 222.536C118.133 222.248 118.704 222.104 119.333 222.104C120.091 222.104 120.752 222.285 121.317 222.648C121.893 223.011 122.309 223.544 122.565 224.248C122.8 223.555 123.2 223.027 123.765 222.664C124.341 222.291 124.992 222.104 125.717 222.104ZM131.437 220.616C131.213 220.616 131.021 220.536 130.861 220.376C130.701 220.216 130.621 220.019 130.621 219.784C130.621 219.549 130.701 219.357 130.861 219.208C131.021 219.048 131.213 218.968 131.437 218.968C131.661 218.968 131.853 219.048 132.013 219.208C132.173 219.357 132.253 219.549 132.253 219.784C132.253 220.019 132.173 220.216 132.013 220.376C131.853 220.536 131.661 220.616 131.437 220.616ZM131.997 222.264V231H130.877V222.264H131.997ZM135.189 223.208V228.632C135.189 229.165 135.29 229.533 135.493 229.736C135.696 229.939 136.053 230.04 136.565 230.04H137.589V231H136.389C135.6 231 135.013 230.819 134.629 230.456C134.245 230.083 134.053 229.475 134.053 228.632V223.208H132.837V222.264H134.053V220.072H135.189V222.264H137.589V223.208H135.189ZM149.036 222.104C150.06 222.104 150.892 222.429 151.532 223.08C152.183 223.72 152.508 224.653 152.508 225.88V231H151.404V226.008C151.404 225.059 151.175 224.333 150.716 223.832C150.258 223.331 149.634 223.08 148.844 223.08C148.023 223.08 147.367 223.352 146.876 223.896C146.386 224.44 146.14 225.229 146.14 226.264V231H145.036V226.008C145.036 225.059 144.807 224.333 144.348 223.832C143.89 223.331 143.26 223.08 142.46 223.08C141.639 223.08 140.983 223.352 140.492 223.896C140.002 224.44 139.756 225.229 139.756 226.264V231H138.636V222.264H139.756V223.768C140.034 223.224 140.428 222.813 140.94 222.536C141.452 222.248 142.023 222.104 142.652 222.104C143.41 222.104 144.071 222.285 144.636 222.648C145.212 223.011 145.628 223.544 145.884 224.248C146.119 223.555 146.519 223.027 147.084 222.664C147.66 222.291 148.311 222.104 149.036 222.104ZM162.1 226.184C162.1 226.568 162.089 226.861 162.068 227.064H154.82C154.852 227.725 155.012 228.291 155.3 228.76C155.588 229.229 155.966 229.587 156.436 229.832C156.905 230.067 157.417 230.184 157.972 230.184C158.697 230.184 159.305 230.008 159.796 229.656C160.297 229.304 160.628 228.829 160.788 228.232H161.972C161.758 229.085 161.3 229.784 160.596 230.328C159.902 230.861 159.028 231.128 157.972 231.128C157.15 231.128 156.414 230.947 155.764 230.584C155.113 230.211 154.601 229.688 154.228 229.016C153.865 228.333 153.684 227.539 153.684 226.632C153.684 225.725 153.865 224.931 154.228 224.248C154.59 223.565 155.097 223.043 155.748 222.68C156.398 222.317 157.14 222.136 157.972 222.136C158.804 222.136 159.529 222.317 160.148 222.68C160.777 223.043 161.257 223.533 161.588 224.152C161.929 224.76 162.1 225.437 162.1 226.184ZM160.964 226.152C160.974 225.501 160.841 224.947 160.564 224.488C160.297 224.029 159.929 223.683 159.46 223.448C158.99 223.213 158.478 223.096 157.924 223.096C157.092 223.096 156.382 223.363 155.796 223.896C155.209 224.429 154.884 225.181 154.82 226.152H160.964ZM167.445 222.104C168.49 222.104 169.343 222.429 170.005 223.08C170.666 223.72 170.997 224.653 170.997 225.88V231H169.893V226.008C169.893 225.059 169.653 224.333 169.173 223.832C168.703 223.331 168.058 223.08 167.237 223.08C166.394 223.08 165.722 223.347 165.221 223.88C164.719 224.413 164.469 225.197 164.469 226.232V231H163.349V222.264H164.469V223.752C164.746 223.219 165.146 222.813 165.669 222.536C166.191 222.248 166.783 222.104 167.445 222.104ZM174.13 223.208V228.632C174.13 229.165 174.231 229.533 174.434 229.736C174.636 229.939 174.994 230.04 175.506 230.04H176.53V231H175.33C174.54 231 173.954 230.819 173.57 230.456C173.186 230.083 172.994 229.475 172.994 228.632V223.208H171.778V222.264H172.994V220.072H174.13V222.264H176.53V223.208H174.13ZM177.769 231.08C177.534 231.08 177.337 231 177.177 230.84C177.028 230.68 176.953 230.483 176.953 230.248C176.953 230.013 177.028 229.821 177.177 229.672C177.337 229.512 177.534 229.432 177.769 229.432C177.993 229.432 178.18 229.512 178.329 229.672C178.489 229.821 178.569 230.013 178.569 230.248C178.569 230.483 178.489 230.68 178.329 230.84C178.18 231 177.993 231.08 177.769 231.08Z" fill="#524633"/>
<defs>
<filter id="filter0_d_5_4703" x="0" y="0" width="384" height="317" filterUnits="userSpaceOnUse" color-interpolation-filters="sRGB">
<feFlood flood-opacity="0" result="BackgroundImageFix"/>
<feColorMatrix in="SourceAlpha" type="matrix" values="0 0 0 0 0 0 0 0 0 0 0 0 0 0 0 0 0 0 127 0" result="hardAlpha"/>
<feOffset/>
<feGaussianBlur stdDeviation="25"/>
<feComposite in2="hardAlpha" operator="out"/>
<feColorMatrix type="matrix" values="0 0 0 0 0 0 0 0 0 0 0 0 0 0 0 0 0 0 0.15 0"/>
<feBlend mode="normal" in2="BackgroundImageFix" result="effect1_dropShadow_5_4703"/>
<feBlend mode="normal" in="SourceGraphic" in2="effect1_dropShadow_5_4703" result="shape"/>
</filter>
<linearGradient id="paint0_linear_5_4703" x1="192" y1="50" x2="192" y2="267" gradientUnits="userSpaceOnUse">
<stop stop-color="white"/>
<stop offset="1" stop-color="#F2E7CF"/>
</linearGradient>
</defs>
</svg>
