<svg width="325" height="259" viewBox="0 0 325 259" fill="none" xmlns="http://www.w3.org/2000/svg">
<g filter="url(#filter0_d_5_4584)">
<g filter="url(#filter1_b_5_4584)">
<rect x="44" y="52" width="224" height="159" rx="30" fill="#D5A53A" fill-opacity="0.5"/>
</g>
<path d="M269 103L216.328 103C215.663 103 215.183 102.363 215.367 101.724L229.662 52" stroke="url(#paint0_diamond_5_4584)" stroke-opacity="0.13" stroke-width="23" stroke-linecap="round"/>
<circle cx="94" cy="97" r="24" fill="#524633"/>
<mask id="mask0_5_4584" style="mask-type:alpha" maskUnits="userSpaceOnUse" x="80" y="82" width="29" height="29">
<rect x="80" y="82" width="29" height="29" fill="#D9D9D9"/>
</mask>
<g mask="url(#mask0_5_4584)">
<path d="M86.1808 106.167C85.6246 106.167 85.1602 105.98 84.7876 105.608C84.415 105.235 84.2288 104.771 84.2288 104.215V88.7854C84.2288 88.2292 84.415 87.7648 84.7876 87.3922C85.1602 87.0196 85.6246 86.8333 86.1808 86.8333H97.4274V88.0417H86.1808C85.9639 88.0417 85.7857 88.1113 85.6461 88.2507C85.5068 88.3903 85.4371 88.5685 85.4371 88.7854V104.215C85.4371 104.432 85.5068 104.61 85.6461 104.749C85.7857 104.889 85.9639 104.958 86.1808 104.958H101.61C101.827 104.958 102.005 104.889 102.145 104.749C102.284 104.61 102.354 104.432 102.354 104.215V92.968H103.562V104.215C103.562 104.771 103.376 105.235 103.003 105.608C102.631 105.98 102.166 106.167 101.61 106.167H86.1808ZM88.7367 101.938H89.9451V94.6875H88.7367V101.938ZM93.2913 101.938H94.4996V91.0625H93.2913V101.938ZM97.8458 101.938H99.0541V98.3125H97.8458V101.938ZM101.145 91.6667V89.25H98.7288V88.0417H101.145V85.625H102.354V88.0417H104.77V89.25H102.354V91.6667H101.145Z" fill="white"/>
</g>
<path d="M82.866 168.13L80.318 178H79.142L76.678 169.544L74.2 178H73.024L70.476 168.13H71.568L73.626 176.782L76.118 168.13H77.224L79.716 176.796L81.788 168.13H82.866ZM87.8658 170.258C88.5938 170.258 89.2424 170.417 89.8118 170.734C90.3904 171.042 90.8431 171.495 91.1698 172.092C91.4964 172.68 91.6598 173.375 91.6598 174.178C91.6598 174.981 91.4964 175.676 91.1698 176.264C90.8431 176.852 90.3904 177.305 89.8118 177.622C89.2424 177.939 88.5938 178.098 87.8658 178.098C87.1378 178.098 86.4844 177.939 85.9058 177.622C85.3271 177.305 84.8698 176.852 84.5338 176.264C84.2071 175.667 84.0438 174.971 84.0438 174.178C84.0438 173.375 84.2071 172.68 84.5338 172.092C84.8698 171.495 85.3271 171.042 85.9058 170.734C86.4844 170.417 87.1378 170.258 87.8658 170.258ZM87.8658 171.112C87.3618 171.112 86.8951 171.224 86.4658 171.448C86.0364 171.672 85.6911 172.017 85.4298 172.484C85.1684 172.941 85.0378 173.506 85.0378 174.178C85.0378 174.85 85.1684 175.415 85.4298 175.872C85.6911 176.329 86.0364 176.67 86.4658 176.894C86.8951 177.118 87.3618 177.23 87.8658 177.23C88.3604 177.23 88.8178 177.118 89.2378 176.894C89.6671 176.67 90.0124 176.329 90.2738 175.872C90.5351 175.415 90.6658 174.85 90.6658 174.178C90.6658 173.506 90.5351 172.941 90.2738 172.484C90.0124 172.017 89.6671 171.672 89.2378 171.448C88.8178 171.224 88.3604 171.112 87.8658 171.112ZM94.4115 171.938C94.6355 171.387 94.9948 170.963 95.4895 170.664C95.9842 170.365 96.5862 170.216 97.2955 170.216V171.28H96.9735C96.2362 171.28 95.6248 171.481 95.1395 171.882C94.6542 172.274 94.4115 172.918 94.4115 173.814V178H93.4175V170.356H94.4115V171.938ZM102.687 178L99.5932 174.5V178H98.5992V167.64H99.5932V173.716L102.631 170.356H103.849L100.335 174.136L103.947 178H102.687ZM111.964 168.326C111.254 168.317 110.755 168.447 110.466 168.718C110.186 168.979 110.046 169.423 110.046 170.048V170.356H111.964V171.224H110.046V178H109.066V171.224H107.932V170.356H109.066V169.978C109.066 169.119 109.299 168.475 109.766 168.046C110.232 167.617 110.965 167.421 111.964 167.458V168.326ZM116.653 170.258C117.428 170.258 118.086 170.459 118.627 170.86C119.178 171.261 119.556 171.793 119.761 172.456V170.356H120.727V178H119.761V175.9C119.556 176.563 119.178 177.095 118.627 177.496C118.086 177.897 117.428 178.098 116.653 178.098C115.962 178.098 115.342 177.939 114.791 177.622C114.25 177.305 113.825 176.852 113.517 176.264C113.218 175.667 113.069 174.971 113.069 174.178C113.069 173.375 113.218 172.68 113.517 172.092C113.825 171.495 114.25 171.042 114.791 170.734C115.332 170.417 115.953 170.258 116.653 170.258ZM116.905 171.126C116.046 171.126 115.356 171.401 114.833 171.952C114.32 172.493 114.063 173.235 114.063 174.178C114.063 175.121 114.32 175.867 114.833 176.418C115.356 176.959 116.046 177.23 116.905 177.23C117.446 177.23 117.932 177.104 118.361 176.852C118.8 176.6 119.14 176.245 119.383 175.788C119.635 175.321 119.761 174.785 119.761 174.178C119.761 173.571 119.635 173.039 119.383 172.582C119.14 172.115 118.8 171.756 118.361 171.504C117.932 171.252 117.446 171.126 116.905 171.126ZM125.163 170.258C125.994 170.258 126.661 170.477 127.165 170.916C127.669 171.355 127.977 171.947 128.089 172.694H127.151C127.095 172.199 126.89 171.793 126.535 171.476C126.19 171.149 125.723 170.986 125.135 170.986C124.631 170.986 124.234 171.112 123.945 171.364C123.665 171.607 123.525 171.933 123.525 172.344C123.525 172.652 123.614 172.899 123.791 173.086C123.978 173.273 124.206 173.417 124.477 173.52C124.748 173.613 125.112 173.711 125.569 173.814C126.129 173.945 126.577 174.08 126.913 174.22C127.258 174.351 127.552 174.561 127.795 174.85C128.038 175.139 128.159 175.531 128.159 176.026C128.159 176.633 127.93 177.132 127.473 177.524C127.025 177.907 126.428 178.098 125.681 178.098C124.804 178.098 124.085 177.883 123.525 177.454C122.965 177.015 122.634 176.418 122.531 175.662H123.483C123.539 176.166 123.758 176.577 124.141 176.894C124.524 177.211 125.042 177.37 125.695 177.37C126.18 177.37 126.558 177.244 126.829 176.992C127.1 176.74 127.235 176.413 127.235 176.012C127.235 175.685 127.142 175.424 126.955 175.228C126.768 175.032 126.535 174.887 126.255 174.794C125.984 174.691 125.611 174.584 125.135 174.472C124.584 174.341 124.141 174.211 123.805 174.08C123.478 173.949 123.198 173.749 122.965 173.478C122.732 173.198 122.615 172.82 122.615 172.344C122.615 171.719 122.844 171.215 123.301 170.832C123.758 170.449 124.379 170.258 125.163 170.258ZM133.421 177.132V178H132.511C131.773 178 131.223 177.827 130.859 177.482C130.495 177.127 130.313 176.535 130.313 175.704V171.21H129.151V170.356H130.313V168.424H131.307V170.356H133.407V171.21H131.307V175.718C131.307 176.259 131.405 176.633 131.601 176.838C131.797 177.034 132.142 177.132 132.637 177.132H133.421ZM138.367 177.286C139.057 177.286 139.636 177.113 140.103 176.768C140.569 176.423 140.849 175.956 140.943 175.368H141.979C141.839 176.18 141.451 176.838 140.817 177.342C140.182 177.846 139.379 178.098 138.409 178.098C137.681 178.098 137.032 177.944 136.463 177.636C135.903 177.319 135.464 176.866 135.147 176.278C134.829 175.681 134.671 174.981 134.671 174.178C134.671 173.375 134.829 172.68 135.147 172.092C135.464 171.495 135.903 171.042 136.463 170.734C137.032 170.417 137.681 170.258 138.409 170.258C139.155 170.258 139.799 170.417 140.341 170.734C140.891 171.042 141.307 171.457 141.587 171.98C141.876 172.503 142.021 173.072 142.021 173.688C142.021 173.949 142.002 174.187 141.965 174.402H135.637C135.646 175.046 135.777 175.587 136.029 176.026C136.29 176.455 136.626 176.773 137.037 176.978C137.447 177.183 137.891 177.286 138.367 177.286ZM138.409 171.056C137.914 171.056 137.461 171.159 137.051 171.364C136.64 171.569 136.304 171.887 136.043 172.316C135.791 172.736 135.655 173.263 135.637 173.898H141.041C141.078 173.273 140.975 172.745 140.733 172.316C140.49 171.887 140.163 171.569 139.753 171.364C139.342 171.159 138.894 171.056 138.409 171.056ZM144.779 171.938C145.003 171.387 145.362 170.963 145.857 170.664C146.351 170.365 146.953 170.216 147.663 170.216V171.28H147.341C146.603 171.28 145.992 171.481 145.507 171.882C145.021 172.274 144.779 172.918 144.779 173.814V178H143.785V170.356H144.779V171.938ZM152.169 177.258C153.821 176.166 155.137 175.069 156.117 173.968C157.106 172.867 157.601 171.835 157.601 170.874C157.601 170.267 157.442 169.777 157.125 169.404C156.808 169.021 156.294 168.83 155.585 168.83C154.857 168.83 154.302 169.059 153.919 169.516C153.546 169.964 153.336 170.575 153.289 171.35H152.323C152.388 170.277 152.72 169.451 153.317 168.872C153.914 168.284 154.694 167.99 155.655 167.99C156.532 167.99 157.242 168.228 157.783 168.704C158.324 169.18 158.595 169.875 158.595 170.79C158.595 171.565 158.338 172.358 157.825 173.17C157.312 173.973 156.672 174.719 155.907 175.41C155.142 176.091 154.362 176.67 153.569 177.146H158.875V177.958H152.169V177.258ZM160.336 173.016C160.336 174.612 160.584 175.853 161.078 176.74C161.582 177.617 162.469 178.056 163.738 178.056C164.998 178.056 165.88 177.617 166.384 176.74C166.888 175.853 167.14 174.612 167.14 173.016C167.14 171.429 166.888 170.197 166.384 169.32C165.88 168.443 164.998 168.004 163.738 168.004C162.469 168.004 161.582 168.443 161.078 169.32C160.584 170.197 160.336 171.429 160.336 173.016ZM166.16 173.016C166.16 173.884 166.095 174.617 165.964 175.214C165.843 175.802 165.605 176.269 165.25 176.614C164.896 176.959 164.392 177.132 163.738 177.132C163.076 177.132 162.567 176.959 162.212 176.614C161.858 176.269 161.615 175.802 161.484 175.214C161.363 174.617 161.302 173.884 161.302 173.016C161.302 172.157 161.363 171.434 161.484 170.846C161.615 170.258 161.858 169.791 162.212 169.446C162.567 169.101 163.076 168.928 163.738 168.928C164.392 168.928 164.896 169.101 165.25 169.446C165.605 169.791 165.843 170.258 165.964 170.846C166.095 171.434 166.16 172.157 166.16 173.016ZM168.84 173.016C168.84 174.612 169.088 175.853 169.582 176.74C170.086 177.617 170.973 178.056 172.242 178.056C173.502 178.056 174.384 177.617 174.888 176.74C175.392 175.853 175.644 174.612 175.644 173.016C175.644 171.429 175.392 170.197 174.888 169.32C174.384 168.443 173.502 168.004 172.242 168.004C170.973 168.004 170.086 168.443 169.582 169.32C169.088 170.197 168.84 171.429 168.84 173.016ZM174.664 173.016C174.664 173.884 174.599 174.617 174.468 175.214C174.347 175.802 174.109 176.269 173.754 176.614C173.4 176.959 172.896 177.132 172.242 177.132C171.58 177.132 171.071 176.959 170.716 176.614C170.362 176.269 170.119 175.802 169.988 175.214C169.867 174.617 169.806 173.884 169.806 173.016C169.806 172.157 169.867 171.434 169.988 170.846C170.119 170.258 170.362 169.791 170.716 169.446C171.071 169.101 171.58 168.928 172.242 168.928C172.896 168.928 173.4 169.101 173.754 169.446C174.109 169.791 174.347 170.258 174.468 170.846C174.599 171.434 174.664 172.157 174.664 173.016ZM178.954 168.004C179.524 168.004 179.99 168.186 180.354 168.55C180.728 168.914 180.914 169.395 180.914 169.992C180.914 170.589 180.728 171.07 180.354 171.434C179.99 171.798 179.524 171.98 178.954 171.98C178.376 171.98 177.9 171.798 177.526 171.434C177.162 171.07 176.98 170.589 176.98 169.992C176.98 169.395 177.162 168.914 177.526 168.55C177.9 168.186 178.376 168.004 178.954 168.004ZM184.204 168.116L178.45 178H177.47L183.21 168.116H184.204ZM177.694 169.992C177.694 170.393 177.806 170.72 178.03 170.972C178.264 171.215 178.567 171.336 178.94 171.336C179.314 171.336 179.617 171.215 179.85 170.972C180.084 170.72 180.2 170.393 180.2 169.992C180.2 169.6 180.084 169.278 179.85 169.026C179.617 168.774 179.314 168.648 178.94 168.648C178.567 168.648 178.264 168.774 178.03 169.026C177.806 169.278 177.694 169.6 177.694 169.992ZM182.734 174.136C183.304 174.136 183.77 174.318 184.134 174.682C184.508 175.046 184.694 175.527 184.694 176.124C184.694 176.721 184.508 177.207 184.134 177.58C183.77 177.944 183.304 178.126 182.734 178.126C182.165 178.126 181.694 177.944 181.32 177.58C180.956 177.207 180.774 176.721 180.774 176.124C180.774 175.527 180.956 175.046 181.32 174.682C181.694 174.318 182.165 174.136 182.734 174.136ZM181.488 176.124C181.488 176.525 181.6 176.852 181.824 177.104C182.058 177.356 182.361 177.482 182.734 177.482C183.098 177.482 183.397 177.356 183.63 177.104C183.864 176.852 183.98 176.525 183.98 176.124C183.98 175.732 183.864 175.41 183.63 175.158C183.397 174.906 183.098 174.78 182.734 174.78C182.361 174.78 182.058 174.906 181.824 175.158C181.6 175.41 181.488 175.732 181.488 176.124Z" fill="white"/>
<path d="M73.78 150.16H78.48V152H71.5V138.1H73.78V150.16ZM81.5467 139.52C81.1334 139.52 80.7867 139.38 80.5067 139.1C80.2267 138.82 80.0867 138.473 80.0867 138.06C80.0867 137.647 80.2267 137.3 80.5067 137.02C80.7867 136.74 81.1334 136.6 81.5467 136.6C81.9467 136.6 82.2867 136.74 82.5667 137.02C82.8467 137.3 82.9867 137.647 82.9867 138.06C82.9867 138.473 82.8467 138.82 82.5667 139.1C82.2867 139.38 81.9467 139.52 81.5467 139.52ZM82.6667 140.98V152H80.3867V140.98H82.6667ZM90.2802 142.84H88.2402V152H85.9402V142.84H84.6402V140.98H85.9402V140.2C85.9402 138.933 86.2735 138.013 86.9402 137.44C87.6202 136.853 88.6802 136.56 90.1202 136.56V138.46C89.4268 138.46 88.9402 138.593 88.6602 138.86C88.3802 139.113 88.2402 139.56 88.2402 140.2V140.98H90.2802V142.84ZM102.401 146.22C102.401 146.633 102.374 147.007 102.321 147.34H93.9008C93.9674 148.22 94.2941 148.927 94.8808 149.46C95.4674 149.993 96.1874 150.26 97.0408 150.26C98.2674 150.26 99.1341 149.747 99.6408 148.72H102.101C101.767 149.733 101.161 150.567 100.281 151.22C99.4141 151.86 98.3341 152.18 97.0408 152.18C95.9874 152.18 95.0408 151.947 94.2008 151.48C93.3741 151 92.7208 150.333 92.2408 149.48C91.7741 148.613 91.5408 147.613 91.5408 146.48C91.5408 145.347 91.7674 144.353 92.2208 143.5C92.6874 142.633 93.3341 141.967 94.1608 141.5C95.0008 141.033 95.9608 140.8 97.0408 140.8C98.0808 140.8 99.0074 141.027 99.8208 141.48C100.634 141.933 101.267 142.573 101.721 143.4C102.174 144.213 102.401 145.153 102.401 146.22ZM100.021 145.5C100.007 144.66 99.7074 143.987 99.1208 143.48C98.5341 142.973 97.8074 142.72 96.9408 142.72C96.1541 142.72 95.4808 142.973 94.9208 143.48C94.3608 143.973 94.0274 144.647 93.9208 145.5H100.021ZM119.56 142.24C119.56 142.947 119.393 143.613 119.06 144.24C118.727 144.867 118.193 145.38 117.46 145.78C116.727 146.167 115.787 146.36 114.64 146.36H112.12V152H109.84V138.1H114.64C115.707 138.1 116.607 138.287 117.34 138.66C118.087 139.02 118.64 139.513 119 140.14C119.373 140.767 119.56 141.467 119.56 142.24ZM114.64 144.5C115.507 144.5 116.153 144.307 116.58 143.92C117.007 143.52 117.22 142.96 117.22 142.24C117.22 140.72 116.36 139.96 114.64 139.96H112.12V144.5H114.64ZM124.014 137.2V152H121.734V137.2H124.014ZM126.248 146.44C126.248 145.333 126.474 144.353 126.928 143.5C127.394 142.647 128.021 141.987 128.808 141.52C129.608 141.04 130.488 140.8 131.448 140.8C132.314 140.8 133.068 140.973 133.708 141.32C134.361 141.653 134.881 142.073 135.268 142.58V140.98H137.568V152H135.268V150.36C134.881 150.88 134.354 151.313 133.688 151.66C133.021 152.007 132.261 152.18 131.408 152.18C130.461 152.18 129.594 151.94 128.808 151.46C128.021 150.967 127.394 150.287 126.928 149.42C126.474 148.54 126.248 147.547 126.248 146.44ZM135.268 146.48C135.268 145.72 135.108 145.06 134.788 144.5C134.481 143.94 134.074 143.513 133.568 143.22C133.061 142.927 132.514 142.78 131.928 142.78C131.341 142.78 130.794 142.927 130.288 143.22C129.781 143.5 129.368 143.92 129.048 144.48C128.741 145.027 128.588 145.68 128.588 146.44C128.588 147.2 128.741 147.867 129.048 148.44C129.368 149.013 129.781 149.453 130.288 149.76C130.808 150.053 131.354 150.2 131.928 150.2C132.514 150.2 133.061 150.053 133.568 149.76C134.074 149.467 134.481 149.04 134.788 148.48C135.108 147.907 135.268 147.24 135.268 146.48ZM146.123 140.8C146.989 140.8 147.763 140.98 148.443 141.34C149.136 141.7 149.676 142.233 150.063 142.94C150.449 143.647 150.643 144.5 150.643 145.5V152H148.383V145.84C148.383 144.853 148.136 144.1 147.643 143.58C147.149 143.047 146.476 142.78 145.623 142.78C144.769 142.78 144.089 143.047 143.583 143.58C143.089 144.1 142.843 144.853 142.843 145.84V152H140.563V140.98H142.843V142.24C143.216 141.787 143.689 141.433 144.263 141.18C144.849 140.927 145.469 140.8 146.123 140.8ZM159.111 140.8C159.977 140.8 160.751 140.98 161.431 141.34C162.124 141.7 162.664 142.233 163.051 142.94C163.437 143.647 163.631 144.5 163.631 145.5V152H161.371V145.84C161.371 144.853 161.124 144.1 160.631 143.58C160.137 143.047 159.464 142.78 158.611 142.78C157.757 142.78 157.077 143.047 156.571 143.58C156.077 144.1 155.831 144.853 155.831 145.84V152H153.551V140.98H155.831V142.24C156.204 141.787 156.677 141.433 157.251 141.18C157.837 140.927 158.457 140.8 159.111 140.8ZM167.699 139.52C167.286 139.52 166.939 139.38 166.659 139.1C166.379 138.82 166.239 138.473 166.239 138.06C166.239 137.647 166.379 137.3 166.659 137.02C166.939 136.74 167.286 136.6 167.699 136.6C168.099 136.6 168.439 136.74 168.719 137.02C168.999 137.3 169.139 137.647 169.139 138.06C169.139 138.473 168.999 138.82 168.719 139.1C168.439 139.38 168.099 139.52 167.699 139.52ZM168.819 140.98V152H166.539V140.98H168.819ZM177.373 140.8C178.239 140.8 179.013 140.98 179.693 141.34C180.386 141.7 180.926 142.233 181.313 142.94C181.699 143.647 181.893 144.5 181.893 145.5V152H179.633V145.84C179.633 144.853 179.386 144.1 178.893 143.58C178.399 143.047 177.726 142.78 176.873 142.78C176.019 142.78 175.339 143.047 174.833 143.58C174.339 144.1 174.093 144.853 174.093 145.84V152H171.813V140.98H174.093V142.24C174.466 141.787 174.939 141.433 175.513 141.18C176.099 140.927 176.719 140.8 177.373 140.8ZM189.241 140.8C190.094 140.8 190.847 140.973 191.501 141.32C192.167 141.653 192.687 142.073 193.061 142.58V140.98H195.361V152.18C195.361 153.193 195.147 154.093 194.721 154.88C194.294 155.68 193.674 156.307 192.861 156.76C192.061 157.213 191.101 157.44 189.981 157.44C188.487 157.44 187.247 157.087 186.261 156.38C185.274 155.687 184.714 154.74 184.581 153.54H186.841C187.014 154.113 187.381 154.573 187.941 154.92C188.514 155.28 189.194 155.46 189.981 155.46C190.901 155.46 191.641 155.18 192.201 154.62C192.774 154.06 193.061 153.247 193.061 152.18V150.34C192.674 150.86 192.147 151.3 191.481 151.66C190.827 152.007 190.081 152.18 189.241 152.18C188.281 152.18 187.401 151.94 186.601 151.46C185.814 150.967 185.187 150.287 184.721 149.42C184.267 148.54 184.041 147.547 184.041 146.44C184.041 145.333 184.267 144.353 184.721 143.5C185.187 142.647 185.814 141.987 186.601 141.52C187.401 141.04 188.281 140.8 189.241 140.8ZM193.061 146.48C193.061 145.72 192.901 145.06 192.581 144.5C192.274 143.94 191.867 143.513 191.361 143.22C190.854 142.927 190.307 142.78 189.721 142.78C189.134 142.78 188.587 142.927 188.081 143.22C187.574 143.5 187.161 143.92 186.841 144.48C186.534 145.027 186.381 145.68 186.381 146.44C186.381 147.2 186.534 147.867 186.841 148.44C187.161 149.013 187.574 149.453 188.081 149.76C188.601 150.053 189.147 150.2 189.721 150.2C190.307 150.2 190.854 150.053 191.361 149.76C191.867 149.467 192.274 149.04 192.581 148.48C192.901 147.907 193.061 147.24 193.061 146.48Z" fill="white"/>
</g>
<defs>
<filter id="filter0_d_5_4584" x="0" y="0.49707" width="324.5" height="258.503" filterUnits="userSpaceOnUse" color-interpolation-filters="sRGB">
<feFlood flood-opacity="0" result="BackgroundImageFix"/>
<feColorMatrix in="SourceAlpha" type="matrix" values="0 0 0 0 0 0 0 0 0 0 0 0 0 0 0 0 0 0 127 0" result="hardAlpha"/>
<feOffset dy="4"/>
<feGaussianBlur stdDeviation="22"/>
<feComposite in2="hardAlpha" operator="out"/>
<feColorMatrix type="matrix" values="0 0 0 0 0 0 0 0 0 0 0 0 0 0 0 0 0 0 0.07 0"/>
<feBlend mode="normal" in2="BackgroundImageFix" result="effect1_dropShadow_5_4584"/>
<feBlend mode="normal" in="SourceGraphic" in2="effect1_dropShadow_5_4584" result="shape"/>
</filter>
<filter id="filter1_b_5_4584" x="-20" y="-12" width="352" height="287" filterUnits="userSpaceOnUse" color-interpolation-filters="sRGB">
<feFlood flood-opacity="0" result="BackgroundImageFix"/>
<feGaussianBlur in="BackgroundImageFix" stdDeviation="32"/>
<feComposite in2="SourceAlpha" operator="in" result="effect1_backgroundBlur_5_4584"/>
<feBlend mode="normal" in="SourceGraphic" in2="effect1_backgroundBlur_5_4584" result="shape"/>
</filter>
<radialGradient id="paint0_diamond_5_4584" cx="0" cy="0" r="1" gradientUnits="userSpaceOnUse" gradientTransform="translate(216.145 103) rotate(-47.5828) scale(97.8144 39.3008)">
<stop stop-color="#7C5224"/>
<stop offset="1" stop-color="#7C5224" stop-opacity="0"/>
</radialGradient>
</defs>
</svg>
