<svg width="372" height="286" viewBox="0 0 372 286" fill="none" xmlns="http://www.w3.org/2000/svg">
<g filter="url(#filter0_d_26_187)">
<g filter="url(#filter1_b_26_187)">
<rect x="44" y="40" width="284" height="198" rx="30" fill="#F0E6CE"/>
</g>
<circle cx="99" cy="95" r="25" fill="#A67F28"/>
<path d="M98.951 82.835C92.2706 82.835 86.8359 88.27 86.8359 94.9502C86.8359 101.631 92.2708 107.065 98.951 107.065C105.631 107.065 111.066 101.63 111.066 94.9502C111.066 88.27 105.631 82.835 98.951 82.835ZM98.5325 106.218C92.6461 106.002 87.8995 101.255 87.6833 95.3687H91.0172C91.2284 99.4173 94.484 102.673 98.5325 102.884V106.218ZM98.5325 102.045C94.946 101.836 92.066 98.9552 91.8565 95.3687H95.3685C95.5607 97.0244 96.8768 98.3403 98.5325 98.5328V102.045ZM98.5325 97.6868C97.3394 97.5049 96.3964 96.5618 96.2144 95.3687H98.5325V97.6868ZM96.2142 94.5317C96.3961 93.3386 97.3392 92.3955 98.5322 92.2136V94.5317H96.2142ZM98.5325 91.3676C96.8768 91.5601 95.561 92.876 95.3685 94.5317H91.8565C92.066 90.9452 94.946 88.0652 98.5325 87.8559V91.3676ZM98.5325 87.0166C94.484 87.2278 91.2284 90.4834 91.0172 94.5317H87.6833C87.8995 88.6455 92.6461 83.8989 98.5325 83.6826V87.0166ZM99.3693 83.6826C105.256 83.8989 110.002 88.6455 110.218 94.5317H106.884C106.673 90.4834 103.417 87.2278 99.3693 87.0166V83.6826ZM101.688 95.3687C101.506 96.5618 100.563 97.5049 99.3695 97.6868V95.3687H101.688ZM99.3695 94.5317V92.2136C100.563 92.3955 101.506 93.3386 101.688 94.5317H99.3695ZM102.534 95.3687H106.046C105.836 98.9552 102.956 101.835 99.3698 102.045L99.3695 98.5328C101.025 98.3403 102.341 97.0244 102.534 95.3687ZM99.3693 87.8556C102.956 88.0652 105.836 90.9452 106.045 94.5314H102.533V94.5317C102.341 92.876 101.025 91.5601 99.3693 91.3676V87.8556ZM99.3695 106.218V102.884C103.418 102.673 106.673 99.417 106.885 95.3684H110.218C110.002 101.255 105.256 106.002 99.3695 106.218Z" fill="white"/>
<path d="M93.6 142.1L89.48 156H86.9L83.98 145.48L80.88 156L78.32 156.02L74.38 142.1H76.8L79.68 153.42L82.8 142.1H85.36L88.26 153.36L91.16 142.1H93.6ZM101.18 144.8C102.02 144.8 102.767 144.98 103.42 145.34C104.087 145.7 104.607 146.233 104.98 146.94C105.367 147.647 105.56 148.5 105.56 149.5V156H103.3V149.84C103.3 148.853 103.054 148.1 102.56 147.58C102.067 147.047 101.394 146.78 100.54 146.78C99.6871 146.78 99.0071 147.047 98.5005 147.58C98.0071 148.1 97.7605 148.853 97.7605 149.84V156H95.4805V141.2H97.7605V146.26C98.1471 145.793 98.6338 145.433 99.2205 145.18C99.8205 144.927 100.474 144.8 101.18 144.8ZM107.709 150.44C107.709 149.333 107.935 148.353 108.389 147.5C108.855 146.647 109.482 145.987 110.269 145.52C111.069 145.04 111.949 144.8 112.909 144.8C113.775 144.8 114.529 144.973 115.169 145.32C115.822 145.653 116.342 146.073 116.729 146.58V144.98H119.029V156H116.729V154.36C116.342 154.88 115.815 155.313 115.149 155.66C114.482 156.007 113.722 156.18 112.869 156.18C111.922 156.18 111.055 155.94 110.269 155.46C109.482 154.967 108.855 154.287 108.389 153.42C107.935 152.54 107.709 151.547 107.709 150.44ZM116.729 150.48C116.729 149.72 116.569 149.06 116.249 148.5C115.942 147.94 115.535 147.513 115.029 147.22C114.522 146.927 113.975 146.78 113.389 146.78C112.802 146.78 112.255 146.927 111.749 147.22C111.242 147.5 110.829 147.92 110.509 148.48C110.202 149.027 110.049 149.68 110.049 150.44C110.049 151.2 110.202 151.867 110.509 152.44C110.829 153.013 111.242 153.453 111.749 153.76C112.269 154.053 112.815 154.2 113.389 154.2C113.975 154.2 114.522 154.053 115.029 153.76C115.535 153.467 115.942 153.04 116.249 152.48C116.569 151.907 116.729 151.24 116.729 150.48ZM124.683 146.84V152.94C124.683 153.353 124.777 153.653 124.963 153.84C125.163 154.013 125.497 154.1 125.963 154.1H127.363V156H125.563C124.537 156 123.75 155.76 123.203 155.28C122.657 154.8 122.383 154.02 122.383 152.94V146.84H121.083V144.98H122.383V142.24H124.683V144.98H127.363V146.84H124.683ZM135.82 143.52C135.407 143.52 135.06 143.38 134.78 143.1C134.5 142.82 134.36 142.473 134.36 142.06C134.36 141.647 134.5 141.3 134.78 141.02C135.06 140.74 135.407 140.6 135.82 140.6C136.22 140.6 136.56 140.74 136.84 141.02C137.12 141.3 137.26 141.647 137.26 142.06C137.26 142.473 137.12 142.82 136.84 143.1C136.56 143.38 136.22 143.52 135.82 143.52ZM136.94 144.98V156H134.66V144.98H136.94ZM143.934 156.18C143.067 156.18 142.287 156.027 141.594 155.72C140.914 155.4 140.374 154.973 139.974 154.44C139.574 153.893 139.36 153.287 139.334 152.62H141.694C141.734 153.087 141.954 153.48 142.354 153.8C142.767 154.107 143.28 154.26 143.894 154.26C144.534 154.26 145.027 154.14 145.374 153.9C145.734 153.647 145.914 153.327 145.914 152.94C145.914 152.527 145.714 152.22 145.314 152.02C144.927 151.82 144.307 151.6 143.454 151.36C142.627 151.133 141.954 150.913 141.434 150.7C140.914 150.487 140.46 150.16 140.074 149.72C139.7 149.28 139.514 148.7 139.514 147.98C139.514 147.393 139.687 146.86 140.034 146.38C140.38 145.887 140.874 145.5 141.514 145.22C142.167 144.94 142.914 144.8 143.754 144.8C145.007 144.8 146.014 145.12 146.774 145.76C147.547 146.387 147.96 147.247 148.014 148.34H145.734C145.694 147.847 145.494 147.453 145.134 147.16C144.774 146.867 144.287 146.72 143.674 146.72C143.074 146.72 142.614 146.833 142.294 147.06C141.974 147.287 141.814 147.587 141.814 147.96C141.814 148.253 141.92 148.5 142.134 148.7C142.347 148.9 142.607 149.06 142.914 149.18C143.22 149.287 143.674 149.427 144.274 149.6C145.074 149.813 145.727 150.033 146.234 150.26C146.754 150.473 147.2 150.793 147.574 151.22C147.947 151.647 148.14 152.213 148.154 152.92C148.154 153.547 147.98 154.107 147.634 154.6C147.287 155.093 146.794 155.48 146.154 155.76C145.527 156.04 144.787 156.18 143.934 156.18ZM158.093 141.2V156H155.813V141.2H158.093ZM162.246 143.52C161.833 143.52 161.486 143.38 161.206 143.1C160.926 142.82 160.786 142.473 160.786 142.06C160.786 141.647 160.926 141.3 161.206 141.02C161.486 140.74 161.833 140.6 162.246 140.6C162.646 140.6 162.986 140.74 163.266 141.02C163.546 141.3 163.686 141.647 163.686 142.06C163.686 142.473 163.546 142.82 163.266 143.1C162.986 143.38 162.646 143.52 162.246 143.52ZM163.366 144.98V156H161.086V144.98H163.366ZM165.599 150.44C165.599 149.333 165.826 148.353 166.279 147.5C166.746 146.647 167.373 145.987 168.159 145.52C168.959 145.04 169.846 144.8 170.819 144.8C171.673 144.8 172.426 144.973 173.079 145.32C173.746 145.667 174.259 146.087 174.619 146.58V144.98H176.919V161.24H174.619V154.4C174.259 154.893 173.739 155.313 173.059 155.66C172.379 156.007 171.606 156.18 170.739 156.18C169.793 156.18 168.926 155.94 168.139 155.46C167.366 154.967 166.746 154.287 166.279 153.42C165.826 152.54 165.599 151.547 165.599 150.44ZM174.619 150.48C174.619 149.72 174.459 149.06 174.139 148.5C173.833 147.94 173.426 147.513 172.919 147.22C172.413 146.927 171.866 146.78 171.279 146.78C170.693 146.78 170.146 146.927 169.639 147.22C169.133 147.5 168.719 147.92 168.399 148.48C168.093 149.027 167.939 149.68 167.939 150.44C167.939 151.2 168.093 151.867 168.399 152.44C168.719 153.013 169.133 153.453 169.639 153.76C170.159 154.053 170.706 154.2 171.279 154.2C171.866 154.2 172.413 154.053 172.919 153.76C173.426 153.467 173.833 153.04 174.139 152.48C174.459 151.907 174.619 151.24 174.619 150.48ZM189.894 144.98V156H187.614V154.7C187.254 155.153 186.781 155.513 186.194 155.78C185.621 156.033 185.007 156.16 184.354 156.16C183.487 156.16 182.707 155.98 182.014 155.62C181.334 155.26 180.794 154.727 180.394 154.02C180.007 153.313 179.814 152.46 179.814 151.46V144.98H182.074V151.12C182.074 152.107 182.321 152.867 182.814 153.4C183.307 153.92 183.981 154.18 184.834 154.18C185.687 154.18 186.361 153.92 186.854 153.4C187.361 152.867 187.614 152.107 187.614 151.12V144.98H189.894ZM194.062 143.52C193.649 143.52 193.302 143.38 193.022 143.1C192.742 142.82 192.602 142.473 192.602 142.06C192.602 141.647 192.742 141.3 193.022 141.02C193.302 140.74 193.649 140.6 194.062 140.6C194.462 140.6 194.802 140.74 195.082 141.02C195.362 141.3 195.502 141.647 195.502 142.06C195.502 142.473 195.362 142.82 195.082 143.1C194.802 143.38 194.462 143.52 194.062 143.52ZM195.182 144.98V156H192.902V144.98H195.182ZM197.416 150.44C197.416 149.333 197.642 148.353 198.096 147.5C198.562 146.647 199.189 145.987 199.976 145.52C200.776 145.04 201.662 144.8 202.636 144.8C203.356 144.8 204.062 144.96 204.756 145.28C205.462 145.587 206.022 146 206.436 146.52V141.2H208.736V156H206.436V154.34C206.062 154.873 205.542 155.313 204.876 155.66C204.222 156.007 203.469 156.18 202.616 156.18C201.656 156.18 200.776 155.94 199.976 155.46C199.189 154.967 198.562 154.287 198.096 153.42C197.642 152.54 197.416 151.547 197.416 150.44ZM206.436 150.48C206.436 149.72 206.276 149.06 205.956 148.5C205.649 147.94 205.242 147.513 204.736 147.22C204.229 146.927 203.682 146.78 203.096 146.78C202.509 146.78 201.962 146.927 201.456 147.22C200.949 147.5 200.536 147.92 200.216 148.48C199.909 149.027 199.756 149.68 199.756 150.44C199.756 151.2 199.909 151.867 200.216 152.44C200.536 153.013 200.949 153.453 201.456 153.76C201.976 154.053 202.522 154.2 203.096 154.2C203.682 154.2 204.229 154.053 204.736 153.76C205.242 153.467 205.649 153.04 205.956 152.48C206.276 151.907 206.436 151.24 206.436 150.48ZM212.89 143.52C212.477 143.52 212.13 143.38 211.85 143.1C211.57 142.82 211.43 142.473 211.43 142.06C211.43 141.647 211.57 141.3 211.85 141.02C212.13 140.74 212.477 140.6 212.89 140.6C213.29 140.6 213.63 140.74 213.91 141.02C214.19 141.3 214.33 141.647 214.33 142.06C214.33 142.473 214.19 142.82 213.91 143.1C213.63 143.38 213.29 143.52 212.89 143.52ZM214.01 144.98V156H211.73V144.98H214.01ZM219.664 146.84V152.94C219.664 153.353 219.757 153.653 219.944 153.84C220.144 154.013 220.477 154.1 220.944 154.1H222.344V156H220.544C219.517 156 218.731 155.76 218.184 155.28C217.637 154.8 217.364 154.02 217.364 152.94V146.84H216.064V144.98H217.364V142.24H219.664V144.98H222.344V146.84H219.664ZM234.365 144.98L227.605 161.18H225.245L227.485 155.82L223.145 144.98H225.685L228.785 153.38L232.005 144.98H234.365ZM239.826 141.9C241.186 141.9 242.273 142.273 243.086 143.02C243.913 143.767 244.326 144.787 244.326 146.08C244.326 147.427 243.899 148.44 243.046 149.12C242.193 149.8 241.059 150.14 239.646 150.14L239.566 151.72H237.586L237.486 148.58H238.146C239.439 148.58 240.426 148.407 241.106 148.06C241.799 147.713 242.146 147.053 242.146 146.08C242.146 145.373 241.939 144.82 241.526 144.42C241.126 144.02 240.566 143.82 239.846 143.82C239.126 143.82 238.559 144.013 238.146 144.4C237.733 144.787 237.526 145.327 237.526 146.02H235.386C235.386 145.22 235.566 144.507 235.926 143.88C236.286 143.253 236.799 142.767 237.466 142.42C238.146 142.073 238.933 141.9 239.826 141.9ZM238.546 156.14C238.133 156.14 237.786 156 237.506 155.72C237.226 155.44 237.086 155.093 237.086 154.68C237.086 154.267 237.226 153.92 237.506 153.64C237.786 153.36 238.133 153.22 238.546 153.22C238.946 153.22 239.286 153.36 239.566 153.64C239.846 153.92 239.986 154.267 239.986 154.68C239.986 155.093 239.846 155.44 239.566 155.72C239.286 156 238.946 156.14 238.546 156.14Z" fill="#524633"/>
<path d="M78.088 181.098C77.444 181.098 76.8747 180.986 76.38 180.762C75.8947 180.538 75.512 180.225 75.232 179.824C74.952 179.423 74.8027 178.975 74.784 178.48H75.82C75.8667 178.956 76.0767 179.376 76.45 179.74C76.8233 180.095 77.3693 180.272 78.088 180.272C78.7507 180.272 79.2733 180.104 79.656 179.768C80.048 179.423 80.244 178.989 80.244 178.466C80.244 178.046 80.1367 177.71 79.922 177.458C79.7073 177.197 79.4413 177.005 79.124 176.884C78.8067 176.753 78.368 176.613 77.808 176.464C77.1547 176.287 76.6367 176.114 76.254 175.946C75.8713 175.778 75.5447 175.517 75.274 175.162C75.0033 174.807 74.868 174.327 74.868 173.72C74.868 173.216 74.9987 172.768 75.26 172.376C75.5213 171.975 75.89 171.662 76.366 171.438C76.842 171.214 77.388 171.102 78.004 171.102C78.9093 171.102 79.6373 171.326 80.188 171.774C80.748 172.213 81.07 172.782 81.154 173.482H80.09C80.0247 173.081 79.8053 172.726 79.432 172.418C79.0587 172.101 78.5547 171.942 77.92 171.942C77.332 171.942 76.842 172.101 76.45 172.418C76.058 172.726 75.862 173.151 75.862 173.692C75.862 174.103 75.9693 174.434 76.184 174.686C76.3987 174.938 76.6647 175.129 76.982 175.26C77.3087 175.391 77.7473 175.531 78.298 175.68C78.9327 175.857 79.446 176.035 79.838 176.212C80.23 176.38 80.5613 176.641 80.832 176.996C81.1027 177.351 81.238 177.827 81.238 178.424C81.238 178.881 81.1167 179.315 80.874 179.726C80.6313 180.137 80.272 180.468 79.796 180.72C79.32 180.972 78.7507 181.098 78.088 181.098ZM86.7717 173.216C87.3504 173.216 87.8684 173.337 88.3257 173.58C88.7924 173.823 89.1564 174.196 89.4177 174.7C89.6884 175.195 89.8237 175.801 89.8237 176.52V181H88.8577V176.632C88.8577 175.801 88.6477 175.167 88.2277 174.728C87.8171 174.289 87.2524 174.07 86.5337 174.07C85.7964 174.07 85.2084 174.303 84.7697 174.77C84.3311 175.237 84.1117 175.923 84.1117 176.828V181H83.1317V170.64H84.1117V174.658C84.3544 174.201 84.7091 173.846 85.1757 173.594C85.6517 173.342 86.1837 173.216 86.7717 173.216ZM95.3371 181.112C94.6184 181.112 93.9698 180.953 93.3911 180.636C92.8218 180.309 92.3691 179.852 92.0331 179.264C91.7064 178.667 91.5431 177.971 91.5431 177.178C91.5431 176.385 91.7111 175.694 92.0471 175.106C92.3831 174.509 92.8404 174.051 93.4191 173.734C93.9978 173.407 94.6464 173.244 95.3651 173.244C96.0838 173.244 96.7324 173.407 97.3111 173.734C97.8991 174.051 98.3564 174.509 98.6831 175.106C99.0191 175.694 99.1871 176.385 99.1871 177.178C99.1871 177.962 99.0191 178.653 98.6831 179.25C98.3471 179.847 97.8851 180.309 97.2971 180.636C96.7091 180.953 96.0558 181.112 95.3371 181.112ZM95.3371 180.258C95.8411 180.258 96.3078 180.146 96.7371 179.922C97.1664 179.689 97.5118 179.343 97.7731 178.886C98.0438 178.419 98.1791 177.85 98.1791 177.178C98.1791 176.506 98.0484 175.941 97.7871 175.484C97.5258 175.017 97.1804 174.672 96.7511 174.448C96.3218 174.215 95.8551 174.098 95.3511 174.098C94.8471 174.098 94.3804 174.215 93.9511 174.448C93.5218 174.672 93.1764 175.017 92.9151 175.484C92.6631 175.941 92.5371 176.506 92.5371 177.178C92.5371 177.85 92.6631 178.419 92.9151 178.886C93.1764 179.343 93.5171 179.689 93.9371 179.922C94.3664 180.146 94.8331 180.258 95.3371 180.258ZM101.954 174.714C102.168 174.238 102.495 173.869 102.934 173.608C103.382 173.347 103.928 173.216 104.572 173.216V174.238H104.306C103.596 174.238 103.027 174.429 102.598 174.812C102.168 175.195 101.954 175.834 101.954 176.73V181H100.974V173.356H101.954V174.714ZM107.32 174.182V178.928C107.32 179.395 107.408 179.717 107.586 179.894C107.763 180.071 108.076 180.16 108.524 180.16H109.42V181H108.37C107.679 181 107.166 180.841 106.83 180.524C106.494 180.197 106.326 179.665 106.326 178.928V174.182H105.262V173.356H106.326V171.438H107.32V173.356H109.42V174.182H107.32ZM115.782 175.4V176.226H110.336V175.4H115.782ZM124.022 171.214V172.026H121.306V181H120.326V172.026H117.596V171.214H124.022ZM132.485 176.786C132.485 177.122 132.476 177.379 132.457 177.556H126.115C126.143 178.135 126.283 178.629 126.535 179.04C126.787 179.451 127.119 179.763 127.529 179.978C127.94 180.183 128.388 180.286 128.873 180.286C129.508 180.286 130.04 180.132 130.469 179.824C130.908 179.516 131.197 179.101 131.337 178.578H132.373C132.187 179.325 131.785 179.936 131.169 180.412C130.563 180.879 129.797 181.112 128.873 181.112C128.155 181.112 127.511 180.953 126.941 180.636C126.372 180.309 125.924 179.852 125.597 179.264C125.28 178.667 125.121 177.971 125.121 177.178C125.121 176.385 125.28 175.689 125.597 175.092C125.915 174.495 126.358 174.037 126.927 173.72C127.497 173.403 128.145 173.244 128.873 173.244C129.601 173.244 130.236 173.403 130.777 173.72C131.328 174.037 131.748 174.467 132.037 175.008C132.336 175.54 132.485 176.133 132.485 176.786ZM131.491 176.758C131.501 176.189 131.384 175.703 131.141 175.302C130.908 174.901 130.586 174.597 130.175 174.392C129.765 174.187 129.317 174.084 128.831 174.084C128.103 174.084 127.483 174.317 126.969 174.784C126.456 175.251 126.171 175.909 126.115 176.758H131.491ZM135.258 174.714C135.473 174.238 135.8 173.869 136.238 173.608C136.686 173.347 137.232 173.216 137.876 173.216V174.238H137.61C136.901 174.238 136.332 174.429 135.902 174.812C135.473 175.195 135.258 175.834 135.258 176.73V181H134.278V173.356H135.258V174.714ZM148.45 173.216C149.346 173.216 150.074 173.501 150.634 174.07C151.204 174.63 151.488 175.447 151.488 176.52V181H150.522V176.632C150.522 175.801 150.322 175.167 149.92 174.728C149.519 174.289 148.973 174.07 148.282 174.07C147.564 174.07 146.99 174.308 146.56 174.784C146.131 175.26 145.916 175.951 145.916 176.856V181H144.95V176.632C144.95 175.801 144.75 175.167 144.348 174.728C143.947 174.289 143.396 174.07 142.696 174.07C141.978 174.07 141.404 174.308 140.974 174.784C140.545 175.26 140.33 175.951 140.33 176.856V181H139.35V173.356H140.33V174.672C140.573 174.196 140.918 173.837 141.366 173.594C141.814 173.342 142.314 173.216 142.864 173.216C143.527 173.216 144.106 173.375 144.6 173.692C145.104 174.009 145.468 174.476 145.692 175.092C145.898 174.485 146.248 174.023 146.742 173.706C147.246 173.379 147.816 173.216 148.45 173.216ZM165.207 174.07C164.927 173.426 164.497 172.922 163.919 172.558C163.349 172.185 162.677 171.998 161.903 171.998C161.175 171.998 160.521 172.166 159.943 172.502C159.364 172.838 158.907 173.319 158.571 173.944C158.235 174.56 158.067 175.279 158.067 176.1C158.067 176.921 158.235 177.645 158.571 178.27C158.907 178.895 159.364 179.376 159.943 179.712C160.521 180.048 161.175 180.216 161.903 180.216C162.584 180.216 163.195 180.071 163.737 179.782C164.287 179.483 164.726 179.063 165.053 178.522C165.389 177.971 165.58 177.332 165.627 176.604H161.511V175.806H166.663V176.52C166.616 177.379 166.383 178.158 165.963 178.858C165.543 179.549 164.978 180.095 164.269 180.496C163.569 180.897 162.78 181.098 161.903 181.098C160.997 181.098 160.176 180.888 159.439 180.468C158.701 180.039 158.118 179.446 157.689 178.69C157.269 177.925 157.059 177.061 157.059 176.1C157.059 175.139 157.269 174.28 157.689 173.524C158.118 172.759 158.701 172.166 159.439 171.746C160.176 171.317 160.997 171.102 161.903 171.102C162.948 171.102 163.863 171.363 164.647 171.886C165.431 172.409 166 173.137 166.355 174.07H165.207ZM171.804 181.112C171.085 181.112 170.437 180.953 169.858 180.636C169.289 180.309 168.836 179.852 168.5 179.264C168.173 178.667 168.01 177.971 168.01 177.178C168.01 176.385 168.178 175.694 168.514 175.106C168.85 174.509 169.307 174.051 169.886 173.734C170.465 173.407 171.113 173.244 171.832 173.244C172.551 173.244 173.199 173.407 173.778 173.734C174.366 174.051 174.823 174.509 175.15 175.106C175.486 175.694 175.654 176.385 175.654 177.178C175.654 177.962 175.486 178.653 175.15 179.25C174.814 179.847 174.352 180.309 173.764 180.636C173.176 180.953 172.523 181.112 171.804 181.112ZM171.804 180.258C172.308 180.258 172.775 180.146 173.204 179.922C173.633 179.689 173.979 179.343 174.24 178.886C174.511 178.419 174.646 177.85 174.646 177.178C174.646 176.506 174.515 175.941 174.254 175.484C173.993 175.017 173.647 174.672 173.218 174.448C172.789 174.215 172.322 174.098 171.818 174.098C171.314 174.098 170.847 174.215 170.418 174.448C169.989 174.672 169.643 175.017 169.382 175.484C169.13 175.941 169.004 176.506 169.004 177.178C169.004 177.85 169.13 178.419 169.382 178.886C169.643 179.343 169.984 179.689 170.404 179.922C170.833 180.146 171.3 180.258 171.804 180.258ZM176.992 177.164C176.992 176.38 177.146 175.694 177.454 175.106C177.772 174.509 178.206 174.051 178.756 173.734C179.316 173.407 179.946 173.244 180.646 173.244C181.374 173.244 182 173.412 182.522 173.748C183.054 174.084 183.437 174.513 183.67 175.036V173.356H184.65V181H183.67V179.306C183.428 179.829 183.04 180.263 182.508 180.608C181.986 180.944 181.36 181.112 180.632 181.112C179.942 181.112 179.316 180.949 178.756 180.622C178.206 180.295 177.772 179.833 177.454 179.236C177.146 178.639 176.992 177.948 176.992 177.164ZM183.67 177.178C183.67 176.562 183.544 176.021 183.292 175.554C183.04 175.087 182.695 174.728 182.256 174.476C181.827 174.224 181.351 174.098 180.828 174.098C180.287 174.098 179.802 174.219 179.372 174.462C178.943 174.705 178.602 175.059 178.35 175.526C178.108 175.983 177.986 176.529 177.986 177.164C177.986 177.789 178.108 178.34 178.35 178.816C178.602 179.283 178.943 179.642 179.372 179.894C179.802 180.137 180.287 180.258 180.828 180.258C181.351 180.258 181.827 180.132 182.256 179.88C182.695 179.628 183.04 179.269 183.292 178.802C183.544 178.335 183.67 177.794 183.67 177.178ZM187.868 170.64V181H186.888V170.64H187.868ZM192.719 181.112C191.841 181.112 191.123 180.911 190.563 180.51C190.012 180.099 189.704 179.544 189.639 178.844H190.647C190.693 179.273 190.894 179.623 191.249 179.894C191.613 180.155 192.098 180.286 192.705 180.286C193.237 180.286 193.652 180.16 193.951 179.908C194.259 179.656 194.413 179.343 194.413 178.97C194.413 178.709 194.329 178.494 194.161 178.326C193.993 178.158 193.778 178.027 193.517 177.934C193.265 177.831 192.919 177.724 192.481 177.612C191.911 177.463 191.449 177.313 191.095 177.164C190.74 177.015 190.437 176.795 190.185 176.506C189.942 176.207 189.821 175.811 189.821 175.316C189.821 174.943 189.933 174.597 190.157 174.28C190.381 173.963 190.698 173.711 191.109 173.524C191.519 173.337 191.986 173.244 192.509 173.244C193.33 173.244 193.993 173.454 194.497 173.874C195.001 174.285 195.271 174.854 195.309 175.582H194.329C194.301 175.134 194.123 174.775 193.797 174.504C193.479 174.224 193.041 174.084 192.481 174.084C191.986 174.084 191.585 174.201 191.277 174.434C190.969 174.667 190.815 174.957 190.815 175.302C190.815 175.601 190.903 175.848 191.081 176.044C191.267 176.231 191.496 176.38 191.767 176.492C192.037 176.595 192.401 176.711 192.859 176.842C193.409 176.991 193.848 177.136 194.175 177.276C194.501 177.416 194.781 177.621 195.015 177.892C195.248 178.163 195.369 178.522 195.379 178.97C195.379 179.381 195.267 179.749 195.043 180.076C194.819 180.393 194.506 180.645 194.105 180.832C193.703 181.019 193.241 181.112 192.719 181.112ZM198.12 179.376L196.664 183.044H195.992L197.028 179.376H198.12ZM204.465 180.202H207.979V181H203.485V171.214H204.465V180.202ZM212.724 181.112C212.005 181.112 211.356 180.953 210.778 180.636C210.208 180.309 209.756 179.852 209.42 179.264C209.093 178.667 208.93 177.971 208.93 177.178C208.93 176.385 209.098 175.694 209.434 175.106C209.77 174.509 210.227 174.051 210.806 173.734C211.384 173.407 212.033 173.244 212.752 173.244C213.47 173.244 214.119 173.407 214.698 173.734C215.286 174.051 215.743 174.509 216.07 175.106C216.406 175.694 216.574 176.385 216.574 177.178C216.574 177.962 216.406 178.653 216.07 179.25C215.734 179.847 215.272 180.309 214.684 180.636C214.096 180.953 213.442 181.112 212.724 181.112ZM212.724 180.258C213.228 180.258 213.694 180.146 214.124 179.922C214.553 179.689 214.898 179.343 215.16 178.886C215.43 178.419 215.566 177.85 215.566 177.178C215.566 176.506 215.435 175.941 215.174 175.484C214.912 175.017 214.567 174.672 214.138 174.448C213.708 174.215 213.242 174.098 212.738 174.098C212.234 174.098 211.767 174.215 211.338 174.448C210.908 174.672 210.563 175.017 210.302 175.484C210.05 175.941 209.924 176.506 209.924 177.178C209.924 177.85 210.05 178.419 210.302 178.886C210.563 179.343 210.904 179.689 211.324 179.922C211.753 180.146 212.22 180.258 212.724 180.258ZM221.944 173.216C222.859 173.216 223.606 173.501 224.184 174.07C224.763 174.63 225.052 175.447 225.052 176.52V181H224.086V176.632C224.086 175.801 223.876 175.167 223.456 174.728C223.046 174.289 222.481 174.07 221.762 174.07C221.025 174.07 220.437 174.303 219.998 174.77C219.56 175.237 219.34 175.923 219.34 176.828V181H218.36V173.356H219.34V174.658C219.583 174.191 219.933 173.837 220.39 173.594C220.848 173.342 221.366 173.216 221.944 173.216ZM230.426 173.244C231.144 173.244 231.77 173.412 232.302 173.748C232.834 174.084 233.216 174.509 233.45 175.022V173.356H234.43V181.196C234.43 181.896 234.276 182.517 233.968 183.058C233.669 183.599 233.249 184.015 232.708 184.304C232.166 184.603 231.55 184.752 230.86 184.752C229.88 184.752 229.063 184.519 228.41 184.052C227.766 183.585 227.364 182.951 227.206 182.148H228.172C228.34 182.68 228.657 183.105 229.124 183.422C229.6 183.739 230.178 183.898 230.86 183.898C231.354 183.898 231.798 183.791 232.19 183.576C232.582 183.371 232.89 183.063 233.114 182.652C233.338 182.241 233.45 181.756 233.45 181.196V179.306C233.207 179.829 232.82 180.263 232.288 180.608C231.765 180.944 231.144 181.112 230.426 181.112C229.726 181.112 229.096 180.949 228.536 180.622C227.985 180.295 227.551 179.833 227.234 179.236C226.926 178.639 226.772 177.948 226.772 177.164C226.772 176.38 226.926 175.694 227.234 175.106C227.551 174.509 227.985 174.051 228.536 173.734C229.096 173.407 229.726 173.244 230.426 173.244ZM233.45 177.178C233.45 176.562 233.324 176.021 233.072 175.554C232.82 175.087 232.474 174.728 232.036 174.476C231.606 174.224 231.13 174.098 230.608 174.098C230.066 174.098 229.581 174.219 229.152 174.462C228.722 174.705 228.382 175.059 228.13 175.526C227.887 175.983 227.766 176.529 227.766 177.164C227.766 177.789 227.887 178.34 228.13 178.816C228.382 179.283 228.722 179.642 229.152 179.894C229.581 180.137 230.066 180.258 230.608 180.258C231.13 180.258 231.606 180.132 232.036 179.88C232.474 179.628 232.82 179.269 233.072 178.802C233.324 178.335 233.45 177.794 233.45 177.178ZM241.413 175.4V176.226H235.967V175.4H241.413ZM249.653 171.214V172.026H246.937V181H245.957V172.026H243.227V171.214H249.653ZM258.116 176.786C258.116 177.122 258.107 177.379 258.088 177.556H251.746C251.774 178.135 251.914 178.629 252.166 179.04C252.418 179.451 252.749 179.763 253.16 179.978C253.571 180.183 254.019 180.286 254.504 180.286C255.139 180.286 255.671 180.132 256.1 179.824C256.539 179.516 256.828 179.101 256.968 178.578H258.004C257.817 179.325 257.416 179.936 256.8 180.412C256.193 180.879 255.428 181.112 254.504 181.112C253.785 181.112 253.141 180.953 252.572 180.636C252.003 180.309 251.555 179.852 251.228 179.264C250.911 178.667 250.752 177.971 250.752 177.178C250.752 176.385 250.911 175.689 251.228 175.092C251.545 174.495 251.989 174.037 252.558 173.72C253.127 173.403 253.776 173.244 254.504 173.244C255.232 173.244 255.867 173.403 256.408 173.72C256.959 174.037 257.379 174.467 257.668 175.008C257.967 175.54 258.116 176.133 258.116 176.786ZM257.122 176.758C257.131 176.189 257.015 175.703 256.772 175.302C256.539 174.901 256.217 174.597 255.806 174.392C255.395 174.187 254.947 174.084 254.462 174.084C253.734 174.084 253.113 174.317 252.6 174.784C252.087 175.251 251.802 175.909 251.746 176.758H257.122ZM260.889 174.714C261.104 174.238 261.43 173.869 261.869 173.608C262.317 173.347 262.863 173.216 263.507 173.216V174.238H263.241C262.532 174.238 261.962 174.429 261.533 174.812C261.104 175.195 260.889 175.834 260.889 176.73V181H259.909V173.356H260.889V174.714ZM274.081 173.216C274.977 173.216 275.705 173.501 276.265 174.07C276.835 174.63 277.119 175.447 277.119 176.52V181H276.153V176.632C276.153 175.801 275.953 175.167 275.551 174.728C275.15 174.289 274.604 174.07 273.913 174.07C273.195 174.07 272.621 174.308 272.191 174.784C271.762 175.26 271.547 175.951 271.547 176.856V181H270.581V176.632C270.581 175.801 270.381 175.167 269.979 174.728C269.578 174.289 269.027 174.07 268.327 174.07C267.609 174.07 267.035 174.308 266.605 174.784C266.176 175.26 265.961 175.951 265.961 176.856V181H264.981V173.356H265.961V174.672C266.204 174.196 266.549 173.837 266.997 173.594C267.445 173.342 267.945 173.216 268.495 173.216C269.158 173.216 269.737 173.375 270.231 173.692C270.735 174.009 271.099 174.476 271.323 175.092C271.529 174.485 271.879 174.023 272.373 173.706C272.877 173.379 273.447 173.216 274.081 173.216ZM82.82 195.07C82.54 194.426 82.1107 193.922 81.532 193.558C80.9627 193.185 80.2907 192.998 79.516 192.998C78.788 192.998 78.1347 193.166 77.556 193.502C76.9773 193.838 76.52 194.319 76.184 194.944C75.848 195.56 75.68 196.279 75.68 197.1C75.68 197.921 75.848 198.645 76.184 199.27C76.52 199.895 76.9773 200.376 77.556 200.712C78.1347 201.048 78.788 201.216 79.516 201.216C80.1973 201.216 80.8087 201.071 81.35 200.782C81.9007 200.483 82.3393 200.063 82.666 199.522C83.002 198.971 83.1933 198.332 83.24 197.604H79.124V196.806H84.276V197.52C84.2293 198.379 83.996 199.158 83.576 199.858C83.156 200.549 82.5913 201.095 81.882 201.496C81.182 201.897 80.3933 202.098 79.516 202.098C78.6107 202.098 77.7893 201.888 77.052 201.468C76.3147 201.039 75.7313 200.446 75.302 199.69C74.882 198.925 74.672 198.061 74.672 197.1C74.672 196.139 74.882 195.28 75.302 194.524C75.7313 193.759 76.3147 193.166 77.052 192.746C77.7893 192.317 78.6107 192.102 79.516 192.102C80.5613 192.102 81.476 192.363 82.26 192.886C83.044 193.409 83.6133 194.137 83.968 195.07H82.82ZM89.4172 202.112C88.6985 202.112 88.0498 201.953 87.4712 201.636C86.9018 201.309 86.4492 200.852 86.1132 200.264C85.7865 199.667 85.6232 198.971 85.6232 198.178C85.6232 197.385 85.7912 196.694 86.1272 196.106C86.4632 195.509 86.9205 195.051 87.4992 194.734C88.0778 194.407 88.7265 194.244 89.4452 194.244C90.1638 194.244 90.8125 194.407 91.3912 194.734C91.9792 195.051 92.4365 195.509 92.7632 196.106C93.0992 196.694 93.2672 197.385 93.2672 198.178C93.2672 198.962 93.0992 199.653 92.7632 200.25C92.4272 200.847 91.9652 201.309 91.3772 201.636C90.7892 201.953 90.1358 202.112 89.4172 202.112ZM89.4172 201.258C89.9212 201.258 90.3878 201.146 90.8172 200.922C91.2465 200.689 91.5918 200.343 91.8532 199.886C92.1238 199.419 92.2592 198.85 92.2592 198.178C92.2592 197.506 92.1285 196.941 91.8672 196.484C91.6058 196.017 91.2605 195.672 90.8312 195.448C90.4018 195.215 89.9352 195.098 89.4312 195.098C88.9272 195.098 88.4605 195.215 88.0312 195.448C87.6018 195.672 87.2565 196.017 86.9952 196.484C86.7432 196.941 86.6172 197.506 86.6172 198.178C86.6172 198.85 86.7432 199.419 86.9952 199.886C87.2565 200.343 87.5972 200.689 88.0172 200.922C88.4465 201.146 88.9132 201.258 89.4172 201.258ZM94.6056 198.164C94.6056 197.38 94.7596 196.694 95.0676 196.106C95.3849 195.509 95.8189 195.051 96.3696 194.734C96.9296 194.407 97.5596 194.244 98.2596 194.244C98.9876 194.244 99.6129 194.412 100.136 194.748C100.668 195.084 101.05 195.513 101.284 196.036V194.356H102.264V202H101.284V200.306C101.041 200.829 100.654 201.263 100.122 201.608C99.5989 201.944 98.9736 202.112 98.2456 202.112C97.5549 202.112 96.9296 201.949 96.3696 201.622C95.8189 201.295 95.3849 200.833 95.0676 200.236C94.7596 199.639 94.6056 198.948 94.6056 198.164ZM101.284 198.178C101.284 197.562 101.158 197.021 100.906 196.554C100.654 196.087 100.308 195.728 99.8696 195.476C99.4403 195.224 98.9643 195.098 98.4416 195.098C97.9003 195.098 97.4149 195.219 96.9856 195.462C96.5563 195.705 96.2156 196.059 95.9636 196.526C95.7209 196.983 95.5996 197.529 95.5996 198.164C95.5996 198.789 95.7209 199.34 95.9636 199.816C96.2156 200.283 96.5563 200.642 96.9856 200.894C97.4149 201.137 97.9003 201.258 98.4416 201.258C98.9643 201.258 99.4403 201.132 99.8696 200.88C100.308 200.628 100.654 200.269 100.906 199.802C101.158 199.335 101.284 198.794 101.284 198.178ZM105.481 191.64V202H104.501V191.64H105.481ZM110.332 202.112C109.455 202.112 108.736 201.911 108.176 201.51C107.625 201.099 107.317 200.544 107.252 199.844H108.26C108.307 200.273 108.507 200.623 108.862 200.894C109.226 201.155 109.711 201.286 110.318 201.286C110.85 201.286 111.265 201.16 111.564 200.908C111.872 200.656 112.026 200.343 112.026 199.97C112.026 199.709 111.942 199.494 111.774 199.326C111.606 199.158 111.391 199.027 111.13 198.934C110.878 198.831 110.533 198.724 110.094 198.612C109.525 198.463 109.063 198.313 108.708 198.164C108.353 198.015 108.05 197.795 107.798 197.506C107.555 197.207 107.434 196.811 107.434 196.316C107.434 195.943 107.546 195.597 107.77 195.28C107.994 194.963 108.311 194.711 108.722 194.524C109.133 194.337 109.599 194.244 110.122 194.244C110.943 194.244 111.606 194.454 112.11 194.874C112.614 195.285 112.885 195.854 112.922 196.582H111.942C111.914 196.134 111.737 195.775 111.41 195.504C111.093 195.224 110.654 195.084 110.094 195.084C109.599 195.084 109.198 195.201 108.89 195.434C108.582 195.667 108.428 195.957 108.428 196.302C108.428 196.601 108.517 196.848 108.694 197.044C108.881 197.231 109.109 197.38 109.38 197.492C109.651 197.595 110.015 197.711 110.472 197.842C111.023 197.991 111.461 198.136 111.788 198.276C112.115 198.416 112.395 198.621 112.628 198.892C112.861 199.163 112.983 199.522 112.992 199.97C112.992 200.381 112.88 200.749 112.656 201.076C112.432 201.393 112.119 201.645 111.718 201.832C111.317 202.019 110.855 202.112 110.332 202.112ZM115.733 200.376L114.277 204.044H113.605L114.641 200.376H115.733ZM126.391 192.214V193.026H122.079V196.68H125.719V197.492H122.079V202H121.099V192.214H126.391ZM128.493 192.914C128.297 192.914 128.129 192.844 127.989 192.704C127.849 192.564 127.779 192.391 127.779 192.186C127.779 191.981 127.849 191.813 127.989 191.682C128.129 191.542 128.297 191.472 128.493 191.472C128.689 191.472 128.857 191.542 128.997 191.682C129.137 191.813 129.207 191.981 129.207 192.186C129.207 192.391 129.137 192.564 128.997 192.704C128.857 192.844 128.689 192.914 128.493 192.914ZM128.983 194.356V202H128.003V194.356H128.983ZM134.786 194.216C135.701 194.216 136.447 194.501 137.026 195.07C137.605 195.63 137.894 196.447 137.894 197.52V202H136.928V197.632C136.928 196.801 136.718 196.167 136.298 195.728C135.887 195.289 135.323 195.07 134.604 195.07C133.867 195.07 133.279 195.303 132.84 195.77C132.401 196.237 132.182 196.923 132.182 197.828V202H131.202V194.356H132.182V195.658C132.425 195.191 132.775 194.837 133.232 194.594C133.689 194.342 134.207 194.216 134.786 194.216ZM139.613 198.164C139.613 197.38 139.767 196.694 140.075 196.106C140.393 195.509 140.827 195.051 141.377 194.734C141.937 194.407 142.567 194.244 143.267 194.244C143.995 194.244 144.621 194.412 145.143 194.748C145.675 195.084 146.058 195.513 146.291 196.036V194.356H147.271V202H146.291V200.306C146.049 200.829 145.661 201.263 145.129 201.608C144.607 201.944 143.981 202.112 143.253 202.112C142.563 202.112 141.937 201.949 141.377 201.622C140.827 201.295 140.393 200.833 140.075 200.236C139.767 199.639 139.613 198.948 139.613 198.164ZM146.291 198.178C146.291 197.562 146.165 197.021 145.913 196.554C145.661 196.087 145.316 195.728 144.877 195.476C144.448 195.224 143.972 195.098 143.449 195.098C142.908 195.098 142.423 195.219 141.993 195.462C141.564 195.705 141.223 196.059 140.971 196.526C140.729 196.983 140.607 197.529 140.607 198.164C140.607 198.789 140.729 199.34 140.971 199.816C141.223 200.283 141.564 200.642 141.993 200.894C142.423 201.137 142.908 201.258 143.449 201.258C143.972 201.258 144.448 201.132 144.877 200.88C145.316 200.628 145.661 200.269 145.913 199.802C146.165 199.335 146.291 198.794 146.291 198.178ZM153.093 194.216C154.007 194.216 154.754 194.501 155.333 195.07C155.911 195.63 156.201 196.447 156.201 197.52V202H155.235V197.632C155.235 196.801 155.025 196.167 154.605 195.728C154.194 195.289 153.629 195.07 152.911 195.07C152.173 195.07 151.585 195.303 151.147 195.77C150.708 196.237 150.489 196.923 150.489 197.828V202H149.509V194.356H150.489V195.658C150.731 195.191 151.081 194.837 151.539 194.594C151.996 194.342 152.514 194.216 153.093 194.216ZM157.92 198.178C157.92 197.385 158.079 196.694 158.396 196.106C158.713 195.509 159.152 195.051 159.712 194.734C160.272 194.407 160.911 194.244 161.63 194.244C162.573 194.244 163.347 194.477 163.954 194.944C164.57 195.411 164.967 196.045 165.144 196.848H164.094C163.963 196.297 163.679 195.868 163.24 195.56C162.811 195.243 162.274 195.084 161.63 195.084C161.117 195.084 160.655 195.201 160.244 195.434C159.833 195.667 159.507 196.017 159.264 196.484C159.031 196.941 158.914 197.506 158.914 198.178C158.914 198.85 159.031 199.419 159.264 199.886C159.507 200.353 159.833 200.703 160.244 200.936C160.655 201.169 161.117 201.286 161.63 201.286C162.274 201.286 162.811 201.132 163.24 200.824C163.679 200.507 163.963 200.068 164.094 199.508H165.144C164.967 200.292 164.57 200.922 163.954 201.398C163.338 201.874 162.563 202.112 161.63 202.112C160.911 202.112 160.272 201.953 159.712 201.636C159.152 201.309 158.713 200.852 158.396 200.264C158.079 199.667 157.92 198.971 157.92 198.178ZM167.444 192.914C167.248 192.914 167.08 192.844 166.94 192.704C166.8 192.564 166.73 192.391 166.73 192.186C166.73 191.981 166.8 191.813 166.94 191.682C167.08 191.542 167.248 191.472 167.444 191.472C167.64 191.472 167.808 191.542 167.948 191.682C168.088 191.813 168.158 191.981 168.158 192.186C168.158 192.391 168.088 192.564 167.948 192.704C167.808 192.844 167.64 192.914 167.444 192.914ZM167.934 194.356V202H166.954V194.356H167.934ZM169.705 198.164C169.705 197.38 169.859 196.694 170.167 196.106C170.485 195.509 170.919 195.051 171.469 194.734C172.029 194.407 172.659 194.244 173.359 194.244C174.087 194.244 174.713 194.412 175.235 194.748C175.767 195.084 176.15 195.513 176.383 196.036V194.356H177.363V202H176.383V200.306C176.141 200.829 175.753 201.263 175.221 201.608C174.699 201.944 174.073 202.112 173.345 202.112C172.655 202.112 172.029 201.949 171.469 201.622C170.919 201.295 170.485 200.833 170.167 200.236C169.859 199.639 169.705 198.948 169.705 198.164ZM176.383 198.178C176.383 197.562 176.257 197.021 176.005 196.554C175.753 196.087 175.408 195.728 174.969 195.476C174.54 195.224 174.064 195.098 173.541 195.098C173 195.098 172.515 195.219 172.085 195.462C171.656 195.705 171.315 196.059 171.063 196.526C170.821 196.983 170.699 197.529 170.699 198.164C170.699 198.789 170.821 199.34 171.063 199.816C171.315 200.283 171.656 200.642 172.085 200.894C172.515 201.137 173 201.258 173.541 201.258C174.064 201.258 174.54 201.132 174.969 200.88C175.408 200.628 175.753 200.269 176.005 199.802C176.257 199.335 176.383 198.794 176.383 198.178ZM180.58 191.64V202H179.6V191.64H180.58ZM192.899 195.028C192.899 195.868 192.624 196.545 192.073 197.058C191.523 197.571 190.697 197.828 189.595 197.828H187.621V202H186.641V192.214H189.595C190.687 192.214 191.509 192.471 192.059 192.984C192.619 193.497 192.899 194.179 192.899 195.028ZM189.595 196.988C191.126 196.988 191.891 196.335 191.891 195.028C191.891 194.375 191.709 193.88 191.345 193.544C190.981 193.208 190.398 193.04 189.595 193.04H187.621V196.988H189.595ZM195.524 195.714C195.738 195.238 196.065 194.869 196.504 194.608C196.952 194.347 197.498 194.216 198.142 194.216V195.238H197.876C197.166 195.238 196.597 195.429 196.168 195.812C195.738 196.195 195.524 196.834 195.524 197.73V202H194.544V194.356H195.524V195.714ZM202.962 202.112C202.243 202.112 201.595 201.953 201.016 201.636C200.447 201.309 199.994 200.852 199.658 200.264C199.331 199.667 199.168 198.971 199.168 198.178C199.168 197.385 199.336 196.694 199.672 196.106C200.008 195.509 200.465 195.051 201.044 194.734C201.623 194.407 202.271 194.244 202.99 194.244C203.709 194.244 204.357 194.407 204.936 194.734C205.524 195.051 205.981 195.509 206.308 196.106C206.644 196.694 206.812 197.385 206.812 198.178C206.812 198.962 206.644 199.653 206.308 200.25C205.972 200.847 205.51 201.309 204.922 201.636C204.334 201.953 203.681 202.112 202.962 202.112ZM202.962 201.258C203.466 201.258 203.933 201.146 204.362 200.922C204.791 200.689 205.137 200.343 205.398 199.886C205.669 199.419 205.804 198.85 205.804 198.178C205.804 197.506 205.673 196.941 205.412 196.484C205.151 196.017 204.805 195.672 204.376 195.448C203.947 195.215 203.48 195.098 202.976 195.098C202.472 195.098 202.005 195.215 201.576 195.448C201.147 195.672 200.801 196.017 200.54 196.484C200.288 196.941 200.162 197.506 200.162 198.178C200.162 198.85 200.288 199.419 200.54 199.886C200.801 200.343 201.142 200.689 201.562 200.922C201.991 201.146 202.458 201.258 202.962 201.258ZM209.159 192.914C208.963 192.914 208.795 192.844 208.655 192.704C208.515 192.564 208.445 192.391 208.445 192.186C208.445 191.981 208.515 191.813 208.655 191.682C208.795 191.542 208.963 191.472 209.159 191.472C209.355 191.472 209.518 191.542 209.649 191.682C209.789 191.813 209.859 191.981 209.859 192.186C209.859 192.391 209.789 192.564 209.649 192.704C209.518 192.844 209.355 192.914 209.159 192.914ZM209.635 203.806C209.635 204.422 209.481 204.875 209.173 205.164C208.865 205.463 208.403 205.612 207.787 205.612H207.101V204.772H207.633C207.997 204.772 208.258 204.693 208.417 204.534C208.575 204.385 208.655 204.128 208.655 203.764V194.356H209.635V203.806ZM218.796 197.786C218.796 198.122 218.786 198.379 218.768 198.556H212.426C212.454 199.135 212.594 199.629 212.846 200.04C213.098 200.451 213.429 200.763 213.84 200.978C214.25 201.183 214.698 201.286 215.184 201.286C215.818 201.286 216.35 201.132 216.78 200.824C217.218 200.516 217.508 200.101 217.648 199.578H218.684C218.497 200.325 218.096 200.936 217.48 201.412C216.873 201.879 216.108 202.112 215.184 202.112C214.465 202.112 213.821 201.953 213.252 201.636C212.682 201.309 212.234 200.852 211.908 200.264C211.59 199.667 211.432 198.971 211.432 198.178C211.432 197.385 211.59 196.689 211.908 196.092C212.225 195.495 212.668 195.037 213.238 194.72C213.807 194.403 214.456 194.244 215.184 194.244C215.912 194.244 216.546 194.403 217.088 194.72C217.638 195.037 218.058 195.467 218.348 196.008C218.646 196.54 218.796 197.133 218.796 197.786ZM217.802 197.758C217.811 197.189 217.694 196.703 217.452 196.302C217.218 195.901 216.896 195.597 216.486 195.392C216.075 195.187 215.627 195.084 215.142 195.084C214.414 195.084 213.793 195.317 213.28 195.784C212.766 196.251 212.482 196.909 212.426 197.758H217.802ZM220.141 198.178C220.141 197.385 220.299 196.694 220.617 196.106C220.934 195.509 221.373 195.051 221.933 194.734C222.493 194.407 223.132 194.244 223.851 194.244C224.793 194.244 225.568 194.477 226.175 194.944C226.791 195.411 227.187 196.045 227.365 196.848H226.315C226.184 196.297 225.899 195.868 225.461 195.56C225.031 195.243 224.495 195.084 223.851 195.084C223.337 195.084 222.875 195.201 222.465 195.434C222.054 195.667 221.727 196.017 221.485 196.484C221.251 196.941 221.135 197.506 221.135 198.178C221.135 198.85 221.251 199.419 221.485 199.886C221.727 200.353 222.054 200.703 222.465 200.936C222.875 201.169 223.337 201.286 223.851 201.286C224.495 201.286 225.031 201.132 225.461 200.824C225.899 200.507 226.184 200.068 226.315 199.508H227.365C227.187 200.292 226.791 200.922 226.175 201.398C225.559 201.874 224.784 202.112 223.851 202.112C223.132 202.112 222.493 201.953 221.933 201.636C221.373 201.309 220.934 200.852 220.617 200.264C220.299 199.667 220.141 198.971 220.141 198.178ZM230.449 195.182V199.928C230.449 200.395 230.537 200.717 230.715 200.894C230.892 201.071 231.205 201.16 231.653 201.16H232.549V202H231.499C230.808 202 230.295 201.841 229.959 201.524C229.623 201.197 229.455 200.665 229.455 199.928V195.182H228.391V194.356H229.455V192.438H230.449V194.356H232.549V195.182H230.449ZM234.655 192.914C234.459 192.914 234.291 192.844 234.151 192.704C234.011 192.564 233.941 192.391 233.941 192.186C233.941 191.981 234.011 191.813 234.151 191.682C234.291 191.542 234.459 191.472 234.655 191.472C234.851 191.472 235.019 191.542 235.159 191.682C235.299 191.813 235.369 191.981 235.369 192.186C235.369 192.391 235.299 192.564 235.159 192.704C235.019 192.844 234.851 192.914 234.655 192.914ZM235.145 194.356V202H234.165V194.356H235.145ZM240.71 202.112C239.991 202.112 239.343 201.953 238.764 201.636C238.195 201.309 237.742 200.852 237.406 200.264C237.079 199.667 236.916 198.971 236.916 198.178C236.916 197.385 237.084 196.694 237.42 196.106C237.756 195.509 238.213 195.051 238.792 194.734C239.371 194.407 240.019 194.244 240.738 194.244C241.457 194.244 242.105 194.407 242.684 194.734C243.272 195.051 243.729 195.509 244.056 196.106C244.392 196.694 244.56 197.385 244.56 198.178C244.56 198.962 244.392 199.653 244.056 200.25C243.72 200.847 243.258 201.309 242.67 201.636C242.082 201.953 241.429 202.112 240.71 202.112ZM240.71 201.258C241.214 201.258 241.681 201.146 242.11 200.922C242.539 200.689 242.885 200.343 243.146 199.886C243.417 199.419 243.552 198.85 243.552 198.178C243.552 197.506 243.421 196.941 243.16 196.484C242.899 196.017 242.553 195.672 242.124 195.448C241.695 195.215 241.228 195.098 240.724 195.098C240.22 195.098 239.753 195.215 239.324 195.448C238.895 195.672 238.549 196.017 238.288 196.484C238.036 196.941 237.91 197.506 237.91 198.178C237.91 198.85 238.036 199.419 238.288 199.886C238.549 200.343 238.89 200.689 239.31 200.922C239.739 201.146 240.206 201.258 240.71 201.258ZM249.931 194.216C250.845 194.216 251.592 194.501 252.171 195.07C252.749 195.63 253.039 196.447 253.039 197.52V202H252.073V197.632C252.073 196.801 251.863 196.167 251.443 195.728C251.032 195.289 250.467 195.07 249.749 195.07C249.011 195.07 248.423 195.303 247.985 195.77C247.546 196.237 247.327 196.923 247.327 197.828V202H246.347V194.356H247.327V195.658C247.569 195.191 247.919 194.837 248.377 194.594C248.834 194.342 249.352 194.216 249.931 194.216ZM257.838 202.112C256.961 202.112 256.242 201.911 255.682 201.51C255.131 201.099 254.823 200.544 254.758 199.844H255.766C255.813 200.273 256.013 200.623 256.368 200.894C256.732 201.155 257.217 201.286 257.824 201.286C258.356 201.286 258.771 201.16 259.07 200.908C259.378 200.656 259.532 200.343 259.532 199.97C259.532 199.709 259.448 199.494 259.28 199.326C259.112 199.158 258.897 199.027 258.636 198.934C258.384 198.831 258.039 198.724 257.6 198.612C257.031 198.463 256.569 198.313 256.214 198.164C255.859 198.015 255.556 197.795 255.304 197.506C255.061 197.207 254.94 196.811 254.94 196.316C254.94 195.943 255.052 195.597 255.276 195.28C255.5 194.963 255.817 194.711 256.228 194.524C256.639 194.337 257.105 194.244 257.628 194.244C258.449 194.244 259.112 194.454 259.616 194.874C260.12 195.285 260.391 195.854 260.428 196.582H259.448C259.42 196.134 259.243 195.775 258.916 195.504C258.599 195.224 258.16 195.084 257.6 195.084C257.105 195.084 256.704 195.201 256.396 195.434C256.088 195.667 255.934 195.957 255.934 196.302C255.934 196.601 256.023 196.848 256.2 197.044C256.387 197.231 256.615 197.38 256.886 197.492C257.157 197.595 257.521 197.711 257.978 197.842C258.529 197.991 258.967 198.136 259.294 198.276C259.621 198.416 259.901 198.621 260.134 198.892C260.367 199.163 260.489 199.522 260.498 199.97C260.498 200.381 260.386 200.749 260.162 201.076C259.938 201.393 259.625 201.645 259.224 201.832C258.823 202.019 258.361 202.112 257.838 202.112Z" fill="#575455"/>
</g>
<defs>
<filter id="filter0_d_26_187" x="0" y="0" width="372" height="286" filterUnits="userSpaceOnUse" color-interpolation-filters="sRGB">
<feFlood flood-opacity="0" result="BackgroundImageFix"/>
<feColorMatrix in="SourceAlpha" type="matrix" values="0 0 0 0 0 0 0 0 0 0 0 0 0 0 0 0 0 0 127 0" result="hardAlpha"/>
<feOffset dy="4"/>
<feGaussianBlur stdDeviation="22"/>
<feComposite in2="hardAlpha" operator="out"/>
<feColorMatrix type="matrix" values="0 0 0 0 0 0 0 0 0 0 0 0 0 0 0 0 0 0 0.07 0"/>
<feBlend mode="normal" in2="BackgroundImageFix" result="effect1_dropShadow_26_187"/>
<feBlend mode="normal" in="SourceGraphic" in2="effect1_dropShadow_26_187" result="shape"/>
</filter>
<filter id="filter1_b_26_187" x="-56" y="-60" width="484" height="398" filterUnits="userSpaceOnUse" color-interpolation-filters="sRGB">
<feFlood flood-opacity="0" result="BackgroundImageFix"/>
<feGaussianBlur in="BackgroundImageFix" stdDeviation="50"/>
<feComposite in2="SourceAlpha" operator="in" result="effect1_backgroundBlur_26_187"/>
<feBlend mode="normal" in="SourceGraphic" in2="effect1_backgroundBlur_26_187" result="shape"/>
</filter>
</defs>
</svg>
