<svg width="28" height="29" viewBox="0 0 28 29" fill="none" xmlns="http://www.w3.org/2000/svg">
<path d="M14 28C21.1797 28 27 21.9558 27 14.5C27 7.04416 21.1797 1 14 1C6.8203 1 1 7.04416 1 14.5C1 21.9558 6.8203 28 14 28Z" stroke="#524633" stroke-width="1.5" stroke-linecap="round" stroke-linejoin="round"/>
<path d="M2 10H26" stroke="#524633" stroke-width="1.5" stroke-linecap="round" stroke-linejoin="round"/>
<path d="M2 19H26" stroke="#524633" stroke-width="1.5" stroke-linecap="round" stroke-linejoin="round"/>
<path d="M14.5 27C17.5376 27 20 21.4036 20 14.5C20 7.59644 17.5376 2 14.5 2C11.4624 2 9 7.59644 9 14.5C9 21.4036 11.4624 27 14.5 27Z" stroke="#524633" stroke-width="1.5" stroke-linecap="round" stroke-linejoin="round"/>
</svg>
