<svg width="65" height="65" viewBox="0 0 65 65" fill="none" xmlns="http://www.w3.org/2000/svg">
<path d="M41.1605 25.3394H45.9213C48.0115 25.3394 49.7048 23.646 49.7048 21.556C49.7048 19.4949 48.0502 17.8208 45.9988 17.7821V3.78995C45.9988 1.97083 44.5279 0.5 42.7184 0.5H22.2915C20.482 0.5 19.0015 1.97084 19.0015 3.78995V17.7821C16.9501 17.8208 15.2954 19.4949 15.2954 21.556C15.2954 23.646 16.9985 25.3394 19.0789 25.3394H23.8494C16.8436 28.6101 11.957 35.7126 11.957 43.9472C11.957 55.2783 21.1787 64.5 32.5001 64.5C43.8312 64.5 53.0432 55.2783 53.0432 43.9472C53.0432 35.7126 48.1663 28.6101 41.1605 25.3394ZM37.706 2.43529H42.7184C43.4635 2.43529 44.0635 3.04491 44.0635 3.78996V17.7724H37.706V2.43529ZM29.2295 2.43529H35.7707V17.7724H29.2295V2.43529ZM20.9368 3.78995C20.9368 3.0449 21.5464 2.43528 22.2915 2.43528H27.2942V17.7724H20.9368V3.78995ZM19.0789 23.4041C18.0629 23.4041 17.2307 22.572 17.2307 21.5559C17.2307 20.5302 18.0629 19.7077 19.0789 19.7077H45.9213C46.9374 19.7077 47.7696 20.5302 47.7696 21.5559C47.7696 22.572 46.9374 23.4041 45.9213 23.4041H19.0789ZM32.5001 62.5647C22.2431 62.5647 13.8923 54.2139 13.8923 43.9472C13.8923 33.6999 22.214 25.3685 32.4517 25.3394H32.5485C42.7862 25.3685 51.1079 33.6999 51.1079 43.9472C51.1079 54.2139 42.7669 62.5647 32.5001 62.5647Z" fill="#524633"/>
<path d="M35.7695 2.43506H29.2285V17.7721H35.7695V2.43506Z" fill="#FFDB6B"/>
<path d="M47.7693 21.5557C47.7693 22.5718 46.9372 23.4039 45.9211 23.4039H19.0786C18.0626 23.4039 17.2305 22.5718 17.2305 21.5557C17.2305 20.53 18.0626 19.7075 19.0786 19.7075H45.9211C46.9372 19.7075 47.7693 20.53 47.7693 21.5557Z" fill="#FFDB6B"/>
<path d="M46.8993 39.0991C44.8092 32.9159 39.0323 28.7646 32.5007 28.7646C25.9788 28.7646 20.1923 32.9159 18.1118 39.0991C17.5893 40.6473 17.3184 42.2827 17.3184 43.9567C17.3184 45.6307 17.5893 47.2564 18.1118 48.8143C19.1569 51.901 21.1212 54.4846 23.6468 56.2941C26.1626 58.1036 29.2397 59.139 32.5007 59.139C39.0226 59.139 44.8092 54.9878 46.8993 48.8143C47.4218 47.2564 47.6927 45.6307 47.6927 43.9567C47.6927 42.2827 47.4218 40.6473 46.8993 39.0991ZM32.5007 30.6999C37.7357 30.6999 42.419 33.7577 44.5576 38.4411H20.4536C22.5823 33.7577 27.2755 30.6999 32.5007 30.6999ZM32.5007 57.2037C27.2755 57.2037 22.592 54.146 20.4536 49.4723H44.5576C42.419 54.146 37.7357 57.2037 32.5007 57.2037ZM45.2639 47.537H19.7375C19.4182 46.3855 19.2536 45.1759 19.2536 43.9567C19.2536 42.7278 19.4182 41.5279 19.7375 40.3764H45.2639C45.593 41.5279 45.7574 42.7278 45.7574 43.9567C45.7574 45.1856 45.5929 46.3855 45.2639 47.537Z" fill="#524633"/>
<path d="M45.7557 43.9568C45.7557 45.1857 45.5913 46.3856 45.2622 47.5371H19.7358C19.4165 46.3856 19.252 45.176 19.252 43.9568C19.252 42.7279 19.4165 41.528 19.7358 40.3765H45.2622C45.5913 41.528 45.7557 42.7279 45.7557 43.9568Z" fill="#FFDB6B"/>
</svg>
