<svg width="407" height="244" viewBox="0 0 407 244" fill="none" xmlns="http://www.w3.org/2000/svg">
<g filter="url(#filter0_d_26_172)">
<g filter="url(#filter1_b_26_172)">
<rect x="44" y="40" width="319" height="156" rx="30" fill="#F0E6CE"/>
</g>
<circle cx="96" cy="96" r="25" fill="#A67F28"/>
<path d="M91.0417 96.708L100.958 96.708" stroke="white" stroke-linecap="round"/>
<path d="M91.0417 100.958L96.7083 100.958" stroke="white" stroke-linecap="round"/>
<path d="M86.7917 86.358C86.7917 85.5179 86.7917 85.0979 86.9552 84.777C87.099 84.4948 87.3284 84.2653 87.6107 84.1215C87.9315 83.958 88.3516 83.958 89.1917 83.958H97.1309C97.4978 83.958 97.6812 83.958 97.8538 83.9995C98.0069 84.0362 98.1532 84.0968 98.2874 84.179C98.4388 84.2718 98.5685 84.4015 98.8279 84.661L104.505 90.3384C104.765 90.5978 104.895 90.7275 104.987 90.8789C105.07 91.0131 105.13 91.1594 105.167 91.3125C105.208 91.4851 105.208 91.6686 105.208 92.0355V105.641C105.208 106.481 105.208 106.901 105.045 107.222C104.901 107.505 104.672 107.734 104.389 107.878C104.068 108.041 103.648 108.041 102.808 108.041H89.1917C88.3516 108.041 87.9315 108.041 87.6107 107.878C87.3284 107.734 87.099 107.505 86.9552 107.222C86.7917 106.901 86.7917 106.481 86.7917 105.641V86.358Z" stroke="white"/>
<path d="M96.7083 83.958V90.058C96.7083 90.8981 96.7083 91.3181 96.8718 91.639C97.0156 91.9212 97.2451 92.1507 97.5274 92.2945C97.8482 92.458 98.2683 92.458 99.1083 92.458H105.208" stroke="white"/>
<path d="M138.672 141.1C138.672 140.139 138.882 139.28 139.302 138.524C139.722 137.759 140.296 137.166 141.024 136.746C141.752 136.317 142.564 136.102 143.46 136.102C144.552 136.102 145.485 136.363 146.26 136.886C147.044 137.399 147.613 138.127 147.968 139.07H146.82C146.54 138.407 146.111 137.889 145.532 137.516C144.963 137.143 144.272 136.956 143.46 136.956C142.741 136.956 142.093 137.124 141.514 137.46C140.945 137.796 140.497 138.281 140.17 138.916C139.843 139.541 139.68 140.269 139.68 141.1C139.68 141.931 139.843 142.659 140.17 143.284C140.497 143.909 140.945 144.39 141.514 144.726C142.093 145.062 142.741 145.23 143.46 145.23C144.272 145.23 144.963 145.048 145.532 144.684C146.111 144.311 146.54 143.797 146.82 143.144H147.968C147.613 144.077 147.044 144.801 146.26 145.314C145.476 145.827 144.543 146.084 143.46 146.084C142.564 146.084 141.752 145.874 141.024 145.454C140.296 145.025 139.722 144.432 139.302 143.676C138.882 142.92 138.672 142.061 138.672 141.1ZM149.473 142.164C149.473 141.38 149.627 140.694 149.935 140.106C150.252 139.509 150.686 139.051 151.237 138.734C151.797 138.407 152.427 138.244 153.127 138.244C153.855 138.244 154.48 138.412 155.003 138.748C155.535 139.084 155.917 139.513 156.151 140.036V138.356H157.131V146H156.151V144.306C155.908 144.829 155.521 145.263 154.989 145.608C154.466 145.944 153.841 146.112 153.113 146.112C152.422 146.112 151.797 145.949 151.237 145.622C150.686 145.295 150.252 144.833 149.935 144.236C149.627 143.639 149.473 142.948 149.473 142.164ZM156.151 142.178C156.151 141.562 156.025 141.021 155.773 140.554C155.521 140.087 155.175 139.728 154.737 139.476C154.307 139.224 153.831 139.098 153.309 139.098C152.767 139.098 152.282 139.219 151.853 139.462C151.423 139.705 151.083 140.059 150.831 140.526C150.588 140.983 150.467 141.529 150.467 142.164C150.467 142.789 150.588 143.34 150.831 143.816C151.083 144.283 151.423 144.642 151.853 144.894C152.282 145.137 152.767 145.258 153.309 145.258C153.831 145.258 154.307 145.132 154.737 144.88C155.175 144.628 155.521 144.269 155.773 143.802C156.025 143.335 156.151 142.794 156.151 142.178ZM162 146.112C161.123 146.112 160.404 145.911 159.844 145.51C159.293 145.099 158.985 144.544 158.92 143.844H159.928C159.975 144.273 160.175 144.623 160.53 144.894C160.894 145.155 161.379 145.286 161.986 145.286C162.518 145.286 162.933 145.16 163.232 144.908C163.54 144.656 163.694 144.343 163.694 143.97C163.694 143.709 163.61 143.494 163.442 143.326C163.274 143.158 163.059 143.027 162.798 142.934C162.546 142.831 162.201 142.724 161.762 142.612C161.193 142.463 160.731 142.313 160.376 142.164C160.021 142.015 159.718 141.795 159.466 141.506C159.223 141.207 159.102 140.811 159.102 140.316C159.102 139.943 159.214 139.597 159.438 139.28C159.662 138.963 159.979 138.711 160.39 138.524C160.801 138.337 161.267 138.244 161.79 138.244C162.611 138.244 163.274 138.454 163.778 138.874C164.282 139.285 164.553 139.854 164.59 140.582H163.61C163.582 140.134 163.405 139.775 163.078 139.504C162.761 139.224 162.322 139.084 161.762 139.084C161.267 139.084 160.866 139.201 160.558 139.434C160.25 139.667 160.096 139.957 160.096 140.302C160.096 140.601 160.185 140.848 160.362 141.044C160.549 141.231 160.777 141.38 161.048 141.492C161.319 141.595 161.683 141.711 162.14 141.842C162.691 141.991 163.129 142.136 163.456 142.276C163.783 142.416 164.063 142.621 164.296 142.892C164.529 143.163 164.651 143.522 164.66 143.97C164.66 144.381 164.548 144.749 164.324 145.076C164.1 145.393 163.787 145.645 163.386 145.832C162.985 146.019 162.523 146.112 162 146.112ZM170.145 138.216C170.723 138.216 171.241 138.337 171.699 138.58C172.165 138.823 172.529 139.196 172.791 139.7C173.061 140.195 173.197 140.801 173.197 141.52V146H172.231V141.632C172.231 140.801 172.021 140.167 171.601 139.728C171.19 139.289 170.625 139.07 169.907 139.07C169.169 139.07 168.581 139.303 168.143 139.77C167.704 140.237 167.485 140.923 167.485 141.828V146H166.505V135.64H167.485V139.658C167.727 139.201 168.082 138.846 168.549 138.594C169.025 138.342 169.557 138.216 170.145 138.216ZM176.26 144.376L174.804 148.044H174.132L175.168 144.376H176.26ZM181.178 142.164C181.178 141.38 181.332 140.694 181.64 140.106C181.957 139.509 182.391 139.051 182.942 138.734C183.502 138.407 184.132 138.244 184.832 138.244C185.56 138.244 186.185 138.412 186.708 138.748C187.24 139.084 187.623 139.513 187.856 140.036V138.356H188.836V146H187.856V144.306C187.613 144.829 187.226 145.263 186.694 145.608C186.171 145.944 185.546 146.112 184.818 146.112C184.127 146.112 183.502 145.949 182.942 145.622C182.391 145.295 181.957 144.833 181.64 144.236C181.332 143.639 181.178 142.948 181.178 142.164ZM187.856 142.178C187.856 141.562 187.73 141.021 187.478 140.554C187.226 140.087 186.881 139.728 186.442 139.476C186.013 139.224 185.537 139.098 185.014 139.098C184.473 139.098 183.987 139.219 183.558 139.462C183.129 139.705 182.788 140.059 182.536 140.526C182.293 140.983 182.172 141.529 182.172 142.164C182.172 142.789 182.293 143.34 182.536 143.816C182.788 144.283 183.129 144.642 183.558 144.894C183.987 145.137 184.473 145.258 185.014 145.258C185.537 145.258 186.013 145.132 186.442 144.88C186.881 144.628 187.226 144.269 187.478 143.802C187.73 143.335 187.856 142.794 187.856 142.178ZM190.625 142.178C190.625 141.385 190.784 140.694 191.101 140.106C191.418 139.509 191.857 139.051 192.417 138.734C192.977 138.407 193.616 138.244 194.335 138.244C195.278 138.244 196.052 138.477 196.659 138.944C197.275 139.411 197.672 140.045 197.849 140.848H196.799C196.668 140.297 196.384 139.868 195.945 139.56C195.516 139.243 194.979 139.084 194.335 139.084C193.822 139.084 193.36 139.201 192.949 139.434C192.538 139.667 192.212 140.017 191.969 140.484C191.736 140.941 191.619 141.506 191.619 142.178C191.619 142.85 191.736 143.419 191.969 143.886C192.212 144.353 192.538 144.703 192.949 144.936C193.36 145.169 193.822 145.286 194.335 145.286C194.979 145.286 195.516 145.132 195.945 144.824C196.384 144.507 196.668 144.068 196.799 143.508H197.849C197.672 144.292 197.275 144.922 196.659 145.398C196.043 145.874 195.268 146.112 194.335 146.112C193.616 146.112 192.977 145.953 192.417 145.636C191.857 145.309 191.418 144.852 191.101 144.264C190.784 143.667 190.625 142.971 190.625 142.178ZM199.211 142.178C199.211 141.385 199.37 140.694 199.687 140.106C200.004 139.509 200.443 139.051 201.003 138.734C201.563 138.407 202.202 138.244 202.921 138.244C203.864 138.244 204.638 138.477 205.245 138.944C205.861 139.411 206.258 140.045 206.435 140.848H205.385C205.254 140.297 204.97 139.868 204.531 139.56C204.102 139.243 203.565 139.084 202.921 139.084C202.408 139.084 201.946 139.201 201.535 139.434C201.124 139.667 200.798 140.017 200.555 140.484C200.322 140.941 200.205 141.506 200.205 142.178C200.205 142.85 200.322 143.419 200.555 143.886C200.798 144.353 201.124 144.703 201.535 144.936C201.946 145.169 202.408 145.286 202.921 145.286C203.565 145.286 204.102 145.132 204.531 144.824C204.97 144.507 205.254 144.068 205.385 143.508H206.435C206.258 144.292 205.861 144.922 205.245 145.398C204.629 145.874 203.854 146.112 202.921 146.112C202.202 146.112 201.563 145.953 201.003 145.636C200.443 145.309 200.004 144.852 199.687 144.264C199.37 143.667 199.211 142.971 199.211 142.178ZM211.591 146.112C210.872 146.112 210.224 145.953 209.645 145.636C209.076 145.309 208.623 144.852 208.287 144.264C207.96 143.667 207.797 142.971 207.797 142.178C207.797 141.385 207.965 140.694 208.301 140.106C208.637 139.509 209.094 139.051 209.673 138.734C210.252 138.407 210.9 138.244 211.619 138.244C212.338 138.244 212.986 138.407 213.565 138.734C214.153 139.051 214.61 139.509 214.937 140.106C215.273 140.694 215.441 141.385 215.441 142.178C215.441 142.962 215.273 143.653 214.937 144.25C214.601 144.847 214.139 145.309 213.551 145.636C212.963 145.953 212.31 146.112 211.591 146.112ZM211.591 145.258C212.095 145.258 212.562 145.146 212.991 144.922C213.42 144.689 213.766 144.343 214.027 143.886C214.298 143.419 214.433 142.85 214.433 142.178C214.433 141.506 214.302 140.941 214.041 140.484C213.78 140.017 213.434 139.672 213.005 139.448C212.576 139.215 212.109 139.098 211.605 139.098C211.101 139.098 210.634 139.215 210.205 139.448C209.776 139.672 209.43 140.017 209.169 140.484C208.917 140.941 208.791 141.506 208.791 142.178C208.791 142.85 208.917 143.419 209.169 143.886C209.43 144.343 209.771 144.689 210.191 144.922C210.62 145.146 211.087 145.258 211.591 145.258ZM223.849 138.356V146H222.869V144.656C222.645 145.132 222.3 145.496 221.833 145.748C221.367 146 220.844 146.126 220.265 146.126C219.351 146.126 218.604 145.846 218.025 145.286C217.447 144.717 217.157 143.895 217.157 142.822V138.356H218.123V142.71C218.123 143.541 218.329 144.175 218.739 144.614C219.159 145.053 219.729 145.272 220.447 145.272C221.185 145.272 221.773 145.039 222.211 144.572C222.65 144.105 222.869 143.419 222.869 142.514V138.356H223.849ZM229.671 138.216C230.585 138.216 231.332 138.501 231.911 139.07C232.489 139.63 232.779 140.447 232.779 141.52V146H231.813V141.632C231.813 140.801 231.603 140.167 231.183 139.728C230.772 139.289 230.207 139.07 229.489 139.07C228.751 139.07 228.163 139.303 227.725 139.77C227.286 140.237 227.067 140.923 227.067 141.828V146H226.087V138.356H227.067V139.658C227.309 139.191 227.659 138.837 228.117 138.594C228.574 138.342 229.092 138.216 229.671 138.216ZM236.22 139.182V143.928C236.22 144.395 236.309 144.717 236.486 144.894C236.664 145.071 236.976 145.16 237.424 145.16H238.32V146H237.27C236.58 146 236.066 145.841 235.73 145.524C235.394 145.197 235.226 144.665 235.226 143.928V139.182H234.162V138.356H235.226V136.438H236.22V138.356H238.32V139.182H236.22ZM242.568 146.112C241.691 146.112 240.972 145.911 240.412 145.51C239.862 145.099 239.554 144.544 239.488 143.844H240.496C240.543 144.273 240.744 144.623 241.098 144.894C241.462 145.155 241.948 145.286 242.554 145.286C243.086 145.286 243.502 145.16 243.8 144.908C244.108 144.656 244.262 144.343 244.262 143.97C244.262 143.709 244.178 143.494 244.01 143.326C243.842 143.158 243.628 143.027 243.366 142.934C243.114 142.831 242.769 142.724 242.33 142.612C241.761 142.463 241.299 142.313 240.944 142.164C240.59 142.015 240.286 141.795 240.034 141.506C239.792 141.207 239.67 140.811 239.67 140.316C239.67 139.943 239.782 139.597 240.006 139.28C240.23 138.963 240.548 138.711 240.958 138.524C241.369 138.337 241.836 138.244 242.358 138.244C243.18 138.244 243.842 138.454 244.346 138.874C244.85 139.285 245.121 139.854 245.158 140.582H244.178C244.15 140.134 243.973 139.775 243.646 139.504C243.329 139.224 242.89 139.084 242.33 139.084C241.836 139.084 241.434 139.201 241.126 139.434C240.818 139.667 240.664 139.957 240.664 140.302C240.664 140.601 240.753 140.848 240.93 141.044C241.117 141.231 241.346 141.38 241.616 141.492C241.887 141.595 242.251 141.711 242.708 141.842C243.259 141.991 243.698 142.136 244.024 142.276C244.351 142.416 244.631 142.621 244.864 142.892C245.098 143.163 245.219 143.522 245.228 143.97C245.228 144.381 245.116 144.749 244.892 145.076C244.668 145.393 244.356 145.645 243.954 145.832C243.553 146.019 243.091 146.112 242.568 146.112ZM140.1 160.714C140.315 160.238 140.641 159.869 141.08 159.608C141.528 159.347 142.074 159.216 142.718 159.216V160.238H142.452C141.743 160.238 141.173 160.429 140.744 160.812C140.315 161.195 140.1 161.834 140.1 162.73V167H139.12V159.356H140.1V160.714ZM151.108 162.786C151.108 163.122 151.099 163.379 151.08 163.556H144.738C144.766 164.135 144.906 164.629 145.158 165.04C145.41 165.451 145.742 165.763 146.152 165.978C146.563 166.183 147.011 166.286 147.496 166.286C148.131 166.286 148.663 166.132 149.092 165.824C149.531 165.516 149.82 165.101 149.96 164.578H150.996C150.81 165.325 150.408 165.936 149.792 166.412C149.186 166.879 148.42 167.112 147.496 167.112C146.778 167.112 146.134 166.953 145.564 166.636C144.995 166.309 144.547 165.852 144.22 165.264C143.903 164.667 143.744 163.971 143.744 163.178C143.744 162.385 143.903 161.689 144.22 161.092C144.538 160.495 144.981 160.037 145.55 159.72C146.12 159.403 146.768 159.244 147.496 159.244C148.224 159.244 148.859 159.403 149.4 159.72C149.951 160.037 150.371 160.467 150.66 161.008C150.959 161.54 151.108 162.133 151.108 162.786ZM150.114 162.758C150.124 162.189 150.007 161.703 149.764 161.302C149.531 160.901 149.209 160.597 148.798 160.392C148.388 160.187 147.94 160.084 147.454 160.084C146.726 160.084 146.106 160.317 145.592 160.784C145.079 161.251 144.794 161.909 144.738 162.758H150.114ZM152.453 163.178C152.453 162.385 152.612 161.694 152.929 161.106C153.247 160.509 153.685 160.051 154.245 159.734C154.805 159.407 155.445 159.244 156.163 159.244C157.106 159.244 157.881 159.477 158.487 159.944C159.103 160.411 159.5 161.045 159.677 161.848H158.627C158.497 161.297 158.212 160.868 157.773 160.56C157.344 160.243 156.807 160.084 156.163 160.084C155.65 160.084 155.188 160.201 154.777 160.434C154.367 160.667 154.04 161.017 153.797 161.484C153.564 161.941 153.447 162.506 153.447 163.178C153.447 163.85 153.564 164.419 153.797 164.886C154.04 165.353 154.367 165.703 154.777 165.936C155.188 166.169 155.65 166.286 156.163 166.286C156.807 166.286 157.344 166.132 157.773 165.824C158.212 165.507 158.497 165.068 158.627 164.508H159.677C159.5 165.292 159.103 165.922 158.487 166.398C157.871 166.874 157.097 167.112 156.163 167.112C155.445 167.112 154.805 166.953 154.245 166.636C153.685 166.309 153.247 165.852 152.929 165.264C152.612 164.667 152.453 163.971 152.453 163.178ZM168.403 162.786C168.403 163.122 168.394 163.379 168.375 163.556H162.033C162.061 164.135 162.201 164.629 162.453 165.04C162.705 165.451 163.037 165.763 163.447 165.978C163.858 166.183 164.306 166.286 164.791 166.286C165.426 166.286 165.958 166.132 166.387 165.824C166.826 165.516 167.115 165.101 167.255 164.578H168.291C168.105 165.325 167.703 165.936 167.087 166.412C166.481 166.879 165.715 167.112 164.791 167.112C164.073 167.112 163.429 166.953 162.859 166.636C162.29 166.309 161.842 165.852 161.515 165.264C161.198 164.667 161.039 163.971 161.039 163.178C161.039 162.385 161.198 161.689 161.515 161.092C161.833 160.495 162.276 160.037 162.845 159.72C163.415 159.403 164.063 159.244 164.791 159.244C165.519 159.244 166.154 159.403 166.695 159.72C167.246 160.037 167.666 160.467 167.955 161.008C168.254 161.54 168.403 162.133 168.403 162.786ZM167.409 162.758C167.419 162.189 167.302 161.703 167.059 161.302C166.826 160.901 166.504 160.597 166.093 160.392C165.683 160.187 165.235 160.084 164.749 160.084C164.021 160.084 163.401 160.317 162.887 160.784C162.374 161.251 162.089 161.909 162.033 162.758H167.409ZM170.686 157.914C170.49 157.914 170.322 157.844 170.182 157.704C170.042 157.564 169.972 157.391 169.972 157.186C169.972 156.981 170.042 156.813 170.182 156.682C170.322 156.542 170.49 156.472 170.686 156.472C170.882 156.472 171.05 156.542 171.19 156.682C171.33 156.813 171.4 156.981 171.4 157.186C171.4 157.391 171.33 157.564 171.19 157.704C171.05 157.844 170.882 157.914 170.686 157.914ZM171.176 159.356V167H170.196V159.356H171.176ZM176.111 166.048L178.687 159.356H179.723L176.657 167H175.551L172.485 159.356H173.535L176.111 166.048ZM180.604 163.164C180.604 162.38 180.758 161.694 181.066 161.106C181.383 160.509 181.817 160.051 182.368 159.734C182.928 159.407 183.558 159.244 184.258 159.244C184.986 159.244 185.611 159.412 186.134 159.748C186.666 160.084 187.048 160.513 187.282 161.036V159.356H188.262V167H187.282V165.306C187.039 165.829 186.652 166.263 186.12 166.608C185.597 166.944 184.972 167.112 184.244 167.112C183.553 167.112 182.928 166.949 182.368 166.622C181.817 166.295 181.383 165.833 181.066 165.236C180.758 164.639 180.604 163.948 180.604 163.164ZM187.282 163.178C187.282 162.562 187.156 162.021 186.904 161.554C186.652 161.087 186.306 160.728 185.868 160.476C185.438 160.224 184.962 160.098 184.44 160.098C183.898 160.098 183.413 160.219 182.984 160.462C182.554 160.705 182.214 161.059 181.962 161.526C181.719 161.983 181.598 162.529 181.598 163.164C181.598 163.789 181.719 164.34 181.962 164.816C182.214 165.283 182.554 165.642 182.984 165.894C183.413 166.137 183.898 166.258 184.44 166.258C184.962 166.258 185.438 166.132 185.868 165.88C186.306 165.628 186.652 165.269 186.904 164.802C187.156 164.335 187.282 163.794 187.282 163.178ZM191.465 161.05C191.717 160.518 192.104 160.084 192.627 159.748C193.159 159.412 193.784 159.244 194.503 159.244C195.203 159.244 195.828 159.407 196.379 159.734C196.93 160.051 197.359 160.509 197.667 161.106C197.984 161.694 198.143 162.38 198.143 163.164C198.143 163.948 197.984 164.639 197.667 165.236C197.359 165.833 196.925 166.295 196.365 166.622C195.814 166.949 195.194 167.112 194.503 167.112C193.775 167.112 193.145 166.949 192.613 166.622C192.09 166.286 191.708 165.852 191.465 165.32V167H190.499V156.64H191.465V161.05ZM197.149 163.164C197.149 162.529 197.023 161.983 196.771 161.526C196.528 161.059 196.192 160.705 195.763 160.462C195.334 160.219 194.848 160.098 194.307 160.098C193.784 160.098 193.304 160.224 192.865 160.476C192.436 160.728 192.095 161.087 191.843 161.554C191.591 162.021 191.465 162.562 191.465 163.178C191.465 163.794 191.591 164.335 191.843 164.802C192.095 165.269 192.436 165.628 192.865 165.88C193.304 166.132 193.784 166.258 194.307 166.258C194.848 166.258 195.334 166.137 195.763 165.894C196.192 165.642 196.528 165.283 196.771 164.816C197.023 164.34 197.149 163.789 197.149 163.164ZM200.926 156.64V167H199.946V156.64H200.926ZM210.061 162.786C210.061 163.122 210.052 163.379 210.033 163.556H203.691C203.719 164.135 203.859 164.629 204.111 165.04C204.363 165.451 204.695 165.763 205.105 165.978C205.516 166.183 205.964 166.286 206.449 166.286C207.084 166.286 207.616 166.132 208.045 165.824C208.484 165.516 208.773 165.101 208.913 164.578H209.949C209.763 165.325 209.361 165.936 208.745 166.412C208.139 166.879 207.373 167.112 206.449 167.112C205.731 167.112 205.087 166.953 204.517 166.636C203.948 166.309 203.5 165.852 203.173 165.264C202.856 164.667 202.697 163.971 202.697 163.178C202.697 162.385 202.856 161.689 203.173 161.092C203.491 160.495 203.934 160.037 204.503 159.72C205.073 159.403 205.721 159.244 206.449 159.244C207.177 159.244 207.812 159.403 208.353 159.72C208.904 160.037 209.324 160.467 209.613 161.008C209.912 161.54 210.061 162.133 210.061 162.786ZM209.067 162.758C209.077 162.189 208.96 161.703 208.717 161.302C208.484 160.901 208.162 160.597 207.751 160.392C207.341 160.187 206.893 160.084 206.407 160.084C205.679 160.084 205.059 160.317 204.545 160.784C204.032 161.251 203.747 161.909 203.691 162.758H209.067ZM212.75 165.376L211.294 169.044H210.622L211.658 165.376H212.75ZM218.606 157.914C218.41 157.914 218.242 157.844 218.102 157.704C217.962 157.564 217.892 157.391 217.892 157.186C217.892 156.981 217.962 156.813 218.102 156.682C218.242 156.542 218.41 156.472 218.606 156.472C218.802 156.472 218.97 156.542 219.11 156.682C219.25 156.813 219.32 156.981 219.32 157.186C219.32 157.391 219.25 157.564 219.11 157.704C218.97 157.844 218.802 157.914 218.606 157.914ZM219.096 159.356V167H218.116V159.356H219.096ZM224.899 159.216C225.814 159.216 226.561 159.501 227.139 160.07C227.718 160.63 228.007 161.447 228.007 162.52V167H227.041V162.632C227.041 161.801 226.831 161.167 226.411 160.728C226.001 160.289 225.436 160.07 224.717 160.07C223.98 160.07 223.392 160.303 222.953 160.77C222.515 161.237 222.295 161.923 222.295 162.828V167H221.315V159.356H222.295V160.658C222.538 160.191 222.888 159.837 223.345 159.594C223.803 159.342 224.321 159.216 224.899 159.216ZM232.891 166.048L235.467 159.356H236.503L233.437 167H232.331L229.265 159.356H230.315L232.891 166.048ZM244.747 162.786C244.747 163.122 244.738 163.379 244.719 163.556H238.377C238.405 164.135 238.545 164.629 238.797 165.04C239.049 165.451 239.38 165.763 239.791 165.978C240.202 166.183 240.65 166.286 241.135 166.286C241.77 166.286 242.302 166.132 242.731 165.824C243.17 165.516 243.459 165.101 243.599 164.578H244.635C244.448 165.325 244.047 165.936 243.431 166.412C242.824 166.879 242.059 167.112 241.135 167.112C240.416 167.112 239.772 166.953 239.203 166.636C238.634 166.309 238.186 165.852 237.859 165.264C237.542 164.667 237.383 163.971 237.383 163.178C237.383 162.385 237.542 161.689 237.859 161.092C238.176 160.495 238.62 160.037 239.189 159.72C239.758 159.403 240.407 159.244 241.135 159.244C241.863 159.244 242.498 159.403 243.039 159.72C243.59 160.037 244.01 160.467 244.299 161.008C244.598 161.54 244.747 162.133 244.747 162.786ZM243.753 162.758C243.762 162.189 243.646 161.703 243.403 161.302C243.17 160.901 242.848 160.597 242.437 160.392C242.026 160.187 241.578 160.084 241.093 160.084C240.365 160.084 239.744 160.317 239.231 160.784C238.718 161.251 238.433 161.909 238.377 162.758H243.753ZM250.124 159.216C251.039 159.216 251.785 159.501 252.364 160.07C252.943 160.63 253.232 161.447 253.232 162.52V167H252.266V162.632C252.266 161.801 252.056 161.167 251.636 160.728C251.225 160.289 250.661 160.07 249.942 160.07C249.205 160.07 248.617 160.303 248.178 160.77C247.739 161.237 247.52 161.923 247.52 162.828V167H246.54V159.356H247.52V160.658C247.763 160.191 248.113 159.837 248.57 159.594C249.027 159.342 249.545 159.216 250.124 159.216ZM256.673 160.182V164.928C256.673 165.395 256.762 165.717 256.939 165.894C257.117 166.071 257.429 166.16 257.877 166.16H258.773V167H257.723C257.033 167 256.519 166.841 256.183 166.524C255.847 166.197 255.679 165.665 255.679 164.928V160.182H254.615V159.356H255.679V157.438H256.673V159.356H258.773V160.182H256.673ZM263.736 167.112C263.017 167.112 262.368 166.953 261.79 166.636C261.22 166.309 260.768 165.852 260.432 165.264C260.105 164.667 259.942 163.971 259.942 163.178C259.942 162.385 260.11 161.694 260.446 161.106C260.782 160.509 261.239 160.051 261.818 159.734C262.396 159.407 263.045 159.244 263.764 159.244C264.482 159.244 265.131 159.407 265.71 159.734C266.298 160.051 266.755 160.509 267.082 161.106C267.418 161.694 267.586 162.385 267.586 163.178C267.586 163.962 267.418 164.653 267.082 165.25C266.746 165.847 266.284 166.309 265.696 166.636C265.108 166.953 264.454 167.112 263.736 167.112ZM263.736 166.258C264.24 166.258 264.706 166.146 265.136 165.922C265.565 165.689 265.91 165.343 266.172 164.886C266.442 164.419 266.578 163.85 266.578 163.178C266.578 162.506 266.447 161.941 266.186 161.484C265.924 161.017 265.579 160.672 265.15 160.448C264.72 160.215 264.254 160.098 263.75 160.098C263.246 160.098 262.779 160.215 262.35 160.448C261.92 160.672 261.575 161.017 261.314 161.484C261.062 161.941 260.936 162.506 260.936 163.178C260.936 163.85 261.062 164.419 261.314 164.886C261.575 165.343 261.916 165.689 262.336 165.922C262.765 166.146 263.232 166.258 263.736 166.258ZM270.352 160.714C270.567 160.238 270.893 159.869 271.332 159.608C271.78 159.347 272.326 159.216 272.97 159.216V160.238H272.704C271.995 160.238 271.425 160.429 270.996 160.812C270.567 161.195 270.352 161.834 270.352 162.73V167H269.372V159.356H270.352V160.714ZM280.744 159.356L276.208 170.598H275.186L276.67 166.958L273.534 159.356H274.612L277.216 165.88L279.736 159.356H280.744ZM282.241 167.07C282.036 167.07 281.863 167 281.723 166.86C281.592 166.72 281.527 166.547 281.527 166.342C281.527 166.137 281.592 165.969 281.723 165.838C281.863 165.698 282.036 165.628 282.241 165.628C282.437 165.628 282.6 165.698 282.731 165.838C282.871 165.969 282.941 166.137 282.941 166.342C282.941 166.547 282.871 166.72 282.731 166.86C282.6 167 282.437 167.07 282.241 167.07Z" fill="#575455"/>
<path d="M157.6 81.1L153.48 95H150.9L147.98 84.48L144.88 95L142.32 95.02L138.38 81.1H140.8L143.68 92.42L146.8 81.1H149.36L152.26 92.36L155.16 81.1H157.6ZM165.18 83.8C166.02 83.8 166.767 83.98 167.42 84.34C168.087 84.7 168.607 85.2333 168.98 85.94C169.367 86.6467 169.56 87.5 169.56 88.5V95H167.3V88.84C167.3 87.8533 167.054 87.1 166.56 86.58C166.067 86.0467 165.394 85.78 164.54 85.78C163.687 85.78 163.007 86.0467 162.5 86.58C162.007 87.1 161.76 87.8533 161.76 88.84V95H159.48V80.2H161.76V85.26C162.147 84.7933 162.634 84.4333 163.22 84.18C163.82 83.9267 164.474 83.8 165.18 83.8ZM171.709 89.44C171.709 88.3333 171.935 87.3533 172.389 86.5C172.855 85.6467 173.482 84.9867 174.269 84.52C175.069 84.04 175.949 83.8 176.909 83.8C177.775 83.8 178.529 83.9733 179.169 84.32C179.822 84.6533 180.342 85.0733 180.729 85.58V83.98H183.029V95H180.729V93.36C180.342 93.88 179.815 94.3133 179.149 94.66C178.482 95.0067 177.722 95.18 176.869 95.18C175.922 95.18 175.055 94.94 174.269 94.46C173.482 93.9667 172.855 93.2867 172.389 92.42C171.935 91.54 171.709 90.5467 171.709 89.44ZM180.729 89.48C180.729 88.72 180.569 88.06 180.249 87.5C179.942 86.94 179.535 86.5133 179.029 86.22C178.522 85.9267 177.975 85.78 177.389 85.78C176.802 85.78 176.255 85.9267 175.749 86.22C175.242 86.5 174.829 86.92 174.509 87.48C174.202 88.0267 174.049 88.68 174.049 89.44C174.049 90.2 174.202 90.8667 174.509 91.44C174.829 92.0133 175.242 92.4533 175.749 92.76C176.269 93.0533 176.815 93.2 177.389 93.2C177.975 93.2 178.522 93.0533 179.029 92.76C179.535 92.4667 179.942 92.04 180.249 91.48C180.569 90.9067 180.729 90.24 180.729 89.48ZM188.683 85.84V91.94C188.683 92.3533 188.777 92.6533 188.963 92.84C189.163 93.0133 189.497 93.1 189.963 93.1H191.363V95H189.563C188.537 95 187.75 94.76 187.203 94.28C186.657 93.8 186.383 93.02 186.383 91.94V85.84H185.083V83.98H186.383V81.24H188.683V83.98H191.363V85.84H188.683ZM199.82 82.52C199.407 82.52 199.06 82.38 198.78 82.1C198.5 81.82 198.36 81.4733 198.36 81.06C198.36 80.6467 198.5 80.3 198.78 80.02C199.06 79.74 199.407 79.6 199.82 79.6C200.22 79.6 200.56 79.74 200.84 80.02C201.12 80.3 201.26 80.6467 201.26 81.06C201.26 81.4733 201.12 81.82 200.84 82.1C200.56 82.38 200.22 82.52 199.82 82.52ZM200.94 83.98V95H198.66V83.98H200.94ZM207.934 95.18C207.067 95.18 206.287 95.0267 205.594 94.72C204.914 94.4 204.374 93.9733 203.974 93.44C203.574 92.8933 203.36 92.2867 203.334 91.62H205.694C205.734 92.0867 205.954 92.48 206.354 92.8C206.767 93.1067 207.28 93.26 207.894 93.26C208.534 93.26 209.027 93.14 209.374 92.9C209.734 92.6467 209.914 92.3267 209.914 91.94C209.914 91.5267 209.714 91.22 209.314 91.02C208.927 90.82 208.307 90.6 207.454 90.36C206.627 90.1333 205.954 89.9133 205.434 89.7C204.914 89.4867 204.46 89.16 204.074 88.72C203.7 88.28 203.514 87.7 203.514 86.98C203.514 86.3933 203.687 85.86 204.034 85.38C204.38 84.8867 204.874 84.5 205.514 84.22C206.167 83.94 206.914 83.8 207.754 83.8C209.007 83.8 210.014 84.12 210.774 84.76C211.547 85.3867 211.96 86.2467 212.014 87.34H209.734C209.694 86.8467 209.494 86.4533 209.134 86.16C208.774 85.8667 208.287 85.72 207.674 85.72C207.074 85.72 206.614 85.8333 206.294 86.06C205.974 86.2867 205.814 86.5867 205.814 86.96C205.814 87.2533 205.92 87.5 206.134 87.7C206.347 87.9 206.607 88.06 206.914 88.18C207.22 88.2867 207.674 88.4267 208.274 88.6C209.074 88.8133 209.727 89.0333 210.234 89.26C210.754 89.4733 211.2 89.7933 211.574 90.22C211.947 90.6467 212.14 91.2133 212.154 91.92C212.154 92.5467 211.98 93.1067 211.634 93.6C211.287 94.0933 210.794 94.48 210.154 94.76C209.527 95.04 208.787 95.18 207.934 95.18ZM233.153 83.8C234.019 83.8 234.793 83.98 235.473 84.34C236.166 84.7 236.706 85.2333 237.093 85.94C237.493 86.6467 237.693 87.5 237.693 88.5V95H235.433V88.84C235.433 87.8533 235.186 87.1 234.693 86.58C234.199 86.0467 233.526 85.78 232.673 85.78C231.819 85.78 231.139 86.0467 230.633 86.58C230.139 87.1 229.893 87.8533 229.893 88.84V95H227.633V88.84C227.633 87.8533 227.386 87.1 226.893 86.58C226.399 86.0467 225.726 85.78 224.873 85.78C224.019 85.78 223.339 86.0467 222.833 86.58C222.339 87.1 222.093 87.8533 222.093 88.84V95H219.813V83.98H222.093V85.24C222.466 84.7867 222.939 84.4333 223.513 84.18C224.086 83.9267 224.699 83.8 225.353 83.8C226.233 83.8 227.019 83.9867 227.713 84.36C228.406 84.7333 228.939 85.2733 229.313 85.98C229.646 85.3133 230.166 84.7867 230.873 84.4C231.579 84 232.339 83.8 233.153 83.8ZM245.374 95.18C244.334 95.18 243.394 94.9467 242.554 94.48C241.714 94 241.054 93.3333 240.574 92.48C240.094 91.6133 239.854 90.6133 239.854 89.48C239.854 88.36 240.1 87.3667 240.594 86.5C241.087 85.6333 241.76 84.9667 242.614 84.5C243.467 84.0333 244.42 83.8 245.474 83.8C246.527 83.8 247.48 84.0333 248.334 84.5C249.187 84.9667 249.86 85.6333 250.354 86.5C250.847 87.3667 251.094 88.36 251.094 89.48C251.094 90.6 250.84 91.5933 250.334 92.46C249.827 93.3267 249.134 94 248.254 94.48C247.387 94.9467 246.427 95.18 245.374 95.18ZM245.374 93.2C245.96 93.2 246.507 93.06 247.014 92.78C247.534 92.5 247.954 92.08 248.274 91.52C248.594 90.96 248.754 90.28 248.754 89.48C248.754 88.68 248.6 88.0067 248.294 87.46C247.987 86.9 247.58 86.48 247.074 86.2C246.567 85.92 246.02 85.78 245.434 85.78C244.847 85.78 244.3 85.92 243.794 86.2C243.3 86.48 242.907 86.9 242.614 87.46C242.32 88.0067 242.174 88.68 242.174 89.48C242.174 90.6667 242.474 91.5867 243.074 92.24C243.687 92.88 244.454 93.2 245.374 93.2ZM258.908 83.8C259.774 83.8 260.548 83.98 261.228 84.34C261.921 84.7 262.461 85.2333 262.848 85.94C263.234 86.6467 263.428 87.5 263.428 88.5V95H261.168V88.84C261.168 87.8533 260.921 87.1 260.428 86.58C259.934 86.0467 259.261 85.78 258.408 85.78C257.554 85.78 256.874 86.0467 256.368 86.58C255.874 87.1 255.628 87.8533 255.628 88.84V95H253.348V83.98H255.628V85.24C256.001 84.7867 256.474 84.4333 257.048 84.18C257.634 83.9267 258.254 83.8 258.908 83.8ZM276.436 89.22C276.436 89.6333 276.409 90.0067 276.356 90.34H267.936C268.003 91.22 268.329 91.9267 268.916 92.46C269.503 92.9933 270.223 93.26 271.076 93.26C272.303 93.26 273.169 92.7467 273.676 91.72H276.136C275.803 92.7333 275.196 93.5667 274.316 94.22C273.449 94.86 272.369 95.18 271.076 95.18C270.023 95.18 269.076 94.9467 268.236 94.48C267.409 94 266.756 93.3333 266.276 92.48C265.809 91.6133 265.576 90.6133 265.576 89.48C265.576 88.3467 265.803 87.3533 266.256 86.5C266.723 85.6333 267.369 84.9667 268.196 84.5C269.036 84.0333 269.996 83.8 271.076 83.8C272.116 83.8 273.043 84.0267 273.856 84.48C274.669 84.9333 275.303 85.5733 275.756 86.4C276.209 87.2133 276.436 88.1533 276.436 89.22ZM274.056 88.5C274.043 87.66 273.743 86.9867 273.156 86.48C272.569 85.9733 271.843 85.72 270.976 85.72C270.189 85.72 269.516 85.9733 268.956 86.48C268.396 86.9733 268.063 87.6467 267.956 88.5H274.056ZM288.6 83.98L281.84 100.18H279.48L281.72 94.82L277.38 83.98H279.92L283.02 92.38L286.24 83.98H288.6ZM141.78 111.6C142.167 111.093 142.693 110.667 143.36 110.32C144.027 109.973 144.78 109.8 145.62 109.8C146.58 109.8 147.453 110.04 148.24 110.52C149.04 110.987 149.667 111.647 150.12 112.5C150.573 113.353 150.8 114.333 150.8 115.44C150.8 116.547 150.573 117.54 150.12 118.42C149.667 119.287 149.04 119.967 148.24 120.46C147.453 120.94 146.58 121.18 145.62 121.18C144.78 121.18 144.033 121.013 143.38 120.68C142.727 120.333 142.193 119.907 141.78 119.4V126.24H139.5V109.98H141.78V111.6ZM148.48 115.44C148.48 114.68 148.32 114.027 148 113.48C147.693 112.92 147.28 112.5 146.76 112.22C146.253 111.927 145.707 111.78 145.12 111.78C144.547 111.78 144 111.927 143.48 112.22C142.973 112.513 142.56 112.94 142.24 113.5C141.933 114.06 141.78 114.72 141.78 115.48C141.78 116.24 141.933 116.907 142.24 117.48C142.56 118.04 142.973 118.467 143.48 118.76C144 119.053 144.547 119.2 145.12 119.2C145.707 119.2 146.253 119.053 146.76 118.76C147.28 118.453 147.693 118.013 148 117.44C148.32 116.867 148.48 116.2 148.48 115.44ZM155.335 106.2V121H153.055V106.2H155.335ZM157.568 115.44C157.568 114.333 157.795 113.353 158.248 112.5C158.715 111.647 159.341 110.987 160.128 110.52C160.928 110.04 161.808 109.8 162.768 109.8C163.635 109.8 164.388 109.973 165.028 110.32C165.681 110.653 166.201 111.073 166.588 111.58V109.98H168.888V121H166.588V119.36C166.201 119.88 165.675 120.313 165.008 120.66C164.341 121.007 163.581 121.18 162.728 121.18C161.781 121.18 160.915 120.94 160.128 120.46C159.341 119.967 158.715 119.287 158.248 118.42C157.795 117.54 157.568 116.547 157.568 115.44ZM166.588 115.48C166.588 114.72 166.428 114.06 166.108 113.5C165.801 112.94 165.395 112.513 164.888 112.22C164.381 111.927 163.835 111.78 163.248 111.78C162.661 111.78 162.115 111.927 161.608 112.22C161.101 112.5 160.688 112.92 160.368 113.48C160.061 114.027 159.908 114.68 159.908 115.44C159.908 116.2 160.061 116.867 160.368 117.44C160.688 118.013 161.101 118.453 161.608 118.76C162.128 119.053 162.675 119.2 163.248 119.2C163.835 119.2 164.381 119.053 164.888 118.76C165.395 118.467 165.801 118.04 166.108 117.48C166.428 116.907 166.588 116.24 166.588 115.48ZM177.443 109.8C178.309 109.8 179.083 109.98 179.763 110.34C180.456 110.7 180.996 111.233 181.383 111.94C181.769 112.647 181.963 113.5 181.963 114.5V121H179.703V114.84C179.703 113.853 179.456 113.1 178.963 112.58C178.469 112.047 177.796 111.78 176.943 111.78C176.089 111.78 175.409 112.047 174.903 112.58C174.409 113.1 174.163 113.853 174.163 114.84V121H171.883V109.98H174.163V111.24C174.536 110.787 175.009 110.433 175.583 110.18C176.169 109.927 176.789 109.8 177.443 109.8ZM190.431 109.8C191.298 109.8 192.071 109.98 192.751 110.34C193.444 110.7 193.984 111.233 194.371 111.94C194.758 112.647 194.951 113.5 194.951 114.5V121H192.691V114.84C192.691 113.853 192.444 113.1 191.951 112.58C191.458 112.047 190.784 111.78 189.931 111.78C189.078 111.78 188.398 112.047 187.891 112.58C187.398 113.1 187.151 113.853 187.151 114.84V121H184.871V109.98H187.151V111.24C187.524 110.787 187.998 110.433 188.571 110.18C189.158 109.927 189.778 109.8 190.431 109.8ZM199.019 108.52C198.606 108.52 198.259 108.38 197.979 108.1C197.699 107.82 197.559 107.473 197.559 107.06C197.559 106.647 197.699 106.3 197.979 106.02C198.259 105.74 198.606 105.6 199.019 105.6C199.419 105.6 199.759 105.74 200.039 106.02C200.319 106.3 200.459 106.647 200.459 107.06C200.459 107.473 200.319 107.82 200.039 108.1C199.759 108.38 199.419 108.52 199.019 108.52ZM200.139 109.98V121H197.859V109.98H200.139ZM208.693 109.8C209.559 109.8 210.333 109.98 211.013 110.34C211.706 110.7 212.246 111.233 212.633 111.94C213.019 112.647 213.213 113.5 213.213 114.5V121H210.953V114.84C210.953 113.853 210.706 113.1 210.213 112.58C209.719 112.047 209.046 111.78 208.193 111.78C207.339 111.78 206.659 112.047 206.153 112.58C205.659 113.1 205.413 113.853 205.413 114.84V121H203.133V109.98H205.413V111.24C205.786 110.787 206.259 110.433 206.833 110.18C207.419 109.927 208.039 109.8 208.693 109.8ZM220.561 109.8C221.414 109.8 222.168 109.973 222.821 110.32C223.488 110.653 224.008 111.073 224.381 111.58V109.98H226.681V121.18C226.681 122.193 226.468 123.093 226.041 123.88C225.614 124.68 224.994 125.307 224.181 125.76C223.381 126.213 222.421 126.44 221.301 126.44C219.808 126.44 218.568 126.087 217.581 125.38C216.594 124.687 216.034 123.74 215.901 122.54H218.161C218.334 123.113 218.701 123.573 219.261 123.92C219.834 124.28 220.514 124.46 221.301 124.46C222.221 124.46 222.961 124.18 223.521 123.62C224.094 123.06 224.381 122.247 224.381 121.18V119.34C223.994 119.86 223.468 120.3 222.801 120.66C222.148 121.007 221.401 121.18 220.561 121.18C219.601 121.18 218.721 120.94 217.921 120.46C217.134 119.967 216.508 119.287 216.041 118.42C215.588 117.54 215.361 116.547 215.361 115.44C215.361 114.333 215.588 113.353 216.041 112.5C216.508 111.647 217.134 110.987 217.921 110.52C218.721 110.04 219.601 109.8 220.561 109.8ZM224.381 115.48C224.381 114.72 224.221 114.06 223.901 113.5C223.594 112.94 223.188 112.513 222.681 112.22C222.174 111.927 221.628 111.78 221.041 111.78C220.454 111.78 219.908 111.927 219.401 112.22C218.894 112.5 218.481 112.92 218.161 113.48C217.854 114.027 217.701 114.68 217.701 115.44C217.701 116.2 217.854 116.867 218.161 117.44C218.481 118.013 218.894 118.453 219.401 118.76C219.921 119.053 220.468 119.2 221.041 119.2C221.628 119.2 222.174 119.053 222.681 118.76C223.188 118.467 223.594 118.04 223.901 117.48C224.221 116.907 224.381 116.24 224.381 115.48ZM233.416 106.9C234.776 106.9 235.862 107.273 236.676 108.02C237.502 108.767 237.916 109.787 237.916 111.08C237.916 112.427 237.489 113.44 236.636 114.12C235.782 114.8 234.649 115.14 233.236 115.14L233.156 116.72H231.176L231.076 113.58H231.736C233.029 113.58 234.016 113.407 234.696 113.06C235.389 112.713 235.736 112.053 235.736 111.08C235.736 110.373 235.529 109.82 235.116 109.42C234.716 109.02 234.156 108.82 233.436 108.82C232.716 108.82 232.149 109.013 231.736 109.4C231.322 109.787 231.116 110.327 231.116 111.02H228.976C228.976 110.22 229.156 109.507 229.516 108.88C229.876 108.253 230.389 107.767 231.056 107.42C231.736 107.073 232.522 106.9 233.416 106.9ZM232.136 121.14C231.722 121.14 231.376 121 231.096 120.72C230.816 120.44 230.676 120.093 230.676 119.68C230.676 119.267 230.816 118.92 231.096 118.64C231.376 118.36 231.722 118.22 232.136 118.22C232.536 118.22 232.876 118.36 233.156 118.64C233.436 118.92 233.576 119.267 233.576 119.68C233.576 120.093 233.436 120.44 233.156 120.72C232.876 121 232.536 121.14 232.136 121.14Z" fill="#524633"/>
</g>
<defs>
<filter id="filter0_d_26_172" x="0" y="0" width="407" height="244" filterUnits="userSpaceOnUse" color-interpolation-filters="sRGB">
<feFlood flood-opacity="0" result="BackgroundImageFix"/>
<feColorMatrix in="SourceAlpha" type="matrix" values="0 0 0 0 0 0 0 0 0 0 0 0 0 0 0 0 0 0 127 0" result="hardAlpha"/>
<feOffset dy="4"/>
<feGaussianBlur stdDeviation="22"/>
<feComposite in2="hardAlpha" operator="out"/>
<feColorMatrix type="matrix" values="0 0 0 0 0 0 0 0 0 0 0 0 0 0 0 0 0 0 0.07 0"/>
<feBlend mode="normal" in2="BackgroundImageFix" result="effect1_dropShadow_26_172"/>
<feBlend mode="normal" in="SourceGraphic" in2="effect1_dropShadow_26_172" result="shape"/>
</filter>
<filter id="filter1_b_26_172" x="-56" y="-60" width="519" height="356" filterUnits="userSpaceOnUse" color-interpolation-filters="sRGB">
<feFlood flood-opacity="0" result="BackgroundImageFix"/>
<feGaussianBlur in="BackgroundImageFix" stdDeviation="50"/>
<feComposite in2="SourceAlpha" operator="in" result="effect1_backgroundBlur_26_172"/>
<feBlend mode="normal" in="SourceGraphic" in2="effect1_backgroundBlur_26_172" result="shape"/>
</filter>
</defs>
</svg>
