<svg width="201" height="148" viewBox="0 0 201 148" fill="none" xmlns="http://www.w3.org/2000/svg">
<path d="M146.381 99.1112V89.0312L199.633 96.2584V106.433L169.584 115.562L146.381 99.1112Z" fill="#524633"/>
<path d="M200.108 96.2584L169.964 104.912L146 88.746L174.718 80.6631L200.108 96.2584Z" fill="#A67F28"/>
<path d="M169.618 82.4697L153.19 87.1353C155.898 88.7236 152.061 89.1869 149.805 89.22C155.447 93.1907 167.129 101.37 168.722 102.323C172.386 100.815 174.563 102.026 175.193 102.82C180.802 101.066 192.438 97.4593 194.111 97.0622C189.889 96.3475 193.878 95.1761 196.401 94.6798C190.128 90.9737 177.264 83.3433 175.99 82.4697C172.167 84.5345 170.149 83.3301 169.618 82.4697Z" fill="#FFDB6B"/>
<ellipse cx="172.524" cy="91.8476" rx="11.948" ry="3.89779" transform="rotate(-10.2124 172.524 91.8476)" fill="#A67F28"/>
<path d="M176.524 87.9854L181.944 90.9333L180.138 91.3136L177.76 90.043C177.76 90.7037 177.475 92.0744 175.193 92.6449C173.367 93.1014 171.769 91.6623 171.484 90.9333L169.202 95.3076L167.49 95.6879L171.294 88.9363H172.435C172.498 89.2948 172.435 90.4029 173.101 90.7431C175.231 91.8317 176.271 90.2895 176.524 89.3822L174.622 88.3657L176.524 87.9854Z" fill="#FFDB6B"/>
<path d="M174.241 88.936L176.143 90.2673L178.806 92.1692L177.475 92.5496L172.91 89.1262L174.241 88.936Z" fill="#FFDB6B"/>
<path d="M146.381 87.89V77.8101L199.633 85.0372V95.2122L169.584 104.341L146.381 87.89Z" fill="#524633"/>
<path d="M200.108 85.0373L169.964 93.6908L146 77.5249L174.718 69.4419L200.108 85.0373Z" fill="#A67F28"/>
<path d="M169.618 71.2485L153.19 75.9142C155.898 77.5024 152.061 77.9657 149.805 77.9988C155.447 81.9695 167.129 90.1493 168.722 91.1022C172.386 89.5934 174.563 90.8044 175.193 91.5986C180.802 89.8448 192.438 86.2381 194.111 85.841C189.889 85.1263 193.878 83.9549 196.401 83.4586C190.128 79.7525 177.264 72.1221 175.99 71.2485C172.167 73.3133 170.149 72.1089 169.618 71.2485Z" fill="#FFDB6B"/>
<ellipse cx="172.524" cy="80.6264" rx="11.948" ry="3.89779" transform="rotate(-10.2124 172.524 80.6264)" fill="#A67F28"/>
<path d="M176.524 76.7642L181.944 79.7121L180.138 80.0924L177.76 78.8218C177.76 79.4825 177.475 80.8532 175.193 81.4237C173.367 81.8802 171.769 80.4411 171.484 79.7121L169.202 84.0864L167.49 84.4667L171.294 77.7151H172.435C172.498 78.0736 172.435 79.1817 173.101 79.5219C175.231 80.6105 176.271 79.0683 176.524 78.1611L174.622 77.1445L176.524 76.7642Z" fill="#FFDB6B"/>
<path d="M174.241 77.7153L176.143 79.0466L178.806 80.9485L177.475 81.3289L172.91 77.9055L174.241 77.7153Z" fill="#FFDB6B"/>
<path d="M146.381 76.6688V66.5889L199.633 73.816V83.991L169.584 93.12L146.381 76.6688Z" fill="#524633"/>
<path d="M200.108 73.8161L169.964 82.4696L146 66.3037L174.718 58.2207L200.108 73.8161Z" fill="#A67F28"/>
<path d="M169.618 60.0273L153.19 64.693C155.898 66.2813 152.061 66.7445 149.805 66.7776C155.447 70.7483 167.129 78.9281 168.722 79.881C172.386 78.3722 174.563 79.5832 175.193 80.3774C180.802 78.6236 192.438 75.0169 194.111 74.6198C189.889 73.9051 193.878 72.7337 196.401 72.2374C190.128 68.5313 177.264 60.9009 175.99 60.0273C172.167 62.0921 170.149 60.8877 169.618 60.0273Z" fill="#FFDB6B"/>
<ellipse cx="172.524" cy="69.4052" rx="11.948" ry="3.89779" transform="rotate(-10.2124 172.524 69.4052)" fill="#A67F28"/>
<path d="M176.524 65.543L181.944 68.4909L180.138 68.8712L177.76 67.6006C177.76 68.2613 177.475 69.632 175.193 70.2026C173.367 70.659 171.769 69.2199 171.484 68.4909L169.202 72.8652L167.49 73.2456L171.294 66.4939H172.435C172.498 66.8524 172.435 67.9605 173.101 68.3007C175.231 69.3893 176.271 67.8471 176.524 66.9399L174.622 65.9233L176.524 65.543Z" fill="#FFDB6B"/>
<path d="M174.241 66.4941L176.143 67.8255L178.806 69.7273L177.475 70.1077L172.91 66.6843L174.241 66.4941Z" fill="#FFDB6B"/>
<path d="M146.381 65.4481V55.3682L199.633 62.5953V72.7703L169.584 81.8993L146.381 65.4481Z" fill="#524633"/>
<path d="M200.108 62.5954L169.964 71.2489L146 55.083L174.718 47L200.108 62.5954Z" fill="#A67F28"/>
<path d="M169.618 48.8066L153.19 53.4723C155.898 55.0606 152.061 55.5238 149.805 55.5569C155.447 59.5276 167.129 67.7074 168.722 68.6603C172.386 67.1515 174.563 68.3625 175.193 69.1567C180.802 67.4029 192.438 63.7962 194.111 63.3991C189.889 62.6844 193.878 61.513 196.401 61.0167C190.128 57.3106 177.264 49.6802 175.99 48.8066C172.167 50.8714 170.149 49.667 169.618 48.8066Z" fill="#FFDB6B"/>
<ellipse cx="172.524" cy="58.1845" rx="11.948" ry="3.89779" transform="rotate(-10.2124 172.524 58.1845)" fill="#A67F28"/>
<path d="M176.524 54.3223L181.944 57.2702L180.138 57.6505L177.76 56.3799C177.76 57.0406 177.475 58.4113 175.193 58.9819C173.367 59.4383 171.769 57.9992 171.484 57.2702L169.202 61.6445L167.49 62.0249L171.294 55.2732H172.435C172.498 55.6317 172.435 56.7398 173.101 57.08C175.231 58.1686 176.271 56.6264 176.524 55.7192L174.622 54.7026L176.524 54.3223Z" fill="#FFDB6B"/>
<path d="M174.241 55.2734L176.143 56.6047L178.806 58.5066L177.475 58.887L172.91 55.4636L174.241 55.2734Z" fill="#FFDB6B"/>
<path d="M68.7188 109.995V99.9155L121.971 107.143V117.318L91.9216 126.447L68.7188 109.995Z" fill="#524633"/>
<path d="M122.446 107.143L92.3015 115.796L68.3379 99.6303L97.0562 91.5474L122.446 107.143Z" fill="#A67F28"/>
<path d="M91.9558 93.354L75.5277 98.0196C78.2359 99.6079 74.3994 100.071 72.1426 100.104C77.7845 104.075 89.4667 112.255 91.0597 113.208C94.7237 111.699 96.9008 112.91 97.5314 113.704C103.14 111.95 114.776 108.344 116.448 107.946C112.227 107.232 116.216 106.06 118.738 105.564C112.466 101.858 99.6023 94.2276 98.3279 93.354C94.5046 95.4188 92.4868 94.2143 91.9558 93.354Z" fill="#FFDB6B"/>
<ellipse cx="94.8619" cy="102.732" rx="11.948" ry="3.89779" transform="rotate(-10.2124 94.8619 102.732)" fill="#A67F28"/>
<path d="M98.862 98.8696L104.282 101.818L102.476 102.198L100.098 100.927C100.098 101.588 99.813 102.959 97.5307 103.529C95.7049 103.986 94.1073 102.547 93.8221 101.818L91.5398 106.192L89.8281 106.572L93.6319 99.8206H94.773C94.8364 100.179 94.773 101.287 95.4387 101.627C97.5687 102.716 98.6084 101.174 98.862 100.267L96.9601 99.25L98.862 98.8696Z" fill="#FFDB6B"/>
<path d="M96.5794 99.8208L98.4812 101.152L101.144 103.054L99.8125 103.434L95.248 100.011L96.5794 99.8208Z" fill="#FFDB6B"/>
<path d="M68.7188 98.7743V88.6943L121.971 95.9215V106.096L91.9216 115.225L68.7188 98.7743Z" fill="#524633"/>
<path d="M122.446 95.9215L92.3015 104.575L68.3379 88.4091L97.0562 80.3262L122.446 95.9215Z" fill="#A67F28"/>
<path d="M91.9558 82.1328L75.5277 86.7984C78.2359 88.3867 74.3994 88.85 72.1426 88.8831C77.7845 92.8538 89.4667 101.034 91.0597 101.987C94.7237 100.478 96.9008 101.689 97.5314 102.483C103.14 100.729 114.776 97.1224 116.448 96.7253C112.227 96.0105 116.216 94.8392 118.738 94.3428C112.466 90.6368 99.6023 83.0064 98.3279 82.1328C94.5046 84.1976 92.4868 82.9931 91.9558 82.1328Z" fill="#FFDB6B"/>
<ellipse cx="94.8619" cy="91.5107" rx="11.948" ry="3.89779" transform="rotate(-10.2124 94.8619 91.5107)" fill="#A67F28"/>
<path d="M98.862 87.6484L104.282 90.5963L102.476 90.9767L100.098 89.7061C100.098 90.3668 99.813 91.7375 97.5307 92.308C95.7049 92.7645 94.1073 91.3254 93.8221 90.5963L91.5398 94.9706L89.8281 95.351L93.6319 88.5994H94.773C94.8364 88.9579 94.773 90.0659 95.4387 90.4062C97.5687 91.4948 98.6084 89.9525 98.862 89.0453L96.9601 88.0288L98.862 87.6484Z" fill="#FFDB6B"/>
<path d="M96.5794 88.5996L98.4812 89.9309L101.144 91.8328L99.8125 92.2132L95.248 88.7898L96.5794 88.5996Z" fill="#FFDB6B"/>
<path d="M68.7188 87.5536V77.4736L121.971 84.7007V94.8758L91.9216 104.005L68.7188 87.5536Z" fill="#524633"/>
<path d="M122.446 84.7008L92.3015 93.3544L68.3379 77.1884L97.0562 69.1055L122.446 84.7008Z" fill="#A67F28"/>
<path d="M91.9558 70.9121L75.5277 75.5777C78.2359 77.166 74.3994 77.6293 72.1426 77.6624C77.7845 81.6331 89.4667 89.8128 91.0597 90.7658C94.7237 89.2569 96.9008 90.468 97.5314 91.2621C103.14 89.5084 114.776 85.9017 116.448 85.5046C112.227 84.7898 116.216 83.6185 118.738 83.1221C112.466 79.4161 99.6023 71.7857 98.3279 70.9121C94.5046 72.9769 92.4868 71.7724 91.9558 70.9121Z" fill="#FFDB6B"/>
<ellipse cx="94.8619" cy="80.29" rx="11.948" ry="3.89779" transform="rotate(-10.2124 94.8619 80.29)" fill="#A67F28"/>
<path d="M98.862 76.4277L104.282 79.3756L102.476 79.756L100.098 78.4854C100.098 79.1461 99.813 80.5168 97.5307 81.0873C95.7049 81.5438 94.1073 80.1047 93.8221 79.3756L91.5398 83.7499L89.8281 84.1303L93.6319 77.3787H94.773C94.8364 77.7372 94.773 78.8452 95.4387 79.1855C97.5687 80.2741 98.6084 78.7318 98.862 77.8246L96.9601 76.8081L98.862 76.4277Z" fill="#FFDB6B"/>
<path d="M96.5794 77.3789L98.4812 78.7102L101.144 80.6121L99.8125 80.9925L95.248 77.5691L96.5794 77.3789Z" fill="#FFDB6B"/>
<path d="M68.7188 76.3324V66.2524L121.971 73.4796V83.6546L91.9216 92.7836L68.7188 76.3324Z" fill="#524633"/>
<path d="M122.446 73.4796L92.3015 82.1332L68.3379 65.9672L97.0562 57.8843L122.446 73.4796Z" fill="#A67F28"/>
<path d="M91.9558 59.6909L75.5277 64.3565C78.2359 65.9448 74.3994 66.4081 72.1426 66.4412C77.7845 70.4119 89.4667 78.5916 91.0597 79.5446C94.7237 78.0357 96.9008 79.2468 97.5314 80.041C103.14 78.2872 114.776 74.6805 116.448 74.2834C112.227 73.5687 116.216 72.3973 118.738 71.9009C112.466 68.1949 99.6023 60.5645 98.3279 59.6909C94.5046 61.7557 92.4868 60.5512 91.9558 59.6909Z" fill="#FFDB6B"/>
<ellipse cx="94.8619" cy="69.0688" rx="11.948" ry="3.89779" transform="rotate(-10.2124 94.8619 69.0688)" fill="#A67F28"/>
<path d="M98.862 65.2065L104.282 68.1544L102.476 68.5348L100.098 67.2642C100.098 67.9249 99.813 69.2956 97.5307 69.8661C95.7049 70.3226 94.1073 68.8835 93.8221 68.1544L91.5398 72.5288L89.8281 72.9091L93.6319 66.1575H94.773C94.8364 66.516 94.773 67.6241 95.4387 67.9643C97.5687 69.0529 98.6084 67.5107 98.862 66.6034L96.9601 65.5869L98.862 65.2065Z" fill="#FFDB6B"/>
<path d="M96.5794 66.1577L98.4812 67.489L101.144 69.3909L99.8125 69.7713L95.248 66.3479L96.5794 66.1577Z" fill="#FFDB6B"/>
<path d="M68.7188 65.1112V55.0312L121.971 62.2584V72.4334L91.9216 81.5624L68.7188 65.1112Z" fill="#524633"/>
<path d="M122.446 62.2584L92.3015 70.912L68.3379 54.746L97.0562 46.6631L122.446 62.2584Z" fill="#A67F28"/>
<path d="M91.9558 48.4697L75.5277 53.1353C78.2359 54.7236 74.3994 55.1869 72.1426 55.22C77.7845 59.1907 89.4667 67.3704 91.0597 68.3234C94.7237 66.8145 96.9008 68.0256 97.5314 68.8198C103.14 67.066 114.776 63.4593 116.448 63.0622C112.227 62.3475 116.216 61.1761 118.738 60.6798C112.466 56.9737 99.6023 49.3433 98.3279 48.4697C94.5046 50.5345 92.4868 49.3301 91.9558 48.4697Z" fill="#FFDB6B"/>
<ellipse cx="94.8619" cy="57.8476" rx="11.948" ry="3.89779" transform="rotate(-10.2124 94.8619 57.8476)" fill="#A67F28"/>
<path d="M98.862 53.9854L104.282 56.9333L102.476 57.3136L100.098 56.043C100.098 56.7037 99.813 58.0744 97.5307 58.6449C95.7049 59.1014 94.1073 57.6623 93.8221 56.9333L91.5398 61.3076L89.8281 61.6879L93.6319 54.9363H94.773C94.8364 55.2948 94.773 56.4029 95.4387 56.7431C97.5687 57.8317 98.6084 56.2895 98.862 55.3822L96.9601 54.3657L98.862 53.9854Z" fill="#FFDB6B"/>
<path d="M96.5794 54.936L98.4812 56.2673L101.144 58.1692L99.8125 58.5496L95.248 55.1262L96.5794 54.936Z" fill="#FFDB6B"/>
<path d="M68.7188 53.89V43.8101L121.971 51.0372V61.2122L91.9216 70.3412L68.7188 53.89Z" fill="#524633"/>
<path d="M122.446 51.0373L92.3015 59.6908L68.3379 43.5249L97.0562 35.4419L122.446 51.0373Z" fill="#A67F28"/>
<path d="M91.9558 37.2485L75.5277 41.9142C78.2359 43.5024 74.3994 43.9657 72.1426 43.9988C77.7845 47.9695 89.4667 56.1493 91.0597 57.1022C94.7237 55.5934 96.9008 56.8044 97.5314 57.5986C103.14 55.8448 114.776 52.2381 116.448 51.841C112.227 51.1263 116.216 49.9549 118.738 49.4586C112.466 45.7525 99.6023 38.1221 98.3279 37.2485C94.5046 39.3133 92.4868 38.1089 91.9558 37.2485Z" fill="#FFDB6B"/>
<ellipse cx="94.8619" cy="46.6264" rx="11.948" ry="3.89779" transform="rotate(-10.2124 94.8619 46.6264)" fill="#A67F28"/>
<path d="M98.862 42.7642L104.282 45.7121L102.476 46.0924L100.098 44.8218C100.098 45.4825 99.813 46.8532 97.5307 47.4237C95.7049 47.8802 94.1073 46.4411 93.8221 45.7121L91.5398 50.0864L89.8281 50.4667L93.6319 43.7151H94.773C94.8364 44.0736 94.773 45.1817 95.4387 45.5219C97.5687 46.6105 98.6084 45.0683 98.862 44.1611L96.9601 43.1445L98.862 42.7642Z" fill="#FFDB6B"/>
<path d="M96.5794 43.7153L98.4812 45.0466L101.144 46.9485L99.8125 47.3289L95.248 43.9055L96.5794 43.7153Z" fill="#FFDB6B"/>
<path d="M68.7188 42.6688V32.5889L121.971 39.816V49.991L91.9216 59.12L68.7188 42.6688Z" fill="#524633"/>
<path d="M122.446 39.8161L92.3015 48.4696L68.3379 32.3037L97.0562 24.2207L122.446 39.8161Z" fill="#A67F28"/>
<path d="M91.9558 26.0273L75.5277 30.693C78.2359 32.2813 74.3994 32.7445 72.1426 32.7776C77.7845 36.7483 89.4667 44.9281 91.0597 45.881C94.7237 44.3722 96.9008 45.5832 97.5314 46.3774C103.14 44.6236 114.776 41.0169 116.448 40.6198C112.227 39.9051 116.216 38.7337 118.738 38.2374C112.466 34.5313 99.6023 26.9009 98.3279 26.0273C94.5046 28.0921 92.4868 26.8877 91.9558 26.0273Z" fill="#FFDB6B"/>
<ellipse cx="94.8619" cy="35.4052" rx="11.948" ry="3.89779" transform="rotate(-10.2124 94.8619 35.4052)" fill="#A67F28"/>
<path d="M98.862 31.543L104.282 34.4909L102.476 34.8712L100.098 33.6006C100.098 34.2613 99.813 35.632 97.5307 36.2026C95.7049 36.659 94.1073 35.2199 93.8221 34.4909L91.5398 38.8652L89.8281 39.2456L93.6319 32.4939H94.773C94.8364 32.8524 94.773 33.9605 95.4387 34.3007C97.5687 35.3893 98.6084 33.8471 98.862 32.9399L96.9601 31.9233L98.862 31.543Z" fill="#FFDB6B"/>
<path d="M96.5794 32.4937L98.4812 33.825L101.144 35.7268L99.8125 36.1072L95.248 32.6838L96.5794 32.4937Z" fill="#FFDB6B"/>
<path d="M68.7188 31.4481V21.3682L121.971 28.5953V38.7703L91.9216 47.8993L68.7188 31.4481Z" fill="#524633"/>
<path d="M122.446 28.5954L92.3015 37.2489L68.3379 21.083L97.0562 13L122.446 28.5954Z" fill="#A67F28"/>
<path d="M91.9558 14.8066L75.5277 19.4723C78.2359 21.0606 74.3994 21.5238 72.1426 21.5569C77.7845 25.5276 89.4667 33.7074 91.0597 34.6603C94.7237 33.1515 96.9008 34.3625 97.5314 35.1567C103.14 33.4029 114.776 29.7962 116.448 29.3991C112.227 28.6844 116.216 27.513 118.738 27.0167C112.466 23.3106 99.6023 15.6802 98.3279 14.8066C94.5046 16.8714 92.4868 15.667 91.9558 14.8066Z" fill="#FFDB6B"/>
<ellipse cx="94.8619" cy="24.1845" rx="11.948" ry="3.89779" transform="rotate(-10.2124 94.8619 24.1845)" fill="#A67F28"/>
<path d="M98.862 20.3223L104.282 23.2702L102.476 23.6505L100.098 22.3799C100.098 23.0406 99.813 24.4113 97.5307 24.9819C95.7049 25.4383 94.1073 23.9992 93.8221 23.2702L91.5398 27.6445L89.8281 28.0249L93.6319 21.2732H94.773C94.8364 21.6317 94.773 22.7398 95.4387 23.08C97.5687 24.1686 98.6084 22.6264 98.862 21.7192L96.9601 20.7026L98.862 20.3223Z" fill="#FFDB6B"/>
<path d="M96.5794 21.2734L98.4812 22.6047L101.144 24.5066L99.8125 24.887L95.248 21.4636L96.5794 21.2734Z" fill="#FFDB6B"/>
<path d="M15.3809 101.995V91.9155L68.6333 99.1426V109.318L38.5837 118.447L15.3809 101.995Z" fill="#524633"/>
<path d="M69.1083 99.1427L38.9636 107.796L15 91.6303L43.7183 83.5474L69.1083 99.1427Z" fill="#A67F28"/>
<path d="M38.6159 85.354L22.1879 90.0196C24.896 91.6079 21.0595 92.0712 18.8027 92.1043C24.4447 96.075 36.1268 104.255 37.7199 105.208C41.3838 103.699 43.5609 104.91 44.1915 105.704C49.8003 103.95 61.436 100.344 63.1087 99.9465C58.8871 99.2317 62.8763 98.0604 65.3986 97.564C59.1261 93.858 46.2624 86.2276 44.988 85.354C41.1648 87.4188 39.1469 86.2143 38.6159 85.354Z" fill="#FFDB6B"/>
<ellipse cx="41.524" cy="94.7319" rx="11.948" ry="3.89779" transform="rotate(-10.2124 41.524 94.7319)" fill="#A67F28"/>
<path d="M45.5241 90.8696L50.9445 93.8175L49.1377 94.1979L46.7603 92.9273C46.7603 93.588 46.4751 94.9587 44.1928 95.5292C42.367 95.9857 40.7694 94.5466 40.4842 93.8175L38.2019 98.1918L36.4902 98.5722L40.294 91.8206H41.4351C41.4985 92.1791 41.4351 93.2871 42.1008 93.6273C44.2309 94.716 45.2705 93.1737 45.5241 92.2665L43.6223 91.25L45.5241 90.8696Z" fill="#FFDB6B"/>
<path d="M43.2415 91.8203L45.1433 93.1516L47.806 95.0535L46.4747 95.4339L41.9102 92.0105L43.2415 91.8203Z" fill="#FFDB6B"/>
<path d="M15.3809 90.7743V80.6943L68.6333 87.9215V98.0965L38.5837 107.225L15.3809 90.7743Z" fill="#524633"/>
<path d="M69.1083 87.9215L38.9636 96.5751L15 80.4091L43.7183 72.3262L69.1083 87.9215Z" fill="#A67F28"/>
<path d="M38.6159 74.1328L22.1879 78.7984C24.896 80.3867 21.0595 80.85 18.8027 80.8831C24.4447 84.8538 36.1268 93.0335 37.7199 93.9865C41.3838 92.4776 43.5609 93.6887 44.1915 94.4829C49.8003 92.7291 61.436 89.1224 63.1087 88.7253C58.8871 88.0105 62.8763 86.8392 65.3986 86.3428C59.1261 82.6368 46.2624 75.0064 44.988 74.1328C41.1648 76.1976 39.1469 74.9931 38.6159 74.1328Z" fill="#FFDB6B"/>
<ellipse cx="41.524" cy="83.5107" rx="11.948" ry="3.89779" transform="rotate(-10.2124 41.524 83.5107)" fill="#A67F28"/>
<path d="M45.5241 79.6484L50.9445 82.5963L49.1377 82.9767L46.7603 81.7061C46.7603 82.3668 46.4751 83.7375 44.1928 84.308C42.367 84.7645 40.7694 83.3254 40.4842 82.5963L38.2019 86.9706L36.4902 87.351L40.294 80.5994H41.4351C41.4985 80.9579 41.4351 82.0659 42.1008 82.4062C44.2309 83.4948 45.2705 81.9525 45.5241 81.0453L43.6223 80.0288L45.5241 79.6484Z" fill="#FFDB6B"/>
<path d="M43.2415 80.5996L45.1433 81.9309L47.806 83.8328L46.4747 84.2132L41.9102 80.7898L43.2415 80.5996Z" fill="#FFDB6B"/>
<path d="M15.3809 79.5531V69.4731L68.6333 76.7003V86.8753L38.5837 96.0043L15.3809 79.5531Z" fill="#524633"/>
<path d="M69.1083 76.7003L38.9636 85.3539L15 69.1879L43.7183 61.105L69.1083 76.7003Z" fill="#A67F28"/>
<path d="M38.6159 62.9116L22.1879 67.5772C24.896 69.1655 21.0595 69.6288 18.8027 69.6619C24.4447 73.6326 36.1268 81.8123 37.7199 82.7653C41.3838 81.2564 43.5609 82.4675 44.1915 83.2617C49.8003 81.5079 61.436 77.9012 63.1087 77.5041C58.8871 76.7894 62.8763 75.618 65.3986 75.1216C59.1261 71.4156 46.2624 63.7852 44.988 62.9116C41.1648 64.9764 39.1469 63.7719 38.6159 62.9116Z" fill="#FFDB6B"/>
<ellipse cx="41.524" cy="72.2895" rx="11.948" ry="3.89779" transform="rotate(-10.2124 41.524 72.2895)" fill="#A67F28"/>
<path d="M45.5241 68.4272L50.9445 71.3751L49.1377 71.7555L46.7603 70.4849C46.7603 71.1456 46.4751 72.5163 44.1928 73.0868C42.367 73.5433 40.7694 72.1042 40.4842 71.3751L38.2019 75.7495L36.4902 76.1298L40.294 69.3782H41.4351C41.4985 69.7367 41.4351 70.8448 42.1008 71.185C44.2309 72.2736 45.2705 70.7314 45.5241 69.8241L43.6223 68.8076L45.5241 68.4272Z" fill="#FFDB6B"/>
<path d="M43.2415 69.3784L45.1433 70.7097L47.806 72.6116L46.4747 72.992L41.9102 69.5686L43.2415 69.3784Z" fill="#FFDB6B"/>
<path d="M15.3809 68.3324V58.2524L68.6333 65.4796V75.6546L38.5837 84.7836L15.3809 68.3324Z" fill="#524633"/>
<path d="M69.1083 65.4796L38.9636 74.1332L15 57.9672L43.7183 49.8843L69.1083 65.4796Z" fill="#A67F28"/>
<path d="M38.6159 51.6914L22.1879 56.357C24.896 57.9453 21.0595 58.4086 18.8027 58.4417C24.4447 62.4124 36.1268 70.5921 37.7199 71.5451C41.3838 70.0362 43.5609 71.2473 44.1915 72.0414C49.8003 70.2877 61.436 66.6809 63.1087 66.2839C58.8871 65.5691 62.8763 64.3978 65.3986 63.9014C59.1261 60.1954 46.2624 52.565 44.988 51.6914C41.1648 53.7562 39.1469 52.5517 38.6159 51.6914Z" fill="#FFDB6B"/>
<ellipse cx="41.524" cy="61.0688" rx="11.948" ry="3.89779" transform="rotate(-10.2124 41.524 61.0688)" fill="#A67F28"/>
<path d="M45.5241 57.2065L50.9445 60.1544L49.1377 60.5348L46.7603 59.2642C46.7603 59.9249 46.4751 61.2956 44.1928 61.8661C42.367 62.3226 40.7694 60.8835 40.4842 60.1544L38.2019 64.5288L36.4902 64.9091L40.294 58.1575H41.4351C41.4985 58.516 41.4351 59.6241 42.1008 59.9643C44.2309 61.0529 45.2705 59.5107 45.5241 58.6034L43.6223 57.5869L45.5241 57.2065Z" fill="#FFDB6B"/>
<path d="M43.2415 58.1577L45.1433 59.489L47.806 61.3909L46.4747 61.7713L41.9102 58.3479L43.2415 58.1577Z" fill="#FFDB6B"/>
<path d="M15.3809 57.1112V47.0312L68.6333 54.2584V64.4334L38.5837 73.5624L15.3809 57.1112Z" fill="#524633"/>
<path d="M69.1083 54.2584L38.9636 62.912L15 46.746L43.7183 38.6631L69.1083 54.2584Z" fill="#A67F28"/>
<path d="M38.6159 40.4697L22.1879 45.1353C24.896 46.7236 21.0595 47.1869 18.8027 47.22C24.4447 51.1907 36.1268 59.3704 37.7199 60.3234C41.3838 58.8145 43.5609 60.0256 44.1915 60.8198C49.8003 59.066 61.436 55.4593 63.1087 55.0622C58.8871 54.3475 62.8763 53.1761 65.3986 52.6798C59.1261 48.9737 46.2624 41.3433 44.988 40.4697C41.1648 42.5345 39.1469 41.3301 38.6159 40.4697Z" fill="#FFDB6B"/>
<ellipse cx="41.524" cy="49.8476" rx="11.948" ry="3.89779" transform="rotate(-10.2124 41.524 49.8476)" fill="#A67F28"/>
<path d="M45.5241 45.9854L50.9445 48.9333L49.1377 49.3136L46.7603 48.043C46.7603 48.7037 46.4751 50.0744 44.1928 50.6449C42.367 51.1014 40.7694 49.6623 40.4842 48.9333L38.2019 53.3076L36.4902 53.6879L40.294 46.9363H41.4351C41.4985 47.2948 41.4351 48.4029 42.1008 48.7431C44.2309 49.8317 45.2705 48.2895 45.5241 47.3822L43.6223 46.3657L45.5241 45.9854Z" fill="#FFDB6B"/>
<path d="M43.2415 46.9365L45.1433 48.2678L47.806 50.1697L46.4747 50.5501L41.9102 47.1267L43.2415 46.9365Z" fill="#FFDB6B"/>
<path d="M15.3809 45.89V35.8101L68.6333 43.0372V53.2122L38.5837 62.3412L15.3809 45.89Z" fill="#524633"/>
<path d="M69.1083 43.0373L38.9636 51.6908L15 35.5249L43.7183 27.4419L69.1083 43.0373Z" fill="#A67F28"/>
<path d="M38.6159 29.2485L22.1879 33.9142C24.896 35.5024 21.0595 35.9657 18.8027 35.9988C24.4447 39.9695 36.1268 48.1493 37.7199 49.1022C41.3838 47.5934 43.5609 48.8044 44.1915 49.5986C49.8003 47.8448 61.436 44.2381 63.1087 43.841C58.8871 43.1263 62.8763 41.9549 65.3986 41.4586C59.1261 37.7525 46.2624 30.1221 44.988 29.2485C41.1648 31.3133 39.1469 30.1089 38.6159 29.2485Z" fill="#FFDB6B"/>
<ellipse cx="41.524" cy="38.6264" rx="11.948" ry="3.89779" transform="rotate(-10.2124 41.524 38.6264)" fill="#A67F28"/>
<path d="M45.5241 34.7642L50.9445 37.7121L49.1377 38.0924L46.7603 36.8218C46.7603 37.4825 46.4751 38.8532 44.1928 39.4237C42.367 39.8802 40.7694 38.4411 40.4842 37.7121L38.2019 42.0864L36.4902 42.4667L40.294 35.7151H41.4351C41.4985 36.0736 41.4351 37.1817 42.1008 37.5219C44.2309 38.6105 45.2705 37.0683 45.5241 36.1611L43.6223 35.1445L45.5241 34.7642Z" fill="#FFDB6B"/>
<path d="M43.2415 35.7153L45.1433 37.0466L47.806 38.9485L46.4747 39.3289L41.9102 35.9055L43.2415 35.7153Z" fill="#FFDB6B"/>
<path d="M15.3809 34.6693V24.5894L68.6333 31.8165V41.9915L38.5837 51.1205L15.3809 34.6693Z" fill="#524633"/>
<path d="M69.1083 31.8166L38.9636 40.4701L15 24.3042L43.7183 16.2212L69.1083 31.8166Z" fill="#A67F28"/>
<path d="M38.6159 18.0278L22.1879 22.6935C24.896 24.2817 21.0595 24.745 18.8027 24.7781C24.4447 28.7488 36.1268 36.9286 37.7199 37.8815C41.3838 36.3726 43.5609 37.5837 44.1915 38.3779C49.8003 36.6241 61.436 33.0174 63.1087 32.6203C58.8871 31.9056 62.8763 30.7342 65.3986 30.2379C59.1261 26.5318 46.2624 18.9014 44.988 18.0278C41.1648 20.0926 39.1469 18.8882 38.6159 18.0278Z" fill="#FFDB6B"/>
<ellipse cx="41.524" cy="27.4057" rx="11.948" ry="3.89779" transform="rotate(-10.2124 41.524 27.4057)" fill="#A67F28"/>
<path d="M45.5241 23.5435L50.9445 26.4914L49.1377 26.8717L46.7603 25.6011C46.7603 26.2618 46.4751 27.6325 44.1928 28.203C42.367 28.6595 40.7694 27.2204 40.4842 26.4914L38.2019 30.8657L36.4902 31.246L40.294 24.4944H41.4351C41.4985 24.8529 41.4351 25.961 42.1008 26.3012C44.2309 27.3898 45.2705 25.8476 45.5241 24.9403L43.6223 23.9238L45.5241 23.5435Z" fill="#FFDB6B"/>
<path d="M43.2415 24.4946L45.1433 25.8259L47.806 27.7278L46.4747 28.1082L41.9102 24.6848L43.2415 24.4946Z" fill="#FFDB6B"/>
<path d="M15.3809 23.4481V13.3682L68.6333 20.5953V30.7703L38.5837 39.8993L15.3809 23.4481Z" fill="#524633"/>
<path d="M69.1083 20.5954L38.9636 29.2489L15 13.083L43.7183 5L69.1083 20.5954Z" fill="#A67F28"/>
<path d="M38.6159 6.80664L22.1879 11.4723C24.896 13.0606 21.0595 13.5238 18.8027 13.5569C24.4447 17.5276 36.1268 25.7074 37.7199 26.6603C41.3838 25.1515 43.5609 26.3625 44.1915 27.1567C49.8003 25.4029 61.436 21.7962 63.1087 21.3991C58.8871 20.6844 62.8763 19.513 65.3986 19.0167C59.1261 15.3106 46.2624 7.6802 44.988 6.80664C41.1648 8.87143 39.1469 7.66697 38.6159 6.80664Z" fill="#FFDB6B"/>
<ellipse cx="41.524" cy="16.1845" rx="11.948" ry="3.89779" transform="rotate(-10.2124 41.524 16.1845)" fill="#A67F28"/>
<path d="M45.5241 12.3223L50.9445 15.2702L49.1377 15.6505L46.7603 14.3799C46.7603 15.0406 46.4751 16.4113 44.1928 16.9819C42.367 17.4383 40.7694 15.9992 40.4842 15.2702L38.2019 19.6445L36.4902 20.0249L40.294 13.2732H41.4351C41.4985 13.6317 41.4351 14.7398 42.1008 15.08C44.2309 16.1686 45.2705 14.6264 45.5241 13.7192L43.6223 12.7026L45.5241 12.3223Z" fill="#FFDB6B"/>
<path d="M43.2415 13.2734L45.1433 14.6047L47.806 16.5066L46.4747 16.887L41.9102 13.4636L43.2415 13.2734Z" fill="#FFDB6B"/>
<path d="M113.381 109.554V99.4736L166.633 106.701V116.876L136.584 126.005L113.381 109.554Z" fill="#524633"/>
<path d="M167.108 106.701L136.964 115.354L113 99.1884L141.718 91.1055L167.108 106.701Z" fill="#A67F28"/>
<path d="M136.618 92.9121L120.19 97.5777C122.898 99.166 119.061 99.6293 116.805 99.6624C122.447 103.633 134.129 111.813 135.722 112.766C139.386 111.257 141.563 112.468 142.193 113.262C147.802 111.508 159.438 107.902 161.111 107.505C156.889 106.79 160.878 105.618 163.401 105.122C157.128 101.416 144.264 93.7857 142.99 92.9121C139.167 94.9769 137.149 93.7724 136.618 92.9121Z" fill="#FFDB6B"/>
<ellipse cx="139.524" cy="102.29" rx="11.948" ry="3.89779" transform="rotate(-10.2124 139.524 102.29)" fill="#A67F28"/>
<path d="M143.524 98.4277L148.944 101.376L147.138 101.756L144.76 100.485C144.76 101.146 144.475 102.517 142.193 103.087C140.367 103.544 138.769 102.105 138.484 101.376L136.202 105.75L134.49 106.13L138.294 99.3787H139.435C139.498 99.7372 139.435 100.845 140.101 101.185C142.231 102.274 143.271 100.732 143.524 99.8246L141.622 98.8081L143.524 98.4277Z" fill="#FFDB6B"/>
<path d="M141.241 99.3789L143.143 100.71L145.806 102.612L144.475 102.992L139.91 99.5691L141.241 99.3789Z" fill="#FFDB6B"/>
<path d="M113.381 98.3324V88.2524L166.633 95.4796V105.655L136.584 114.784L113.381 98.3324Z" fill="#524633"/>
<path d="M167.108 95.4796L136.964 104.133L113 87.9672L141.718 79.8843L167.108 95.4796Z" fill="#A67F28"/>
<path d="M136.618 81.6909L120.19 86.3565C122.898 87.9448 119.061 88.4081 116.805 88.4412C122.447 92.4119 134.129 100.592 135.722 101.545C139.386 100.036 141.563 101.247 142.193 102.041C147.802 100.287 159.438 96.6805 161.111 96.2834C156.889 95.5687 160.878 94.3973 163.401 93.9009C157.128 90.1949 144.264 82.5645 142.99 81.6909C139.167 83.7557 137.149 82.5512 136.618 81.6909Z" fill="#FFDB6B"/>
<ellipse cx="139.524" cy="91.0688" rx="11.948" ry="3.89779" transform="rotate(-10.2124 139.524 91.0688)" fill="#A67F28"/>
<path d="M143.524 87.2065L148.944 90.1544L147.138 90.5348L144.76 89.2642C144.76 89.9249 144.475 91.2956 142.193 91.8661C140.367 92.3226 138.769 90.8835 138.484 90.1544L136.202 94.5288L134.49 94.9091L138.294 88.1575H139.435C139.498 88.516 139.435 89.6241 140.101 89.9643C142.231 91.0529 143.271 89.5107 143.524 88.6034L141.622 87.5869L143.524 87.2065Z" fill="#FFDB6B"/>
<path d="M141.241 88.1577L143.143 89.489L145.806 91.3909L144.475 91.7713L139.91 88.3479L141.241 88.1577Z" fill="#FFDB6B"/>
<path d="M113.381 87.1112V77.0312L166.633 84.2584V94.4334L136.584 103.562L113.381 87.1112Z" fill="#524633"/>
<path d="M167.108 84.2584L136.964 92.912L113 76.746L141.718 68.6631L167.108 84.2584Z" fill="#A67F28"/>
<path d="M136.618 70.4697L120.19 75.1353C122.898 76.7236 119.061 77.1869 116.805 77.22C122.447 81.1907 134.129 89.3704 135.722 90.3234C139.386 88.8145 141.563 90.0256 142.193 90.8198C147.802 89.066 159.438 85.4593 161.111 85.0622C156.889 84.3475 160.878 83.1761 163.401 82.6798C157.128 78.9737 144.264 71.3433 142.99 70.4697C139.167 72.5345 137.149 71.3301 136.618 70.4697Z" fill="#FFDB6B"/>
<ellipse cx="139.524" cy="79.8476" rx="11.948" ry="3.89779" transform="rotate(-10.2124 139.524 79.8476)" fill="#A67F28"/>
<path d="M143.524 75.9854L148.944 78.9333L147.138 79.3136L144.76 78.043C144.76 78.7037 144.475 80.0744 142.193 80.6449C140.367 81.1014 138.769 79.6623 138.484 78.9333L136.202 83.3076L134.49 83.6879L138.294 76.9363H139.435C139.498 77.2948 139.435 78.4029 140.101 78.7431C142.231 79.8317 143.271 78.2895 143.524 77.3822L141.622 76.3657L143.524 75.9854Z" fill="#FFDB6B"/>
<path d="M141.241 76.9365L143.143 78.2678L145.806 80.1697L144.475 80.5501L139.91 77.1267L141.241 76.9365Z" fill="#FFDB6B"/>
<path d="M113.381 75.8905V65.8105L166.633 73.0377V83.2127L136.584 92.3417L113.381 75.8905Z" fill="#524633"/>
<path d="M167.108 73.0377L136.964 81.6913L113 65.5253L141.718 57.4424L167.108 73.0377Z" fill="#A67F28"/>
<path d="M136.618 59.249L120.19 63.9146C122.898 65.5029 119.061 65.9662 116.805 65.9993C122.447 69.97 134.129 78.1497 135.722 79.1027C139.386 77.5938 141.563 78.8049 142.193 79.5991C147.802 77.8453 159.438 74.2386 161.111 73.8415C156.889 73.1268 160.878 71.9554 163.401 71.459C157.128 67.753 144.264 60.1226 142.99 59.249C139.167 61.3138 137.149 60.1094 136.618 59.249Z" fill="#FFDB6B"/>
<ellipse cx="139.524" cy="68.6269" rx="11.948" ry="3.89779" transform="rotate(-10.2124 139.524 68.6269)" fill="#A67F28"/>
<path d="M143.524 64.7646L148.944 67.7126L147.138 68.0929L144.76 66.8223C144.76 67.483 144.475 68.8537 142.193 69.4242C140.367 69.8807 138.769 68.4416 138.484 67.7126L136.202 72.0869L134.49 72.4672L138.294 65.7156H139.435C139.498 66.0741 139.435 67.1822 140.101 67.5224C142.231 68.611 143.271 67.0688 143.524 66.1615L141.622 65.145L143.524 64.7646Z" fill="#FFDB6B"/>
<path d="M141.241 65.7158L143.143 67.0471L145.806 68.949L144.475 69.3294L139.91 65.906L141.241 65.7158Z" fill="#FFDB6B"/>
<path d="M113.381 64.6693V54.5894L166.633 61.8165V71.9915L136.584 81.1205L113.381 64.6693Z" fill="#524633"/>
<path d="M167.108 61.8166L136.964 70.4701L113 54.3042L141.718 46.2212L167.108 61.8166Z" fill="#A67F28"/>
<path d="M136.618 48.0278L120.19 52.6935C122.898 54.2817 119.061 54.745 116.805 54.7781C122.447 58.7488 134.129 66.9286 135.722 67.8815C139.386 66.3726 141.563 67.5837 142.193 68.3779C147.802 66.6241 159.438 63.0174 161.111 62.6203C156.889 61.9056 160.878 60.7342 163.401 60.2379C157.128 56.5318 144.264 48.9014 142.99 48.0278C139.167 50.0926 137.149 48.8882 136.618 48.0278Z" fill="#FFDB6B"/>
<ellipse cx="139.524" cy="57.4057" rx="11.948" ry="3.89779" transform="rotate(-10.2124 139.524 57.4057)" fill="#A67F28"/>
<path d="M143.524 53.5435L148.944 56.4914L147.138 56.8717L144.76 55.6011C144.76 56.2618 144.475 57.6325 142.193 58.203C140.367 58.6595 138.769 57.2204 138.484 56.4914L136.202 60.8657L134.49 61.246L138.294 54.4944H139.435C139.498 54.8529 139.435 55.961 140.101 56.3012C142.231 57.3898 143.271 55.8476 143.524 54.9403L141.622 53.9238L143.524 53.5435Z" fill="#FFDB6B"/>
<path d="M141.241 54.4946L143.143 55.8259L145.806 57.7278L144.475 58.1082L139.91 54.6848L141.241 54.4946Z" fill="#FFDB6B"/>
<path d="M113.381 53.4481V43.3682L166.633 50.5953V60.7703L136.584 69.8993L113.381 53.4481Z" fill="#524633"/>
<path d="M167.108 50.5954L136.964 59.2489L113 43.083L141.718 35L167.108 50.5954Z" fill="#A67F28"/>
<path d="M136.618 36.8066L120.19 41.4723C122.898 43.0606 119.061 43.5238 116.805 43.5569C122.447 47.5276 134.129 55.7074 135.722 56.6603C139.386 55.1515 141.563 56.3625 142.193 57.1567C147.802 55.4029 159.438 51.7962 161.111 51.3991C156.889 50.6844 160.878 49.513 163.401 49.0167C157.128 45.3106 144.264 37.6802 142.99 36.8066C139.167 38.8714 137.149 37.667 136.618 36.8066Z" fill="#FFDB6B"/>
<ellipse cx="139.524" cy="46.1845" rx="11.948" ry="3.89779" transform="rotate(-10.2124 139.524 46.1845)" fill="#A67F28"/>
<path d="M143.524 42.3223L148.944 45.2702L147.138 45.6505L144.76 44.3799C144.76 45.0406 144.475 46.4113 142.193 46.9819C140.367 47.4383 138.769 45.9992 138.484 45.2702L136.202 49.6445L134.49 50.0249L138.294 43.2732H139.435C139.498 43.6317 139.435 44.7398 140.101 45.08C142.231 46.1686 143.271 44.6264 143.524 43.7192L141.622 42.7026L143.524 42.3223Z" fill="#FFDB6B"/>
<path d="M141.241 43.2734L143.143 44.6047L145.806 46.5066L144.475 46.887L139.91 43.4636L141.241 43.2734Z" fill="#FFDB6B"/>
<path d="M78.3809 119.437V109.357L131.633 116.585V126.76L101.584 135.889L78.3809 119.437Z" fill="#524633"/>
<path d="M132.108 116.585L101.964 125.238L78 109.072L106.718 100.989L132.108 116.585Z" fill="#A67F28"/>
<path d="M101.618 102.796L85.1899 107.462C87.898 109.05 84.0615 109.513 81.8047 109.546C87.4466 113.517 99.1288 121.697 100.722 122.65C104.386 121.141 106.563 122.352 107.193 123.146C112.802 121.392 124.438 117.785 126.111 117.388C121.889 116.674 125.878 115.502 128.401 115.006C122.128 111.3 109.264 103.669 107.99 102.796C104.167 104.861 102.149 103.656 101.618 102.796Z" fill="#FFDB6B"/>
<ellipse cx="104.524" cy="112.174" rx="11.948" ry="3.89779" transform="rotate(-10.2124 104.524 112.174)" fill="#A67F28"/>
<path d="M108.524 108.312L113.944 111.259L112.138 111.64L109.76 110.369C109.76 111.03 109.475 112.401 107.193 112.971C105.367 113.428 103.769 111.988 103.484 111.259L101.202 115.634L99.4902 116.014L103.294 109.262H104.435C104.498 109.621 104.435 110.729 105.101 111.069C107.231 112.158 108.271 110.616 108.524 109.708L106.622 108.692L108.524 108.312Z" fill="#FFDB6B"/>
<path d="M106.241 109.263L108.143 110.594L110.806 112.496L109.475 112.876L104.91 109.453L106.241 109.263Z" fill="#FFDB6B"/>
<path d="M78.3809 108.216V98.1362L131.633 105.363V115.538L101.584 124.667L78.3809 108.216Z" fill="#524633"/>
<path d="M132.108 105.363L101.964 114.017L78 97.851L106.718 89.7681L132.108 105.363Z" fill="#A67F28"/>
<path d="M101.618 91.5747L85.1899 96.2403C87.898 97.8286 84.0615 98.2919 81.8047 98.325C87.4466 102.296 99.1288 110.475 100.722 111.428C104.386 109.92 106.563 111.131 107.193 111.925C112.802 110.171 124.438 106.564 126.111 106.167C121.889 105.452 125.878 104.281 128.401 103.785C122.128 100.079 109.264 92.4483 107.99 91.5747C104.167 93.6395 102.149 92.435 101.618 91.5747Z" fill="#FFDB6B"/>
<ellipse cx="104.524" cy="100.953" rx="11.948" ry="3.89779" transform="rotate(-10.2124 104.524 100.953)" fill="#A67F28"/>
<path d="M108.524 97.0903L113.944 100.038L112.138 100.419L109.76 99.148C109.76 99.8087 109.475 101.179 107.193 101.75C105.367 102.206 103.769 100.767 103.484 100.038L101.202 104.413L99.4902 104.793L103.294 98.0413H104.435C104.498 98.3998 104.435 99.5078 105.101 99.848C107.231 100.937 108.271 99.3944 108.524 98.4872L106.622 97.4707L108.524 97.0903Z" fill="#FFDB6B"/>
<path d="M106.241 98.0415L108.143 99.3728L110.806 101.275L109.475 101.655L104.91 98.2317L106.241 98.0415Z" fill="#FFDB6B"/>
<path d="M78.3809 96.9955V86.9155L131.633 94.1426V104.318L101.584 113.447L78.3809 96.9955Z" fill="#524633"/>
<path d="M132.108 94.1427L101.964 102.796L78 86.6303L106.718 78.5474L132.108 94.1427Z" fill="#A67F28"/>
<path d="M101.618 80.354L85.1899 85.0196C87.898 86.6079 84.0615 87.0712 81.8047 87.1043C87.4466 91.075 99.1288 99.2547 100.722 100.208C104.386 98.6988 106.563 99.9099 107.193 100.704C112.802 98.9503 124.438 95.3435 126.111 94.9465C121.889 94.2317 125.878 93.0604 128.401 92.564C122.128 88.858 109.264 81.2276 107.99 80.354C104.167 82.4188 102.149 81.2143 101.618 80.354Z" fill="#FFDB6B"/>
<ellipse cx="104.524" cy="89.7319" rx="11.948" ry="3.89779" transform="rotate(-10.2124 104.524 89.7319)" fill="#A67F28"/>
<path d="M108.524 85.8696L113.944 88.8175L112.138 89.1979L109.76 87.9273C109.76 88.588 109.475 89.9587 107.193 90.5292C105.367 90.9857 103.769 89.5466 103.484 88.8175L101.202 93.1918L99.4902 93.5722L103.294 86.8206H104.435C104.498 87.1791 104.435 88.2871 105.101 88.6273C107.231 89.716 108.271 88.1737 108.524 87.2665L106.622 86.25L108.524 85.8696Z" fill="#FFDB6B"/>
<path d="M106.241 86.8208L108.143 88.1521L110.806 90.054L109.475 90.4344L104.91 87.011L106.241 86.8208Z" fill="#FFDB6B"/>
<path d="M78.3809 85.7743V75.6943L131.633 82.9215V93.0965L101.584 102.225L78.3809 85.7743Z" fill="#524633"/>
<path d="M132.108 82.9215L101.964 91.5751L78 75.4091L106.718 67.3262L132.108 82.9215Z" fill="#A67F28"/>
<path d="M101.618 69.1328L85.1899 73.7984C87.898 75.3867 84.0615 75.85 81.8047 75.8831C87.4466 79.8538 99.1288 88.0335 100.722 88.9865C104.386 87.4776 106.563 88.6887 107.193 89.4829C112.802 87.7291 124.438 84.1224 126.111 83.7253C121.889 83.0105 125.878 81.8392 128.401 81.3428C122.128 77.6368 109.264 70.0064 107.99 69.1328C104.167 71.1976 102.149 69.9931 101.618 69.1328Z" fill="#FFDB6B"/>
<ellipse cx="104.524" cy="78.5107" rx="11.948" ry="3.89779" transform="rotate(-10.2124 104.524 78.5107)" fill="#A67F28"/>
<path d="M108.524 74.6484L113.944 77.5963L112.138 77.9767L109.76 76.7061C109.76 77.3668 109.475 78.7375 107.193 79.308C105.367 79.7645 103.769 78.3254 103.484 77.5963L101.202 81.9706L99.4902 82.351L103.294 75.5994H104.435C104.498 75.9579 104.435 77.0659 105.101 77.4062C107.231 78.4948 108.271 76.9525 108.524 76.0453L106.622 75.0288L108.524 74.6484Z" fill="#FFDB6B"/>
<path d="M106.241 75.5996L108.143 76.9309L110.806 78.8328L109.475 79.2132L104.91 75.7898L106.241 75.5996Z" fill="#FFDB6B"/>
<path d="M78.3809 74.5536V64.4736L131.633 71.7007V81.8758L101.584 91.0048L78.3809 74.5536Z" fill="#524633"/>
<path d="M132.108 71.7008L101.964 80.3544L78 64.1884L106.718 56.1055L132.108 71.7008Z" fill="#A67F28"/>
<path d="M101.618 57.9121L85.1899 62.5777C87.898 64.166 84.0615 64.6293 81.8047 64.6624C87.4466 68.6331 99.1288 76.8128 100.722 77.7658C104.386 76.2569 106.563 77.468 107.193 78.2621C112.802 76.5084 124.438 72.9017 126.111 72.5046C121.889 71.7898 125.878 70.6185 128.401 70.1221C122.128 66.4161 109.264 58.7857 107.99 57.9121C104.167 59.9769 102.149 58.7724 101.618 57.9121Z" fill="#FFDB6B"/>
<ellipse cx="104.524" cy="67.29" rx="11.948" ry="3.89779" transform="rotate(-10.2124 104.524 67.29)" fill="#A67F28"/>
<path d="M108.524 63.4277L113.944 66.3756L112.138 66.756L109.76 65.4854C109.76 66.1461 109.475 67.5168 107.193 68.0873C105.367 68.5438 103.769 67.1047 103.484 66.3756L101.202 70.7499L99.4902 71.1303L103.294 64.3787H104.435C104.498 64.7372 104.435 65.8452 105.101 66.1855C107.231 67.2741 108.271 65.7318 108.524 64.8246L106.622 63.8081L108.524 63.4277Z" fill="#FFDB6B"/>
<path d="M106.241 64.3789L108.143 65.7102L110.806 67.6121L109.475 67.9925L104.91 64.5691L106.241 64.3789Z" fill="#FFDB6B"/>
<path d="M78.3809 63.3324V53.2524L131.633 60.4796V70.6546L101.584 79.7836L78.3809 63.3324Z" fill="#524633"/>
<path d="M132.108 60.4796L101.964 69.1332L78 52.9672L106.718 44.8843L132.108 60.4796Z" fill="#A67F28"/>
<path d="M101.618 46.6909L85.1899 51.3565C87.898 52.9448 84.0615 53.4081 81.8047 53.4412C87.4466 57.4119 99.1288 65.5916 100.722 66.5446C104.386 65.0357 106.563 66.2468 107.193 67.041C112.802 65.2872 124.438 61.6805 126.111 61.2834C121.889 60.5687 125.878 59.3973 128.401 58.9009C122.128 55.1949 109.264 47.5645 107.99 46.6909C104.167 48.7557 102.149 47.5512 101.618 46.6909Z" fill="#FFDB6B"/>
<ellipse cx="104.524" cy="56.0688" rx="11.948" ry="3.89779" transform="rotate(-10.2124 104.524 56.0688)" fill="#A67F28"/>
<path d="M108.524 52.2065L113.944 55.1544L112.138 55.5348L109.76 54.2642C109.76 54.9249 109.475 56.2956 107.193 56.8661C105.367 57.3226 103.769 55.8835 103.484 55.1544L101.202 59.5288L99.4902 59.9091L103.294 53.1575H104.435C104.498 53.516 104.435 54.6241 105.101 54.9643C107.231 56.0529 108.271 54.5107 108.524 53.6034L106.622 52.5869L108.524 52.2065Z" fill="#FFDB6B"/>
<path d="M106.241 53.1577L108.143 54.489L110.806 56.3909L109.475 56.7713L104.91 53.3479L106.241 53.1577Z" fill="#FFDB6B"/>
<path d="M78.3809 52.1112V42.0312L131.633 49.2584V59.4334L101.584 68.5624L78.3809 52.1112Z" fill="#524633"/>
<path d="M132.108 49.2584L101.964 57.912L78 41.746L106.718 33.6631L132.108 49.2584Z" fill="#A67F28"/>
<path d="M101.618 35.4697L85.1899 40.1353C87.898 41.7236 84.0615 42.1869 81.8047 42.22C87.4466 46.1907 99.1288 54.3704 100.722 55.3234C104.386 53.8145 106.563 55.0256 107.193 55.8198C112.802 54.066 124.438 50.4593 126.111 50.0622C121.889 49.3475 125.878 48.1761 128.401 47.6798C122.128 43.9737 109.264 36.3433 107.99 35.4697C104.167 37.5345 102.149 36.3301 101.618 35.4697Z" fill="#FFDB6B"/>
<ellipse cx="104.524" cy="44.8476" rx="11.948" ry="3.89779" transform="rotate(-10.2124 104.524 44.8476)" fill="#A67F28"/>
<path d="M108.524 40.9854L113.944 43.9333L112.138 44.3136L109.76 43.043C109.76 43.7037 109.475 45.0744 107.193 45.6449C105.367 46.1014 103.769 44.6623 103.484 43.9333L101.202 48.3076L99.4902 48.6879L103.294 41.9363H104.435C104.498 42.2948 104.435 43.4029 105.101 43.7431C107.231 44.8317 108.271 43.2895 108.524 42.3822L106.622 41.3657L108.524 40.9854Z" fill="#FFDB6B"/>
<path d="M106.241 41.9365L108.143 43.2678L110.806 45.1697L109.475 45.5501L104.91 42.1267L106.241 41.9365Z" fill="#FFDB6B"/>
<path d="M78.3809 40.89V30.8101L131.633 38.0372V48.2122L101.584 57.3412L78.3809 40.89Z" fill="#524633"/>
<path d="M132.108 38.0373L101.964 46.6908L78 30.5249L106.718 22.4419L132.108 38.0373Z" fill="#A67F28"/>
<path d="M101.618 24.2485L85.1899 28.9142C87.898 30.5024 84.0615 30.9657 81.8047 30.9988C87.4466 34.9695 99.1288 43.1493 100.722 44.1022C104.386 42.5934 106.563 43.8044 107.193 44.5986C112.802 42.8448 124.438 39.2381 126.111 38.841C121.889 38.1263 125.878 36.9549 128.401 36.4586C122.128 32.7525 109.264 25.1221 107.99 24.2485C104.167 26.3133 102.149 25.1089 101.618 24.2485Z" fill="#FFDB6B"/>
<ellipse cx="104.524" cy="33.6264" rx="11.948" ry="3.89779" transform="rotate(-10.2124 104.524 33.6264)" fill="#A67F28"/>
<path d="M108.524 29.7642L113.944 32.7121L112.138 33.0924L109.76 31.8218C109.76 32.4825 109.475 33.8532 107.193 34.4237C105.367 34.8802 103.769 33.4411 103.484 32.7121L101.202 37.0864L99.4902 37.4667L103.294 30.7151H104.435C104.498 31.0736 104.435 32.1817 105.101 32.5219C107.231 33.6105 108.271 32.0683 108.524 31.1611L106.622 30.1445L108.524 29.7642Z" fill="#FFDB6B"/>
<path d="M106.241 30.7153L108.143 32.0466L110.806 33.9485L109.475 34.3289L104.91 30.9055L106.241 30.7153Z" fill="#FFDB6B"/>
<path d="M78.3809 29.6688V19.5889L131.633 26.816V36.991L101.584 46.12L78.3809 29.6688Z" fill="#524633"/>
<path d="M132.108 26.8161L101.964 35.4696L78 19.3037L106.718 11.2207L132.108 26.8161Z" fill="#A67F28"/>
<path d="M101.618 13.0273L85.1899 17.693C87.898 19.2813 84.0615 19.7445 81.8047 19.7776C87.4466 23.7483 99.1288 31.9281 100.722 32.881C104.386 31.3722 106.563 32.5832 107.193 33.3774C112.802 31.6236 124.438 28.0169 126.111 27.6198C121.889 26.9051 125.878 25.7337 128.401 25.2374C122.128 21.5313 109.264 13.9009 107.99 13.0273C104.167 15.0921 102.149 13.8877 101.618 13.0273Z" fill="#FFDB6B"/>
<ellipse cx="104.524" cy="22.4052" rx="11.948" ry="3.89779" transform="rotate(-10.2124 104.524 22.4052)" fill="#A67F28"/>
<path d="M108.524 18.543L113.944 21.4909L112.138 21.8712L109.76 20.6006C109.76 21.2613 109.475 22.632 107.193 23.2026C105.367 23.659 103.769 22.2199 103.484 21.4909L101.202 25.8652L99.4902 26.2456L103.294 19.4939H104.435C104.498 19.8524 104.435 20.9605 105.101 21.3007C107.231 22.3893 108.271 20.8471 108.524 19.9399L106.622 18.9233L108.524 18.543Z" fill="#FFDB6B"/>
<path d="M106.241 19.4941L108.143 20.8255L110.806 22.7273L109.475 23.1077L104.91 19.6843L106.241 19.4941Z" fill="#FFDB6B"/>
<path d="M78.3809 18.4481V8.36816L131.633 15.5953V25.7703L101.584 34.8993L78.3809 18.4481Z" fill="#524633"/>
<path d="M132.108 15.5954L101.964 24.2489L78 8.08296L106.718 0L132.108 15.5954Z" fill="#A67F28"/>
<path d="M101.618 1.80664L85.1899 6.47226C87.898 8.06056 84.0615 8.52381 81.8047 8.5569C87.4466 12.5276 99.1288 20.7074 100.722 21.6603C104.386 20.1515 106.563 21.3625 107.193 22.1567C112.802 20.4029 124.438 16.7962 126.111 16.3991C121.889 15.6844 125.878 14.513 128.401 14.0167C122.128 10.3106 109.264 2.6802 107.99 1.80664C104.167 3.87143 102.149 2.66697 101.618 1.80664Z" fill="#FFDB6B"/>
<ellipse cx="104.524" cy="11.1845" rx="11.948" ry="3.89779" transform="rotate(-10.2124 104.524 11.1845)" fill="#A67F28"/>
<path d="M108.524 7.32227L113.944 10.2702L112.138 10.6505L109.76 9.3799C109.76 10.0406 109.475 11.4113 107.193 11.9819C105.367 12.4383 103.769 10.9992 103.484 10.2702L101.202 14.6445L99.4902 15.0249L103.294 8.2732H104.435C104.498 8.63172 104.435 9.73978 105.101 10.08C107.231 11.1686 108.271 9.62637 108.524 8.71916L106.622 7.70264L108.524 7.32227Z" fill="#FFDB6B"/>
<path d="M106.241 8.27344L108.143 9.60475L110.806 11.5066L109.475 11.887L104.91 8.46362L106.241 8.27344Z" fill="#FFDB6B"/>
<path d="M42.3809 130.554V120.474L95.6333 127.701V137.876L65.5837 147.005L42.3809 130.554Z" fill="#524633"/>
<path d="M96.1083 127.701L65.9636 136.354L42 120.188L70.7183 112.105L96.1083 127.701Z" fill="#A67F28"/>
<path d="M65.6179 113.912L49.1899 118.578C51.898 120.166 48.0615 120.629 45.8047 120.662C51.4466 124.633 63.1288 132.813 64.7218 133.766C68.3858 132.257 70.5629 133.468 71.1935 134.262C76.8022 132.508 88.4379 128.902 90.1106 128.505C85.8891 127.79 89.8783 126.618 92.4006 126.122C86.1281 122.416 73.2644 114.786 71.99 113.912C68.1667 115.977 66.1489 114.772 65.6179 113.912Z" fill="#FFDB6B"/>
<ellipse cx="68.524" cy="123.29" rx="11.948" ry="3.89779" transform="rotate(-10.2124 68.524 123.29)" fill="#A67F28"/>
<path d="M72.5241 119.428L77.9445 122.376L76.1377 122.756L73.7603 121.485C73.7603 122.146 73.4751 123.517 71.1928 124.087C69.367 124.544 67.7694 123.105 67.4842 122.376L65.2019 126.75L63.4902 127.13L67.294 120.379H68.4351C68.4985 120.737 68.4351 121.845 69.1008 122.185C71.2309 123.274 72.2705 121.732 72.5241 120.825L70.6223 119.808L72.5241 119.428Z" fill="#FFDB6B"/>
<path d="M70.2415 120.379L72.1433 121.71L74.806 123.612L73.4747 123.992L68.9102 120.569L70.2415 120.379Z" fill="#FFDB6B"/>
<path d="M42.3809 119.332V109.252L95.6333 116.48V126.655L65.5837 135.784L42.3809 119.332Z" fill="#524633"/>
<path d="M96.1083 116.48L65.9636 125.133L42 108.967L70.7183 100.884L96.1083 116.48Z" fill="#A67F28"/>
<path d="M65.6179 102.691L49.1899 107.357C51.898 108.945 48.0615 109.408 45.8047 109.441C51.4466 113.412 63.1288 121.592 64.7218 122.545C68.3858 121.036 70.5629 122.247 71.1935 123.041C76.8022 121.287 88.4379 117.68 90.1106 117.283C85.8891 116.569 89.8783 115.397 92.4006 114.901C86.1281 111.195 73.2644 103.564 71.99 102.691C68.1667 104.756 66.1489 103.551 65.6179 102.691Z" fill="#FFDB6B"/>
<ellipse cx="68.524" cy="112.069" rx="11.948" ry="3.89779" transform="rotate(-10.2124 68.524 112.069)" fill="#A67F28"/>
<path d="M72.5241 108.207L77.9445 111.154L76.1377 111.535L73.7603 110.264C73.7603 110.925 73.4751 112.296 71.1928 112.866C69.367 113.323 67.7694 111.883 67.4842 111.154L65.2019 115.529L63.4902 115.909L67.294 109.157H68.4351C68.4985 109.516 68.4351 110.624 69.1008 110.964C71.2309 112.053 72.2705 110.511 72.5241 109.603L70.6223 108.587L72.5241 108.207Z" fill="#FFDB6B"/>
<path d="M70.2415 109.158L72.1433 110.489L74.806 112.391L73.4747 112.771L68.9102 109.348L70.2415 109.158Z" fill="#FFDB6B"/>
<path d="M42.3809 108.112V98.0317L95.6333 105.259V115.434L65.5837 124.563L42.3809 108.112Z" fill="#524633"/>
<path d="M96.1083 105.259L65.9636 113.912L42 97.7465L70.7183 89.6636L96.1083 105.259Z" fill="#A67F28"/>
<path d="M65.6179 91.4702L49.1899 96.1358C51.898 97.7241 48.0615 98.1874 45.8047 98.2205C51.4466 102.191 63.1288 110.371 64.7218 111.324C68.3858 109.815 70.5629 111.026 71.1935 111.82C76.8022 110.067 88.4379 106.46 90.1106 106.063C85.8891 105.348 89.8783 104.177 92.4006 103.68C86.1281 99.9742 73.2644 92.3438 71.99 91.4702C68.1667 93.535 66.1489 92.3305 65.6179 91.4702Z" fill="#FFDB6B"/>
<ellipse cx="68.524" cy="100.848" rx="11.948" ry="3.89779" transform="rotate(-10.2124 68.524 100.848)" fill="#A67F28"/>
<path d="M72.5241 96.9858L77.9445 99.9337L76.1377 100.314L73.7603 99.0435C73.7603 99.7042 73.4751 101.075 71.1928 101.645C69.367 102.102 67.7694 100.663 67.4842 99.9337L65.2019 104.308L63.4902 104.688L67.294 97.9368H68.4351C68.4985 98.2953 68.4351 99.4033 69.1008 99.7436C71.2309 100.832 72.2705 99.2899 72.5241 98.3827L70.6223 97.3662L72.5241 96.9858Z" fill="#FFDB6B"/>
<path d="M70.2415 97.937L72.1433 99.2683L74.806 101.17L73.4747 101.551L68.9102 98.1272L70.2415 97.937Z" fill="#FFDB6B"/>
<path d="M42.3809 96.8905V86.8105L95.6333 94.0377V104.213L65.5837 113.342L42.3809 96.8905Z" fill="#524633"/>
<path d="M96.1083 94.0377L65.9636 102.691L42 86.5253L70.7183 78.4424L96.1083 94.0377Z" fill="#A67F28"/>
<path d="M65.6179 80.249L49.1899 84.9146C51.898 86.5029 48.0615 86.9662 45.8047 86.9993C51.4466 90.97 63.1288 99.1497 64.7218 100.103C68.3858 98.5938 70.5629 99.8049 71.1935 100.599C76.8022 98.8453 88.4379 95.2386 90.1106 94.8415C85.8891 94.1268 89.8783 92.9554 92.4006 92.459C86.1281 88.753 73.2644 81.1226 71.99 80.249C68.1667 82.3138 66.1489 81.1094 65.6179 80.249Z" fill="#FFDB6B"/>
<ellipse cx="68.524" cy="89.6269" rx="11.948" ry="3.89779" transform="rotate(-10.2124 68.524 89.6269)" fill="#A67F28"/>
<path d="M72.5241 85.7646L77.9445 88.7126L76.1377 89.0929L73.7603 87.8223C73.7603 88.483 73.4751 89.8537 71.1928 90.4242C69.367 90.8807 67.7694 89.4416 67.4842 88.7126L65.2019 93.0869L63.4902 93.4672L67.294 86.7156H68.4351C68.4985 87.0741 68.4351 88.1822 69.1008 88.5224C71.2309 89.611 72.2705 88.0688 72.5241 87.1615L70.6223 86.145L72.5241 85.7646Z" fill="#FFDB6B"/>
<path d="M70.2415 86.7158L72.1433 88.0471L74.806 89.949L73.4747 90.3294L68.9102 86.906L70.2415 86.7158Z" fill="#FFDB6B"/>
<path d="M42.3809 85.6693V75.5894L95.6333 82.8165V92.9915L65.5837 102.12L42.3809 85.6693Z" fill="#524633"/>
<path d="M96.1083 82.8166L65.9636 91.4701L42 75.3042L70.7183 67.2212L96.1083 82.8166Z" fill="#A67F28"/>
<path d="M65.6179 69.0278L49.1899 73.6935C51.898 75.2817 48.0615 75.745 45.8047 75.7781C51.4466 79.7488 63.1288 87.9286 64.7218 88.8815C68.3858 87.3726 70.5629 88.5837 71.1935 89.3779C76.8022 87.6241 88.4379 84.0174 90.1106 83.6203C85.8891 82.9056 89.8783 81.7342 92.4006 81.2379C86.1281 77.5318 73.2644 69.9014 71.99 69.0278C68.1667 71.0926 66.1489 69.8882 65.6179 69.0278Z" fill="#FFDB6B"/>
<ellipse cx="68.524" cy="78.4057" rx="11.948" ry="3.89779" transform="rotate(-10.2124 68.524 78.4057)" fill="#A67F28"/>
<path d="M72.5241 74.5435L77.9445 77.4914L76.1377 77.8717L73.7603 76.6011C73.7603 77.2618 73.4751 78.6325 71.1928 79.203C69.367 79.6595 67.7694 78.2204 67.4842 77.4914L65.2019 81.8657L63.4902 82.246L67.294 75.4944H68.4351C68.4985 75.8529 68.4351 76.961 69.1008 77.3012C71.2309 78.3898 72.2705 76.8476 72.5241 75.9403L70.6223 74.9238L72.5241 74.5435Z" fill="#FFDB6B"/>
<path d="M70.2415 75.4946L72.1433 76.8259L74.806 78.7278L73.4747 79.1082L68.9102 75.6848L70.2415 75.4946Z" fill="#FFDB6B"/>
<path d="M42.3809 74.4481V64.3682L95.6333 71.5953V81.7703L65.5837 90.8993L42.3809 74.4481Z" fill="#524633"/>
<path d="M96.1083 71.5954L65.9636 80.2489L42 64.083L70.7183 56L96.1083 71.5954Z" fill="#A67F28"/>
<path d="M65.6179 57.8066L49.1899 62.4723C51.898 64.0606 48.0615 64.5238 45.8047 64.5569C51.4466 68.5276 63.1288 76.7074 64.7218 77.6603C68.3858 76.1515 70.5629 77.3625 71.1935 78.1567C76.8022 76.4029 88.4379 72.7962 90.1106 72.3991C85.8891 71.6844 89.8783 70.513 92.4006 70.0167C86.1281 66.3106 73.2644 58.6802 71.99 57.8066C68.1667 59.8714 66.1489 58.667 65.6179 57.8066Z" fill="#FFDB6B"/>
<ellipse cx="68.524" cy="67.1845" rx="11.948" ry="3.89779" transform="rotate(-10.2124 68.524 67.1845)" fill="#A67F28"/>
<path d="M72.5241 63.3223L77.9445 66.2702L76.1377 66.6505L73.7603 65.3799C73.7603 66.0406 73.4751 67.4113 71.1928 67.9819C69.367 68.4383 67.7694 66.9992 67.4842 66.2702L65.2019 70.6445L63.4902 71.0249L67.294 64.2732H68.4351C68.4985 64.6317 68.4351 65.7398 69.1008 66.08C71.2309 67.1686 72.2705 65.6264 72.5241 64.7192L70.6223 63.7026L72.5241 63.3223Z" fill="#FFDB6B"/>
<path d="M70.2415 64.2729L72.1433 65.6043L74.806 67.5061L73.4747 67.8865L68.9102 64.4631L70.2415 64.2729Z" fill="#FFDB6B"/>
<path d="M0.380859 131.111V121.031L53.6333 128.258V138.433L23.5837 147.562L0.380859 131.111Z" fill="#524633"/>
<path d="M54.1083 128.258L23.9636 136.912L0 120.746L28.7183 112.663L54.1083 128.258Z" fill="#A67F28"/>
<path d="M23.6179 114.47L7.18986 119.135C9.898 120.724 6.06147 121.187 3.80469 121.22C9.44664 125.191 21.1288 133.37 22.7218 134.323C26.3858 132.815 28.5629 134.026 29.1935 134.82C34.8022 133.066 46.4379 129.459 48.1106 129.062C43.8891 128.347 47.8783 127.176 50.4006 126.68C44.1281 122.974 31.2644 115.343 29.99 114.47C26.1667 116.535 24.1489 115.33 23.6179 114.47Z" fill="#FFDB6B"/>
<ellipse cx="26.524" cy="123.848" rx="11.948" ry="3.89779" transform="rotate(-10.2124 26.524 123.848)" fill="#A67F28"/>
<path d="M30.5261 119.985L35.9464 122.933L34.1396 123.314L31.7623 122.043C31.7623 122.704 31.477 124.074 29.1948 124.645C27.369 125.101 25.7714 123.662 25.4861 122.933L23.2039 127.308L21.4922 127.688L25.2959 120.936H26.4371C26.5005 121.295 26.4371 122.403 27.1027 122.743C29.2328 123.832 30.2725 122.289 30.5261 121.382L28.6242 120.366L30.5261 119.985Z" fill="#FFDB6B"/>
<path d="M28.2434 120.937L30.1453 122.268L32.8079 124.17L31.4766 124.55L26.9121 121.127L28.2434 120.937Z" fill="#FFDB6B"/>
<path d="M0.380859 119.89V109.81L53.6333 117.037V127.212L23.5837 136.341L0.380859 119.89Z" fill="#524633"/>
<path d="M54.1083 117.037L23.9636 125.691L0 109.525L28.7183 101.442L54.1083 117.037Z" fill="#A67F28"/>
<path d="M23.6179 103.249L7.18986 107.914C9.898 109.502 6.06147 109.966 3.80469 109.999C9.44664 113.97 21.1288 122.149 22.7218 123.102C26.3858 121.593 28.5629 122.804 29.1935 123.599C34.8022 121.845 46.4379 118.238 48.1106 117.841C43.8891 117.126 47.8783 115.955 50.4006 115.459C44.1281 111.753 31.2644 104.122 29.99 103.249C26.1667 105.313 24.1489 104.109 23.6179 103.249Z" fill="#FFDB6B"/>
<ellipse cx="26.524" cy="112.626" rx="11.948" ry="3.89779" transform="rotate(-10.2124 26.524 112.626)" fill="#A67F28"/>
<path d="M30.5261 108.764L35.9464 111.712L34.1396 112.092L31.7623 110.822C31.7623 111.483 31.477 112.853 29.1948 113.424C27.369 113.88 25.7714 112.441 25.4861 111.712L23.2039 116.086L21.4922 116.467L25.2959 109.715H26.4371C26.5005 110.074 26.4371 111.182 27.1027 111.522C29.2328 112.611 30.2725 111.068 30.5261 110.161L28.6242 109.145L30.5261 108.764Z" fill="#FFDB6B"/>
<path d="M28.2434 109.715L30.1453 111.047L32.8079 112.949L31.4766 113.329L26.9121 109.906L28.2434 109.715Z" fill="#FFDB6B"/>
<path d="M0.380859 108.669V98.5894L53.6333 105.816V115.991L23.5837 125.12L0.380859 108.669Z" fill="#524633"/>
<path d="M54.1083 105.817L23.9636 114.47L0 98.3042L28.7183 90.2212L54.1083 105.817Z" fill="#A67F28"/>
<path d="M23.6179 92.0278L7.18986 96.6935C9.898 98.2817 6.06147 98.745 3.80469 98.7781C9.44664 102.749 21.1288 110.929 22.7218 111.882C26.3858 110.373 28.5629 111.584 29.1935 112.378C34.8022 110.624 46.4379 107.017 48.1106 106.62C43.8891 105.906 47.8783 104.734 50.4006 104.238C44.1281 100.532 31.2644 92.9014 29.99 92.0278C26.1667 94.0926 24.1489 92.8882 23.6179 92.0278Z" fill="#FFDB6B"/>
<ellipse cx="26.524" cy="101.406" rx="11.948" ry="3.89779" transform="rotate(-10.2124 26.524 101.406)" fill="#A67F28"/>
<path d="M30.5261 97.5435L35.9464 100.491L34.1396 100.872L31.7623 99.6011C31.7623 100.262 31.477 101.632 29.1948 102.203C27.369 102.659 25.7714 101.22 25.4861 100.491L23.2039 104.866L21.4922 105.246L25.2959 98.4944H26.4371C26.5005 98.8529 26.4371 99.961 27.1027 100.301C29.2328 101.39 30.2725 99.8476 30.5261 98.9403L28.6242 97.9238L30.5261 97.5435Z" fill="#FFDB6B"/>
<path d="M28.2434 98.4946L30.1453 99.8259L32.8079 101.728L31.4766 102.108L26.9121 98.6848L28.2434 98.4946Z" fill="#FFDB6B"/>
<path d="M0.380859 97.4481V87.3682L53.6333 94.5953V104.77L23.5837 113.899L0.380859 97.4481Z" fill="#524633"/>
<path d="M54.1083 94.5954L23.9636 103.249L0 87.083L28.7183 79L54.1083 94.5954Z" fill="#A67F28"/>
<path d="M23.6179 80.8066L7.18986 85.4723C9.898 87.0606 6.06147 87.5238 3.80469 87.5569C9.44664 91.5276 21.1288 99.7074 22.7218 100.66C26.3858 99.1515 28.5629 100.363 29.1935 101.157C34.8022 99.4029 46.4379 95.7962 48.1106 95.3991C43.8891 94.6844 47.8783 93.513 50.4006 93.0167C44.1281 89.3106 31.2644 81.6802 29.99 80.8066C26.1667 82.8714 24.1489 81.667 23.6179 80.8066Z" fill="#FFDB6B"/>
<ellipse cx="26.524" cy="90.1845" rx="11.948" ry="3.89779" transform="rotate(-10.2124 26.524 90.1845)" fill="#A67F28"/>
<path d="M30.5261 86.3223L35.9464 89.2702L34.1396 89.6505L31.7623 88.3799C31.7623 89.0406 31.477 90.4113 29.1948 90.9819C27.369 91.4383 25.7714 89.9992 25.4861 89.2702L23.2039 93.6445L21.4922 94.0249L25.2959 87.2732H26.4371C26.5005 87.6317 26.4371 88.7398 27.1027 89.08C29.2328 90.1686 30.2725 88.6264 30.5261 87.7192L28.6242 86.7026L30.5261 86.3223Z" fill="#FFDB6B"/>
<path d="M28.2434 87.2734L30.1453 88.6047L32.8079 90.5066L31.4766 90.887L26.9121 87.4636L28.2434 87.2734Z" fill="#FFDB6B"/>
</svg>
