<svg width="34" height="34" viewBox="0 0 34 34" fill="none" xmlns="http://www.w3.org/2000/svg">
<path d="M22.6994 19.6679C19.4162 19.6679 17.9564 16.5707 17.7757 14.4892C17.6748 13.3348 17.4395 10.6292 19.0189 8.90633C19.4961 8.42193 20.0716 8.04533 20.7065 7.80185C21.3414 7.55838 22.0211 7.45368 22.6999 7.4948C22.9112 7.4948 23.1139 7.57875 23.2634 7.7282C23.4128 7.87764 23.4968 8.08033 23.4968 8.29167C23.4968 8.50302 23.4128 8.70571 23.2634 8.85515C23.1139 9.00459 22.9112 9.08855 22.6999 9.08855C22.2424 9.04981 21.782 9.10963 21.3496 9.26396C20.9173 9.41828 20.523 9.66354 20.1935 9.98317C19.0879 11.1891 19.2808 13.405 19.3631 14.3511C19.4534 15.387 20.228 18.0741 22.6994 18.0741C22.9107 18.0741 23.1134 18.1581 23.2628 18.3075C23.4123 18.457 23.4962 18.6596 23.4962 18.871C23.4962 19.0823 23.4123 19.285 23.2628 19.4345C23.1134 19.5839 22.9107 19.6679 22.6994 19.6679Z" fill="#524633"/>
<path d="M22.6994 19.6679C22.488 19.6679 22.2853 19.5839 22.1359 19.4345C21.9865 19.285 21.9025 19.0823 21.9025 18.871C21.9025 18.6596 21.9865 18.457 22.1359 18.3075C22.2853 18.1581 22.488 18.0741 22.6994 18.0741C25.1708 18.0741 25.9453 15.3865 26.0356 14.3511C26.118 13.4055 26.3103 11.1886 25.2048 9.98317C24.8754 9.66356 24.4814 9.41832 24.0492 9.26399C23.617 9.10966 23.1567 9.04983 22.6994 9.08855C22.488 9.08855 22.2853 9.00459 22.1359 8.85515C21.9865 8.70571 21.9025 8.50302 21.9025 8.29167C21.9025 8.08033 21.9865 7.87764 22.1359 7.7282C22.2853 7.57875 22.488 7.4948 22.6994 7.4948C23.378 7.45369 24.0576 7.55834 24.6924 7.80172C25.3273 8.0451 25.9026 8.42156 26.3799 8.9058C27.9588 10.6281 27.7239 13.3338 27.623 14.4892C27.4424 16.5712 25.9814 19.6679 22.6994 19.6679ZM13.3016 29.0327C13.1069 29.0326 12.919 28.9612 12.7734 28.832C12.6277 28.7028 12.5344 28.5248 12.5111 28.3315C12.2242 25.9504 12.5249 24.2472 13.4291 23.1268C14.1569 22.2232 15.2444 21.7148 16.752 21.5729C19.4285 21.32 20.1983 20.5875 20.0458 18.438C20.0384 18.3336 20.0516 18.2288 20.0848 18.1295C20.1179 18.0302 20.1702 17.9384 20.2388 17.8594C20.3774 17.6997 20.5736 17.6016 20.7845 17.5867C20.9953 17.5718 21.2035 17.6412 21.3631 17.7797C21.5228 17.9183 21.6209 18.1145 21.6358 18.3254C21.9073 22.1658 19.3955 22.9239 16.9019 23.1598C15.8298 23.2607 15.12 23.5688 14.6695 24.1266C14.0581 24.8853 13.8647 26.2357 14.0931 28.1413C14.1065 28.2532 14.096 28.3666 14.0623 28.4741C14.0286 28.5816 13.9726 28.6807 13.8978 28.765C13.823 28.8492 13.7311 28.9166 13.6284 28.9628C13.5256 29.0089 13.4142 29.0328 13.3016 29.0327Z" fill="#524633"/>
<path d="M32.0379 28.7635C32.0135 28.7635 31.989 28.7625 31.9646 28.7598C31.8604 28.7503 31.759 28.7204 31.6663 28.6718C31.5737 28.6231 31.4915 28.5567 31.4245 28.4763C31.3575 28.3959 31.307 28.303 31.2759 28.2031C31.2448 28.1032 31.2337 27.9981 31.2432 27.8939C31.5789 24.199 30.442 23.3427 28.4987 23.1594C26.005 22.924 23.4928 22.1659 23.7637 18.325C23.7786 18.1141 23.8767 17.9179 24.0364 17.7793C24.196 17.6408 24.4042 17.5714 24.615 17.5863C24.8259 17.6012 25.0222 17.6993 25.1607 17.859C25.2992 18.0186 25.3687 18.2268 25.3537 18.4376C25.2013 20.5876 25.9716 21.3202 28.6475 21.5725C32.8868 21.9726 33.0653 25.4544 32.8305 28.0384C32.8125 28.2363 32.7213 28.4203 32.5747 28.5545C32.428 28.6886 32.2366 28.7632 32.0379 28.7635ZM9.91931 15.2305C7.07713 15.2305 5.81275 12.5604 5.6571 10.7653C5.5705 9.77825 5.37022 7.46678 6.73447 5.97875C7.14697 5.55878 7.64466 5.23205 8.19402 5.02055C8.74338 4.80906 9.33168 4.7177 9.91931 4.75262C10.1307 4.75262 10.3333 4.83658 10.4828 4.98602C10.6322 5.13546 10.7162 5.33815 10.7162 5.5495C10.7162 5.76084 10.6322 5.96353 10.4828 6.11297C10.3333 6.26242 10.1307 6.34637 9.91931 6.34637C9.553 6.31448 9.18411 6.36132 8.83739 6.48373C8.49067 6.60615 8.17415 6.80131 7.90906 7.05612C7.01869 8.02725 7.177 9.84943 7.24447 10.6272C7.31725 11.4644 7.93935 13.6367 9.91931 13.6367C10.1307 13.6367 10.3333 13.7207 10.4828 13.8701C10.6322 14.0196 10.7162 14.2222 10.7162 14.4336C10.7162 14.6449 10.6322 14.8476 10.4828 14.9971C10.3333 15.1465 10.1307 15.2305 9.91931 15.2305Z" fill="#524633"/>
<path d="M9.91797 15.231C9.70662 15.231 9.50394 15.147 9.35449 14.9976C9.20505 14.8482 9.12109 14.6455 9.12109 14.4341C9.12109 14.2228 9.20505 14.0201 9.35449 13.8706C9.50394 13.7212 9.70662 13.6372 9.91797 13.6372C11.8974 13.6372 12.52 11.4644 12.5928 10.6272C12.6544 9.91637 12.8197 8.02831 11.9288 7.05612C11.6637 6.80122 11.3472 6.606 11.0005 6.48358C10.6537 6.36116 10.2848 6.31438 9.9185 6.34637C9.70716 6.34637 9.50447 6.26241 9.35502 6.11297C9.20558 5.96353 9.12162 5.76084 9.12162 5.5495C9.12162 5.33815 9.20558 5.13546 9.35502 4.98602C9.50447 4.83658 9.70716 4.75262 9.9185 4.75262C10.5063 4.71768 11.0948 4.80914 11.6442 5.02083C12.1937 5.23252 12.6914 5.55952 13.1039 5.97981C14.4681 7.46837 14.2663 9.77878 14.1802 10.7658C14.0245 12.5604 12.7607 15.2305 9.9185 15.2305L9.91797 15.231Z" fill="#524633"/>
<path d="M2.02534 23.0956C1.83058 23.0954 1.64262 23.0239 1.49697 22.8946C1.35133 22.7653 1.25808 22.5872 1.23484 22.3938C0.990461 20.3575 1.25184 18.8966 2.03384 17.927C2.39383 17.5148 2.83548 17.1817 3.33084 16.949C3.8262 16.7163 4.36449 16.5889 4.91162 16.575C7.11684 16.3673 7.68687 15.8302 7.56255 14.0781C7.55315 13.9727 7.56485 13.8664 7.59697 13.7655C7.62909 13.6647 7.681 13.5712 7.74965 13.4906C7.8183 13.41 7.90232 13.3439 7.99681 13.2961C8.0913 13.2484 8.19435 13.2199 8.29996 13.2124C8.40556 13.205 8.5116 13.2186 8.61188 13.2526C8.71215 13.2865 8.80465 13.3401 8.88398 13.4102C8.96331 13.4803 9.02788 13.5655 9.0739 13.6609C9.11993 13.7562 9.1465 13.8598 9.15205 13.9655C9.38899 17.3007 7.21671 17.9584 5.06143 18.1613C4.72702 18.1596 4.39582 18.2266 4.08839 18.3582C3.78096 18.4898 3.50387 18.6831 3.2743 18.9263C2.78343 19.5357 2.62937 20.6375 2.81743 22.2031C2.8308 22.315 2.82029 22.4284 2.78658 22.536C2.75287 22.6435 2.69673 22.7427 2.62188 22.8269C2.54702 22.9112 2.45514 22.9786 2.35231 23.0247C2.24948 23.0708 2.13804 23.0946 2.02534 23.0945V23.0956ZM17.7604 22.8693C17.736 22.8693 17.7116 22.8682 17.6871 22.8655C17.4767 22.8464 17.2825 22.7445 17.1472 22.5822C17.0119 22.4199 16.9466 22.2105 16.9657 22.0001C17.2685 18.6745 16.1024 18.2872 14.7759 18.1624C12.6201 17.9589 10.4488 17.3018 10.6842 13.9666C10.699 13.7557 10.7971 13.5594 10.9567 13.4208C11.1163 13.2822 11.3244 13.2127 11.5352 13.2276C11.7461 13.2425 11.9424 13.3405 12.081 13.5001C12.2196 13.6597 12.2891 13.8678 12.2742 14.0787C12.1504 15.8307 12.7205 16.3678 14.9251 16.5755C18.5998 16.9219 18.7555 19.9198 18.5531 22.1441C18.535 22.342 18.4438 22.526 18.2972 22.6602C18.1506 22.7943 17.9591 22.8689 17.7604 22.8693Z" fill="#524633"/>
</svg>
