<svg width="315" height="316" viewBox="0 0 315 316" fill="none" xmlns="http://www.w3.org/2000/svg">
<g filter="url(#filter0_b_5_4551)">
<rect y="12" width="303" height="304" rx="30" fill="#D5A53A" fill-opacity="0.5"/>
</g>
<path opacity="0.2" fill-rule="evenodd" clip-rule="evenodd" d="M27.6036 259.032L71.9688 197.562C71.9688 197.562 101.902 208.787 130.766 221.081C159.096 210.39 199.719 195.424 199.719 195.424C235.802 166.533 265.465 140.815 265.465 140.815V281.499C265.465 285.918 261.884 289.499 257.465 289.499H34.4321C29.8487 289.499 26.2023 285.656 26.4432 281.079L27.6036 259.032Z" fill="url(#paint0_linear_5_4551)"/>
<path d="M25.8477 258.696C25.3668 259.37 25.5238 260.307 26.1984 260.788C26.873 261.269 27.8097 261.112 28.2905 260.437L25.8477 258.696ZM71.8522 196.742L72.4307 195.358L71.3258 194.896L70.6307 195.871L71.8522 196.742ZM130.932 221.439L130.354 222.823L130.905 223.053L131.463 222.842L130.932 221.439ZM199.719 195.424L200.25 196.827L200.485 196.738L200.678 196.578L199.719 195.424ZM266 140.368L248.928 143.291L259.995 156.614L266 140.368ZM28.2905 260.437L73.0736 197.613L70.6307 195.871L25.8477 258.696L28.2905 260.437ZM71.2736 198.126L130.354 222.823L131.511 220.055L72.4307 195.358L71.2736 198.126ZM131.463 222.842L200.25 196.827L199.189 194.021L130.402 220.036L131.463 222.842ZM200.678 196.578L256.574 150.148L254.657 147.84L198.761 194.27L200.678 196.578Z" fill="#FFDB6B"/>
<path d="M303 129L241.157 129C240.547 129 240.079 128.459 240.167 127.855L257.106 12" stroke="url(#paint1_diamond_5_4551)" stroke-opacity="0.13" stroke-width="23" stroke-linecap="round"/>
<circle cx="50" cy="59" r="24" fill="#524633"/>
<mask id="mask0_5_4551" style="mask-type:alpha" maskUnits="userSpaceOnUse" x="33" y="42" width="35" height="35">
<rect x="33" y="42" width="34.1934" height="34.1934" fill="#D9D9D9"/>
</mask>
<g mask="url(#mask0_5_4551)">
<path d="M52.461 66.6316H54.2914L54.3188 66.5247L48.798 60.5879L48.8337 60.486H49.1898C50.5816 60.486 51.7172 60.1308 52.5967 59.4203C53.4762 58.7096 53.9744 57.7589 54.0912 56.568H55.4615V55.4147H54.0521C53.9832 54.9123 53.8278 54.4552 53.5858 54.0434C53.3439 53.6314 53.0374 53.2711 52.6665 52.9624H55.4615V51.8088H44.7319V53.0447H49.2746C50.2026 53.0447 50.9675 53.2538 51.5695 53.6719C52.1712 54.0903 52.5433 54.6713 52.6858 55.4147H44.7319V56.568H52.7214C52.6155 57.3901 52.2556 58.0372 51.6418 58.5092C51.0282 58.9813 50.231 59.2173 49.25 59.2173H46.8939V60.5929L52.461 66.6316ZM50.1013 71.9194C48.3282 71.9194 46.6612 71.583 45.1002 70.91C43.5394 70.2371 42.1816 69.3238 41.0269 68.1703C39.8722 67.0167 38.9581 65.6601 38.2847 64.1006C37.611 62.5412 37.2742 60.8749 37.2742 59.1016C37.2742 57.3285 37.6106 55.6614 38.2836 54.1004C38.9565 52.5396 39.8698 51.1819 41.0233 50.0271C42.1769 48.8724 43.5335 47.9583 45.0931 47.2849C46.6524 46.6112 48.3187 46.2744 50.092 46.2744C51.8651 46.2744 53.5322 46.6109 55.0932 47.2838C56.654 47.9568 58.0117 48.87 59.1665 50.0236C60.3212 51.1771 61.2353 52.5337 61.9087 54.0933C62.5824 55.6527 62.9192 57.319 62.9192 59.0923C62.9192 60.8654 62.5827 62.5324 61.9098 64.0934C61.2368 65.6542 60.3236 67.012 59.17 68.1667C58.0165 69.3214 56.6599 70.2355 55.1003 70.9089C53.5409 71.5826 51.8746 71.9194 50.1013 71.9194ZM50.0967 70.4947C53.2786 70.4947 55.9737 69.3905 58.182 67.1822C60.3903 64.9739 61.4945 62.2788 61.4945 59.0969C61.4945 55.915 60.3903 53.2199 58.182 51.0116C55.9737 48.8033 53.2786 47.6991 50.0967 47.6991C46.9148 47.6991 44.2197 48.8033 42.0114 51.0116C39.8031 53.2199 38.6989 55.915 38.6989 59.0969C38.6989 62.2788 39.8031 64.9739 42.0114 67.1822C44.2197 69.3905 46.9148 70.4947 50.0967 70.4947Z" fill="white"/>
</g>
<path d="M38.992 134.214L36.22 144H35.128L32.664 135.656L30.144 144L29.08 144.014L26.364 134.214H27.414L29.654 142.796L32.16 134.214H33.252L35.688 142.796L37.942 134.214H38.992ZM43.8371 144.112C43.1184 144.112 42.4698 143.953 41.8911 143.636C41.3218 143.309 40.8691 142.852 40.5331 142.264C40.2064 141.667 40.0431 140.971 40.0431 140.178C40.0431 139.385 40.2111 138.694 40.5471 138.106C40.8831 137.509 41.3404 137.051 41.9191 136.734C42.4978 136.407 43.1464 136.244 43.8651 136.244C44.5838 136.244 45.2324 136.407 45.8111 136.734C46.3991 137.051 46.8564 137.509 47.1831 138.106C47.5191 138.694 47.6871 139.385 47.6871 140.178C47.6871 140.962 47.5191 141.653 47.1831 142.25C46.8471 142.847 46.3851 143.309 45.7971 143.636C45.2091 143.953 44.5558 144.112 43.8371 144.112ZM43.8371 143.258C44.3411 143.258 44.8078 143.146 45.2371 142.922C45.6664 142.689 46.0118 142.343 46.2731 141.886C46.5438 141.419 46.6791 140.85 46.6791 140.178C46.6791 139.506 46.5484 138.941 46.2871 138.484C46.0258 138.017 45.6804 137.672 45.2511 137.448C44.8218 137.215 44.3551 137.098 43.8511 137.098C43.3471 137.098 42.8804 137.215 42.4511 137.448C42.0218 137.672 41.6764 138.017 41.4151 138.484C41.1631 138.941 41.0371 139.506 41.0371 140.178C41.0371 140.85 41.1631 141.419 41.4151 141.886C41.6764 142.343 42.0171 142.689 42.4371 142.922C42.8664 143.146 43.3331 143.258 43.8371 143.258ZM50.4535 137.714C50.6682 137.238 50.9948 136.869 51.4335 136.608C51.8815 136.347 52.4275 136.216 53.0715 136.216V137.238H52.8055C52.0962 137.238 51.5268 137.429 51.0975 137.812C50.6682 138.195 50.4535 138.834 50.4535 139.73V144H49.4735V136.356H50.4535V137.714ZM58.6758 144L55.5258 140.57V144H54.5458V133.64H55.5258V139.772L58.6058 136.356H59.9778L56.3518 140.164L60.0058 144H58.6758ZM68.1241 137.182H66.3461V144H65.3661V137.182H64.3021V136.356H65.3661V135.824C65.3661 134.993 65.5761 134.382 65.9961 133.99C66.4255 133.598 67.1161 133.402 68.0681 133.402V134.242C67.4335 134.242 66.9855 134.363 66.7241 134.606C66.4721 134.849 66.3461 135.255 66.3461 135.824V136.356H68.1241V137.182ZM69.2189 140.164C69.2189 139.38 69.3729 138.694 69.6809 138.106C69.9982 137.509 70.4322 137.051 70.9829 136.734C71.5429 136.407 72.1729 136.244 72.8729 136.244C73.6009 136.244 74.2262 136.412 74.7489 136.748C75.2809 137.084 75.6635 137.513 75.8969 138.036V136.356H76.8769V144H75.8969V142.306C75.6542 142.829 75.2669 143.263 74.7349 143.608C74.2122 143.944 73.5869 144.112 72.8589 144.112C72.1682 144.112 71.5429 143.949 70.9829 143.622C70.4322 143.295 69.9982 142.833 69.6809 142.236C69.3729 141.639 69.2189 140.948 69.2189 140.164ZM75.8969 140.178C75.8969 139.562 75.7709 139.021 75.5189 138.554C75.2669 138.087 74.9215 137.728 74.4829 137.476C74.0535 137.224 73.5775 137.098 73.0549 137.098C72.5135 137.098 72.0282 137.219 71.5989 137.462C71.1695 137.705 70.8289 138.059 70.5769 138.526C70.3342 138.983 70.2129 139.529 70.2129 140.164C70.2129 140.789 70.3342 141.34 70.5769 141.816C70.8289 142.283 71.1695 142.642 71.5989 142.894C72.0282 143.137 72.5135 143.258 73.0549 143.258C73.5775 143.258 74.0535 143.132 74.4829 142.88C74.9215 142.628 75.2669 142.269 75.5189 141.802C75.7709 141.335 75.8969 140.794 75.8969 140.178ZM81.7461 144.112C80.8688 144.112 80.1501 143.911 79.5901 143.51C79.0395 143.099 78.7315 142.544 78.6661 141.844H79.6741C79.7208 142.273 79.9215 142.623 80.2761 142.894C80.6401 143.155 81.1255 143.286 81.7321 143.286C82.2641 143.286 82.6795 143.16 82.9781 142.908C83.2861 142.656 83.4401 142.343 83.4401 141.97C83.4401 141.709 83.3561 141.494 83.1881 141.326C83.0201 141.158 82.8055 141.027 82.5441 140.934C82.2921 140.831 81.9468 140.724 81.5081 140.612C80.9388 140.463 80.4768 140.313 80.1221 140.164C79.7675 140.015 79.4641 139.795 79.2121 139.506C78.9695 139.207 78.8481 138.811 78.8481 138.316C78.8481 137.943 78.9601 137.597 79.1841 137.28C79.4081 136.963 79.7255 136.711 80.1361 136.524C80.5468 136.337 81.0135 136.244 81.5361 136.244C82.3575 136.244 83.0201 136.454 83.5241 136.874C84.0281 137.285 84.2988 137.854 84.3361 138.582H83.3561C83.3281 138.134 83.1508 137.775 82.8241 137.504C82.5068 137.224 82.0681 137.084 81.5081 137.084C81.0135 137.084 80.6121 137.201 80.3041 137.434C79.9961 137.667 79.8421 137.957 79.8421 138.302C79.8421 138.601 79.9308 138.848 80.1081 139.044C80.2948 139.231 80.5235 139.38 80.7941 139.492C81.0648 139.595 81.4288 139.711 81.8861 139.842C82.4368 139.991 82.8755 140.136 83.2021 140.276C83.5288 140.416 83.8088 140.621 84.0421 140.892C84.2755 141.163 84.3968 141.522 84.4061 141.97C84.4061 142.381 84.2941 142.749 84.0701 143.076C83.8461 143.393 83.5335 143.645 83.1321 143.832C82.7308 144.019 82.2688 144.112 81.7461 144.112ZM87.5249 137.182V141.928C87.5249 142.395 87.6135 142.717 87.7909 142.894C87.9682 143.071 88.2809 143.16 88.7289 143.16H89.6249V144H88.5749C87.8842 144 87.3709 143.841 87.0349 143.524C86.6989 143.197 86.5309 142.665 86.5309 141.928V137.182H85.4669V136.356H86.5309V134.438H87.5249V136.356H89.6249V137.182H87.5249ZM98.1571 139.786C98.1571 140.122 98.1478 140.379 98.1291 140.556H91.7871C91.8151 141.135 91.9551 141.629 92.2071 142.04C92.4591 142.451 92.7904 142.763 93.2011 142.978C93.6118 143.183 94.0598 143.286 94.5451 143.286C95.1798 143.286 95.7118 143.132 96.1411 142.824C96.5798 142.516 96.8691 142.101 97.0091 141.578H98.0451C97.8584 142.325 97.4571 142.936 96.8411 143.412C96.2344 143.879 95.4691 144.112 94.5451 144.112C93.8264 144.112 93.1824 143.953 92.6131 143.636C92.0438 143.309 91.5958 142.852 91.2691 142.264C90.9518 141.667 90.7931 140.971 90.7931 140.178C90.7931 139.385 90.9518 138.689 91.2691 138.092C91.5864 137.495 92.0298 137.037 92.5991 136.72C93.1684 136.403 93.8171 136.244 94.5451 136.244C95.2731 136.244 95.9078 136.403 96.4491 136.72C96.9998 137.037 97.4198 137.467 97.7091 138.008C98.0078 138.54 98.1571 139.133 98.1571 139.786ZM97.1631 139.758C97.1724 139.189 97.0558 138.703 96.8131 138.302C96.5798 137.901 96.2578 137.597 95.8471 137.392C95.4364 137.187 94.9884 137.084 94.5031 137.084C93.7751 137.084 93.1544 137.317 92.6411 137.784C92.1278 138.251 91.8431 138.909 91.7871 139.758H97.1631ZM100.93 137.714C101.145 137.238 101.471 136.869 101.91 136.608C102.358 136.347 102.904 136.216 103.548 136.216V137.238H103.282C102.573 137.238 102.003 137.429 101.574 137.812C101.145 138.195 100.93 138.834 100.93 139.73V144H99.9501V136.356H100.93V137.714ZM108.458 143.23C110.175 141.942 111.501 140.789 112.434 139.772C113.377 138.745 113.848 137.742 113.848 136.762C113.848 136.118 113.685 135.605 113.358 135.222C113.041 134.83 112.518 134.634 111.79 134.634C111.081 134.634 110.53 134.858 110.138 135.306C109.755 135.745 109.541 136.333 109.494 137.07H108.542C108.598 136.034 108.915 135.231 109.494 134.662C110.082 134.083 110.847 133.794 111.79 133.794C112.695 133.794 113.428 134.051 113.988 134.564C114.548 135.068 114.828 135.787 114.828 136.72C114.828 137.849 114.357 138.946 113.414 140.01C112.481 141.065 111.328 142.096 109.956 143.104H115.136V143.93H108.458V143.23ZM116.666 138.89C116.666 137.285 116.913 136.039 117.408 135.152C117.903 134.265 118.789 133.822 120.068 133.822C121.347 133.822 122.233 134.265 122.728 135.152C123.223 136.039 123.47 137.285 123.47 138.89C123.47 140.523 123.223 141.788 122.728 142.684C122.233 143.58 121.347 144.028 120.068 144.028C118.78 144.028 117.889 143.58 117.394 142.684C116.909 141.788 116.666 140.523 116.666 138.89ZM122.504 138.89C122.504 138.022 122.443 137.289 122.322 136.692C122.201 136.095 121.963 135.614 121.608 135.25C121.253 134.886 120.74 134.704 120.068 134.704C119.396 134.704 118.883 134.886 118.528 135.25C118.173 135.614 117.935 136.095 117.814 136.692C117.693 137.289 117.632 138.022 117.632 138.89C117.632 139.786 117.693 140.537 117.814 141.144C117.935 141.741 118.173 142.222 118.528 142.586C118.883 142.95 119.396 143.132 120.068 143.132C120.74 143.132 121.253 142.95 121.608 142.586C121.963 142.222 122.201 141.741 122.322 141.144C122.443 140.537 122.504 139.786 122.504 138.89ZM125.293 138.89C125.293 137.285 125.54 136.039 126.035 135.152C126.529 134.265 127.416 133.822 128.695 133.822C129.973 133.822 130.86 134.265 131.355 135.152C131.849 136.039 132.097 137.285 132.097 138.89C132.097 140.523 131.849 141.788 131.355 142.684C130.86 143.58 129.973 144.028 128.695 144.028C127.407 144.028 126.515 143.58 126.021 142.684C125.535 141.788 125.293 140.523 125.293 138.89ZM131.131 138.89C131.131 138.022 131.07 137.289 130.949 136.692C130.827 136.095 130.589 135.614 130.235 135.25C129.88 134.886 129.367 134.704 128.695 134.704C128.023 134.704 127.509 134.886 127.155 135.25C126.8 135.614 126.562 136.095 126.441 136.692C126.319 137.289 126.259 138.022 126.259 138.89C126.259 139.786 126.319 140.537 126.441 141.144C126.562 141.741 126.8 142.222 127.155 142.586C127.509 142.95 128.023 143.132 128.695 143.132C129.367 143.132 129.88 142.95 130.235 142.586C130.589 142.222 130.827 141.741 130.949 141.144C131.07 140.537 131.131 139.786 131.131 138.89ZM133.612 136.062C133.612 135.465 133.794 134.984 134.158 134.62C134.531 134.247 135.002 134.06 135.572 134.06C136.15 134.06 136.622 134.247 136.986 134.62C137.359 134.984 137.546 135.465 137.546 136.062C137.546 136.669 137.359 137.159 136.986 137.532C136.622 137.896 136.15 138.078 135.572 138.078C135.002 138.078 134.531 137.896 134.158 137.532C133.794 137.159 133.612 136.669 133.612 136.062ZM141.452 134.2L135.712 144H134.718L140.472 134.2H141.452ZM135.572 134.69C135.217 134.69 134.932 134.811 134.718 135.054C134.512 135.287 134.41 135.623 134.41 136.062C134.41 136.501 134.512 136.841 134.718 137.084C134.932 137.327 135.217 137.448 135.572 137.448C135.926 137.448 136.211 137.327 136.426 137.084C136.64 136.841 136.748 136.501 136.748 136.062C136.748 135.633 136.64 135.297 136.426 135.054C136.211 134.811 135.926 134.69 135.572 134.69ZM138.652 142.138C138.652 141.531 138.834 141.046 139.198 140.682C139.571 140.309 140.042 140.122 140.612 140.122C141.181 140.122 141.648 140.309 142.012 140.682C142.385 141.046 142.572 141.531 142.572 142.138C142.572 142.745 142.385 143.235 142.012 143.608C141.648 143.972 141.181 144.154 140.612 144.154C140.042 144.154 139.571 143.972 139.198 143.608C138.834 143.235 138.652 142.745 138.652 142.138ZM140.612 140.766C140.257 140.766 139.972 140.887 139.758 141.13C139.543 141.373 139.436 141.709 139.436 142.138C139.436 142.567 139.543 142.903 139.758 143.146C139.972 143.389 140.257 143.51 140.612 143.51C140.966 143.51 141.246 143.393 141.452 143.16C141.666 142.917 141.774 142.577 141.774 142.138C141.774 141.699 141.666 141.363 141.452 141.13C141.246 140.887 140.966 140.766 140.612 140.766Z" fill="white"/>
<path d="M35.68 101.1V102.96H29.78V107.06H34.38V108.92H29.78V115H27.5V101.1H35.68ZM38.953 102.52C38.5396 102.52 38.193 102.38 37.913 102.1C37.633 101.82 37.493 101.473 37.493 101.06C37.493 100.647 37.633 100.3 37.913 100.02C38.193 99.74 38.5396 99.6 38.953 99.6C39.353 99.6 39.693 99.74 39.973 100.02C40.253 100.3 40.393 100.647 40.393 101.06C40.393 101.473 40.253 101.82 39.973 102.1C39.693 102.38 39.353 102.52 38.953 102.52ZM40.073 103.98V115H37.793V103.98H40.073ZM48.6264 103.8C49.4931 103.8 50.2664 103.98 50.9464 104.34C51.6397 104.7 52.1797 105.233 52.5664 105.94C52.9531 106.647 53.1464 107.5 53.1464 108.5V115H50.8864V108.84C50.8864 107.853 50.6397 107.1 50.1464 106.58C49.6531 106.047 48.9797 105.78 48.1264 105.78C47.2731 105.78 46.5931 106.047 46.0864 106.58C45.5931 107.1 45.3464 107.853 45.3464 108.84V115H43.0664V103.98H45.3464V105.24C45.7197 104.787 46.1931 104.433 46.7664 104.18C47.3531 103.927 47.9731 103.8 48.6264 103.8ZM55.2947 109.44C55.2947 108.333 55.5214 107.353 55.9747 106.5C56.4414 105.647 57.068 104.987 57.8547 104.52C58.6547 104.04 59.5347 103.8 60.4947 103.8C61.3614 103.8 62.1147 103.973 62.7547 104.32C63.408 104.653 63.928 105.073 64.3147 105.58V103.98H66.6147V115H64.3147V113.36C63.928 113.88 63.4014 114.313 62.7347 114.66C62.068 115.007 61.308 115.18 60.4547 115.18C59.508 115.18 58.6414 114.94 57.8547 114.46C57.068 113.967 56.4414 113.287 55.9747 112.42C55.5214 111.54 55.2947 110.547 55.2947 109.44ZM64.3147 109.48C64.3147 108.72 64.1547 108.06 63.8347 107.5C63.528 106.94 63.1214 106.513 62.6147 106.22C62.108 105.927 61.5614 105.78 60.9747 105.78C60.388 105.78 59.8414 105.927 59.3347 106.22C58.828 106.5 58.4147 106.92 58.0947 107.48C57.788 108.027 57.6347 108.68 57.6347 109.44C57.6347 110.2 57.788 110.867 58.0947 111.44C58.4147 112.013 58.828 112.453 59.3347 112.76C59.8547 113.053 60.4014 113.2 60.9747 113.2C61.5614 113.2 62.108 113.053 62.6147 112.76C63.1214 112.467 63.528 112.04 63.8347 111.48C64.1547 110.907 64.3147 110.24 64.3147 109.48ZM75.1694 103.8C76.036 103.8 76.8094 103.98 77.4894 104.34C78.1827 104.7 78.7227 105.233 79.1094 105.94C79.496 106.647 79.6894 107.5 79.6894 108.5V115H77.4294V108.84C77.4294 107.853 77.1827 107.1 76.6894 106.58C76.196 106.047 75.5227 105.78 74.6694 105.78C73.816 105.78 73.136 106.047 72.6294 106.58C72.136 107.1 71.8894 107.853 71.8894 108.84V115H69.6094V103.98H71.8894V105.24C72.2627 104.787 72.736 104.433 73.3094 104.18C73.896 103.927 74.516 103.8 75.1694 103.8ZM81.8377 109.48C81.8377 108.347 82.0643 107.353 82.5177 106.5C82.9843 105.633 83.6243 104.967 84.4377 104.5C85.251 104.033 86.1843 103.8 87.2377 103.8C88.571 103.8 89.671 104.12 90.5377 104.76C91.4177 105.387 92.011 106.287 92.3177 107.46H89.8577C89.6577 106.913 89.3377 106.487 88.8977 106.18C88.4577 105.873 87.9043 105.72 87.2377 105.72C86.3043 105.72 85.5577 106.053 84.9977 106.72C84.451 107.373 84.1777 108.293 84.1777 109.48C84.1777 110.667 84.451 111.593 84.9977 112.26C85.5577 112.927 86.3043 113.26 87.2377 113.26C88.5577 113.26 89.431 112.68 89.8577 111.52H92.3177C91.9977 112.64 91.3977 113.533 90.5177 114.2C89.6377 114.853 88.5443 115.18 87.2377 115.18C86.1843 115.18 85.251 114.947 84.4377 114.48C83.6243 114 82.9843 113.333 82.5177 112.48C82.0643 111.613 81.8377 110.613 81.8377 109.48ZM95.7498 102.52C95.3365 102.52 94.9898 102.38 94.7098 102.1C94.4298 101.82 94.2898 101.473 94.2898 101.06C94.2898 100.647 94.4298 100.3 94.7098 100.02C94.9898 99.74 95.3365 99.6 95.7498 99.6C96.1498 99.6 96.4898 99.74 96.7698 100.02C97.0498 100.3 97.1898 100.647 97.1898 101.06C97.1898 101.473 97.0498 101.82 96.7698 102.1C96.4898 102.38 96.1498 102.52 95.7498 102.52ZM96.8698 103.98V115H94.5898V103.98H96.8698ZM99.1033 109.44C99.1033 108.333 99.3299 107.353 99.7833 106.5C100.25 105.647 100.877 104.987 101.663 104.52C102.463 104.04 103.343 103.8 104.303 103.8C105.17 103.8 105.923 103.973 106.563 104.32C107.217 104.653 107.737 105.073 108.123 105.58V103.98H110.423V115H108.123V113.36C107.737 113.88 107.21 114.313 106.543 114.66C105.877 115.007 105.117 115.18 104.263 115.18C103.317 115.18 102.45 114.94 101.663 114.46C100.877 113.967 100.25 113.287 99.7833 112.42C99.3299 111.54 99.1033 110.547 99.1033 109.44ZM108.123 109.48C108.123 108.72 107.963 108.06 107.643 107.5C107.337 106.94 106.93 106.513 106.423 106.22C105.917 105.927 105.37 105.78 104.783 105.78C104.197 105.78 103.65 105.927 103.143 106.22C102.637 106.5 102.223 106.92 101.903 107.48C101.597 108.027 101.443 108.68 101.443 109.44C101.443 110.2 101.597 110.867 101.903 111.44C102.223 112.013 102.637 112.453 103.143 112.76C103.663 113.053 104.21 113.2 104.783 113.2C105.37 113.2 105.917 113.053 106.423 112.76C106.93 112.467 107.337 112.04 107.643 111.48C107.963 110.907 108.123 110.24 108.123 109.48ZM115.698 100.2V115H113.418V100.2H115.698ZM133.607 105.24C133.607 105.947 133.44 106.613 133.107 107.24C132.773 107.867 132.24 108.38 131.507 108.78C130.773 109.167 129.833 109.36 128.687 109.36H126.167V115H123.887V101.1H128.687C129.753 101.1 130.653 101.287 131.387 101.66C132.133 102.02 132.687 102.513 133.047 103.14C133.42 103.767 133.607 104.467 133.607 105.24ZM128.687 107.5C129.553 107.5 130.2 107.307 130.627 106.92C131.053 106.52 131.267 105.96 131.267 105.24C131.267 103.72 130.407 102.96 128.687 102.96H126.167V107.5H128.687ZM138.061 100.2V115H135.781V100.2H138.061ZM140.295 109.44C140.295 108.333 140.521 107.353 140.975 106.5C141.441 105.647 142.068 104.987 142.855 104.52C143.655 104.04 144.535 103.8 145.495 103.8C146.361 103.8 147.115 103.973 147.755 104.32C148.408 104.653 148.928 105.073 149.315 105.58V103.98H151.615V115H149.315V113.36C148.928 113.88 148.401 114.313 147.735 114.66C147.068 115.007 146.308 115.18 145.455 115.18C144.508 115.18 143.641 114.94 142.855 114.46C142.068 113.967 141.441 113.287 140.975 112.42C140.521 111.54 140.295 110.547 140.295 109.44ZM149.315 109.48C149.315 108.72 149.155 108.06 148.835 107.5C148.528 106.94 148.121 106.513 147.615 106.22C147.108 105.927 146.561 105.78 145.975 105.78C145.388 105.78 144.841 105.927 144.335 106.22C143.828 106.5 143.415 106.92 143.095 107.48C142.788 108.027 142.635 108.68 142.635 109.44C142.635 110.2 142.788 110.867 143.095 111.44C143.415 112.013 143.828 112.453 144.335 112.76C144.855 113.053 145.401 113.2 145.975 113.2C146.561 113.2 147.108 113.053 147.615 112.76C148.121 112.467 148.528 112.04 148.835 111.48C149.155 110.907 149.315 110.24 149.315 109.48ZM160.169 103.8C161.036 103.8 161.809 103.98 162.489 104.34C163.183 104.7 163.723 105.233 164.109 105.94C164.496 106.647 164.689 107.5 164.689 108.5V115H162.429V108.84C162.429 107.853 162.183 107.1 161.689 106.58C161.196 106.047 160.523 105.78 159.669 105.78C158.816 105.78 158.136 106.047 157.629 106.58C157.136 107.1 156.889 107.853 156.889 108.84V115H154.609V103.98H156.889V105.24C157.263 104.787 157.736 104.433 158.309 104.18C158.896 103.927 159.516 103.8 160.169 103.8ZM173.158 103.8C174.024 103.8 174.798 103.98 175.478 104.34C176.171 104.7 176.711 105.233 177.098 105.94C177.484 106.647 177.678 107.5 177.678 108.5V115H175.418V108.84C175.418 107.853 175.171 107.1 174.678 106.58C174.184 106.047 173.511 105.78 172.658 105.78C171.804 105.78 171.124 106.047 170.618 106.58C170.124 107.1 169.878 107.853 169.878 108.84V115H167.598V103.98H169.878V105.24C170.251 104.787 170.724 104.433 171.298 104.18C171.884 103.927 172.504 103.8 173.158 103.8ZM181.746 102.52C181.333 102.52 180.986 102.38 180.706 102.1C180.426 101.82 180.286 101.473 180.286 101.06C180.286 100.647 180.426 100.3 180.706 100.02C180.986 99.74 181.333 99.6 181.746 99.6C182.146 99.6 182.486 99.74 182.766 100.02C183.046 100.3 183.186 100.647 183.186 101.06C183.186 101.473 183.046 101.82 182.766 102.1C182.486 102.38 182.146 102.52 181.746 102.52ZM182.866 103.98V115H180.586V103.98H182.866ZM191.419 103.8C192.286 103.8 193.059 103.98 193.739 104.34C194.433 104.7 194.973 105.233 195.359 105.94C195.746 106.647 195.939 107.5 195.939 108.5V115H193.679V108.84C193.679 107.853 193.433 107.1 192.939 106.58C192.446 106.047 191.773 105.78 190.919 105.78C190.066 105.78 189.386 106.047 188.879 106.58C188.386 107.1 188.139 107.853 188.139 108.84V115H185.859V103.98H188.139V105.24C188.513 104.787 188.986 104.433 189.559 104.18C190.146 103.927 190.766 103.8 191.419 103.8ZM203.288 103.8C204.141 103.8 204.894 103.973 205.548 104.32C206.214 104.653 206.734 105.073 207.108 105.58V103.98H209.408V115.18C209.408 116.193 209.194 117.093 208.768 117.88C208.341 118.68 207.721 119.307 206.908 119.76C206.108 120.213 205.148 120.44 204.028 120.44C202.534 120.44 201.294 120.087 200.308 119.38C199.321 118.687 198.761 117.74 198.628 116.54H200.888C201.061 117.113 201.428 117.573 201.988 117.92C202.561 118.28 203.241 118.46 204.028 118.46C204.948 118.46 205.688 118.18 206.248 117.62C206.821 117.06 207.108 116.247 207.108 115.18V113.34C206.721 113.86 206.194 114.3 205.528 114.66C204.874 115.007 204.128 115.18 203.288 115.18C202.328 115.18 201.448 114.94 200.648 114.46C199.861 113.967 199.234 113.287 198.768 112.42C198.314 111.54 198.088 110.547 198.088 109.44C198.088 108.333 198.314 107.353 198.768 106.5C199.234 105.647 199.861 104.987 200.648 104.52C201.448 104.04 202.328 103.8 203.288 103.8ZM207.108 109.48C207.108 108.72 206.948 108.06 206.628 107.5C206.321 106.94 205.914 106.513 205.408 106.22C204.901 105.927 204.354 105.78 203.768 105.78C203.181 105.78 202.634 105.927 202.128 106.22C201.621 106.5 201.208 106.92 200.888 107.48C200.581 108.027 200.428 108.68 200.428 109.44C200.428 110.2 200.581 110.867 200.888 111.44C201.208 112.013 201.621 112.453 202.128 112.76C202.648 113.053 203.194 113.2 203.768 113.2C204.354 113.2 204.901 113.053 205.408 112.76C205.914 112.467 206.321 112.04 206.628 111.48C206.948 110.907 207.108 110.24 207.108 109.48Z" fill="white"/>
<defs>
<filter id="filter0_b_5_4551" x="-64" y="-52" width="431" height="432" filterUnits="userSpaceOnUse" color-interpolation-filters="sRGB">
<feFlood flood-opacity="0" result="BackgroundImageFix"/>
<feGaussianBlur in="BackgroundImageFix" stdDeviation="32"/>
<feComposite in2="SourceAlpha" operator="in" result="effect1_backgroundBlur_5_4551"/>
<feBlend mode="normal" in="SourceGraphic" in2="effect1_backgroundBlur_5_4551" result="shape"/>
</filter>
<linearGradient id="paint0_linear_5_4551" x1="26" y1="139.126" x2="26" y2="289.499" gradientUnits="userSpaceOnUse">
<stop stop-color="#FFC100"/>
<stop offset="0.64" stop-color="#FFDB6B"/>
<stop offset="1" stop-color="#FFDB6B" stop-opacity="0"/>
</linearGradient>
<radialGradient id="paint1_diamond_5_4551" cx="0" cy="0" r="1" gradientUnits="userSpaceOnUse" gradientTransform="translate(241.336 129) rotate(-65.0782) scale(182.672 56.3242)">
<stop stop-color="#7C5224"/>
<stop offset="1" stop-color="#7C5224" stop-opacity="0"/>
</radialGradient>
</defs>
</svg>
