<svg width="416" height="244" viewBox="0 0 416 244" fill="none" xmlns="http://www.w3.org/2000/svg">
<g filter="url(#filter0_d_26_179)">
<g filter="url(#filter1_b_26_179)">
<rect x="48.9628" y="40" width="323" height="156" rx="30" fill="#F0E6CE"/>
</g>
<circle cx="103.963" cy="95" r="25" fill="#A67F28"/>
<path d="M99.0045 95.708L108.921 95.708" stroke="white" stroke-linecap="round"/>
<path d="M99.0045 99.958L104.671 99.958" stroke="white" stroke-linecap="round"/>
<path d="M94.7545 85.358C94.7545 84.5179 94.7545 84.0979 94.918 83.777C95.0618 83.4948 95.2913 83.2653 95.5735 83.1215C95.8944 82.958 96.3144 82.958 97.1545 82.958H105.094C105.461 82.958 105.644 82.958 105.817 82.9995C105.97 83.0362 106.116 83.0968 106.25 83.179C106.402 83.2718 106.531 83.4015 106.791 83.661L112.468 89.3384C112.728 89.5978 112.857 89.7275 112.95 89.8789C113.032 90.0131 113.093 90.1594 113.13 90.3125C113.171 90.4851 113.171 90.6686 113.171 91.0355V104.641C113.171 105.481 113.171 105.901 113.008 106.222C112.864 106.505 112.634 106.734 112.352 106.878C112.031 107.041 111.611 107.041 110.771 107.041H97.1545C96.3144 107.041 95.8944 107.041 95.5735 106.878C95.2913 106.734 95.0618 106.505 94.918 106.222C94.7545 105.901 94.7545 105.481 94.7545 104.641V85.358Z" stroke="white"/>
<path d="M104.671 82.958V89.058C104.671 89.8981 104.671 90.3181 104.835 90.639C104.978 90.9212 105.208 91.1507 105.49 91.2945C105.811 91.458 106.231 91.458 107.071 91.458H113.171" stroke="white"/>
<path d="M93.8998 69L120.159 167.002C120.331 167.642 119.845 168.268 119.182 168.261L56.1101 167.566" stroke="url(#paint0_diamond_26_179)" stroke-opacity="0.13" stroke-width="23" stroke-linecap="round"/>
<path d="M146.635 140.1C146.635 139.139 146.845 138.28 147.265 137.524C147.685 136.759 148.259 136.166 148.987 135.746C149.715 135.317 150.527 135.102 151.423 135.102C152.515 135.102 153.448 135.363 154.223 135.886C155.007 136.399 155.576 137.127 155.931 138.07H154.783C154.503 137.407 154.073 136.889 153.495 136.516C152.925 136.143 152.235 135.956 151.423 135.956C150.704 135.956 150.055 136.124 149.477 136.46C148.907 136.796 148.459 137.281 148.133 137.916C147.806 138.541 147.643 139.269 147.643 140.1C147.643 140.931 147.806 141.659 148.133 142.284C148.459 142.909 148.907 143.39 149.477 143.726C150.055 144.062 150.704 144.23 151.423 144.23C152.235 144.23 152.925 144.048 153.495 143.684C154.073 143.311 154.503 142.797 154.783 142.144H155.931C155.576 143.077 155.007 143.801 154.223 144.314C153.439 144.827 152.505 145.084 151.423 145.084C150.527 145.084 149.715 144.874 148.987 144.454C148.259 144.025 147.685 143.432 147.265 142.676C146.845 141.92 146.635 141.061 146.635 140.1ZM157.436 141.164C157.436 140.38 157.59 139.694 157.898 139.106C158.215 138.509 158.649 138.051 159.2 137.734C159.76 137.407 160.39 137.244 161.09 137.244C161.818 137.244 162.443 137.412 162.966 137.748C163.498 138.084 163.88 138.513 164.114 139.036V137.356H165.094V145H164.114V143.306C163.871 143.829 163.484 144.263 162.952 144.608C162.429 144.944 161.804 145.112 161.076 145.112C160.385 145.112 159.76 144.949 159.2 144.622C158.649 144.295 158.215 143.833 157.898 143.236C157.59 142.639 157.436 141.948 157.436 141.164ZM164.114 141.178C164.114 140.562 163.988 140.021 163.736 139.554C163.484 139.087 163.138 138.728 162.7 138.476C162.27 138.224 161.794 138.098 161.272 138.098C160.73 138.098 160.245 138.219 159.816 138.462C159.386 138.705 159.046 139.059 158.794 139.526C158.551 139.983 158.43 140.529 158.43 141.164C158.43 141.789 158.551 142.34 158.794 142.816C159.046 143.283 159.386 143.642 159.816 143.894C160.245 144.137 160.73 144.258 161.272 144.258C161.794 144.258 162.27 144.132 162.7 143.88C163.138 143.628 163.484 143.269 163.736 142.802C163.988 142.335 164.114 141.794 164.114 141.178ZM169.963 145.112C169.086 145.112 168.367 144.911 167.807 144.51C167.256 144.099 166.948 143.544 166.883 142.844H167.891C167.938 143.273 168.138 143.623 168.493 143.894C168.857 144.155 169.342 144.286 169.949 144.286C170.481 144.286 170.896 144.16 171.195 143.908C171.503 143.656 171.657 143.343 171.657 142.97C171.657 142.709 171.573 142.494 171.405 142.326C171.237 142.158 171.022 142.027 170.761 141.934C170.509 141.831 170.164 141.724 169.725 141.612C169.156 141.463 168.694 141.313 168.339 141.164C167.984 141.015 167.681 140.795 167.429 140.506C167.186 140.207 167.065 139.811 167.065 139.316C167.065 138.943 167.177 138.597 167.401 138.28C167.625 137.963 167.942 137.711 168.353 137.524C168.764 137.337 169.23 137.244 169.753 137.244C170.574 137.244 171.237 137.454 171.741 137.874C172.245 138.285 172.516 138.854 172.553 139.582H171.573C171.545 139.134 171.368 138.775 171.041 138.504C170.724 138.224 170.285 138.084 169.725 138.084C169.23 138.084 168.829 138.201 168.521 138.434C168.213 138.667 168.059 138.957 168.059 139.302C168.059 139.601 168.148 139.848 168.325 140.044C168.512 140.231 168.74 140.38 169.011 140.492C169.282 140.595 169.646 140.711 170.103 140.842C170.654 140.991 171.092 141.136 171.419 141.276C171.746 141.416 172.026 141.621 172.259 141.892C172.492 142.163 172.614 142.522 172.623 142.97C172.623 143.381 172.511 143.749 172.287 144.076C172.063 144.393 171.75 144.645 171.349 144.832C170.948 145.019 170.486 145.112 169.963 145.112ZM178.108 137.216C178.686 137.216 179.204 137.337 179.662 137.58C180.128 137.823 180.492 138.196 180.754 138.7C181.024 139.195 181.16 139.801 181.16 140.52V145H180.194V140.632C180.194 139.801 179.984 139.167 179.564 138.728C179.153 138.289 178.588 138.07 177.87 138.07C177.132 138.07 176.544 138.303 176.106 138.77C175.667 139.237 175.448 139.923 175.448 140.828V145H174.468V134.64H175.448V138.658C175.69 138.201 176.045 137.846 176.512 137.594C176.988 137.342 177.52 137.216 178.108 137.216ZM184.223 143.376L182.767 147.044H182.095L183.131 143.376H184.223ZM189.141 141.164C189.141 140.38 189.295 139.694 189.603 139.106C189.92 138.509 190.354 138.051 190.905 137.734C191.465 137.407 192.095 137.244 192.795 137.244C193.523 137.244 194.148 137.412 194.671 137.748C195.203 138.084 195.585 138.513 195.819 139.036V137.356H196.799V145H195.819V143.306C195.576 143.829 195.189 144.263 194.657 144.608C194.134 144.944 193.509 145.112 192.781 145.112C192.09 145.112 191.465 144.949 190.905 144.622C190.354 144.295 189.92 143.833 189.603 143.236C189.295 142.639 189.141 141.948 189.141 141.164ZM195.819 141.178C195.819 140.562 195.693 140.021 195.441 139.554C195.189 139.087 194.843 138.728 194.405 138.476C193.975 138.224 193.499 138.098 192.977 138.098C192.435 138.098 191.95 138.219 191.521 138.462C191.091 138.705 190.751 139.059 190.499 139.526C190.256 139.983 190.135 140.529 190.135 141.164C190.135 141.789 190.256 142.34 190.499 142.816C190.751 143.283 191.091 143.642 191.521 143.894C191.95 144.137 192.435 144.258 192.977 144.258C193.499 144.258 193.975 144.132 194.405 143.88C194.843 143.628 195.189 143.269 195.441 142.802C195.693 142.335 195.819 141.794 195.819 141.178ZM198.588 141.178C198.588 140.385 198.747 139.694 199.064 139.106C199.381 138.509 199.82 138.051 200.38 137.734C200.94 137.407 201.579 137.244 202.298 137.244C203.241 137.244 204.015 137.477 204.622 137.944C205.238 138.411 205.635 139.045 205.812 139.848H204.762C204.631 139.297 204.347 138.868 203.908 138.56C203.479 138.243 202.942 138.084 202.298 138.084C201.785 138.084 201.323 138.201 200.912 138.434C200.501 138.667 200.175 139.017 199.932 139.484C199.699 139.941 199.582 140.506 199.582 141.178C199.582 141.85 199.699 142.419 199.932 142.886C200.175 143.353 200.501 143.703 200.912 143.936C201.323 144.169 201.785 144.286 202.298 144.286C202.942 144.286 203.479 144.132 203.908 143.824C204.347 143.507 204.631 143.068 204.762 142.508H205.812C205.635 143.292 205.238 143.922 204.622 144.398C204.006 144.874 203.231 145.112 202.298 145.112C201.579 145.112 200.94 144.953 200.38 144.636C199.82 144.309 199.381 143.852 199.064 143.264C198.747 142.667 198.588 141.971 198.588 141.178ZM207.174 141.178C207.174 140.385 207.333 139.694 207.65 139.106C207.967 138.509 208.406 138.051 208.966 137.734C209.526 137.407 210.165 137.244 210.884 137.244C211.827 137.244 212.601 137.477 213.208 137.944C213.824 138.411 214.221 139.045 214.398 139.848H213.348C213.217 139.297 212.933 138.868 212.494 138.56C212.065 138.243 211.528 138.084 210.884 138.084C210.371 138.084 209.909 138.201 209.498 138.434C209.087 138.667 208.761 139.017 208.518 139.484C208.285 139.941 208.168 140.506 208.168 141.178C208.168 141.85 208.285 142.419 208.518 142.886C208.761 143.353 209.087 143.703 209.498 143.936C209.909 144.169 210.371 144.286 210.884 144.286C211.528 144.286 212.065 144.132 212.494 143.824C212.933 143.507 213.217 143.068 213.348 142.508H214.398C214.221 143.292 213.824 143.922 213.208 144.398C212.592 144.874 211.817 145.112 210.884 145.112C210.165 145.112 209.526 144.953 208.966 144.636C208.406 144.309 207.967 143.852 207.65 143.264C207.333 142.667 207.174 141.971 207.174 141.178ZM219.554 145.112C218.835 145.112 218.186 144.953 217.608 144.636C217.038 144.309 216.586 143.852 216.25 143.264C215.923 142.667 215.76 141.971 215.76 141.178C215.76 140.385 215.928 139.694 216.264 139.106C216.6 138.509 217.057 138.051 217.636 137.734C218.214 137.407 218.863 137.244 219.582 137.244C220.3 137.244 220.949 137.407 221.528 137.734C222.116 138.051 222.573 138.509 222.9 139.106C223.236 139.694 223.404 140.385 223.404 141.178C223.404 141.962 223.236 142.653 222.9 143.25C222.564 143.847 222.102 144.309 221.514 144.636C220.926 144.953 220.272 145.112 219.554 145.112ZM219.554 144.258C220.058 144.258 220.524 144.146 220.954 143.922C221.383 143.689 221.728 143.343 221.99 142.886C222.26 142.419 222.396 141.85 222.396 141.178C222.396 140.506 222.265 139.941 222.004 139.484C221.742 139.017 221.397 138.672 220.968 138.448C220.538 138.215 220.072 138.098 219.568 138.098C219.064 138.098 218.597 138.215 218.168 138.448C217.738 138.672 217.393 139.017 217.132 139.484C216.88 139.941 216.754 140.506 216.754 141.178C216.754 141.85 216.88 142.419 217.132 142.886C217.393 143.343 217.734 143.689 218.154 143.922C218.583 144.146 219.05 144.258 219.554 144.258ZM231.812 137.356V145H230.832V143.656C230.608 144.132 230.263 144.496 229.796 144.748C229.33 145 228.807 145.126 228.228 145.126C227.314 145.126 226.567 144.846 225.988 144.286C225.41 143.717 225.12 142.895 225.12 141.822V137.356H226.086V141.71C226.086 142.541 226.292 143.175 226.702 143.614C227.122 144.053 227.692 144.272 228.41 144.272C229.148 144.272 229.736 144.039 230.174 143.572C230.613 143.105 230.832 142.419 230.832 141.514V137.356H231.812ZM237.634 137.216C238.548 137.216 239.295 137.501 239.874 138.07C240.452 138.63 240.742 139.447 240.742 140.52V145H239.776V140.632C239.776 139.801 239.566 139.167 239.146 138.728C238.735 138.289 238.17 138.07 237.452 138.07C236.714 138.07 236.126 138.303 235.688 138.77C235.249 139.237 235.03 139.923 235.03 140.828V145H234.05V137.356H235.03V138.658C235.272 138.191 235.622 137.837 236.08 137.594C236.537 137.342 237.055 137.216 237.634 137.216ZM244.183 138.182V142.928C244.183 143.395 244.272 143.717 244.449 143.894C244.626 144.071 244.939 144.16 245.387 144.16H246.283V145H245.233C244.542 145 244.029 144.841 243.693 144.524C243.357 144.197 243.189 143.665 243.189 142.928V138.182H242.125V137.356H243.189V135.438H244.183V137.356H246.283V138.182H244.183ZM250.531 145.112C249.654 145.112 248.935 144.911 248.375 144.51C247.825 144.099 247.517 143.544 247.451 142.844H248.459C248.506 143.273 248.707 143.623 249.061 143.894C249.425 144.155 249.911 144.286 250.517 144.286C251.049 144.286 251.465 144.16 251.763 143.908C252.071 143.656 252.225 143.343 252.225 142.97C252.225 142.709 252.141 142.494 251.973 142.326C251.805 142.158 251.591 142.027 251.329 141.934C251.077 141.831 250.732 141.724 250.293 141.612C249.724 141.463 249.262 141.313 248.907 141.164C248.553 141.015 248.249 140.795 247.997 140.506C247.755 140.207 247.633 139.811 247.633 139.316C247.633 138.943 247.745 138.597 247.969 138.28C248.193 137.963 248.511 137.711 248.921 137.524C249.332 137.337 249.799 137.244 250.321 137.244C251.143 137.244 251.805 137.454 252.309 137.874C252.813 138.285 253.084 138.854 253.121 139.582H252.141C252.113 139.134 251.936 138.775 251.609 138.504C251.292 138.224 250.853 138.084 250.293 138.084C249.799 138.084 249.397 138.201 249.089 138.434C248.781 138.667 248.627 138.957 248.627 139.302C248.627 139.601 248.716 139.848 248.893 140.044C249.08 140.231 249.309 140.38 249.579 140.492C249.85 140.595 250.214 140.711 250.671 140.842C251.222 140.991 251.661 141.136 251.987 141.276C252.314 141.416 252.594 141.621 252.827 141.892C253.061 142.163 253.182 142.522 253.191 142.97C253.191 143.381 253.079 143.749 252.855 144.076C252.631 144.393 252.319 144.645 251.917 144.832C251.516 145.019 251.054 145.112 250.531 145.112ZM148.063 159.714C148.277 159.238 148.604 158.869 149.043 158.608C149.491 158.347 150.037 158.216 150.681 158.216V159.238H150.415C149.705 159.238 149.136 159.429 148.707 159.812C148.277 160.195 148.063 160.834 148.063 161.73V166H147.083V158.356H148.063V159.714ZM159.071 161.786C159.071 162.122 159.062 162.379 159.043 162.556H152.701C152.729 163.135 152.869 163.629 153.121 164.04C153.373 164.451 153.704 164.763 154.115 164.978C154.526 165.183 154.974 165.286 155.459 165.286C156.094 165.286 156.626 165.132 157.055 164.824C157.494 164.516 157.783 164.101 157.923 163.578H158.959C158.772 164.325 158.371 164.936 157.755 165.412C157.148 165.879 156.383 166.112 155.459 166.112C154.74 166.112 154.096 165.953 153.527 165.636C152.958 165.309 152.51 164.852 152.183 164.264C151.866 163.667 151.707 162.971 151.707 162.178C151.707 161.385 151.866 160.689 152.183 160.092C152.5 159.495 152.944 159.037 153.513 158.72C154.082 158.403 154.731 158.244 155.459 158.244C156.187 158.244 156.822 158.403 157.363 158.72C157.914 159.037 158.334 159.467 158.623 160.008C158.922 160.54 159.071 161.133 159.071 161.786ZM158.077 161.758C158.086 161.189 157.97 160.703 157.727 160.302C157.494 159.901 157.172 159.597 156.761 159.392C156.35 159.187 155.902 159.084 155.417 159.084C154.689 159.084 154.068 159.317 153.555 159.784C153.042 160.251 152.757 160.909 152.701 161.758H158.077ZM160.416 162.178C160.416 161.385 160.575 160.694 160.892 160.106C161.209 159.509 161.648 159.051 162.208 158.734C162.768 158.407 163.407 158.244 164.126 158.244C165.069 158.244 165.843 158.477 166.45 158.944C167.066 159.411 167.463 160.045 167.64 160.848H166.59C166.459 160.297 166.175 159.868 165.736 159.56C165.307 159.243 164.77 159.084 164.126 159.084C163.613 159.084 163.151 159.201 162.74 159.434C162.329 159.667 162.003 160.017 161.76 160.484C161.527 160.941 161.41 161.506 161.41 162.178C161.41 162.85 161.527 163.419 161.76 163.886C162.003 164.353 162.329 164.703 162.74 164.936C163.151 165.169 163.613 165.286 164.126 165.286C164.77 165.286 165.307 165.132 165.736 164.824C166.175 164.507 166.459 164.068 166.59 163.508H167.64C167.463 164.292 167.066 164.922 166.45 165.398C165.834 165.874 165.059 166.112 164.126 166.112C163.407 166.112 162.768 165.953 162.208 165.636C161.648 165.309 161.209 164.852 160.892 164.264C160.575 163.667 160.416 162.971 160.416 162.178ZM176.366 161.786C176.366 162.122 176.357 162.379 176.338 162.556H169.996C170.024 163.135 170.164 163.629 170.416 164.04C170.668 164.451 170.999 164.763 171.41 164.978C171.821 165.183 172.269 165.286 172.754 165.286C173.389 165.286 173.921 165.132 174.35 164.824C174.789 164.516 175.078 164.101 175.218 163.578H176.254C176.067 164.325 175.666 164.936 175.05 165.412C174.443 165.879 173.678 166.112 172.754 166.112C172.035 166.112 171.391 165.953 170.822 165.636C170.253 165.309 169.805 164.852 169.478 164.264C169.161 163.667 169.002 162.971 169.002 162.178C169.002 161.385 169.161 160.689 169.478 160.092C169.795 159.495 170.239 159.037 170.808 158.72C171.377 158.403 172.026 158.244 172.754 158.244C173.482 158.244 174.117 158.403 174.658 158.72C175.209 159.037 175.629 159.467 175.918 160.008C176.217 160.54 176.366 161.133 176.366 161.786ZM175.372 161.758C175.381 161.189 175.265 160.703 175.022 160.302C174.789 159.901 174.467 159.597 174.056 159.392C173.645 159.187 173.197 159.084 172.712 159.084C171.984 159.084 171.363 159.317 170.85 159.784C170.337 160.251 170.052 160.909 169.996 161.758H175.372ZM178.649 156.914C178.453 156.914 178.285 156.844 178.145 156.704C178.005 156.564 177.935 156.391 177.935 156.186C177.935 155.981 178.005 155.813 178.145 155.682C178.285 155.542 178.453 155.472 178.649 155.472C178.845 155.472 179.013 155.542 179.153 155.682C179.293 155.813 179.363 155.981 179.363 156.186C179.363 156.391 179.293 156.564 179.153 156.704C179.013 156.844 178.845 156.914 178.649 156.914ZM179.139 158.356V166H178.159V158.356H179.139ZM184.074 165.048L186.65 158.356H187.686L184.62 166H183.514L180.448 158.356H181.498L184.074 165.048ZM188.566 162.164C188.566 161.38 188.72 160.694 189.028 160.106C189.346 159.509 189.78 159.051 190.33 158.734C190.89 158.407 191.52 158.244 192.22 158.244C192.948 158.244 193.574 158.412 194.096 158.748C194.628 159.084 195.011 159.513 195.244 160.036V158.356H196.224V166H195.244V164.306C195.002 164.829 194.614 165.263 194.082 165.608C193.56 165.944 192.934 166.112 192.206 166.112C191.516 166.112 190.89 165.949 190.33 165.622C189.78 165.295 189.346 164.833 189.028 164.236C188.72 163.639 188.566 162.948 188.566 162.164ZM195.244 162.178C195.244 161.562 195.118 161.021 194.866 160.554C194.614 160.087 194.269 159.728 193.83 159.476C193.401 159.224 192.925 159.098 192.402 159.098C191.861 159.098 191.376 159.219 190.946 159.462C190.517 159.705 190.176 160.059 189.924 160.526C189.682 160.983 189.56 161.529 189.56 162.164C189.56 162.789 189.682 163.34 189.924 163.816C190.176 164.283 190.517 164.642 190.946 164.894C191.376 165.137 191.861 165.258 192.402 165.258C192.925 165.258 193.401 165.132 193.83 164.88C194.269 164.628 194.614 164.269 194.866 163.802C195.118 163.335 195.244 162.794 195.244 162.178ZM199.428 160.05C199.68 159.518 200.067 159.084 200.59 158.748C201.122 158.412 201.747 158.244 202.466 158.244C203.166 158.244 203.791 158.407 204.342 158.734C204.892 159.051 205.322 159.509 205.63 160.106C205.947 160.694 206.106 161.38 206.106 162.164C206.106 162.948 205.947 163.639 205.63 164.236C205.322 164.833 204.888 165.295 204.328 165.622C203.777 165.949 203.156 166.112 202.466 166.112C201.738 166.112 201.108 165.949 200.576 165.622C200.053 165.286 199.67 164.852 199.428 164.32V166H198.462V155.64H199.428V160.05ZM205.112 162.164C205.112 161.529 204.986 160.983 204.734 160.526C204.491 160.059 204.155 159.705 203.726 159.462C203.296 159.219 202.811 159.098 202.27 159.098C201.747 159.098 201.266 159.224 200.828 159.476C200.398 159.728 200.058 160.087 199.806 160.554C199.554 161.021 199.428 161.562 199.428 162.178C199.428 162.794 199.554 163.335 199.806 163.802C200.058 164.269 200.398 164.628 200.828 164.88C201.266 165.132 201.747 165.258 202.27 165.258C202.811 165.258 203.296 165.137 203.726 164.894C204.155 164.642 204.491 164.283 204.734 163.816C204.986 163.34 205.112 162.789 205.112 162.164ZM208.889 155.64V166H207.909V155.64H208.889ZM218.024 161.786C218.024 162.122 218.015 162.379 217.996 162.556H211.654C211.682 163.135 211.822 163.629 212.074 164.04C212.326 164.451 212.658 164.763 213.068 164.978C213.479 165.183 213.927 165.286 214.412 165.286C215.047 165.286 215.579 165.132 216.008 164.824C216.447 164.516 216.736 164.101 216.876 163.578H217.912C217.726 164.325 217.324 164.936 216.708 165.412C216.102 165.879 215.336 166.112 214.412 166.112C213.694 166.112 213.05 165.953 212.48 165.636C211.911 165.309 211.463 164.852 211.136 164.264C210.819 163.667 210.66 162.971 210.66 162.178C210.66 161.385 210.819 160.689 211.136 160.092C211.454 159.495 211.897 159.037 212.466 158.72C213.036 158.403 213.684 158.244 214.412 158.244C215.14 158.244 215.775 158.403 216.316 158.72C216.867 159.037 217.287 159.467 217.576 160.008C217.875 160.54 218.024 161.133 218.024 161.786ZM217.03 161.758C217.04 161.189 216.923 160.703 216.68 160.302C216.447 159.901 216.125 159.597 215.714 159.392C215.304 159.187 214.856 159.084 214.37 159.084C213.642 159.084 213.022 159.317 212.508 159.784C211.995 160.251 211.71 160.909 211.654 161.758H217.03ZM220.713 164.376L219.257 168.044H218.585L219.621 164.376H220.713ZM226.569 156.914C226.373 156.914 226.205 156.844 226.065 156.704C225.925 156.564 225.855 156.391 225.855 156.186C225.855 155.981 225.925 155.813 226.065 155.682C226.205 155.542 226.373 155.472 226.569 155.472C226.765 155.472 226.933 155.542 227.073 155.682C227.213 155.813 227.283 155.981 227.283 156.186C227.283 156.391 227.213 156.564 227.073 156.704C226.933 156.844 226.765 156.914 226.569 156.914ZM227.059 158.356V166H226.079V158.356H227.059ZM232.862 158.216C233.777 158.216 234.523 158.501 235.102 159.07C235.681 159.63 235.97 160.447 235.97 161.52V166H235.004V161.632C235.004 160.801 234.794 160.167 234.374 159.728C233.963 159.289 233.399 159.07 232.68 159.07C231.943 159.07 231.355 159.303 230.916 159.77C230.477 160.237 230.258 160.923 230.258 161.828V166H229.278V158.356H230.258V159.658C230.501 159.191 230.851 158.837 231.308 158.594C231.765 158.342 232.283 158.216 232.862 158.216ZM240.853 165.048L243.429 158.356H244.465L241.399 166H240.293L237.227 158.356H238.277L240.853 165.048ZM252.71 161.786C252.71 162.122 252.7 162.379 252.682 162.556H246.34C246.368 163.135 246.508 163.629 246.76 164.04C247.012 164.451 247.343 164.763 247.754 164.978C248.164 165.183 248.612 165.286 249.098 165.286C249.732 165.286 250.264 165.132 250.694 164.824C251.132 164.516 251.422 164.101 251.562 163.578H252.598C252.411 164.325 252.01 164.936 251.394 165.412C250.787 165.879 250.022 166.112 249.098 166.112C248.379 166.112 247.735 165.953 247.166 165.636C246.596 165.309 246.148 164.852 245.822 164.264C245.504 163.667 245.346 162.971 245.346 162.178C245.346 161.385 245.504 160.689 245.822 160.092C246.139 159.495 246.582 159.037 247.152 158.72C247.721 158.403 248.37 158.244 249.098 158.244C249.826 158.244 250.46 158.403 251.002 158.72C251.552 159.037 251.972 159.467 252.262 160.008C252.56 160.54 252.71 161.133 252.71 161.786ZM251.716 161.758C251.725 161.189 251.608 160.703 251.366 160.302C251.132 159.901 250.81 159.597 250.4 159.392C249.989 159.187 249.541 159.084 249.056 159.084C248.328 159.084 247.707 159.317 247.194 159.784C246.68 160.251 246.396 160.909 246.34 161.758H251.716ZM258.087 158.216C259.001 158.216 259.748 158.501 260.327 159.07C260.905 159.63 261.195 160.447 261.195 161.52V166H260.229V161.632C260.229 160.801 260.019 160.167 259.599 159.728C259.188 159.289 258.623 159.07 257.905 159.07C257.167 159.07 256.579 159.303 256.141 159.77C255.702 160.237 255.483 160.923 255.483 161.828V166H254.503V158.356H255.483V159.658C255.725 159.191 256.075 158.837 256.533 158.594C256.99 158.342 257.508 158.216 258.087 158.216ZM264.636 159.182V163.928C264.636 164.395 264.725 164.717 264.902 164.894C265.079 165.071 265.392 165.16 265.84 165.16H266.736V166H265.686C264.995 166 264.482 165.841 264.146 165.524C263.81 165.197 263.642 164.665 263.642 163.928V159.182H262.578V158.356H263.642V156.438H264.636V158.356H266.736V159.182H264.636ZM271.698 166.112C270.98 166.112 270.331 165.953 269.752 165.636C269.183 165.309 268.73 164.852 268.394 164.264C268.068 163.667 267.904 162.971 267.904 162.178C267.904 161.385 268.072 160.694 268.408 160.106C268.744 159.509 269.202 159.051 269.78 158.734C270.359 158.407 271.008 158.244 271.726 158.244C272.445 158.244 273.094 158.407 273.672 158.734C274.26 159.051 274.718 159.509 275.044 160.106C275.38 160.694 275.548 161.385 275.548 162.178C275.548 162.962 275.38 163.653 275.044 164.25C274.708 164.847 274.246 165.309 273.658 165.636C273.07 165.953 272.417 166.112 271.698 166.112ZM271.698 165.258C272.202 165.258 272.669 165.146 273.098 164.922C273.528 164.689 273.873 164.343 274.134 163.886C274.405 163.419 274.54 162.85 274.54 162.178C274.54 161.506 274.41 160.941 274.148 160.484C273.887 160.017 273.542 159.672 273.112 159.448C272.683 159.215 272.216 159.098 271.712 159.098C271.208 159.098 270.742 159.215 270.312 159.448C269.883 159.672 269.538 160.017 269.276 160.484C269.024 160.941 268.898 161.506 268.898 162.178C268.898 162.85 269.024 163.419 269.276 163.886C269.538 164.343 269.878 164.689 270.298 164.922C270.728 165.146 271.194 165.258 271.698 165.258ZM278.315 159.714C278.529 159.238 278.856 158.869 279.295 158.608C279.743 158.347 280.289 158.216 280.933 158.216V159.238H280.667C279.957 159.238 279.388 159.429 278.959 159.812C278.529 160.195 278.315 160.834 278.315 161.73V166H277.335V158.356H278.315V159.714ZM288.707 158.356L284.171 169.598H283.149L284.633 165.958L281.497 158.356H282.575L285.179 164.88L287.699 158.356H288.707ZM290.204 166.07C289.999 166.07 289.826 166 289.686 165.86C289.555 165.72 289.49 165.547 289.49 165.342C289.49 165.137 289.555 164.969 289.686 164.838C289.826 164.698 289.999 164.628 290.204 164.628C290.4 164.628 290.563 164.698 290.694 164.838C290.834 164.969 290.904 165.137 290.904 165.342C290.904 165.547 290.834 165.72 290.694 165.86C290.563 166 290.4 166.07 290.204 166.07Z" fill="#575455"/>
<path d="M165.563 80.1L161.443 94H158.863L155.943 83.48L152.843 94L150.283 94.02L146.343 80.1H148.763L151.643 91.42L154.763 80.1H157.323L160.223 91.36L163.123 80.1H165.563ZM173.143 82.8C173.983 82.8 174.73 82.98 175.383 83.34C176.05 83.7 176.57 84.2333 176.943 84.94C177.33 85.6467 177.523 86.5 177.523 87.5V94H175.263V87.84C175.263 86.8533 175.017 86.1 174.523 85.58C174.03 85.0467 173.357 84.78 172.503 84.78C171.65 84.78 170.97 85.0467 170.463 85.58C169.97 86.1 169.723 86.8533 169.723 87.84V94H167.443V79.2H169.723V84.26C170.11 83.7933 170.597 83.4333 171.183 83.18C171.783 82.9267 172.437 82.8 173.143 82.8ZM179.672 88.44C179.672 87.3333 179.898 86.3533 180.352 85.5C180.818 84.6467 181.445 83.9867 182.232 83.52C183.032 83.04 183.912 82.8 184.872 82.8C185.738 82.8 186.492 82.9733 187.132 83.32C187.785 83.6533 188.305 84.0733 188.692 84.58V82.98H190.992V94H188.692V92.36C188.305 92.88 187.778 93.3133 187.112 93.66C186.445 94.0067 185.685 94.18 184.832 94.18C183.885 94.18 183.018 93.94 182.232 93.46C181.445 92.9667 180.818 92.2867 180.352 91.42C179.898 90.54 179.672 89.5467 179.672 88.44ZM188.692 88.48C188.692 87.72 188.532 87.06 188.212 86.5C187.905 85.94 187.498 85.5133 186.992 85.22C186.485 84.9267 185.938 84.78 185.352 84.78C184.765 84.78 184.218 84.9267 183.712 85.22C183.205 85.5 182.792 85.92 182.472 86.48C182.165 87.0267 182.012 87.68 182.012 88.44C182.012 89.2 182.165 89.8667 182.472 90.44C182.792 91.0133 183.205 91.4533 183.712 91.76C184.232 92.0533 184.778 92.2 185.352 92.2C185.938 92.2 186.485 92.0533 186.992 91.76C187.498 91.4667 187.905 91.04 188.212 90.48C188.532 89.9067 188.692 89.24 188.692 88.48ZM196.646 84.84V90.94C196.646 91.3533 196.74 91.6533 196.926 91.84C197.126 92.0133 197.46 92.1 197.926 92.1H199.326V94H197.526C196.5 94 195.713 93.76 195.166 93.28C194.62 92.8 194.346 92.02 194.346 90.94V84.84H193.046V82.98H194.346V80.24H196.646V82.98H199.326V84.84H196.646ZM207.783 81.52C207.37 81.52 207.023 81.38 206.743 81.1C206.463 80.82 206.323 80.4733 206.323 80.06C206.323 79.6467 206.463 79.3 206.743 79.02C207.023 78.74 207.37 78.6 207.783 78.6C208.183 78.6 208.523 78.74 208.803 79.02C209.083 79.3 209.223 79.6467 209.223 80.06C209.223 80.4733 209.083 80.82 208.803 81.1C208.523 81.38 208.183 81.52 207.783 81.52ZM208.903 82.98V94H206.623V82.98H208.903ZM215.896 94.18C215.03 94.18 214.25 94.0267 213.556 93.72C212.876 93.4 212.336 92.9733 211.936 92.44C211.536 91.8933 211.323 91.2867 211.296 90.62H213.656C213.696 91.0867 213.916 91.48 214.316 91.8C214.73 92.1067 215.243 92.26 215.856 92.26C216.496 92.26 216.99 92.14 217.336 91.9C217.696 91.6467 217.876 91.3267 217.876 90.94C217.876 90.5267 217.676 90.22 217.276 90.02C216.89 89.82 216.27 89.6 215.416 89.36C214.59 89.1333 213.916 88.9133 213.396 88.7C212.876 88.4867 212.423 88.16 212.036 87.72C211.663 87.28 211.476 86.7 211.476 85.98C211.476 85.3933 211.65 84.86 211.996 84.38C212.343 83.8867 212.836 83.5 213.476 83.22C214.13 82.94 214.876 82.8 215.716 82.8C216.97 82.8 217.976 83.12 218.736 83.76C219.51 84.3867 219.923 85.2467 219.976 86.34H217.696C217.656 85.8467 217.456 85.4533 217.096 85.16C216.736 84.8667 216.25 84.72 215.636 84.72C215.036 84.72 214.576 84.8333 214.256 85.06C213.936 85.2867 213.776 85.5867 213.776 85.96C213.776 86.2533 213.883 86.5 214.096 86.7C214.31 86.9 214.57 87.06 214.876 87.18C215.183 87.2867 215.636 87.4267 216.236 87.6C217.036 87.8133 217.69 88.0333 218.196 88.26C218.716 88.4733 219.163 88.7933 219.536 89.22C219.91 89.6467 220.103 90.2133 220.116 90.92C220.116 91.5467 219.943 92.1067 219.596 92.6C219.25 93.0933 218.756 93.48 218.116 93.76C217.49 94.04 216.75 94.18 215.896 94.18ZM234.995 94L231.795 88.44H230.055V94H227.775V80.1H232.575C233.642 80.1 234.542 80.2867 235.275 80.66C236.022 81.0333 236.575 81.5333 236.935 82.16C237.309 82.7867 237.495 83.4867 237.495 84.26C237.495 85.1667 237.229 85.9933 236.695 86.74C236.175 87.4733 235.369 87.9733 234.275 88.24L237.715 94H234.995ZM230.055 86.62H232.575C233.429 86.62 234.069 86.4067 234.495 85.98C234.935 85.5533 235.155 84.98 235.155 84.26C235.155 83.54 234.942 82.98 234.515 82.58C234.089 82.1667 233.442 81.96 232.575 81.96H230.055V86.62ZM250.512 88.22C250.512 88.6333 250.485 89.0067 250.432 89.34H242.012C242.079 90.22 242.405 90.9267 242.992 91.46C243.579 91.9933 244.299 92.26 245.152 92.26C246.379 92.26 247.245 91.7467 247.752 90.72H250.212C249.879 91.7333 249.272 92.5667 248.392 93.22C247.525 93.86 246.445 94.18 245.152 94.18C244.099 94.18 243.152 93.9467 242.312 93.48C241.485 93 240.832 92.3333 240.352 91.48C239.885 90.6133 239.652 89.6133 239.652 88.48C239.652 87.3467 239.879 86.3533 240.332 85.5C240.799 84.6333 241.445 83.9667 242.272 83.5C243.112 83.0333 244.072 82.8 245.152 82.8C246.192 82.8 247.119 83.0267 247.932 83.48C248.745 83.9333 249.379 84.5733 249.832 85.4C250.285 86.2133 250.512 87.1533 250.512 88.22ZM248.132 87.5C248.119 86.66 247.819 85.9867 247.232 85.48C246.645 84.9733 245.919 84.72 245.052 84.72C244.265 84.72 243.592 84.9733 243.032 85.48C242.472 85.9733 242.139 86.6467 242.032 87.5H248.132ZM255.416 84.84V90.94C255.416 91.3533 255.509 91.6533 255.696 91.84C255.896 92.0133 256.229 92.1 256.696 92.1H258.096V94H256.296C255.269 94 254.482 93.76 253.936 93.28C253.389 92.8 253.116 92.02 253.116 90.94V84.84H251.816V82.98H253.116V80.24H255.416V82.98H258.096V84.84H255.416ZM261.357 81.52C260.944 81.52 260.597 81.38 260.317 81.1C260.037 80.82 259.897 80.4733 259.897 80.06C259.897 79.6467 260.037 79.3 260.317 79.02C260.597 78.74 260.944 78.6 261.357 78.6C261.757 78.6 262.097 78.74 262.377 79.02C262.657 79.3 262.797 79.6467 262.797 80.06C262.797 80.4733 262.657 80.82 262.377 81.1C262.097 81.38 261.757 81.52 261.357 81.52ZM262.477 82.98V94H260.197V82.98H262.477ZM267.751 84.58C268.084 84.02 268.524 83.5867 269.071 83.28C269.631 82.96 270.291 82.8 271.051 82.8V85.16H270.471C269.577 85.16 268.897 85.3867 268.431 85.84C267.977 86.2933 267.751 87.08 267.751 88.2V94H265.471V82.98H267.751V84.58ZM283.246 88.22C283.246 88.6333 283.22 89.0067 283.166 89.34H274.746C274.813 90.22 275.14 90.9267 275.726 91.46C276.313 91.9933 277.033 92.26 277.886 92.26C279.113 92.26 279.98 91.7467 280.486 90.72H282.946C282.613 91.7333 282.006 92.5667 281.126 93.22C280.26 93.86 279.18 94.18 277.886 94.18C276.833 94.18 275.886 93.9467 275.046 93.48C274.22 93 273.566 92.3333 273.086 91.48C272.62 90.6133 272.386 89.6133 272.386 88.48C272.386 87.3467 272.613 86.3533 273.066 85.5C273.533 84.6333 274.18 83.9667 275.006 83.5C275.846 83.0333 276.806 82.8 277.886 82.8C278.926 82.8 279.853 83.0267 280.666 83.48C281.48 83.9333 282.113 84.5733 282.566 85.4C283.02 86.2133 283.246 87.1533 283.246 88.22ZM280.866 87.5C280.853 86.66 280.553 85.9867 279.966 85.48C279.38 84.9733 278.653 84.72 277.786 84.72C277 84.72 276.326 84.9733 275.766 85.48C275.206 85.9733 274.873 86.6467 274.766 87.5H280.866ZM298.83 82.8C299.697 82.8 300.47 82.98 301.15 83.34C301.843 83.7 302.383 84.2333 302.77 84.94C303.17 85.6467 303.37 86.5 303.37 87.5V94H301.11V87.84C301.11 86.8533 300.863 86.1 300.37 85.58C299.877 85.0467 299.203 84.78 298.35 84.78C297.497 84.78 296.817 85.0467 296.31 85.58C295.817 86.1 295.57 86.8533 295.57 87.84V94H293.31V87.84C293.31 86.8533 293.063 86.1 292.57 85.58C292.077 85.0467 291.403 84.78 290.55 84.78C289.697 84.78 289.017 85.0467 288.51 85.58C288.017 86.1 287.77 86.8533 287.77 87.84V94H285.49V82.98H287.77V84.24C288.143 83.7867 288.617 83.4333 289.19 83.18C289.763 82.9267 290.377 82.8 291.03 82.8C291.91 82.8 292.697 82.9867 293.39 83.36C294.083 83.7333 294.617 84.2733 294.99 84.98C295.323 84.3133 295.843 83.7867 296.55 83.4C297.257 83 298.017 82.8 298.83 82.8ZM316.371 88.22C316.371 88.6333 316.345 89.0067 316.291 89.34H307.871C307.938 90.22 308.265 90.9267 308.851 91.46C309.438 91.9933 310.158 92.26 311.011 92.26C312.238 92.26 313.105 91.7467 313.611 90.72H316.071C315.738 91.7333 315.131 92.5667 314.251 93.22C313.385 93.86 312.305 94.18 311.011 94.18C309.958 94.18 309.011 93.9467 308.171 93.48C307.345 93 306.691 92.3333 306.211 91.48C305.745 90.6133 305.511 89.6133 305.511 88.48C305.511 87.3467 305.738 86.3533 306.191 85.5C306.658 84.6333 307.305 83.9667 308.131 83.5C308.971 83.0333 309.931 82.8 311.011 82.8C312.051 82.8 312.978 83.0267 313.791 83.48C314.605 83.9333 315.238 84.5733 315.691 85.4C316.145 86.2133 316.371 87.1533 316.371 88.22ZM313.991 87.5C313.978 86.66 313.678 85.9867 313.091 85.48C312.505 84.9733 311.778 84.72 310.911 84.72C310.125 84.72 309.451 84.9733 308.891 85.48C308.331 85.9733 307.998 86.6467 307.891 87.5H313.991ZM324.175 82.8C325.042 82.8 325.815 82.98 326.495 83.34C327.188 83.7 327.728 84.2333 328.115 84.94C328.502 85.6467 328.695 86.5 328.695 87.5V94H326.435V87.84C326.435 86.8533 326.188 86.1 325.695 85.58C325.202 85.0467 324.528 84.78 323.675 84.78C322.822 84.78 322.142 85.0467 321.635 85.58C321.142 86.1 320.895 86.8533 320.895 87.84V94H318.615V82.98H320.895V84.24C321.268 83.7867 321.742 83.4333 322.315 83.18C322.902 82.9267 323.522 82.8 324.175 82.8ZM334.263 84.84V90.94C334.263 91.3533 334.357 91.6533 334.543 91.84C334.743 92.0133 335.077 92.1 335.543 92.1H336.943V94H335.143C334.117 94 333.33 93.76 332.783 93.28C332.237 92.8 331.963 92.02 331.963 90.94V84.84H330.663V82.98H331.963V80.24H334.263V82.98H336.943V84.84H334.263ZM157.183 110.24C157.183 110.947 157.016 111.613 156.683 112.24C156.349 112.867 155.816 113.38 155.083 113.78C154.349 114.167 153.409 114.36 152.263 114.36H149.743V120H147.463V106.1H152.263C153.329 106.1 154.229 106.287 154.963 106.66C155.709 107.02 156.263 107.513 156.623 108.14C156.996 108.767 157.183 109.467 157.183 110.24ZM152.263 112.5C153.129 112.5 153.776 112.307 154.203 111.92C154.629 111.52 154.843 110.96 154.843 110.24C154.843 108.72 153.983 107.96 152.263 107.96H149.743V112.5H152.263ZM161.637 105.2V120H159.357V105.2H161.637ZM163.871 114.44C163.871 113.333 164.097 112.353 164.551 111.5C165.017 110.647 165.644 109.987 166.431 109.52C167.231 109.04 168.111 108.8 169.071 108.8C169.937 108.8 170.691 108.973 171.331 109.32C171.984 109.653 172.504 110.073 172.891 110.58V108.98H175.191V120H172.891V118.36C172.504 118.88 171.977 119.313 171.311 119.66C170.644 120.007 169.884 120.18 169.031 120.18C168.084 120.18 167.217 119.94 166.431 119.46C165.644 118.967 165.017 118.287 164.551 117.42C164.097 116.54 163.871 115.547 163.871 114.44ZM172.891 114.48C172.891 113.72 172.731 113.06 172.411 112.5C172.104 111.94 171.697 111.513 171.191 111.22C170.684 110.927 170.137 110.78 169.551 110.78C168.964 110.78 168.417 110.927 167.911 111.22C167.404 111.5 166.991 111.92 166.671 112.48C166.364 113.027 166.211 113.68 166.211 114.44C166.211 115.2 166.364 115.867 166.671 116.44C166.991 117.013 167.404 117.453 167.911 117.76C168.431 118.053 168.977 118.2 169.551 118.2C170.137 118.2 170.684 118.053 171.191 117.76C171.697 117.467 172.104 117.04 172.411 116.48C172.731 115.907 172.891 115.24 172.891 114.48ZM183.745 108.8C184.612 108.8 185.385 108.98 186.065 109.34C186.759 109.7 187.299 110.233 187.685 110.94C188.072 111.647 188.265 112.5 188.265 113.5V120H186.005V113.84C186.005 112.853 185.759 112.1 185.265 111.58C184.772 111.047 184.099 110.78 183.245 110.78C182.392 110.78 181.712 111.047 181.205 111.58C180.712 112.1 180.465 112.853 180.465 113.84V120H178.185V108.98H180.465V110.24C180.839 109.787 181.312 109.433 181.885 109.18C182.472 108.927 183.092 108.8 183.745 108.8ZM196.734 108.8C197.6 108.8 198.374 108.98 199.054 109.34C199.747 109.7 200.287 110.233 200.674 110.94C201.06 111.647 201.254 112.5 201.254 113.5V120H198.994V113.84C198.994 112.853 198.747 112.1 198.254 111.58C197.76 111.047 197.087 110.78 196.234 110.78C195.38 110.78 194.7 111.047 194.194 111.58C193.7 112.1 193.454 112.853 193.454 113.84V120H191.174V108.98H193.454V110.24C193.827 109.787 194.3 109.433 194.874 109.18C195.46 108.927 196.08 108.8 196.734 108.8ZM205.322 107.52C204.909 107.52 204.562 107.38 204.282 107.1C204.002 106.82 203.862 106.473 203.862 106.06C203.862 105.647 204.002 105.3 204.282 105.02C204.562 104.74 204.909 104.6 205.322 104.6C205.722 104.6 206.062 104.74 206.342 105.02C206.622 105.3 206.762 105.647 206.762 106.06C206.762 106.473 206.622 106.82 206.342 107.1C206.062 107.38 205.722 107.52 205.322 107.52ZM206.442 108.98V120H204.162V108.98H206.442ZM214.995 108.8C215.862 108.8 216.635 108.98 217.315 109.34C218.009 109.7 218.549 110.233 218.935 110.94C219.322 111.647 219.515 112.5 219.515 113.5V120H217.255V113.84C217.255 112.853 217.009 112.1 216.515 111.58C216.022 111.047 215.349 110.78 214.495 110.78C213.642 110.78 212.962 111.047 212.455 111.58C211.962 112.1 211.715 112.853 211.715 113.84V120H209.435V108.98H211.715V110.24C212.089 109.787 212.562 109.433 213.135 109.18C213.722 108.927 214.342 108.8 214.995 108.8ZM226.864 108.8C227.717 108.8 228.47 108.973 229.124 109.32C229.79 109.653 230.31 110.073 230.684 110.58V108.98H232.984V120.18C232.984 121.193 232.77 122.093 232.344 122.88C231.917 123.68 231.297 124.307 230.484 124.76C229.684 125.213 228.724 125.44 227.604 125.44C226.11 125.44 224.87 125.087 223.884 124.38C222.897 123.687 222.337 122.74 222.204 121.54H224.464C224.637 122.113 225.004 122.573 225.564 122.92C226.137 123.28 226.817 123.46 227.604 123.46C228.524 123.46 229.264 123.18 229.824 122.62C230.397 122.06 230.684 121.247 230.684 120.18V118.34C230.297 118.86 229.77 119.3 229.104 119.66C228.45 120.007 227.704 120.18 226.864 120.18C225.904 120.18 225.024 119.94 224.224 119.46C223.437 118.967 222.81 118.287 222.344 117.42C221.89 116.54 221.664 115.547 221.664 114.44C221.664 113.333 221.89 112.353 222.344 111.5C222.81 110.647 223.437 109.987 224.224 109.52C225.024 109.04 225.904 108.8 226.864 108.8ZM230.684 114.48C230.684 113.72 230.524 113.06 230.204 112.5C229.897 111.94 229.49 111.513 228.984 111.22C228.477 110.927 227.93 110.78 227.344 110.78C226.757 110.78 226.21 110.927 225.704 111.22C225.197 111.5 224.784 111.92 224.464 112.48C224.157 113.027 224.004 113.68 224.004 114.44C224.004 115.2 224.157 115.867 224.464 116.44C224.784 117.013 225.197 117.453 225.704 117.76C226.224 118.053 226.77 118.2 227.344 118.2C227.93 118.2 228.477 118.053 228.984 117.76C229.49 117.467 229.897 117.04 230.204 116.48C230.524 115.907 230.684 115.24 230.684 114.48ZM239.718 105.9C241.078 105.9 242.165 106.273 242.978 107.02C243.805 107.767 244.218 108.787 244.218 110.08C244.218 111.427 243.792 112.44 242.938 113.12C242.085 113.8 240.952 114.14 239.538 114.14L239.458 115.72H237.478L237.378 112.58H238.038C239.332 112.58 240.318 112.407 240.998 112.06C241.692 111.713 242.038 111.053 242.038 110.08C242.038 109.373 241.832 108.82 241.418 108.42C241.018 108.02 240.458 107.82 239.738 107.82C239.018 107.82 238.452 108.013 238.038 108.4C237.625 108.787 237.418 109.327 237.418 110.02H235.278C235.278 109.22 235.458 108.507 235.818 107.88C236.178 107.253 236.692 106.767 237.358 106.42C238.038 106.073 238.825 105.9 239.718 105.9ZM238.438 120.14C238.025 120.14 237.678 120 237.398 119.72C237.118 119.44 236.978 119.093 236.978 118.68C236.978 118.267 237.118 117.92 237.398 117.64C237.678 117.36 238.025 117.22 238.438 117.22C238.838 117.22 239.178 117.36 239.458 117.64C239.738 117.92 239.878 118.267 239.878 118.68C239.878 119.093 239.738 119.44 239.458 119.72C239.178 120 238.838 120.14 238.438 120.14Z" fill="#524633"/>
</g>
<defs>
<filter id="filter0_d_26_179" x="0.610046" y="0" width="415.353" height="244" filterUnits="userSpaceOnUse" color-interpolation-filters="sRGB">
<feFlood flood-opacity="0" result="BackgroundImageFix"/>
<feColorMatrix in="SourceAlpha" type="matrix" values="0 0 0 0 0 0 0 0 0 0 0 0 0 0 0 0 0 0 127 0" result="hardAlpha"/>
<feOffset dy="4"/>
<feGaussianBlur stdDeviation="22"/>
<feComposite in2="hardAlpha" operator="out"/>
<feColorMatrix type="matrix" values="0 0 0 0 0 0 0 0 0 0 0 0 0 0 0 0 0 0 0.07 0"/>
<feBlend mode="normal" in2="BackgroundImageFix" result="effect1_dropShadow_26_179"/>
<feBlend mode="normal" in="SourceGraphic" in2="effect1_dropShadow_26_179" result="shape"/>
</filter>
<filter id="filter1_b_26_179" x="-51.0372" y="-60" width="523" height="356" filterUnits="userSpaceOnUse" color-interpolation-filters="sRGB">
<feFlood flood-opacity="0" result="BackgroundImageFix"/>
<feGaussianBlur in="BackgroundImageFix" stdDeviation="50"/>
<feComposite in2="SourceAlpha" operator="in" result="effect1_backgroundBlur_26_179"/>
<feBlend mode="normal" in="SourceGraphic" in2="effect1_backgroundBlur_26_179" result="shape"/>
</filter>
<radialGradient id="paint0_diamond_26_179" cx="0" cy="0" r="1" gradientUnits="userSpaceOnUse" gradientTransform="translate(119.936 166.17) rotate(-139.228) scale(151.88 56.9918)">
<stop stop-color="#7C5224"/>
<stop offset="1" stop-color="#7C5224" stop-opacity="0"/>
</radialGradient>
</defs>
</svg>
