<svg width="372" height="319" viewBox="0 0 372 319" fill="none" xmlns="http://www.w3.org/2000/svg">
<g filter="url(#filter0_d_26_129)">
<g filter="url(#filter1_b_26_129)">
<rect x="44" y="40" width="284" height="231" rx="30" fill="white" fill-opacity="0.5"/>
</g>
<circle cx="99" cy="95" r="25" fill="#A67F28"/>
<rect x="87" y="87" width="24" height="16" rx="2" stroke="white"/>
<path d="M89.6666 91H93.6666" stroke="white" stroke-linecap="round"/>
<path d="M104.333 99H108.333" stroke="white" stroke-linecap="round"/>
<circle cx="99" cy="94.9997" r="2.66667" stroke="white"/>
<path d="M80.08 156.14C79.1467 156.14 78.3067 155.98 77.56 155.66C76.8133 155.327 76.2267 154.86 75.8 154.26C75.3733 153.66 75.16 152.96 75.16 152.16H77.6C77.6533 152.76 77.8867 153.253 78.3 153.64C78.7267 154.027 79.32 154.22 80.08 154.22C80.8667 154.22 81.48 154.033 81.92 153.66C82.36 153.273 82.58 152.78 82.58 152.18C82.58 151.713 82.44 151.333 82.16 151.04C81.8933 150.747 81.5533 150.52 81.14 150.36C80.74 150.2 80.18 150.027 79.46 149.84C78.5533 149.6 77.8133 149.36 77.24 149.12C76.68 148.867 76.2 148.48 75.8 147.96C75.4 147.44 75.2 146.747 75.2 145.88C75.2 145.08 75.4 144.38 75.8 143.78C76.2 143.18 76.76 142.72 77.48 142.4C78.2 142.08 79.0333 141.92 79.98 141.92C81.3267 141.92 82.4267 142.26 83.28 142.94C84.1467 143.607 84.6267 144.527 84.72 145.7H82.2C82.16 145.193 81.92 144.76 81.48 144.4C81.04 144.04 80.46 143.86 79.74 143.86C79.0867 143.86 78.5533 144.027 78.14 144.36C77.7267 144.693 77.52 145.173 77.52 145.8C77.52 146.227 77.6467 146.58 77.9 146.86C78.1667 147.127 78.5 147.34 78.9 147.5C79.3 147.66 79.8467 147.833 80.54 148.02C81.46 148.273 82.2067 148.527 82.78 148.78C83.3667 149.033 83.86 149.427 84.26 149.96C84.6733 150.48 84.88 151.18 84.88 152.06C84.88 152.767 84.6867 153.433 84.3 154.06C83.9267 154.687 83.3733 155.193 82.64 155.58C81.92 155.953 81.0667 156.14 80.08 156.14ZM86.8103 150.44C86.8103 149.333 87.037 148.353 87.4903 147.5C87.957 146.647 88.5836 145.987 89.3703 145.52C90.1703 145.04 91.0503 144.8 92.0103 144.8C92.877 144.8 93.6303 144.973 94.2703 145.32C94.9236 145.653 95.4436 146.073 95.8303 146.58V144.98H98.1303V156H95.8303V154.36C95.4436 154.88 94.917 155.313 94.2503 155.66C93.5836 156.007 92.8236 156.18 91.9703 156.18C91.0236 156.18 90.157 155.94 89.3703 155.46C88.5836 154.967 87.957 154.287 87.4903 153.42C87.037 152.54 86.8103 151.547 86.8103 150.44ZM95.8303 150.48C95.8303 149.72 95.6703 149.06 95.3503 148.5C95.0436 147.94 94.637 147.513 94.1303 147.22C93.6236 146.927 93.077 146.78 92.4903 146.78C91.9036 146.78 91.357 146.927 90.8503 147.22C90.3436 147.5 89.9303 147.92 89.6103 148.48C89.3036 149.027 89.1503 149.68 89.1503 150.44C89.1503 151.2 89.3036 151.867 89.6103 152.44C89.9303 153.013 90.3436 153.453 90.8503 153.76C91.3703 154.053 91.917 154.2 92.4903 154.2C93.077 154.2 93.6236 154.053 94.1303 153.76C94.637 153.467 95.0436 153.04 95.3503 152.48C95.6703 151.907 95.8303 151.24 95.8303 150.48ZM105.385 153.96L108.505 144.98H110.925L106.725 156H104.005L99.825 144.98H102.265L105.385 153.96ZM113.808 143.52C113.395 143.52 113.048 143.38 112.768 143.1C112.488 142.82 112.348 142.473 112.348 142.06C112.348 141.647 112.488 141.3 112.768 141.02C113.048 140.74 113.395 140.6 113.808 140.6C114.208 140.6 114.548 140.74 114.828 141.02C115.108 141.3 115.248 141.647 115.248 142.06C115.248 142.473 115.108 142.82 114.828 143.1C114.548 143.38 114.208 143.52 113.808 143.52ZM114.928 144.98V156H112.648V144.98H114.928ZM123.482 144.8C124.349 144.8 125.122 144.98 125.802 145.34C126.495 145.7 127.035 146.233 127.422 146.94C127.809 147.647 128.002 148.5 128.002 149.5V156H125.742V149.84C125.742 148.853 125.495 148.1 125.002 147.58C124.509 147.047 123.835 146.78 122.982 146.78C122.129 146.78 121.449 147.047 120.942 147.58C120.449 148.1 120.202 148.853 120.202 149.84V156H117.922V144.98H120.202V146.24C120.575 145.787 121.049 145.433 121.622 145.18C122.209 144.927 122.829 144.8 123.482 144.8ZM135.35 144.8C136.203 144.8 136.957 144.973 137.61 145.32C138.277 145.653 138.797 146.073 139.17 146.58V144.98H141.47V156.18C141.47 157.193 141.257 158.093 140.83 158.88C140.403 159.68 139.783 160.307 138.97 160.76C138.17 161.213 137.21 161.44 136.09 161.44C134.597 161.44 133.357 161.087 132.37 160.38C131.383 159.687 130.823 158.74 130.69 157.54H132.95C133.123 158.113 133.49 158.573 134.05 158.92C134.623 159.28 135.303 159.46 136.09 159.46C137.01 159.46 137.75 159.18 138.31 158.62C138.883 158.06 139.17 157.247 139.17 156.18V154.34C138.783 154.86 138.257 155.3 137.59 155.66C136.937 156.007 136.19 156.18 135.35 156.18C134.39 156.18 133.51 155.94 132.71 155.46C131.923 154.967 131.297 154.287 130.83 153.42C130.377 152.54 130.15 151.547 130.15 150.44C130.15 149.333 130.377 148.353 130.83 147.5C131.297 146.647 131.923 145.987 132.71 145.52C133.51 145.04 134.39 144.8 135.35 144.8ZM139.17 150.48C139.17 149.72 139.01 149.06 138.69 148.5C138.383 147.94 137.977 147.513 137.47 147.22C136.963 146.927 136.417 146.78 135.83 146.78C135.243 146.78 134.697 146.927 134.19 147.22C133.683 147.5 133.27 147.92 132.95 148.48C132.643 149.027 132.49 149.68 132.49 150.44C132.49 151.2 132.643 151.867 132.95 152.44C133.27 153.013 133.683 153.453 134.19 153.76C134.71 154.053 135.257 154.2 135.83 154.2C136.417 154.2 136.963 154.053 137.47 153.76C137.977 153.467 138.383 153.04 138.69 152.48C139.01 151.907 139.17 151.24 139.17 150.48ZM148.465 156.18C147.598 156.18 146.818 156.027 146.125 155.72C145.445 155.4 144.905 154.973 144.505 154.44C144.105 153.893 143.892 153.287 143.865 152.62H146.225C146.265 153.087 146.485 153.48 146.885 153.8C147.298 154.107 147.812 154.26 148.425 154.26C149.065 154.26 149.558 154.14 149.905 153.9C150.265 153.647 150.445 153.327 150.445 152.94C150.445 152.527 150.245 152.22 149.845 152.02C149.458 151.82 148.838 151.6 147.985 151.36C147.158 151.133 146.485 150.913 145.965 150.7C145.445 150.487 144.992 150.16 144.605 149.72C144.232 149.28 144.045 148.7 144.045 147.98C144.045 147.393 144.218 146.86 144.565 146.38C144.912 145.887 145.405 145.5 146.045 145.22C146.698 144.94 147.445 144.8 148.285 144.8C149.538 144.8 150.545 145.12 151.305 145.76C152.078 146.387 152.492 147.247 152.545 148.34H150.265C150.225 147.847 150.025 147.453 149.665 147.16C149.305 146.867 148.818 146.72 148.205 146.72C147.605 146.72 147.145 146.833 146.825 147.06C146.505 147.287 146.345 147.587 146.345 147.96C146.345 148.253 146.452 148.5 146.665 148.7C146.878 148.9 147.138 149.06 147.445 149.18C147.752 149.287 148.205 149.427 148.805 149.6C149.605 149.813 150.258 150.033 150.765 150.26C151.285 150.473 151.732 150.793 152.105 151.22C152.478 151.647 152.672 152.213 152.685 152.92C152.685 153.547 152.512 154.107 152.165 154.6C151.818 155.093 151.325 155.48 150.685 155.76C150.058 156.04 149.318 156.18 148.465 156.18ZM159.584 150.44C159.584 149.333 159.81 148.353 160.264 147.5C160.73 146.647 161.357 145.987 162.144 145.52C162.944 145.04 163.824 144.8 164.784 144.8C165.65 144.8 166.404 144.973 167.044 145.32C167.697 145.653 168.217 146.073 168.604 146.58V144.98H170.904V156H168.604V154.36C168.217 154.88 167.69 155.313 167.024 155.66C166.357 156.007 165.597 156.18 164.744 156.18C163.797 156.18 162.93 155.94 162.144 155.46C161.357 154.967 160.73 154.287 160.264 153.42C159.81 152.54 159.584 151.547 159.584 150.44ZM168.604 150.48C168.604 149.72 168.444 149.06 168.124 148.5C167.817 147.94 167.41 147.513 166.904 147.22C166.397 146.927 165.85 146.78 165.264 146.78C164.677 146.78 164.13 146.927 163.624 147.22C163.117 147.5 162.704 147.92 162.384 148.48C162.077 149.027 161.924 149.68 161.924 150.44C161.924 151.2 162.077 151.867 162.384 152.44C162.704 153.013 163.117 153.453 163.624 153.76C164.144 154.053 164.69 154.2 165.264 154.2C165.85 154.2 166.397 154.053 166.904 153.76C167.41 153.467 167.817 153.04 168.124 152.48C168.444 151.907 168.604 151.24 168.604 150.48ZM179.458 144.8C180.325 144.8 181.098 144.98 181.778 145.34C182.472 145.7 183.012 146.233 183.398 146.94C183.785 147.647 183.978 148.5 183.978 149.5V156H181.718V149.84C181.718 148.853 181.472 148.1 180.978 147.58C180.485 147.047 179.812 146.78 178.958 146.78C178.105 146.78 177.425 147.047 176.918 147.58C176.425 148.1 176.178 148.853 176.178 149.84V156H173.898V144.98H176.178V146.24C176.552 145.787 177.025 145.433 177.598 145.18C178.185 144.927 178.805 144.8 179.458 144.8ZM186.127 150.44C186.127 149.333 186.353 148.353 186.807 147.5C187.273 146.647 187.9 145.987 188.687 145.52C189.487 145.04 190.373 144.8 191.347 144.8C192.067 144.8 192.773 144.96 193.467 145.28C194.173 145.587 194.733 146 195.147 146.52V141.2H197.447V156H195.147V154.34C194.773 154.873 194.253 155.313 193.587 155.66C192.933 156.007 192.18 156.18 191.327 156.18C190.367 156.18 189.487 155.94 188.687 155.46C187.9 154.967 187.273 154.287 186.807 153.42C186.353 152.54 186.127 151.547 186.127 150.44ZM195.147 150.48C195.147 149.72 194.987 149.06 194.667 148.5C194.36 147.94 193.953 147.513 193.447 147.22C192.94 146.927 192.393 146.78 191.807 146.78C191.22 146.78 190.673 146.927 190.167 147.22C189.66 147.5 189.247 147.92 188.927 148.48C188.62 149.027 188.467 149.68 188.467 150.44C188.467 151.2 188.62 151.867 188.927 152.44C189.247 153.013 189.66 153.453 190.167 153.76C190.687 154.053 191.233 154.2 191.807 154.2C192.393 154.2 192.94 154.053 193.447 153.76C193.953 153.467 194.36 153.04 194.667 152.48C194.987 151.907 195.147 151.24 195.147 150.48ZM77.78 168.1V182H75.5V168.1H77.78ZM86.3334 170.8C87.2001 170.8 87.9734 170.98 88.6534 171.34C89.3468 171.7 89.8868 172.233 90.2734 172.94C90.6601 173.647 90.8534 174.5 90.8534 175.5V182H88.5934V175.84C88.5934 174.853 88.3468 174.1 87.8534 173.58C87.3601 173.047 86.6868 172.78 85.8334 172.78C84.9801 172.78 84.3001 173.047 83.7934 173.58C83.3001 174.1 83.0534 174.853 83.0534 175.84V182H80.7734V170.98H83.0534V172.24C83.4268 171.787 83.9001 171.433 84.4734 171.18C85.0601 170.927 85.6801 170.8 86.3334 170.8ZM98.0217 179.96L101.142 170.98H103.562L99.3617 182H96.6417L92.4617 170.98H94.9017L98.0217 179.96ZM115.385 176.22C115.385 176.633 115.358 177.007 115.305 177.34H106.885C106.952 178.22 107.278 178.927 107.865 179.46C108.452 179.993 109.172 180.26 110.025 180.26C111.252 180.26 112.118 179.747 112.625 178.72H115.085C114.752 179.733 114.145 180.567 113.265 181.22C112.398 181.86 111.318 182.18 110.025 182.18C108.972 182.18 108.025 181.947 107.185 181.48C106.358 181 105.705 180.333 105.225 179.48C104.758 178.613 104.525 177.613 104.525 176.48C104.525 175.347 104.752 174.353 105.205 173.5C105.672 172.633 106.318 171.967 107.145 171.5C107.985 171.033 108.945 170.8 110.025 170.8C111.065 170.8 111.992 171.027 112.805 171.48C113.618 171.933 114.252 172.573 114.705 173.4C115.158 174.213 115.385 175.153 115.385 176.22ZM113.005 175.5C112.992 174.66 112.692 173.987 112.105 173.48C111.518 172.973 110.792 172.72 109.925 172.72C109.138 172.72 108.465 172.973 107.905 173.48C107.345 173.973 107.012 174.647 106.905 175.5H113.005ZM121.629 182.18C120.762 182.18 119.982 182.027 119.289 181.72C118.609 181.4 118.069 180.973 117.669 180.44C117.269 179.893 117.056 179.287 117.029 178.62H119.389C119.429 179.087 119.649 179.48 120.049 179.8C120.462 180.107 120.976 180.26 121.589 180.26C122.229 180.26 122.722 180.14 123.069 179.9C123.429 179.647 123.609 179.327 123.609 178.94C123.609 178.527 123.409 178.22 123.009 178.02C122.622 177.82 122.002 177.6 121.149 177.36C120.322 177.133 119.649 176.913 119.129 176.7C118.609 176.487 118.156 176.16 117.769 175.72C117.396 175.28 117.209 174.7 117.209 173.98C117.209 173.393 117.382 172.86 117.729 172.38C118.076 171.887 118.569 171.5 119.209 171.22C119.862 170.94 120.609 170.8 121.449 170.8C122.702 170.8 123.709 171.12 124.469 171.76C125.242 172.387 125.656 173.247 125.709 174.34H123.429C123.389 173.847 123.189 173.453 122.829 173.16C122.469 172.867 121.982 172.72 121.369 172.72C120.769 172.72 120.309 172.833 119.989 173.06C119.669 173.287 119.509 173.587 119.509 173.96C119.509 174.253 119.616 174.5 119.829 174.7C120.042 174.9 120.302 175.06 120.609 175.18C120.916 175.287 121.369 175.427 121.969 175.6C122.769 175.813 123.422 176.033 123.929 176.26C124.449 176.473 124.896 176.793 125.269 177.22C125.642 177.647 125.836 178.213 125.849 178.92C125.849 179.547 125.676 180.107 125.329 180.6C124.982 181.093 124.489 181.48 123.849 181.76C123.222 182.04 122.482 182.18 121.629 182.18ZM130.973 172.84V178.94C130.973 179.353 131.066 179.653 131.253 179.84C131.453 180.013 131.786 180.1 132.253 180.1H133.653V182H131.853C130.826 182 130.039 181.76 129.493 181.28C128.946 180.8 128.673 180.02 128.673 178.94V172.84H127.373V170.98H128.673V168.24H130.973V170.98H133.653V172.84H130.973ZM149.094 170.8C149.961 170.8 150.734 170.98 151.414 171.34C152.107 171.7 152.647 172.233 153.034 172.94C153.434 173.647 153.634 174.5 153.634 175.5V182H151.374V175.84C151.374 174.853 151.127 174.1 150.634 173.58C150.141 173.047 149.467 172.78 148.614 172.78C147.761 172.78 147.081 173.047 146.574 173.58C146.081 174.1 145.834 174.853 145.834 175.84V182H143.574V175.84C143.574 174.853 143.327 174.1 142.834 173.58C142.341 173.047 141.667 172.78 140.814 172.78C139.961 172.78 139.281 173.047 138.774 173.58C138.281 174.1 138.034 174.853 138.034 175.84V182H135.754V170.98H138.034V172.24C138.407 171.787 138.881 171.433 139.454 171.18C140.027 170.927 140.641 170.8 141.294 170.8C142.174 170.8 142.961 170.987 143.654 171.36C144.347 171.733 144.881 172.273 145.254 172.98C145.587 172.313 146.107 171.787 146.814 171.4C147.521 171 148.281 170.8 149.094 170.8ZM166.635 176.22C166.635 176.633 166.608 177.007 166.555 177.34H158.135C158.202 178.22 158.528 178.927 159.115 179.46C159.702 179.993 160.422 180.26 161.275 180.26C162.502 180.26 163.368 179.747 163.875 178.72H166.335C166.002 179.733 165.395 180.567 164.515 181.22C163.648 181.86 162.568 182.18 161.275 182.18C160.222 182.18 159.275 181.947 158.435 181.48C157.608 181 156.955 180.333 156.475 179.48C156.008 178.613 155.775 177.613 155.775 176.48C155.775 175.347 156.002 174.353 156.455 173.5C156.922 172.633 157.568 171.967 158.395 171.5C159.235 171.033 160.195 170.8 161.275 170.8C162.315 170.8 163.242 171.027 164.055 171.48C164.868 171.933 165.502 172.573 165.955 173.4C166.408 174.213 166.635 175.153 166.635 176.22ZM164.255 175.5C164.242 174.66 163.942 173.987 163.355 173.48C162.768 172.973 162.042 172.72 161.175 172.72C160.388 172.72 159.715 172.973 159.155 173.48C158.595 173.973 158.262 174.647 158.155 175.5H164.255ZM174.439 170.8C175.306 170.8 176.079 170.98 176.759 171.34C177.452 171.7 177.992 172.233 178.379 172.94C178.766 173.647 178.959 174.5 178.959 175.5V182H176.699V175.84C176.699 174.853 176.452 174.1 175.959 173.58C175.466 173.047 174.792 172.78 173.939 172.78C173.086 172.78 172.406 173.047 171.899 173.58C171.406 174.1 171.159 174.853 171.159 175.84V182H168.879V170.98H171.159V172.24C171.532 171.787 172.006 171.433 172.579 171.18C173.166 170.927 173.786 170.8 174.439 170.8ZM184.527 172.84V178.94C184.527 179.353 184.621 179.653 184.807 179.84C185.007 180.013 185.341 180.1 185.807 180.1H187.207V182H185.407C184.381 182 183.594 181.76 183.047 181.28C182.501 180.8 182.227 180.02 182.227 178.94V172.84H180.927V170.98H182.227V168.24H184.527V170.98H187.207V172.84H184.527ZM193.309 182.18C192.442 182.18 191.662 182.027 190.969 181.72C190.289 181.4 189.749 180.973 189.349 180.44C188.949 179.893 188.735 179.287 188.709 178.62H191.069C191.109 179.087 191.329 179.48 191.729 179.8C192.142 180.107 192.655 180.26 193.269 180.26C193.909 180.26 194.402 180.14 194.749 179.9C195.109 179.647 195.289 179.327 195.289 178.94C195.289 178.527 195.089 178.22 194.689 178.02C194.302 177.82 193.682 177.6 192.829 177.36C192.002 177.133 191.329 176.913 190.809 176.7C190.289 176.487 189.835 176.16 189.449 175.72C189.075 175.28 188.889 174.7 188.889 173.98C188.889 173.393 189.062 172.86 189.409 172.38C189.755 171.887 190.249 171.5 190.889 171.22C191.542 170.94 192.289 170.8 193.129 170.8C194.382 170.8 195.389 171.12 196.149 171.76C196.922 172.387 197.335 173.247 197.389 174.34H195.109C195.069 173.847 194.869 173.453 194.509 173.16C194.149 172.867 193.662 172.72 193.049 172.72C192.449 172.72 191.989 172.833 191.669 173.06C191.349 173.287 191.189 173.587 191.189 173.96C191.189 174.253 191.295 174.5 191.509 174.7C191.722 174.9 191.982 175.06 192.289 175.18C192.595 175.287 193.049 175.427 193.649 175.6C194.449 175.813 195.102 176.033 195.609 176.26C196.129 176.473 196.575 176.793 196.949 177.22C197.322 177.647 197.515 178.213 197.529 178.92C197.529 179.547 197.355 180.107 197.009 180.6C196.662 181.093 196.169 181.48 195.529 181.76C194.902 182.04 194.162 182.18 193.309 182.18Z" fill="#524633"/>
<path d="M78.088 207.098C77.444 207.098 76.8747 206.986 76.38 206.762C75.8947 206.538 75.512 206.225 75.232 205.824C74.952 205.423 74.8027 204.975 74.784 204.48H75.82C75.8667 204.956 76.0767 205.376 76.45 205.74C76.8233 206.095 77.3693 206.272 78.088 206.272C78.7507 206.272 79.2733 206.104 79.656 205.768C80.048 205.423 80.244 204.989 80.244 204.466C80.244 204.046 80.1367 203.71 79.922 203.458C79.7073 203.197 79.4413 203.005 79.124 202.884C78.8067 202.753 78.368 202.613 77.808 202.464C77.1547 202.287 76.6367 202.114 76.254 201.946C75.8713 201.778 75.5447 201.517 75.274 201.162C75.0033 200.807 74.868 200.327 74.868 199.72C74.868 199.216 74.9987 198.768 75.26 198.376C75.5213 197.975 75.89 197.662 76.366 197.438C76.842 197.214 77.388 197.102 78.004 197.102C78.9093 197.102 79.6373 197.326 80.188 197.774C80.748 198.213 81.07 198.782 81.154 199.482H80.09C80.0247 199.081 79.8053 198.726 79.432 198.418C79.0587 198.101 78.5547 197.942 77.92 197.942C77.332 197.942 76.842 198.101 76.45 198.418C76.058 198.726 75.862 199.151 75.862 199.692C75.862 200.103 75.9693 200.434 76.184 200.686C76.3987 200.938 76.6647 201.129 76.982 201.26C77.3087 201.391 77.7473 201.531 78.298 201.68C78.9327 201.857 79.446 202.035 79.838 202.212C80.23 202.38 80.5613 202.641 80.832 202.996C81.1027 203.351 81.238 203.827 81.238 204.424C81.238 204.881 81.1167 205.315 80.874 205.726C80.6313 206.137 80.272 206.468 79.796 206.72C79.32 206.972 78.7507 207.098 78.088 207.098ZM82.6837 203.164C82.6837 202.38 82.8377 201.694 83.1457 201.106C83.4631 200.509 83.8971 200.051 84.4477 199.734C85.0077 199.407 85.6377 199.244 86.3377 199.244C87.0657 199.244 87.6911 199.412 88.2137 199.748C88.7457 200.084 89.1284 200.513 89.3617 201.036V199.356H90.3417V207H89.3617V205.306C89.1191 205.829 88.7317 206.263 88.1997 206.608C87.6771 206.944 87.0517 207.112 86.3237 207.112C85.6331 207.112 85.0077 206.949 84.4477 206.622C83.8971 206.295 83.4631 205.833 83.1457 205.236C82.8377 204.639 82.6837 203.948 82.6837 203.164ZM89.3617 203.178C89.3617 202.562 89.2357 202.021 88.9837 201.554C88.7317 201.087 88.3864 200.728 87.9477 200.476C87.5184 200.224 87.0424 200.098 86.5197 200.098C85.9784 200.098 85.4931 200.219 85.0637 200.462C84.6344 200.705 84.2937 201.059 84.0417 201.526C83.7991 201.983 83.6777 202.529 83.6777 203.164C83.6777 203.789 83.7991 204.34 84.0417 204.816C84.2937 205.283 84.6344 205.642 85.0637 205.894C85.4931 206.137 85.9784 206.258 86.5197 206.258C87.0424 206.258 87.5184 206.132 87.9477 205.88C88.3864 205.628 88.7317 205.269 88.9837 204.802C89.2357 204.335 89.3617 203.794 89.3617 203.178ZM95.295 206.048L97.871 199.356H98.907L95.841 207H94.735L91.669 199.356H92.719L95.295 206.048ZM100.725 197.914C100.529 197.914 100.361 197.844 100.221 197.704C100.081 197.564 100.011 197.391 100.011 197.186C100.011 196.981 100.081 196.813 100.221 196.682C100.361 196.542 100.529 196.472 100.725 196.472C100.921 196.472 101.089 196.542 101.229 196.682C101.369 196.813 101.439 196.981 101.439 197.186C101.439 197.391 101.369 197.564 101.229 197.704C101.089 197.844 100.921 197.914 100.725 197.914ZM101.215 199.356V207H100.235V199.356H101.215ZM107.018 199.216C107.933 199.216 108.68 199.501 109.258 200.07C109.837 200.63 110.126 201.447 110.126 202.52V207H109.16V202.632C109.16 201.801 108.95 201.167 108.53 200.728C108.12 200.289 107.555 200.07 106.836 200.07C106.099 200.07 105.511 200.303 105.072 200.77C104.634 201.237 104.414 201.923 104.414 202.828V207H103.434V199.356H104.414V200.658C104.657 200.191 105.007 199.837 105.464 199.594C105.922 199.342 106.44 199.216 107.018 199.216ZM115.5 199.244C116.218 199.244 116.844 199.412 117.376 199.748C117.908 200.084 118.29 200.509 118.524 201.022V199.356H119.504V207.196C119.504 207.896 119.35 208.517 119.042 209.058C118.743 209.599 118.323 210.015 117.782 210.304C117.24 210.603 116.624 210.752 115.934 210.752C114.954 210.752 114.137 210.519 113.484 210.052C112.84 209.585 112.438 208.951 112.28 208.148H113.246C113.414 208.68 113.731 209.105 114.198 209.422C114.674 209.739 115.252 209.898 115.934 209.898C116.428 209.898 116.872 209.791 117.264 209.576C117.656 209.371 117.964 209.063 118.188 208.652C118.412 208.241 118.524 207.756 118.524 207.196V205.306C118.281 205.829 117.894 206.263 117.362 206.608C116.839 206.944 116.218 207.112 115.5 207.112C114.8 207.112 114.17 206.949 113.61 206.622C113.059 206.295 112.625 205.833 112.308 205.236C112 204.639 111.846 203.948 111.846 203.164C111.846 202.38 112 201.694 112.308 201.106C112.625 200.509 113.059 200.051 113.61 199.734C114.17 199.407 114.8 199.244 115.5 199.244ZM118.524 203.178C118.524 202.562 118.398 202.021 118.146 201.554C117.894 201.087 117.548 200.728 117.11 200.476C116.68 200.224 116.204 200.098 115.682 200.098C115.14 200.098 114.655 200.219 114.226 200.462C113.796 200.705 113.456 201.059 113.204 201.526C112.961 201.983 112.84 202.529 112.84 203.164C112.84 203.789 112.961 204.34 113.204 204.816C113.456 205.283 113.796 205.642 114.226 205.894C114.655 206.137 115.14 206.258 115.682 206.258C116.204 206.258 116.68 206.132 117.11 205.88C117.548 205.628 117.894 205.269 118.146 204.802C118.398 204.335 118.524 203.794 118.524 203.178ZM124.373 207.112C123.496 207.112 122.777 206.911 122.217 206.51C121.666 206.099 121.358 205.544 121.293 204.844H122.301C122.348 205.273 122.548 205.623 122.903 205.894C123.267 206.155 123.752 206.286 124.359 206.286C124.891 206.286 125.306 206.16 125.605 205.908C125.913 205.656 126.067 205.343 126.067 204.97C126.067 204.709 125.983 204.494 125.815 204.326C125.647 204.158 125.432 204.027 125.171 203.934C124.919 203.831 124.574 203.724 124.135 203.612C123.566 203.463 123.104 203.313 122.749 203.164C122.394 203.015 122.091 202.795 121.839 202.506C121.596 202.207 121.475 201.811 121.475 201.316C121.475 200.943 121.587 200.597 121.811 200.28C122.035 199.963 122.352 199.711 122.763 199.524C123.174 199.337 123.64 199.244 124.163 199.244C124.984 199.244 125.647 199.454 126.151 199.874C126.655 200.285 126.926 200.854 126.963 201.582H125.983C125.955 201.134 125.778 200.775 125.451 200.504C125.134 200.224 124.695 200.084 124.135 200.084C123.64 200.084 123.239 200.201 122.931 200.434C122.623 200.667 122.469 200.957 122.469 201.302C122.469 201.601 122.558 201.848 122.735 202.044C122.922 202.231 123.15 202.38 123.421 202.492C123.692 202.595 124.056 202.711 124.513 202.842C125.064 202.991 125.502 203.136 125.829 203.276C126.156 203.416 126.436 203.621 126.669 203.892C126.902 204.163 127.024 204.522 127.033 204.97C127.033 205.381 126.921 205.749 126.697 206.076C126.473 206.393 126.16 206.645 125.759 206.832C125.358 207.019 124.896 207.112 124.373 207.112ZM138.39 204.676H133.938L133.084 207H132.048L135.618 197.34H136.724L140.28 207H139.244L138.39 204.676ZM138.096 203.864L136.164 198.572L134.232 203.864H138.096ZM141.404 203.178C141.404 202.385 141.563 201.694 141.88 201.106C142.198 200.509 142.636 200.051 143.196 199.734C143.756 199.407 144.396 199.244 145.114 199.244C146.057 199.244 146.832 199.477 147.438 199.944C148.054 200.411 148.451 201.045 148.628 201.848H147.578C147.448 201.297 147.163 200.868 146.724 200.56C146.295 200.243 145.758 200.084 145.114 200.084C144.601 200.084 144.139 200.201 143.728 200.434C143.318 200.667 142.991 201.017 142.748 201.484C142.515 201.941 142.398 202.506 142.398 203.178C142.398 203.85 142.515 204.419 142.748 204.886C142.991 205.353 143.318 205.703 143.728 205.936C144.139 206.169 144.601 206.286 145.114 206.286C145.758 206.286 146.295 206.132 146.724 205.824C147.163 205.507 147.448 205.068 147.578 204.508H148.628C148.451 205.292 148.054 205.922 147.438 206.398C146.822 206.874 146.048 207.112 145.114 207.112C144.396 207.112 143.756 206.953 143.196 206.636C142.636 206.309 142.198 205.852 141.88 205.264C141.563 204.667 141.404 203.971 141.404 203.178ZM149.99 203.178C149.99 202.385 150.149 201.694 150.466 201.106C150.784 200.509 151.222 200.051 151.782 199.734C152.342 199.407 152.982 199.244 153.7 199.244C154.643 199.244 155.418 199.477 156.024 199.944C156.64 200.411 157.037 201.045 157.214 201.848H156.164C156.034 201.297 155.749 200.868 155.31 200.56C154.881 200.243 154.344 200.084 153.7 200.084C153.187 200.084 152.725 200.201 152.314 200.434C151.904 200.667 151.577 201.017 151.334 201.484C151.101 201.941 150.984 202.506 150.984 203.178C150.984 203.85 151.101 204.419 151.334 204.886C151.577 205.353 151.904 205.703 152.314 205.936C152.725 206.169 153.187 206.286 153.7 206.286C154.344 206.286 154.881 206.132 155.31 205.824C155.749 205.507 156.034 205.068 156.164 204.508H157.214C157.037 205.292 156.64 205.922 156.024 206.398C155.408 206.874 154.634 207.112 153.7 207.112C152.982 207.112 152.342 206.953 151.782 206.636C151.222 206.309 150.784 205.852 150.466 205.264C150.149 204.667 149.99 203.971 149.99 203.178ZM162.37 207.112C161.652 207.112 161.003 206.953 160.424 206.636C159.855 206.309 159.402 205.852 159.066 205.264C158.74 204.667 158.576 203.971 158.576 203.178C158.576 202.385 158.744 201.694 159.08 201.106C159.416 200.509 159.874 200.051 160.452 199.734C161.031 199.407 161.68 199.244 162.398 199.244C163.117 199.244 163.766 199.407 164.344 199.734C164.932 200.051 165.39 200.509 165.716 201.106C166.052 201.694 166.22 202.385 166.22 203.178C166.22 203.962 166.052 204.653 165.716 205.25C165.38 205.847 164.918 206.309 164.33 206.636C163.742 206.953 163.089 207.112 162.37 207.112ZM162.37 206.258C162.874 206.258 163.341 206.146 163.77 205.922C164.2 205.689 164.545 205.343 164.806 204.886C165.077 204.419 165.212 203.85 165.212 203.178C165.212 202.506 165.082 201.941 164.82 201.484C164.559 201.017 164.214 200.672 163.784 200.448C163.355 200.215 162.888 200.098 162.384 200.098C161.88 200.098 161.414 200.215 160.984 200.448C160.555 200.672 160.21 201.017 159.948 201.484C159.696 201.941 159.57 202.506 159.57 203.178C159.57 203.85 159.696 204.419 159.948 204.886C160.21 205.343 160.55 205.689 160.97 205.922C161.4 206.146 161.866 206.258 162.37 206.258ZM174.629 199.356V207H173.649V205.656C173.425 206.132 173.079 206.496 172.613 206.748C172.146 207 171.623 207.126 171.045 207.126C170.13 207.126 169.383 206.846 168.805 206.286C168.226 205.717 167.937 204.895 167.937 203.822V199.356H168.903V203.71C168.903 204.541 169.108 205.175 169.519 205.614C169.939 206.053 170.508 206.272 171.227 206.272C171.964 206.272 172.552 206.039 172.991 205.572C173.429 205.105 173.649 204.419 173.649 203.514V199.356H174.629ZM180.45 199.216C181.365 199.216 182.111 199.501 182.69 200.07C183.269 200.63 183.558 201.447 183.558 202.52V207H182.592V202.632C182.592 201.801 182.382 201.167 181.962 200.728C181.551 200.289 180.987 200.07 180.268 200.07C179.531 200.07 178.943 200.303 178.504 200.77C178.065 201.237 177.846 201.923 177.846 202.828V207H176.866V199.356H177.846V200.658C178.089 200.191 178.439 199.837 178.896 199.594C179.353 199.342 179.871 199.216 180.45 199.216ZM186.999 200.182V204.928C186.999 205.395 187.088 205.717 187.265 205.894C187.443 206.071 187.755 206.16 188.203 206.16H189.099V207H188.049C187.359 207 186.845 206.841 186.509 206.524C186.173 206.197 186.005 205.665 186.005 204.928V200.182H184.941V199.356H186.005V197.438H186.999V199.356H189.099V200.182H186.999ZM193.348 207.112C192.47 207.112 191.752 206.911 191.192 206.51C190.641 206.099 190.333 205.544 190.268 204.844H191.276C191.322 205.273 191.523 205.623 191.878 205.894C192.242 206.155 192.727 206.286 193.334 206.286C193.866 206.286 194.281 206.16 194.58 205.908C194.888 205.656 195.042 205.343 195.042 204.97C195.042 204.709 194.958 204.494 194.79 204.326C194.622 204.158 194.407 204.027 194.146 203.934C193.894 203.831 193.548 203.724 193.11 203.612C192.54 203.463 192.078 203.313 191.724 203.164C191.369 203.015 191.066 202.795 190.814 202.506C190.571 202.207 190.45 201.811 190.45 201.316C190.45 200.943 190.562 200.597 190.786 200.28C191.01 199.963 191.327 199.711 191.738 199.524C192.148 199.337 192.615 199.244 193.138 199.244C193.959 199.244 194.622 199.454 195.126 199.874C195.63 200.285 195.9 200.854 195.938 201.582H194.958C194.93 201.134 194.752 200.775 194.426 200.504C194.108 200.224 193.67 200.084 193.11 200.084C192.615 200.084 192.214 200.201 191.906 200.434C191.598 200.667 191.444 200.957 191.444 201.302C191.444 201.601 191.532 201.848 191.71 202.044C191.896 202.231 192.125 202.38 192.396 202.492C192.666 202.595 193.03 202.711 193.488 202.842C194.038 202.991 194.477 203.136 194.804 203.276C195.13 203.416 195.41 203.621 195.644 203.892C195.877 204.163 195.998 204.522 196.008 204.97C196.008 205.381 195.896 205.749 195.672 206.076C195.448 206.393 195.135 206.645 194.734 206.832C194.332 207.019 193.87 207.112 193.348 207.112ZM202.59 205.376L201.134 209.044H200.462L201.498 205.376H202.59ZM205.094 197.214V207H204.114V197.214H205.094ZM210.897 199.216C211.812 199.216 212.559 199.501 213.137 200.07C213.716 200.63 214.005 201.447 214.005 202.52V207H213.039V202.632C213.039 201.801 212.829 201.167 212.409 200.728C211.999 200.289 211.434 200.07 210.715 200.07C209.978 200.07 209.39 200.303 208.951 200.77C208.513 201.237 208.293 201.923 208.293 202.828V207H207.313V199.356H208.293V200.658C208.536 200.191 208.886 199.837 209.343 199.594C209.801 199.342 210.319 199.216 210.897 199.216ZM218.889 206.048L221.465 199.356H222.501L219.435 207H218.329L215.263 199.356H216.313L218.889 206.048ZM230.745 202.786C230.745 203.122 230.736 203.379 230.717 203.556H224.375C224.403 204.135 224.543 204.629 224.795 205.04C225.047 205.451 225.378 205.763 225.789 205.978C226.2 206.183 226.648 206.286 227.133 206.286C227.768 206.286 228.3 206.132 228.729 205.824C229.168 205.516 229.457 205.101 229.597 204.578H230.633C230.446 205.325 230.045 205.936 229.429 206.412C228.822 206.879 228.057 207.112 227.133 207.112C226.414 207.112 225.77 206.953 225.201 206.636C224.632 206.309 224.184 205.852 223.857 205.264C223.54 204.667 223.381 203.971 223.381 203.178C223.381 202.385 223.54 201.689 223.857 201.092C224.174 200.495 224.618 200.037 225.187 199.72C225.756 199.403 226.405 199.244 227.133 199.244C227.861 199.244 228.496 199.403 229.037 199.72C229.588 200.037 230.008 200.467 230.297 201.008C230.596 201.54 230.745 202.133 230.745 202.786ZM229.751 202.758C229.76 202.189 229.644 201.703 229.401 201.302C229.168 200.901 228.846 200.597 228.435 200.392C228.024 200.187 227.576 200.084 227.091 200.084C226.363 200.084 225.742 200.317 225.229 200.784C224.716 201.251 224.431 201.909 224.375 202.758H229.751ZM235.17 207.112C234.293 207.112 233.574 206.911 233.014 206.51C232.463 206.099 232.155 205.544 232.09 204.844H233.098C233.145 205.273 233.345 205.623 233.7 205.894C234.064 206.155 234.549 206.286 235.156 206.286C235.688 206.286 236.103 206.16 236.402 205.908C236.71 205.656 236.864 205.343 236.864 204.97C236.864 204.709 236.78 204.494 236.612 204.326C236.444 204.158 236.229 204.027 235.968 203.934C235.716 203.831 235.371 203.724 234.932 203.612C234.363 203.463 233.901 203.313 233.546 203.164C233.191 203.015 232.888 202.795 232.636 202.506C232.393 202.207 232.272 201.811 232.272 201.316C232.272 200.943 232.384 200.597 232.608 200.28C232.832 199.963 233.149 199.711 233.56 199.524C233.971 199.337 234.437 199.244 234.96 199.244C235.781 199.244 236.444 199.454 236.948 199.874C237.452 200.285 237.723 200.854 237.76 201.582H236.78C236.752 201.134 236.575 200.775 236.248 200.504C235.931 200.224 235.492 200.084 234.932 200.084C234.437 200.084 234.036 200.201 233.728 200.434C233.42 200.667 233.266 200.957 233.266 201.302C233.266 201.601 233.355 201.848 233.532 202.044C233.719 202.231 233.947 202.38 234.218 202.492C234.489 202.595 234.853 202.711 235.31 202.842C235.861 202.991 236.299 203.136 236.626 203.276C236.953 203.416 237.233 203.621 237.466 203.892C237.699 204.163 237.821 204.522 237.83 204.97C237.83 205.381 237.718 205.749 237.494 206.076C237.27 206.393 236.957 206.645 236.556 206.832C236.155 207.019 235.693 207.112 235.17 207.112ZM240.949 200.182V204.928C240.949 205.395 241.037 205.717 241.215 205.894C241.392 206.071 241.705 206.16 242.153 206.16H243.049V207H241.999C241.308 207 240.795 206.841 240.459 206.524C240.123 206.197 239.955 205.665 239.955 204.928V200.182H238.891V199.356H239.955V197.438H240.949V199.356H243.049V200.182H240.949ZM253.765 199.216C254.661 199.216 255.389 199.501 255.949 200.07C256.518 200.63 256.803 201.447 256.803 202.52V207H255.837V202.632C255.837 201.801 255.636 201.167 255.235 200.728C254.834 200.289 254.288 200.07 253.597 200.07C252.878 200.07 252.304 200.308 251.875 200.784C251.446 201.26 251.231 201.951 251.231 202.856V207H250.265V202.632C250.265 201.801 250.064 201.167 249.663 200.728C249.262 200.289 248.711 200.07 248.011 200.07C247.292 200.07 246.718 200.308 246.289 200.784C245.86 201.26 245.645 201.951 245.645 202.856V207H244.665V199.356H245.645V200.672C245.888 200.196 246.233 199.837 246.681 199.594C247.129 199.342 247.628 199.216 248.179 199.216C248.842 199.216 249.42 199.375 249.915 199.692C250.419 200.009 250.783 200.476 251.007 201.092C251.212 200.485 251.562 200.023 252.057 199.706C252.561 199.379 253.13 199.216 253.765 199.216ZM265.895 202.786C265.895 203.122 265.886 203.379 265.867 203.556H259.525C259.553 204.135 259.693 204.629 259.945 205.04C260.197 205.451 260.529 205.763 260.939 205.978C261.35 206.183 261.798 206.286 262.283 206.286C262.918 206.286 263.45 206.132 263.879 205.824C264.318 205.516 264.607 205.101 264.747 204.578H265.783C265.597 205.325 265.195 205.936 264.579 206.412C263.973 206.879 263.207 207.112 262.283 207.112C261.565 207.112 260.921 206.953 260.351 206.636C259.782 206.309 259.334 205.852 259.007 205.264C258.69 204.667 258.531 203.971 258.531 203.178C258.531 202.385 258.69 201.689 259.007 201.092C259.325 200.495 259.768 200.037 260.337 199.72C260.907 199.403 261.555 199.244 262.283 199.244C263.011 199.244 263.646 199.403 264.187 199.72C264.738 200.037 265.158 200.467 265.447 201.008C265.746 201.54 265.895 202.133 265.895 202.786ZM264.901 202.758C264.911 202.189 264.794 201.703 264.551 201.302C264.318 200.901 263.996 200.597 263.585 200.392C263.175 200.187 262.727 200.084 262.241 200.084C261.513 200.084 260.893 200.317 260.379 200.784C259.866 201.251 259.581 201.909 259.525 202.758H264.901ZM271.272 199.216C272.187 199.216 272.934 199.501 273.512 200.07C274.091 200.63 274.38 201.447 274.38 202.52V207H273.414V202.632C273.414 201.801 273.204 201.167 272.784 200.728C272.374 200.289 271.809 200.07 271.09 200.07C270.353 200.07 269.765 200.303 269.326 200.77C268.888 201.237 268.668 201.923 268.668 202.828V207H267.688V199.356H268.668V200.658C268.911 200.191 269.261 199.837 269.718 199.594C270.176 199.342 270.694 199.216 271.272 199.216ZM277.822 200.182V204.928C277.822 205.395 277.91 205.717 278.088 205.894C278.265 206.071 278.578 206.16 279.026 206.16H279.922V207H278.872C278.181 207 277.668 206.841 277.332 206.524C276.996 206.197 276.828 205.665 276.828 204.928V200.182H275.764V199.356H276.828V197.438H277.822V199.356H279.922V200.182H277.822ZM81.378 221.028C81.378 221.868 81.1027 222.545 80.552 223.058C80.0013 223.571 79.1753 223.828 78.074 223.828H76.1V228H75.12V218.214H78.074C79.166 218.214 79.9873 218.471 80.538 218.984C81.098 219.497 81.378 220.179 81.378 221.028ZM78.074 222.988C79.6047 222.988 80.37 222.335 80.37 221.028C80.37 220.375 80.188 219.88 79.824 219.544C79.46 219.208 78.8767 219.04 78.074 219.04H76.1V222.988H78.074ZM86.3683 228.112C85.6497 228.112 85.001 227.953 84.4223 227.636C83.853 227.309 83.4003 226.852 83.0643 226.264C82.7377 225.667 82.5743 224.971 82.5743 224.178C82.5743 223.385 82.7423 222.694 83.0783 222.106C83.4143 221.509 83.8717 221.051 84.4503 220.734C85.029 220.407 85.6777 220.244 86.3963 220.244C87.115 220.244 87.7637 220.407 88.3423 220.734C88.9303 221.051 89.3877 221.509 89.7143 222.106C90.0503 222.694 90.2183 223.385 90.2183 224.178C90.2183 224.962 90.0503 225.653 89.7143 226.25C89.3783 226.847 88.9163 227.309 88.3283 227.636C87.7403 227.953 87.087 228.112 86.3683 228.112ZM86.3683 227.258C86.8723 227.258 87.339 227.146 87.7683 226.922C88.1977 226.689 88.543 226.343 88.8043 225.886C89.075 225.419 89.2103 224.85 89.2103 224.178C89.2103 223.506 89.0797 222.941 88.8183 222.484C88.557 222.017 88.2117 221.672 87.7823 221.448C87.353 221.215 86.8863 221.098 86.3823 221.098C85.8783 221.098 85.4117 221.215 84.9823 221.448C84.553 221.672 84.2077 222.017 83.9463 222.484C83.6943 222.941 83.5683 223.506 83.5683 224.178C83.5683 224.85 83.6943 225.419 83.9463 225.886C84.2077 226.343 84.5483 226.689 84.9683 226.922C85.3977 227.146 85.8643 227.258 86.3683 227.258ZM92.9848 221.714C93.1994 221.238 93.5261 220.869 93.9648 220.608C94.4128 220.347 94.9588 220.216 95.6028 220.216V221.238H95.3368C94.6274 221.238 94.0581 221.429 93.6288 221.812C93.1994 222.195 92.9848 222.834 92.9848 223.73V228H92.0048V220.356H92.9848V221.714ZM98.351 221.182V225.928C98.351 226.395 98.4397 226.717 98.617 226.894C98.7944 227.071 99.107 227.16 99.555 227.16H100.451V228H99.401C98.7104 228 98.197 227.841 97.861 227.524C97.525 227.197 97.357 226.665 97.357 225.928V221.182H96.293V220.356H97.357V218.438H98.351V220.356H100.451V221.182H98.351ZM105.077 221.182H103.299V228H102.319V221.182H101.255V220.356H102.319V219.824C102.319 218.993 102.529 218.382 102.949 217.99C103.379 217.598 104.069 217.402 105.021 217.402V218.242C104.387 218.242 103.939 218.363 103.677 218.606C103.425 218.849 103.299 219.255 103.299 219.824V220.356H105.077V221.182ZM109.966 228.112C109.247 228.112 108.599 227.953 108.02 227.636C107.451 227.309 106.998 226.852 106.662 226.264C106.335 225.667 106.172 224.971 106.172 224.178C106.172 223.385 106.34 222.694 106.676 222.106C107.012 221.509 107.469 221.051 108.048 220.734C108.627 220.407 109.275 220.244 109.994 220.244C110.713 220.244 111.361 220.407 111.94 220.734C112.528 221.051 112.985 221.509 113.312 222.106C113.648 222.694 113.816 223.385 113.816 224.178C113.816 224.962 113.648 225.653 113.312 226.25C112.976 226.847 112.514 227.309 111.926 227.636C111.338 227.953 110.685 228.112 109.966 228.112ZM109.966 227.258C110.47 227.258 110.937 227.146 111.366 226.922C111.795 226.689 112.141 226.343 112.402 225.886C112.673 225.419 112.808 224.85 112.808 224.178C112.808 223.506 112.677 222.941 112.416 222.484C112.155 222.017 111.809 221.672 111.38 221.448C110.951 221.215 110.484 221.098 109.98 221.098C109.476 221.098 109.009 221.215 108.58 221.448C108.151 221.672 107.805 222.017 107.544 222.484C107.292 222.941 107.166 223.506 107.166 224.178C107.166 224.85 107.292 225.419 107.544 225.886C107.805 226.343 108.146 226.689 108.566 226.922C108.995 227.146 109.462 227.258 109.966 227.258ZM116.582 217.64V228H115.602V217.64H116.582ZM119.292 218.914C119.096 218.914 118.928 218.844 118.788 218.704C118.648 218.564 118.578 218.391 118.578 218.186C118.578 217.981 118.648 217.813 118.788 217.682C118.928 217.542 119.096 217.472 119.292 217.472C119.488 217.472 119.656 217.542 119.796 217.682C119.936 217.813 120.006 217.981 120.006 218.186C120.006 218.391 119.936 218.564 119.796 218.704C119.656 218.844 119.488 218.914 119.292 218.914ZM119.782 220.356V228H118.802V220.356H119.782ZM125.347 228.112C124.628 228.112 123.98 227.953 123.401 227.636C122.832 227.309 122.379 226.852 122.043 226.264C121.716 225.667 121.553 224.971 121.553 224.178C121.553 223.385 121.721 222.694 122.057 222.106C122.393 221.509 122.85 221.051 123.429 220.734C124.008 220.407 124.656 220.244 125.375 220.244C126.094 220.244 126.742 220.407 127.321 220.734C127.909 221.051 128.366 221.509 128.693 222.106C129.029 222.694 129.197 223.385 129.197 224.178C129.197 224.962 129.029 225.653 128.693 226.25C128.357 226.847 127.895 227.309 127.307 227.636C126.719 227.953 126.066 228.112 125.347 228.112ZM125.347 227.258C125.851 227.258 126.318 227.146 126.747 226.922C127.176 226.689 127.522 226.343 127.783 225.886C128.054 225.419 128.189 224.85 128.189 224.178C128.189 223.506 128.058 222.941 127.797 222.484C127.536 222.017 127.19 221.672 126.761 221.448C126.332 221.215 125.865 221.098 125.361 221.098C124.857 221.098 124.39 221.215 123.961 221.448C123.532 221.672 123.186 222.017 122.925 222.484C122.673 222.941 122.547 223.506 122.547 224.178C122.547 224.85 122.673 225.419 122.925 225.886C123.186 226.343 123.527 226.689 123.947 226.922C124.376 227.146 124.843 227.258 125.347 227.258ZM131.879 226.376L130.423 230.044H129.751L130.787 226.376H131.879ZM142.453 228L140.031 223.912H138.225V228H137.245V218.214H140.185C141.277 218.214 142.103 218.475 142.663 218.998C143.232 219.521 143.517 220.207 143.517 221.056C143.517 221.765 143.312 222.372 142.901 222.876C142.5 223.371 141.902 223.693 141.109 223.842L143.629 228H142.453ZM138.225 223.114H140.199C140.964 223.114 141.538 222.927 141.921 222.554C142.313 222.181 142.509 221.681 142.509 221.056C142.509 220.412 142.322 219.917 141.949 219.572C141.576 219.217 140.988 219.04 140.185 219.04H138.225V223.114ZM152.378 223.786C152.378 224.122 152.368 224.379 152.35 224.556H146.008C146.036 225.135 146.176 225.629 146.428 226.04C146.68 226.451 147.011 226.763 147.422 226.978C147.832 227.183 148.28 227.286 148.766 227.286C149.4 227.286 149.932 227.132 150.362 226.824C150.8 226.516 151.09 226.101 151.23 225.578H152.266C152.079 226.325 151.678 226.936 151.062 227.412C150.455 227.879 149.69 228.112 148.766 228.112C148.047 228.112 147.403 227.953 146.834 227.636C146.264 227.309 145.816 226.852 145.49 226.264C145.172 225.667 145.014 224.971 145.014 224.178C145.014 223.385 145.172 222.689 145.49 222.092C145.807 221.495 146.25 221.037 146.82 220.72C147.389 220.403 148.038 220.244 148.766 220.244C149.494 220.244 150.128 220.403 150.67 220.72C151.22 221.037 151.64 221.467 151.93 222.008C152.228 222.54 152.378 223.133 152.378 223.786ZM151.384 223.758C151.393 223.189 151.276 222.703 151.034 222.302C150.8 221.901 150.478 221.597 150.068 221.392C149.657 221.187 149.209 221.084 148.724 221.084C147.996 221.084 147.375 221.317 146.862 221.784C146.348 222.251 146.064 222.909 146.008 223.758H151.384ZM155.445 221.182V225.928C155.445 226.395 155.533 226.717 155.711 226.894C155.888 227.071 156.201 227.16 156.649 227.16H157.545V228H156.495C155.804 228 155.291 227.841 154.955 227.524C154.619 227.197 154.451 226.665 154.451 225.928V221.182H153.387V220.356H154.451V218.438H155.445V220.356H157.545V221.182H155.445ZM159.651 218.914C159.455 218.914 159.287 218.844 159.147 218.704C159.007 218.564 158.937 218.391 158.937 218.186C158.937 217.981 159.007 217.813 159.147 217.682C159.287 217.542 159.455 217.472 159.651 217.472C159.847 217.472 160.015 217.542 160.155 217.682C160.295 217.813 160.365 217.981 160.365 218.186C160.365 218.391 160.295 218.564 160.155 218.704C160.015 218.844 159.847 218.914 159.651 218.914ZM160.141 220.356V228H159.161V220.356H160.141ZM163.34 221.714C163.555 221.238 163.882 220.869 164.32 220.608C164.768 220.347 165.314 220.216 165.958 220.216V221.238H165.692C164.983 221.238 164.414 221.429 163.984 221.812C163.555 222.195 163.34 222.834 163.34 223.73V228H162.36V220.356H163.34V221.714ZM174.349 223.786C174.349 224.122 174.339 224.379 174.321 224.556H167.979C168.007 225.135 168.147 225.629 168.399 226.04C168.651 226.451 168.982 226.763 169.393 226.978C169.803 227.183 170.251 227.286 170.737 227.286C171.371 227.286 171.903 227.132 172.333 226.824C172.771 226.516 173.061 226.101 173.201 225.578H174.237C174.05 226.325 173.649 226.936 173.033 227.412C172.426 227.879 171.661 228.112 170.737 228.112C170.018 228.112 169.374 227.953 168.805 227.636C168.235 227.309 167.787 226.852 167.461 226.264C167.143 225.667 166.985 224.971 166.985 224.178C166.985 223.385 167.143 222.689 167.461 222.092C167.778 221.495 168.221 221.037 168.791 220.72C169.36 220.403 170.009 220.244 170.737 220.244C171.465 220.244 172.099 220.403 172.641 220.72C173.191 221.037 173.611 221.467 173.901 222.008C174.199 222.54 174.349 223.133 174.349 223.786ZM173.355 223.758C173.364 223.189 173.247 222.703 173.005 222.302C172.771 221.901 172.449 221.597 172.039 221.392C171.628 221.187 171.18 221.084 170.695 221.084C169.967 221.084 169.346 221.317 168.833 221.784C168.319 222.251 168.035 222.909 167.979 223.758H173.355ZM185.241 220.216C186.137 220.216 186.865 220.501 187.425 221.07C187.995 221.63 188.279 222.447 188.279 223.52V228H187.313V223.632C187.313 222.801 187.113 222.167 186.711 221.728C186.31 221.289 185.764 221.07 185.073 221.07C184.355 221.07 183.781 221.308 183.351 221.784C182.922 222.26 182.707 222.951 182.707 223.856V228H181.741V223.632C181.741 222.801 181.541 222.167 181.139 221.728C180.738 221.289 180.187 221.07 179.487 221.07C178.769 221.07 178.195 221.308 177.765 221.784C177.336 222.26 177.121 222.951 177.121 223.856V228H176.141V220.356H177.121V221.672C177.364 221.196 177.709 220.837 178.157 220.594C178.605 220.342 179.105 220.216 179.655 220.216C180.318 220.216 180.897 220.375 181.391 220.692C181.895 221.009 182.259 221.476 182.483 222.092C182.689 221.485 183.039 221.023 183.533 220.706C184.037 220.379 184.607 220.216 185.241 220.216ZM197.372 223.786C197.372 224.122 197.363 224.379 197.344 224.556H191.002C191.03 225.135 191.17 225.629 191.422 226.04C191.674 226.451 192.005 226.763 192.416 226.978C192.827 227.183 193.275 227.286 193.76 227.286C194.395 227.286 194.927 227.132 195.356 226.824C195.795 226.516 196.084 226.101 196.224 225.578H197.26C197.073 226.325 196.672 226.936 196.056 227.412C195.449 227.879 194.684 228.112 193.76 228.112C193.041 228.112 192.397 227.953 191.828 227.636C191.259 227.309 190.811 226.852 190.484 226.264C190.167 225.667 190.008 224.971 190.008 224.178C190.008 223.385 190.167 222.689 190.484 222.092C190.801 221.495 191.245 221.037 191.814 220.72C192.383 220.403 193.032 220.244 193.76 220.244C194.488 220.244 195.123 220.403 195.664 220.72C196.215 221.037 196.635 221.467 196.924 222.008C197.223 222.54 197.372 223.133 197.372 223.786ZM196.378 223.758C196.387 223.189 196.271 222.703 196.028 222.302C195.795 221.901 195.473 221.597 195.062 221.392C194.651 221.187 194.203 221.084 193.718 221.084C192.99 221.084 192.369 221.317 191.856 221.784C191.343 222.251 191.058 222.909 191.002 223.758H196.378ZM202.749 220.216C203.664 220.216 204.41 220.501 204.989 221.07C205.568 221.63 205.857 222.447 205.857 223.52V228H204.891V223.632C204.891 222.801 204.681 222.167 204.261 221.728C203.85 221.289 203.286 221.07 202.567 221.07C201.83 221.07 201.242 221.303 200.803 221.77C200.364 222.237 200.145 222.923 200.145 223.828V228H199.165V220.356H200.145V221.658C200.388 221.191 200.738 220.837 201.195 220.594C201.652 220.342 202.17 220.216 202.749 220.216ZM209.298 221.182V225.928C209.298 226.395 209.387 226.717 209.564 226.894C209.742 227.071 210.054 227.16 210.502 227.16H211.398V228H210.348C209.658 228 209.144 227.841 208.808 227.524C208.472 227.197 208.304 226.665 208.304 225.928V221.182H207.24V220.356H208.304V218.438H209.298V220.356H211.398V221.182H209.298ZM222.526 225.676H218.074L217.22 228H216.184L219.754 218.34H220.86L224.416 228H223.38L222.526 225.676ZM222.232 224.864L220.3 219.572L218.368 224.864H222.232ZM225.541 224.178C225.541 223.385 225.7 222.694 226.017 222.106C226.334 221.509 226.773 221.051 227.333 220.734C227.893 220.407 228.532 220.244 229.251 220.244C230.194 220.244 230.968 220.477 231.575 220.944C232.191 221.411 232.588 222.045 232.765 222.848H231.715C231.584 222.297 231.3 221.868 230.861 221.56C230.432 221.243 229.895 221.084 229.251 221.084C228.738 221.084 228.276 221.201 227.865 221.434C227.454 221.667 227.128 222.017 226.885 222.484C226.652 222.941 226.535 223.506 226.535 224.178C226.535 224.85 226.652 225.419 226.885 225.886C227.128 226.353 227.454 226.703 227.865 226.936C228.276 227.169 228.738 227.286 229.251 227.286C229.895 227.286 230.432 227.132 230.861 226.824C231.3 226.507 231.584 226.068 231.715 225.508H232.765C232.588 226.292 232.191 226.922 231.575 227.398C230.959 227.874 230.184 228.112 229.251 228.112C228.532 228.112 227.893 227.953 227.333 227.636C226.773 227.309 226.334 226.852 226.017 226.264C225.7 225.667 225.541 224.971 225.541 224.178ZM234.127 224.178C234.127 223.385 234.286 222.694 234.603 222.106C234.92 221.509 235.359 221.051 235.919 220.734C236.479 220.407 237.118 220.244 237.837 220.244C238.78 220.244 239.554 220.477 240.161 220.944C240.777 221.411 241.174 222.045 241.351 222.848H240.301C240.17 222.297 239.886 221.868 239.447 221.56C239.018 221.243 238.481 221.084 237.837 221.084C237.324 221.084 236.862 221.201 236.451 221.434C236.04 221.667 235.714 222.017 235.471 222.484C235.238 222.941 235.121 223.506 235.121 224.178C235.121 224.85 235.238 225.419 235.471 225.886C235.714 226.353 236.04 226.703 236.451 226.936C236.862 227.169 237.324 227.286 237.837 227.286C238.481 227.286 239.018 227.132 239.447 226.824C239.886 226.507 240.17 226.068 240.301 225.508H241.351C241.174 226.292 240.777 226.922 240.161 227.398C239.545 227.874 238.77 228.112 237.837 228.112C237.118 228.112 236.479 227.953 235.919 227.636C235.359 227.309 234.92 226.852 234.603 226.264C234.286 225.667 234.127 224.971 234.127 224.178ZM246.507 228.112C245.788 228.112 245.14 227.953 244.561 227.636C243.992 227.309 243.539 226.852 243.203 226.264C242.876 225.667 242.713 224.971 242.713 224.178C242.713 223.385 242.881 222.694 243.217 222.106C243.553 221.509 244.01 221.051 244.589 220.734C245.168 220.407 245.816 220.244 246.535 220.244C247.254 220.244 247.902 220.407 248.481 220.734C249.069 221.051 249.526 221.509 249.853 222.106C250.189 222.694 250.357 223.385 250.357 224.178C250.357 224.962 250.189 225.653 249.853 226.25C249.517 226.847 249.055 227.309 248.467 227.636C247.879 227.953 247.226 228.112 246.507 228.112ZM246.507 227.258C247.011 227.258 247.478 227.146 247.907 226.922C248.336 226.689 248.682 226.343 248.943 225.886C249.214 225.419 249.349 224.85 249.349 224.178C249.349 223.506 249.218 222.941 248.957 222.484C248.696 222.017 248.35 221.672 247.921 221.448C247.492 221.215 247.025 221.098 246.521 221.098C246.017 221.098 245.55 221.215 245.121 221.448C244.692 221.672 244.346 222.017 244.085 222.484C243.833 222.941 243.707 223.506 243.707 224.178C243.707 224.85 243.833 225.419 244.085 225.886C244.346 226.343 244.687 226.689 245.107 226.922C245.536 227.146 246.003 227.258 246.507 227.258ZM258.765 220.356V228H257.785V226.656C257.561 227.132 257.216 227.496 256.749 227.748C256.283 228 255.76 228.126 255.181 228.126C254.267 228.126 253.52 227.846 252.941 227.286C252.363 226.717 252.073 225.895 252.073 224.822V220.356H253.039V224.71C253.039 225.541 253.245 226.175 253.655 226.614C254.075 227.053 254.645 227.272 255.363 227.272C256.101 227.272 256.689 227.039 257.127 226.572C257.566 226.105 257.785 225.419 257.785 224.514V220.356H258.765ZM264.587 220.216C265.501 220.216 266.248 220.501 266.827 221.07C267.405 221.63 267.695 222.447 267.695 223.52V228H266.729V223.632C266.729 222.801 266.519 222.167 266.099 221.728C265.688 221.289 265.123 221.07 264.405 221.07C263.667 221.07 263.079 221.303 262.641 221.77C262.202 222.237 261.983 222.923 261.983 223.828V228H261.003V220.356H261.983V221.658C262.225 221.191 262.575 220.837 263.033 220.594C263.49 220.342 264.008 220.216 264.587 220.216ZM271.136 221.182V225.928C271.136 226.395 271.225 226.717 271.402 226.894C271.58 227.071 271.892 227.16 272.34 227.16H273.236V228H272.186C271.496 228 270.982 227.841 270.646 227.524C270.31 227.197 270.142 226.665 270.142 225.928V221.182H269.078V220.356H270.142V218.438H271.136V220.356H273.236V221.182H271.136ZM277.484 228.112C276.607 228.112 275.888 227.911 275.328 227.51C274.778 227.099 274.47 226.544 274.404 225.844H275.412C275.459 226.273 275.66 226.623 276.014 226.894C276.378 227.155 276.864 227.286 277.47 227.286C278.002 227.286 278.418 227.16 278.716 226.908C279.024 226.656 279.178 226.343 279.178 225.97C279.178 225.709 279.094 225.494 278.926 225.326C278.758 225.158 278.544 225.027 278.282 224.934C278.03 224.831 277.685 224.724 277.246 224.612C276.677 224.463 276.215 224.313 275.86 224.164C275.506 224.015 275.202 223.795 274.95 223.506C274.708 223.207 274.586 222.811 274.586 222.316C274.586 221.943 274.698 221.597 274.922 221.28C275.146 220.963 275.464 220.711 275.874 220.524C276.285 220.337 276.752 220.244 277.274 220.244C278.096 220.244 278.758 220.454 279.262 220.874C279.766 221.285 280.037 221.854 280.074 222.582H279.094C279.066 222.134 278.889 221.775 278.562 221.504C278.245 221.224 277.806 221.084 277.246 221.084C276.752 221.084 276.35 221.201 276.042 221.434C275.734 221.667 275.58 221.957 275.58 222.302C275.58 222.601 275.669 222.848 275.846 223.044C276.033 223.231 276.262 223.38 276.532 223.492C276.803 223.595 277.167 223.711 277.624 223.842C278.175 223.991 278.614 224.136 278.94 224.276C279.267 224.416 279.547 224.621 279.78 224.892C280.014 225.163 280.135 225.522 280.144 225.97C280.144 226.381 280.032 226.749 279.808 227.076C279.584 227.393 279.272 227.645 278.87 227.832C278.469 228.019 278.007 228.112 277.484 228.112Z" fill="#575455"/>
</g>
<defs>
<filter id="filter0_d_26_129" x="0" y="0" width="372" height="319" filterUnits="userSpaceOnUse" color-interpolation-filters="sRGB">
<feFlood flood-opacity="0" result="BackgroundImageFix"/>
<feColorMatrix in="SourceAlpha" type="matrix" values="0 0 0 0 0 0 0 0 0 0 0 0 0 0 0 0 0 0 127 0" result="hardAlpha"/>
<feOffset dy="4"/>
<feGaussianBlur stdDeviation="22"/>
<feComposite in2="hardAlpha" operator="out"/>
<feColorMatrix type="matrix" values="0 0 0 0 0 0 0 0 0 0 0 0 0 0 0 0 0 0 0.07 0"/>
<feBlend mode="normal" in2="BackgroundImageFix" result="effect1_dropShadow_26_129"/>
<feBlend mode="normal" in="SourceGraphic" in2="effect1_dropShadow_26_129" result="shape"/>
</filter>
<filter id="filter1_b_26_129" x="-56" y="-60" width="484" height="431" filterUnits="userSpaceOnUse" color-interpolation-filters="sRGB">
<feFlood flood-opacity="0" result="BackgroundImageFix"/>
<feGaussianBlur in="BackgroundImageFix" stdDeviation="50"/>
<feComposite in2="SourceAlpha" operator="in" result="effect1_backgroundBlur_26_129"/>
<feBlend mode="normal" in="SourceGraphic" in2="effect1_backgroundBlur_26_129" result="shape"/>
</filter>
</defs>
</svg>
