<svg width="65" height="65" viewBox="0 0 65 65" fill="none" xmlns="http://www.w3.org/2000/svg">
<g clip-path="url(#clip0_2430_2365)">
<path d="M63.4814 1.50725C62.7639 0.789728 61.7748 0.430968 60.7664 0.518268L58.0805 0.741268C52.67 1.19697 47.5795 3.55317 43.7107 7.42204C43.7107 7.43169 43.7107 7.43169 43.7107 7.43169L30.5624 20.5799C30.5527 20.5896 30.5527 20.5896 30.5527 20.5896L28.3614 22.781L20.7497 19.9497C19.5862 19.523 18.2772 19.8042 17.3948 20.6866L13.0703 25.0111C12.4691 25.6123 12.1394 26.4074 12.1394 27.251C12.1394 28.1042 12.4691 28.8994 13.0703 29.5005L17.356 33.7766L16.8324 34.3099C16.7645 34.3778 16.7258 34.4457 16.687 34.5232C16.6773 34.5329 16.6676 34.5426 16.6579 34.5523L16.6385 34.6008C16.6288 34.6202 16.6191 34.6299 16.6094 34.6493L13.1866 41.301C12.6048 42.4451 12.5951 43.7444 13.0994 44.8595C10.5686 44.491 7.9021 45.2667 5.96284 47.206C3.56788 49.601 1.54132 57.6489 0.542629 62.2353C0.406869 62.8559 0.600809 63.5055 1.04686 63.9516C1.40562 64.3006 1.87102 64.4945 2.35584 64.4945C2.4916 64.4945 2.62731 64.4848 2.76307 64.4557C7.34947 63.457 15.3974 61.4305 17.7924 59.0355C19.7316 57.0963 20.5073 54.4298 20.1388 51.899C20.6722 52.1415 21.2345 52.2675 21.8163 52.2675C22.4563 52.2675 23.0963 52.122 23.6974 51.8118L30.446 48.3405C30.4752 48.3308 30.4849 48.3017 30.5139 48.2823C30.5721 48.2435 30.6303 48.2144 30.6884 48.1659L31.2121 47.6424L35.4978 51.9281C36.099 52.5195 36.8941 52.8589 37.7474 52.8589C38.591 52.8589 39.3861 52.5195 39.9872 51.9281L44.3118 47.5939C44.9227 46.9927 45.2426 46.1782 45.2426 45.3443C45.2426 44.9758 45.1845 44.6074 45.0487 44.2486L42.2174 36.637L57.6248 21.2296C61.4549 17.3995 63.8111 12.3187 64.2571 6.92753L64.4899 4.23193C64.5674 3.22352 64.1989 2.22477 63.4814 1.50725ZM14.4471 28.1236C14.2144 27.8909 14.0787 27.5807 14.0787 27.251C14.0787 26.9213 14.2144 26.611 14.4471 26.3783L18.7717 22.0537C19.0044 21.821 19.3244 21.695 19.6444 21.695C19.7898 21.695 19.9353 21.7144 20.071 21.7726L26.8487 24.2936L18.7329 32.4094L14.4471 28.1236ZM14.1078 47.6229C14.9513 47.6229 15.7852 47.9429 16.4252 48.5732C17.0361 49.1937 17.3754 50.0179 17.3754 50.8906C17.3754 51.7633 17.0361 52.5777 16.4155 53.1983C15.698 53.9158 12.9636 54.8854 9.25963 55.7387C10.2777 51.3172 11.2377 49.1452 11.8001 48.5828C12.4303 47.9429 13.2739 47.6229 14.1078 47.6229ZM16.4155 57.6683C14.6992 59.3845 8.10576 61.3044 2.4625 62.5358C4.0333 55.3606 5.89503 50.0179 7.33007 48.5828C8.34817 47.5647 9.62809 46.9636 10.9565 46.7696C10.7722 46.9151 10.588 47.0411 10.4232 47.206C9.38568 48.2532 8.34817 51.0166 7.33977 55.4284C7.20401 56.0587 7.38824 56.6986 7.84394 57.1544C8.19305 57.5132 8.66816 57.6974 9.15298 57.6974C9.28874 57.6974 9.43415 57.6877 9.56991 57.6489C13.9817 56.6502 16.7451 55.6127 17.7924 54.5752C17.9572 54.4103 18.0833 54.2261 18.2287 54.0419C18.0348 55.3703 17.4336 56.6502 16.4155 57.6683ZM22.815 50.0858C21.9715 50.5221 20.9534 50.367 20.2746 49.6882L15.3101 44.7237C14.6411 44.0547 14.4762 43.0366 14.9126 42.193L17.773 36.6273L28.3711 47.2254L22.815 50.0858ZM43.2258 44.9274C43.3907 45.3734 43.284 45.8873 42.9446 46.2266L38.6201 50.5512C38.1546 51.0166 37.3402 51.0166 36.8747 50.5512L32.5889 46.2655L40.7048 38.1496L43.2258 44.9274ZM30 46.1103L18.888 34.9983L19.402 34.4747C19.4116 34.4747 19.4116 34.4747 19.4116 34.465L29.2922 24.5942C29.2922 24.5942 29.2922 24.5844 29.3019 24.5844L31.2314 22.6452L42.3531 33.7572L30 46.1103ZM43.7203 32.39L32.6084 21.278L44.3991 9.48736L55.5111 20.5993L43.7203 32.39ZM62.3275 6.77234C61.9397 11.4072 60.0102 15.79 56.8782 19.2127L45.7856 8.12015C49.1987 4.99797 53.5911 3.06835 58.2454 2.67083L60.9313 2.44783C61.3773 2.40901 61.7942 2.56418 62.1142 2.88412C62.4245 3.19441 62.5893 3.63076 62.5506 4.07681L62.3275 6.77234Z" fill="#524633"/>
<path d="M44.3984 9.48732L32.6074 21.2783L43.7196 32.3905L55.5106 20.5995L44.3984 9.48732Z" fill="#FFDB6B"/>
<path d="M28.3712 47.2252L22.8152 50.0857C21.9716 50.5219 20.9535 50.3668 20.2747 49.6881L15.3102 44.7236C14.6412 44.0545 14.4764 43.0364 14.9127 42.1928L17.7731 36.6272L28.3712 47.2252ZM42.9447 46.2265L38.6202 50.5511C38.1548 51.0165 37.3403 51.0165 36.8748 50.5511L32.5891 46.2653L40.7049 38.1495L43.226 44.9272C43.3908 45.3732 43.2841 45.8871 42.9447 46.2265ZM26.8489 24.2934L18.7331 32.4092L14.4473 28.1235C14.2146 27.8908 14.0788 27.5805 14.0788 27.2508C14.0788 26.9212 14.2145 26.6109 14.4473 26.3782L18.7718 22.0536C19.0045 21.8209 19.3245 21.6948 19.6445 21.6948C19.7899 21.6948 19.9354 21.7142 20.0712 21.7724L26.8489 24.2934ZM17.3756 50.8904C17.3756 51.7631 17.0362 52.5776 16.4156 53.1981C15.6981 53.9157 12.9638 54.8853 9.25977 55.7386C10.2779 51.317 11.2378 49.1451 11.8002 48.5827C12.4305 47.9428 13.2741 47.6228 14.1079 47.6228C14.9515 47.6228 15.7854 47.9428 16.4254 48.573C17.0362 49.1936 17.3756 50.0178 17.3756 50.8904Z" fill="#FFDB6B"/>
</g>
<defs>
<clipPath id="clip0_2430_2365">
<rect width="65" height="65" fill="white"/>
</clipPath>
</defs>
</svg>
