<svg width="27" height="27" viewBox="0 0 27 27" fill="none" xmlns="http://www.w3.org/2000/svg">
						<path
							d="M12.3112 2.08586C12.6854 0.934226 14.3146 0.934226 14.6888 2.08586L16.4912 7.63298C16.8593 8.76605 17.9152 9.53319 19.1066 9.53319H24.9392C26.1501 9.53319 26.6536 11.0827 25.6739 11.7945L20.9552 15.2228C19.9914 15.923 19.5881 17.1643 19.9563 18.2974L21.7586 23.8445C22.1328 24.9961 20.8147 25.9538 19.8351 25.242L15.1164 21.8137C14.1526 21.1134 12.8474 21.1134 11.8836 21.8137L7.16493 25.242C6.18529 25.9538 4.86719 24.9961 5.24138 23.8445L7.04375 18.2974C7.4119 17.1643 7.00859 15.923 6.04475 15.2228L1.32609 11.7945C0.346448 11.0827 0.849916 9.53319 2.06082 9.53319H7.89341C9.08478 9.53319 10.1407 8.76604 10.5088 7.63298L12.3112 2.08586Z"
							stroke="#524633" stroke-width="1.5" />
					</svg>