<svg width="338" height="362" viewBox="0 0 338 362" fill="none" xmlns="http://www.w3.org/2000/svg">
<g filter="url(#filter0_d_5_4629)">
<g filter="url(#filter1_b_5_4629)">
<rect x="44.0996" y="40.5615" width="249.34" height="272.883" rx="30" fill="#7C5224" fill-opacity="0.2"/>
</g>
<circle cx="101.801" cy="98.4344" r="25.5975" fill="#A67F28"/>
<g clip-path="url(#clip0_5_4629)">
<path d="M101.298 100.242L93.0044 95.5977C91.9985 95.0199 91.9985 94.0675 93.0044 93.4896L101.298 88.8452C101.48 88.7596 101.683 88.7168 101.887 88.7168C102.09 88.7168 102.293 88.7596 102.475 88.8452L110.769 93.4896C111.775 94.0675 111.775 95.0199 110.769 95.5977L102.475 100.242C102.293 100.328 102.09 100.371 101.887 100.371C101.683 100.371 101.48 100.328 101.298 100.242Z" stroke="white" stroke-width="1.5" stroke-miterlimit="10" stroke-linecap="round"/>
<path d="M109.056 100.146L110.769 101.099C111.775 101.677 111.775 102.629 110.769 103.207L102.475 107.851C102.293 107.937 102.09 107.98 101.887 107.98C101.683 107.98 101.48 107.937 101.298 107.851L93.0044 103.207C91.9985 102.629 91.9985 101.677 93.0044 101.099L94.7059 100.146" stroke="white" stroke-width="1.5" stroke-miterlimit="10" stroke-linecap="round"/>
</g>
<path d="M281.668 78.0156L223.962 78.0156C223.354 78.0156 222.887 78.5533 222.972 79.1551L238.793 191.449" stroke="url(#paint0_diamond_5_4629)" stroke-opacity="0.13" stroke-width="23" stroke-linecap="round"/>
<path d="M83.0496 190.243V191.055H80.3336V200.029H79.3536V191.055H76.6236V190.243H83.0496ZM87.9431 200.141C87.2244 200.141 86.5757 199.983 85.9971 199.665C85.4277 199.339 84.9751 198.881 84.6391 198.293C84.3124 197.696 84.1491 197.001 84.1491 196.207C84.1491 195.414 84.3171 194.723 84.6531 194.135C84.9891 193.538 85.4464 193.081 86.0251 192.763C86.6037 192.437 87.2524 192.273 87.9711 192.273C88.6897 192.273 89.3384 192.437 89.9171 192.763C90.5051 193.081 90.9624 193.538 91.2891 194.135C91.6251 194.723 91.7931 195.414 91.7931 196.207C91.7931 196.991 91.6251 197.682 91.2891 198.279C90.9531 198.877 90.4911 199.339 89.9031 199.665C89.3151 199.983 88.6617 200.141 87.9431 200.141ZM87.9431 199.287C88.4471 199.287 88.9137 199.175 89.3431 198.951C89.7724 198.718 90.1177 198.373 90.3791 197.915C90.6497 197.449 90.7851 196.879 90.7851 196.207C90.7851 195.535 90.6544 194.971 90.3931 194.513C90.1317 194.047 89.7864 193.701 89.3571 193.477C88.9277 193.244 88.4611 193.127 87.9571 193.127C87.4531 193.127 86.9864 193.244 86.5571 193.477C86.1277 193.701 85.7824 194.047 85.5211 194.513C85.2691 194.971 85.1431 195.535 85.1431 196.207C85.1431 196.879 85.2691 197.449 85.5211 197.915C85.7824 198.373 86.1231 198.718 86.5431 198.951C86.9724 199.175 87.4391 199.287 87.9431 199.287ZM96.9255 200.141C96.2068 200.141 95.5581 199.983 94.9795 199.665C94.4101 199.339 93.9575 198.881 93.6215 198.293C93.2948 197.696 93.1315 197.001 93.1315 196.207C93.1315 195.414 93.2995 194.723 93.6355 194.135C93.9715 193.538 94.4288 193.081 95.0075 192.763C95.5861 192.437 96.2348 192.273 96.9535 192.273C97.6721 192.273 98.3208 192.437 98.8995 192.763C99.4875 193.081 99.9448 193.538 100.271 194.135C100.607 194.723 100.775 195.414 100.775 196.207C100.775 196.991 100.607 197.682 100.271 198.279C99.9355 198.877 99.4735 199.339 98.8855 199.665C98.2975 199.983 97.6441 200.141 96.9255 200.141ZM96.9255 199.287C97.4295 199.287 97.8961 199.175 98.3255 198.951C98.7548 198.718 99.1001 198.373 99.3615 197.915C99.6321 197.449 99.7675 196.879 99.7675 196.207C99.7675 195.535 99.6368 194.971 99.3755 194.513C99.1141 194.047 98.7688 193.701 98.3395 193.477C97.9101 193.244 97.4435 193.127 96.9395 193.127C96.4355 193.127 95.9688 193.244 95.5395 193.477C95.1101 193.701 94.7648 194.047 94.5035 194.513C94.2515 194.971 94.1255 195.535 94.1255 196.207C94.1255 196.879 94.2515 197.449 94.5035 197.915C94.7648 198.373 95.1055 198.718 95.5255 198.951C95.9548 199.175 96.4215 199.287 96.9255 199.287ZM103.542 189.669V200.029H102.562V189.669H103.542ZM108.393 200.141C107.516 200.141 106.797 199.941 106.237 199.539C105.686 199.129 105.378 198.573 105.313 197.873H106.321C106.368 198.303 106.568 198.653 106.923 198.923C107.287 199.185 107.772 199.315 108.379 199.315C108.911 199.315 109.326 199.189 109.625 198.937C109.933 198.685 110.087 198.373 110.087 197.999C110.087 197.738 110.003 197.523 109.835 197.355C109.667 197.187 109.452 197.057 109.191 196.963C108.939 196.861 108.594 196.753 108.155 196.641C107.586 196.492 107.124 196.343 106.769 196.193C106.414 196.044 106.111 195.825 105.859 195.535C105.616 195.237 105.495 194.84 105.495 194.345C105.495 193.972 105.607 193.627 105.831 193.309C106.055 192.992 106.372 192.74 106.783 192.553C107.194 192.367 107.66 192.273 108.183 192.273C109.004 192.273 109.667 192.483 110.171 192.903C110.675 193.314 110.946 193.883 110.983 194.611H110.003C109.975 194.163 109.798 193.804 109.471 193.533C109.154 193.253 108.715 193.113 108.155 193.113C107.66 193.113 107.259 193.23 106.951 193.463C106.643 193.697 106.489 193.986 106.489 194.331C106.489 194.63 106.578 194.877 106.755 195.073C106.942 195.26 107.17 195.409 107.441 195.521C107.712 195.624 108.076 195.741 108.533 195.871C109.084 196.021 109.522 196.165 109.849 196.305C110.176 196.445 110.456 196.651 110.689 196.921C110.922 197.192 111.044 197.551 111.053 197.999C111.053 198.41 110.941 198.779 110.717 199.105C110.493 199.423 110.18 199.675 109.779 199.861C109.378 200.048 108.916 200.141 108.393 200.141ZM119.75 193.211H117.972V200.029H116.992V193.211H115.928V192.385H116.992V191.853C116.992 191.023 117.202 190.411 117.622 190.019C118.051 189.627 118.742 189.431 119.694 189.431V190.271C119.059 190.271 118.611 190.393 118.35 190.635C118.098 190.878 117.972 191.284 117.972 191.853V192.385H119.75V193.211ZM124.638 200.141C123.92 200.141 123.271 199.983 122.692 199.665C122.123 199.339 121.67 198.881 121.334 198.293C121.008 197.696 120.844 197.001 120.844 196.207C120.844 195.414 121.012 194.723 121.348 194.135C121.684 193.538 122.142 193.081 122.72 192.763C123.299 192.437 123.948 192.273 124.666 192.273C125.385 192.273 126.034 192.437 126.612 192.763C127.2 193.081 127.658 193.538 127.984 194.135C128.32 194.723 128.488 195.414 128.488 196.207C128.488 196.991 128.32 197.682 127.984 198.279C127.648 198.877 127.186 199.339 126.598 199.665C126.01 199.983 125.357 200.141 124.638 200.141ZM124.638 199.287C125.142 199.287 125.609 199.175 126.038 198.951C126.468 198.718 126.813 198.373 127.074 197.915C127.345 197.449 127.48 196.879 127.48 196.207C127.48 195.535 127.35 194.971 127.088 194.513C126.827 194.047 126.482 193.701 126.052 193.477C125.623 193.244 125.156 193.127 124.652 193.127C124.148 193.127 123.682 193.244 123.252 193.477C122.823 193.701 122.478 194.047 122.216 194.513C121.964 194.971 121.838 195.535 121.838 196.207C121.838 196.879 121.964 197.449 122.216 197.915C122.478 198.373 122.818 198.718 123.238 198.951C123.668 199.175 124.134 199.287 124.638 199.287ZM131.255 193.743C131.469 193.267 131.796 192.899 132.235 192.637C132.683 192.376 133.229 192.245 133.873 192.245V193.267H133.607C132.897 193.267 132.328 193.459 131.899 193.841C131.469 194.224 131.255 194.863 131.255 195.759V200.029H130.275V192.385H131.255V193.743ZM141.821 200.141C140.944 200.141 140.225 199.941 139.665 199.539C139.114 199.129 138.806 198.573 138.741 197.873H139.749C139.796 198.303 139.996 198.653 140.351 198.923C140.715 199.185 141.2 199.315 141.807 199.315C142.339 199.315 142.754 199.189 143.053 198.937C143.361 198.685 143.515 198.373 143.515 197.999C143.515 197.738 143.431 197.523 143.263 197.355C143.095 197.187 142.88 197.057 142.619 196.963C142.367 196.861 142.022 196.753 141.583 196.641C141.014 196.492 140.552 196.343 140.197 196.193C139.842 196.044 139.539 195.825 139.287 195.535C139.044 195.237 138.923 194.84 138.923 194.345C138.923 193.972 139.035 193.627 139.259 193.309C139.483 192.992 139.8 192.74 140.211 192.553C140.622 192.367 141.088 192.273 141.611 192.273C142.432 192.273 143.095 192.483 143.599 192.903C144.103 193.314 144.374 193.883 144.411 194.611H143.431C143.403 194.163 143.226 193.804 142.899 193.533C142.582 193.253 142.143 193.113 141.583 193.113C141.088 193.113 140.687 193.23 140.379 193.463C140.071 193.697 139.917 193.986 139.917 194.331C139.917 194.63 140.006 194.877 140.183 195.073C140.37 195.26 140.598 195.409 140.869 195.521C141.14 195.624 141.504 195.741 141.961 195.871C142.512 196.021 142.95 196.165 143.277 196.305C143.604 196.445 143.884 196.651 144.117 196.921C144.35 197.192 144.472 197.551 144.481 197.999C144.481 198.41 144.369 198.779 144.145 199.105C143.921 199.423 143.608 199.675 143.207 199.861C142.806 200.048 142.344 200.141 141.821 200.141ZM153.242 195.815C153.242 196.151 153.232 196.408 153.214 196.585H146.872C146.9 197.164 147.04 197.659 147.292 198.069C147.544 198.48 147.875 198.793 148.286 199.007C148.696 199.213 149.144 199.315 149.63 199.315C150.264 199.315 150.796 199.161 151.226 198.853C151.664 198.545 151.954 198.13 152.094 197.607H153.13C152.943 198.354 152.542 198.965 151.926 199.441C151.319 199.908 150.554 200.141 149.63 200.141C148.911 200.141 148.267 199.983 147.698 199.665C147.128 199.339 146.68 198.881 146.354 198.293C146.036 197.696 145.878 197.001 145.878 196.207C145.878 195.414 146.036 194.719 146.354 194.121C146.671 193.524 147.114 193.067 147.684 192.749C148.253 192.432 148.902 192.273 149.63 192.273C150.358 192.273 150.992 192.432 151.534 192.749C152.084 193.067 152.504 193.496 152.794 194.037C153.092 194.569 153.242 195.162 153.242 195.815ZM152.248 195.787C152.257 195.218 152.14 194.733 151.898 194.331C151.664 193.93 151.342 193.627 150.932 193.421C150.521 193.216 150.073 193.113 149.588 193.113C148.86 193.113 148.239 193.347 147.726 193.813C147.212 194.28 146.928 194.938 146.872 195.787H152.248ZM156.309 193.211V197.957C156.309 198.424 156.397 198.746 156.575 198.923C156.752 199.101 157.065 199.189 157.513 199.189H158.409V200.029H157.359C156.668 200.029 156.155 199.871 155.819 199.553C155.483 199.227 155.315 198.695 155.315 197.957V193.211H154.251V192.385H155.315V190.467H156.309V192.385H158.409V193.211H156.309ZM161.299 193.211V197.957C161.299 198.424 161.387 198.746 161.565 198.923C161.742 199.101 162.055 199.189 162.503 199.189H163.399V200.029H162.349C161.658 200.029 161.145 199.871 160.809 199.553C160.473 199.227 160.305 198.695 160.305 197.957V193.211H159.241V192.385H160.305V190.467H161.299V192.385H163.399V193.211H161.299ZM165.505 190.943C165.309 190.943 165.141 190.873 165.001 190.733C164.861 190.593 164.791 190.421 164.791 190.215C164.791 190.01 164.861 189.842 165.001 189.711C165.141 189.571 165.309 189.501 165.505 189.501C165.701 189.501 165.869 189.571 166.009 189.711C166.149 189.842 166.219 190.01 166.219 190.215C166.219 190.421 166.149 190.593 166.009 190.733C165.869 190.873 165.701 190.943 165.505 190.943ZM165.995 192.385V200.029H165.015V192.385H165.995ZM171.798 192.245C172.713 192.245 173.46 192.53 174.038 193.099C174.617 193.659 174.906 194.476 174.906 195.549V200.029H173.94V195.661C173.94 194.831 173.73 194.196 173.31 193.757C172.9 193.319 172.335 193.099 171.616 193.099C170.879 193.099 170.291 193.333 169.852 193.799C169.414 194.266 169.194 194.952 169.194 195.857V200.029H168.214V192.385H169.194V193.687C169.437 193.221 169.787 192.866 170.244 192.623C170.702 192.371 171.22 192.245 171.798 192.245ZM180.28 192.273C180.998 192.273 181.624 192.441 182.156 192.777C182.688 193.113 183.07 193.538 183.304 194.051V192.385H184.284V200.225C184.284 200.925 184.13 201.546 183.822 202.087C183.523 202.629 183.103 203.044 182.562 203.333C182.02 203.632 181.404 203.781 180.714 203.781C179.734 203.781 178.917 203.548 178.264 203.081C177.62 202.615 177.218 201.98 177.06 201.177H178.026C178.194 201.709 178.511 202.134 178.978 202.451C179.454 202.769 180.032 202.927 180.714 202.927C181.208 202.927 181.652 202.82 182.044 202.605C182.436 202.4 182.744 202.092 182.968 201.681C183.192 201.271 183.304 200.785 183.304 200.225V198.335C183.061 198.858 182.674 199.292 182.142 199.637C181.619 199.973 180.998 200.141 180.28 200.141C179.58 200.141 178.95 199.978 178.39 199.651C177.839 199.325 177.405 198.863 177.088 198.265C176.78 197.668 176.626 196.977 176.626 196.193C176.626 195.409 176.78 194.723 177.088 194.135C177.405 193.538 177.839 193.081 178.39 192.763C178.95 192.437 179.58 192.273 180.28 192.273ZM183.304 196.207C183.304 195.591 183.178 195.05 182.926 194.583C182.674 194.117 182.328 193.757 181.89 193.505C181.46 193.253 180.984 193.127 180.462 193.127C179.92 193.127 179.435 193.249 179.006 193.491C178.576 193.734 178.236 194.089 177.984 194.555C177.741 195.013 177.62 195.559 177.62 196.193C177.62 196.819 177.741 197.369 177.984 197.845C178.236 198.312 178.576 198.671 179.006 198.923C179.435 199.166 179.92 199.287 180.462 199.287C180.984 199.287 181.46 199.161 181.89 198.909C182.328 198.657 182.674 198.298 182.926 197.831C183.178 197.365 183.304 196.823 183.304 196.207ZM193.569 192.273C194.287 192.273 194.913 192.441 195.445 192.777C195.977 193.113 196.359 193.538 196.593 194.051V192.385H197.573V200.225C197.573 200.925 197.419 201.546 197.111 202.087C196.812 202.629 196.392 203.044 195.851 203.333C195.309 203.632 194.693 203.781 194.003 203.781C193.023 203.781 192.206 203.548 191.553 203.081C190.909 202.615 190.507 201.98 190.349 201.177H191.315C191.483 201.709 191.8 202.134 192.267 202.451C192.743 202.769 193.321 202.927 194.003 202.927C194.497 202.927 194.941 202.82 195.333 202.605C195.725 202.4 196.033 202.092 196.257 201.681C196.481 201.271 196.593 200.785 196.593 200.225V198.335C196.35 198.858 195.963 199.292 195.431 199.637C194.908 199.973 194.287 200.141 193.569 200.141C192.869 200.141 192.239 199.978 191.679 199.651C191.128 199.325 190.694 198.863 190.377 198.265C190.069 197.668 189.915 196.977 189.915 196.193C189.915 195.409 190.069 194.723 190.377 194.135C190.694 193.538 191.128 193.081 191.679 192.763C192.239 192.437 192.869 192.273 193.569 192.273ZM196.593 196.207C196.593 195.591 196.467 195.05 196.215 194.583C195.963 194.117 195.617 193.757 195.179 193.505C194.749 193.253 194.273 193.127 193.751 193.127C193.209 193.127 192.724 193.249 192.295 193.491C191.865 193.734 191.525 194.089 191.273 194.555C191.03 195.013 190.909 195.559 190.909 196.193C190.909 196.819 191.03 197.369 191.273 197.845C191.525 198.312 191.865 198.671 192.295 198.923C192.724 199.166 193.209 199.287 193.751 199.287C194.273 199.287 194.749 199.161 195.179 198.909C195.617 198.657 195.963 198.298 196.215 197.831C196.467 197.365 196.593 196.823 196.593 196.207ZM203.156 200.141C202.437 200.141 201.789 199.983 201.21 199.665C200.641 199.339 200.188 198.881 199.852 198.293C199.525 197.696 199.362 197.001 199.362 196.207C199.362 195.414 199.53 194.723 199.866 194.135C200.202 193.538 200.659 193.081 201.238 192.763C201.817 192.437 202.465 192.273 203.184 192.273C203.903 192.273 204.551 192.437 205.13 192.763C205.718 193.081 206.175 193.538 206.502 194.135C206.838 194.723 207.006 195.414 207.006 196.207C207.006 196.991 206.838 197.682 206.502 198.279C206.166 198.877 205.704 199.339 205.116 199.665C204.528 199.983 203.875 200.141 203.156 200.141ZM203.156 199.287C203.66 199.287 204.127 199.175 204.556 198.951C204.985 198.718 205.331 198.373 205.592 197.915C205.863 197.449 205.998 196.879 205.998 196.207C205.998 195.535 205.867 194.971 205.606 194.513C205.345 194.047 204.999 193.701 204.57 193.477C204.141 193.244 203.674 193.127 203.17 193.127C202.666 193.127 202.199 193.244 201.77 193.477C201.341 193.701 200.995 194.047 200.734 194.513C200.482 194.971 200.356 195.535 200.356 196.207C200.356 196.879 200.482 197.449 200.734 197.915C200.995 198.373 201.336 198.718 201.756 198.951C202.185 199.175 202.652 199.287 203.156 199.287ZM208.344 196.193C208.344 195.409 208.498 194.723 208.806 194.135C209.124 193.538 209.558 193.081 210.108 192.763C210.668 192.437 211.298 192.273 211.998 192.273C212.726 192.273 213.352 192.441 213.874 192.777C214.406 193.113 214.789 193.543 215.022 194.065V192.385H216.002V200.029H215.022V198.335C214.78 198.858 214.392 199.292 213.86 199.637C213.338 199.973 212.712 200.141 211.984 200.141C211.294 200.141 210.668 199.978 210.108 199.651C209.558 199.325 209.124 198.863 208.806 198.265C208.498 197.668 208.344 196.977 208.344 196.193ZM215.022 196.207C215.022 195.591 214.896 195.05 214.644 194.583C214.392 194.117 214.047 193.757 213.608 193.505C213.179 193.253 212.703 193.127 212.18 193.127C211.639 193.127 211.154 193.249 210.724 193.491C210.295 193.734 209.954 194.089 209.702 194.555C209.46 195.013 209.338 195.559 209.338 196.193C209.338 196.819 209.46 197.369 209.702 197.845C209.954 198.312 210.295 198.671 210.724 198.923C211.154 199.166 211.639 199.287 212.18 199.287C212.703 199.287 213.179 199.161 213.608 198.909C214.047 198.657 214.392 198.298 214.644 197.831C214.896 197.365 215.022 196.823 215.022 196.207ZM219.22 189.669V200.029H218.24V189.669H219.22ZM224.071 200.141C223.194 200.141 222.475 199.941 221.915 199.539C221.364 199.129 221.056 198.573 220.991 197.873H221.999C222.046 198.303 222.246 198.653 222.601 198.923C222.965 199.185 223.45 199.315 224.057 199.315C224.589 199.315 225.004 199.189 225.303 198.937C225.611 198.685 225.765 198.373 225.765 197.999C225.765 197.738 225.681 197.523 225.513 197.355C225.345 197.187 225.13 197.057 224.869 196.963C224.617 196.861 224.272 196.753 223.833 196.641C223.264 196.492 222.802 196.343 222.447 196.193C222.092 196.044 221.789 195.825 221.537 195.535C221.294 195.237 221.173 194.84 221.173 194.345C221.173 193.972 221.285 193.627 221.509 193.309C221.733 192.992 222.05 192.74 222.461 192.553C222.872 192.367 223.338 192.273 223.861 192.273C224.682 192.273 225.345 192.483 225.849 192.903C226.353 193.314 226.624 193.883 226.661 194.611H225.681C225.653 194.163 225.476 193.804 225.149 193.533C224.832 193.253 224.393 193.113 223.833 193.113C223.338 193.113 222.937 193.23 222.629 193.463C222.321 193.697 222.167 193.986 222.167 194.331C222.167 194.63 222.256 194.877 222.433 195.073C222.62 195.26 222.848 195.409 223.119 195.521C223.39 195.624 223.754 195.741 224.211 195.871C224.762 196.021 225.2 196.165 225.527 196.305C225.854 196.445 226.134 196.651 226.367 196.921C226.6 197.192 226.722 197.551 226.731 197.999C226.731 198.41 226.619 198.779 226.395 199.105C226.171 199.423 225.858 199.675 225.457 199.861C225.056 200.048 224.594 200.141 224.071 200.141ZM229.472 198.405L228.016 202.073H227.344L228.38 198.405H229.472ZM86.4236 213.245C87.3196 213.245 88.0476 213.53 88.6076 214.099C89.1769 214.659 89.4616 215.476 89.4616 216.549V221.029H88.4956V216.661C88.4956 215.831 88.2949 215.196 87.8936 214.757C87.4923 214.319 86.9463 214.099 86.2556 214.099C85.5369 214.099 84.9629 214.337 84.5336 214.813C84.1043 215.289 83.8896 215.98 83.8896 216.885V221.029H82.9236V216.661C82.9236 215.831 82.7229 215.196 82.3216 214.757C81.9203 214.319 81.3696 214.099 80.6696 214.099C79.9509 214.099 79.3769 214.337 78.9476 214.813C78.5183 215.289 78.3036 215.98 78.3036 216.885V221.029H77.3236V213.385H78.3036V214.701C78.5463 214.225 78.8916 213.866 79.3396 213.623C79.7876 213.371 80.2869 213.245 80.8376 213.245C81.5003 213.245 82.0789 213.404 82.5736 213.721C83.0776 214.039 83.4416 214.505 83.6656 215.121C83.8709 214.515 84.2209 214.053 84.7156 213.735C85.2196 213.409 85.7889 213.245 86.4236 213.245ZM91.1901 217.193C91.1901 216.409 91.3441 215.723 91.6521 215.135C91.9694 214.538 92.4034 214.081 92.9541 213.763C93.5141 213.437 94.1441 213.273 94.8441 213.273C95.5721 213.273 96.1974 213.441 96.7201 213.777C97.2521 214.113 97.6347 214.543 97.8681 215.065V213.385H98.8481V221.029H97.8681V219.335C97.6254 219.858 97.2381 220.292 96.7061 220.637C96.1834 220.973 95.5581 221.141 94.8301 221.141C94.1394 221.141 93.5141 220.978 92.9541 220.651C92.4034 220.325 91.9694 219.863 91.6521 219.265C91.3441 218.668 91.1901 217.977 91.1901 217.193ZM97.8681 217.207C97.8681 216.591 97.7421 216.05 97.4901 215.583C97.2381 215.117 96.8927 214.757 96.4541 214.505C96.0247 214.253 95.5487 214.127 95.0261 214.127C94.4847 214.127 93.9994 214.249 93.5701 214.491C93.1407 214.734 92.8001 215.089 92.5481 215.555C92.3054 216.013 92.1841 216.559 92.1841 217.193C92.1841 217.819 92.3054 218.369 92.5481 218.845C92.8001 219.312 93.1407 219.671 93.5701 219.923C93.9994 220.166 94.4847 220.287 95.0261 220.287C95.5487 220.287 96.0247 220.161 96.4541 219.909C96.8927 219.657 97.2381 219.298 97.4901 218.831C97.7421 218.365 97.8681 217.823 97.8681 217.207ZM104.669 213.245C105.584 213.245 106.331 213.53 106.909 214.099C107.488 214.659 107.777 215.476 107.777 216.549V221.029H106.811V216.661C106.811 215.831 106.601 215.196 106.181 214.757C105.771 214.319 105.206 214.099 104.487 214.099C103.75 214.099 103.162 214.333 102.723 214.799C102.285 215.266 102.065 215.952 102.065 216.857V221.029H101.085V213.385H102.065V214.687C102.308 214.221 102.658 213.866 103.115 213.623C103.573 213.371 104.091 213.245 104.669 213.245ZM109.497 217.193C109.497 216.409 109.651 215.723 109.959 215.135C110.276 214.538 110.71 214.081 111.261 213.763C111.821 213.437 112.451 213.273 113.151 213.273C113.879 213.273 114.504 213.441 115.027 213.777C115.559 214.113 115.941 214.543 116.175 215.065V213.385H117.155V221.029H116.175V219.335C115.932 219.858 115.545 220.292 115.013 220.637C114.49 220.973 113.865 221.141 113.137 221.141C112.446 221.141 111.821 220.978 111.261 220.651C110.71 220.325 110.276 219.863 109.959 219.265C109.651 218.668 109.497 217.977 109.497 217.193ZM116.175 217.207C116.175 216.591 116.049 216.05 115.797 215.583C115.545 215.117 115.199 214.757 114.761 214.505C114.331 214.253 113.855 214.127 113.333 214.127C112.791 214.127 112.306 214.249 111.877 214.491C111.447 214.734 111.107 215.089 110.855 215.555C110.612 216.013 110.491 216.559 110.491 217.193C110.491 217.819 110.612 218.369 110.855 218.845C111.107 219.312 111.447 219.671 111.877 219.923C112.306 220.166 112.791 220.287 113.333 220.287C113.855 220.287 114.331 220.161 114.761 219.909C115.199 219.657 115.545 219.298 115.797 218.831C116.049 218.365 116.175 217.823 116.175 217.207ZM122.598 213.273C123.317 213.273 123.942 213.441 124.474 213.777C125.006 214.113 125.389 214.538 125.622 215.051V213.385H126.602V221.225C126.602 221.925 126.448 222.546 126.14 223.087C125.841 223.629 125.421 224.044 124.88 224.333C124.339 224.632 123.723 224.781 123.032 224.781C122.052 224.781 121.235 224.548 120.582 224.081C119.938 223.615 119.537 222.98 119.378 222.177H120.344C120.512 222.709 120.829 223.134 121.296 223.451C121.772 223.769 122.351 223.927 123.032 223.927C123.527 223.927 123.97 223.82 124.362 223.605C124.754 223.4 125.062 223.092 125.286 222.681C125.51 222.271 125.622 221.785 125.622 221.225V219.335C125.379 219.858 124.992 220.292 124.46 220.637C123.937 220.973 123.317 221.141 122.598 221.141C121.898 221.141 121.268 220.978 120.708 220.651C120.157 220.325 119.723 219.863 119.406 219.265C119.098 218.668 118.944 217.977 118.944 217.193C118.944 216.409 119.098 215.723 119.406 215.135C119.723 214.538 120.157 214.081 120.708 213.763C121.268 213.437 121.898 213.273 122.598 213.273ZM125.622 217.207C125.622 216.591 125.496 216.05 125.244 215.583C124.992 215.117 124.647 214.757 124.208 214.505C123.779 214.253 123.303 214.127 122.78 214.127C122.239 214.127 121.753 214.249 121.324 214.491C120.895 214.734 120.554 215.089 120.302 215.555C120.059 216.013 119.938 216.559 119.938 217.193C119.938 217.819 120.059 218.369 120.302 218.845C120.554 219.312 120.895 219.671 121.324 219.923C121.753 220.166 122.239 220.287 122.78 220.287C123.303 220.287 123.779 220.161 124.208 219.909C124.647 219.657 124.992 219.298 125.244 218.831C125.496 218.365 125.622 217.823 125.622 217.207ZM129.329 211.943C129.133 211.943 128.965 211.873 128.825 211.733C128.685 211.593 128.615 211.421 128.615 211.215C128.615 211.01 128.685 210.842 128.825 210.711C128.965 210.571 129.133 210.501 129.329 210.501C129.525 210.501 129.693 210.571 129.833 210.711C129.973 210.842 130.043 211.01 130.043 211.215C130.043 211.421 129.973 211.593 129.833 211.733C129.693 211.873 129.525 211.943 129.329 211.943ZM129.819 213.385V221.029H128.839V213.385H129.819ZM135.622 213.245C136.537 213.245 137.284 213.53 137.862 214.099C138.441 214.659 138.73 215.476 138.73 216.549V221.029H137.764V216.661C137.764 215.831 137.554 215.196 137.134 214.757C136.724 214.319 136.159 214.099 135.44 214.099C134.703 214.099 134.115 214.333 133.676 214.799C133.238 215.266 133.018 215.952 133.018 216.857V221.029H132.038V213.385H133.018V214.687C133.261 214.221 133.611 213.866 134.068 213.623C134.526 213.371 135.044 213.245 135.622 213.245ZM144.104 213.273C144.822 213.273 145.448 213.441 145.98 213.777C146.512 214.113 146.894 214.538 147.128 215.051V213.385H148.108V221.225C148.108 221.925 147.954 222.546 147.646 223.087C147.347 223.629 146.927 224.044 146.386 224.333C145.844 224.632 145.228 224.781 144.538 224.781C143.558 224.781 142.741 224.548 142.088 224.081C141.444 223.615 141.042 222.98 140.884 222.177H141.85C142.018 222.709 142.335 223.134 142.802 223.451C143.278 223.769 143.856 223.927 144.538 223.927C145.032 223.927 145.476 223.82 145.868 223.605C146.26 223.4 146.568 223.092 146.792 222.681C147.016 222.271 147.128 221.785 147.128 221.225V219.335C146.885 219.858 146.498 220.292 145.966 220.637C145.443 220.973 144.822 221.141 144.104 221.141C143.404 221.141 142.774 220.978 142.214 220.651C141.663 220.325 141.229 219.863 140.912 219.265C140.604 218.668 140.45 217.977 140.45 217.193C140.45 216.409 140.604 215.723 140.912 215.135C141.229 214.538 141.663 214.081 142.214 213.763C142.774 213.437 143.404 213.273 144.104 213.273ZM147.128 217.207C147.128 216.591 147.002 216.05 146.75 215.583C146.498 215.117 146.152 214.757 145.714 214.505C145.284 214.253 144.808 214.127 144.286 214.127C143.744 214.127 143.259 214.249 142.83 214.491C142.4 214.734 142.06 215.089 141.808 215.555C141.565 216.013 141.444 216.559 141.444 217.193C141.444 217.819 141.565 218.369 141.808 218.845C142.06 219.312 142.4 219.671 142.83 219.923C143.259 220.166 143.744 220.287 144.286 220.287C144.808 220.287 145.284 220.161 145.714 219.909C146.152 219.657 146.498 219.298 146.75 218.831C147.002 218.365 147.128 217.823 147.128 217.207ZM157.197 214.211H155.419V221.029H154.439V214.211H153.375V213.385H154.439V212.853C154.439 212.023 154.649 211.411 155.069 211.019C155.498 210.627 156.189 210.431 157.141 210.431V211.271C156.506 211.271 156.058 211.393 155.797 211.635C155.545 211.878 155.419 212.284 155.419 212.853V213.385H157.197V214.211ZM159.23 211.943C159.034 211.943 158.866 211.873 158.726 211.733C158.586 211.593 158.516 211.421 158.516 211.215C158.516 211.01 158.586 210.842 158.726 210.711C158.866 210.571 159.034 210.501 159.23 210.501C159.426 210.501 159.594 210.571 159.734 210.711C159.874 210.842 159.944 211.01 159.944 211.215C159.944 211.421 159.874 211.593 159.734 211.733C159.594 211.873 159.426 211.943 159.23 211.943ZM159.72 213.385V221.029H158.74V213.385H159.72ZM165.523 213.245C166.438 213.245 167.184 213.53 167.763 214.099C168.342 214.659 168.631 215.476 168.631 216.549V221.029H167.665V216.661C167.665 215.831 167.455 215.196 167.035 214.757C166.624 214.319 166.06 214.099 165.341 214.099C164.604 214.099 164.016 214.333 163.577 214.799C163.138 215.266 162.919 215.952 162.919 216.857V221.029H161.939V213.385H162.919V214.687C163.162 214.221 163.512 213.866 163.969 213.623C164.426 213.371 164.944 213.245 165.523 213.245ZM170.35 217.193C170.35 216.409 170.504 215.723 170.812 215.135C171.13 214.538 171.564 214.081 172.114 213.763C172.674 213.437 173.304 213.273 174.004 213.273C174.732 213.273 175.358 213.441 175.88 213.777C176.412 214.113 176.795 214.543 177.028 215.065V213.385H178.008V221.029H177.028V219.335C176.786 219.858 176.398 220.292 175.866 220.637C175.344 220.973 174.718 221.141 173.99 221.141C173.3 221.141 172.674 220.978 172.114 220.651C171.564 220.325 171.13 219.863 170.812 219.265C170.504 218.668 170.35 217.977 170.35 217.193ZM177.028 217.207C177.028 216.591 176.902 216.05 176.65 215.583C176.398 215.117 176.053 214.757 175.614 214.505C175.185 214.253 174.709 214.127 174.186 214.127C173.645 214.127 173.16 214.249 172.73 214.491C172.301 214.734 171.96 215.089 171.708 215.555C171.466 216.013 171.344 216.559 171.344 217.193C171.344 217.819 171.466 218.369 171.708 218.845C171.96 219.312 172.301 219.671 172.73 219.923C173.16 220.166 173.645 220.287 174.186 220.287C174.709 220.287 175.185 220.161 175.614 219.909C176.053 219.657 176.398 219.298 176.65 218.831C176.902 218.365 177.028 217.823 177.028 217.207ZM183.829 213.245C184.744 213.245 185.491 213.53 186.069 214.099C186.648 214.659 186.937 215.476 186.937 216.549V221.029H185.971V216.661C185.971 215.831 185.761 215.196 185.341 214.757C184.931 214.319 184.366 214.099 183.647 214.099C182.91 214.099 182.322 214.333 181.883 214.799C181.445 215.266 181.225 215.952 181.225 216.857V221.029H180.245V213.385H181.225V214.687C181.468 214.221 181.818 213.866 182.275 213.623C182.733 213.371 183.251 213.245 183.829 213.245ZM188.657 217.207C188.657 216.414 188.816 215.723 189.133 215.135C189.45 214.538 189.889 214.081 190.449 213.763C191.009 213.437 191.648 213.273 192.367 213.273C193.31 213.273 194.084 213.507 194.691 213.973C195.307 214.44 195.704 215.075 195.881 215.877H194.831C194.7 215.327 194.416 214.897 193.977 214.589C193.548 214.272 193.011 214.113 192.367 214.113C191.854 214.113 191.392 214.23 190.981 214.463C190.57 214.697 190.244 215.047 190.001 215.513C189.768 215.971 189.651 216.535 189.651 217.207C189.651 217.879 189.768 218.449 190.001 218.915C190.244 219.382 190.57 219.732 190.981 219.965C191.392 220.199 191.854 220.315 192.367 220.315C193.011 220.315 193.548 220.161 193.977 219.853C194.416 219.536 194.7 219.097 194.831 218.537H195.881C195.704 219.321 195.307 219.951 194.691 220.427C194.075 220.903 193.3 221.141 192.367 221.141C191.648 221.141 191.009 220.983 190.449 220.665C189.889 220.339 189.45 219.881 189.133 219.293C188.816 218.696 188.657 218.001 188.657 217.207ZM204.607 216.815C204.607 217.151 204.597 217.408 204.579 217.585H198.237C198.265 218.164 198.405 218.659 198.657 219.069C198.909 219.48 199.24 219.793 199.651 220.007C200.061 220.213 200.509 220.315 200.995 220.315C201.629 220.315 202.161 220.161 202.591 219.853C203.029 219.545 203.319 219.13 203.459 218.607H204.495C204.308 219.354 203.907 219.965 203.291 220.441C202.684 220.908 201.919 221.141 200.995 221.141C200.276 221.141 199.632 220.983 199.063 220.665C198.493 220.339 198.045 219.881 197.719 219.293C197.401 218.696 197.243 218.001 197.243 217.207C197.243 216.414 197.401 215.719 197.719 215.121C198.036 214.524 198.479 214.067 199.049 213.749C199.618 213.432 200.267 213.273 200.995 213.273C201.723 213.273 202.357 213.432 202.899 213.749C203.449 214.067 203.869 214.496 204.159 215.037C204.457 215.569 204.607 216.162 204.607 216.815ZM203.613 216.787C203.622 216.218 203.505 215.733 203.263 215.331C203.029 214.93 202.707 214.627 202.297 214.421C201.886 214.216 201.438 214.113 200.953 214.113C200.225 214.113 199.604 214.347 199.091 214.813C198.577 215.28 198.293 215.938 198.237 216.787H203.613ZM209.032 221.141C208.154 221.141 207.436 220.941 206.876 220.539C206.325 220.129 206.017 219.573 205.952 218.873H206.96C207.006 219.303 207.207 219.653 207.562 219.923C207.926 220.185 208.411 220.315 209.018 220.315C209.55 220.315 209.965 220.189 210.264 219.937C210.572 219.685 210.726 219.373 210.726 218.999C210.726 218.738 210.642 218.523 210.474 218.355C210.306 218.187 210.091 218.057 209.83 217.963C209.578 217.861 209.232 217.753 208.794 217.641C208.224 217.492 207.762 217.343 207.408 217.193C207.053 217.044 206.75 216.825 206.498 216.535C206.255 216.237 206.134 215.84 206.134 215.345C206.134 214.972 206.246 214.627 206.47 214.309C206.694 213.992 207.011 213.74 207.422 213.553C207.832 213.367 208.299 213.273 208.822 213.273C209.643 213.273 210.306 213.483 210.81 213.903C211.314 214.314 211.584 214.883 211.622 215.611H210.642C210.614 215.163 210.436 214.804 210.11 214.533C209.792 214.253 209.354 214.113 208.794 214.113C208.299 214.113 207.898 214.23 207.59 214.463C207.282 214.697 207.128 214.986 207.128 215.331C207.128 215.63 207.216 215.877 207.394 216.073C207.58 216.26 207.809 216.409 208.08 216.521C208.35 216.624 208.714 216.741 209.172 216.871C209.722 217.021 210.161 217.165 210.488 217.305C210.814 217.445 211.094 217.651 211.328 217.921C211.561 218.192 211.682 218.551 211.692 218.999C211.692 219.41 211.58 219.779 211.356 220.105C211.132 220.423 210.819 220.675 210.418 220.861C210.016 221.048 209.554 221.141 209.032 221.141ZM214.433 219.405L212.977 223.073H212.305L213.341 219.405H214.433ZM219.35 217.193C219.35 216.409 219.504 215.723 219.812 215.135C220.13 214.538 220.564 214.081 221.114 213.763C221.674 213.437 222.304 213.273 223.004 213.273C223.732 213.273 224.358 213.441 224.88 213.777C225.412 214.113 225.795 214.543 226.028 215.065V213.385H227.008V221.029H226.028V219.335C225.786 219.858 225.398 220.292 224.866 220.637C224.344 220.973 223.718 221.141 222.99 221.141C222.3 221.141 221.674 220.978 221.114 220.651C220.564 220.325 220.13 219.863 219.812 219.265C219.504 218.668 219.35 217.977 219.35 217.193ZM226.028 217.207C226.028 216.591 225.902 216.05 225.65 215.583C225.398 215.117 225.053 214.757 224.614 214.505C224.185 214.253 223.709 214.127 223.186 214.127C222.645 214.127 222.16 214.249 221.73 214.491C221.301 214.734 220.96 215.089 220.708 215.555C220.466 216.013 220.344 216.559 220.344 217.193C220.344 217.819 220.466 218.369 220.708 218.845C220.96 219.312 221.301 219.671 221.73 219.923C222.16 220.166 222.645 220.287 223.186 220.287C223.709 220.287 224.185 220.161 224.614 219.909C225.053 219.657 225.398 219.298 225.65 218.831C225.902 218.365 226.028 217.823 226.028 217.207ZM232.829 213.245C233.744 213.245 234.491 213.53 235.069 214.099C235.648 214.659 235.937 215.476 235.937 216.549V221.029H234.971V216.661C234.971 215.831 234.761 215.196 234.341 214.757C233.931 214.319 233.366 214.099 232.647 214.099C231.91 214.099 231.322 214.333 230.883 214.799C230.445 215.266 230.225 215.952 230.225 216.857V221.029H229.245V213.385H230.225V214.687C230.468 214.221 230.818 213.866 231.275 213.623C231.733 213.371 232.251 213.245 232.829 213.245ZM237.657 217.193C237.657 216.409 237.816 215.723 238.133 215.135C238.45 214.538 238.884 214.081 239.435 213.763C239.995 213.437 240.625 213.273 241.325 213.273C241.997 213.273 242.604 213.437 243.145 213.763C243.686 214.09 244.083 214.515 244.335 215.037V210.669H245.315V221.029H244.335V219.321C244.102 219.853 243.719 220.292 243.187 220.637C242.655 220.973 242.03 221.141 241.311 221.141C240.611 221.141 239.981 220.978 239.421 220.651C238.87 220.325 238.436 219.863 238.119 219.265C237.811 218.668 237.657 217.977 237.657 217.193ZM244.335 217.207C244.335 216.591 244.209 216.05 243.957 215.583C243.705 215.117 243.36 214.757 242.921 214.505C242.492 214.253 242.016 214.127 241.493 214.127C240.952 214.127 240.466 214.249 240.037 214.491C239.608 214.734 239.267 215.089 239.015 215.555C238.772 216.013 238.651 216.559 238.651 217.193C238.651 217.819 238.772 218.369 239.015 218.845C239.267 219.312 239.608 219.671 240.037 219.923C240.466 220.166 240.952 220.287 241.493 220.287C242.016 220.287 242.492 220.161 242.921 219.909C243.36 219.657 243.705 219.298 243.957 218.831C244.209 218.365 244.335 217.823 244.335 217.207ZM76.8756 238.207C76.8756 237.414 77.0343 236.723 77.3516 236.135C77.6689 235.538 78.1076 235.081 78.6676 234.763C79.2276 234.437 79.8669 234.273 80.5856 234.273C81.5283 234.273 82.3029 234.507 82.9096 234.973C83.5256 235.44 83.9223 236.075 84.0996 236.877H83.0496C82.9189 236.327 82.6343 235.897 82.1956 235.589C81.7663 235.272 81.2296 235.113 80.5856 235.113C80.0723 235.113 79.6103 235.23 79.1996 235.463C78.7889 235.697 78.4623 236.047 78.2196 236.513C77.9863 236.971 77.8696 237.535 77.8696 238.207C77.8696 238.879 77.9863 239.449 78.2196 239.915C78.4623 240.382 78.7889 240.732 79.1996 240.965C79.6103 241.199 80.0723 241.315 80.5856 241.315C81.2296 241.315 81.7663 241.161 82.1956 240.853C82.6343 240.536 82.9189 240.097 83.0496 239.537H84.0996C83.9223 240.321 83.5256 240.951 82.9096 241.427C82.2936 241.903 81.5189 242.141 80.5856 242.141C79.8669 242.141 79.2276 241.983 78.6676 241.665C78.1076 241.339 77.6689 240.881 77.3516 240.293C77.0343 239.696 76.8756 239.001 76.8756 238.207ZM85.4616 238.193C85.4616 237.409 85.6156 236.723 85.9236 236.135C86.2409 235.538 86.6749 235.081 87.2256 234.763C87.7856 234.437 88.4156 234.273 89.1156 234.273C89.8436 234.273 90.4689 234.441 90.9916 234.777C91.5236 235.113 91.9062 235.543 92.1396 236.065V234.385H93.1196V242.029H92.1396V240.335C91.8969 240.858 91.5096 241.292 90.9776 241.637C90.4549 241.973 89.8296 242.141 89.1016 242.141C88.4109 242.141 87.7856 241.978 87.2256 241.651C86.6749 241.325 86.2409 240.863 85.9236 240.265C85.6156 239.668 85.4616 238.977 85.4616 238.193ZM92.1396 238.207C92.1396 237.591 92.0136 237.05 91.7616 236.583C91.5096 236.117 91.1642 235.757 90.7256 235.505C90.2962 235.253 89.8202 235.127 89.2976 235.127C88.7562 235.127 88.2709 235.249 87.8416 235.491C87.4122 235.734 87.0716 236.089 86.8196 236.555C86.5769 237.013 86.4556 237.559 86.4556 238.193C86.4556 238.819 86.5769 239.369 86.8196 239.845C87.0716 240.312 87.4122 240.671 87.8416 240.923C88.2709 241.166 88.7562 241.287 89.2976 241.287C89.8202 241.287 90.2962 241.161 90.7256 240.909C91.1642 240.657 91.5096 240.298 91.7616 239.831C92.0136 239.365 92.1396 238.823 92.1396 238.207ZM96.3368 235.743C96.5515 235.267 96.8781 234.899 97.3168 234.637C97.7648 234.376 98.3108 234.245 98.9548 234.245V235.267H98.6888C97.9795 235.267 97.4101 235.459 96.9808 235.841C96.5515 236.224 96.3368 236.863 96.3368 237.759V242.029H95.3568V234.385H96.3368V235.743ZM107.345 237.815C107.345 238.151 107.336 238.408 107.317 238.585H100.975C101.003 239.164 101.143 239.659 101.395 240.069C101.647 240.48 101.978 240.793 102.389 241.007C102.8 241.213 103.248 241.315 103.733 241.315C104.368 241.315 104.9 241.161 105.329 240.853C105.768 240.545 106.057 240.13 106.197 239.607H107.233C107.046 240.354 106.645 240.965 106.029 241.441C105.422 241.908 104.657 242.141 103.733 242.141C103.014 242.141 102.37 241.983 101.801 241.665C101.232 241.339 100.784 240.881 100.457 240.293C100.14 239.696 99.9811 239.001 99.9811 238.207C99.9811 237.414 100.14 236.719 100.457 236.121C100.774 235.524 101.218 235.067 101.787 234.749C102.356 234.432 103.005 234.273 103.733 234.273C104.461 234.273 105.096 234.432 105.637 234.749C106.188 235.067 106.608 235.496 106.897 236.037C107.196 236.569 107.345 237.162 107.345 237.815ZM106.351 237.787C106.36 237.218 106.244 236.733 106.001 236.331C105.768 235.93 105.446 235.627 105.035 235.421C104.624 235.216 104.176 235.113 103.691 235.113C102.963 235.113 102.342 235.347 101.829 235.813C101.316 236.28 101.031 236.938 100.975 237.787H106.351ZM116.054 237.815C116.054 238.151 116.045 238.408 116.026 238.585H109.684C109.712 239.164 109.852 239.659 110.104 240.069C110.356 240.48 110.687 240.793 111.098 241.007C111.509 241.213 111.957 241.315 112.442 241.315C113.077 241.315 113.609 241.161 114.038 240.853C114.477 240.545 114.766 240.13 114.906 239.607H115.942C115.755 240.354 115.354 240.965 114.738 241.441C114.131 241.908 113.366 242.141 112.442 242.141C111.723 242.141 111.079 241.983 110.51 241.665C109.941 241.339 109.493 240.881 109.166 240.293C108.849 239.696 108.69 239.001 108.69 238.207C108.69 237.414 108.849 236.719 109.166 236.121C109.483 235.524 109.927 235.067 110.496 234.749C111.065 234.432 111.714 234.273 112.442 234.273C113.17 234.273 113.805 234.432 114.346 234.749C114.897 235.067 115.317 235.496 115.606 236.037C115.905 236.569 116.054 237.162 116.054 237.815ZM115.06 237.787C115.069 237.218 114.953 236.733 114.71 236.331C114.477 235.93 114.155 235.627 113.744 235.421C113.333 235.216 112.885 235.113 112.4 235.113C111.672 235.113 111.051 235.347 110.538 235.813C110.025 236.28 109.74 236.938 109.684 237.787H115.06ZM118.827 235.743C119.042 235.267 119.368 234.899 119.807 234.637C120.255 234.376 120.801 234.245 121.445 234.245V235.267H121.179C120.47 235.267 119.9 235.459 119.471 235.841C119.042 236.224 118.827 236.863 118.827 237.759V242.029H117.847V234.385H118.827V235.743ZM126.313 238.193C126.313 237.409 126.472 236.723 126.789 236.135C127.106 235.538 127.54 235.081 128.091 234.763C128.651 234.437 129.281 234.273 129.981 234.273C130.653 234.273 131.26 234.437 131.801 234.763C132.342 235.09 132.739 235.515 132.991 236.037V231.669H133.971V242.029H132.991V240.321C132.758 240.853 132.375 241.292 131.843 241.637C131.311 241.973 130.686 242.141 129.967 242.141C129.267 242.141 128.637 241.978 128.077 241.651C127.526 241.325 127.092 240.863 126.775 240.265C126.467 239.668 126.313 238.977 126.313 238.193ZM132.991 238.207C132.991 237.591 132.865 237.05 132.613 236.583C132.361 236.117 132.016 235.757 131.577 235.505C131.148 235.253 130.672 235.127 130.149 235.127C129.608 235.127 129.122 235.249 128.693 235.491C128.264 235.734 127.923 236.089 127.671 236.555C127.428 237.013 127.307 237.559 127.307 238.193C127.307 238.819 127.428 239.369 127.671 239.845C127.923 240.312 128.264 240.671 128.693 240.923C129.122 241.166 129.608 241.287 130.149 241.287C130.672 241.287 131.148 241.161 131.577 240.909C132.016 240.657 132.361 240.298 132.613 239.831C132.865 239.365 132.991 238.823 132.991 238.207ZM143.124 237.815C143.124 238.151 143.115 238.408 143.096 238.585H136.754C136.782 239.164 136.922 239.659 137.174 240.069C137.426 240.48 137.758 240.793 138.168 241.007C138.579 241.213 139.027 241.315 139.512 241.315C140.147 241.315 140.679 241.161 141.108 240.853C141.547 240.545 141.836 240.13 141.976 239.607H143.012C142.826 240.354 142.424 240.965 141.808 241.441C141.202 241.908 140.436 242.141 139.512 242.141C138.794 242.141 138.15 241.983 137.58 241.665C137.011 241.339 136.563 240.881 136.236 240.293C135.919 239.696 135.76 239.001 135.76 238.207C135.76 237.414 135.919 236.719 136.236 236.121C136.554 235.524 136.997 235.067 137.566 234.749C138.136 234.432 138.784 234.273 139.512 234.273C140.24 234.273 140.875 234.432 141.416 234.749C141.967 235.067 142.387 235.496 142.676 236.037C142.975 236.569 143.124 237.162 143.124 237.815ZM142.13 237.787C142.14 237.218 142.023 236.733 141.78 236.331C141.547 235.93 141.225 235.627 140.814 235.421C140.404 235.216 139.956 235.113 139.47 235.113C138.742 235.113 138.122 235.347 137.608 235.813C137.095 236.28 136.81 236.938 136.754 237.787H142.13ZM147.633 241.077L150.209 234.385H151.245L148.179 242.029H147.073L144.007 234.385H145.057L147.633 241.077ZM159.49 237.815C159.49 238.151 159.48 238.408 159.462 238.585H153.12C153.148 239.164 153.288 239.659 153.54 240.069C153.792 240.48 154.123 240.793 154.534 241.007C154.944 241.213 155.392 241.315 155.878 241.315C156.512 241.315 157.044 241.161 157.474 240.853C157.912 240.545 158.202 240.13 158.342 239.607H159.378C159.191 240.354 158.79 240.965 158.174 241.441C157.567 241.908 156.802 242.141 155.878 242.141C155.159 242.141 154.515 241.983 153.946 241.665C153.376 241.339 152.928 240.881 152.602 240.293C152.284 239.696 152.126 239.001 152.126 238.207C152.126 237.414 152.284 236.719 152.602 236.121C152.919 235.524 153.362 235.067 153.932 234.749C154.501 234.432 155.15 234.273 155.878 234.273C156.606 234.273 157.24 234.432 157.782 234.749C158.332 235.067 158.752 235.496 159.042 236.037C159.34 236.569 159.49 237.162 159.49 237.815ZM158.496 237.787C158.505 237.218 158.388 236.733 158.146 236.331C157.912 235.93 157.59 235.627 157.18 235.421C156.769 235.216 156.321 235.113 155.836 235.113C155.108 235.113 154.487 235.347 153.974 235.813C153.46 236.28 153.176 236.938 153.12 237.787H158.496ZM162.263 231.669V242.029H161.283V231.669H162.263ZM167.828 242.141C167.109 242.141 166.46 241.983 165.882 241.665C165.312 241.339 164.86 240.881 164.524 240.293C164.197 239.696 164.034 239.001 164.034 238.207C164.034 237.414 164.202 236.723 164.538 236.135C164.874 235.538 165.331 235.081 165.91 234.763C166.488 234.437 167.137 234.273 167.856 234.273C168.574 234.273 169.223 234.437 169.802 234.763C170.39 235.081 170.847 235.538 171.174 236.135C171.51 236.723 171.678 237.414 171.678 238.207C171.678 238.991 171.51 239.682 171.174 240.279C170.838 240.877 170.376 241.339 169.788 241.665C169.2 241.983 168.546 242.141 167.828 242.141ZM167.828 241.287C168.332 241.287 168.798 241.175 169.228 240.951C169.657 240.718 170.002 240.373 170.264 239.915C170.534 239.449 170.67 238.879 170.67 238.207C170.67 237.535 170.539 236.971 170.278 236.513C170.016 236.047 169.671 235.701 169.242 235.477C168.812 235.244 168.346 235.127 167.842 235.127C167.338 235.127 166.871 235.244 166.442 235.477C166.012 235.701 165.667 236.047 165.406 236.513C165.154 236.971 165.028 237.535 165.028 238.207C165.028 238.879 165.154 239.449 165.406 239.915C165.667 240.373 166.008 240.718 166.428 240.951C166.857 241.175 167.324 241.287 167.828 241.287ZM174.43 236.065C174.673 235.552 175.056 235.127 175.578 234.791C176.11 234.446 176.74 234.273 177.468 234.273C178.159 234.273 178.78 234.437 179.33 234.763C179.89 235.081 180.324 235.538 180.632 236.135C180.95 236.723 181.108 237.409 181.108 238.193C181.108 238.977 180.95 239.668 180.632 240.265C180.324 240.863 179.89 241.325 179.33 241.651C178.78 241.978 178.159 242.141 177.468 242.141C176.75 242.141 176.124 241.973 175.592 241.637C175.06 241.292 174.673 240.863 174.43 240.349V245.641H173.464V234.385H174.43V236.065ZM180.114 238.193C180.114 237.559 179.988 237.013 179.736 236.555C179.494 236.089 179.158 235.734 178.728 235.491C178.299 235.249 177.814 235.127 177.272 235.127C176.75 235.127 176.269 235.253 175.83 235.505C175.401 235.757 175.06 236.117 174.808 236.583C174.556 237.05 174.43 237.591 174.43 238.207C174.43 238.823 174.556 239.365 174.808 239.831C175.06 240.298 175.401 240.657 175.83 240.909C176.269 241.161 176.75 241.287 177.272 241.287C177.814 241.287 178.299 241.166 178.728 240.923C179.158 240.671 179.494 240.312 179.736 239.845C179.988 239.369 180.114 238.819 180.114 238.193ZM192.012 234.245C192.908 234.245 193.636 234.53 194.196 235.099C194.765 235.659 195.05 236.476 195.05 237.549V242.029H194.084V237.661C194.084 236.831 193.883 236.196 193.482 235.757C193.08 235.319 192.534 235.099 191.844 235.099C191.125 235.099 190.551 235.337 190.122 235.813C189.692 236.289 189.478 236.98 189.478 237.885V242.029H188.512V237.661C188.512 236.831 188.311 236.196 187.91 235.757C187.508 235.319 186.958 235.099 186.258 235.099C185.539 235.099 184.965 235.337 184.536 235.813C184.106 236.289 183.892 236.98 183.892 237.885V242.029H182.912V234.385H183.892V235.701C184.134 235.225 184.48 234.866 184.928 234.623C185.376 234.371 185.875 234.245 186.426 234.245C187.088 234.245 187.667 234.404 188.162 234.721C188.666 235.039 189.03 235.505 189.254 236.121C189.459 235.515 189.809 235.053 190.304 234.735C190.808 234.409 191.377 234.245 192.012 234.245ZM204.142 237.815C204.142 238.151 204.133 238.408 204.114 238.585H197.772C197.8 239.164 197.94 239.659 198.192 240.069C198.444 240.48 198.775 240.793 199.186 241.007C199.597 241.213 200.045 241.315 200.53 241.315C201.165 241.315 201.697 241.161 202.126 240.853C202.565 240.545 202.854 240.13 202.994 239.607H204.03C203.843 240.354 203.442 240.965 202.826 241.441C202.219 241.908 201.454 242.141 200.53 242.141C199.811 242.141 199.167 241.983 198.598 241.665C198.029 241.339 197.581 240.881 197.254 240.293C196.937 239.696 196.778 239.001 196.778 238.207C196.778 237.414 196.937 236.719 197.254 236.121C197.571 235.524 198.015 235.067 198.584 234.749C199.153 234.432 199.802 234.273 200.53 234.273C201.258 234.273 201.893 234.432 202.434 234.749C202.985 235.067 203.405 235.496 203.694 236.037C203.993 236.569 204.142 237.162 204.142 237.815ZM203.148 237.787C203.157 237.218 203.041 236.733 202.798 236.331C202.565 235.93 202.243 235.627 201.832 235.421C201.421 235.216 200.973 235.113 200.488 235.113C199.76 235.113 199.139 235.347 198.626 235.813C198.113 236.28 197.828 236.938 197.772 237.787H203.148ZM209.519 234.245C210.434 234.245 211.18 234.53 211.759 235.099C212.338 235.659 212.627 236.476 212.627 237.549V242.029H211.661V237.661C211.661 236.831 211.451 236.196 211.031 235.757C210.62 235.319 210.056 235.099 209.337 235.099C208.6 235.099 208.012 235.333 207.573 235.799C207.134 236.266 206.915 236.952 206.915 237.857V242.029H205.935V234.385H206.915V235.687C207.158 235.221 207.508 234.866 207.965 234.623C208.422 234.371 208.94 234.245 209.519 234.245ZM216.068 235.211V239.957C216.068 240.424 216.157 240.746 216.334 240.923C216.512 241.101 216.824 241.189 217.272 241.189H218.168V242.029H217.118C216.428 242.029 215.914 241.871 215.578 241.553C215.242 241.227 215.074 240.695 215.074 239.957V235.211H214.01V234.385H215.074V232.467H216.068V234.385H218.168V235.211H216.068ZM80.5296 255.273C81.2483 255.273 81.8736 255.441 82.4056 255.777C82.9376 256.113 83.3203 256.538 83.5536 257.051V255.385H84.5336V263.225C84.5336 263.925 84.3796 264.546 84.0716 265.087C83.7729 265.629 83.3529 266.044 82.8116 266.333C82.2703 266.632 81.6543 266.781 80.9636 266.781C79.9836 266.781 79.1669 266.548 78.5136 266.081C77.8696 265.615 77.4683 264.98 77.3096 264.177H78.2756C78.4436 264.709 78.7609 265.134 79.2276 265.451C79.7036 265.769 80.2823 265.927 80.9636 265.927C81.4583 265.927 81.9016 265.82 82.2936 265.605C82.6856 265.4 82.9936 265.092 83.2176 264.681C83.4416 264.271 83.5536 263.785 83.5536 263.225V261.335C83.3109 261.858 82.9236 262.292 82.3916 262.637C81.8689 262.973 81.2483 263.141 80.5296 263.141C79.8296 263.141 79.1996 262.978 78.6396 262.651C78.0889 262.325 77.6549 261.863 77.3376 261.265C77.0296 260.668 76.8756 259.977 76.8756 259.193C76.8756 258.409 77.0296 257.723 77.3376 257.135C77.6549 256.538 78.0889 256.081 78.6396 255.763C79.1996 255.437 79.8296 255.273 80.5296 255.273ZM83.5536 259.207C83.5536 258.591 83.4276 258.05 83.1756 257.583C82.9236 257.117 82.5783 256.757 82.1396 256.505C81.7103 256.253 81.2343 256.127 80.7116 256.127C80.1703 256.127 79.6849 256.249 79.2556 256.491C78.8263 256.734 78.4856 257.089 78.2336 257.555C77.9909 258.013 77.8696 258.559 77.8696 259.193C77.8696 259.819 77.9909 260.369 78.2336 260.845C78.4856 261.312 78.8263 261.671 79.2556 261.923C79.6849 262.166 80.1703 262.287 80.7116 262.287C81.2343 262.287 81.7103 262.161 82.1396 261.909C82.5783 261.657 82.9236 261.298 83.1756 260.831C83.4276 260.365 83.5536 259.823 83.5536 259.207ZM93.3929 255.385V263.029H92.4129V261.685C92.1889 262.161 91.8435 262.525 91.3769 262.777C90.9102 263.029 90.3875 263.155 89.8089 263.155C88.8942 263.155 88.1475 262.875 87.5689 262.315C86.9902 261.746 86.7009 260.925 86.7009 259.851V255.385H87.6669V259.739C87.6669 260.57 87.8722 261.205 88.2829 261.643C88.7029 262.082 89.2722 262.301 89.9909 262.301C90.7282 262.301 91.3162 262.068 91.7549 261.601C92.1935 261.135 92.4129 260.449 92.4129 259.543V255.385H93.3929ZM96.1203 253.943C95.9243 253.943 95.7563 253.873 95.6163 253.733C95.4763 253.593 95.4063 253.421 95.4063 253.215C95.4063 253.01 95.4763 252.842 95.6163 252.711C95.7563 252.571 95.9243 252.501 96.1203 252.501C96.3163 252.501 96.4843 252.571 96.6243 252.711C96.7643 252.842 96.8343 253.01 96.8343 253.215C96.8343 253.421 96.7643 253.593 96.6243 253.733C96.4843 253.873 96.3163 253.943 96.1203 253.943ZM96.6103 255.385V263.029H95.6303V255.385H96.6103ZM98.3815 259.193C98.3815 258.409 98.5401 257.723 98.8575 257.135C99.1748 256.538 99.6088 256.081 100.159 255.763C100.719 255.437 101.349 255.273 102.049 255.273C102.721 255.273 103.328 255.437 103.869 255.763C104.411 256.09 104.807 256.515 105.059 257.037V252.669H106.039V263.029H105.059V261.321C104.826 261.853 104.443 262.292 103.911 262.637C103.379 262.973 102.754 263.141 102.035 263.141C101.335 263.141 100.705 262.978 100.145 262.651C99.5948 262.325 99.1608 261.863 98.8435 261.265C98.5355 260.668 98.3815 259.977 98.3815 259.193ZM105.059 259.207C105.059 258.591 104.933 258.05 104.681 257.583C104.429 257.117 104.084 256.757 103.645 256.505C103.216 256.253 102.74 256.127 102.217 256.127C101.676 256.127 101.191 256.249 100.761 256.491C100.332 256.734 99.9915 257.089 99.7395 257.555C99.4968 258.013 99.3755 258.559 99.3755 259.193C99.3755 259.819 99.4968 260.369 99.7395 260.845C99.9915 261.312 100.332 261.671 100.761 261.923C101.191 262.166 101.676 262.287 102.217 262.287C102.74 262.287 103.216 262.161 103.645 261.909C104.084 261.657 104.429 261.298 104.681 260.831C104.933 260.365 105.059 259.823 105.059 259.207ZM107.829 259.193C107.829 258.409 107.983 257.723 108.291 257.135C108.608 256.538 109.042 256.081 109.593 255.763C110.153 255.437 110.783 255.273 111.483 255.273C112.211 255.273 112.836 255.441 113.359 255.777C113.891 256.113 114.273 256.543 114.507 257.065V255.385H115.487V263.029H114.507V261.335C114.264 261.858 113.877 262.292 113.345 262.637C112.822 262.973 112.197 263.141 111.469 263.141C110.778 263.141 110.153 262.978 109.593 262.651C109.042 262.325 108.608 261.863 108.291 261.265C107.983 260.668 107.829 259.977 107.829 259.193ZM114.507 259.207C114.507 258.591 114.381 258.05 114.129 257.583C113.877 257.117 113.531 256.757 113.093 256.505C112.663 256.253 112.187 256.127 111.665 256.127C111.123 256.127 110.638 256.249 110.209 256.491C109.779 256.734 109.439 257.089 109.187 257.555C108.944 258.013 108.823 258.559 108.823 259.193C108.823 259.819 108.944 260.369 109.187 260.845C109.439 261.312 109.779 261.671 110.209 261.923C110.638 262.166 111.123 262.287 111.665 262.287C112.187 262.287 112.663 262.161 113.093 261.909C113.531 261.657 113.877 261.298 114.129 260.831C114.381 260.365 114.507 259.823 114.507 259.207ZM121.308 255.245C122.223 255.245 122.969 255.53 123.548 256.099C124.127 256.659 124.416 257.476 124.416 258.549V263.029H123.45V258.661C123.45 257.831 123.24 257.196 122.82 256.757C122.409 256.319 121.845 256.099 121.126 256.099C120.389 256.099 119.801 256.333 119.362 256.799C118.923 257.266 118.704 257.952 118.704 258.857V263.029H117.724V255.385H118.704V256.687C118.947 256.221 119.297 255.866 119.754 255.623C120.211 255.371 120.729 255.245 121.308 255.245ZM126.135 259.207C126.135 258.414 126.294 257.723 126.611 257.135C126.929 256.538 127.367 256.081 127.927 255.763C128.487 255.437 129.127 255.273 129.845 255.273C130.788 255.273 131.563 255.507 132.169 255.973C132.785 256.44 133.182 257.075 133.359 257.877H132.309C132.179 257.327 131.894 256.897 131.455 256.589C131.026 256.272 130.489 256.113 129.845 256.113C129.332 256.113 128.87 256.23 128.459 256.463C128.049 256.697 127.722 257.047 127.479 257.513C127.246 257.971 127.129 258.535 127.129 259.207C127.129 259.879 127.246 260.449 127.479 260.915C127.722 261.382 128.049 261.732 128.459 261.965C128.87 262.199 129.332 262.315 129.845 262.315C130.489 262.315 131.026 262.161 131.455 261.853C131.894 261.536 132.179 261.097 132.309 260.537H133.359C133.182 261.321 132.785 261.951 132.169 262.427C131.553 262.903 130.779 263.141 129.845 263.141C129.127 263.141 128.487 262.983 127.927 262.665C127.367 262.339 126.929 261.881 126.611 261.293C126.294 260.696 126.135 260.001 126.135 259.207ZM142.085 258.815C142.085 259.151 142.076 259.408 142.057 259.585H135.715C135.743 260.164 135.883 260.659 136.135 261.069C136.387 261.48 136.719 261.793 137.129 262.007C137.54 262.213 137.988 262.315 138.473 262.315C139.108 262.315 139.64 262.161 140.069 261.853C140.508 261.545 140.797 261.13 140.937 260.607H141.973C141.787 261.354 141.385 261.965 140.769 262.441C140.163 262.908 139.397 263.141 138.473 263.141C137.755 263.141 137.111 262.983 136.541 262.665C135.972 262.339 135.524 261.881 135.197 261.293C134.88 260.696 134.721 260.001 134.721 259.207C134.721 258.414 134.88 257.719 135.197 257.121C135.515 256.524 135.958 256.067 136.527 255.749C137.097 255.432 137.745 255.273 138.473 255.273C139.201 255.273 139.836 255.432 140.377 255.749C140.928 256.067 141.348 256.496 141.637 257.037C141.936 257.569 142.085 258.162 142.085 258.815ZM141.091 258.787C141.101 258.218 140.984 257.733 140.741 257.331C140.508 256.93 140.186 256.627 139.775 256.421C139.365 256.216 138.917 256.113 138.431 256.113C137.703 256.113 137.083 256.347 136.569 256.813C136.056 257.28 135.771 257.938 135.715 258.787H141.091ZM144.046 263.099C143.841 263.099 143.668 263.029 143.528 262.889C143.398 262.749 143.332 262.577 143.332 262.371C143.332 262.166 143.398 261.998 143.528 261.867C143.668 261.727 143.841 261.657 144.046 261.657C144.242 261.657 144.406 261.727 144.536 261.867C144.676 261.998 144.746 262.166 144.746 262.371C144.746 262.577 144.676 262.749 144.536 262.889C144.406 263.029 144.242 263.099 144.046 263.099Z" fill="#575455"/>
<path d="M79.9636 151.535V160.395C79.9636 161.448 80.2369 162.241 80.7836 162.775C81.3436 163.308 82.1169 163.575 83.1036 163.575C84.1036 163.575 84.8769 163.308 85.4236 162.775C85.9836 162.241 86.2636 161.448 86.2636 160.395V151.535H88.5436V160.355C88.5436 161.488 88.2969 162.448 87.8036 163.235C87.3103 164.021 86.6503 164.608 85.8236 164.995C84.9969 165.381 84.0836 165.575 83.0836 165.575C82.0836 165.575 81.1703 165.381 80.3436 164.995C79.5303 164.608 78.8836 164.021 78.4036 163.235C77.9236 162.448 77.6836 161.488 77.6836 160.355V151.535H79.9636ZM97.0722 154.235C97.9389 154.235 98.7122 154.415 99.3922 154.775C100.086 155.135 100.626 155.668 101.012 156.375C101.399 157.081 101.592 157.935 101.592 158.935V165.435H99.3322V159.275C99.3322 158.288 99.0855 157.535 98.5922 157.015C98.0989 156.481 97.4255 156.215 96.5722 156.215C95.7189 156.215 95.0389 156.481 94.5322 157.015C94.0389 157.535 93.7922 158.288 93.7922 159.275V165.435H91.5122V154.415H93.7922V155.675C94.1655 155.221 94.6389 154.868 95.2122 154.615C95.7989 154.361 96.4189 154.235 97.0722 154.235ZM103.74 159.875C103.74 158.768 103.967 157.788 104.42 156.935C104.887 156.081 105.514 155.421 106.3 154.955C107.1 154.475 107.987 154.235 108.96 154.235C109.68 154.235 110.387 154.395 111.08 154.715C111.787 155.021 112.347 155.435 112.76 155.955V150.635H115.06V165.435H112.76V163.775C112.387 164.308 111.867 164.748 111.2 165.095C110.547 165.441 109.794 165.615 108.94 165.615C107.98 165.615 107.1 165.375 106.3 164.895C105.514 164.401 104.887 163.721 104.42 162.855C103.967 161.975 103.74 160.981 103.74 159.875ZM112.76 159.915C112.76 159.155 112.6 158.495 112.28 157.935C111.974 157.375 111.567 156.948 111.06 156.655C110.554 156.361 110.007 156.215 109.42 156.215C108.834 156.215 108.287 156.361 107.78 156.655C107.274 156.935 106.86 157.355 106.54 157.915C106.234 158.461 106.08 159.115 106.08 159.875C106.08 160.635 106.234 161.301 106.54 161.875C106.86 162.448 107.274 162.888 107.78 163.195C108.3 163.488 108.847 163.635 109.42 163.635C110.007 163.635 110.554 163.488 111.06 163.195C111.567 162.901 111.974 162.475 112.28 161.915C112.6 161.341 112.76 160.675 112.76 159.915ZM128.155 159.655C128.155 160.068 128.129 160.441 128.075 160.775H119.655C119.722 161.655 120.049 162.361 120.635 162.895C121.222 163.428 121.942 163.695 122.795 163.695C124.022 163.695 124.889 163.181 125.395 162.155H127.855C127.522 163.168 126.915 164.001 126.035 164.655C125.169 165.295 124.089 165.615 122.795 165.615C121.742 165.615 120.795 165.381 119.955 164.915C119.129 164.435 118.475 163.768 117.995 162.915C117.529 162.048 117.295 161.048 117.295 159.915C117.295 158.781 117.522 157.788 117.975 156.935C118.442 156.068 119.089 155.401 119.915 154.935C120.755 154.468 121.715 154.235 122.795 154.235C123.835 154.235 124.762 154.461 125.575 154.915C126.389 155.368 127.022 156.008 127.475 156.835C127.929 157.648 128.155 158.588 128.155 159.655ZM125.775 158.935C125.762 158.095 125.462 157.421 124.875 156.915C124.289 156.408 123.562 156.155 122.695 156.155C121.909 156.155 121.235 156.408 120.675 156.915C120.115 157.408 119.782 158.081 119.675 158.935H125.775ZM132.679 156.015C133.012 155.455 133.452 155.021 133.999 154.715C134.559 154.395 135.219 154.235 135.979 154.235V156.595H135.399C134.506 156.595 133.826 156.821 133.359 157.275C132.906 157.728 132.679 158.515 132.679 159.635V165.435H130.399V154.415H132.679V156.015ZM142.075 165.615C141.208 165.615 140.428 165.461 139.735 165.155C139.055 164.835 138.515 164.408 138.115 163.875C137.715 163.328 137.501 162.721 137.475 162.055H139.835C139.875 162.521 140.095 162.915 140.495 163.235C140.908 163.541 141.421 163.695 142.035 163.695C142.675 163.695 143.168 163.575 143.515 163.335C143.875 163.081 144.055 162.761 144.055 162.375C144.055 161.961 143.855 161.655 143.455 161.455C143.068 161.255 142.448 161.035 141.595 160.795C140.768 160.568 140.095 160.348 139.575 160.135C139.055 159.921 138.601 159.595 138.215 159.155C137.841 158.715 137.655 158.135 137.655 157.415C137.655 156.828 137.828 156.295 138.175 155.815C138.521 155.321 139.015 154.935 139.655 154.655C140.308 154.375 141.055 154.235 141.895 154.235C143.148 154.235 144.155 154.555 144.915 155.195C145.688 155.821 146.101 156.681 146.155 157.775H143.875C143.835 157.281 143.635 156.888 143.275 156.595C142.915 156.301 142.428 156.155 141.815 156.155C141.215 156.155 140.755 156.268 140.435 156.495C140.115 156.721 139.955 157.021 139.955 157.395C139.955 157.688 140.061 157.935 140.275 158.135C140.488 158.335 140.748 158.495 141.055 158.615C141.361 158.721 141.815 158.861 142.415 159.035C143.215 159.248 143.868 159.468 144.375 159.695C144.895 159.908 145.341 160.228 145.715 160.655C146.088 161.081 146.281 161.648 146.295 162.355C146.295 162.981 146.121 163.541 145.775 164.035C145.428 164.528 144.935 164.915 144.295 165.195C143.668 165.475 142.928 165.615 142.075 165.615ZM151.418 156.275V162.375C151.418 162.788 151.512 163.088 151.698 163.275C151.898 163.448 152.232 163.535 152.698 163.535H154.098V165.435H152.298C151.272 165.435 150.485 165.195 149.938 164.715C149.392 164.235 149.118 163.455 149.118 162.375V156.275H147.818V154.415H149.118V151.675H151.418V154.415H154.098V156.275H151.418ZM155.44 159.875C155.44 158.768 155.666 157.788 156.12 156.935C156.586 156.081 157.213 155.421 158 154.955C158.8 154.475 159.68 154.235 160.64 154.235C161.506 154.235 162.26 154.408 162.9 154.755C163.553 155.088 164.073 155.508 164.46 156.015V154.415H166.76V165.435H164.46V163.795C164.073 164.315 163.546 164.748 162.88 165.095C162.213 165.441 161.453 165.615 160.6 165.615C159.653 165.615 158.786 165.375 158 164.895C157.213 164.401 156.586 163.721 156.12 162.855C155.666 161.975 155.44 160.981 155.44 159.875ZM164.46 159.915C164.46 159.155 164.3 158.495 163.98 157.935C163.673 157.375 163.266 156.948 162.76 156.655C162.253 156.361 161.706 156.215 161.12 156.215C160.533 156.215 159.986 156.361 159.48 156.655C158.973 156.935 158.56 157.355 158.24 157.915C157.933 158.461 157.78 159.115 157.78 159.875C157.78 160.635 157.933 161.301 158.24 161.875C158.56 162.448 158.973 162.888 159.48 163.195C160 163.488 160.546 163.635 161.12 163.635C161.706 163.635 162.253 163.488 162.76 163.195C163.266 162.901 163.673 162.475 163.98 161.915C164.3 161.341 164.46 160.675 164.46 159.915ZM175.314 154.235C176.181 154.235 176.954 154.415 177.634 154.775C178.328 155.135 178.868 155.668 179.254 156.375C179.641 157.081 179.834 157.935 179.834 158.935V165.435H177.574V159.275C177.574 158.288 177.328 157.535 176.834 157.015C176.341 156.481 175.668 156.215 174.814 156.215C173.961 156.215 173.281 156.481 172.774 157.015C172.281 157.535 172.034 158.288 172.034 159.275V165.435H169.754V154.415H172.034V155.675C172.408 155.221 172.881 154.868 173.454 154.615C174.041 154.361 174.661 154.235 175.314 154.235ZM181.983 159.875C181.983 158.768 182.209 157.788 182.663 156.935C183.129 156.081 183.756 155.421 184.543 154.955C185.343 154.475 186.229 154.235 187.203 154.235C187.923 154.235 188.629 154.395 189.323 154.715C190.029 155.021 190.589 155.435 191.003 155.955V150.635H193.303V165.435H191.003V163.775C190.629 164.308 190.109 164.748 189.443 165.095C188.789 165.441 188.036 165.615 187.183 165.615C186.223 165.615 185.343 165.375 184.543 164.895C183.756 164.401 183.129 163.721 182.663 162.855C182.209 161.975 181.983 160.981 181.983 159.875ZM191.003 159.915C191.003 159.155 190.843 158.495 190.523 157.935C190.216 157.375 189.809 156.948 189.303 156.655C188.796 156.361 188.249 156.215 187.663 156.215C187.076 156.215 186.529 156.361 186.023 156.655C185.516 156.935 185.103 157.355 184.783 157.915C184.476 158.461 184.323 159.115 184.323 159.875C184.323 160.635 184.476 161.301 184.783 161.875C185.103 162.448 185.516 162.888 186.023 163.195C186.543 163.488 187.089 163.635 187.663 163.635C188.249 163.635 188.796 163.488 189.303 163.195C189.809 162.901 190.216 162.475 190.523 161.915C190.843 161.341 191.003 160.675 191.003 159.915Z" fill="#524633"/>
</g>
<defs>
<filter id="filter0_d_5_4629" x="0.0996094" y="0.561523" width="337.34" height="360.883" filterUnits="userSpaceOnUse" color-interpolation-filters="sRGB">
<feFlood flood-opacity="0" result="BackgroundImageFix"/>
<feColorMatrix in="SourceAlpha" type="matrix" values="0 0 0 0 0 0 0 0 0 0 0 0 0 0 0 0 0 0 127 0" result="hardAlpha"/>
<feOffset dy="4"/>
<feGaussianBlur stdDeviation="22"/>
<feComposite in2="hardAlpha" operator="out"/>
<feColorMatrix type="matrix" values="0 0 0 0 0 0 0 0 0 0 0 0 0 0 0 0 0 0 0.07 0"/>
<feBlend mode="normal" in2="BackgroundImageFix" result="effect1_dropShadow_5_4629"/>
<feBlend mode="normal" in="SourceGraphic" in2="effect1_dropShadow_5_4629" result="shape"/>
</filter>
<filter id="filter1_b_5_4629" x="-55.9004" y="-59.4385" width="449.34" height="472.883" filterUnits="userSpaceOnUse" color-interpolation-filters="sRGB">
<feFlood flood-opacity="0" result="BackgroundImageFix"/>
<feGaussianBlur in="BackgroundImageFix" stdDeviation="50"/>
<feComposite in2="SourceAlpha" operator="in" result="effect1_backgroundBlur_5_4629"/>
<feBlend mode="normal" in="SourceGraphic" in2="effect1_backgroundBlur_5_4629" result="shape"/>
</filter>
<radialGradient id="paint0_diamond_5_4629" cx="0" cy="0" r="1" gradientUnits="userSpaceOnUse" gradientTransform="translate(224.06 78.0156) rotate(65.88) scale(175.977 52.9573)">
<stop stop-color="#7C5224"/>
<stop offset="1" stop-color="#7C5224" stop-opacity="0"/>
</radialGradient>
<clipPath id="clip0_5_4629">
<rect width="25.6831" height="25.6831" fill="white" transform="translate(89.0449 85.5068)"/>
</clipPath>
</defs>
</svg>
