<svg width="282" height="220" viewBox="0 0 282 220" fill="none" xmlns="http://www.w3.org/2000/svg">
<g filter="url(#filter0_b_5_4565)">
<rect width="282" height="220" rx="30" fill="#D5A53A" fill-opacity="0.5"/>
</g>
<rect x="26" y="154.32" width="12.4368" height="36.0321" rx="6.21841" fill="white"/>
<rect x="49.63" y="168.928" width="12.4368" height="21.4245" rx="6.21841" fill="white"/>
<rect x="73.2599" y="160.163" width="12.4368" height="30.1891" rx="6.21841" fill="white"/>
<rect x="96.8899" y="174.771" width="12.4368" height="15.5815" rx="6.21841" fill="#DD972E"/>
<rect x="120.519" y="166.979" width="12.4368" height="23.3722" rx="6.21841" fill="#DD972E"/>
<rect x="144.149" y="142.634" width="12.4368" height="47.7182" rx="6.21841" fill="white"/>
<rect x="167.779" y="152.372" width="12.4368" height="37.9798" rx="6.21841" fill="white"/>
<rect x="191.409" y="162.11" width="12.4368" height="28.2414" rx="6.21841" fill="#6E5A3C"/>
<rect x="215.039" y="142.634" width="12.4368" height="47.7182" rx="6.21841" fill="#6E5A3C"/>
<rect x="238.669" y="129" width="12.4368" height="61.352" rx="6.21841" fill="#DD972E"/>
<circle cx="50" cy="47" r="24" fill="#524633"/>
<path d="M60 47H56L53 56L47 38L44 47H40" stroke="white" stroke-width="2" stroke-linecap="round" stroke-linejoin="round"/>
<path d="M32.328 132L29.906 127.912H28.1V132H27.12V122.214H30.06C31.152 122.214 31.978 122.475 32.538 122.998C33.1073 123.521 33.392 124.207 33.392 125.056C33.392 125.765 33.1867 126.372 32.776 126.876C32.3747 127.371 31.7773 127.693 30.984 127.842L33.504 132H32.328ZM28.1 127.114H30.074C30.8393 127.114 31.4133 126.927 31.796 126.554C32.188 126.181 32.384 125.681 32.384 125.056C32.384 124.412 32.1973 123.917 31.824 123.572C31.4507 123.217 30.8627 123.04 30.06 123.04H28.1V127.114ZM42.2528 127.786C42.2528 128.122 42.2435 128.379 42.2248 128.556H35.8828C35.9108 129.135 36.0508 129.629 36.3028 130.04C36.5548 130.451 36.8861 130.763 37.2968 130.978C37.7075 131.183 38.1555 131.286 38.6408 131.286C39.2755 131.286 39.8075 131.132 40.2368 130.824C40.6755 130.516 40.9648 130.101 41.1048 129.578H42.1408C41.9541 130.325 41.5528 130.936 40.9368 131.412C40.3301 131.879 39.5648 132.112 38.6408 132.112C37.9221 132.112 37.2781 131.953 36.7088 131.636C36.1395 131.309 35.6915 130.852 35.3648 130.264C35.0475 129.667 34.8888 128.971 34.8888 128.178C34.8888 127.385 35.0475 126.689 35.3648 126.092C35.6821 125.495 36.1255 125.037 36.6948 124.72C37.2641 124.403 37.9128 124.244 38.6408 124.244C39.3688 124.244 40.0035 124.403 40.5448 124.72C41.0955 125.037 41.5155 125.467 41.8048 126.008C42.1035 126.54 42.2528 127.133 42.2528 127.786ZM41.2588 127.758C41.2681 127.189 41.1515 126.703 40.9088 126.302C40.6755 125.901 40.3535 125.597 39.9428 125.392C39.5321 125.187 39.0841 125.084 38.5988 125.084C37.8708 125.084 37.2501 125.317 36.7368 125.784C36.2235 126.251 35.9388 126.909 35.8828 127.758H41.2588ZM43.5978 128.164C43.5978 127.38 43.7518 126.694 44.0598 126.106C44.3771 125.509 44.8111 125.051 45.3618 124.734C45.9218 124.407 46.5518 124.244 47.2518 124.244C47.9798 124.244 48.6051 124.412 49.1278 124.748C49.6598 125.084 50.0424 125.513 50.2758 126.036V124.356H51.2558V132H50.2758V130.306C50.0331 130.829 49.6458 131.263 49.1138 131.608C48.5911 131.944 47.9658 132.112 47.2378 132.112C46.5471 132.112 45.9218 131.949 45.3618 131.622C44.8111 131.295 44.3771 130.833 44.0598 130.236C43.7518 129.639 43.5978 128.948 43.5978 128.164ZM50.2758 128.178C50.2758 127.562 50.1498 127.021 49.8978 126.554C49.6458 126.087 49.3004 125.728 48.8618 125.476C48.4324 125.224 47.9564 125.098 47.4338 125.098C46.8924 125.098 46.4071 125.219 45.9778 125.462C45.5484 125.705 45.2078 126.059 44.9558 126.526C44.7131 126.983 44.5918 127.529 44.5918 128.164C44.5918 128.789 44.7131 129.34 44.9558 129.816C45.2078 130.283 45.5484 130.642 45.9778 130.894C46.4071 131.137 46.8924 131.258 47.4338 131.258C47.9564 131.258 48.4324 131.132 48.8618 130.88C49.3004 130.628 49.6458 130.269 49.8978 129.802C50.1498 129.335 50.2758 128.794 50.2758 128.178ZM54.473 121.64V132H53.493V121.64H54.473ZM61.8081 125.182V129.928C61.8081 130.395 61.8967 130.717 62.0741 130.894C62.2514 131.071 62.5641 131.16 63.0121 131.16H63.9081V132H62.8581C62.1674 132 61.6541 131.841 61.3181 131.524C60.9821 131.197 60.8141 130.665 60.8141 129.928V125.182H59.7501V124.356H60.8141V122.438H61.8081V124.356H63.9081V125.182H61.8081ZM66.0143 122.914C65.8183 122.914 65.6503 122.844 65.5103 122.704C65.3703 122.564 65.3003 122.391 65.3003 122.186C65.3003 121.981 65.3703 121.813 65.5103 121.682C65.6503 121.542 65.8183 121.472 66.0143 121.472C66.2103 121.472 66.3783 121.542 66.5183 121.682C66.6583 121.813 66.7283 121.981 66.7283 122.186C66.7283 122.391 66.6583 122.564 66.5183 122.704C66.3783 122.844 66.2103 122.914 66.0143 122.914ZM66.5043 124.356V132H65.5243V124.356H66.5043ZM77.8235 124.216C78.7195 124.216 79.4475 124.501 80.0075 125.07C80.5768 125.63 80.8615 126.447 80.8615 127.52V132H79.8955V127.632C79.8955 126.801 79.6948 126.167 79.2935 125.728C78.8922 125.289 78.3462 125.07 77.6555 125.07C76.9368 125.07 76.3628 125.308 75.9335 125.784C75.5042 126.26 75.2895 126.951 75.2895 127.856V132H74.3235V127.632C74.3235 126.801 74.1228 126.167 73.7215 125.728C73.3202 125.289 72.7695 125.07 72.0695 125.07C71.3508 125.07 70.7768 125.308 70.3475 125.784C69.9182 126.26 69.7035 126.951 69.7035 127.856V132H68.7235V124.356H69.7035V125.672C69.9462 125.196 70.2915 124.837 70.7395 124.594C71.1875 124.342 71.6868 124.216 72.2375 124.216C72.9002 124.216 73.4788 124.375 73.9735 124.692C74.4775 125.009 74.8415 125.476 75.0655 126.092C75.2708 125.485 75.6208 125.023 76.1155 124.706C76.6195 124.379 77.1888 124.216 77.8235 124.216ZM89.954 127.786C89.954 128.122 89.9446 128.379 89.926 128.556H83.584C83.612 129.135 83.752 129.629 84.004 130.04C84.256 130.451 84.5873 130.763 84.998 130.978C85.4086 131.183 85.8566 131.286 86.342 131.286C86.9766 131.286 87.5086 131.132 87.938 130.824C88.3766 130.516 88.666 130.101 88.806 129.578H89.842C89.6553 130.325 89.254 130.936 88.638 131.412C88.0313 131.879 87.266 132.112 86.342 132.112C85.6233 132.112 84.9793 131.953 84.41 131.636C83.8406 131.309 83.3926 130.852 83.066 130.264C82.7486 129.667 82.59 128.971 82.59 128.178C82.59 127.385 82.7486 126.689 83.066 126.092C83.3833 125.495 83.8266 125.037 84.396 124.72C84.9653 124.403 85.614 124.244 86.342 124.244C87.07 124.244 87.7046 124.403 88.246 124.72C88.7966 125.037 89.2166 125.467 89.506 126.008C89.8046 126.54 89.954 127.133 89.954 127.786ZM88.96 127.758C88.9693 127.189 88.8526 126.703 88.61 126.302C88.3766 125.901 88.0546 125.597 87.644 125.392C87.2333 125.187 86.7853 125.084 86.3 125.084C85.572 125.084 84.9513 125.317 84.438 125.784C83.9246 126.251 83.64 126.909 83.584 127.758H88.96ZM96.5688 125.714C96.7834 125.238 97.1101 124.869 97.5488 124.608C97.9968 124.347 98.5428 124.216 99.1868 124.216V125.238H98.9208C98.2114 125.238 97.6421 125.429 97.2128 125.812C96.7834 126.195 96.5688 126.834 96.5688 127.73V132H95.5888V124.356H96.5688V125.714ZM107.577 127.786C107.577 128.122 107.568 128.379 107.549 128.556H101.207C101.235 129.135 101.375 129.629 101.627 130.04C101.879 130.451 102.21 130.763 102.621 130.978C103.032 131.183 103.48 131.286 103.965 131.286C104.6 131.286 105.132 131.132 105.561 130.824C106 130.516 106.289 130.101 106.429 129.578H107.465C107.278 130.325 106.877 130.936 106.261 131.412C105.654 131.879 104.889 132.112 103.965 132.112C103.246 132.112 102.602 131.953 102.033 131.636C101.464 131.309 101.016 130.852 100.689 130.264C100.372 129.667 100.213 128.971 100.213 128.178C100.213 127.385 100.372 126.689 100.689 126.092C101.006 125.495 101.45 125.037 102.019 124.72C102.588 124.403 103.237 124.244 103.965 124.244C104.693 124.244 105.328 124.403 105.869 124.72C106.42 125.037 106.84 125.467 107.129 126.008C107.428 126.54 107.577 127.133 107.577 127.786ZM106.583 127.758C106.592 127.189 106.476 126.703 106.233 126.302C106 125.901 105.678 125.597 105.267 125.392C104.856 125.187 104.408 125.084 103.923 125.084C103.195 125.084 102.574 125.317 102.061 125.784C101.548 126.251 101.263 126.909 101.207 127.758H106.583ZM110.336 126.036C110.579 125.523 110.961 125.098 111.484 124.762C112.016 124.417 112.646 124.244 113.374 124.244C114.065 124.244 114.685 124.407 115.236 124.734C115.796 125.051 116.23 125.509 116.538 126.106C116.855 126.694 117.014 127.38 117.014 128.164C117.014 128.948 116.855 129.639 116.538 130.236C116.23 130.833 115.796 131.295 115.236 131.622C114.685 131.949 114.065 132.112 113.374 132.112C112.655 132.112 112.03 131.944 111.498 131.608C110.966 131.263 110.579 130.833 110.336 130.32V135.612H109.37V124.356H110.336V126.036ZM116.02 128.164C116.02 127.529 115.894 126.983 115.642 126.526C115.399 126.059 115.063 125.705 114.634 125.462C114.205 125.219 113.719 125.098 113.178 125.098C112.655 125.098 112.175 125.224 111.736 125.476C111.307 125.728 110.966 126.087 110.714 126.554C110.462 127.021 110.336 127.562 110.336 128.178C110.336 128.794 110.462 129.335 110.714 129.802C110.966 130.269 111.307 130.628 111.736 130.88C112.175 131.132 112.655 131.258 113.178 131.258C113.719 131.258 114.205 131.137 114.634 130.894C115.063 130.642 115.399 130.283 115.642 129.816C115.894 129.34 116.02 128.789 116.02 128.164ZM122.163 132.112C121.445 132.112 120.796 131.953 120.217 131.636C119.648 131.309 119.195 130.852 118.859 130.264C118.533 129.667 118.369 128.971 118.369 128.178C118.369 127.385 118.537 126.694 118.873 126.106C119.209 125.509 119.667 125.051 120.245 124.734C120.824 124.407 121.473 124.244 122.191 124.244C122.91 124.244 123.559 124.407 124.137 124.734C124.725 125.051 125.183 125.509 125.509 126.106C125.845 126.694 126.013 127.385 126.013 128.178C126.013 128.962 125.845 129.653 125.509 130.25C125.173 130.847 124.711 131.309 124.123 131.636C123.535 131.953 122.882 132.112 122.163 132.112ZM122.163 131.258C122.667 131.258 123.134 131.146 123.563 130.922C123.993 130.689 124.338 130.343 124.599 129.886C124.87 129.419 125.005 128.85 125.005 128.178C125.005 127.506 124.875 126.941 124.613 126.484C124.352 126.017 124.007 125.672 123.577 125.448C123.148 125.215 122.681 125.098 122.177 125.098C121.673 125.098 121.207 125.215 120.777 125.448C120.348 125.672 120.003 126.017 119.741 126.484C119.489 126.941 119.363 127.506 119.363 128.178C119.363 128.85 119.489 129.419 119.741 129.886C120.003 130.343 120.343 130.689 120.763 130.922C121.193 131.146 121.659 131.258 122.163 131.258ZM128.78 125.714C128.994 125.238 129.321 124.869 129.76 124.608C130.208 124.347 130.754 124.216 131.398 124.216V125.238H131.132C130.422 125.238 129.853 125.429 129.424 125.812C128.994 126.195 128.78 126.834 128.78 127.73V132H127.8V124.356H128.78V125.714ZM134.146 125.182V129.928C134.146 130.395 134.235 130.717 134.412 130.894C134.589 131.071 134.902 131.16 135.35 131.16H136.246V132H135.196C134.505 132 133.992 131.841 133.656 131.524C133.32 131.197 133.152 130.665 133.152 129.928V125.182H132.088V124.356H133.152V122.438H134.146V124.356H136.246V125.182H134.146Z" fill="white"/>
<path d="M45.6 89.1L41.48 103H38.9L35.98 92.48L32.88 103L30.32 103.02L26.38 89.1H28.8L31.68 100.42L34.8 89.1H37.36L40.26 100.36L43.16 89.1H45.6ZM57.5805 97.22C57.5805 97.6333 57.5538 98.0067 57.5005 98.34H49.0805C49.1471 99.22 49.4738 99.9267 50.0605 100.46C50.6471 100.993 51.3671 101.26 52.2205 101.26C53.4471 101.26 54.3138 100.747 54.8205 99.72H57.2805C56.9471 100.733 56.3405 101.567 55.4605 102.22C54.5938 102.86 53.5138 103.18 52.2205 103.18C51.1671 103.18 50.2205 102.947 49.3805 102.48C48.5538 102 47.9005 101.333 47.4205 100.48C46.9538 99.6133 46.7205 98.6133 46.7205 97.48C46.7205 96.3467 46.9471 95.3533 47.4005 94.5C47.8671 93.6333 48.5138 92.9667 49.3405 92.5C50.1805 92.0333 51.1405 91.8 52.2205 91.8C53.2605 91.8 54.1871 92.0267 55.0005 92.48C55.8138 92.9333 56.4471 93.5733 56.9005 94.4C57.3538 95.2133 57.5805 96.1533 57.5805 97.22ZM55.2005 96.5C55.1871 95.66 54.8871 94.9867 54.3005 94.48C53.7138 93.9733 52.9871 93.72 52.1205 93.72C51.3338 93.72 50.6605 93.9733 50.1005 94.48C49.5405 94.9733 49.2071 95.6467 49.1005 96.5H55.2005ZM59.0642 97.44C59.0642 96.3333 59.2909 95.3533 59.7442 94.5C60.2109 93.6467 60.8376 92.9867 61.6242 92.52C62.4242 92.04 63.3042 91.8 64.2642 91.8C65.1309 91.8 65.8842 91.9733 66.5242 92.32C67.1776 92.6533 67.6976 93.0733 68.0842 93.58V91.98H70.3842V103H68.0842V101.36C67.6976 101.88 67.1709 102.313 66.5042 102.66C65.8376 103.007 65.0776 103.18 64.2242 103.18C63.2776 103.18 62.4109 102.94 61.6242 102.46C60.8376 101.967 60.2109 101.287 59.7442 100.42C59.2909 99.54 59.0642 98.5467 59.0642 97.44ZM68.0842 97.48C68.0842 96.72 67.9242 96.06 67.6042 95.5C67.2976 94.94 66.8909 94.5133 66.3842 94.22C65.8776 93.9267 65.3309 93.78 64.7442 93.78C64.1576 93.78 63.6109 93.9267 63.1042 94.22C62.5976 94.5 62.1842 94.92 61.8642 95.48C61.5576 96.0267 61.4042 96.68 61.4042 97.44C61.4042 98.2 61.5576 98.8667 61.8642 99.44C62.1842 100.013 62.5976 100.453 63.1042 100.76C63.6242 101.053 64.1709 101.2 64.7442 101.2C65.3309 101.2 65.8776 101.053 66.3842 100.76C66.8909 100.467 67.2976 100.04 67.6042 99.48C67.9242 98.9067 68.0842 98.24 68.0842 97.48ZM75.6589 88.2V103H73.3789V88.2H75.6589ZM81.3123 93.84V99.94C81.3123 100.353 81.4057 100.653 81.5923 100.84C81.7923 101.013 82.1257 101.1 82.5923 101.1H83.9923V103H82.1923C81.1657 103 80.379 102.76 79.8323 102.28C79.2857 101.8 79.0123 101.02 79.0123 99.94V93.84H77.7123V91.98H79.0123V89.24H81.3123V91.98H83.9923V93.84H81.3123ZM91.7938 91.8C92.6338 91.8 93.3804 91.98 94.0338 92.34C94.7004 92.7 95.2204 93.2333 95.5938 93.94C95.9804 94.6467 96.1738 95.5 96.1738 96.5V103H93.9138V96.84C93.9138 95.8533 93.6671 95.1 93.1738 94.58C92.6804 94.0467 92.0071 93.78 91.1538 93.78C90.3004 93.78 89.6204 94.0467 89.1138 94.58C88.6204 95.1 88.3738 95.8533 88.3738 96.84V103H86.0938V88.2H88.3738V93.26C88.7604 92.7933 89.2471 92.4333 89.8338 92.18C90.4338 91.9267 91.0871 91.8 91.7938 91.8ZM118.917 89.1V103H116.637V93.48L112.397 103H110.817L106.557 93.48V103H104.277V89.1H106.737L111.617 100L116.477 89.1H118.917ZM121.154 97.44C121.154 96.3333 121.381 95.3533 121.834 94.5C122.301 93.6467 122.927 92.9867 123.714 92.52C124.514 92.04 125.394 91.8 126.354 91.8C127.221 91.8 127.974 91.9733 128.614 92.32C129.267 92.6533 129.787 93.0733 130.174 93.58V91.98H132.474V103H130.174V101.36C129.787 101.88 129.261 102.313 128.594 102.66C127.927 103.007 127.167 103.18 126.314 103.18C125.367 103.18 124.501 102.94 123.714 102.46C122.927 101.967 122.301 101.287 121.834 100.42C121.381 99.54 121.154 98.5467 121.154 97.44ZM130.174 97.48C130.174 96.72 130.014 96.06 129.694 95.5C129.387 94.94 128.981 94.5133 128.474 94.22C127.967 93.9267 127.421 93.78 126.834 93.78C126.247 93.78 125.701 93.9267 125.194 94.22C124.687 94.5 124.274 94.92 123.954 95.48C123.647 96.0267 123.494 96.68 123.494 97.44C123.494 98.2 123.647 98.8667 123.954 99.44C124.274 100.013 124.687 100.453 125.194 100.76C125.714 101.053 126.261 101.2 126.834 101.2C127.421 101.2 127.967 101.053 128.474 100.76C128.981 100.467 129.387 100.04 129.694 99.48C130.014 98.9067 130.174 98.24 130.174 97.48ZM141.029 91.8C141.895 91.8 142.669 91.98 143.349 92.34C144.042 92.7 144.582 93.2333 144.969 93.94C145.355 94.6467 145.549 95.5 145.549 96.5V103H143.289V96.84C143.289 95.8533 143.042 95.1 142.549 94.58C142.055 94.0467 141.382 93.78 140.529 93.78C139.675 93.78 138.995 94.0467 138.489 94.58C137.995 95.1 137.749 95.8533 137.749 96.84V103H135.469V91.98H137.749V93.24C138.122 92.7867 138.595 92.4333 139.169 92.18C139.755 91.9267 140.375 91.8 141.029 91.8ZM147.697 97.44C147.697 96.3333 147.924 95.3533 148.377 94.5C148.844 93.6467 149.47 92.9867 150.257 92.52C151.057 92.04 151.937 91.8 152.897 91.8C153.764 91.8 154.517 91.9733 155.157 92.32C155.81 92.6533 156.33 93.0733 156.717 93.58V91.98H159.017V103H156.717V101.36C156.33 101.88 155.804 102.313 155.137 102.66C154.47 103.007 153.71 103.18 152.857 103.18C151.91 103.18 151.044 102.94 150.257 102.46C149.47 101.967 148.844 101.287 148.377 100.42C147.924 99.54 147.697 98.5467 147.697 97.44ZM156.717 97.48C156.717 96.72 156.557 96.06 156.237 95.5C155.93 94.94 155.524 94.5133 155.017 94.22C154.51 93.9267 153.964 93.78 153.377 93.78C152.79 93.78 152.244 93.9267 151.737 94.22C151.23 94.5 150.817 94.92 150.497 95.48C150.19 96.0267 150.037 96.68 150.037 97.44C150.037 98.2 150.19 98.8667 150.497 99.44C150.817 100.013 151.23 100.453 151.737 100.76C152.257 101.053 152.804 101.2 153.377 101.2C153.964 101.2 154.51 101.053 155.017 100.76C155.524 100.467 155.93 100.04 156.237 99.48C156.557 98.9067 156.717 98.24 156.717 97.48ZM166.452 91.8C167.305 91.8 168.058 91.9733 168.712 92.32C169.378 92.6533 169.898 93.0733 170.272 93.58V91.98H172.572V103.18C172.572 104.193 172.358 105.093 171.932 105.88C171.505 106.68 170.885 107.307 170.072 107.76C169.272 108.213 168.312 108.44 167.192 108.44C165.698 108.44 164.458 108.087 163.472 107.38C162.485 106.687 161.925 105.74 161.792 104.54H164.052C164.225 105.113 164.592 105.573 165.152 105.92C165.725 106.28 166.405 106.46 167.192 106.46C168.112 106.46 168.852 106.18 169.412 105.62C169.985 105.06 170.272 104.247 170.272 103.18V101.34C169.885 101.86 169.358 102.3 168.692 102.66C168.038 103.007 167.292 103.18 166.452 103.18C165.492 103.18 164.612 102.94 163.812 102.46C163.025 101.967 162.398 101.287 161.932 100.42C161.478 99.54 161.252 98.5467 161.252 97.44C161.252 96.3333 161.478 95.3533 161.932 94.5C162.398 93.6467 163.025 92.9867 163.812 92.52C164.612 92.04 165.492 91.8 166.452 91.8ZM170.272 97.48C170.272 96.72 170.112 96.06 169.792 95.5C169.485 94.94 169.078 94.5133 168.572 94.22C168.065 93.9267 167.518 93.78 166.932 93.78C166.345 93.78 165.798 93.9267 165.292 94.22C164.785 94.5 164.372 94.92 164.052 95.48C163.745 96.0267 163.592 96.68 163.592 97.44C163.592 98.2 163.745 98.8667 164.052 99.44C164.372 100.013 164.785 100.453 165.292 100.76C165.812 101.053 166.358 101.2 166.932 101.2C167.518 101.2 168.065 101.053 168.572 100.76C169.078 100.467 169.485 100.04 169.792 99.48C170.112 98.9067 170.272 98.24 170.272 97.48ZM185.666 97.22C185.666 97.6333 185.64 98.0067 185.586 98.34H177.166C177.233 99.22 177.56 99.9267 178.146 100.46C178.733 100.993 179.453 101.26 180.306 101.26C181.533 101.26 182.4 100.747 182.906 99.72H185.366C185.033 100.733 184.426 101.567 183.546 102.22C182.68 102.86 181.6 103.18 180.306 103.18C179.253 103.18 178.306 102.947 177.466 102.48C176.64 102 175.986 101.333 175.506 100.48C175.04 99.6133 174.806 98.6133 174.806 97.48C174.806 96.3467 175.033 95.3533 175.486 94.5C175.953 93.6333 176.6 92.9667 177.426 92.5C178.266 92.0333 179.226 91.8 180.306 91.8C181.346 91.8 182.273 92.0267 183.086 92.48C183.9 92.9333 184.533 93.5733 184.986 94.4C185.44 95.2133 185.666 96.1533 185.666 97.22ZM183.286 96.5C183.273 95.66 182.973 94.9867 182.386 94.48C181.8 93.9733 181.073 93.72 180.206 93.72C179.42 93.72 178.746 93.9733 178.186 94.48C177.626 94.9733 177.293 95.6467 177.186 96.5H183.286ZM201.25 91.8C202.117 91.8 202.89 91.98 203.57 92.34C204.263 92.7 204.803 93.2333 205.19 93.94C205.59 94.6467 205.79 95.5 205.79 96.5V103H203.53V96.84C203.53 95.8533 203.283 95.1 202.79 94.58C202.297 94.0467 201.623 93.78 200.77 93.78C199.917 93.78 199.237 94.0467 198.73 94.58C198.237 95.1 197.99 95.8533 197.99 96.84V103H195.73V96.84C195.73 95.8533 195.483 95.1 194.99 94.58C194.497 94.0467 193.823 93.78 192.97 93.78C192.117 93.78 191.437 94.0467 190.93 94.58C190.437 95.1 190.19 95.8533 190.19 96.84V103H187.91V91.98H190.19V93.24C190.563 92.7867 191.037 92.4333 191.61 92.18C192.183 91.9267 192.797 91.8 193.45 91.8C194.33 91.8 195.117 91.9867 195.81 92.36C196.503 92.7333 197.037 93.2733 197.41 93.98C197.743 93.3133 198.263 92.7867 198.97 92.4C199.677 92 200.437 91.8 201.25 91.8ZM218.791 97.22C218.791 97.6333 218.765 98.0067 218.711 98.34H210.291C210.358 99.22 210.685 99.9267 211.271 100.46C211.858 100.993 212.578 101.26 213.431 101.26C214.658 101.26 215.525 100.747 216.031 99.72H218.491C218.158 100.733 217.551 101.567 216.671 102.22C215.805 102.86 214.725 103.18 213.431 103.18C212.378 103.18 211.431 102.947 210.591 102.48C209.765 102 209.111 101.333 208.631 100.48C208.165 99.6133 207.931 98.6133 207.931 97.48C207.931 96.3467 208.158 95.3533 208.611 94.5C209.078 93.6333 209.725 92.9667 210.551 92.5C211.391 92.0333 212.351 91.8 213.431 91.8C214.471 91.8 215.398 92.0267 216.211 92.48C217.025 92.9333 217.658 93.5733 218.111 94.4C218.565 95.2133 218.791 96.1533 218.791 97.22ZM216.411 96.5C216.398 95.66 216.098 94.9867 215.511 94.48C214.925 93.9733 214.198 93.72 213.331 93.72C212.545 93.72 211.871 93.9733 211.311 94.48C210.751 94.9733 210.418 95.6467 210.311 96.5H216.411ZM226.595 91.8C227.462 91.8 228.235 91.98 228.915 92.34C229.608 92.7 230.148 93.2333 230.535 93.94C230.922 94.6467 231.115 95.5 231.115 96.5V103H228.855V96.84C228.855 95.8533 228.608 95.1 228.115 94.58C227.622 94.0467 226.948 93.78 226.095 93.78C225.242 93.78 224.562 94.0467 224.055 94.58C223.562 95.1 223.315 95.8533 223.315 96.84V103H221.035V91.98H223.315V93.24C223.688 92.7867 224.162 92.4333 224.735 92.18C225.322 91.9267 225.942 91.8 226.595 91.8ZM236.683 93.84V99.94C236.683 100.353 236.777 100.653 236.963 100.84C237.163 101.013 237.497 101.1 237.963 101.1H239.363V103H237.563C236.537 103 235.75 102.76 235.203 102.28C234.657 101.8 234.383 101.02 234.383 99.94V93.84H233.083V91.98H234.383V89.24H236.683V91.98H239.363V93.84H236.683Z" fill="white"/>
<defs>
<filter id="filter0_b_5_4565" x="-64" y="-64" width="410" height="348" filterUnits="userSpaceOnUse" color-interpolation-filters="sRGB">
<feFlood flood-opacity="0" result="BackgroundImageFix"/>
<feGaussianBlur in="BackgroundImageFix" stdDeviation="32"/>
<feComposite in2="SourceAlpha" operator="in" result="effect1_backgroundBlur_5_4565"/>
<feBlend mode="normal" in="SourceGraphic" in2="effect1_backgroundBlur_5_4565" result="shape"/>
</filter>
</defs>
</svg>
